<svg width="120" height="120" viewBox="0 0 120 120" fill="none" xmlns="http://www.w3.org/2000/svg">
<g style="mix-blend-mode:multiply" opacity="0.1">
<path d="M15.1813 37.2801L117.492 95.5823V60.6148L114.121 54.2223L9.87386 30.4683L15.1813 37.2801Z" fill="black"/>
</g>
<g style="mix-blend-mode:multiply" opacity="0.1">
<path d="M17.889 84.1958L23.6239 87.5081L30.0958 83.7988L76.8364 110.786L61.4557 119.603L49.2509 120L2.50826 93.015L17.889 84.1958Z" fill="black"/>
</g>
<path d="M12.8625 4.14088L20.0347 0L114.121 54.2223V86.0179C110.668 88.011 107.547 88.1637 105.318 86.7997L11.3844 32.669C9.15318 31.3925 7.77084 28.6401 7.77084 24.717V12.9621C7.77084 9.71498 10.051 5.76751 12.8625 4.14292V4.14088Z" fill="url(#paint0_linear_43_138250)"/>
<path d="M106.948 58.3632L114.121 54.2223V86.0179C107.347 89.9287 101.857 86.7589 101.857 78.9373V67.1824C101.857 63.9352 104.137 59.9857 106.948 58.3632Z" fill="url(#paint1_linear_43_138250)"/>
<path d="M108.837 87.5468C110.33 87.5468 112.284 86.9808 114.118 85.9283L114.096 54.9165L107.473 58.7418C104.79 60.2911 102.608 64.0716 102.608 67.1702V79.2895C102.608 81.879 103.223 84.0146 104.383 85.4682C105.468 86.8281 107.009 87.5468 108.837 87.5468Z" fill="#C4CBCF"/>
<g style="mix-blend-mode:multiply">
<path d="M14.1614 4.87783L21.0629 0.592407L21.2095 0.677912L14.2388 5.00609C11.4517 6.61439 9.18381 10.5415 9.18381 13.7602V17.0256L99.6195 69.2406V65.8611C99.6195 62.5957 101.92 58.6095 104.748 56.9788L111.83 52.9031L111.979 52.9886L104.823 57.1071C102.036 58.7154 99.7681 62.6445 99.7681 65.8611V69.4992L9.07184 17.1335L9.03519 17.1132V13.7622C9.03519 10.4967 11.3357 6.51057 14.1635 4.87987L14.1614 4.87783Z" fill="#DEE5E9"/>
</g>
<path d="M76.6492 61.9564L33.7298 37.1763V34.7354L76.6492 59.5155V61.9564Z" fill="#B9C0C4"/>
<path d="M101.857 76.2745V76.9137L7.77077 22.5916V21.9524L101.857 76.2745Z" fill="#9FA6AA"/>
<path d="M101.676 84.6988L12.2659 33.1739C11.0831 31.6796 10.3991 29.4992 10.3991 26.7407V26.6572L99.7171 78.2269C99.7293 81.022 100.448 83.2146 101.676 84.6988Z" fill="#61686C"/>
<path d="M100.875 83.4956L100.124 84.196L12.04 33.3389L14.1145 31.4333L100 81.0221C100.198 81.9484 100.493 82.775 100.875 83.4956Z" fill="url(#paint2_linear_43_138250)"/>
<path d="M100.32 82.1967L11.01 30.6332L13.0845 28.7277L99.7274 78.7521C99.7742 80.0408 99.9798 81.1931 100.32 82.1988V82.1967Z" fill="url(#paint3_linear_43_138250)"/>
<path d="M65.1672 110.564L49.4017 119.603V80.6026L65.1692 71.5635L65.1672 110.564Z" fill="#B9C0C4"/>
<g style="mix-blend-mode:multiply" opacity="0.2">
<path d="M62.5308 108.64L53.227 113.974V95.9426L62.5308 90.6088V108.64Z" fill="black"/>
</g>
<path d="M55.395 112.433L53.2248 111.456L53.2269 90.1243L55.395 94.4015V112.433Z" fill="#C6CDD1"/>
<path d="M64.7009 89.0677L55.3951 94.4016L53.227 90.1243L62.5307 84.7904L64.7009 89.0677Z" fill="#DEE5E9"/>
<path d="M64.7009 107.099L55.3951 112.433V94.4015L64.7009 89.0676V107.099Z" fill="#B9C0C4"/>
<path d="M49.4017 80.6025L3.02954 53.8313L18.797 44.7922L65.1692 71.5634L49.4017 80.6025Z" fill="#EBF2F6"/>
<path d="M64.4097 71.3723L18.7969 45.0388L3.78873 53.6443L49.4015 79.9777L64.4097 71.3723Z" fill="#DEE5E9"/>
<path d="M49.4016 119.603L3.02946 92.8318V53.8314L49.4016 80.6026V119.603Z" fill="#C6CDD1"/>
<g style="mix-blend-mode:multiply" opacity="0.2">
<path d="M5.22588 60.4172C5.22588 58.3325 7.0113 59.3871 7.0113 59.3871L19.7536 66.7446C27.7768 71.3761 34.2812 82.6424 34.2812 91.9074V106.622C34.2812 108.644 32.4979 107.653 32.4979 107.653L19.7556 100.295C11.7324 95.6635 5.22791 84.3973 5.22791 75.1342V60.4192L5.22588 60.4172Z" fill="black"/>
</g>
<path d="M32.2295 90.9732C32.2295 99.1002 26.5231 102.394 19.4852 98.3307C12.4473 94.2671 6.74293 84.3852 6.74293 76.2582C6.74293 68.1312 12.4494 64.8372 19.4872 68.9007C26.5251 72.9642 32.2295 82.8461 32.2295 90.9711V90.9732Z" fill="#414E52"/>
<path d="M33.7825 92.0033V104.729V105.141V106.718C33.7825 107.362 33.6013 107.7 33.3549 107.86C33.3305 107.877 33.304 107.891 33.2776 107.905C33.2776 107.905 33.2776 107.905 33.2755 107.905C33.2491 107.917 33.2226 107.93 33.1961 107.938C32.675 108.121 31.9991 107.746 31.9991 107.746L30.631 106.959L30.2747 106.753L29.0512 106.046L28.5992 105.786L27.2739 105.02L26.8118 104.754L25.2707 103.862L24.5031 103.42L21.9808 101.965L21.7589 101.836L21.71 101.808L19.2548 100.391C11.9828 96.193 5.9608 86.5473 4.89606 77.8807C4.78613 76.985 4.72912 76.0994 4.72912 75.2301V60.5151C4.72912 58.4304 6.51455 59.485 6.51455 59.485L7.8806 60.2749L8.23889 60.4805L9.46243 61.1869L9.91439 61.4475L11.2397 62.211L11.7018 62.4777L13.243 63.3673L14.0105 63.8111L16.5308 65.2667L16.7527 65.395L16.8036 65.4235L19.2589 66.8404C19.383 66.9137 19.5093 66.987 19.6334 67.0623C19.8818 67.213 20.1302 67.3698 20.3765 67.5347C20.5007 67.6161 20.6229 67.6996 20.745 67.7851C27.9478 72.7891 33.5972 82.9703 33.7825 91.5656C33.7865 91.7122 33.7886 91.8567 33.7886 92.0013L33.7825 92.0033ZM33.017 102.757L32.8154 102.48C32.2882 103.038 31.6998 103.508 31.0606 103.886L31.5654 104.76C32.0846 104.452 32.5691 104.088 33.019 103.669V102.757H33.017ZM26.258 103.553C26.7181 103.546 27.166 103.51 27.5976 103.437L27.2088 102.52C26.4799 102.641 25.7063 102.665 24.8981 102.588L24.9612 102.801L26.2601 103.553H26.258ZM23.8639 102.17C24.1163 102.219 24.3667 102.258 24.6131 102.286L24.3444 101.368C23.5341 101.274 22.6852 101.069 21.8077 100.753L21.8444 101.006L23.8639 102.172V102.17ZM5.49052 64.4748L5.69004 64.7517C6.21732 64.1939 6.80568 63.7236 7.44696 63.3449L6.94207 62.4715C6.42293 62.779 5.93841 63.1454 5.49052 63.5628V64.4748ZM8.46284 74.8901L7.76455 74.316C7.62205 75.055 7.54468 75.8592 7.53857 76.7244L8.25315 77.1356C8.25925 76.3294 8.33255 75.5803 8.46488 74.8901H8.46284ZM8.25111 77.3881L7.53654 76.9768C7.54265 77.7118 7.59762 78.461 7.70144 79.2203L8.4038 79.4789C8.30811 78.7704 8.25519 78.0721 8.24908 77.3881H8.25111ZM8.50763 74.6702C8.64606 74.029 8.8354 73.4426 9.07563 72.9113L8.41805 72.211C8.16153 72.781 7.95795 73.4101 7.80934 74.0982L8.50763 74.6702ZM9.41969 75.4194C9.54387 74.8392 9.71691 74.3079 9.93271 73.8254L9.27514 73.125C9.04102 73.6442 8.85575 74.2183 8.72138 74.8453L9.41969 75.4194ZM8.6766 75.0652C8.54631 75.7411 8.47505 76.474 8.46894 77.2619L9.18352 77.6731C9.18963 76.9443 9.25478 76.2643 9.37489 75.6373L8.6766 75.0652ZM12.1986 79.6682C12.2047 80.0774 12.2352 80.4948 12.2902 80.9162L12.9926 81.1768C12.9437 80.8062 12.9193 80.4418 12.9132 80.0815L12.1986 79.6702V79.6682ZM12.9111 79.827C12.9172 79.4015 12.9559 79.0025 13.0231 78.632L12.3248 78.0579C12.2474 78.4772 12.2027 78.9292 12.1965 79.4137L12.9111 79.825V79.827ZM12.3268 81.1849C12.4083 81.7081 12.5264 82.2374 12.675 82.7667L13.3346 82.838C13.2043 82.3718 13.1005 81.9056 13.0292 81.4455L12.3268 81.1869V81.1849ZM13.129 80.2057C13.1351 80.5497 13.1595 80.8999 13.2043 81.2521L13.9067 81.5127C13.868 81.2093 13.8476 80.9121 13.8415 80.6169L13.1269 80.2057H13.129ZM13.8435 80.3665C13.8496 80.0163 13.8802 79.6886 13.9372 79.3812L13.2389 78.8091C13.1737 79.1633 13.1371 79.5461 13.131 79.9553L13.8456 80.3665H13.8435ZM13.5382 82.8604L14.1998 82.9316C14.0939 82.5469 14.0064 82.1641 13.9474 81.7834L13.245 81.5249C13.3142 81.9667 13.414 82.4125 13.5382 82.8604ZM14.0614 80.7431C14.0675 81.022 14.0878 81.305 14.1245 81.5921L14.8268 81.8506C14.7983 81.6165 14.7821 81.3844 14.778 81.1544L14.0634 80.7431H14.0614ZM14.7759 80.904C14.7821 80.6291 14.8065 80.3706 14.8492 80.1303L14.151 79.5583C14.098 79.8474 14.0695 80.1609 14.0614 80.4927L14.7759 80.904ZM14.4014 82.954L15.063 83.0253C14.9795 82.724 14.9124 82.4207 14.8635 82.1234L14.1632 81.8628C14.2202 82.2232 14.3016 82.5876 14.4034 82.954H14.4014ZM15.743 82.1906C15.7226 82.0237 15.7104 81.8567 15.7063 81.6939L14.9917 81.2826C14.9958 81.4964 15.0101 81.7122 15.0386 81.9321L15.7409 82.1926L15.743 82.1906ZM15.0793 82.2008C15.1241 82.4817 15.1872 82.7647 15.2645 83.0477L15.9262 83.1189C15.8672 82.8991 15.8183 82.6792 15.7817 82.4614L15.0793 82.2008ZM15.9445 80.2281L15.2869 79.5277C15.2137 79.6987 15.1546 79.886 15.1078 80.0856L15.8061 80.6597C15.8427 80.507 15.8896 80.3624 15.9445 80.2301V80.2281ZM15.061 80.3054C15.0223 80.5314 14.9979 80.7737 14.9938 81.0302L15.7084 81.4434C15.7145 81.2439 15.7328 81.0546 15.7613 80.8795L15.063 80.3054H15.061ZM15.0854 79.3119L14.4278 78.6116C14.3321 78.8335 14.2548 79.0737 14.1957 79.3343L14.894 79.9084C14.9449 79.6947 15.008 79.4952 15.0874 79.3119H15.0854ZM14.2263 78.3978L13.5687 77.6975C13.4506 77.9703 13.3549 78.2655 13.2817 78.5872L13.9799 79.1613C14.043 78.8864 14.1245 78.632 14.2263 78.3978ZM13.3692 77.4838L12.7116 76.7834C12.5691 77.1051 12.4571 77.4573 12.3716 77.84L13.0699 78.4121C13.1453 78.0762 13.245 77.7667 13.3692 77.4838ZM12.5101 76.5697L11.8525 75.8694C11.6876 76.2399 11.5553 76.6491 11.4575 77.0929L12.1558 77.6649C12.2434 77.268 12.3615 76.9015 12.508 76.5697H12.5101ZM12.111 77.8848L11.4128 77.3107C11.3211 77.7932 11.2723 78.3164 11.2641 78.8783L11.9787 79.2895C11.9848 78.7867 12.0296 78.3185 12.111 77.8848ZM11.9787 79.542L11.2641 79.1287C11.2703 79.6031 11.3049 80.0856 11.37 80.5762L12.0724 80.8368C12.0154 80.3991 11.9828 79.9675 11.9787 79.542ZM11.6509 75.6556L10.9934 74.9553C10.8061 75.3746 10.6554 75.8388 10.5455 76.3437L11.2438 76.9178C11.3435 76.4597 11.4799 76.0383 11.6489 75.6556H11.6509ZM10.5007 76.5636C10.3969 77.1112 10.3399 77.7036 10.3338 78.3408L11.0483 78.7521C11.0545 78.1739 11.1054 77.6344 11.199 77.1356L10.5007 76.5636ZM10.3338 78.5913C10.3399 79.1308 10.3806 79.6804 10.4539 80.2382L11.1562 80.4968C11.0891 79.9919 11.0524 79.4931 11.0463 79.0025L10.3317 78.5913H10.3338ZM10.4946 80.509C10.5984 81.193 10.7511 81.8852 10.9486 82.5794L11.6082 82.6507C11.4291 82.0196 11.2906 81.3905 11.1949 80.7676L10.4926 80.509H10.4946ZM11.8118 82.6731L12.4714 82.7443C12.3167 82.1967 12.1945 81.6491 12.111 81.1075L11.4087 80.847C11.5003 81.4516 11.6367 82.0623 11.8097 82.6731H11.8118ZM11.8932 82.954C12.0642 83.5241 12.2719 84.0921 12.506 84.6519L13.1045 84.5461C12.8948 84.0432 12.7096 83.5342 12.5549 83.0233L11.8953 82.952L11.8932 82.954ZM13.2857 84.5135L13.8843 84.4097C13.7071 83.9821 13.5483 83.5505 13.4181 83.1189L12.7564 83.0477C12.905 83.5404 13.0842 84.029 13.2857 84.5155V84.5135ZM14.0654 84.3771L14.664 84.2712C14.5194 83.9211 14.3912 83.5668 14.2812 83.2106L13.6196 83.1393C13.7458 83.5526 13.8944 83.9658 14.0654 84.3771ZM14.8472 84.2407L15.4437 84.1348C15.3297 83.86 15.2299 83.5831 15.1444 83.3062L14.4828 83.235C14.5866 83.5709 14.7088 83.9088 14.8452 84.2407H14.8472ZM15.6269 84.1022L16.2255 83.9964C16.144 83.7989 16.0748 83.5994 16.0097 83.3978L15.348 83.3266C15.4274 83.5851 15.5211 83.8457 15.6269 84.1022ZM16.2804 79.6662L15.6941 78.8579C15.572 79.0005 15.4641 79.1633 15.3725 79.3445L16.03 80.0448C16.1033 79.9044 16.1868 79.7781 16.2804 79.6662ZM15.515 78.6096L14.9286 77.8014C14.7698 77.9846 14.6314 78.1943 14.5133 78.4284L15.1709 79.1287C15.2686 78.9353 15.3847 78.7602 15.515 78.6096ZM14.7495 77.553L14.1632 76.7448C13.9677 76.9687 13.7987 77.2252 13.6562 77.5143L14.3138 78.2146C14.438 77.9663 14.5825 77.7443 14.7495 77.553ZM13.982 76.4984L13.3977 75.6902C13.1656 75.9528 12.9661 76.2582 12.7951 76.6022L13.4547 77.3026C13.6033 77.0013 13.7804 76.7305 13.984 76.4984H13.982ZM13.2185 75.4418L12.6322 74.6336C12.3635 74.9369 12.1314 75.2891 11.938 75.6861L12.5956 76.3864C12.7707 76.0302 12.9783 75.7126 13.2185 75.4418ZM12.4531 74.3852L11.8667 73.577C11.5634 73.919 11.2988 74.3201 11.0809 74.77L11.7385 75.4703C11.94 75.0591 12.1782 74.6967 12.4551 74.3832L12.4531 74.3852ZM11.6876 73.3307L11.1013 72.5224C10.7593 72.9031 10.4641 73.351 10.2198 73.8559L10.8794 74.5583C11.1054 74.0941 11.3761 73.6829 11.6876 73.3307ZM10.1343 74.0391C9.92456 74.5094 9.75559 75.0286 9.63345 75.5945L10.3338 76.1686C10.4457 75.6495 10.6005 75.1731 10.7939 74.7395L10.1363 74.0371L10.1343 74.0391ZM9.58865 75.8144C9.47261 76.4251 9.40746 77.0888 9.40136 77.8014L10.1159 78.2146C10.1241 77.5611 10.1811 76.9504 10.289 76.3885L9.58865 75.8144ZM9.40136 78.0538C9.40746 78.6584 9.45429 79.2753 9.53775 79.8983L10.2422 80.1588C10.1648 79.5868 10.122 79.0208 10.1159 78.465L9.40136 78.0518V78.0538ZM9.5744 80.169C9.69044 80.9345 9.86146 81.7101 10.0813 82.4858L10.745 82.557C10.5414 81.8445 10.3847 81.132 10.2768 80.4296L9.57237 80.169H9.5744ZM10.1648 82.7667C10.3847 83.4915 10.6432 84.2142 10.9425 84.9268L11.5431 84.8209C11.2682 84.1654 11.028 83.5037 10.8264 82.838L10.1648 82.7667ZM11.7242 84.7883L12.3207 84.6825C12.0785 84.1022 11.8667 83.5159 11.6876 82.9296L11.0259 82.8584C11.2214 83.5037 11.4555 84.1491 11.7222 84.7883H11.7242ZM11.8423 85.0693C12.1457 85.7676 12.4917 86.4557 12.8704 87.1234L13.3753 86.8323C13.0312 86.2256 12.7157 85.6006 12.4388 84.9654L11.8423 85.0693ZM13.5321 86.7427L14.0369 86.4516C13.7356 85.9223 13.4628 85.3787 13.2226 84.827L12.6261 84.9329C12.8948 85.5477 13.1982 86.1544 13.5341 86.7427H13.5321ZM14.1896 86.362L14.6945 86.0709C14.44 85.621 14.208 85.1588 14.0023 84.6906L13.4038 84.7965C13.6359 85.3298 13.9005 85.8531 14.1896 86.3641V86.362ZM14.8472 85.9813L15.3521 85.6902C15.1444 85.3197 14.9531 84.939 14.7821 84.5522L14.1856 84.658C14.383 85.1079 14.607 85.5497 14.8492 85.9813H14.8472ZM15.5068 85.6006L16.0117 85.3095C15.8488 85.0163 15.6982 84.7171 15.5638 84.4137L14.9673 84.5176C15.1281 84.884 15.3114 85.2464 15.5089 85.5986L15.5068 85.6006ZM16.1664 85.222L16.6713 84.9308C16.5532 84.7171 16.4433 84.4992 16.3435 84.2794L15.745 84.3852C15.8712 84.6682 16.0117 84.9492 16.1644 85.224L16.1664 85.222ZM16.6713 79.318L16.1664 78.4447C16.0422 78.5241 15.9262 78.6157 15.8183 78.7215L16.4046 79.5298C16.4881 79.4504 16.5756 79.3791 16.6713 79.318ZM16.0117 78.178L15.5068 77.3046C15.3439 77.4064 15.1933 77.5286 15.0549 77.669L15.6391 78.4772C15.7532 78.3632 15.8773 78.2635 16.0117 78.18V78.178ZM15.3541 77.0359L14.8492 76.1625C14.6477 76.2867 14.4604 76.4373 14.2894 76.6124L14.8757 77.4207C15.0223 77.272 15.1831 77.1458 15.3541 77.0379V77.0359ZM14.6945 75.8958L14.1896 75.0224C13.9494 75.1711 13.7275 75.3482 13.5239 75.5579L14.1102 76.3661C14.2894 76.1849 14.4848 76.0281 14.6945 75.8978V75.8958ZM14.0349 74.7537L13.53 73.8803C13.2491 74.0513 12.9905 74.259 12.7564 74.4992L13.3427 75.3075C13.5524 75.0917 13.7825 74.9064 14.0349 74.7537ZM13.3773 73.6136L12.8745 72.7403C12.5549 72.9337 12.2617 73.1698 11.995 73.4467L12.5793 74.2549C12.8216 74.0045 13.0882 73.7908 13.3773 73.6157V73.6136ZM12.7177 72.4736L12.2128 71.5982C11.8545 71.814 11.5247 72.0786 11.2255 72.3881L11.8138 73.1983C12.0866 72.9154 12.39 72.6711 12.7177 72.4736ZM12.0581 71.3315L11.5532 70.4581C11.1562 70.6963 10.7898 70.9895 10.46 71.3335L11.0463 72.1417C11.3517 71.8241 11.6896 71.5534 12.0581 71.3335V71.3315ZM10.3358 71.4658C9.95715 71.8873 9.6314 72.3799 9.36064 72.9398L10.0182 73.6401C10.2686 73.121 10.572 72.665 10.9221 72.2741L10.3358 71.4658ZM10.1567 71.2195L9.57237 70.4113C9.15706 70.8714 8.80079 71.4129 8.50356 72.0277L9.16113 72.7281C9.438 72.154 9.77188 71.6511 10.1587 71.2195H10.1567ZM8.46894 77.5143C8.47505 78.1841 8.52595 78.8681 8.61959 79.5583L9.32196 79.8189C9.23645 79.1776 9.18759 78.5465 9.18352 77.9276L8.46894 77.5163V77.5143ZM8.65625 79.829C8.78451 80.6759 8.97179 81.533 9.21813 82.3901L9.87977 82.4614C9.65176 81.6674 9.47871 80.8734 9.3586 80.0876L8.65625 79.829ZM9.3016 82.6731C9.54183 83.4732 9.83092 84.2733 10.1628 85.0652L10.7613 84.9593C10.4539 84.2264 10.1872 83.4874 9.96325 82.7443L9.3016 82.6731ZM10.2808 85.3441C10.6554 86.2073 11.083 87.0583 11.5532 87.8848L12.0581 87.5937C11.6224 86.8282 11.2275 86.0404 10.8794 85.2403L10.2808 85.3461V85.3441ZM12.2128 87.5041L12.7177 87.213C12.3268 86.5269 11.9726 85.8205 11.6611 85.1018L11.0626 85.2077C11.4026 85.9895 11.7873 86.759 12.2128 87.5062V87.5041ZM12.3676 87.7708C12.734 88.3958 13.1269 89.0045 13.5443 89.5888L13.9535 89.145C13.5707 88.6075 13.2084 88.0518 12.8724 87.4777L12.3676 87.7688V87.7708ZM14.0777 89.0106L14.4848 88.5689C14.1469 88.0945 13.8293 87.6039 13.5321 87.099L13.0272 87.3901C13.3529 87.9479 13.7051 88.4895 14.0777 89.0127V89.0106ZM14.609 88.4345L15.0162 87.9927C14.723 87.5815 14.4482 87.156 14.1896 86.7183L13.6847 87.0094C13.9718 87.498 14.2812 87.9744 14.607 88.4345H14.609ZM15.1404 87.8584L15.5475 87.4166C15.3012 87.0685 15.0671 86.7081 14.8492 86.3376L14.3444 86.6287C14.5927 87.0501 14.8594 87.4614 15.1404 87.8584ZM15.6717 87.2822L16.0789 86.8404C15.8773 86.5554 15.686 86.2602 15.5068 85.9589L15.0019 86.25C15.2116 86.6043 15.4356 86.9504 15.6697 87.2842L15.6717 87.2822ZM16.2031 86.7061L16.6102 86.2643C16.4535 86.0424 16.3069 85.8123 16.1664 85.5782L15.6615 85.8693C15.8305 86.1564 16.0117 86.4353 16.2031 86.7061ZM16.7344 86.1279L17.1416 85.6861C17.0316 85.5273 16.9258 85.3645 16.824 85.1955L16.3191 85.4866C16.4494 85.7044 16.5878 85.9202 16.7344 86.1259V86.1279ZM17.2251 79.0839L16.8362 78.1678C16.653 78.2085 16.4799 78.2716 16.3211 78.3551L16.826 79.2285C16.9523 79.1633 17.0866 79.1145 17.2271 79.0839H17.2251ZM16.7161 77.8889L16.3252 76.9728C16.0891 77.0237 15.8672 77.1051 15.6595 77.215L16.1644 78.0884C16.3354 77.9988 16.5207 77.9316 16.7141 77.8889H16.7161ZM16.2071 76.6939L15.8183 75.7777C15.5272 75.8388 15.2564 75.9386 15.004 76.075L15.5089 76.9483C15.7267 76.8323 15.9608 76.7468 16.2092 76.6939H16.2071ZM15.6982 75.4968L15.3073 74.5807C14.9632 74.6499 14.6416 74.77 14.3423 74.9308L14.8472 75.8042C15.1098 75.6637 15.3928 75.5579 15.6961 75.4948L15.6982 75.4968ZM15.1892 74.3018L14.8004 73.3877C14.4014 73.4671 14.0288 73.6055 13.6868 73.7928L14.1917 74.6682C14.5011 74.5013 14.835 74.3771 15.1913 74.3038L15.1892 74.3018ZM14.6803 73.1067L14.2914 72.1926C13.8395 72.2822 13.416 72.4369 13.0272 72.6507L13.5321 73.5241C13.8863 73.3307 14.2711 73.1882 14.6803 73.1067ZM14.1713 71.9137L13.7825 70.9976C13.2755 71.0974 12.8012 71.2684 12.3676 71.5086L12.8745 72.384C13.2735 72.1641 13.7071 72.0053 14.1733 71.9137H14.1713ZM13.6623 70.7167L13.2715 69.8026C12.7116 69.9125 12.1864 70.1018 11.708 70.3685L12.2128 71.2419C12.6587 70.9956 13.1432 70.8205 13.6623 70.7187V70.7167ZM13.1534 69.5237L12.7625 68.6075C12.1477 68.7277 11.5736 68.9353 11.0483 69.2264L11.5532 70.0998C12.0439 69.827 12.5793 69.6336 13.1534 69.5216V69.5237ZM10.8957 69.316C10.46 69.5766 10.0569 69.8962 9.69452 70.2749L10.2808 71.0831C10.6188 70.7309 10.9934 70.4316 11.3985 70.1873L10.8957 69.314V69.316ZM10.7409 69.0493L10.236 68.1759C9.76169 68.4589 9.324 68.8091 8.93108 69.2224L9.5174 70.0306C9.88589 69.6438 10.2971 69.316 10.743 69.0513L10.7409 69.0493ZM8.8069 69.3567C8.35698 69.8575 7.9661 70.4439 7.64443 71.1136L8.302 71.814C8.60331 71.1869 8.96977 70.6352 9.39322 70.1649L8.8069 69.3567ZM7.55893 71.2948C7.28002 71.9137 7.05608 72.5998 6.89729 73.349L7.59558 73.9231C7.74623 73.2207 7.95388 72.5774 8.2165 71.9972L7.55893 71.2969V71.2948ZM6.85249 73.5689C6.69573 74.373 6.61227 75.2464 6.60413 76.1869L7.31871 76.5982C7.32481 75.7167 7.40624 74.8962 7.55078 74.1409L6.85249 73.5689ZM6.60413 76.4394C6.61024 77.2395 6.67131 78.0558 6.78532 78.8824L7.48767 79.1409C7.38181 78.3653 7.32481 77.6018 7.31871 76.8506L6.60413 76.4373V76.4394ZM6.824 79.1531C6.97465 80.1609 7.20063 81.1829 7.49379 82.2049L8.15543 82.2781C7.88059 81.3193 7.66886 80.3604 7.52839 79.4137L6.82603 79.1552L6.824 79.1531ZM8.35494 82.2985L9.01658 82.3698C8.76618 81.4923 8.57277 80.6169 8.44248 79.7517L7.74013 79.4911C7.87856 80.4194 8.08621 81.3579 8.35494 82.2985ZM8.43841 82.5774C8.70104 83.4569 9.01659 84.3343 9.381 85.1996L9.97954 85.0937C9.63955 84.2875 9.34436 83.4671 9.09802 82.6487L8.43638 82.5774H8.43841ZM9.50111 85.4805C9.91235 86.4272 10.3786 87.3596 10.8957 88.2635L11.4005 87.9724C10.9201 87.1275 10.4844 86.2582 10.1017 85.3746L9.50315 85.4805H9.50111ZM11.0504 88.5302C11.4942 89.2895 11.9726 90.0306 12.4816 90.7411L12.8887 90.2993C12.4144 89.6356 11.9685 88.9455 11.5553 88.237L11.0504 88.5281V88.5302ZM13.0129 90.165L13.4201 89.7232C12.9905 89.1226 12.5874 88.4996 12.2128 87.8584L11.708 88.1495C12.1131 88.8417 12.5487 89.5155 13.0109 90.165H13.0129ZM13.19 90.4133C13.7438 91.1686 14.3342 91.8873 14.9551 92.5591L15.232 91.9606C14.6558 91.3376 14.1102 90.6719 13.5952 89.9715L13.188 90.4133H13.19ZM15.3195 91.7773L15.5984 91.1768C15.0834 90.6189 14.5907 90.0224 14.1306 89.3954L13.7234 89.8372C14.2242 90.5192 14.7597 91.1686 15.3195 91.7773ZM15.6819 90.9935L15.9588 90.395C15.5027 89.9003 15.0691 89.373 14.6599 88.8193L14.2527 89.261C14.7027 89.8718 15.179 90.452 15.6799 90.9935H15.6819ZM16.0463 90.2118L16.3232 89.6132C15.9262 89.1816 15.5496 88.7236 15.1933 88.2431L14.7861 88.6849C15.1831 89.2224 15.6045 89.7334 16.0463 90.2138V90.2118ZM16.4087 89.43L16.6856 88.8315C16.3496 88.465 16.028 88.0741 15.7267 87.6649L15.3195 88.1067C15.6636 88.5709 16.028 89.0127 16.4107 89.43H16.4087ZM16.7711 88.6483L17.05 88.0497C16.7731 87.7464 16.5084 87.4268 16.258 87.0888L15.8509 87.5306C16.142 87.9235 16.4494 88.2961 16.7731 88.6483H16.7711ZM17.1334 87.8645L17.4103 87.2659C17.1925 87.0277 16.9848 86.7733 16.7874 86.5106L16.3802 86.9524C16.6184 87.272 16.8688 87.5774 17.1314 87.8645H17.1334ZM17.4958 87.0827L17.7727 86.4842C17.6139 86.3091 17.4632 86.1259 17.3207 85.9345L16.9136 86.3763C17.0968 86.6246 17.2922 86.8608 17.4958 87.0847V87.0827ZM17.8195 79.0391L17.5508 78.121C17.3655 78.1067 17.1884 78.1128 17.0194 78.1352L17.4083 79.0493C17.5406 79.033 17.677 79.029 17.8195 79.0391ZM17.4673 77.84L17.1986 76.9219C16.9584 76.9035 16.7283 76.9117 16.5084 76.9422L16.8973 77.8584C17.0785 77.8339 17.2698 77.8278 17.4653 77.8421L17.4673 77.84ZM17.1172 76.6389L16.8484 75.7207C16.5532 75.6963 16.2703 75.7065 15.9995 75.7472L16.3883 76.6613C16.6204 76.6267 16.8627 76.6206 17.1151 76.6389H17.1172ZM16.767 75.4398L16.4983 74.5216C16.1481 74.4911 15.8122 74.5033 15.4926 74.5522L15.8814 75.4683C16.1624 75.4255 16.4575 75.4154 16.767 75.4418V75.4398ZM16.4148 74.2407L16.1461 73.3205C15.7389 73.2838 15.3501 73.3001 14.9816 73.3571L15.3725 74.2712C15.7043 74.2203 16.0504 74.2081 16.4148 74.2386V74.2407ZM16.0646 73.0395L15.7959 72.1214C15.3338 72.0807 14.892 72.097 14.4746 72.1621L14.8635 73.0762C15.2442 73.0172 15.6453 73.0029 16.0646 73.0375V73.0395ZM15.7145 71.8404L15.4478 70.9223C14.9286 70.8755 14.4339 70.8897 13.9657 70.965L14.3566 71.8832C14.7882 71.816 15.2401 71.7977 15.7165 71.8404H15.7145ZM15.3643 70.6413L15.0956 69.7232C14.5215 69.6702 13.9738 69.6865 13.4547 69.77L13.8456 70.6861C14.326 70.6088 14.833 70.5945 15.3643 70.6434V70.6413ZM15.0141 69.4422L14.7454 68.5241C14.1163 68.465 13.5158 68.4834 12.9478 68.575L13.3366 69.4911C13.8659 69.4056 14.4278 69.3893 15.0141 69.4443V69.4422ZM14.664 68.2411L14.3953 67.3229C13.7112 67.2578 13.0557 67.2761 12.4388 67.3779L12.8297 68.294C13.4099 68.1983 14.0227 68.18 14.666 68.2411H14.664ZM12.2536 67.4125C11.5858 67.5408 10.9608 67.7667 10.3908 68.0864L10.8957 68.9597C11.4311 68.6605 12.0174 68.4487 12.6444 68.3266L12.2536 67.4105V67.4125ZM12.1355 67.1316L11.7466 66.2175C11.0239 66.3559 10.3501 66.6002 9.7332 66.9443L10.2381 67.8176C10.8203 67.4939 11.4555 67.2619 12.1375 67.1316H12.1355ZM9.57847 67.0338C9.06544 67.3392 8.59109 67.7179 8.16561 68.1637L8.75193 68.972C9.15299 68.5505 9.5968 68.1963 10.0813 67.9072L9.57644 67.0338H9.57847ZM8.04142 68.3001C7.55486 68.8396 7.13345 69.4748 6.78532 70.1975L7.44289 70.8978C7.77066 70.2158 8.16765 69.6173 8.62774 69.1084L8.04142 68.3001ZM6.69981 70.3807C6.39647 71.0485 6.15625 71.7895 5.9832 72.5998L6.68149 73.1719C6.84436 72.4084 7.07033 71.7101 7.35535 71.0811L6.69778 70.3807H6.69981ZM5.94044 72.8217C5.77147 73.689 5.67986 74.6336 5.67375 75.6495L6.38629 76.0627C6.39444 75.1059 6.47994 74.2142 6.63873 73.3958L5.94044 72.8217ZM5.67375 75.8999C5.67782 76.7651 5.74501 77.6487 5.86716 78.5424L6.56952 78.8009C6.45552 77.9581 6.3924 77.1255 6.38629 76.3111L5.67375 75.8999ZM5.90584 78.8132C6.06871 79.9023 6.31097 81.0057 6.62856 82.1092L7.2902 82.1804C6.99093 81.1401 6.76292 80.0998 6.61023 79.0717L5.90584 78.8132ZM6.71 82.3921C7.01741 83.4243 7.38995 84.4565 7.81951 85.4764L8.41805 85.3706C8.01292 84.4097 7.66276 83.4365 7.37164 82.4634L6.71 82.3921ZM8.60128 85.338L9.19981 85.2342C8.82726 84.3506 8.5056 83.4548 8.23687 82.557L7.57522 82.4858C7.86228 83.4426 8.20633 84.3974 8.60128 85.338ZM8.72138 85.6169C9.16723 86.647 9.67415 87.6609 10.236 88.6442L10.7389 88.3531C10.2116 87.4288 9.73727 86.4781 9.31789 85.5131L8.71936 85.6189L8.72138 85.6169ZM10.3908 88.9109C10.8753 89.7374 11.3965 90.5436 11.9502 91.3193L12.3574 90.8775C11.8383 90.1507 11.3497 89.3954 10.8957 88.6198L10.3908 88.9109ZM12.1273 91.5656C12.7869 92.4675 13.4893 93.3225 14.2303 94.1226L14.5093 93.5241C13.815 92.7729 13.1534 91.9707 12.5345 91.1238L12.1273 91.5656ZM14.5927 93.3408L14.8696 92.7423C14.2365 92.0562 13.6318 91.3213 13.0659 90.5477L12.6587 90.9895C13.2654 91.818 13.9128 92.6059 14.5927 93.3408ZM14.7943 93.5546C15.4172 94.2101 16.0646 94.8189 16.7344 95.3767L16.881 94.656C16.258 94.1369 15.6534 93.5668 15.0732 92.9561L14.7943 93.5546ZM16.9258 94.4341L17.0744 93.7114C16.5084 93.2411 15.9608 92.726 15.4376 92.1723L15.1587 92.7708C15.7267 93.3673 16.3171 93.9231 16.9258 94.4321V94.4341ZM17.1172 93.4915L17.2637 92.7688C16.7588 92.3453 16.2682 91.8852 15.7979 91.3905L15.5211 91.9911C16.0341 92.5306 16.5675 93.0334 17.1172 93.4915ZM17.3106 92.5469L17.4571 91.8242C17.0113 91.4516 16.5777 91.0444 16.1623 90.6067L15.8834 91.2053C16.3415 91.6857 16.8179 92.1356 17.3106 92.5448V92.5469ZM17.5019 91.6063L17.6485 90.8836C17.2597 90.5599 16.8851 90.2057 16.5227 89.827L16.2458 90.4255C16.6489 90.849 17.0683 91.2439 17.5019 91.6063ZM17.6933 90.6637L17.8399 89.941C17.5121 89.6641 17.1925 89.3649 16.8851 89.0452L16.6082 89.6438C16.9563 90.0082 17.3187 90.3502 17.6933 90.6637ZM17.8867 89.7211L18.0333 88.9984C17.7645 88.7704 17.504 88.5241 17.2495 88.2614L16.9726 88.86C17.2678 89.1674 17.5732 89.4544 17.8867 89.7191V89.7211ZM18.0781 88.7785L18.2246 88.0579C18.015 87.8787 17.8093 87.6853 17.6119 87.4817L17.335 88.0803C17.5732 88.3286 17.8216 88.5627 18.0781 88.7785ZM18.2694 87.836L18.416 87.1132C18.2633 86.9829 18.1168 86.8445 17.9742 86.6979L17.6974 87.2965C17.8826 87.4878 18.074 87.667 18.2694 87.836ZM18.5178 79.1816L18.3916 78.2961C18.1717 78.2207 17.96 78.1719 17.7523 78.1413L18.0211 79.0595C18.1819 79.0839 18.3488 79.1246 18.5178 79.1796V79.1816ZM18.3529 78.0253L18.2267 77.1397C17.9417 77.042 17.6668 76.9768 17.4022 76.9422L17.6709 77.8604C17.8908 77.8909 18.1188 77.9439 18.3529 78.0253ZM18.188 76.871L18.0618 75.9874C17.7137 75.8673 17.3757 75.7859 17.052 75.7431L17.3207 76.6613C17.5996 76.7 17.8908 76.7671 18.188 76.871ZM18.0231 75.7167L17.8969 74.8331C17.4836 74.6886 17.0846 74.5929 16.7018 74.544L16.9706 75.4622C17.3085 75.507 17.6607 75.5904 18.0231 75.7167ZM17.8582 74.5623L17.732 73.6788C17.2556 73.5098 16.7935 73.3999 16.3517 73.3449L16.6204 74.2631C17.0174 74.314 17.4307 74.4117 17.8582 74.5623ZM17.6933 73.408L17.5671 72.5245C17.0255 72.3331 16.5023 72.2069 16.0015 72.1458L16.2702 73.064C16.7263 73.121 17.2006 73.2329 17.6933 73.408ZM17.5264 72.2537L17.4001 71.3681C16.7935 71.1523 16.2092 71.0119 15.6473 70.9426L15.916 71.8649C16.4311 71.928 16.9706 72.0562 17.5264 72.2537ZM17.3615 71.0994L17.2352 70.2138C16.5654 69.9756 15.918 69.8189 15.2971 69.7435L15.5659 70.6617C16.14 70.7309 16.7405 70.8755 17.3615 71.0974V71.0994ZM17.1966 69.943L17.0703 69.0595C16.3354 68.7969 15.6269 68.6259 14.947 68.5444L15.2157 69.4626C15.8488 69.5379 16.5125 69.6987 17.1966 69.943ZM17.0317 68.7887L16.9034 67.9031C16.1053 67.6161 15.3338 67.4308 14.5968 67.3433L14.8635 68.2614C15.5557 68.3449 16.2804 68.518 17.0296 68.7867L17.0317 68.7887ZM16.8668 67.6344L16.7405 66.7509C15.8794 66.4414 15.0447 66.2399 14.2466 66.1462L14.5154 67.0644C15.2666 67.154 16.0545 67.3433 16.8668 67.6344ZM14.043 66.1238C13.304 66.0526 12.5956 66.0729 11.9278 66.1829L12.3167 67.099C12.9457 66.9952 13.6135 66.9768 14.3118 67.042L14.043 66.1238ZM13.9616 65.8429L13.6929 64.9247C12.8969 64.8474 12.1355 64.8698 11.4189 64.9899L11.8097 65.904C12.4897 65.792 13.2084 65.7716 13.9637 65.8429H13.9616ZM11.2377 65.0224C10.462 65.1711 9.73727 65.4337 9.07359 65.8042L9.57847 66.6776C10.2055 66.3274 10.8916 66.077 11.6265 65.9365L11.2356 65.0204L11.2377 65.0224ZM8.91887 65.8938C8.36512 66.2215 7.85819 66.6287 7.40013 67.1092L7.98645 67.9174C8.42008 67.4614 8.90054 67.0786 9.42375 66.7651L8.91887 65.8917V65.8938ZM8.76414 65.6271L8.25926 64.7537C7.66683 65.1059 7.12326 65.5395 6.63466 66.0546L7.22098 66.8628C7.68515 66.3742 8.20225 65.961 8.76414 65.6271ZM5.92619 69.2834L6.58376 69.9838C6.93596 69.2468 7.36553 68.6035 7.86227 68.0538L7.27595 67.2456C6.75071 67.8258 6.29875 68.5078 5.92619 69.2834ZM5.84273 69.4667C5.71447 69.7476 5.59842 70.0408 5.49256 70.3482V72.1967L5.77351 72.4268C5.94859 71.6022 6.19289 70.849 6.50234 70.169L5.84477 69.4687L5.84273 69.4667ZM5.49052 72.4532V74.5094C5.53328 73.8539 5.61064 73.2329 5.72465 72.6466L5.49052 72.4532ZM7.94167 85.7533C8.42213 86.8669 8.9718 87.9601 9.57847 89.0249L10.0834 88.7338C9.51129 87.7321 8.9942 86.7 8.54021 85.6495L7.94167 85.7533ZM9.73116 89.2916C10.2523 90.1873 10.8183 91.0587 11.4168 91.8954L11.824 91.4536C11.2601 90.6637 10.7287 89.8433 10.236 89.0005L9.73116 89.2916ZM11.596 92.1417C12.3085 93.1169 13.0679 94.0412 13.868 94.9044L14.1448 94.3058C13.3916 93.4915 12.675 92.6181 12.0032 91.702L11.596 92.1438V92.1417ZM14.0695 95.1181C14.8004 95.8897 15.5618 96.6063 16.3496 97.2598L16.4962 96.5391C15.7532 95.9223 15.0345 95.2464 14.3484 94.5196L14.0695 95.1181ZM16.541 96.3193L16.6876 95.5986C16.0056 95.0306 15.3439 94.4076 14.7088 93.7399L14.4319 94.3384C15.1078 95.0509 15.8122 95.7146 16.541 96.3193ZM16.5634 97.4369C17.4001 98.1149 18.2633 98.7175 19.1448 99.2366V98.4121C18.3122 97.9235 17.4979 97.3535 16.71 96.7163L16.5634 97.4369ZM19.1448 98.1597V97.3351C18.3773 96.8832 17.6281 96.36 16.9014 95.7716L16.7548 96.4923C17.5284 97.1173 18.3285 97.6772 19.1448 98.1576V98.1597ZM19.1448 97.0847V96.2602C18.4445 95.847 17.7584 95.3685 17.0927 94.8311L16.9461 95.5538C17.6587 96.1299 18.3936 96.643 19.1448 97.0847ZM19.1448 96.0078V95.1833C18.5097 94.8087 17.8887 94.373 17.2861 93.8885L17.1396 94.6092C17.789 95.1344 18.4608 95.6027 19.1448 96.0078ZM19.1448 94.9308V94.1043C18.5768 93.7684 18.019 93.3795 17.4775 92.9439L17.3289 93.6666C17.9172 94.1409 18.5239 94.5644 19.1428 94.9308H19.1448ZM19.1448 93.8539V93.0294C18.64 92.7301 18.1473 92.386 17.6689 92.0033L17.5223 92.724C18.0496 93.1474 18.5911 93.5261 19.1448 93.8539ZM19.1448 92.7769V91.9524C18.7071 91.6918 18.2796 91.3926 17.8623 91.0587L17.7137 91.7794C18.1778 92.1519 18.6562 92.4858 19.1448 92.7749V92.7769ZM19.1448 91.702V90.8775C18.7723 90.6556 18.4079 90.4011 18.0536 90.1181L17.9071 90.8388C18.3081 91.1605 18.7214 91.4496 19.1448 91.702ZM19.1448 90.625V89.8005C18.8395 89.6173 18.5382 89.4076 18.245 89.1735L18.0984 89.8962C18.4384 90.167 18.7865 90.4113 19.1448 90.625ZM19.1448 89.5501V88.7256C18.9046 88.579 18.6685 88.4162 18.4384 88.2329L18.2918 88.9557C18.5687 89.1755 18.8537 89.375 19.1448 89.5501ZM19.1448 88.4732V87.6487C18.9698 87.5408 18.7988 87.4206 18.6298 87.2904L18.4832 88.0131C18.699 88.1841 18.9189 88.3368 19.1448 88.4732ZM19.1448 79.4565V78.632C18.9637 78.5322 18.7825 78.4447 18.6053 78.3734L18.7316 79.259C18.8659 79.314 19.0044 79.3791 19.1428 79.4544L19.1448 79.4565ZM19.1448 78.3816V77.557C18.9067 77.4247 18.6705 77.3127 18.4404 77.2211L18.5687 78.1047C18.758 78.18 18.9494 78.2737 19.1469 78.3816H19.1448ZM19.1448 77.3046V76.4801C18.8497 76.3152 18.5585 76.1768 18.2755 76.0668L18.4018 76.9504C18.6461 77.0461 18.8924 77.1641 19.1448 77.3046ZM19.1448 76.2297V75.4052C18.7926 75.2077 18.4486 75.0428 18.1106 74.9125L18.2369 75.7961C18.5321 75.9121 18.8354 76.0566 19.1448 76.2277V76.2297ZM19.1448 75.1527V74.3282C18.7377 74.0982 18.3366 73.9088 17.9457 73.7582L18.074 74.6417C18.4221 74.7781 18.7825 74.9471 19.1469 75.1527H19.1448ZM19.1448 74.0758V73.2513C18.6807 72.9886 18.2246 72.7749 17.7808 72.6018L17.9071 73.4854C18.3102 73.6401 18.7234 73.8376 19.1448 74.0737V74.0758ZM19.1448 73.0009V72.1743C18.6237 71.8791 18.1127 71.6389 17.6159 71.4475L17.7422 72.3331C18.1982 72.5102 18.6685 72.7301 19.1448 73.0009ZM19.1448 71.9219V71.0974C18.5667 70.7716 18.0027 70.5029 17.449 70.2912L17.5752 71.1768C18.0862 71.3722 18.6115 71.6206 19.1448 71.9219ZM19.1448 70.847V70.0224C18.5117 69.6641 17.8908 69.3689 17.2841 69.1389L17.4103 70.0224C17.9742 70.2382 18.5545 70.5131 19.1448 70.847ZM19.1448 69.77V68.9455C18.4547 68.5546 17.7788 68.235 17.1192 67.9846L17.2454 68.8681C17.8643 69.1043 18.4975 69.4035 19.1448 69.77ZM19.1448 68.6951V67.8706C18.3997 67.4471 17.6668 67.101 16.9543 66.8303L17.0805 67.7158C17.7523 67.9703 18.4425 68.2961 19.1448 68.6971V68.6951ZM16.8871 66.3559L16.9156 66.5595C17.3635 66.7285 17.8195 66.932 18.2816 67.1621L16.8871 66.3579V66.3559ZM16.6652 66.2277L14.6457 65.0611C14.3932 65.0123 14.1428 64.9736 13.8944 64.9451L14.1632 65.8632C14.9734 65.9589 15.8224 66.1625 16.6998 66.4781L16.6632 66.2256L16.6652 66.2277ZM14.0003 64.6906L13.7845 64.5664L13.813 64.6662C13.8741 64.6743 13.9372 64.6825 14.0003 64.6906ZM13.5483 64.43L12.2495 63.6808C11.7894 63.6869 11.3435 63.7236 10.9099 63.7969L11.3008 64.713C12.0296 64.5908 12.8032 64.5684 13.6115 64.6478L13.5483 64.432V64.43ZM10.7287 63.8274C9.8981 63.9842 9.12448 64.2651 8.41601 64.6641L8.9209 65.5375C9.59476 65.1609 10.3297 64.8942 11.1196 64.7435L10.7308 63.8274H10.7287ZM10.6086 63.5485L10.2198 62.6344C9.33418 62.8014 8.50966 63.1006 7.7564 63.5241L8.25926 64.3974C8.97791 63.9943 9.76373 63.7093 10.6086 63.5505V63.5485ZM9.99175 62.3759L8.76822 61.6694C8.17986 61.8486 7.62204 62.0847 7.0968 62.3799L7.60168 63.2533C8.33458 62.8421 9.13467 62.5469 9.99175 62.3738V62.3759ZM5.87122 64.998L6.45754 65.8062C6.95428 65.283 7.506 64.8413 8.10861 64.485L7.60372 63.6116C6.97261 63.9862 6.3924 64.4483 5.87326 64.998H5.87122ZM5.49052 67.5815V68.8193L5.72669 69.0697C6.10535 68.2798 6.56544 67.5876 7.0968 66.9972L6.51048 66.189C6.13385 66.6043 5.79386 67.0705 5.49052 67.5815ZM5.49052 69.0921V69.601C5.53938 69.4829 5.58825 69.3649 5.64118 69.2509L5.49052 69.0921ZM29.1082 89.1796C29.1021 88.575 29.0553 87.9581 28.9718 87.3351L28.2674 87.0746C28.3448 87.6466 28.3875 88.2126 28.3916 88.7663L29.1082 89.1796ZM28.3936 89.0188C28.3875 89.6723 28.3285 90.283 28.2226 90.8449L28.9229 91.419C29.041 90.8083 29.1041 90.1446 29.1102 89.4321L28.3936 89.0188ZM28.9331 87.0623C28.8191 86.2969 28.6461 85.5212 28.4262 84.7456L27.7625 84.6743C27.9661 85.3869 28.1229 86.0994 28.2308 86.8018L28.9352 87.0623H28.9331ZM27.2434 88.1027C27.2373 87.6283 27.2006 87.1458 27.1375 86.6552L26.4352 86.3966C26.4922 86.8343 26.5247 87.2659 26.5308 87.6894L27.2454 88.1027H27.2434ZM26.5288 87.9418C26.5227 88.4426 26.4779 88.9129 26.3965 89.3465L27.0948 89.9207C27.1864 89.4361 27.2352 88.9149 27.2434 88.3531L26.5288 87.9418ZM27.3126 86.4638L28.015 86.7224C27.9111 86.0383 27.7564 85.3441 27.561 84.6519L26.8993 84.5807C27.0785 85.2097 27.2189 85.8408 27.3126 86.4638ZM26.6978 84.5603L26.0361 84.4891C26.1909 85.0367 26.313 85.5843 26.3965 86.1279L27.0988 86.3864C27.0052 85.7818 26.8708 85.1711 26.6978 84.5603ZM24.4461 86.4882C24.4421 86.2093 24.4217 85.9264 24.3851 85.6393L23.6827 85.3808C23.7112 85.6169 23.7275 85.847 23.7336 86.077L24.4461 86.4882ZM23.7336 86.3274C23.7275 86.6022 23.7031 86.8608 23.6603 87.101L24.3586 87.6731C24.4095 87.382 24.44 87.0705 24.4461 86.7366L23.7336 86.3254V86.3274ZM24.5622 85.4479L25.2646 85.7085C25.1953 85.2667 25.0956 84.8189 24.9694 84.373L24.3097 84.2997C24.4176 84.6845 24.5011 85.0672 24.5622 85.4479ZM24.1062 84.2794L23.4445 84.2081C23.528 84.5094 23.5952 84.8127 23.644 85.11L24.3464 85.3685C24.2894 85.0082 24.208 84.6438 24.1062 84.2773V84.2794ZM22.7666 85.0408C22.7869 85.2077 22.7971 85.3746 22.8012 85.5375L23.5158 85.9487C23.5117 85.735 23.4974 85.5192 23.4689 85.2993L22.7666 85.0387V85.0408ZM23.4303 85.0306C23.3855 84.7496 23.3224 84.4667 23.245 84.1857L22.5854 84.1145C22.6444 84.3343 22.6933 84.5542 22.7299 84.772L23.4323 85.0326L23.4303 85.0306ZM22.565 87.0053L23.2226 87.7057C23.2959 87.5347 23.357 87.3474 23.4018 87.1479L22.7035 86.5758C22.6668 86.7305 22.62 86.873 22.565 87.0053ZM23.4466 86.9259C23.4852 86.7 23.5097 86.4577 23.5158 86.2012L22.8012 85.7899C22.7951 85.9895 22.7788 86.1768 22.7483 86.3539L23.4466 86.9259ZM23.4221 87.9194L24.0797 88.6198C24.1754 88.3978 24.2548 88.1576 24.3138 87.895L23.6155 87.3209C23.5667 87.5347 23.5015 87.7342 23.4221 87.9174V87.9194ZM24.2812 88.8335L24.9388 89.5338C25.0569 89.2631 25.1546 88.9658 25.2259 88.6442L24.5276 88.0721C24.4645 88.347 24.383 88.6014 24.2812 88.8356V88.8335ZM25.2707 88.4243C25.3358 88.0701 25.3725 87.6873 25.3786 87.2781L24.666 86.8669C24.6599 87.2171 24.6273 87.5469 24.5724 87.8522L25.2707 88.4264V88.4243ZM25.3786 87.0257C25.3725 86.6816 25.348 86.3315 25.3032 85.9793L24.6009 85.7207C24.6396 86.022 24.6619 86.3213 24.666 86.6165L25.3786 87.0277V87.0257ZM25.4783 85.7879L26.1807 86.0465C26.1013 85.5233 25.9832 84.996 25.8325 84.4667L25.1729 84.3954C25.3032 84.8616 25.4071 85.3278 25.4783 85.7879ZM26.311 87.5652C26.3069 87.156 26.2743 86.7407 26.2194 86.3172L25.517 86.0587C25.5638 86.4272 25.5903 86.7936 25.5964 87.154L26.311 87.5652ZM25.5984 87.4044C25.5923 87.8298 25.5536 88.2289 25.4865 88.5994L26.1847 89.1715C26.2621 88.7521 26.3069 88.3001 26.313 87.8156L25.5984 87.4023V87.4044ZM26.6163 84.2794C26.4433 83.7093 26.2377 83.1413 26.0036 82.5815L25.4071 82.6873C25.6167 83.1902 25.8 83.6992 25.9547 84.2081L26.6163 84.2794ZM25.2238 82.7179L24.6273 82.8217C24.8045 83.2492 24.9612 83.6808 25.0935 84.1124L25.7552 84.1837C25.6066 83.693 25.4274 83.2024 25.2259 82.7158L25.2238 82.7179ZM24.4421 82.8543L23.8456 82.9601C23.9901 83.3103 24.1184 83.6645 24.2283 84.0208L24.89 84.0921C24.7617 83.6768 24.6131 83.2635 24.4441 82.8543H24.4421ZM23.6623 82.9907L23.0638 83.0965C23.1758 83.3714 23.2776 83.6483 23.3631 83.9251L24.0247 83.9964C23.9209 83.6605 23.7987 83.3225 23.6623 82.9907ZM22.8826 83.1291L22.2841 83.235C22.3635 83.4325 22.4368 83.632 22.4999 83.8335L23.1615 83.9048C23.0801 83.6442 22.9885 83.3856 22.8826 83.1291ZM22.2291 87.5652L22.8154 88.3734C22.9376 88.2309 23.0455 88.068 23.1371 87.8869L22.4795 87.1865C22.4062 87.327 22.3228 87.4532 22.2291 87.5652ZM22.9946 88.6218L23.5809 89.43C23.7397 89.2468 23.8781 89.0371 23.9962 88.8009L23.3387 88.1006C23.2409 88.294 23.1249 88.4691 22.9966 88.6198L22.9946 88.6218ZM23.7601 89.6784L24.3464 90.4866C24.5418 90.2647 24.7108 90.0062 24.8553 89.7171L24.1978 89.0167C24.0736 89.2651 23.927 89.487 23.7601 89.6784ZM24.5255 90.735L25.1119 91.5432C25.344 91.2806 25.5435 90.9752 25.7124 90.6312L25.0549 89.9308C24.9042 90.2321 24.7291 90.5009 24.5255 90.735ZM25.7979 90.4479C25.9404 90.1263 26.0524 89.7741 26.1379 89.3913L25.4396 88.8193C25.3643 89.1552 25.2645 89.4646 25.1404 89.7476L25.7979 90.4479ZM25.9995 90.6617L26.6571 91.362C26.822 90.9915 26.9543 90.5823 27.05 90.1405L26.3517 89.5664C26.2641 89.9634 26.1461 90.3298 25.9995 90.6617ZM26.8566 91.5758L27.5141 92.2761C27.7014 91.8567 27.8521 91.3926 27.962 90.8877L27.2637 90.3156C27.164 90.7737 27.0276 91.1951 26.8566 91.5778V91.5758ZM28.0068 90.6698C28.1106 90.1222 28.1676 89.5298 28.1737 88.8926L27.4592 88.4793C27.451 89.0575 27.4001 89.597 27.3065 90.0957L28.0048 90.6698H28.0068ZM28.1758 88.6401C28.1697 88.1006 28.129 87.5509 28.0557 86.9952L27.3533 86.7346C27.4205 87.2395 27.4571 87.7382 27.4632 88.2289L28.1778 88.6401H28.1758ZM28.3448 84.4667C28.1269 83.7419 27.8663 83.0192 27.5671 82.3066L26.9665 82.4125C27.2413 83.068 27.4836 83.7297 27.6831 84.3954L28.3448 84.4667ZM26.7833 82.443L26.1847 82.5489C26.427 83.1271 26.6408 83.7134 26.8179 84.3018L27.4795 84.373C27.2841 83.7256 27.05 83.0803 26.7833 82.443ZM26.6652 82.1641C26.3619 81.4658 26.0158 80.7777 25.6351 80.11L25.1302 80.4011C25.4742 81.0078 25.7898 81.6328 26.0667 82.268L26.6652 82.1621V82.1641ZM24.9775 80.4907L24.4726 80.7818C24.7719 81.3111 25.0467 81.8547 25.2869 82.4064L25.8855 82.3005C25.6167 81.6857 25.3114 81.079 24.9775 80.4907ZM24.3199 80.8694L23.815 81.1605C24.0695 81.6104 24.3016 82.0725 24.5072 82.5408L25.1058 82.4349C24.8716 81.9036 24.609 81.3783 24.3199 80.8673V80.8694ZM23.6603 81.25L23.1554 81.5412C23.3651 81.9117 23.5565 82.2924 23.7255 82.6792L24.324 82.5733C24.1265 82.1234 23.9046 81.6816 23.6603 81.25ZM23.0007 81.6307L22.4979 81.9219C22.6607 82.213 22.8114 82.5123 22.9457 82.8156L23.5422 82.7097C23.3814 82.3433 23.2002 81.9809 23.0007 81.6287V81.6307ZM22.3431 82.0114L21.8382 82.3026C21.9563 82.5163 22.0663 82.7342 22.166 82.954L22.7625 82.8482C22.6363 82.5632 22.4958 82.2842 22.3431 82.0094V82.0114ZM21.8382 87.9133L22.3431 88.7867C22.4673 88.7073 22.5834 88.6157 22.6913 88.5098L22.1049 87.7016C22.0215 87.781 21.9339 87.8522 21.8382 87.9133ZM22.4979 89.0554L23.0007 89.9288C23.1636 89.827 23.3163 89.7069 23.4547 89.5664L22.8684 88.7582C22.7544 88.8722 22.6302 88.972 22.4979 89.0554ZM23.1554 90.1955L23.6603 91.0689C23.8619 90.9447 24.0492 90.794 24.2202 90.621L23.6339 89.8128C23.4873 89.9614 23.3285 90.0876 23.1554 90.1955ZM23.815 91.3356L24.3199 92.2089C24.5602 92.0603 24.7841 91.8832 24.9856 91.6735L24.3993 90.8653C24.2222 91.0465 24.0268 91.2032 23.815 91.3335V91.3356ZM24.4726 92.4777L24.9775 93.351C25.2564 93.18 25.515 92.9724 25.7491 92.7301L25.1628 91.9219C24.9531 92.1377 24.721 92.3229 24.4706 92.4756L24.4726 92.4777ZM25.8773 92.5998C26.1461 92.2965 26.3761 91.9443 26.5716 91.5473L25.914 90.847C25.7389 91.2032 25.5312 91.5208 25.291 91.7916L25.8773 92.5998ZM26.0565 92.8461L26.6428 93.6544C26.9461 93.3123 27.2108 92.9113 27.4307 92.4593L26.7731 91.759C26.5736 92.1702 26.3334 92.5347 26.0585 92.8461H26.0565ZM26.8199 93.9007L27.4062 94.7089C27.7462 94.3262 28.0435 93.8824 28.2878 93.3755L27.6281 92.6731C27.4022 93.1373 27.1314 93.5485 26.8179 93.8987L26.8199 93.9007ZM28.3733 93.1943C28.583 92.724 28.7519 92.2049 28.8741 91.6389L28.1737 91.0627C28.0597 91.5819 27.9071 92.0583 27.7137 92.4899L28.3712 93.1922L28.3733 93.1943ZM28.5748 93.408L29.2324 94.1084C29.4665 93.5892 29.6538 93.0151 29.7882 92.3881L29.0899 91.816C28.9637 92.3962 28.7926 92.9276 28.5748 93.4101V93.408ZM29.833 92.1662C29.9632 91.4903 30.0345 90.7574 30.0406 89.9695L29.326 89.5583C29.3179 90.2871 29.2527 90.9671 29.1326 91.5941L29.8309 92.1682L29.833 92.1662ZM30.0406 89.7171C30.0345 89.0473 29.9836 88.3632 29.89 87.6731L29.1876 87.4145C29.2751 88.0538 29.3199 88.6869 29.3281 89.3058L30.0426 89.7171H30.0406ZM29.8513 87.4023C29.7251 86.5554 29.5357 85.6983 29.2914 84.8413L28.6298 84.77C28.8558 85.564 29.0308 86.3579 29.1489 87.1438L29.8513 87.4023ZM29.208 84.5603C28.9677 83.7582 28.6786 82.9581 28.3468 82.1682L27.7503 82.2741C28.0577 83.0049 28.3244 83.746 28.5463 84.487L29.208 84.5583V84.5603ZM28.2267 81.8893C27.8521 81.0261 27.4246 80.1751 26.9543 79.3486L26.4494 79.6397C26.8851 80.4052 27.28 81.193 27.6281 81.9931L28.2267 81.8873V81.8893ZM26.2967 79.7293L25.7898 80.0204C26.1807 80.7065 26.5349 81.4129 26.8484 82.1316L27.4449 82.0257C27.1049 81.2439 26.7202 80.4764 26.2947 79.7272L26.2967 79.7293ZM26.142 79.4606C25.7755 78.8356 25.3826 78.2268 24.9653 77.6426L24.5561 78.0864C24.9388 78.6238 25.3012 79.1796 25.6351 79.7537L26.14 79.4626L26.142 79.4606ZM24.4319 78.2207L24.0247 78.6625C24.3627 79.1369 24.6803 79.6275 24.9775 80.1344L25.4803 79.8433C25.1526 79.2875 24.8024 78.7439 24.4299 78.2228L24.4319 78.2207ZM23.9005 78.7969L23.4934 79.2386C23.7845 79.6499 24.0614 80.0754 24.3199 80.5131L24.8248 80.222C24.5378 79.7334 24.2283 79.257 23.9026 78.7969H23.9005ZM23.3692 79.373L22.962 79.8148C23.2084 80.1629 23.4425 80.5233 23.6603 80.8938L24.1652 80.6027C23.9168 80.1812 23.6501 79.77 23.3692 79.373ZM22.8378 79.9512L22.4307 80.393C22.6322 80.678 22.8236 80.9732 23.0027 81.2765L23.5076 80.9854C23.2979 80.6312 23.074 80.2871 22.8378 79.9532V79.9512ZM22.3065 80.5273L21.8993 80.9691C22.0561 81.191 22.2047 81.4211 22.3431 81.6552L22.848 81.3641C22.677 81.077 22.4979 80.7981 22.3065 80.5273ZM21.7751 81.1035L21.368 81.5452C21.4779 81.704 21.5838 81.8669 21.6856 82.0359L22.1904 81.7448C22.0602 81.5269 21.9217 81.3111 21.7772 81.1055L21.7751 81.1035ZM21.2825 88.1474L21.6733 89.0636C21.8566 89.0229 22.0276 88.9597 22.1884 88.8763L21.6835 88.0029C21.5573 88.068 21.4229 88.1149 21.2825 88.1474ZM21.7914 89.3445L22.1803 90.2586C22.4164 90.2077 22.6383 90.1263 22.846 90.0184L22.3411 89.145C22.1701 89.2346 21.9848 89.3018 21.7914 89.3445ZM22.3004 90.5395L22.6913 91.4557C22.9803 91.3946 23.2531 91.2948 23.5056 91.1605L23.0007 90.2851C22.7829 90.4011 22.5508 90.4866 22.3004 90.5395ZM22.8114 91.7346L23.2023 92.6507C23.5483 92.5815 23.868 92.4614 24.1672 92.2985L23.6623 91.4251C23.3997 91.5676 23.1167 91.6715 22.8134 91.7346H22.8114ZM23.3203 92.9296L23.7092 93.8457C24.1082 93.7643 24.4808 93.6279 24.8228 93.4406L24.3179 92.5672C24.0084 92.7342 23.6746 92.8584 23.3183 92.9296H23.3203ZM23.8293 94.1246L24.2181 95.0387C24.6701 94.9492 25.0935 94.7944 25.4824 94.5807L24.9795 93.7073C24.6253 93.9007 24.2405 94.0432 23.8293 94.1246ZM25.6371 94.4931C25.9547 94.2997 26.2499 94.0636 26.5166 93.7867L25.9303 92.9785C25.688 93.2289 25.4213 93.4426 25.1322 93.6177L25.6371 94.4911V94.4931ZM25.7898 94.7598L26.2967 95.6352C26.655 95.4194 26.9848 95.1548 27.2821 94.8453L26.6937 94.0351C26.4189 94.318 26.1176 94.5623 25.7898 94.7598ZM26.4494 95.9019L26.9543 96.7753C27.3513 96.5371 27.7157 96.2439 28.0475 95.8999L27.4612 95.0917C27.1558 95.4113 26.8179 95.68 26.4494 95.9019ZM28.1717 95.7655C28.5504 95.3441 28.8761 94.8514 29.1469 94.2916L28.4893 93.5913C28.2389 94.1104 27.9356 94.5664 27.5854 94.9593L28.1697 95.7676L28.1717 95.7655ZM28.3509 96.0119L28.9372 96.8201C29.3525 96.36 29.7108 95.8185 30.006 95.2057L29.3484 94.5053C29.0716 95.0774 28.7377 95.5823 28.3509 96.0119ZM30.0915 95.0224C30.348 94.4524 30.5536 93.8233 30.7002 93.1352L30.0019 92.5632C29.8655 93.2044 29.6742 93.7908 29.4339 94.3221L30.0915 95.0224ZM30.745 92.9154C30.8875 92.1763 30.9649 91.3722 30.973 90.509L30.2584 90.0957C30.2523 90.9019 30.179 91.6511 30.0467 92.3413L30.745 92.9133V92.9154ZM30.973 90.2545C30.9669 89.5196 30.9099 88.7704 30.8081 88.011L30.1058 87.7525C30.2014 88.4589 30.2544 89.1592 30.2605 89.8433L30.9751 90.2545H30.973ZM30.9832 87.8197L31.6856 88.0782C31.5349 87.0705 31.311 86.0485 31.0178 85.0265L30.3562 84.9553C30.631 85.9141 30.8427 86.873 30.9852 87.8197H30.9832ZM30.1546 84.9349L29.493 84.8636C29.7454 85.7411 29.9368 86.6165 30.0671 87.4817L30.7694 87.7403C30.631 86.8119 30.4233 85.8734 30.1546 84.9329V84.9349ZM30.0711 84.654C29.8085 83.7745 29.4909 82.8991 29.1286 82.0318L28.53 82.1377C28.87 82.9459 29.1652 83.7643 29.4115 84.5827L30.0732 84.654H30.0711ZM29.0064 81.7509C28.5952 80.8042 28.129 79.8718 27.6139 78.9679L27.109 79.259C27.5895 80.1039 28.0251 80.9732 28.4099 81.8567L29.0064 81.7509ZM27.4592 78.7012C27.0154 77.9418 26.5369 77.2008 26.028 76.4903L25.6208 76.9321C26.0931 77.5957 26.539 78.2838 26.9543 78.9923L27.4571 78.7012H27.4592ZM25.4966 77.0664L25.0895 77.5082C25.517 78.1088 25.9201 78.7317 26.2967 79.373L26.7996 79.0819C26.3944 78.3897 25.9588 77.7158 25.4966 77.0685V77.0664ZM25.3175 76.8201C24.7637 76.0648 24.1733 75.3461 23.5524 74.6743L23.2735 75.2728C23.8497 75.8958 24.3973 76.5615 24.9083 77.2619L25.3154 76.8201H25.3175ZM23.19 75.4561L22.9111 76.0566C23.4262 76.6145 23.9189 77.211 24.379 77.838L24.7861 77.3962C24.2853 76.7122 23.7519 76.0628 23.19 75.4561ZM22.8256 76.2378L22.5488 76.8364C23.0048 77.3311 23.4384 77.8584 23.8476 78.4121L24.2548 77.9703C23.8069 77.3596 23.3285 76.7794 22.8277 76.2358L22.8256 76.2378ZM22.4632 77.0196L22.1843 77.6181C22.5813 78.0497 22.958 78.5057 23.3142 78.9882L23.7214 78.5465C23.3244 78.009 22.905 77.498 22.4632 77.0176V77.0196ZM22.1009 77.8014L21.824 78.3999C22.1599 78.7663 22.4816 79.1572 22.7849 79.5644L23.1921 79.1226C22.848 78.6564 22.4836 78.2146 22.1009 77.7993V77.8014ZM21.7385 78.5851L21.4596 79.1837C21.7365 79.487 22.0011 79.8087 22.2515 80.1446L22.6587 79.7028C22.3696 79.3099 22.0602 78.9373 21.7385 78.5851ZM21.3761 79.3669L21.0992 79.9654C21.3171 80.2036 21.5247 80.4581 21.7202 80.7207L22.1273 80.279C21.8891 79.9593 21.6387 79.654 21.3761 79.3669ZM21.0137 80.1487L20.7369 80.7472C20.8936 80.9223 21.0443 81.1055 21.1888 81.2969L21.596 80.8551C21.4107 80.6088 21.2173 80.3706 21.0137 80.1466V80.1487ZM20.69 88.1922L20.9588 89.1104C21.142 89.1246 21.3211 89.1185 21.4901 89.0961L21.0992 88.18C20.9669 88.1983 20.8305 88.2004 20.688 88.1902L20.69 88.1922ZM21.0402 89.3913L21.3089 90.3095C21.5492 90.3278 21.7792 90.3217 21.9991 90.2891L21.6082 89.375C21.427 89.3995 21.2377 89.4056 21.0402 89.3913ZM21.3904 90.5925L21.6591 91.5127C21.9543 91.5371 22.2373 91.5269 22.508 91.4862L22.1172 90.5721C21.8851 90.6067 21.6428 90.6128 21.3904 90.5945V90.5925ZM21.7426 91.7916L22.0093 92.7097C22.3615 92.7403 22.6974 92.7281 23.015 92.6792L22.6261 91.7631C22.3452 91.8058 22.05 91.816 21.7426 91.7895V91.7916ZM22.0927 92.9927L22.3615 93.9129C22.7686 93.9496 23.1575 93.9333 23.526 93.8763L23.1351 92.9622C22.8032 93.0131 22.4551 93.0253 22.0907 92.9948L22.0927 92.9927ZM22.4429 94.1918L22.7096 95.11C23.1717 95.1507 23.6135 95.1365 24.0329 95.0693L23.642 94.1552C23.2613 94.2142 22.8602 94.2305 22.4409 94.1918H22.4429ZM22.7951 95.3909L23.0638 96.3091C23.5809 96.3579 24.0777 96.3417 24.5459 96.2663L24.155 95.3482C23.7255 95.4154 23.2715 95.4337 22.7971 95.3909H22.7951ZM24.7271 96.2358C25.234 96.136 25.7063 95.965 26.142 95.7248L25.6371 94.8494C25.2381 95.0693 24.8024 95.2281 24.3382 95.3217L24.7271 96.2378V96.2358ZM24.8452 96.5147L25.236 97.4288C25.7959 97.3189 26.3211 97.1295 26.7996 96.8649L26.2967 95.9915C25.8509 96.2378 25.3663 96.4129 24.8472 96.5147H24.8452ZM25.3562 97.7097L25.747 98.6259C26.3619 98.5057 26.936 98.2981 27.4612 98.007L26.9584 97.1336C26.4677 97.4064 25.9323 97.5998 25.3582 97.7118L25.3562 97.7097ZM27.6139 97.9154C28.0496 97.6548 28.4506 97.3351 28.813 96.9565L28.2267 96.1483C27.8887 96.5005 27.5162 96.7997 27.109 97.044L27.6139 97.9174V97.9154ZM27.7666 98.1841L28.2715 99.0575C28.7458 98.7724 29.1835 98.4243 29.5764 98.011L28.9901 97.2028C28.6216 97.5896 28.2124 97.9174 27.7666 98.1841ZM29.7027 97.8767C30.1526 97.3759 30.5435 96.7875 30.8651 96.1198L30.2075 95.4194C29.9042 96.0485 29.5398 96.5982 29.1163 97.0685L29.7027 97.8767ZM30.9506 95.9365C31.2295 95.3176 31.4535 94.6316 31.6123 93.8824L30.914 93.3103C30.7633 94.0127 30.5557 94.656 30.2931 95.2362L30.9506 95.9365ZM31.6571 93.6625C31.8118 92.8584 31.8973 91.985 31.9034 91.0444L31.1909 90.6332C31.1827 91.5147 31.1054 92.3351 30.9588 93.0904L31.6571 93.6645V93.6625ZM31.9034 90.794C31.8993 89.9939 31.8382 89.1776 31.7242 88.351L31.0219 88.0925C31.1277 88.8681 31.1847 89.6336 31.1909 90.3828L31.9034 90.794ZM32.6037 88.4182C32.4409 87.329 32.1986 86.2236 31.881 85.1222L31.2214 85.0509C31.5207 86.0913 31.7487 87.1336 31.9034 88.1597L32.6058 88.4202L32.6037 88.4182ZM31.7975 84.8413C31.4901 83.807 31.1176 82.7749 30.688 81.757L30.0915 81.8608C30.4966 82.8217 30.8468 83.7948 31.1379 84.768L31.7975 84.8413ZM29.9062 81.8934L29.3077 81.9992C29.6803 82.8828 30.0019 83.7785 30.2707 84.6763L30.9303 84.7476C30.6453 83.7928 30.3012 82.838 29.9042 81.8954L29.9062 81.8934ZM29.7882 81.6145C29.3423 80.5843 28.8354 79.5705 28.2735 78.5872L27.7686 78.8783C28.2959 79.8026 28.7723 80.7533 29.1917 81.7203L29.7902 81.6145H29.7882ZM28.1188 78.3205C27.6363 77.4939 27.1151 76.6878 26.5614 75.9141L26.1542 76.3559C26.6733 77.0807 27.1619 77.836 27.6159 78.6136L28.1208 78.3225L28.1188 78.3205ZM26.3802 75.6658C25.7206 74.7639 25.0182 73.9088 24.2772 73.1088L24.0003 73.7073C24.6945 74.4565 25.3541 75.2606 25.973 76.1055L26.3802 75.6637V75.6658ZM23.9148 73.8926L23.6379 74.4911C24.2731 75.1772 24.8777 75.9121 25.4417 76.6837L25.8488 76.2419C25.2422 75.4133 24.5968 74.6255 23.9148 73.8905V73.8926ZM23.7132 73.6768C23.0923 73.0212 22.4449 72.4125 21.7751 71.8547L21.6286 72.5774C22.2536 73.0965 22.8562 73.6645 23.4364 74.2753L23.7153 73.6768H23.7132ZM21.5838 72.7973L21.4372 73.52C22.0011 73.9903 22.5488 74.5053 23.074 75.0591L23.3509 74.4606C22.7849 73.8641 22.1925 73.3062 21.5838 72.7993V72.7973ZM21.3904 73.7399L21.2438 74.4626C21.7507 74.884 22.2393 75.3461 22.7096 75.8408L22.9865 75.2403C22.4755 74.7008 21.94 74.1979 21.3883 73.7399H21.3904ZM21.199 74.6845L21.0524 75.4072C21.4983 75.7818 21.9319 76.189 22.3472 76.6246L22.6261 76.0261C22.168 75.5457 21.6917 75.0978 21.199 74.6865V74.6845ZM21.0076 75.6271L20.859 76.3478C21.2479 76.6735 21.6224 77.0257 21.9848 77.4044L22.2617 76.8058C21.8586 76.3824 21.4372 75.9874 21.0056 75.6271H21.0076ZM20.8163 76.5697L20.6676 77.2904C20.9954 77.5672 21.315 77.8665 21.6224 78.1882L21.9014 77.5896C21.5532 77.2252 21.1909 76.8832 20.8163 76.5697ZM20.6229 77.5102L20.4763 78.2309C20.747 78.4589 21.0076 78.7053 21.2601 78.9679L21.5369 78.3694C21.2438 78.0619 20.9364 77.7749 20.6229 77.5102ZM20.4315 78.4528L20.2849 79.1735C20.4946 79.3527 20.7002 79.5461 20.8977 79.7496L21.1766 79.1511C20.9364 78.9027 20.688 78.6686 20.4335 78.4528H20.4315ZM20.2401 79.3954L20.0935 80.1181C20.2442 80.2484 20.3928 80.3869 20.5353 80.5334L20.8122 79.9349C20.6269 79.7435 20.4356 79.5644 20.2401 79.3954ZM19.9917 88.0518L20.118 88.9353C20.3378 89.0086 20.5516 89.0595 20.7572 89.09L20.4905 88.1719C20.3297 88.1474 20.1628 88.1088 19.9938 88.0518H19.9917ZM20.1567 89.2061L20.2829 90.0896C20.5679 90.1873 20.8427 90.2525 21.1074 90.2871L20.8387 89.3689C20.6188 89.3384 20.3908 89.2834 20.1567 89.204V89.2061ZM20.3216 90.3604L20.4478 91.2439C20.7959 91.3641 21.1338 91.4455 21.4575 91.4882L21.1888 90.5701C20.9099 90.5314 20.6188 90.4642 20.3216 90.3604ZM20.4865 91.5147L20.6127 92.3983C21.0239 92.5428 21.425 92.6385 21.8077 92.6873L21.539 91.7692C21.201 91.7244 20.8488 91.6409 20.4865 91.5147ZM20.6514 92.669L20.7776 93.5526C21.254 93.7215 21.7161 93.8315 22.1579 93.8865L21.8912 92.9683C21.4942 92.9174 21.0789 92.8197 20.6514 92.669ZM20.8163 93.8233L20.9425 94.7069C21.484 94.8983 22.0072 95.0245 22.508 95.0856L22.2393 94.1674C21.7833 94.1104 21.3069 93.9964 20.8142 93.8233H20.8163ZM20.9812 94.9777L21.1094 95.8632C21.7141 96.079 22.3004 96.2215 22.8602 96.2887L22.5915 95.3665C22.0764 95.3034 21.539 95.1751 20.9812 94.9777ZM21.1461 96.134L21.2723 97.0176C21.9421 97.2578 22.5895 97.4125 23.2104 97.4878L22.9417 96.5697C22.3676 96.5005 21.767 96.3559 21.1461 96.134ZM23.414 97.5102C23.9881 97.5632 24.5357 97.5469 25.0549 97.4634L24.664 96.5473C24.1835 96.6246 23.6766 96.6409 23.1453 96.59L23.414 97.5082V97.5102ZM23.4954 97.7912L23.7641 98.7093C24.3932 98.7684 24.9958 98.75 25.5638 98.6584L25.175 97.7423C24.6436 97.8278 24.0838 97.8441 23.4974 97.7912H23.4954ZM23.8456 98.9903L24.1143 99.9084C24.8004 99.9736 25.4539 99.9532 26.0728 99.8535L25.6819 98.9373C25.1037 99.033 24.4889 99.0513 23.8456 98.9903ZM26.254 99.8189C26.9217 99.6906 27.5467 99.4646 28.1167 99.145L27.6139 98.2716C27.0785 98.5709 26.4922 98.7826 25.8651 98.9048L26.254 99.8189ZM26.3741 100.1L26.7629 101.014C27.4856 100.875 28.1595 100.631 28.7764 100.287L28.2715 99.4137C27.6892 99.7395 27.054 99.9695 26.372 100.1H26.3741ZM28.9311 100.198C29.4461 99.8901 29.9185 99.5135 30.3439 99.0656L29.7576 98.2574C29.3586 98.6788 28.9107 99.033 28.4262 99.3221L28.9311 100.195V100.198ZM29.0858 100.464L29.5907 101.338C30.1444 101.008 30.6514 100.603 31.1094 100.122L30.5251 99.314C30.0915 99.768 29.6111 100.153 29.0878 100.464H29.0858ZM31.7222 97.0338L31.0646 96.3335C30.7369 97.0155 30.3399 97.6141 29.8818 98.123L30.4661 98.9312C30.9547 98.3917 31.3761 97.7566 31.7222 97.0338ZM31.8077 96.8506C32.111 96.1829 32.3513 95.4398 32.5243 94.6316L31.826 94.0575C31.6632 94.8209 31.4352 95.5192 31.1522 96.1503L31.8097 96.8506H31.8077ZM32.5691 94.4117C32.7381 93.5444 32.8297 92.5998 32.8358 91.5839L32.1212 91.1706C32.1151 92.1275 32.0276 93.0192 31.8688 93.8376L32.5671 94.4117H32.5691ZM32.8358 91.3315C32.8297 90.4663 32.7645 89.5827 32.6404 88.689L31.938 88.4304C32.052 89.2733 32.1151 90.1059 32.1212 90.9202L32.8358 91.3335V91.3315ZM30.5679 81.4781C30.0874 80.3645 29.5378 79.2692 28.9311 78.2065L28.4262 78.4976C28.9983 79.4992 29.5174 80.5334 29.9694 81.5819L30.5679 81.4781ZM28.7764 77.9398C28.2552 77.044 27.6913 76.1727 27.0907 75.336L26.6835 75.7777C27.2475 76.5656 27.7788 77.3881 28.2715 78.2309L28.7764 77.9398ZM26.9115 75.0896C26.201 74.1165 25.4396 73.1902 24.6396 72.327L24.3627 72.9255C25.1159 73.7399 25.8325 74.6112 26.5044 75.5294L26.9115 75.0876V75.0896ZM24.44 72.1132C23.7092 71.3417 22.9478 70.625 22.1599 69.9715L22.0133 70.6943C22.7564 71.3111 23.4751 71.987 24.1632 72.7138L24.44 72.1153V72.1132ZM21.9685 70.9141L21.822 71.6369C22.504 72.2049 23.1656 72.8278 23.8008 73.4956L24.0777 72.897C23.4018 72.1845 22.6974 71.5208 21.9685 70.9141ZM21.9461 69.7944C21.1094 69.1165 20.2462 68.5139 19.3647 67.9968V68.8213C20.1974 69.3099 21.0117 69.8799 21.7996 70.5171L21.9461 69.7965V69.7944ZM19.3647 69.0717V69.8962C20.1322 70.3482 20.8814 70.8714 21.6082 71.4597L21.7548 70.7391C20.9812 70.112 20.1811 69.5542 19.3647 69.0737V69.0717ZM19.3647 70.1487V70.9732C20.065 71.3864 20.7511 71.8649 21.4148 72.4023L21.5614 71.6816C20.8509 71.1055 20.1139 70.5925 19.3627 70.1507L19.3647 70.1487ZM19.3647 71.2236V72.0481C19.9999 72.4227 20.6208 72.8584 21.2234 73.3429L21.372 72.6222C20.7226 72.097 20.0508 71.6287 19.3647 71.2236ZM19.3647 72.3005V73.125C19.9347 73.461 20.4926 73.8518 21.0321 74.2855L21.1786 73.5628C20.5903 73.0884 19.9836 72.665 19.3647 72.2985V72.3005ZM19.3647 73.3795V74.204C19.8676 74.5033 20.3623 74.8474 20.8387 75.2321L20.9852 74.5094C20.46 74.086 19.9185 73.7073 19.3627 73.3795H19.3647ZM19.3647 74.4544V75.279C19.8024 75.5395 20.232 75.8388 20.6473 76.1727L20.7939 75.45C20.3297 75.0774 19.8513 74.7435 19.3627 74.4544H19.3647ZM19.3647 75.5314V76.3559C19.7373 76.5778 20.1017 76.8323 20.4559 77.1153L20.6025 76.3926C20.2014 76.0709 19.7882 75.7818 19.3647 75.5314ZM19.3647 76.6063V77.4308C19.6721 77.6141 19.9714 77.8237 20.2625 78.0579L20.4111 77.3372C20.0711 77.0664 19.721 76.8221 19.3647 76.6084V76.6063ZM19.3627 77.6833V78.5078C19.6029 78.6544 19.8391 78.8193 20.0711 79.0005L20.2177 78.2777C19.9388 78.0579 19.6538 77.8584 19.3627 77.6833ZM19.3627 78.7602V79.5847C19.5378 79.6926 19.7108 79.8127 19.8777 79.943L20.0243 79.2203C19.8085 79.0493 19.5887 78.8966 19.3627 78.7602ZM19.3627 87.7749V88.5994C19.5459 88.6992 19.7251 88.7867 19.9022 88.8559L19.7759 87.9703C19.6416 87.9154 19.5031 87.8482 19.3627 87.7729V87.7749ZM19.3627 88.8518V89.6763C19.6009 89.8087 19.837 89.9207 20.0671 90.0123L19.9409 89.1287C19.7515 89.0534 19.5602 88.9597 19.3627 88.8539V88.8518ZM19.3627 89.9268V90.7513C19.6579 90.9162 19.949 91.0546 20.232 91.1645L20.1058 90.281C19.8635 90.1853 19.6151 90.0672 19.3627 89.9268ZM19.3627 91.0037V91.8282C19.7149 92.0257 20.061 92.1906 20.3969 92.3209L20.2707 91.4373C19.9734 91.3213 19.6701 91.1768 19.3627 91.0057V91.0037ZM19.3627 92.0786V92.9031C19.7698 93.1332 20.1709 93.3225 20.5618 93.4732L20.4356 92.5896C20.0854 92.4553 19.7271 92.2842 19.3627 92.0807V92.0786ZM19.3627 93.1556V93.9801C19.8268 94.2407 20.2829 94.4565 20.7267 94.6275L20.6005 93.7439C20.1974 93.5892 19.7841 93.3938 19.3627 93.1556ZM19.3627 94.2325V95.0591C19.8838 95.3522 20.3948 95.5945 20.8936 95.7859L20.7654 94.9003C20.3093 94.7252 19.8411 94.5033 19.3627 94.2346V94.2325ZM19.3627 95.3095V96.134C19.9409 96.4597 20.5068 96.7285 21.0585 96.9402L20.9323 96.0566C20.4213 95.8612 19.8981 95.6128 19.3627 95.3115V95.3095ZM19.3627 96.3844V97.2089C19.9958 97.5693 20.6167 97.8624 21.2234 98.0925L21.0972 97.2089C20.5312 96.9931 19.9531 96.7203 19.3627 96.3844ZM19.3627 97.4614V98.2859C20.0528 98.6768 20.7287 98.9984 21.3883 99.2488L21.2621 98.3653C20.6432 98.1291 20.008 97.8298 19.3627 97.4634V97.4614ZM21.4392 98.1719C22.1742 98.4345 22.8826 98.6055 23.5626 98.6869L23.2939 97.7688C22.6607 97.6935 21.997 97.5326 21.313 97.2883L21.4392 98.1719ZM21.4779 98.4426L21.6041 99.3262C22.4022 99.6132 23.1738 99.7985 23.9128 99.886L23.644 98.9679C22.9518 98.8844 22.2271 98.7114 21.4779 98.4426ZM21.6428 99.597L21.769 100.483C22.6302 100.792 23.4649 100.994 24.2629 101.087L23.9942 100.169C23.243 100.079 22.4551 99.8922 21.6428 99.599V99.597ZM24.4665 101.108C25.2055 101.179 25.914 101.156 26.5817 101.046L26.1929 100.132C25.5638 100.236 24.8961 100.255 24.1978 100.189L24.4665 101.108ZM24.5479 101.388L24.8167 102.307C25.6127 102.384 26.3741 102.362 27.0907 102.241L26.6998 101.327C26.0198 101.439 25.3012 101.462 24.5479 101.388ZM27.2719 102.209C28.0496 102.06 28.7723 101.798 29.436 101.427L28.9311 100.554C28.304 100.904 27.618 101.154 26.883 101.295L27.2739 102.211L27.2719 102.209ZM27.39 102.49L27.7788 103.406C28.6094 103.249 29.3851 102.968 30.0915 102.569L29.5866 101.696C28.9148 102.073 28.1778 102.339 27.3879 102.49H27.39ZM27.8989 103.685L28.2878 104.599C29.1713 104.432 29.9979 104.133 30.7511 103.709L30.2462 102.836C29.5276 103.239 28.7418 103.524 27.8989 103.685ZM30.2483 102.48C30.8407 102.13 31.3863 101.694 31.8729 101.179L31.2865 100.371C30.8224 100.859 30.3053 101.272 29.7434 101.606L30.2462 102.48H30.2483ZM32.5813 97.9479L31.9238 97.2476C31.5716 97.9846 31.142 98.6299 30.6473 99.1776L31.2316 99.9858C31.7568 99.4056 32.2088 98.7236 32.5813 97.9459V97.9479ZM32.6668 97.7647C32.7931 97.4838 32.9111 97.1906 33.017 96.8852V95.0367L32.736 94.8066C32.561 95.6312 32.3167 96.3844 32.0093 97.0644L32.6668 97.7647ZM33.017 94.7802V92.724C32.9742 93.3775 32.8969 94.0005 32.7808 94.5888L33.017 94.7822V94.7802ZM19.3627 99.3608C20.1078 99.7842 20.8407 100.13 21.5532 100.401L21.427 99.5176C20.7552 99.2631 20.065 98.9353 19.3627 98.5383V99.3628V99.3608ZM21.6224 100.875L21.594 100.672C21.1461 100.503 20.6921 100.299 20.2299 100.071L21.6224 100.875ZM24.5093 102.543L24.7251 102.667L24.6966 102.567C24.6355 102.559 24.5724 102.551 24.5113 102.543H24.5093ZM26.7263 103.823L28.1005 104.617L27.7177 103.72C27.3961 103.772 27.0663 103.807 26.7283 103.825L26.7263 103.823ZM29.7393 105.562C30.3277 105.383 30.8855 105.147 31.4107 104.849L30.9058 103.976C30.1729 104.389 29.3729 104.682 28.5158 104.855L29.7393 105.562ZM32.6383 102.233L32.052 101.425C31.5573 101.948 31.0036 102.39 30.403 102.746L30.9079 103.62C31.539 103.245 32.1192 102.783 32.6383 102.231V102.233ZM33.017 99.6499V98.4121L32.7808 98.1617C32.4022 98.9516 31.9421 99.6458 31.4087 100.234L31.995 101.042C32.3716 100.627 32.7116 100.161 33.015 99.6499H33.017ZM33.017 98.1393V97.6303C32.9681 97.7484 32.9193 97.8665 32.8663 97.9805L33.017 98.1413V98.1393ZM10.4091 62.6161L10.7918 63.5139C11.1135 63.461 11.4433 63.4263 11.7812 63.408L10.4091 62.6161ZM7.2963 60.8184C7.00111 60.9426 6.7161 61.0851 6.43923 61.2399L6.94411 62.1132C7.41031 61.8506 7.90095 61.6348 8.41601 61.4638L7.29834 60.8184H7.2963ZM5.92619 60.2036C5.89973 60.2036 5.87326 60.2077 5.84679 60.2138L6.28654 60.9732C6.50844 60.849 6.73645 60.735 6.96854 60.6291L6.51048 60.3665C6.51048 60.3665 6.20103 60.1935 5.92619 60.2057V60.2036ZM5.49052 61.4821C5.69818 61.3335 5.90991 61.191 6.12978 61.0628L5.68189 60.2891C5.57196 60.3808 5.49052 60.5701 5.49052 60.9569V61.4842V61.4821ZM5.49052 61.8608V63.1556C5.89565 62.7952 6.32725 62.4756 6.78938 62.2028L6.2845 61.3294C6.0117 61.4903 5.745 61.6694 5.49052 61.8608ZM5.49052 64.9736C5.51495 64.9451 5.54142 64.9145 5.56788 64.886L5.49052 64.7802V64.9715V64.9736ZM5.49052 65.4296V67.0399C5.74704 66.643 6.02798 66.2765 6.33132 65.9406L5.745 65.1324C5.65746 65.2281 5.57399 65.3278 5.49052 65.4296ZM31.2132 106.413C31.5064 106.289 31.7935 106.148 32.0703 105.991L31.5654 105.118C31.0992 105.381 30.6086 105.597 30.0935 105.768L31.2132 106.413ZM32.6526 107.001L32.2251 106.258C32.0032 106.382 31.7751 106.496 31.541 106.602L31.9909 106.861C32.0948 106.918 32.4022 107.066 32.6546 106.999L32.6526 107.001ZM33.017 105.749C32.8093 105.898 32.5956 106.038 32.3777 106.169L32.8114 106.918C32.9315 106.816 33.017 106.621 33.017 106.277V105.749ZM33.017 105.371V104.076C32.6119 104.436 32.1782 104.756 31.7181 105.029L32.223 105.902C32.4958 105.739 32.7605 105.562 33.017 105.371ZM33.017 102.258C32.9905 102.286 32.9661 102.317 32.9417 102.345L33.017 102.451V102.26V102.258ZM33.017 101.802V100.189C32.7584 100.586 32.4795 100.953 32.1742 101.289L32.7605 102.097C32.848 102.001 32.9335 101.902 33.017 101.802Z" fill="#DEE5E9"/>
<path d="M35.9772 94.5278L46.7549 100.749V100.489L35.9772 94.2651V94.5278Z" fill="#DEE5E9"/>
<path d="M35.9772 94.2509L46.7549 100.474V100.312L35.9772 94.088V94.2509Z" fill="#ACB3B7"/>
<path d="M35.9772 77.7117L46.7549 83.9332V83.6726L35.9772 77.4491V77.7117Z" fill="#DEE5E9"/>
<path d="M35.9772 77.4347L46.7549 83.6583V83.4933L35.9772 77.2719V77.4347Z" fill="#ACB3B7"/>
<path d="M35.9772 83.1982L46.7549 89.4217V89.1612L35.9772 82.9376V83.1982Z" fill="#DEE5E9"/>
<path d="M35.9772 82.9234L46.7549 89.1449V88.982L35.9772 82.7605V82.9234Z" fill="#ACB3B7"/>
<path d="M35.9772 108.978L46.7549 115.201V114.939L35.9772 108.717V108.978Z" fill="#DEE5E9"/>
<path d="M35.9772 108.703L46.7549 114.925V114.762L35.9772 108.538V108.703Z" fill="#ACB3B7"/>
<path d="M35.9772 101.767L46.7549 107.991V107.728L35.9772 101.506V101.767Z" fill="#DEE5E9"/>
<path d="M35.9772 101.49L46.7549 107.714V107.551L35.9772 101.329V101.49Z" fill="#ACB3B7"/>
<path d="M77.3392 108.151L84.0921 112.05L84.7354 111.922L106.075 99.601L98.6788 95.8286L76.6959 106.842V107.315L77.3392 108.151Z" fill="url(#paint4_linear_43_138250)"/>
<path d="M77.3392 106.773L84.0921 110.672L105.432 98.349L98.6788 94.4524L77.3392 106.773Z" fill="url(#paint5_linear_43_138250)"/>
<path d="M91.7366 101.515L93.1637 102.339L94.1226 101.783V101.46L92.6954 100.961L91.7366 101.189V101.515Z" fill="#F6B000"/>
<path d="M91.7366 101.189L93.1637 102.014L94.1226 101.46L92.6954 100.635L91.7366 101.189Z" fill="#F6B000"/>
<path d="M94.033 101.46L92.6954 100.686L91.8241 101.189L93.1637 101.963L94.033 101.46Z" fill="url(#paint6_linear_43_138250)"/>
<path d="M91.0688 98.8456L97.8216 102.744L103.192 99.6417L96.4393 95.743L91.0688 98.8456Z" fill="#2E373A"/>
<path d="M92.8584 99.1023L97.3107 101.672L101.266 99.3873L96.814 96.8181L92.8584 99.1023Z" fill="#5C665F"/>
<path d="M101.23 99.3872L96.814 96.8384L92.895 99.1022L97.3108 101.651L101.23 99.3872Z" fill="#616B64"/>
<path d="M101.193 99.3871L96.814 96.8586L92.9317 99.1021L97.3108 101.629L101.193 99.3871Z" fill="#67716A"/>
<path d="M101.156 99.3872L96.8141 96.8811L92.9704 99.1022L97.3108 101.608L101.156 99.3872Z" fill="#6C766F"/>
<path d="M101.12 99.3873L96.8141 96.9036L93.0051 99.1023L97.3108 101.586L101.12 99.3873Z" fill="#717B74"/>
<path d="M86.7346 108.815C86.8384 108.815 86.9362 108.791 87.0095 108.75L89.9879 107.032C90.0673 106.985 90.1121 106.922 90.1121 106.85C90.1121 106.779 90.0693 106.716 89.9879 106.669L84.1837 103.318C84.0351 103.233 83.7806 103.233 83.632 103.318L80.6556 105.037C80.5762 105.083 80.5314 105.146 80.5314 105.218C80.5314 105.289 80.5762 105.352 80.6556 105.399L86.4598 108.75C86.5351 108.793 86.6308 108.815 86.7367 108.815H86.7346ZM83.9068 103.326C83.9985 103.326 84.0819 103.347 84.145 103.383L89.9492 106.734C90.0062 106.767 90.0367 106.808 90.0367 106.85C90.0367 106.893 90.0042 106.934 89.9492 106.966L86.9728 108.685C86.8466 108.758 86.6206 108.758 86.4964 108.685L80.6923 105.334C80.6353 105.301 80.6047 105.26 80.6047 105.218C80.6047 105.175 80.6353 105.134 80.6923 105.102L83.6707 103.383C83.7338 103.347 83.8173 103.326 83.9089 103.326H83.9068Z" fill="#414E52"/>
<path d="M91.7935 102.26L91.5654 103.202L90.2075 102.416V102.215L91.7935 102.058V102.26Z" fill="#9DA4A8"/>
<path d="M91.7935 102.058L91.5654 102.999L90.2075 102.215L91.7935 102.058Z" fill="#9DA4A8"/>
<path d="M91.7368 102.109L90.3504 102.245L91.5373 102.931L91.7368 102.109Z" fill="url(#paint7_linear_43_138250)"/>
<path d="M88.8844 103.939L90.5151 103.809V103.599L89.1572 103.023L88.8844 103.732V103.939Z" fill="#9DA4A8"/>
<path d="M88.8844 103.732L90.5151 103.599L89.1572 102.816L88.8844 103.732Z" fill="#9DA4A8"/>
<path d="M90.3706 103.567L89.1837 102.883L88.9455 103.681L90.3706 103.567Z" fill="url(#paint8_linear_43_138250)"/>
<path d="M84.0921 110.672L84.7354 111.449L106.075 99.1286L105.432 98.3489L84.0921 110.672Z" fill="url(#paint9_linear_43_138250)"/>
<path d="M84.7354 111.45V111.922L106.075 99.601V99.1287L84.7354 111.45Z" fill="url(#paint10_linear_43_138250)"/>
<path d="M76.6958 106.818L77.3391 106.773L98.6787 94.4524L98.0354 94.4972L76.6958 106.818Z" fill="url(#paint11_linear_43_138250)"/>
<path d="M83.3735 104.015L83.3979 104C83.4773 103.954 83.5852 103.929 83.6972 103.929C83.8092 103.929 83.9273 103.958 84.0128 104.007L84.6296 104.361C84.7233 104.416 84.7742 104.489 84.7742 104.57C84.7742 104.652 84.7253 104.719 84.6398 104.77L84.6133 104.784C84.5339 104.831 84.426 104.855 84.3141 104.855C84.2021 104.855 84.084 104.827 83.9985 104.778L83.3817 104.422C83.288 104.367 83.2371 104.294 83.2371 104.212C83.2371 104.131 83.286 104.064 83.3735 104.013V104.015Z" fill="black"/>
<path d="M83.2861 104C83.28 104.065 83.3207 104.131 83.4062 104.179L84.021 104.536C84.1798 104.627 84.4363 104.629 84.5911 104.542L84.6175 104.526C84.6928 104.483 84.7295 104.426 84.7295 104.367V104.599C84.7254 104.652 84.6867 104.705 84.6175 104.745L84.5911 104.76C84.4363 104.849 84.1798 104.847 84.021 104.756L83.4062 104.399C83.3248 104.353 83.282 104.289 83.2841 104.226V103.998L83.2861 104Z" fill="#1872B8"/>
<path d="M83.3958 103.852C83.241 103.941 83.2451 104.088 83.4039 104.18L84.0187 104.536C84.1775 104.628 84.434 104.63 84.5888 104.542L84.6152 104.526C84.7699 104.436 84.7659 104.288 84.6071 104.198L83.9902 103.842C83.8314 103.75 83.5749 103.748 83.4202 103.838L83.3937 103.852H83.3958Z" fill="#1872B8"/>
<path d="M84.3141 104.583C84.4139 104.583 84.5096 104.56 84.5788 104.522L84.6052 104.507C84.6704 104.471 84.707 104.42 84.707 104.367C84.707 104.312 84.6683 104.259 84.5971 104.218L83.9802 103.862C83.9069 103.819 83.8031 103.795 83.6993 103.795C83.5955 103.795 83.5039 103.817 83.4346 103.858L83.4102 103.872C83.3451 103.911 83.3084 103.96 83.3084 104.013C83.3084 104.068 83.3471 104.121 83.4184 104.161L84.0332 104.518C84.1085 104.56 84.2103 104.585 84.3141 104.585V104.583Z" fill="url(#paint12_linear_43_138250)"/>
<path d="M82.1234 104.837L82.1478 104.823C82.2272 104.778 82.3351 104.752 82.4471 104.752C82.5651 104.752 82.6771 104.778 82.7626 104.829L83.3774 105.185C83.4711 105.24 83.522 105.313 83.522 105.393C83.522 105.472 83.4731 105.541 83.3856 105.592L83.3591 105.607C83.2797 105.653 83.1718 105.678 83.0598 105.678C82.9479 105.678 82.8298 105.651 82.7443 105.601L82.1295 105.244C82.0358 105.191 81.9849 105.116 81.9849 105.037C81.9849 104.957 82.0338 104.888 82.1213 104.837H82.1234Z" fill="black"/>
<path d="M82.0358 104.823C82.0318 104.888 82.0705 104.953 82.156 105.004L82.7708 105.36C82.9296 105.452 83.1861 105.454 83.3408 105.366L83.3673 105.35C83.4426 105.307 83.4792 105.25 83.4792 105.191V105.423C83.4752 105.476 83.4365 105.529 83.3673 105.57L83.3408 105.584C83.1861 105.674 82.9316 105.672 82.7708 105.58L82.156 105.226C82.0745 105.179 82.0338 105.116 82.0338 105.053V104.825L82.0358 104.823Z" fill="#1872B8"/>
<path d="M82.1459 104.674C81.9912 104.764 81.9953 104.911 82.1561 105.004L82.7709 105.36C82.9297 105.452 83.1862 105.454 83.3409 105.367L83.3674 105.35C83.5221 105.261 83.5181 105.112 83.3593 105.021L82.7424 104.664C82.5836 104.573 82.3271 104.571 82.1724 104.66L82.1459 104.674Z" fill="#1872B8"/>
<path d="M83.0641 105.405C83.1659 105.405 83.2616 105.383 83.3288 105.342L83.3552 105.328C83.4204 105.289 83.457 105.24 83.457 105.187C83.457 105.134 83.4183 105.079 83.3471 105.039L82.7302 104.682C82.6569 104.64 82.5531 104.615 82.4493 104.615C82.3455 104.615 82.2539 104.638 82.1846 104.676L82.1582 104.691C82.093 104.727 82.0564 104.778 82.0564 104.831C82.0564 104.884 82.0951 104.939 82.1663 104.98L82.7811 105.336C82.8565 105.379 82.9583 105.403 83.0621 105.403L83.0641 105.405Z" fill="url(#paint13_linear_43_138250)"/>
<path d="M87.2986 106.386L87.325 106.37C87.4044 106.323 87.5123 106.299 87.6243 106.299C87.7424 106.299 87.8543 106.325 87.9399 106.376L88.5547 106.732C88.6483 106.785 88.6992 106.861 88.6992 106.94C88.6992 107.017 88.6504 107.089 88.5628 107.14L88.5364 107.154C88.457 107.201 88.3511 107.225 88.2371 107.225C88.1231 107.225 88.007 107.199 87.9215 107.15L87.3067 106.794C87.2131 106.741 87.1622 106.665 87.1622 106.586C87.1622 106.506 87.211 106.437 87.2986 106.386Z" fill="black"/>
<path d="M87.2089 106.37C87.2048 106.433 87.2435 106.5 87.329 106.551L87.9458 106.908C88.1046 106.999 88.3611 107.001 88.5159 106.912L88.5423 106.897C88.6177 106.855 88.6543 106.796 88.6543 106.739V106.971C88.6502 107.024 88.6115 107.077 88.5423 107.117L88.5159 107.132C88.3611 107.221 88.1046 107.219 87.9458 107.127L87.329 106.771C87.2475 106.724 87.2068 106.661 87.2068 106.6V106.37H87.2089Z" fill="#1872B8"/>
<path d="M87.321 106.222C87.1662 106.311 87.1703 106.46 87.3291 106.549L87.946 106.906C88.1048 106.997 88.3613 106.999 88.516 106.91L88.5425 106.895C88.6972 106.806 88.6931 106.657 88.5343 106.566L87.9175 106.211C87.7587 106.118 87.5022 106.118 87.3474 106.205L87.323 106.22L87.321 106.222Z" fill="#1872B8"/>
<path d="M88.2371 106.954C88.3388 106.954 88.4325 106.932 88.5017 106.891L88.5261 106.877C88.5933 106.838 88.6279 106.79 88.6279 106.737C88.6279 106.682 88.5892 106.629 88.518 106.588L87.9032 106.232C87.8299 106.189 87.7261 106.165 87.6222 106.165C87.5184 106.165 87.4268 106.187 87.3576 106.228L87.3311 106.242C87.266 106.281 87.2293 106.329 87.2293 106.382C87.2293 106.437 87.268 106.49 87.3392 106.531L87.9561 106.887C88.0294 106.93 88.1332 106.954 88.2371 106.954Z" fill="url(#paint14_linear_43_138250)"/>
<path d="M89.6662 105.413L89.6926 105.399C89.772 105.352 89.8779 105.328 89.9919 105.328C90.1059 105.328 90.2219 105.354 90.3074 105.405L90.9243 105.761C91.0159 105.814 91.0688 105.89 91.0688 105.969C91.0688 106.046 91.02 106.118 90.9324 106.169L90.906 106.183C90.8266 106.23 90.7207 106.254 90.6067 106.254C90.4927 106.254 90.3767 106.228 90.2912 106.177L89.6763 105.822C89.5827 105.77 89.5318 105.694 89.5318 105.613C89.5318 105.531 89.5807 105.464 89.6682 105.413H89.6662Z" fill="black"/>
<path d="M89.5787 105.397C89.5726 105.462 89.6133 105.527 89.6988 105.578L90.3157 105.934C90.4745 106.026 90.731 106.028 90.8857 105.938L90.9122 105.924C90.9875 105.881 91.0242 105.824 91.0242 105.765V105.998C91.0181 106.053 90.9814 106.103 90.9102 106.144L90.8837 106.158C90.729 106.248 90.4725 106.244 90.3137 106.154L89.6968 105.798C89.6154 105.751 89.5726 105.688 89.5747 105.627V105.397H89.5787Z" fill="#9DA4A8"/>
<path d="M89.6906 105.248C89.5359 105.338 89.5399 105.487 89.6987 105.576L90.3156 105.932C90.4744 106.024 90.7309 106.026 90.8856 105.936L90.9121 105.922C91.0668 105.833 91.0627 105.684 90.9039 105.592L90.2871 105.236C90.1283 105.145 89.8718 105.142 89.7171 105.232L89.6906 105.246V105.248Z" fill="#9DA4A8"/>
<path d="M90.6068 105.979C90.7066 105.979 90.8023 105.957 90.8715 105.918L90.898 105.902C90.9631 105.863 90.9998 105.814 90.9998 105.761C90.9998 105.706 90.9611 105.654 90.8898 105.613L90.273 105.259C90.1997 105.216 90.0958 105.191 89.992 105.191C89.8882 105.191 89.7966 105.214 89.7274 105.255L89.7009 105.269C89.6358 105.307 89.5991 105.356 89.5991 105.409C89.5991 105.462 89.6378 105.517 89.709 105.558L90.3239 105.914C90.3992 105.957 90.501 105.981 90.6048 105.981L90.6068 105.979Z" fill="url(#paint15_linear_43_138250)"/>
<path d="M91.307 104.454L91.3315 104.438C91.4109 104.391 91.5188 104.367 91.6328 104.367C91.7468 104.367 91.8628 104.393 91.9483 104.444L92.5652 104.801C92.6588 104.856 92.7097 104.929 92.7097 105.008C92.7097 105.088 92.6609 105.157 92.5733 105.208L92.5469 105.224C92.4675 105.271 92.3616 105.295 92.2476 105.295C92.1336 105.295 92.0175 105.269 91.932 105.218L91.3152 104.862C91.2236 104.809 91.1706 104.733 91.1706 104.654C91.1706 104.575 91.2195 104.505 91.307 104.454Z" fill="black"/>
<path d="M91.2194 104.438C91.2133 104.503 91.254 104.568 91.3396 104.619L91.9544 104.976C92.1132 105.067 92.3697 105.069 92.5244 104.98L92.5509 104.965C92.6262 104.923 92.6628 104.866 92.6628 104.807V105.039C92.6588 105.092 92.6201 105.145 92.5509 105.185L92.5244 105.2C92.3697 105.289 92.1132 105.287 91.9544 105.195L91.3396 104.839C91.2581 104.792 91.2154 104.729 91.2174 104.666V104.438H91.2194Z" fill="#9DA4A8"/>
<path d="M91.3315 104.289C91.1768 104.379 91.1809 104.528 91.3397 104.619L91.9545 104.976C92.1133 105.067 92.3698 105.069 92.5245 104.98L92.551 104.965C92.7057 104.876 92.7017 104.727 92.5429 104.636L91.926 104.281C91.7672 104.19 91.5107 104.188 91.356 104.275L91.3315 104.289Z" fill="#9DA4A8"/>
<path d="M92.2475 105.02C92.3493 105.02 92.4429 104.998 92.5121 104.957L92.5386 104.943C92.6037 104.904 92.6404 104.856 92.6404 104.803C92.6404 104.75 92.6017 104.695 92.5304 104.654L91.9136 104.3C91.8403 104.257 91.7365 104.233 91.6326 104.233C91.5288 104.233 91.4352 104.255 91.366 104.296L91.3395 104.31C91.2743 104.347 91.2377 104.397 91.2377 104.448C91.2377 104.503 91.2784 104.556 91.3497 104.597L91.9645 104.953C92.0398 104.996 92.1416 105.02 92.2454 105.02H92.2475Z" fill="url(#paint16_linear_43_138250)"/>
<path d="M85.3483 102.877L85.3748 102.862C85.4542 102.816 85.56 102.791 85.674 102.791C85.788 102.791 85.9061 102.818 85.9896 102.869L86.6064 103.225C86.7001 103.278 86.751 103.353 86.751 103.434C86.751 103.516 86.7021 103.583 86.6146 103.634L86.5881 103.648C86.5087 103.695 86.4028 103.719 86.2888 103.719C86.1748 103.719 86.0588 103.693 85.9733 103.642L85.3564 103.286C85.2628 103.233 85.2119 103.158 85.2119 103.076C85.2119 102.995 85.2607 102.928 85.3483 102.877Z" fill="black"/>
<path d="M85.2605 102.86C85.2544 102.925 85.2931 102.991 85.3807 103.042L85.9955 103.398C86.1563 103.489 86.4108 103.491 86.5655 103.404L86.5899 103.39C86.6653 103.347 86.7019 103.288 86.7019 103.231V103.463C86.6958 103.518 86.6592 103.569 86.5899 103.61L86.5655 103.624C86.4108 103.713 86.1543 103.709 85.9955 103.62L85.3807 103.263C85.2992 103.217 85.2585 103.154 85.2585 103.092V102.864H85.2605V102.86Z" fill="#9DA4A8"/>
<path d="M85.3706 102.712C85.2159 102.801 85.22 102.95 85.3808 103.042L85.9956 103.398C86.1564 103.49 86.4109 103.492 86.5656 103.404L86.5901 103.39C86.7448 103.3 86.7407 103.154 86.5819 103.06L85.9651 102.706C85.8063 102.614 85.5498 102.612 85.395 102.702L85.3686 102.716L85.3706 102.712Z" fill="#9DA4A8"/>
<path d="M86.2887 103.443C86.3905 103.443 86.4842 103.42 86.5534 103.38L86.5798 103.365C86.645 103.327 86.6816 103.278 86.6816 103.225C86.6816 103.172 86.643 103.117 86.5717 103.076L85.9548 102.72C85.8816 102.677 85.7777 102.653 85.6739 102.653C85.5701 102.653 85.4785 102.675 85.4092 102.716L85.3828 102.73C85.3176 102.767 85.281 102.818 85.281 102.871C85.281 102.924 85.3197 102.979 85.3909 103.019L86.0078 103.376C86.0811 103.418 86.1829 103.443 86.2887 103.443Z" fill="url(#paint17_linear_43_138250)"/>
<path d="M86.928 101.963L86.9544 101.948C87.0338 101.902 87.1417 101.877 87.2537 101.877C87.3657 101.877 87.4837 101.904 87.5692 101.954L88.1841 102.311C88.2777 102.364 88.3286 102.439 88.3286 102.518C88.3286 102.598 88.2798 102.667 88.1922 102.718L88.1657 102.732C88.0863 102.779 87.9805 102.803 87.8665 102.803C87.7525 102.803 87.6364 102.777 87.5509 102.726L86.9341 102.37C86.8404 102.317 86.7895 102.241 86.7895 102.16C86.7895 102.079 86.8384 102.011 86.9259 101.961L86.928 101.963Z" fill="black"/>
<path d="M86.8405 101.946C86.8344 102.011 86.8731 102.076 86.9606 102.125L87.5755 102.482C87.7343 102.573 87.9908 102.575 88.1455 102.486L88.172 102.471C88.2473 102.429 88.2839 102.372 88.2839 102.313V102.545C88.2778 102.6 88.2412 102.651 88.1699 102.691L88.1435 102.708C87.9887 102.797 87.7322 102.795 87.5734 102.701L86.9586 102.345C86.8772 102.298 86.8365 102.235 86.8365 102.174V101.946H86.8405Z" fill="#9DA4A8"/>
<path d="M86.9504 101.798C86.7957 101.887 86.7998 102.036 86.9586 102.125L87.5734 102.482C87.7322 102.573 87.9887 102.575 88.1434 102.486L88.1699 102.471C88.3246 102.382 88.3206 102.233 88.1618 102.142L87.5469 101.785C87.3881 101.694 87.1316 101.692 86.9769 101.781L86.9525 101.796L86.9504 101.798Z" fill="#9DA4A8"/>
<path d="M87.8667 102.528C87.9685 102.528 88.0621 102.506 88.1313 102.467L88.1558 102.451C88.2209 102.412 88.2576 102.364 88.2576 102.311C88.2576 102.256 88.2189 102.203 88.1476 102.162L87.5308 101.808C87.4575 101.765 87.3537 101.741 87.2498 101.741C87.146 101.741 87.0544 101.763 86.9852 101.804L86.9587 101.818C86.8936 101.855 86.8569 101.906 86.8569 101.958C86.8569 102.013 86.8956 102.066 86.9669 102.107L87.5817 102.463C87.655 102.506 87.7588 102.531 87.8626 102.531L87.8667 102.528Z" fill="url(#paint18_linear_43_138250)"/>
<path d="M90.1283 100.128L90.1548 100.114C90.2342 100.069 90.34 100.043 90.4541 100.043C90.5681 100.043 90.6841 100.069 90.7696 100.118L91.3865 100.474C91.4781 100.529 91.531 100.603 91.531 100.684C91.531 100.761 91.4821 100.833 91.3946 100.884L91.3681 100.898C91.2867 100.945 91.1808 100.969 91.0689 100.969C90.9508 100.969 90.8368 100.943 90.7533 100.894L90.1365 100.537C90.0428 100.484 89.9919 100.411 89.9919 100.33C89.9919 100.248 90.0408 100.181 90.1283 100.13V100.128Z" fill="black"/>
<path d="M90.0407 100.112C90.0346 100.177 90.0733 100.242 90.1608 100.293L90.7777 100.649C90.9365 100.741 91.193 100.743 91.3477 100.653L91.3722 100.639C91.4475 100.596 91.4841 100.539 91.4841 100.48V100.713C91.478 100.765 91.4414 100.818 91.3701 100.859L91.3457 100.873C91.191 100.963 90.9345 100.961 90.7757 100.869L90.1588 100.515C90.0774 100.468 90.0367 100.405 90.0367 100.342V100.114H90.0387L90.0407 100.112Z" fill="#9DA4A8"/>
<path d="M90.1528 99.9634C89.9981 100.051 90.0022 100.2 90.161 100.291L90.7778 100.647C90.9366 100.739 91.1931 100.741 91.3479 100.651L91.3723 100.637C91.527 100.548 91.5229 100.401 91.3642 100.309L90.7493 99.9532C90.5905 99.8616 90.334 99.8595 90.1793 99.9491L90.1528 99.9634Z" fill="#9DA4A8"/>
<path d="M91.0689 100.696C91.1687 100.696 91.2644 100.674 91.3336 100.633L91.36 100.619C91.4252 100.58 91.4639 100.531 91.4639 100.478C91.4639 100.423 91.4232 100.371 91.3539 100.33L90.7391 99.9736C90.6658 99.9308 90.564 99.9064 90.4582 99.9064C90.3523 99.9064 90.2627 99.9288 90.1935 99.9675L90.1691 99.9837C90.1039 100.022 90.0673 100.071 90.0673 100.124C90.0673 100.179 90.108 100.232 90.1772 100.273L90.7941 100.629C90.8674 100.672 90.9692 100.696 91.075 100.696H91.0689Z" fill="url(#paint19_linear_43_138250)"/>
<path d="M92.844 103.593L92.8704 103.579C92.9498 103.532 93.0577 103.508 93.1697 103.508C93.2817 103.508 93.3998 103.534 93.4853 103.583L94.1001 103.939C94.1937 103.992 94.2446 104.068 94.2446 104.149C94.2446 104.23 94.1958 104.298 94.1103 104.348L94.0838 104.363C94.0044 104.41 93.8985 104.434 93.7845 104.434C93.6705 104.434 93.5545 104.408 93.469 104.359L92.8542 104.002C92.7605 103.947 92.7096 103.874 92.7096 103.793C92.7096 103.711 92.7585 103.644 92.846 103.593H92.844Z" fill="black"/>
<path d="M92.7565 103.577C92.7504 103.64 92.7912 103.707 92.8767 103.758L93.4915 104.114C93.6503 104.206 93.9068 104.208 94.0615 104.12L94.088 104.104C94.1633 104.061 94.2 104.004 94.2 103.945V104.177C94.1959 104.232 94.1572 104.283 94.088 104.326L94.0615 104.34C93.9068 104.43 93.6503 104.428 93.4915 104.336L92.8767 103.982C92.7952 103.935 92.7545 103.872 92.7545 103.809V103.579L92.7565 103.577Z" fill="#9DA4A8"/>
<path d="M92.8687 103.428C92.7139 103.518 92.718 103.665 92.8768 103.756L93.4916 104.112C93.6504 104.204 93.9069 104.206 94.0617 104.119L94.0881 104.102C94.2428 104.013 94.2388 103.866 94.08 103.775L93.4652 103.418C93.3064 103.327 93.0498 103.325 92.8951 103.414L92.8687 103.428Z" fill="#9DA4A8"/>
<path d="M93.7848 104.161C93.8866 104.161 93.9803 104.139 94.0495 104.098L94.0759 104.084C94.1411 104.047 94.1777 103.996 94.1777 103.943C94.1777 103.888 94.1391 103.836 94.0678 103.795L93.453 103.439C93.3777 103.396 93.2759 103.371 93.172 103.371C93.0682 103.371 92.9766 103.394 92.9074 103.434L92.8809 103.449C92.8158 103.487 92.7791 103.536 92.7791 103.589C92.7791 103.644 92.8178 103.697 92.8891 103.738L93.5059 104.094C93.5792 104.137 93.681 104.161 93.7869 104.161H93.7848Z" fill="url(#paint20_linear_43_138250)"/>
<path d="M94.4504 102.647L94.4769 102.632C94.5563 102.586 94.6642 102.561 94.7762 102.561C94.8881 102.561 95.0062 102.588 95.0917 102.639L95.7065 102.995C95.8002 103.05 95.8511 103.123 95.8511 103.202C95.8511 103.282 95.8022 103.351 95.7147 103.402L95.6902 103.416C95.6108 103.463 95.5029 103.487 95.391 103.487C95.279 103.487 95.1609 103.461 95.0754 103.41L94.4606 103.054C94.367 103.001 94.3161 102.926 94.3161 102.844C94.3161 102.763 94.3649 102.696 94.4525 102.645L94.4504 102.647Z" fill="black"/>
<path d="M94.3628 102.63C94.3588 102.696 94.3974 102.761 94.4829 102.812L95.0978 103.168C95.2566 103.259 95.5131 103.261 95.6658 103.172L95.6922 103.158C95.7676 103.115 95.8042 103.058 95.8042 102.999V103.229C95.8001 103.282 95.7614 103.335 95.6922 103.378L95.6658 103.392C95.5131 103.481 95.2566 103.479 95.0978 103.386L94.4829 103.029C94.4015 102.983 94.3608 102.919 94.3608 102.858V102.63H94.3628Z" fill="#FF4342"/>
<path d="M94.4727 102.482C94.3179 102.571 94.322 102.72 94.4828 102.809L95.0977 103.166C95.2565 103.257 95.513 103.259 95.6657 103.17L95.6921 103.156C95.8468 103.066 95.8428 102.917 95.684 102.826L95.0671 102.472C94.9083 102.38 94.6518 102.378 94.4971 102.465L94.4706 102.48L94.4727 102.482Z" fill="#FF4342"/>
<path d="M95.391 103.215C95.4928 103.215 95.5865 103.192 95.6557 103.154L95.6821 103.137C95.7473 103.099 95.7839 103.05 95.7839 102.997C95.7839 102.942 95.7453 102.889 95.674 102.848L95.0592 102.492C94.9839 102.449 94.8821 102.425 94.7782 102.425C94.6744 102.425 94.5828 102.447 94.5136 102.488L94.4891 102.502C94.422 102.541 94.3874 102.59 94.3874 102.643C94.3874 102.696 94.426 102.751 94.4973 102.791L95.1121 103.145C95.1874 103.188 95.2892 103.213 95.3931 103.213L95.391 103.215Z" fill="url(#paint21_linear_43_138250)"/>
<path d="M86.0487 107.209L86.0752 107.195C86.1546 107.148 86.2605 107.123 86.3745 107.123C86.4885 107.123 86.6045 107.15 86.69 107.199L87.3069 107.555C87.4005 107.608 87.4514 107.683 87.4514 107.763C87.4514 107.842 87.4026 107.911 87.315 107.962L87.2885 107.976C87.2092 108.023 87.1033 108.048 86.9893 108.048C86.8753 108.048 86.7592 108.021 86.6737 107.97L86.0589 107.616C85.9653 107.563 85.9144 107.488 85.9144 107.406C85.9144 107.325 85.9632 107.258 86.0508 107.207L86.0487 107.209Z" fill="black"/>
<path d="M85.9611 107.193C85.9549 107.258 85.9936 107.323 86.0812 107.374L86.696 107.73C86.8548 107.822 87.1113 107.824 87.266 107.734L87.2925 107.72C87.3678 107.677 87.4045 107.62 87.4065 107.561V107.793C87.4004 107.848 87.3637 107.901 87.2925 107.94L87.266 107.954C87.1113 108.044 86.8548 108.042 86.696 107.95L86.0812 107.596C85.9977 107.549 85.957 107.486 85.959 107.423V107.195H85.9611V107.193Z" fill="#1872B8"/>
<path d="M86.071 107.044C85.9162 107.134 85.9203 107.282 86.0811 107.374L86.696 107.73C86.8548 107.822 87.1113 107.824 87.266 107.734L87.2925 107.72C87.4472 107.63 87.4431 107.484 87.2843 107.39L86.6695 107.036C86.5107 106.944 86.2542 106.942 86.0995 107.032L86.073 107.046L86.071 107.044Z" fill="#1872B8"/>
<path d="M86.9871 107.777C87.0888 107.777 87.1825 107.754 87.2517 107.714L87.2761 107.699C87.3413 107.663 87.3779 107.612 87.3779 107.559C87.3779 107.504 87.3392 107.451 87.268 107.41L86.6532 107.054C86.5799 107.011 86.4761 106.987 86.3722 106.987C86.2684 106.987 86.1768 107.009 86.1055 107.05L86.0811 107.064C86.016 107.101 85.9793 107.152 85.9793 107.205C85.9793 107.258 86.018 107.313 86.0892 107.353L86.7041 107.71C86.7774 107.752 86.8812 107.777 86.985 107.777H86.9871Z" fill="url(#paint22_linear_43_138250)"/>
<path d="M85.3196 105.155L85.346 105.14C85.4254 105.094 85.5313 105.069 85.6453 105.069C85.7593 105.069 85.8753 105.098 85.9608 105.146L86.5757 105.501C86.6693 105.556 86.7202 105.629 86.7202 105.708C86.7202 105.788 86.6714 105.857 86.5838 105.908L86.5573 105.922C86.478 105.969 86.3701 105.993 86.2581 105.993C86.1461 105.993 86.028 105.967 85.9425 105.916L85.3277 105.562C85.2341 105.507 85.1832 105.434 85.1832 105.352C85.1832 105.271 85.232 105.203 85.3196 105.153V105.155Z" fill="black"/>
<path d="M85.2303 105.141C85.2262 105.204 85.2649 105.271 85.3504 105.322L85.9652 105.678C86.124 105.77 86.3805 105.772 86.5352 105.684L86.5597 105.668C86.635 105.625 86.6716 105.568 86.6716 105.509V105.741C86.6676 105.794 86.6289 105.847 86.5597 105.888L86.5352 105.902C86.3805 105.991 86.124 105.989 85.9652 105.898L85.3504 105.542C85.2669 105.493 85.2282 105.432 85.2282 105.369V105.141H85.2303Z" fill="#1872B8"/>
<path d="M85.342 104.992C85.1873 105.081 85.1914 105.23 85.3522 105.322L85.967 105.678C86.1258 105.77 86.3824 105.772 86.5371 105.684L86.5615 105.668C86.7162 105.578 86.7122 105.43 86.5534 105.338L85.9385 104.984C85.7797 104.892 85.5232 104.89 85.3685 104.98L85.342 104.994V104.992Z" fill="#1872B8"/>
<path d="M86.2582 105.723C86.36 105.723 86.4536 105.7 86.5229 105.66L86.5493 105.645C86.6145 105.607 86.6511 105.558 86.6511 105.505C86.6511 105.452 86.6124 105.397 86.5412 105.356L85.9264 105C85.8531 104.957 85.7493 104.933 85.6454 104.933C85.5416 104.933 85.4479 104.955 85.3787 104.996L85.3543 105.01C85.2892 105.047 85.2525 105.098 85.2525 105.151C85.2525 105.204 85.2912 105.258 85.3624 105.299L85.9773 105.653C86.0506 105.696 86.1544 105.721 86.2582 105.721V105.723Z" fill="url(#paint23_linear_43_138250)"/>
<path d="M84.0676 105.979L84.0941 105.965C84.1735 105.918 84.2793 105.894 84.3933 105.894C84.5114 105.894 84.6254 105.92 84.7089 105.971L85.3237 106.327C85.4174 106.382 85.4683 106.456 85.4683 106.535C85.4683 106.614 85.4194 106.684 85.3319 106.735L85.3054 106.749C85.224 106.796 85.1181 106.82 85.0041 106.82C84.8901 106.82 84.774 106.792 84.6885 106.743L84.0717 106.386C83.978 106.331 83.9271 106.258 83.9271 106.177C83.9271 106.095 83.976 106.028 84.0615 105.977L84.0676 105.979Z" fill="black"/>
<path d="M83.9802 105.963C83.9761 106.028 84.0148 106.093 84.1003 106.142L84.7151 106.498C84.8739 106.59 85.1304 106.592 85.2851 106.505L85.3116 106.49C85.3869 106.448 85.4236 106.391 85.4236 106.331V106.564C85.4175 106.619 85.3808 106.671 85.3116 106.712L85.2851 106.726C85.1304 106.816 84.8739 106.812 84.7151 106.722L84.1003 106.366C84.0168 106.319 83.9781 106.256 83.9781 106.195V105.967H83.9802V105.963Z" fill="#1872B8"/>
<path d="M84.092 105.814C83.9373 105.904 83.9414 106.05 84.1002 106.142L84.715 106.498C84.8738 106.59 85.1303 106.592 85.285 106.504L85.3115 106.49C85.4662 106.401 85.4622 106.252 85.3034 106.16L84.6865 105.804C84.5277 105.713 84.2712 105.71 84.1165 105.8L84.09 105.814H84.092Z" fill="#1872B8"/>
<path d="M85.0082 106.545C85.11 106.545 85.2036 106.523 85.2729 106.482L85.2993 106.468C85.3645 106.429 85.4011 106.38 85.4011 106.327C85.4011 106.272 85.3624 106.219 85.2912 106.179L84.6764 105.822C84.6031 105.78 84.4993 105.755 84.3934 105.755C84.2875 105.755 84.1979 105.778 84.1287 105.818L84.1043 105.833C84.0371 105.869 84.0005 105.92 84.0005 105.973C84.0005 106.026 84.0412 106.081 84.1104 106.122L84.7273 106.478C84.8006 106.521 84.9044 106.545 85.0082 106.545Z" fill="url(#paint24_linear_43_138250)"/>
<path d="M99.2346 99.4219L99.6621 99.6702V99.7272H99.5624L99.1348 99.4809V99.4219H99.2346Z" fill="black"/>
<path d="M99.7984 99.098L100.224 99.3444V99.4034H100.124L99.6966 99.1571V99.098H99.7984Z" fill="black"/>
<path d="M98.6728 99.7476L99.1003 99.9939V100.053H98.9986L98.5731 99.8066V99.7476H98.6728Z" fill="black"/>
<path d="M99.6621 99.098V99.1571L99.2346 99.4034H99.1348V99.3444L99.5624 99.098H99.6621Z" fill="black"/>
<path d="M99.6621 99.7476V99.8066L99.2346 100.053H99.1348V99.9939L99.5624 99.7476H99.6621Z" fill="black"/>
<path d="M98.4467 98.9923L98.8743 99.2386V99.2956H98.7725L98.345 99.0493V98.9923H98.4467Z" fill="black"/>
<path d="M99.0085 98.6666L99.436 98.913V98.972H99.3342L98.9067 98.7236V98.6666H99.0085Z" fill="black"/>
<path d="M97.8828 99.3159L98.3103 99.5623V99.6213H98.2105L97.783 99.375V99.3159H97.8828Z" fill="black"/>
<path d="M99.436 98.9923V99.0493L99.0085 99.2956H98.9067V99.2386L99.3342 98.9923H99.436Z" fill="black"/>
<path d="M98.3103 98.9923V99.0493L97.8828 99.2956H97.783V99.2386L98.2105 98.9923H98.3103Z" fill="black"/>
<defs>
<linearGradient id="paint0_linear_43_138250" x1="71.5025" y1="29.9837" x2="55.2892" y2="58.066" gradientUnits="userSpaceOnUse">
<stop offset="0.27" stop-color="#DEE5E9"/>
<stop offset="0.47" stop-color="#C7CDD1"/>
<stop offset="0.72" stop-color="#C4CACE"/>
<stop offset="0.86" stop-color="#BDC2C6"/>
<stop offset="0.97" stop-color="#B0B5B8"/>
<stop offset="1" stop-color="#ABB0B3"/>
</linearGradient>
<linearGradient id="paint1_linear_43_138250" x1="118.956" y1="57.2475" x2="106.539" y2="77.7015" gradientUnits="userSpaceOnUse">
<stop stop-color="#F4FBFF"/>
<stop offset="1" stop-color="#C7CDD1"/>
</linearGradient>
<linearGradient id="paint2_linear_43_138250" x1="57.555" y1="56.5148" x2="56.2114" y2="58.8438" gradientUnits="userSpaceOnUse">
<stop stop-color="#888D8F"/>
<stop offset="1" stop-color="#C7CDD1"/>
</linearGradient>
<linearGradient id="paint3_linear_43_138250" x1="57.0096" y1="54.086" x2="55.6659" y2="56.415" gradientUnits="userSpaceOnUse">
<stop stop-color="#888D8F"/>
<stop offset="1" stop-color="#C7CDD1"/>
</linearGradient>
<linearGradient id="paint4_linear_43_138250" x1="106.075" y1="103.939" x2="76.6959" y2="103.939" gradientUnits="userSpaceOnUse">
<stop stop-color="#D0D0D0"/>
<stop offset="1" stop-color="#9E9E9E"/>
</linearGradient>
<linearGradient id="paint5_linear_43_138250" x1="105.432" y1="102.561" x2="77.3392" y2="102.561" gradientUnits="userSpaceOnUse">
<stop stop-color="#E9E9E9"/>
<stop offset="1" stop-color="#B0B0B0"/>
</linearGradient>
<linearGradient id="paint6_linear_43_138250" x1="94.033" y1="101.325" x2="91.8241" y2="101.325" gradientUnits="userSpaceOnUse">
<stop stop-color="#DF9400"/>
<stop offset="1" stop-color="#ECAD00"/>
</linearGradient>
<linearGradient id="paint7_linear_43_138250" x1="91.7368" y1="102.52" x2="90.3504" y2="102.52" gradientUnits="userSpaceOnUse">
<stop stop-color="#3B4447"/>
<stop offset="1" stop-color="#62696D"/>
</linearGradient>
<linearGradient id="paint8_linear_43_138250" x1="90.3706" y1="103.282" x2="88.9455" y2="103.282" gradientUnits="userSpaceOnUse">
<stop stop-color="#3B4447"/>
<stop offset="1" stop-color="#62696D"/>
</linearGradient>
<linearGradient id="paint9_linear_43_138250" x1="106.075" y1="104.9" x2="84.0921" y2="104.9" gradientUnits="userSpaceOnUse">
<stop stop-color="#F6F6F6"/>
<stop offset="1" stop-color="#C4C4C4"/>
</linearGradient>
<linearGradient id="paint10_linear_43_138250" x1="117.492" y1="105.525" x2="84.7354" y2="105.525" gradientUnits="userSpaceOnUse">
<stop stop-color="#D0D0D0"/>
<stop offset="1" stop-color="#9E9E9E"/>
</linearGradient>
<linearGradient id="paint11_linear_43_138250" x1="98.6787" y1="100.635" x2="76.6958" y2="100.635" gradientUnits="userSpaceOnUse">
<stop stop-color="#F6F6F6"/>
<stop offset="1" stop-color="#C4C4C4"/>
</linearGradient>
<linearGradient id="paint12_linear_43_138250" x1="84.707" y1="104.188" x2="83.3064" y2="104.188" gradientUnits="userSpaceOnUse">
<stop stop-color="#0F4670"/>
<stop offset="1" stop-color="#096AB5"/>
</linearGradient>
<linearGradient id="paint13_linear_43_138250" x1="83.455" y1="105.01" x2="82.0564" y2="105.01" gradientUnits="userSpaceOnUse">
<stop stop-color="#0F4670"/>
<stop offset="1" stop-color="#096AB5"/>
</linearGradient>
<linearGradient id="paint14_linear_43_138250" x1="88.63" y1="106.56" x2="87.2314" y2="106.56" gradientUnits="userSpaceOnUse">
<stop stop-color="#0F4670"/>
<stop offset="1" stop-color="#096AB5"/>
</linearGradient>
<linearGradient id="paint15_linear_43_138250" x1="90.9998" y1="105.586" x2="89.5991" y2="105.586" gradientUnits="userSpaceOnUse">
<stop stop-color="#3B4447"/>
<stop offset="1" stop-color="#62696D"/>
</linearGradient>
<linearGradient id="paint16_linear_43_138250" x1="92.6404" y1="104.627" x2="91.2397" y2="104.627" gradientUnits="userSpaceOnUse">
<stop stop-color="#3B4447"/>
<stop offset="1" stop-color="#62696D"/>
</linearGradient>
<linearGradient id="paint17_linear_43_138250" x1="86.6796" y1="103.05" x2="85.281" y2="103.05" gradientUnits="userSpaceOnUse">
<stop stop-color="#3B4447"/>
<stop offset="1" stop-color="#62696D"/>
</linearGradient>
<linearGradient id="paint18_linear_43_138250" x1="88.2596" y1="102.134" x2="86.861" y2="102.134" gradientUnits="userSpaceOnUse">
<stop stop-color="#3B4447"/>
<stop offset="1" stop-color="#62696D"/>
</linearGradient>
<linearGradient id="paint19_linear_43_138250" x1="91.4618" y1="100.301" x2="90.0612" y2="100.301" gradientUnits="userSpaceOnUse">
<stop stop-color="#3B4447"/>
<stop offset="1" stop-color="#62696D"/>
</linearGradient>
<linearGradient id="paint20_linear_43_138250" x1="94.1777" y1="103.766" x2="92.7791" y2="103.766" gradientUnits="userSpaceOnUse">
<stop stop-color="#3B4447"/>
<stop offset="1" stop-color="#62696D"/>
</linearGradient>
<linearGradient id="paint21_linear_43_138250" x1="95.7839" y1="102.82" x2="94.3833" y2="102.82" gradientUnits="userSpaceOnUse">
<stop stop-color="#FF4342"/>
<stop offset="1" stop-color="#C01617"/>
</linearGradient>
<linearGradient id="paint22_linear_43_138250" x1="87.38" y1="107.382" x2="85.9814" y2="107.382" gradientUnits="userSpaceOnUse">
<stop stop-color="#0F4670"/>
<stop offset="1" stop-color="#096AB5"/>
</linearGradient>
<linearGradient id="paint23_linear_43_138250" x1="86.6511" y1="105.328" x2="85.2525" y2="105.328" gradientUnits="userSpaceOnUse">
<stop stop-color="#0F4670"/>
<stop offset="1" stop-color="#096AB5"/>
</linearGradient>
<linearGradient id="paint24_linear_43_138250" x1="85.4011" y1="106.15" x2="84.0005" y2="106.15" gradientUnits="userSpaceOnUse">
<stop stop-color="#0F4670"/>
<stop offset="1" stop-color="#096AB5"/>
</linearGradient>
</defs>
</svg>
