<svg width="120" height="120" viewBox="0 0 120 120" fill="none" xmlns="http://www.w3.org/2000/svg">
<path d="M93.0444 116.994L115.635 103.946V87.802L93.0444 100.85V116.994Z" fill="#DD9700"/>
<path d="M17.4726 72.9359C23.0507 66.4546 39.6318 46.2892 39.6318 46.2892V13.4338C39.6318 11.8433 37.8765 12.8204 37.8765 12.8204L32.2132 16.0923C30.8158 16.8989 30.4238 18.1315 30.0773 19.2222C25.374 33.906 11.9228 46.63 7.01496 50.8676C5.75392 51.9582 3.74874 53.651 4.2827 57.9397C5.21996 65.5571 8.15672 75.5659 14.2234 75.0547C14.2234 75.0547 15.7571 74.9411 17.4782 72.9416L17.4726 72.9359Z" fill="url(#paint0_linear_43_141872)"/>
<path d="M4.60648 58.0988C4.0782 53.8101 6.0777 52.1174 7.33875 51.0267C12.2466 46.7891 25.6978 34.0651 30.4011 19.387C30.7476 18.2963 31.1396 17.0637 32.537 16.2571L38.206 12.9852C38.206 12.9852 38.8819 12.6102 39.3989 12.7068C38.9217 12.241 37.8765 12.8204 37.8765 12.8204L32.2132 16.0923C30.8158 16.8989 30.4238 18.1316 30.0773 19.2222C25.374 33.906 11.9228 46.6301 7.01496 50.8677C5.75392 51.9583 3.74874 53.6511 4.2827 57.9397C5.07795 64.404 7.31602 72.5895 11.6786 74.6117C7.5262 72.3452 5.38469 64.404 4.60648 58.1045V58.0988Z" fill="url(#paint1_linear_43_141872)"/>
<path d="M39.3079 12.6334L39.3022 12.6277L39.3079 12.6334Z" fill="url(#paint2_linear_43_141872)"/>
<path d="M11.1388 74.3167L11.1558 74.328C11.1558 74.328 11.1445 74.3223 11.1388 74.3167Z" fill="url(#paint3_linear_43_141872)"/>
<path d="M4.27697 57.9343C3.74869 53.6456 5.74819 51.9528 7.00923 50.8622C11.9171 46.6246 25.3683 33.9005 30.0716 19.2167C30.4238 18.1261 30.8101 16.8935 32.2074 16.0868L37.8708 12.8149C37.8708 12.8149 38.7626 12.3208 39.2738 12.6105L37.4675 11.5255C36.9506 11.2699 36.0928 11.747 36.0928 11.747L30.4295 15.0189C29.0321 15.8256 28.6402 17.0582 28.2937 18.1488C23.5903 32.8326 10.1391 45.5567 5.23127 49.7943C3.97023 50.8849 1.96505 52.5777 2.49901 56.8664C3.23178 62.7967 5.16879 70.1755 8.85536 72.9135L11.0934 74.2938C7.10012 71.8512 5.03246 64.1032 4.27129 57.9286L4.27697 57.9343Z" fill="url(#paint4_linear_43_141872)"/>
<path d="M107.938 72.885L32.2188 29.4413V17.825L107.938 61.2743V72.885Z" fill="url(#paint5_linear_43_141872)"/>
<path d="M114.09 57.5594L38.3706 14.1101L32.2188 17.8251L107.938 61.2744L114.09 57.5594Z" fill="url(#paint6_linear_43_141872)"/>
<g style="mix-blend-mode:multiply" opacity="0.2">
<path d="M5.57772 53.43C5.57772 53.43 3.61231 26.0392 17.6713 5.53866L25.3171 1.125L31.361 16.7745L28.6685 39.763L5.57772 53.43Z" fill="#32B4C8"/>
</g>
<g style="mix-blend-mode:multiply" opacity="0.2">
<path d="M25.3171 1.125L17.6713 5.53866C3.61231 26.0392 5.57772 53.43 5.57772 53.43L28.6628 39.763L31.3553 16.7745L25.3171 1.125ZM28.4242 39.6096L5.8163 52.9869C5.73677 51.351 5.54364 45.1594 6.61723 37.1955C7.76467 28.6522 10.6503 16.2689 17.853 5.73748L25.1807 1.50559L31.094 16.8086L28.4242 39.604V39.6096Z" fill="#32B4C8"/>
</g>
<path d="M32.2188 23.9487L11.7013 35.7923C11.173 36.0991 10.7356 36.8205 10.7356 37.3942V50.9419L32.2131 39.5868V23.9487H32.2188Z" fill="url(#paint7_linear_43_141872)"/>
<path d="M10.8776 37.5473C10.8776 36.9736 11.3093 36.2465 11.8433 35.9454L32.2188 24.1813V23.9541L11.7013 35.7977C11.173 36.1045 10.7356 36.8259 10.7356 37.3996V50.9473L10.8719 50.8735V37.5473H10.8776Z" fill="url(#paint8_linear_43_141872)"/>
<path d="M11.7069 35.7921L32.2245 23.9484L30.4011 22.8237L9.88351 34.6673C9.35524 34.9741 8.91785 35.6955 8.91785 36.2692V49.8169L10.7413 50.9417V37.3939C10.7413 36.8202 11.173 36.0931 11.7069 35.7921Z" fill="url(#paint9_linear_43_141872)"/>
<path d="M32.2188 24.8062L12.2693 36.326C11.741 36.6327 11.3036 37.3541 11.3036 37.9278V51.4756L85.4781 93.9138V80.366C85.4781 79.7923 85.9098 79.0652 86.4438 78.7642L106.393 67.2443L32.2188 24.8062Z" fill="url(#paint10_linear_43_141872)"/>
<path d="M108.359 67.7275L87.8412 79.5711C87.3129 79.8779 86.8755 80.5993 86.8755 81.173V94.7207L108.359 83.3656V67.7275Z" fill="url(#paint11_linear_43_141872)"/>
<path d="M87.0175 81.3263C87.0175 80.7526 87.4492 80.0312 87.9832 79.7245L108.359 67.9604V67.7332L87.8412 79.5768C87.3129 79.8835 86.8755 80.6049 86.8755 81.1786V94.7264L87.0118 94.6525V81.3263H87.0175Z" fill="url(#paint12_linear_43_141872)"/>
<path d="M87.8412 79.5709L108.359 67.7273L106.535 66.6025L86.0178 78.4462C85.4895 78.7529 85.0521 79.4743 85.0521 80.048V93.5957L86.8755 94.7205V81.1727C86.8755 80.599 87.3072 79.8719 87.8412 79.5709Z" fill="url(#paint13_linear_43_141872)"/>
<path d="M34.0763 26.1357C33.5764 25.846 32.7641 25.846 32.2642 26.1357L14.7857 36.2298C14.2858 36.5195 14.2858 36.991 14.7857 37.275L84.2511 77.3842C84.751 77.6739 85.569 77.6739 86.0632 77.3842L103.542 67.2901C104.042 67.0005 104.042 66.529 103.542 66.245L34.0763 26.1357Z" fill="url(#paint14_linear_43_141872)"/>
<path d="M14.78 37.275L15.6548 37.7805L32.2585 28.192C32.7584 27.9023 33.5707 27.9023 34.0706 28.192L102.661 67.79L103.536 67.2845C104.036 66.9948 104.036 66.5233 103.536 66.2393L34.0763 26.1357C33.5764 25.846 32.7641 25.846 32.2642 26.1357L14.7857 36.2298C14.2858 36.5195 14.2858 36.991 14.7857 37.275H14.78Z" fill="url(#paint15_linear_43_141872)"/>
<path d="M80.8884 101.713C80.3942 97.7309 82.2177 96.1631 83.4219 95.1236L83.4446 95.1009C83.899 94.709 84.4671 94.2091 85.126 93.6126L9.094 49.7146C8.41235 50.3394 7.82159 50.8564 7.3558 51.2597L7.33307 51.2824C6.12883 52.3219 4.31111 53.8897 4.79962 57.8716C5.65168 64.7847 7.89543 72.1124 11.7354 74.0494L87.1993 117.516C83.74 115.13 81.6951 108.24 80.8941 101.707L80.8884 101.713Z" fill="url(#paint16_linear_43_141872)"/>
<path d="M41.8414 34.4233C42.5912 34.855 42.5912 35.5651 41.8414 35.9968L29.7933 42.9552C29.0435 43.387 27.8222 43.387 27.0724 42.9552L19.1199 38.3655C18.37 37.9338 18.37 37.2294 19.1199 36.792L31.168 29.8335C31.9178 29.4018 33.1391 29.4018 33.8889 29.8335L41.8357 34.4233H41.8414Z" fill="#C6D8E3"/>
<path d="M28.43 43.12C27.9414 43.12 27.487 43.0121 27.1462 42.819L19.1936 38.2292C18.8812 38.0475 18.7108 37.8202 18.7108 37.5817C18.7108 37.3431 18.8812 37.1102 19.1936 36.9341L31.2418 29.9756C31.5826 29.7825 32.037 29.6746 32.5255 29.6746C33.014 29.6746 33.4685 29.7825 33.8093 29.9756L41.7618 34.5654C42.0743 34.7471 42.2447 34.9744 42.2447 35.2129C42.2447 35.4515 42.0743 35.6844 41.7618 35.8605L29.7137 42.819C29.3729 43.0121 28.9185 43.12 28.43 43.12Z" fill="#FF8FE6"/>
<path d="M19.1993 38.2235L21.0682 39.3028L31.2474 33.4293C31.5883 33.2362 32.0427 33.1282 32.5312 33.1282C33.0197 33.1282 33.4741 33.2362 33.815 33.4293L39.893 36.9398L41.7618 35.8605C42.0743 35.6787 42.2447 35.4515 42.2447 35.2129C42.2447 34.9744 42.0743 34.7415 41.7618 34.5654L33.8093 29.9756C33.4685 29.7825 33.014 29.6746 32.5255 29.6746C32.037 29.6746 31.5826 29.7825 31.2418 29.9756L19.1936 36.9341C18.8812 37.1159 18.7108 37.3431 18.7108 37.5817C18.7108 37.8202 18.8812 38.0531 19.1936 38.2292L19.1993 38.2235Z" fill="url(#paint17_linear_43_141872)"/>
<path d="M64.8697 47.7494C65.6195 48.1811 65.6195 48.8855 64.8697 49.3229L52.8216 56.2814C52.0718 56.7131 50.8505 56.7131 50.1007 56.2814L42.1482 51.6916C41.3984 51.2599 41.3984 50.5555 42.1482 50.1238L54.1963 43.1653C54.9461 42.7336 56.1674 42.7336 56.9172 43.1653L64.8697 47.7551V47.7494Z" fill="#C6D8E3"/>
<path d="M51.4583 56.4462C50.9698 56.4462 50.5153 56.3383 50.1745 56.1452L42.222 51.5554C41.9095 51.3736 41.7391 51.1464 41.7391 50.9078C41.7391 50.6693 41.9095 50.4364 42.222 50.2603L54.2701 43.3018C54.6109 43.1087 55.0653 43.0007 55.5538 43.0007C56.0424 43.0007 56.4968 43.1087 56.8376 43.3018L64.7845 47.8915C65.0969 48.0733 65.2673 48.3005 65.2673 48.5391C65.2673 48.7777 65.0969 49.0106 64.7845 49.1867L52.7364 56.1452C52.3955 56.344 51.9411 56.4462 51.4526 56.4462H51.4583Z" fill="#FFF48F"/>
<path d="M42.2276 51.5551L44.0964 52.6344L54.2757 46.7608C54.6165 46.5677 55.0709 46.4598 55.5595 46.4598C56.048 46.4598 56.5024 46.5677 56.8432 46.7608L62.9212 50.2713L64.7901 49.192C65.1025 49.0103 65.2729 48.7831 65.2729 48.5445C65.2729 48.3059 65.1025 48.073 64.7901 47.8969L56.8432 43.3072C56.5024 43.114 56.048 43.0061 55.5595 43.0061C55.0709 43.0061 54.6165 43.114 54.2757 43.3072L42.2276 50.2656C41.9152 50.4474 41.7448 50.6746 41.7448 50.9132C41.7448 51.1518 41.9152 51.3847 42.2276 51.5608V51.5551Z" fill="url(#paint18_linear_43_141872)"/>
<path d="M76.3838 54.4184C77.1336 54.8501 77.1336 55.5545 76.3838 55.9919L64.3357 62.9504C63.5859 63.3821 62.3646 63.3821 61.6148 62.9504L53.6622 58.3606C52.9124 57.9289 52.9124 57.2189 53.6622 56.7871L65.7103 49.8287C66.4601 49.397 67.6814 49.397 68.4312 49.8287L76.3781 54.4184H76.3838Z" fill="#C6D8E3"/>
<path d="M62.9724 63.1091C62.4839 63.1091 62.0295 63.0011 61.6887 62.808L53.7361 58.2182C53.4237 58.0365 53.2533 57.8093 53.2533 57.5707C53.2533 57.3321 53.4237 57.0992 53.7361 56.9231L65.7842 49.9646C66.1251 49.7715 66.5795 49.6636 67.068 49.6636C67.5565 49.6636 68.0109 49.7715 68.3518 49.9646L76.3043 54.5544C76.6167 54.7362 76.7871 54.9634 76.7871 55.202C76.7871 55.4405 76.6167 55.6734 76.3043 55.8495L64.2562 62.808C63.9154 63.0011 63.461 63.1091 62.9724 63.1091Z" fill="#FCFFDE"/>
<path d="M53.7417 58.2187L55.6163 59.2979L65.7955 53.4244C66.1364 53.2313 66.5908 53.1234 67.0793 53.1234C67.5678 53.1234 68.0222 53.2313 68.3631 53.4244L74.4411 56.9349L76.3099 55.8556C76.6224 55.6738 76.7928 55.4466 76.7928 55.2081C76.7928 54.9695 76.6224 54.7366 76.3099 54.5605L68.3574 49.9707C68.0166 49.7776 67.5621 49.6697 67.0736 49.6697C66.5851 49.6697 66.1307 49.7776 65.7898 49.9707L53.7417 56.9292C53.4293 57.111 53.2589 57.3382 53.2589 57.5768C53.2589 57.8154 53.4293 58.0483 53.7417 58.2243V58.2187Z" fill="url(#paint19_linear_43_141872)"/>
<path d="M87.8979 61.0813C88.6477 61.513 88.6477 62.2174 87.8979 62.6491L75.8498 69.6076C75.1 70.0393 73.8787 70.0393 73.1289 69.6076L65.1764 65.0178C64.4266 64.5861 64.4266 63.8761 65.1764 63.4444L77.2245 56.4859C77.9743 56.0542 79.1956 56.0542 79.9454 56.4859L87.8979 61.0756V61.0813Z" fill="#C6D8E3"/>
<path d="M74.4866 69.7724C73.9981 69.7724 73.5437 69.6645 73.2028 69.4713L65.2503 64.8816C64.9379 64.6998 64.7675 64.4726 64.7675 64.234C64.7675 63.9954 64.9379 63.7625 65.2503 63.5864L77.2984 56.628C77.6392 56.4348 78.0936 56.3269 78.5822 56.3269C79.0707 56.3269 79.5251 56.4348 79.8659 56.628L87.8185 61.2177C88.1309 61.3995 88.3013 61.6267 88.3013 61.8653C88.3013 62.1039 88.1309 62.3368 87.8185 62.5128L75.7704 69.4713C75.4295 69.6645 74.9751 69.7724 74.4866 69.7724Z" fill="#5E2427"/>
<path d="M65.256 64.8816L67.1248 65.9608L77.3041 60.0816C77.6449 59.8885 78.0993 59.7806 78.5878 59.7806C79.0764 59.7806 79.5308 59.8885 79.8716 60.0816L85.9496 63.5921L87.8185 62.5128C88.1309 62.3311 88.3013 62.1039 88.3013 61.8653C88.3013 61.6267 88.1309 61.3938 87.8185 61.2177L79.8659 56.628C79.5251 56.4348 79.0707 56.3269 78.5822 56.3269C78.0936 56.3269 77.6392 56.4348 77.2984 56.628L65.2503 63.5864C64.9379 63.7682 64.7675 63.9954 64.7675 64.234C64.7675 64.4726 64.9379 64.7055 65.2503 64.8816H65.256Z" fill="url(#paint20_linear_43_141872)"/>
<path d="M99.3382 67.7443C100.088 68.176 100.088 68.8804 99.3382 69.3177L87.2901 76.2762C86.5403 76.7079 85.319 76.7079 84.5692 76.2762L76.6167 71.6865C75.8669 71.2548 75.8669 70.5504 76.6167 70.1187L88.6648 63.1602C89.4146 62.7285 90.6359 62.7285 91.3857 63.1602L99.3326 67.75L99.3382 67.7443Z" fill="#C6D8E3"/>
<path d="M85.9269 76.4413C85.4384 76.4413 84.984 76.3334 84.6431 76.1403L76.6906 71.5505C76.3782 71.3687 76.2078 71.1415 76.2078 70.9029C76.2078 70.6644 76.3782 70.4315 76.6906 70.2554L88.7387 63.2969C89.0795 63.1038 89.534 62.9958 90.0225 62.9958C90.511 62.9958 90.9654 63.1038 91.3062 63.2969L99.2588 67.8867C99.5712 68.0684 99.7416 68.2957 99.7416 68.5342C99.7416 68.7728 99.5712 69.0057 99.2588 69.1818L87.2107 76.1403C86.8699 76.3334 86.4154 76.4413 85.9269 76.4413Z" fill="#A87363"/>
<path d="M76.6963 71.5448L78.5651 72.6241L88.7444 66.7506C89.0852 66.5575 89.5396 66.4495 90.0282 66.4495C90.5167 66.4495 90.9711 66.5575 91.3119 66.7506L97.3899 70.2611L99.2588 69.1818C99.5712 69 99.7416 68.7728 99.7416 68.5342C99.7416 68.2957 99.5712 68.0628 99.2588 67.8867L91.3062 63.2969C90.9654 63.1038 90.511 62.9958 90.0225 62.9958C89.534 62.9958 89.0795 63.1038 88.7387 63.2969L76.6906 70.2554C76.3782 70.4372 76.2078 70.6644 76.2078 70.9029C76.2078 71.1415 76.3782 71.3744 76.6906 71.5505L76.6963 71.5448Z" fill="url(#paint21_linear_43_141872)"/>
<path d="M53.3556 41.0861C54.1054 41.5179 54.1054 42.2222 53.3556 42.6596L41.3075 49.6181C40.5577 50.0498 39.3364 50.0498 38.5866 49.6181L30.634 45.0283C29.8842 44.5966 29.8842 43.8866 30.634 43.4549L42.6821 36.4964C43.4319 36.0647 44.6532 36.0647 45.403 36.4964L53.3499 41.0861H53.3556Z" fill="#C6D8E3"/>
<path d="M39.9441 49.7829C39.4556 49.7829 39.0012 49.675 38.6604 49.4818L30.7078 44.8921C30.3954 44.7103 30.225 44.4831 30.225 44.2445C30.225 44.0059 30.3954 43.773 30.7078 43.5969L42.7559 36.6385C43.0967 36.4453 43.5512 36.3374 44.0397 36.3374C44.5282 36.3374 44.9826 36.4453 45.3234 36.6385L53.2703 41.2282C53.5827 41.41 53.7531 41.6372 53.7531 41.8758C53.7531 42.1144 53.5827 42.3473 53.2703 42.5233L41.2222 49.4818C40.8814 49.675 40.427 49.7829 39.9384 49.7829H39.9441Z" fill="#DCFF8F"/>
<path d="M30.7134 44.8864L32.5823 45.9657L42.7615 40.0921C43.1024 39.899 43.5568 39.7911 44.0453 39.7911C44.5338 39.7911 44.9882 39.899 45.3291 40.0921L51.4071 43.6026L53.2759 42.5233C53.5884 42.3416 53.7588 42.1144 53.7588 41.8758C53.7588 41.6372 53.5884 41.4043 53.2759 41.2282L45.3291 36.6385C44.9882 36.4453 44.5338 36.3374 44.0453 36.3374C43.5568 36.3374 43.1024 36.4453 42.7615 36.6385L30.7134 43.5969C30.401 43.7787 30.2306 44.0059 30.2306 44.2445C30.2306 44.4831 30.401 44.716 30.7134 44.8921V44.8864Z" fill="url(#paint22_linear_43_141872)"/>
<path d="M97.4523 52.7537L95.6289 50.4304L17.6713 5.53833L19.4947 7.86729L97.4523 52.7537Z" fill="url(#paint23_linear_43_141872)"/>
<path d="M103.275 49.3964L97.4524 52.7535L95.629 50.4303L103.275 46.0166V49.3964Z" fill="url(#paint24_linear_43_141872)"/>
<g style="mix-blend-mode:multiply" opacity="0.2">
<path d="M83.5411 98.3216C83.5411 98.3216 81.5757 70.9308 95.6347 50.4303L103.28 46.0166L109.324 61.6661L106.632 84.6546L83.5468 98.3216H83.5411Z" fill="#32B4C8"/>
</g>
<g style="mix-blend-mode:multiply" opacity="0.2">
<path d="M103.275 46.0166L95.629 50.4303C81.5757 70.9251 83.5355 98.3216 83.5355 98.3216L106.621 84.6546L109.313 61.6661L103.269 46.0166H103.275ZM106.382 84.4956L83.7797 97.8729C83.7002 96.2369 83.5071 90.0453 84.5807 82.0814C85.7281 73.5381 88.6137 61.1548 95.8165 50.6234L103.144 46.3915L109.057 61.6945L106.388 84.4899L106.382 84.4956Z" fill="#32B4C8"/>
</g>
<g style="mix-blend-mode:multiply" opacity="0.2">
<path d="M95.6289 50.4304L17.6713 5.53833C3.61231 26.0389 5.57772 53.4297 5.57772 53.4297L83.5354 98.3218C83.5354 98.3218 81.57 70.931 95.6289 50.4304Z" fill="#32B4C8"/>
</g>
<path style="mix-blend-mode:screen" opacity="0.3" d="M5.57772 53.4297L14.9788 58.8431C23.2494 48.2719 38.1718 36.2181 64.347 32.4179L17.6713 5.53833C3.61231 26.0389 5.57772 53.4297 5.57772 53.4297Z" fill="url(#paint25_linear_43_141872)"/>
<path d="M103.275 46.0171L95.629 50.4307V49.306L103.275 44.8923V46.0171Z" fill="url(#paint26_linear_43_141872)"/>
<path d="M95.6289 49.3054V50.4302L17.6713 5.53805V4.41333L95.6289 49.3054Z" fill="url(#paint27_linear_43_141872)"/>
<path d="M103.275 44.8921L95.6289 49.3058L17.6713 4.41366L25.3171 0L103.275 44.8921Z" fill="url(#paint28_linear_43_141872)"/>
<path d="M95.4302 117.863C101.008 111.381 117.589 91.2159 117.589 91.2159V58.3605C117.589 56.7757 115.834 57.747 115.834 57.747L110.171 61.0189C108.773 61.8255 108.381 63.0582 108.035 64.1488C103.332 78.8326 89.8804 91.5567 84.9726 95.7942C83.7115 96.8849 81.712 98.5776 82.2403 102.866C83.1776 110.484 86.1143 120.493 92.181 119.981C92.181 119.981 93.7147 119.868 95.4358 117.868L95.4302 117.863Z" fill="url(#paint29_linear_43_141872)"/>
<path d="M82.5698 103.025C82.0415 98.7364 84.041 97.0436 85.302 95.953C90.2099 91.7154 103.661 78.9913 108.364 64.3132C108.717 63.2226 109.103 61.9899 110.5 61.1833L116.164 57.9114C116.164 57.9114 116.845 57.5308 117.356 57.6331C116.879 57.1673 115.834 57.7467 115.834 57.7467L110.171 61.0186C108.773 61.8252 108.381 63.0579 108.035 64.1485C103.332 78.8323 89.8804 91.5564 84.9726 95.7939C83.7115 96.8846 81.712 98.5773 82.2403 102.866C83.0355 109.33 85.2736 117.516 89.6361 119.538C85.4838 117.271 83.3423 109.33 82.5641 103.031L82.5698 103.025Z" fill="url(#paint30_linear_43_141872)"/>
<path d="M89.1023 119.243L89.1193 119.254C89.1193 119.254 89.108 119.248 89.1023 119.243Z" fill="url(#paint31_linear_43_141872)"/>
<path d="M82.2403 102.86C81.7121 98.5716 83.7116 96.8789 84.9726 95.7882C89.8805 91.5506 103.332 78.8266 108.035 64.1428C108.387 63.0521 108.773 61.8195 110.171 61.0129L115.834 57.741C115.834 57.741 116.726 57.2468 117.237 57.5365L115.431 56.4515C114.914 56.1959 114.056 56.6731 114.056 56.6731L108.393 59.945C106.995 60.7516 106.604 61.9842 106.257 63.0749C101.554 77.7587 88.1025 90.4827 83.1947 94.7203C81.9336 95.8109 79.9284 97.5037 80.4624 101.792C81.1952 107.723 83.1322 115.102 86.8187 117.839L89.0568 119.22C85.0635 116.777 82.9958 109.029 82.229 102.855L82.2403 102.86Z" fill="url(#paint32_linear_43_141872)"/>
<path d="M86.5801 101.639L86.2733 100.691C86.1199 100.231 86.3869 99.4809 86.8641 99.0322L109.307 77.8727C109.608 77.5887 109.926 77.4921 110.154 77.5717C109.921 77.424 109.563 77.5035 109.222 77.8273L86.7789 98.9867C86.3017 99.4355 86.0347 100.18 86.1881 100.645L86.4949 101.588C86.5517 101.759 86.6539 101.867 86.7846 101.912C86.6937 101.855 86.6198 101.759 86.5801 101.628V101.639Z" fill="#869096"/>
<path d="M110.665 78.804L110.358 77.8554C110.307 77.702 110.216 77.5941 110.097 77.543C110.142 77.5941 110.182 77.6623 110.205 77.7418L110.512 78.6847C110.665 79.1448 110.398 79.889 109.921 80.3434L87.4777 101.503C87.1653 101.798 86.8301 101.895 86.6029 101.787C86.8188 102.042 87.2391 101.986 87.6311 101.616L110.074 80.457C110.551 80.0083 110.813 79.2641 110.665 78.7983V78.804Z" fill="url(#paint33_linear_43_141872)"/>
<path d="M88.0229 106.78L87.7162 105.831C87.5685 105.371 87.8298 104.621 88.307 104.178L110.75 83.0188C111.051 82.7347 111.369 82.6382 111.597 82.7177C111.364 82.57 111.006 82.6552 110.665 82.9733L88.2218 104.133C87.7446 104.582 87.4776 105.326 87.631 105.791L87.9377 106.734C87.9945 106.905 88.0968 107.013 88.2274 107.058C88.1365 107.001 88.0627 106.905 88.0229 106.774V106.78Z" fill="#869096"/>
<path d="M112.113 83.9507L111.807 83.0021C111.756 82.8487 111.665 82.7408 111.545 82.6897C111.591 82.7408 111.631 82.809 111.653 82.8885L111.96 83.8371C112.113 84.2972 111.846 85.0414 111.369 85.4901L88.9261 106.65C88.608 106.945 88.2786 107.042 88.0457 106.934C88.2615 107.189 88.6819 107.132 89.0738 106.763L111.517 85.6037C111.994 85.155 112.261 84.4109 112.108 83.9451L112.113 83.9507Z" fill="url(#paint34_linear_43_141872)"/>
<path d="M89.3635 111.989L89.0568 111.04C88.9034 110.58 89.1704 109.836 89.6475 109.382L112.091 88.2221C112.392 87.9381 112.71 87.8415 112.937 87.9211C112.704 87.7734 112.346 87.8586 112.006 88.1767L89.5623 109.336C89.0852 109.785 88.8182 110.529 88.9716 110.989L89.2783 111.938C89.3351 112.108 89.4374 112.216 89.568 112.262C89.4771 112.205 89.4033 112.108 89.3635 111.978V111.989Z" fill="#869096"/>
<path d="M113.454 89.1539L113.147 88.2052C113.096 88.0519 113.005 87.9439 112.886 87.8928C112.931 87.9439 112.971 88.0121 112.994 88.0916L113.301 89.0403C113.454 89.5004 113.187 90.2445 112.71 90.6989L90.2666 111.858C89.9542 112.154 89.6191 112.25 89.3918 112.142C89.6077 112.398 90.028 112.341 90.42 111.966L112.863 90.8069C113.34 90.3581 113.607 89.614 113.454 89.1539Z" fill="url(#paint35_linear_43_141872)"/>
<defs>
<linearGradient id="paint0_linear_43_141872" x1="-1.76692" y1="43.0173" x2="41.6426" y2="44.2216" gradientUnits="userSpaceOnUse">
<stop stop-color="#B0BCC2"/>
<stop offset="1" stop-color="#9BA5AB"/>
</linearGradient>
<linearGradient id="paint1_linear_43_141872" x1="-1.55674" y1="42.8186" x2="40.4213" y2="43.983" gradientUnits="userSpaceOnUse">
<stop stop-color="#C4CFD5"/>
<stop offset="1" stop-color="#B5BFC5"/>
</linearGradient>
<linearGradient id="paint2_linear_43_141872" x1="39.3022" y1="12.6277" x2="39.3022" y2="12.6334" gradientUnits="userSpaceOnUse">
<stop stop-color="#7E8387"/>
<stop offset="0.03" stop-color="#BBCBD5"/>
<stop offset="0.14" stop-color="#D5EFFF"/>
<stop offset="0.17" stop-color="#B9C9D2"/>
<stop offset="0.67" stop-color="#AAB5BB"/>
<stop offset="0.74" stop-color="#D7E5ED"/>
<stop offset="0.78" stop-color="#A6B1B6"/>
<stop offset="1" stop-color="#A1AAAF"/>
</linearGradient>
<linearGradient id="paint3_linear_43_141872" x1="11.1445" y1="74.3223" x2="11.1445" y2="74.3223" gradientUnits="userSpaceOnUse">
<stop stop-color="#7E8387"/>
<stop offset="0.03" stop-color="#BBCBD5"/>
<stop offset="0.14" stop-color="#D5EFFF"/>
<stop offset="0.17" stop-color="#B9C9D2"/>
<stop offset="0.67" stop-color="#AAB5BB"/>
<stop offset="0.74" stop-color="#D7E5ED"/>
<stop offset="0.78" stop-color="#A6B1B6"/>
<stop offset="1" stop-color="#A1AAAF"/>
</linearGradient>
<linearGradient id="paint4_linear_43_141872" x1="37.0471" y1="11.4289" x2="5.09494" y2="66.773" gradientUnits="userSpaceOnUse">
<stop stop-color="#888E93"/>
<stop offset="0.01" stop-color="#9CA5AB"/>
<stop offset="0.02" stop-color="#ACB7BD"/>
<stop offset="0.03" stop-color="#B7C3CB"/>
<stop offset="0.05" stop-color="#BECAD2"/>
<stop offset="0.08" stop-color="#C0CDD5"/>
<stop offset="0.09" stop-color="#C1CFD8"/>
<stop offset="0.11" stop-color="#C6D7E2"/>
<stop offset="0.12" stop-color="#D5EFFF"/>
<stop offset="0.15" stop-color="#B9C9D2"/>
<stop offset="0.5" stop-color="#B5C2C9"/>
<stop offset="0.77" stop-color="#AAB5BB"/>
<stop offset="0.81" stop-color="#D7E5ED"/>
<stop offset="0.84" stop-color="#A6B1B6"/>
<stop offset="0.91" stop-color="#A1AAAF"/>
<stop offset="0.95" stop-color="#9DA6AB"/>
<stop offset="0.97" stop-color="#939BA0"/>
<stop offset="1" stop-color="#838A8E"/>
</linearGradient>
<linearGradient id="paint5_linear_43_141872" x1="108.938" y1="45.3578" x2="28.1743" y2="45.3578" gradientUnits="userSpaceOnUse">
<stop stop-color="#98A4AA"/>
<stop offset="1" stop-color="#838D93"/>
</linearGradient>
<linearGradient id="paint6_linear_43_141872" x1="115.164" y1="37.6951" x2="27.8505" y2="37.6951" gradientUnits="userSpaceOnUse">
<stop stop-color="#CCD8DE"/>
<stop offset="1" stop-color="#B7C1C7"/>
</linearGradient>
<linearGradient id="paint7_linear_43_141872" x1="10.7356" y1="37.4453" x2="32.2188" y2="37.4453" gradientUnits="userSpaceOnUse">
<stop stop-color="#B0BCC2"/>
<stop offset="1" stop-color="#9BA5AB"/>
</linearGradient>
<linearGradient id="paint8_linear_43_141872" x1="10.7356" y1="37.445" x2="32.2188" y2="37.445" gradientUnits="userSpaceOnUse">
<stop stop-color="#C4CFD5"/>
<stop offset="1" stop-color="#B5BFC5"/>
</linearGradient>
<linearGradient id="paint9_linear_43_141872" x1="24.6809" y1="22.7726" x2="8.74744" y2="50.3736" gradientUnits="userSpaceOnUse">
<stop stop-color="#959FA6"/>
<stop offset="0.09" stop-color="#B9C6CE"/>
<stop offset="0.49" stop-color="#C0CDD5"/>
<stop offset="0.52" stop-color="#C1CFD8"/>
<stop offset="0.55" stop-color="#C6D7E2"/>
<stop offset="0.57" stop-color="#CFE5F3"/>
<stop offset="0.58" stop-color="#D5EFFF"/>
<stop offset="0.6" stop-color="#C7DCEA"/>
<stop offset="0.62" stop-color="#B9CAD4"/>
<stop offset="0.64" stop-color="#AEBBC3"/>
<stop offset="0.67" stop-color="#A6B1B7"/>
<stop offset="0.72" stop-color="#A2ABB0"/>
<stop offset="0.84" stop-color="#A1AAAF"/>
<stop offset="0.89" stop-color="#9DA6AB"/>
<stop offset="0.93" stop-color="#939CA0"/>
<stop offset="0.97" stop-color="#858E91"/>
</linearGradient>
<linearGradient id="paint10_linear_43_141872" x1="63.5575" y1="44.216" x2="46.6129" y2="73.5609" gradientUnits="userSpaceOnUse">
<stop offset="0.09" stop-color="#C5D2DB"/>
<stop offset="0.55" stop-color="#C0CDD5"/>
<stop offset="0.57" stop-color="#C1CFD8"/>
<stop offset="0.58" stop-color="#CADDE8"/>
<stop offset="0.6" stop-color="#B6C4CC"/>
<stop offset="0.84" stop-color="#A1AAAF"/>
<stop offset="0.89" stop-color="#9DA6AB"/>
<stop offset="0.93" stop-color="#939CA0"/>
<stop offset="0.97" stop-color="#858E91"/>
</linearGradient>
<linearGradient id="paint11_linear_43_141872" x1="86.8755" y1="81.2241" x2="108.353" y2="81.2241" gradientUnits="userSpaceOnUse">
<stop stop-color="#B0BCC2"/>
<stop offset="1" stop-color="#9BA5AB"/>
</linearGradient>
<linearGradient id="paint12_linear_43_141872" x1="86.8755" y1="81.2241" x2="108.353" y2="81.2241" gradientUnits="userSpaceOnUse">
<stop stop-color="#C4CFD5"/>
<stop offset="1" stop-color="#B5BFC5"/>
</linearGradient>
<linearGradient id="paint13_linear_43_141872" x1="100.821" y1="66.5571" x2="84.8874" y2="94.1524" gradientUnits="userSpaceOnUse">
<stop stop-color="#959FA6"/>
<stop offset="0.09" stop-color="#B9C6CE"/>
<stop offset="0.49" stop-color="#C0CDD5"/>
<stop offset="0.52" stop-color="#C1CFD8"/>
<stop offset="0.55" stop-color="#C6D7E2"/>
<stop offset="0.57" stop-color="#CFE5F3"/>
<stop offset="0.58" stop-color="#D5EFFF"/>
<stop offset="0.6" stop-color="#C7DCEA"/>
<stop offset="0.62" stop-color="#B9CAD4"/>
<stop offset="0.64" stop-color="#AEBBC3"/>
<stop offset="0.67" stop-color="#A6B1B7"/>
<stop offset="0.72" stop-color="#A2ABB0"/>
<stop offset="0.84" stop-color="#A1AAAF"/>
<stop offset="0.89" stop-color="#9DA6AB"/>
<stop offset="0.93" stop-color="#939CA0"/>
<stop offset="0.97" stop-color="#858E91"/>
</linearGradient>
<linearGradient id="paint14_linear_43_141872" x1="63.086" y1="44.9094" x2="54.4291" y2="60.0079" gradientUnits="userSpaceOnUse">
<stop offset="0.09" stop-color="#B9C6CE"/>
<stop offset="1" stop-color="#B6C3CC"/>
</linearGradient>
<linearGradient id="paint15_linear_43_141872" x1="32.2131" y1="46.8578" x2="34.2637" y2="46.8578" gradientUnits="userSpaceOnUse">
<stop stop-color="#858E91"/>
<stop offset="0.52" stop-color="#C8D4DB"/>
<stop offset="0.95" stop-color="#858E91"/>
</linearGradient>
<linearGradient id="paint16_linear_43_141872" x1="52.3218" y1="75.0832" x2="42.6992" y2="91.7495" gradientUnits="userSpaceOnUse">
<stop offset="0.11" stop-color="#F3AA19"/>
<stop offset="0.28" stop-color="#E7A624"/>
<stop offset="0.48" stop-color="#FFB41F"/>
<stop offset="1" stop-color="#FFB41F"/>
</linearGradient>
<linearGradient id="paint17_linear_43_141872" x1="31.0089" y1="34.4859" x2="33.8718" y2="34.4859" gradientUnits="userSpaceOnUse">
<stop stop-color="#858E91"/>
<stop offset="0.52" stop-color="#C8D4DB"/>
<stop offset="0.95" stop-color="#858E91"/>
</linearGradient>
<linearGradient id="paint18_linear_43_141872" x1="54.0371" y1="47.8117" x2="56.8943" y2="47.8117" gradientUnits="userSpaceOnUse">
<stop stop-color="#858E91"/>
<stop offset="0.52" stop-color="#C8D4DB"/>
<stop offset="0.95" stop-color="#858E91"/>
</linearGradient>
<linearGradient id="paint19_linear_43_141872" x1="65.5513" y1="54.481" x2="68.4085" y2="54.481" gradientUnits="userSpaceOnUse">
<stop stop-color="#858E91"/>
<stop offset="0.52" stop-color="#C8D4DB"/>
<stop offset="0.95" stop-color="#858E91"/>
</linearGradient>
<linearGradient id="paint20_linear_43_141872" x1="77.0655" y1="61.1439" x2="79.9227" y2="61.1439" gradientUnits="userSpaceOnUse">
<stop stop-color="#858E91"/>
<stop offset="0.52" stop-color="#C8D4DB"/>
<stop offset="0.95" stop-color="#858E91"/>
</linearGradient>
<linearGradient id="paint21_linear_43_141872" x1="88.5058" y1="67.8071" x2="91.363" y2="67.8071" gradientUnits="userSpaceOnUse">
<stop stop-color="#858E91"/>
<stop offset="0.52" stop-color="#C8D4DB"/>
<stop offset="0.95" stop-color="#858E91"/>
</linearGradient>
<linearGradient id="paint22_linear_43_141872" x1="42.523" y1="41.1487" x2="45.3859" y2="41.1487" gradientUnits="userSpaceOnUse">
<stop stop-color="#858E91"/>
<stop offset="0.52" stop-color="#C8D4DB"/>
<stop offset="0.95" stop-color="#858E91"/>
</linearGradient>
<linearGradient id="paint23_linear_43_141872" x1="17.6656" y1="29.146" x2="97.4523" y2="29.146" gradientUnits="userSpaceOnUse">
<stop stop-color="#CAD6DC"/>
<stop offset="1" stop-color="#B5BFC5"/>
</linearGradient>
<linearGradient id="paint24_linear_43_141872" x1="95.629" y1="49.3851" x2="103.275" y2="49.3851" gradientUnits="userSpaceOnUse">
<stop stop-color="#B1BDC3"/>
<stop offset="1" stop-color="#9CA6AC"/>
</linearGradient>
<linearGradient id="paint25_linear_43_141872" x1="41.5232" y1="18.2681" x2="13.9961" y2="56.1904" gradientUnits="userSpaceOnUse">
<stop stop-color="white"/>
<stop offset="0.09" stop-color="#F1F1F1"/>
<stop offset="0.26" stop-color="#CFCFCF"/>
<stop offset="0.48" stop-color="#969696"/>
<stop offset="0.76" stop-color="#494949"/>
<stop offset="1"/>
</linearGradient>
<linearGradient id="paint26_linear_43_141872" x1="452.579" y1="47.6644" x2="453.147" y2="47.6644" gradientUnits="userSpaceOnUse">
<stop stop-color="#B1BDC3"/>
<stop offset="1" stop-color="#9CA6AC"/>
</linearGradient>
<linearGradient id="paint27_linear_43_141872" x1="17.6656" y1="27.4246" x2="95.6289" y2="27.4246" gradientUnits="userSpaceOnUse">
<stop stop-color="#B1BDC3"/>
<stop offset="1" stop-color="#9CA6AC"/>
</linearGradient>
<linearGradient id="paint28_linear_43_141872" x1="24.5673" y1="4.26029" x2="116.942" y2="56.73" gradientUnits="userSpaceOnUse">
<stop stop-color="#CAD6DC"/>
<stop offset="1" stop-color="#B5BFC5"/>
</linearGradient>
<linearGradient id="paint29_linear_43_141872" x1="76.1907" y1="87.9439" x2="119.606" y2="89.1482" gradientUnits="userSpaceOnUse">
<stop stop-color="#B0BCC2"/>
<stop offset="1" stop-color="#9BA5AB"/>
</linearGradient>
<linearGradient id="paint30_linear_43_141872" x1="76.4065" y1="87.7448" x2="118.385" y2="88.9093" gradientUnits="userSpaceOnUse">
<stop stop-color="#C4CFD5"/>
<stop offset="1" stop-color="#B5BFC5"/>
</linearGradient>
<linearGradient id="paint31_linear_43_141872" x1="89.108" y1="119.248" x2="89.108" y2="119.248" gradientUnits="userSpaceOnUse">
<stop stop-color="#7E8387"/>
<stop offset="0.03" stop-color="#BBCBD5"/>
<stop offset="0.14" stop-color="#D5EFFF"/>
<stop offset="0.17" stop-color="#B9C9D2"/>
<stop offset="0.67" stop-color="#AAB5BB"/>
<stop offset="0.74" stop-color="#D7E5ED"/>
<stop offset="0.78" stop-color="#A6B1B6"/>
<stop offset="1" stop-color="#A1AAAF"/>
</linearGradient>
<linearGradient id="paint32_linear_43_141872" x1="115.005" y1="56.355" x2="83.0583" y2="111.699" gradientUnits="userSpaceOnUse">
<stop stop-color="#888E93"/>
<stop offset="0.01" stop-color="#9CA5AB"/>
<stop offset="0.02" stop-color="#ACB7BD"/>
<stop offset="0.03" stop-color="#B7C3CB"/>
<stop offset="0.05" stop-color="#BECAD2"/>
<stop offset="0.08" stop-color="#C0CDD5"/>
<stop offset="0.09" stop-color="#C1CFD8"/>
<stop offset="0.11" stop-color="#C6D7E2"/>
<stop offset="0.12" stop-color="#D5EFFF"/>
<stop offset="0.15" stop-color="#B9C9D2"/>
<stop offset="0.5" stop-color="#B5C2C9"/>
<stop offset="0.77" stop-color="#AAB5BB"/>
<stop offset="0.81" stop-color="#D7E5ED"/>
<stop offset="0.84" stop-color="#A6B1B6"/>
<stop offset="0.91" stop-color="#A1AAAF"/>
<stop offset="0.95" stop-color="#9DA6AB"/>
<stop offset="0.97" stop-color="#939BA0"/>
<stop offset="1" stop-color="#838A8E"/>
</linearGradient>
<linearGradient id="paint33_linear_43_141872" x1="86.6029" y1="89.7444" x2="110.705" y2="89.7444" gradientUnits="userSpaceOnUse">
<stop stop-color="#C4CFD5"/>
<stop offset="1" stop-color="#B5BFC5"/>
</linearGradient>
<linearGradient id="paint34_linear_43_141872" x1="88.0457" y1="94.8912" x2="112.153" y2="94.8912" gradientUnits="userSpaceOnUse">
<stop stop-color="#C4CFD5"/>
<stop offset="1" stop-color="#B5BFC5"/>
</linearGradient>
<linearGradient id="paint35_linear_43_141872" x1="89.3862" y1="100.094" x2="113.488" y2="100.094" gradientUnits="userSpaceOnUse">
<stop stop-color="#C4CFD5"/>
<stop offset="1" stop-color="#B5BFC5"/>
</linearGradient>
</defs>
</svg>
