<svg width="120" height="120" viewBox="0 0 120 120" fill="none" xmlns="http://www.w3.org/2000/svg">
<path d="M8.79694 28.2314C8.57918 28.9301 8.46087 29.7377 8.46087 30.6448C8.46087 31.2698 8.04765 31.8947 7.22205 32.3714C6.39646 32.8481 5.31453 33.0864 4.23174 33.0864C3.14981 33.0864 2.06702 32.8481 1.24143 32.3714C0.415833 31.8947 0.00261154 31.2698 0.00261154 30.6448C-0.108839 24.3367 3.46187 21.3421 5.7166 20.2618C8.83809 18.7667 12.8898 19.3822 16.193 21.2898V21.2966C15.6529 20.9846 14.9053 21.0291 14.0797 21.5058C13.2541 21.9825 12.5065 22.8003 11.9656 23.7374C11.4246 24.6744 11.0894 25.7306 11.0894 26.6848C11.0894 27.6382 11.4246 28.3086 11.9656 28.6206C11.1803 28.1671 10.4224 27.8662 9.70827 27.705C9.49308 27.6536 8.92039 27.7753 8.79608 28.2314H8.79694Z" fill="#FFB41F"/>
<path opacity="0.6" d="M6.36978 21.6224C7.3214 21.1663 8.41363 20.9348 9.61559 20.9348C10.9384 20.9348 12.3427 21.2212 13.699 21.7553C13.026 22.2431 12.4233 22.9478 11.9672 23.7374C11.4519 24.6298 11.1245 25.6303 11.0945 26.5468C10.7438 26.4182 10.394 26.3136 10.0485 26.2347C9.90707 26.2022 9.75618 26.185 9.60101 26.185C8.73769 26.185 7.67119 26.6917 7.35141 27.8028C7.08736 28.6584 6.95362 29.6143 6.95362 30.643V32.5103C6.16918 32.8926 5.20127 33.0847 4.2325 33.0847C3.26374 33.0847 2.29669 32.8918 1.51139 32.5103V30.6165C1.40251 24.4807 5.20213 22.1796 6.36894 21.6207L6.36978 21.6224Z" fill="#FFC656"/>
<path d="M7.02136 22.9821C7.76808 22.6246 8.64083 22.4429 9.6156 22.4429C10.5904 22.4429 11.5308 22.6118 12.509 22.9298C12.3119 23.1844 12.1301 23.4554 11.9672 23.7374C11.7246 24.1575 11.524 24.6007 11.3765 25.0483C11.0456 24.9359 10.7164 24.8399 10.3889 24.7662C10.136 24.7079 9.87022 24.6779 9.60102 24.6779C8.19845 24.6779 6.44696 25.5215 5.90685 27.3724C5.60079 28.3686 5.44648 29.4694 5.44648 30.6448V32.9835C5.05125 33.0513 4.64231 33.0856 4.23337 33.0856C3.82443 33.0856 3.41549 33.0513 3.02027 32.9835V30.5908C2.92768 25.3535 6.05946 23.4425 7.02222 22.9813L7.02136 22.9821Z" fill="#FFC656"/>
<path d="M10.6075 22.9744C11.4957 21.4355 12.7233 20.093 14.0787 19.3102C15.4342 18.5275 16.6618 18.4538 17.55 18.9665L18.3859 19.4586C19.2741 19.9712 19.8236 21.0712 19.8236 22.6366C19.8236 24.2021 19.2741 25.9364 18.3859 27.4744C17.4977 29.0133 16.27 30.3559 14.9146 31.1386C13.5592 31.9213 12.3324 31.9951 11.4434 31.4824L10.6075 30.9903C9.7193 30.4776 9.16976 29.3777 9.16976 27.8122C9.16976 26.2468 9.7193 24.5124 10.6075 22.9735V22.9744Z" fill="#FFB41F"/>
<path opacity="0.6" d="M11.4434 23.4666C12.3315 21.9277 13.5592 20.5852 14.9146 19.8024C16.27 19.0197 17.4977 18.946 18.3859 19.4586C19.2741 19.9713 19.8236 21.0713 19.8236 22.6367C19.8236 24.2022 19.2741 25.9365 18.3859 27.4745C17.4977 29.0134 16.27 30.356 14.9146 31.1387C13.5592 31.9214 12.3324 31.9951 11.4434 31.4825C10.5552 30.9698 10.0056 29.8699 10.0056 28.3044C10.0056 26.739 10.5552 25.0046 11.4434 23.4657V23.4666Z" fill="#C78D18"/>
<path d="M12.8006 24.2501C13.3415 23.3131 14.0891 22.4952 14.9147 22.0185C15.7403 21.5419 16.4879 21.4964 17.0289 21.8093C17.5698 22.1214 17.905 22.7918 17.905 23.7452C17.905 24.6985 17.5707 25.7547 17.0289 26.6926C16.4879 27.6297 15.7403 28.4475 14.9147 28.9242C14.0891 29.4009 13.3415 29.4463 12.8006 29.1334C12.2596 28.8213 11.9244 28.1509 11.9244 27.1976C11.9244 26.2442 12.2588 25.188 12.8006 24.2501Z" fill="#C78D18"/>
<path d="M10.0056 28.3051C10.0056 29.8705 10.5552 30.9705 11.4434 31.4831L10.6075 30.991C9.7193 30.4784 9.16976 29.3784 9.16976 27.813L10.0056 28.3051Z" fill="#C78D18"/>
<path d="M17.5501 18.9665L18.386 19.4586C17.4978 18.9459 16.2701 19.0196 14.9147 19.8023L14.0788 19.3102C15.4343 18.5275 16.6619 18.4538 17.5501 18.9665Z" fill="#FFC656"/>
<path opacity="0.5" d="M14.0788 19.3103L14.9147 19.8024C13.5593 20.5851 12.3324 21.9277 11.4434 23.4666L10.6075 22.9745C11.4957 21.4356 12.7234 20.093 14.0788 19.3103Z" fill="#FFC656"/>
<path d="M11.6055 23.5376C12.4851 22.015 13.6999 20.6853 15.0416 19.9103C16.3833 19.1352 17.5981 19.0624 18.4777 19.5699L18.8961 19.7962C19.7757 20.3038 20.3192 21.3926 20.3192 22.9417C20.3192 24.4909 19.7757 26.2081 18.8961 27.7307C18.0165 29.2541 16.8016 30.583 15.46 31.358C14.1183 32.133 12.9034 32.2059 12.0238 31.6983L11.6055 31.472C10.7259 30.9645 10.1823 29.8757 10.1823 28.3265C10.1823 26.7773 10.7259 25.0601 11.6055 23.5376Z" fill="#414E5F"/>
<path d="M11.8592 23.6653C12.7474 22.1264 13.975 20.7839 15.3305 20.0012C16.6859 19.2184 17.9135 19.1447 18.8017 19.6574L19.6376 20.1495C20.5258 20.6621 21.0753 21.7621 21.0753 23.3275C21.0753 24.893 20.5258 26.6273 19.6376 28.1654C18.7494 29.7042 17.5217 31.0468 16.1663 31.8295C14.8109 32.6123 13.5841 32.686 12.6951 32.1733L11.8592 31.6812C10.971 31.1685 10.4215 30.0686 10.4215 28.5031C10.4215 26.9377 10.971 25.2033 11.8592 23.6645V23.6653Z" fill="#FFB41F"/>
<path opacity="0.6" d="M12.6951 24.1575C13.5832 22.6186 14.8109 21.2761 16.1663 20.4933C17.5217 19.7106 18.7494 19.6369 19.6376 20.1496C20.5258 20.6622 21.0753 21.7622 21.0753 23.3276C21.0753 24.8931 20.5258 26.6274 19.6376 28.1655C18.7494 29.7043 17.5217 31.0469 16.1663 31.8296C14.8109 32.6123 13.5841 32.6861 12.6951 32.1734C11.8069 31.6607 11.2573 30.5608 11.2573 28.9953C11.2573 27.4299 11.8069 25.6955 12.6951 24.1566V24.1575Z" fill="#C78D18"/>
<path d="M11.2574 28.9962C11.2574 30.5617 11.8069 31.6616 12.6951 32.1743L11.8592 31.6822C10.971 31.1695 10.4215 30.0696 10.4215 28.5042L11.2574 28.9962Z" fill="#C78D18"/>
<path d="M18.8017 19.6574L19.6376 20.1495C18.7494 19.6368 17.5217 19.7105 16.1663 20.4933L15.3304 20.0012C16.6858 19.2184 17.9135 19.1447 18.8017 19.6574Z" fill="#FFC656"/>
<path opacity="0.5" d="M15.3304 20.0012L16.1663 20.4933C14.8108 21.2761 13.584 22.6186 12.695 24.1575L11.8591 23.6654C12.7473 22.1265 13.975 20.7839 15.3304 20.0012Z" fill="#FFC656"/>
<g style="mix-blend-mode:multiply" opacity="0.2">
<path d="M15.6854 22.6204V21.9251L16.2067 21.2761L16.7279 21.3233V22.0177L16.2067 22.6667L15.6854 22.6204Z" fill="black"/>
</g>
<path d="M16.2066 20.8113L16.7279 20.8584L17.1505 21.0873V21.7818L16.6293 22.4307L16.108 22.3845L15.6854 22.1555V21.4603L16.2066 20.8113Z" fill="#FFB41F"/>
<path d="M16.108 22.3846V21.6893L16.6293 21.0403L17.1505 21.0874V21.7819L16.6293 22.4308L16.108 22.3846Z" fill="#C78D18"/>
<path opacity="0.5" d="M16.2066 20.8113L16.7279 20.8584L17.1505 21.0873L16.6293 21.0402L16.108 21.6892L15.6854 21.4603L16.2066 20.8113Z" fill="#FFC656"/>
<path d="M16.2066 20.8113L16.6293 21.0402L16.108 21.6892L15.6854 21.4603L16.2066 20.8113Z" fill="#FFC656"/>
<g style="mix-blend-mode:multiply" opacity="0.2">
<path d="M19.6102 24.9984V24.3032L20.1315 23.655L20.6527 23.7013V24.3966L20.1315 25.0447L19.6102 24.9984Z" fill="black"/>
</g>
<path d="M20.1314 23.1904L20.6527 23.2367L21.0753 23.4656V24.1609L20.5532 24.809L20.032 24.7627L19.6102 24.5338V23.8386L20.1314 23.1904Z" fill="#FFB41F"/>
<path d="M20.032 24.7628V24.0676L20.5532 23.4194L21.0753 23.4657V24.161L20.5532 24.8091L20.032 24.7628Z" fill="#C78D18"/>
<path opacity="0.5" d="M20.1314 23.1904L20.6527 23.2367L21.0753 23.4656L20.5532 23.4193L20.032 24.0675L19.6102 23.8386L20.1314 23.1904Z" fill="#FFC656"/>
<path d="M20.1314 23.1904L20.5532 23.4193L20.032 24.0675L19.6102 23.8386L20.1314 23.1904Z" fill="#FFC656"/>
<g style="mix-blend-mode:multiply" opacity="0.2">
<path d="M15.5173 31.7395V31.0442L16.0386 30.3953L16.5598 30.4424V31.1368L16.0386 31.7858L15.5173 31.7395Z" fill="black"/>
</g>
<path d="M16.0386 29.9314L16.5599 29.9777L16.9825 30.2066V30.9019L16.4613 31.55L15.9392 31.5037L15.5174 31.2748V30.5795L16.0386 29.9314Z" fill="#FFB41F"/>
<path d="M15.9392 31.5039V30.8087L16.4604 30.1597L16.9825 30.2068V30.9021L16.4604 31.5502L15.9392 31.5039Z" fill="#C78D18"/>
<path opacity="0.5" d="M16.0386 29.9314L16.5599 29.9777L16.9825 30.2066L16.4604 30.1594L15.9392 30.8084L15.5174 30.5795L16.0386 29.9314Z" fill="#FFC656"/>
<path d="M16.0386 29.9314L16.4604 30.1594L15.9392 30.8084L15.5174 30.5795L16.0386 29.9314Z" fill="#FFC656"/>
<g style="mix-blend-mode:multiply" opacity="0.2">
<path d="M11.7109 29.5474V28.8521L12.2322 28.2031L12.7534 28.2503V28.9456L12.2322 29.5937L11.7109 29.5474Z" fill="black"/>
</g>
<path d="M12.2321 27.7393L12.7534 27.7855L13.176 28.0145V28.7097L12.6548 29.3579L12.1335 29.3116L11.7109 29.0827V28.3874L12.2321 27.7393Z" fill="#FFB41F"/>
<path d="M12.1335 29.3116V28.6163L12.6548 27.9673L13.176 28.0144V28.7097L12.6548 29.3579L12.1335 29.3116Z" fill="#C78D18"/>
<path opacity="0.5" d="M12.2321 27.7393L12.7534 27.7855L13.176 28.0145L12.6548 27.9673L12.1335 28.6163L11.7109 28.3874L12.2321 27.7393Z" fill="#FFC656"/>
<path d="M12.2321 27.7393L12.6548 27.9673L12.1335 28.6163L11.7109 28.3874L12.2321 27.7393Z" fill="#FFC656"/>
<path d="M14.0591 24.9445C14.6001 24.0074 15.3476 23.1895 16.1732 22.7129C16.9988 22.2362 17.7464 22.1908 18.2874 22.5037L36.7239 33.1481C37.2649 33.4602 37.6001 34.1306 37.6001 35.0839C37.6001 36.0372 37.2657 37.0935 36.7239 38.0314C36.183 38.9684 35.4354 39.7863 34.6098 40.263C33.7842 40.7396 33.0366 40.7851 32.4957 40.4721L14.0591 29.8277C13.5181 29.5157 13.1829 28.8452 13.1829 27.8919C13.1829 26.9386 13.5173 25.8824 14.0591 24.9445Z" fill="#FFB41F"/>
<path opacity="0.5" d="M14.059 24.9444C14.5408 24.1094 15.1872 23.3695 15.9065 22.8809C21.7791 26.2638 31.7274 32.0018 37.5889 35.3831C37.528 36.2541 37.2091 37.1894 36.7247 38.0296C36.2386 38.8706 35.587 39.6156 34.8609 40.1035L13.1948 27.5944C13.2549 26.7216 13.5738 25.7846 14.059 24.9436V24.9444Z" fill="#FFC656"/>
<path d="M14.0591 24.9446C14.2631 24.5905 14.4971 24.2536 14.7535 23.9458L37.2417 36.929C37.1028 37.3053 36.9279 37.6765 36.7239 38.0306C36.5198 38.3847 36.2858 38.7216 36.0295 39.0294L13.5412 26.0462C13.6801 25.6699 13.855 25.2986 14.0591 24.9454V24.9446Z" fill="#FFC656"/>
<path d="M31.1393 34.8216C32.0275 33.2827 33.2552 31.9401 34.6106 31.1574C35.966 30.3747 37.1937 30.301 38.0819 30.8136L38.9178 31.3057C39.8059 31.8184 40.3555 32.9183 40.3555 34.4838C40.3555 36.0492 39.8059 37.7836 38.9178 39.3216C38.0296 40.8605 36.8019 42.203 35.4465 42.9858C34.0911 43.7685 32.8643 43.8422 31.9752 43.3296L31.1393 42.8375C30.2512 42.3248 29.7016 41.2248 29.7016 39.6594C29.7016 38.0939 30.2512 36.3596 31.1393 34.8207V34.8216Z" fill="#FFB41F"/>
<path opacity="0.6" d="M31.9752 35.3138C32.8634 33.7749 34.0911 32.4323 35.4465 31.6496C36.8019 30.8669 38.0296 30.7931 38.9178 31.3058C39.8059 31.8185 40.3555 32.9184 40.3555 34.4839C40.3555 36.0493 39.8059 37.7837 38.9178 39.3217C38.0296 40.8606 36.8019 42.2031 35.4465 42.9859C34.0911 43.7686 32.8643 43.8423 31.9752 43.3296C31.087 42.817 30.5375 41.717 30.5375 40.1516C30.5375 38.5861 31.087 36.8518 31.9752 35.3129V35.3138Z" fill="#C78D18"/>
<path d="M33.3315 36.0973C33.8724 35.1602 34.62 34.3424 35.4456 33.8657C36.2712 33.389 37.0188 33.3436 37.5597 33.6565C38.1007 33.9686 38.4359 34.639 38.4359 35.5923C38.4359 36.5457 38.1016 37.6019 37.5597 38.5398C37.0188 39.4768 36.2712 40.2947 35.4456 40.7714C34.62 41.248 33.8724 41.2935 33.3315 40.9806C32.7905 40.6685 32.4553 39.9981 32.4553 39.0447C32.4553 38.0914 32.7896 37.0352 33.3315 36.0973Z" fill="#C78D18"/>
<path d="M30.5375 40.1525C30.5375 41.718 31.087 42.8179 31.9752 43.3306L31.1393 42.8385C30.2512 42.3258 29.7016 41.2259 29.7016 39.6604L30.5375 40.1525Z" fill="#C78D18"/>
<path d="M38.081 30.8136L38.9169 31.3057C38.0287 30.793 36.801 30.8668 35.4456 31.6495L34.6097 31.1574C35.9651 30.3747 37.1928 30.301 38.081 30.8136Z" fill="#FFC656"/>
<path opacity="0.5" d="M34.6107 31.1575L35.4465 31.6496C34.0911 32.4323 32.8643 33.7749 31.9753 35.3137L31.1394 34.8216C32.0276 33.2828 33.2552 31.9402 34.6107 31.1575Z" fill="#FFC656"/>
<path d="M32.0653 35.4011C32.9449 33.8785 34.1597 32.5488 35.5014 31.7738C36.8431 30.9988 38.0579 30.9259 38.9375 31.4334L39.3559 31.6598C40.2355 32.1673 40.7791 33.2561 40.7791 34.8052C40.7791 36.3544 40.2355 38.0716 39.3559 39.5942C38.4763 41.1177 37.2615 42.4465 35.9198 43.2215C34.5781 43.9965 33.3633 44.0694 32.4837 43.5619L32.0653 43.3355C31.1857 42.828 30.6422 41.7392 30.6422 40.19C30.6422 38.6409 31.1857 36.9237 32.0653 35.4011Z" fill="#414E5F"/>
<path d="M32.319 35.5281C33.2072 33.9892 34.4349 32.6467 35.7903 31.864C37.1457 31.0812 38.3734 31.0075 39.2616 31.5202L40.0974 32.0123C40.9856 32.5249 41.5352 33.6249 41.5352 35.1903C41.5352 36.7558 40.9856 38.4901 40.0974 40.0282C39.2093 41.567 37.9816 42.9096 36.6262 43.6923C35.2708 44.475 34.0439 44.5488 33.1549 44.0361L32.319 43.544C31.4308 43.0313 30.8813 41.9314 30.8813 40.3659C30.8813 38.8005 31.4308 37.0661 32.319 35.5273V35.5281Z" fill="#FFB41F"/>
<path opacity="0.6" d="M33.1549 36.021C34.0431 34.4822 35.2708 33.1396 36.6262 32.3569C37.9816 31.5741 39.2093 31.5004 40.0974 32.0131C40.9856 32.5258 41.5352 33.6257 41.5352 35.1911C41.5352 36.7566 40.9856 38.491 40.0974 40.029C39.2093 41.5679 37.9816 42.9104 36.6262 43.6931C35.2708 44.4759 34.0439 44.5496 33.1549 44.0369C32.2667 43.5242 31.7172 42.4243 31.7172 40.8589C31.7172 39.2934 32.2667 37.5591 33.1549 36.0202V36.021Z" fill="#C78D18"/>
<path d="M31.7172 40.8588C31.7172 42.4243 32.2667 43.5242 33.1549 44.0369L32.319 43.5448C31.4308 43.0321 30.8813 41.9322 30.8813 40.3667L31.7172 40.8588Z" fill="#C78D18"/>
<path d="M39.2615 31.5202L40.0974 32.0123C39.2092 31.4996 37.9816 31.5733 36.6261 32.356L35.7903 31.864C37.1457 31.0812 38.3734 31.0075 39.2615 31.5202Z" fill="#FFC656"/>
<path opacity="0.5" d="M35.7903 31.8647L36.6262 32.3568C35.2708 33.1396 34.044 34.4821 33.155 36.021L32.3191 35.5289C33.2073 33.99 34.4349 32.6475 35.7903 31.8647Z" fill="#FFC656"/>
<g style="mix-blend-mode:multiply" opacity="0.2">
<path d="M36.1452 34.4839V33.7886L36.6665 33.1396L37.1877 33.1859V33.8812L36.6665 34.5302L36.1452 34.4839Z" fill="black"/>
</g>
<path d="M36.6664 32.6748L37.1877 32.722L37.6104 32.95V33.6453L37.0891 34.2943L36.5679 34.248L36.1452 34.0191V33.3238L36.6664 32.6748Z" fill="#FFB41F"/>
<path d="M36.5679 34.2481V33.5528L37.0891 32.9038L37.6104 32.9501V33.6454L37.0891 34.2944L36.5679 34.2481Z" fill="#C78D18"/>
<path opacity="0.5" d="M36.6664 32.6748L37.1877 32.722L37.6104 32.95L37.0891 32.9037L36.5679 33.5527L36.1452 33.3238L36.6664 32.6748Z" fill="#FFC656"/>
<path d="M36.6665 32.6748L37.0891 32.9037L36.5679 33.5527L36.1452 33.3238L36.6665 32.6748Z" fill="#FFC656"/>
<g style="mix-blend-mode:multiply" opacity="0.2">
<path d="M40.0701 36.862V36.1667L40.5913 35.5186L41.1125 35.5648V36.2601L40.5913 36.9083L40.0701 36.862Z" fill="black"/>
</g>
<path d="M40.5913 35.054L41.1125 35.1003L41.5352 35.3291V36.0244L41.0139 36.6726L40.4918 36.6263L40.07 36.3974V35.7021L40.5913 35.054Z" fill="#FFB41F"/>
<path d="M40.4918 36.6264V35.9311L41.0139 35.283L41.5352 35.3292V36.0245L41.0139 36.6727L40.4918 36.6264Z" fill="#C78D18"/>
<path opacity="0.5" d="M40.5913 35.054L41.1125 35.1003L41.5352 35.3291L41.0139 35.2829L40.4918 35.931L40.07 35.7021L40.5913 35.054Z" fill="#FFC656"/>
<path d="M40.5913 35.054L41.0139 35.2829L40.4918 35.931L40.07 35.7021L40.5913 35.054Z" fill="#FFC656"/>
<g style="mix-blend-mode:multiply" opacity="0.2">
<path d="M35.9772 43.6031V42.9078L36.4984 42.2588L37.0197 42.3059V43.0004L36.4984 43.6494L35.9772 43.6031Z" fill="black"/>
</g>
<path d="M36.4985 41.7942L37.0197 41.8413L37.4424 42.0702V42.7647L36.9211 43.4137L36.399 43.3674L35.9772 43.1385V42.4432L36.4985 41.7942Z" fill="#FFB41F"/>
<path d="M36.399 43.3675V42.6722L36.9211 42.0232L37.4424 42.0703V42.7648L36.9211 43.4138L36.399 43.3675Z" fill="#C78D18"/>
<path opacity="0.5" d="M36.4985 41.7942L37.0197 41.8413L37.4424 42.0702L36.9211 42.0231L36.399 42.6721L35.9772 42.4432L36.4985 41.7942Z" fill="#FFC656"/>
<path d="M36.4984 41.7942L36.921 42.0231L36.3989 42.6721L35.9771 42.4432L36.4984 41.7942Z" fill="#FFC656"/>
<g style="mix-blend-mode:multiply" opacity="0.2">
<path d="M32.1706 41.4109V40.7156L32.6919 40.0667L33.2131 40.1138V40.8091L32.6919 41.4572L32.1706 41.4109Z" fill="black"/>
</g>
<path d="M32.692 39.6028L33.2132 39.6491L33.6359 39.878V40.5733L33.1146 41.2214L32.5934 41.1751L32.1707 40.9462V40.2509L32.692 39.6028Z" fill="#FFB41F"/>
<path d="M32.5934 41.1751V40.4798L33.1146 39.8308L33.6359 39.878V40.5732L33.1146 41.2214L32.5934 41.1751Z" fill="#C78D18"/>
<path opacity="0.5" d="M32.692 39.6028L33.2132 39.6491L33.6359 39.878L33.1146 39.8308L32.5934 40.4798L32.1707 40.2509L32.692 39.6028Z" fill="#FFC656"/>
<path d="M32.692 39.6028L33.1146 39.8308L32.5934 40.4798L32.1707 40.2509L32.692 39.6028Z" fill="#FFC656"/>
<path d="M34.5188 36.808C35.0598 35.8709 35.8074 35.0531 36.6329 34.5764C37.4585 34.0997 38.2061 34.0543 38.7471 34.3672L57.1836 45.0116C57.7246 45.3237 58.0598 45.9941 58.0598 46.9474C58.0598 47.9008 57.7255 48.957 57.1836 49.8949C56.6427 50.8319 55.8951 51.6498 55.0695 52.1265C54.2439 52.6031 53.4963 52.6486 52.9554 52.3357L34.5188 41.6912C33.9779 41.3792 33.6426 40.7088 33.6426 39.7554C33.6426 38.8021 33.977 37.7459 34.5188 36.808Z" fill="#FFB41F"/>
<path opacity="0.5" d="M34.5189 36.8079C35.0007 35.9729 35.6471 35.2331 36.3664 34.7444C42.239 38.1273 52.1872 43.8653 58.0487 47.2466C57.9878 48.1176 57.6689 49.053 57.1845 49.8931C56.6984 50.7342 56.0469 51.4792 55.3207 51.967L33.6547 39.4579C33.7147 38.5852 34.0336 37.6481 34.5189 36.8071V36.8079Z" fill="#FFC656"/>
<path d="M34.5189 36.8081C34.7229 36.454 34.957 36.1171 35.2133 35.8093L57.7015 48.7925C57.5627 49.1689 57.3878 49.5401 57.1837 49.8941C56.9797 50.2482 56.7456 50.5851 56.4893 50.8929L34.0011 37.9097C34.14 37.5334 34.3149 37.1622 34.5189 36.8089V36.8081Z" fill="#FFC656"/>
<path d="M51.5992 46.6844C52.4874 45.1455 53.715 43.8029 55.0704 43.0202C56.4259 42.2375 57.6535 42.1637 58.5417 42.6764L59.3776 43.1685C60.2658 43.6812 60.8153 44.7811 60.8153 46.3466C60.8153 47.912 60.2658 49.6464 59.3776 51.1844C58.4894 52.7233 57.2617 54.0658 55.9063 54.8486C54.5509 55.6313 53.3241 55.705 52.4351 55.1924L51.5992 54.7003C50.711 54.1876 50.1615 53.0876 50.1615 51.5222C50.1615 49.9567 50.711 48.2224 51.5992 46.6835V46.6844Z" fill="#FFB41F"/>
<path opacity="0.6" d="M52.4351 47.1773C53.3232 45.6384 54.5509 44.2958 55.9063 43.5131C57.2617 42.7304 58.4894 42.6567 59.3776 43.1693C60.2658 43.682 60.8153 44.7819 60.8153 46.3474C60.8153 47.9129 60.2658 49.6472 59.3776 51.1852C58.4894 52.7241 57.2617 54.0667 55.9063 54.8494C54.5509 55.6321 53.3241 55.7058 52.4351 55.1932C51.5469 54.6805 50.9973 53.5806 50.9973 52.0151C50.9973 50.4496 51.5469 48.7153 52.4351 47.1764V47.1773Z" fill="#C78D18"/>
<path d="M53.7922 47.9608C54.3331 47.0238 55.0807 46.2059 55.9063 45.7292C56.7319 45.2526 57.4795 45.2071 58.0204 45.52C58.5614 45.8321 58.8966 46.5025 58.8966 47.4559C58.8966 48.4092 58.5623 49.4654 58.0204 50.4033C57.4795 51.3404 56.7319 52.1582 55.9063 52.6349C55.0807 53.1116 54.3331 53.157 53.7922 52.8441C53.2512 52.532 52.916 51.8616 52.916 50.9083C52.916 49.9549 53.2503 48.8987 53.7922 47.9608Z" fill="#C78D18"/>
<path d="M50.9973 52.015C50.9973 53.5805 51.5469 54.6804 52.4351 55.1931L51.5992 54.701C50.711 54.1883 50.1615 53.0884 50.1615 51.5229L50.9973 52.015Z" fill="#C78D18"/>
<path d="M58.5417 42.6764L59.3776 43.1685C58.4894 42.6558 57.2617 42.7296 55.9063 43.5123L55.0704 43.0202C56.4258 42.2375 57.6535 42.1637 58.5417 42.6764Z" fill="#FFC656"/>
<path opacity="0.5" d="M55.0705 43.021L55.9064 43.5131C54.551 44.2958 53.3241 45.6384 52.4351 47.1773L51.5992 46.6852C52.4874 45.1463 53.7151 43.8037 55.0705 43.021Z" fill="#FFC656"/>
<path d="M52.5757 47.2219C53.4553 45.6993 54.6701 44.3696 56.0118 43.5946C57.3535 42.8196 58.5683 42.7467 59.4479 43.2542L59.8663 43.4806C60.7459 43.9881 61.2894 45.0769 61.2894 46.626C61.2894 48.1752 60.7459 49.8924 59.8663 51.415C58.9867 52.9385 57.7719 54.2673 56.4302 55.0423C55.0885 55.8173 53.8737 55.8902 52.9941 55.3827L52.5757 55.1563C51.6961 54.6488 51.1525 53.56 51.1525 52.0108C51.1525 50.4617 51.6961 48.7445 52.5757 47.2219Z" fill="#414E5F"/>
<path d="M52.8294 47.3496C53.7176 45.8108 54.9453 44.4682 56.3007 43.6855C57.6561 42.9028 58.8838 42.829 59.7719 43.3417L60.6078 43.8338C61.496 44.3465 62.0455 45.4464 62.0455 47.0119C62.0455 48.5773 61.496 50.3117 60.6078 51.8497C59.7196 53.3886 58.492 54.7311 57.1365 55.5139C55.7811 56.2966 54.5543 56.3703 53.6653 55.8576L52.8294 55.3655C51.9412 54.8529 51.3917 53.7529 51.3917 52.1875C51.3917 50.622 51.9412 48.8877 52.8294 47.3488V47.3496Z" fill="#FFB41F"/>
<path opacity="0.6" d="M53.6644 47.8416C54.5526 46.3027 55.7803 44.9602 57.1357 44.1774C58.4911 43.3947 59.7188 43.321 60.607 43.8336C61.4951 44.3463 62.0447 45.4462 62.0447 47.0117C62.0447 48.5772 61.4951 50.3115 60.607 51.8495C59.7188 53.3884 58.4911 54.731 57.1357 55.5137C55.7803 56.2964 54.5535 56.3702 53.6644 55.8575C52.7763 55.3448 52.2267 54.2449 52.2267 52.6794C52.2267 51.114 52.7763 49.3796 53.6644 47.8407V47.8416Z" fill="#C78D18"/>
<path d="M52.2267 52.6803C52.2267 54.2458 52.7763 55.3457 53.6644 55.8584L52.8285 55.3663C51.9404 54.8536 51.3908 53.7537 51.3908 52.1882L52.2267 52.6803Z" fill="#C78D18"/>
<path d="M59.7711 43.3417L60.6069 43.8338C59.7188 43.3211 58.4911 43.3949 57.1357 44.1776L56.2998 43.6855C57.6552 42.9028 58.8829 42.829 59.7711 43.3417Z" fill="#FFC656"/>
<path opacity="0.5" d="M56.2999 43.6853L57.1357 44.1774C55.7803 44.9601 54.5535 46.3027 53.6645 47.8416L52.8286 47.3495C53.7168 45.8106 54.9444 44.468 56.2999 43.6853Z" fill="#FFC656"/>
<g style="mix-blend-mode:multiply" opacity="0.2">
<path d="M56.6548 46.3045V45.6092L57.1769 44.9602L57.6981 45.0065V45.7018L57.1769 46.3508L56.6548 46.3045Z" fill="black"/>
</g>
<path d="M57.1768 44.4956L57.6981 44.5428L58.1199 44.7708V45.4661L57.5986 46.1151L57.0774 46.0688L56.6547 45.8399V45.1446L57.1768 44.4956Z" fill="#FFB41F"/>
<path d="M57.0774 46.0686V45.3733L57.5986 44.7244L58.1199 44.7707V45.4659L57.5986 46.1149L57.0774 46.0686Z" fill="#C78D18"/>
<path opacity="0.5" d="M57.1768 44.4956L57.6981 44.5428L58.1199 44.7708L57.5986 44.7245L57.0774 45.3735L56.6547 45.1446L57.1768 44.4956Z" fill="#FFC656"/>
<path d="M57.1768 44.4956L57.5986 44.7245L57.0774 45.3735L56.6547 45.1446L57.1768 44.4956Z" fill="#FFC656"/>
<g style="mix-blend-mode:multiply" opacity="0.2">
<path d="M60.5796 48.6828V47.9875L61.1008 47.3394L61.6221 47.3856V48.0809L61.1008 48.7291L60.5796 48.6828Z" fill="black"/>
</g>
<path d="M61.1008 46.8745L61.622 46.9208L62.0447 47.1497V47.845L61.5234 48.4931L61.0022 48.4468L60.5795 48.2179V47.5226L61.1008 46.8745Z" fill="#FFB41F"/>
<path d="M61.0022 48.4469V47.7516L61.5234 47.1035L62.0447 47.1498V47.8451L61.5234 48.4932L61.0022 48.4469Z" fill="#C78D18"/>
<path opacity="0.5" d="M61.1008 46.8745L61.622 46.9208L62.0447 47.1497L61.5234 47.1034L61.0022 47.7515L60.5795 47.5226L61.1008 46.8745Z" fill="#FFC656"/>
<path d="M61.1008 46.8745L61.5234 47.1034L61.0022 47.7515L60.5795 47.5226L61.1008 46.8745Z" fill="#FFC656"/>
<g style="mix-blend-mode:multiply" opacity="0.2">
<path d="M56.4867 55.4239V54.7286L57.0079 54.0796L57.5292 54.1267V54.8212L57.0079 55.4702L56.4867 55.4239Z" fill="black"/>
</g>
<path d="M57.008 53.6147L57.5293 53.6619L57.9519 53.8908V54.5852L57.4307 55.2342L56.9094 55.1879L56.4868 54.959V54.2637L57.008 53.6147Z" fill="#FFB41F"/>
<path d="M56.9094 55.188V54.4927L57.4307 53.8438L57.9519 53.8909V54.5853L57.4307 55.2343L56.9094 55.188Z" fill="#C78D18"/>
<path opacity="0.5" d="M57.008 53.6147L57.5293 53.6619L57.9519 53.8908L57.4307 53.8437L56.9094 54.4926L56.4868 54.2637L57.008 53.6147Z" fill="#FFC656"/>
<path d="M57.008 53.6147L57.4307 53.8437L56.9094 54.4926L56.4868 54.2637L57.008 53.6147Z" fill="#FFC656"/>
<g style="mix-blend-mode:multiply" opacity="0.2">
<path d="M52.6803 53.2315V52.5362L53.2015 51.8872L53.7236 51.9344V52.6296L53.2024 53.2778L52.6803 53.2315Z" fill="black"/>
</g>
<path d="M53.2015 51.4236L53.7236 51.4699L54.1454 51.6988V52.3941L53.6241 53.0422L53.1029 52.9959L52.6802 52.767V52.0717L53.2015 51.4236Z" fill="#FFB41F"/>
<path d="M53.1029 52.9959V52.3006L53.6241 51.6516L54.1454 51.6988V52.394L53.6241 53.0422L53.1029 52.9959Z" fill="#C78D18"/>
<path opacity="0.5" d="M53.2015 51.4236L53.7236 51.4699L54.1454 51.6988L53.6241 51.6516L53.1029 52.3006L52.6802 52.0717L53.2015 51.4236Z" fill="#FFC656"/>
<path d="M53.2015 51.4236L53.6241 51.6516L53.1029 52.3006L52.6802 52.0717L53.2015 51.4236Z" fill="#FFC656"/>
<path d="M55.0285 48.6288C55.5694 47.6917 56.317 46.8739 57.1426 46.3972C57.9682 45.9205 58.7158 45.8751 59.2567 46.188L77.6933 56.8324C78.2343 57.1445 78.5695 57.8149 78.5695 58.7682C78.5695 59.7216 78.2351 60.7778 77.6933 61.7157C77.1523 62.6527 76.4047 63.4706 75.5791 63.9473C74.7536 64.4239 74.006 64.4694 73.465 64.1565L55.0285 53.512C54.4875 53.2 54.1523 52.5296 54.1523 51.5762C54.1523 50.6229 54.4866 49.5667 55.0285 48.6288Z" fill="#FFB41F"/>
<path opacity="0.5" d="M55.0284 48.6287C55.5102 47.7937 56.1566 47.0539 56.8759 46.5652C62.7485 49.9481 72.6968 55.6862 78.5582 59.0674C78.4974 59.9384 78.1793 60.8738 77.6941 61.7139C77.208 62.555 76.5564 63.3 75.8303 63.7878L54.1642 51.2787C54.2242 50.406 54.5431 49.4689 55.0284 48.6279V48.6287Z" fill="#FFC656"/>
<path d="M55.0284 48.6286C55.2325 48.2746 55.4665 47.9377 55.7237 47.6299L78.2119 60.613C78.073 60.9894 77.8981 61.3606 77.6941 61.7147C77.4901 62.0688 77.256 62.4057 76.9997 62.7135L54.5114 49.7303C54.6503 49.3539 54.8252 48.9827 55.0293 48.6286H55.0284Z" fill="#FFC656"/>
<path d="M72.1087 58.5049C72.9969 56.966 74.2245 55.6235 75.58 54.8408C76.9354 54.058 78.1631 53.9843 79.0512 54.497L79.8871 54.9891C80.7753 55.5017 81.3248 56.6017 81.3248 58.1671C81.3248 59.7326 80.7753 61.4669 79.8871 63.005C78.9989 64.5438 77.7713 65.8864 76.4158 66.6691C75.0604 67.4519 73.8336 67.5256 72.9446 67.0129L72.1087 66.5208C71.2205 66.0081 70.671 64.9082 70.671 63.3427C70.671 61.7773 71.2205 60.0429 72.1087 58.5041V58.5049Z" fill="#FFB41F"/>
<path opacity="0.6" d="M72.9446 58.9978C73.8328 57.459 75.0604 56.1164 76.4158 55.3337C77.7713 54.551 78.9989 54.4772 79.8871 54.9899C80.7753 55.5026 81.3248 56.6025 81.3248 58.168C81.3248 59.7334 80.7753 61.4678 79.8871 63.0058C78.9989 64.5447 77.7713 65.8872 76.4158 66.6699C75.0604 67.4527 73.8336 67.5264 72.9446 67.0137C72.0564 66.5011 71.5069 65.4011 71.5069 63.8357C71.5069 62.2702 72.0564 60.5359 72.9446 58.997V58.9978Z" fill="#C78D18"/>
<path d="M74.3017 59.7814C74.8426 58.8443 75.5902 58.0265 76.4158 57.5498C77.2414 57.0731 77.989 57.0277 78.53 57.3406C79.0709 57.6527 79.4061 58.3231 79.4061 59.2764C79.4061 60.2298 79.0718 61.286 78.53 62.2239C77.989 63.1609 77.2414 63.9788 76.4158 64.4554C75.5902 64.9321 74.8426 64.9776 74.3017 64.6646C73.7607 64.3526 73.4255 63.6822 73.4255 62.7288C73.4255 61.7755 73.7599 60.7193 74.3017 59.7814Z" fill="#C78D18"/>
<path d="M71.5069 63.8358C71.5069 65.4013 72.0564 66.5012 72.9446 67.0139L72.1087 66.5218C71.2205 66.0091 70.671 64.9092 70.671 63.3438L71.5069 63.8358Z" fill="#C78D18"/>
<path d="M79.0512 54.497L79.8871 54.9891C78.9989 54.4764 77.7712 54.5501 76.4158 55.3329L75.5799 54.8408C76.9354 54.058 78.163 53.9843 79.0512 54.497Z" fill="#FFC656"/>
<path opacity="0.5" d="M75.58 54.8416L76.4159 55.3337C75.0605 56.1164 73.8337 57.4589 72.9446 58.9978L72.1087 58.5057C72.9969 56.9668 74.2246 55.6243 75.58 54.8416Z" fill="#FFC656"/>
<path d="M73.1229 59.052C74.0025 57.5294 75.2174 56.1997 76.559 55.4247C77.9007 54.6496 79.1156 54.5768 79.9952 55.0843L80.4135 55.3106C81.2931 55.8182 81.8367 56.907 81.8367 58.4561C81.8367 60.0053 81.2931 61.7225 80.4135 63.2451C79.5339 64.7685 78.3191 66.0974 76.9774 66.8724C75.6357 67.6474 74.4209 67.7203 73.5413 67.2127L73.1229 66.9864C72.2433 66.4789 71.6998 65.3901 71.6998 63.8409C71.6998 62.2918 72.2433 60.5746 73.1229 59.052Z" fill="#414E5F"/>
<path d="M73.3766 59.1797C74.2648 57.6408 75.4925 56.2983 76.8479 55.5156C78.2033 54.7328 79.431 54.6591 80.3192 55.1718L81.1551 55.6639C82.0432 56.1766 82.5928 57.2765 82.5928 58.8419C82.5928 60.4074 82.0432 62.1417 81.1551 63.6798C80.2669 65.2186 79.0392 66.5612 77.6838 67.3439C76.3284 68.1267 75.1016 68.2004 74.2125 67.6877L73.3766 67.1956C72.4885 66.6829 71.9389 65.583 71.9389 64.0175C71.9389 62.4521 72.4885 60.7177 73.3766 59.1789V59.1797Z" fill="#FFB41F"/>
<path opacity="0.6" d="M74.2125 59.6717C75.1007 58.1328 76.3284 56.7902 77.6838 56.0075C79.0392 55.2248 80.2669 55.151 81.1551 55.6637C82.0432 56.1764 82.5928 57.2763 82.5928 58.8418C82.5928 60.4072 82.0432 62.1416 81.1551 63.6796C80.2669 65.2185 79.0392 66.561 77.6838 67.3438C76.3284 68.1265 75.1016 68.2002 74.2125 67.6876C73.3243 67.1749 72.7748 66.0749 72.7748 64.5095C72.7748 62.944 73.3243 61.2097 74.2125 59.6708V59.6717Z" fill="#C78D18"/>
<path d="M72.7748 64.5097C72.7748 66.0751 73.3243 67.1751 74.2125 67.6877L73.3766 67.1956C72.4885 66.683 71.9389 65.583 71.9389 64.0176L72.7748 64.5097Z" fill="#C78D18"/>
<path d="M80.3184 55.1708L81.1543 55.6629C80.2661 55.1502 79.0384 55.224 77.683 56.0067L76.8471 55.5146C78.2026 54.7319 79.4302 54.6581 80.3184 55.1708Z" fill="#FFC656"/>
<path opacity="0.5" d="M76.8471 55.5154L77.683 56.0075C76.3276 56.7902 75.1008 58.1328 74.2117 59.6716L73.3758 59.1795C74.264 57.6407 75.4917 56.2981 76.8471 55.5154Z" fill="#FFC656"/>
<g style="mix-blend-mode:multiply" opacity="0.2">
<path d="M77.2029 58.1345V57.4393L77.7241 56.7903L78.2454 56.8366V57.5319L77.7241 58.1808L77.2029 58.1345Z" fill="black"/>
</g>
<path d="M77.7241 56.3257L78.2453 56.3728L78.668 56.6009V57.2962L78.1467 57.9452L77.6246 57.8989L77.2028 57.67V56.9747L77.7241 56.3257Z" fill="#FFB41F"/>
<path d="M77.6246 57.8987V57.2034L78.1467 56.5544L78.668 56.6007V57.296L78.1467 57.945L77.6246 57.8987Z" fill="#C78D18"/>
<path opacity="0.5" d="M77.7241 56.3257L78.2453 56.3728L78.668 56.6009L78.1467 56.5546L77.6246 57.2036L77.2028 56.9747L77.7241 56.3257Z" fill="#FFC656"/>
<path d="M77.7241 56.3257L78.1467 56.5546L77.6246 57.2036L77.2028 56.9747L77.7241 56.3257Z" fill="#FFC656"/>
<g style="mix-blend-mode:multiply" opacity="0.2">
<path d="M81.1268 60.5128V59.8176L81.6489 59.1694L82.1702 59.2157V59.911L81.6489 60.5591L81.1268 60.5128Z" fill="black"/>
</g>
<path d="M81.6489 58.7046L82.1701 58.7509L82.5919 58.9798V59.6751L82.0707 60.3232L81.5494 60.2769L81.1268 60.048V59.3527L81.6489 58.7046Z" fill="#FFB41F"/>
<path d="M81.5494 60.277V59.5817L82.0707 58.9336L82.5919 58.9799V59.6752L82.0707 60.3233L81.5494 60.277Z" fill="#C78D18"/>
<path opacity="0.5" d="M81.6489 58.7046L82.1701 58.7509L82.5919 58.9798L82.0707 58.9335L81.5494 59.5816L81.1268 59.3527L81.6489 58.7046Z" fill="#FFC656"/>
<path d="M81.6489 58.7046L82.0707 58.9335L81.5494 59.5816L81.1268 59.3527L81.6489 58.7046Z" fill="#FFC656"/>
<g style="mix-blend-mode:multiply" opacity="0.2">
<path d="M77.0339 67.2539V66.5587L77.556 65.9097L78.0773 65.956V66.6512L77.556 67.3002L77.0339 67.2539Z" fill="black"/>
</g>
<path d="M77.5561 65.4448L78.0773 65.492L78.4991 65.7209V66.4153L77.9779 67.0643L77.4566 67.018L77.034 66.7891V66.0938L77.5561 65.4448Z" fill="#FFB41F"/>
<path d="M77.4566 67.0181V66.3228L77.9779 65.6738L78.4991 65.721V66.4154L77.9779 67.0644L77.4566 67.0181Z" fill="#C78D18"/>
<path opacity="0.5" d="M77.5561 65.4448L78.0773 65.492L78.4991 65.7209L77.9779 65.6737L77.4566 66.3227L77.034 66.0938L77.5561 65.4448Z" fill="#FFC656"/>
<path d="M77.5561 65.4448L77.9779 65.6737L77.4567 66.3227L77.034 66.0938L77.5561 65.4448Z" fill="#FFC656"/>
<g style="mix-blend-mode:multiply" opacity="0.2">
<path d="M73.2284 65.0618V64.3665L73.7496 63.7175L74.2709 63.7647V64.46L73.7496 65.1081L73.2284 65.0618Z" fill="black"/>
</g>
<path d="M73.7496 63.2537L74.2708 63.2999L74.6935 63.5289V64.2241L74.1714 64.8723L73.6501 64.826L73.2283 64.5971V63.9018L73.7496 63.2537Z" fill="#FFB41F"/>
<path d="M73.6501 64.826V64.1307L74.1714 63.4817L74.6935 63.5288V64.2241L74.1714 64.8723L73.6501 64.826Z" fill="#C78D18"/>
<path opacity="0.5" d="M73.7496 63.2537L74.2708 63.2999L74.6935 63.5289L74.1714 63.4817L73.6501 64.1307L73.2283 63.9018L73.7496 63.2537Z" fill="#FFC656"/>
<path d="M73.7496 63.2537L74.1714 63.4817L73.6501 64.1307L73.2283 63.9018L73.7496 63.2537Z" fill="#FFC656"/>
<path d="M90.8145 64.3502L79.8031 57.9957C79.2622 57.6837 78.5146 57.7283 77.689 58.2049C76.8634 58.6816 76.1158 59.4995 75.5749 60.4365C75.0339 61.3736 74.6987 62.4298 74.6987 63.384C74.6987 64.3373 75.0331 65.0077 75.5749 65.3198L86.5862 71.6742C87.1272 71.9863 87.8748 71.9417 88.7004 71.465C89.526 70.9883 90.2735 70.1705 90.8145 69.2334C91.3555 68.2964 91.6907 67.2402 91.6907 66.286C91.6907 65.3327 91.3563 64.6622 90.8145 64.3502Z" fill="#FFB41F"/>
<path opacity="0.5" d="M77.4369 58.3635C76.7116 58.8522 76.06 59.5963 75.5739 60.4374C75.0878 61.2792 74.7698 62.2163 74.7098 63.089L88.9515 71.3073C89.6768 70.8186 90.3292 70.0744 90.8153 69.2326C91.3014 68.3915 91.6194 67.4545 91.6794 66.5817L77.4369 58.3635Z" fill="#FFC656"/>
<path d="M76.271 59.4393C76.0146 59.7471 75.7789 60.0823 75.574 60.4372C75.3691 60.7922 75.1968 61.1634 75.0579 61.5398L90.1175 70.2304C90.3738 69.9226 90.6096 69.5874 90.8145 69.2324C91.0194 68.8775 91.1917 68.5063 91.3306 68.1291L76.271 59.4385V59.4393Z" fill="#FFC656"/>
<path d="M85.1802 66.0149C86.0684 64.476 87.2961 63.1335 88.6515 62.3508C90.0069 61.568 91.2346 61.4943 92.1228 62.007L92.9586 62.4991C93.8468 63.0118 94.3964 64.1117 94.3964 65.6771C94.3964 67.2426 93.8468 68.977 92.9586 70.515C92.0705 72.0539 90.8428 73.3964 89.4874 74.1791C88.132 74.9619 86.9051 75.0356 86.0161 74.5229L85.1802 74.0308C84.292 73.5181 83.7425 72.4182 83.7425 70.8528C83.7425 69.2873 84.292 67.553 85.1802 66.0141V66.0149Z" fill="#FFB41F"/>
<path d="M86.0161 66.5071C86.9043 64.9682 88.132 63.6257 89.4874 62.843C90.8428 62.0602 92.0705 61.9865 92.9586 62.4992C93.8468 63.0118 94.3964 64.1118 94.3964 65.6772C94.3964 67.2427 93.8468 68.977 92.9586 70.5151C92.0705 72.0539 90.8428 73.3965 89.4874 74.1792C88.132 74.962 86.9051 75.0357 86.0161 74.523C85.1279 74.0103 84.5784 72.9104 84.5784 71.3449C84.5784 69.7795 85.1279 68.0451 86.0161 66.5063V66.5071Z" fill="#C78D18"/>
<g style="mix-blend-mode:multiply" opacity="0.5">
<path d="M87.3732 67.2906C87.9142 66.3536 88.6618 65.5357 89.4873 65.0591C90.3129 64.5824 91.0605 64.537 91.6015 64.8499C92.1424 65.1619 92.4777 65.8324 92.4777 66.7857C92.4777 67.739 92.1433 68.7952 91.6015 69.7331C91.0605 70.6702 90.3129 71.4881 89.4873 71.9647C88.6618 72.4414 87.9142 72.4868 87.3732 72.1739C86.8322 71.8618 86.497 71.1914 86.497 70.2381C86.497 69.2848 86.8314 68.2285 87.3732 67.2906Z" fill="#C78D18"/>
</g>
<path d="M84.5784 71.3459C84.5784 72.9113 85.1279 74.0113 86.0161 74.5239L85.1802 74.0318C84.2921 73.5192 83.7425 72.4192 83.7425 70.8538L84.5784 71.3459Z" fill="#C78D18"/>
<path d="M92.1227 62.007L92.9586 62.4991C92.0704 61.9864 90.8428 62.0601 89.4874 62.8429L88.6515 62.3508C90.0069 61.568 91.2346 61.4943 92.1227 62.007Z" fill="#FFC656"/>
<path opacity="0.5" d="M88.6514 62.3508L89.4873 62.8429C88.1319 63.6257 86.9051 64.9682 86.016 66.5071L85.1802 66.015C86.0683 64.4761 87.296 63.1336 88.6514 62.3508Z" fill="#FFC656"/>
<path d="M85.7855 54.6444C84.9599 54.1678 83.878 53.9294 82.7952 53.9294C81.7132 53.9294 80.6304 54.1678 79.8049 54.6444C78.9793 55.1211 78.566 55.7461 78.566 56.3711V60.4596C78.6278 62.1031 78.8858 64.5593 79.8049 66.3211C79.8049 66.3211 84.9042 64.6647 87.0234 62.1519V56.3711C87.0234 55.7461 86.6111 55.1211 85.7846 54.6444H85.7855Z" fill="#FFB41F"/>
<path opacity="0.5" d="M80.074 54.5038V66.2285C80.9107 65.9336 83.529 64.9476 85.5154 63.5091V54.5038C84.7309 54.1215 83.763 53.9294 82.7943 53.9294C81.8255 53.9294 80.8585 54.1223 80.074 54.5038Z" fill="#FFC656"/>
<path d="M81.582 54.0315V65.6421C82.2996 65.3386 83.1569 64.9416 84.0073 64.4641V54.0315C83.6121 53.9637 83.2032 53.9294 82.7942 53.9294C82.3853 53.9294 81.9763 53.9637 81.582 54.0315Z" fill="#FFC656"/>
<g style="mix-blend-mode:multiply" opacity="0.5">
<path d="M79.9223 52.7396C79.8837 52.7602 79.8426 52.779 79.8049 52.8005C78.9793 53.2771 78.566 53.9021 78.566 54.5271V59.9753C79.6617 60.3551 80.8988 60.5463 82.1367 60.5454C83.9037 60.5454 85.6706 60.1579 87.0234 59.3838V54.5262C87.0234 54.1662 86.8854 53.8052 86.6102 53.4734C85.3208 52.8442 83.7296 52.5295 82.1367 52.5295C81.3875 52.5295 80.639 52.5998 79.9223 52.7387V52.7396Z" fill="#C78D18"/>
</g>
<path d="M87.7041 51.6688C86.3487 50.8861 84.5724 50.4951 82.7951 50.4951C81.0188 50.4951 79.2416 50.8861 77.8862 51.6688C76.5307 52.4515 75.8526 53.4769 75.8526 54.5031V55.4684C75.8526 56.4946 76.5307 57.52 77.8862 58.3027C79.2416 59.0854 81.0188 59.4763 82.7951 59.4763C84.5715 59.4763 86.3487 59.0854 87.7041 58.3027C89.0595 57.52 89.7377 56.4946 89.7377 55.4684V54.5031C89.7377 53.4777 89.0604 52.4515 87.7041 51.6688Z" fill="#FFB41F"/>
<path d="M82.7951 50.4951C81.0188 50.4951 79.2416 50.8861 77.8862 51.6688C76.5307 52.4515 75.8526 53.4769 75.8526 54.5031C75.8526 55.5293 76.5307 56.5546 77.8862 57.3373C79.2416 58.1201 81.0179 58.511 82.7951 58.511C84.5715 58.511 86.3487 58.1201 87.7041 57.3373C89.0595 56.5546 89.7377 55.5293 89.7377 54.5031C89.7377 53.4777 89.0604 52.4515 87.7041 51.6688C86.3487 50.8861 84.5715 50.4951 82.7951 50.4951Z" fill="#FFC656"/>
<path d="M82.7952 52.2302C81.7878 52.2302 80.7805 52.4523 80.0115 52.8955C79.2424 53.3396 78.8584 53.9208 78.8584 54.503C78.8584 55.0842 79.2424 55.6663 80.0115 56.1104C80.7805 56.5545 81.7878 56.7757 82.7952 56.7757C83.8025 56.7757 84.8098 56.5537 85.5788 56.1104C86.3479 55.6663 86.7319 55.0851 86.7319 54.5038C86.7319 53.9226 86.3479 53.3404 85.5788 52.8964C84.8098 52.4523 83.8025 52.2311 82.7952 52.2311V52.2302Z" fill="#C78D18"/>
<path opacity="0.5" d="M87.7041 57.3372C86.3487 58.1199 84.5724 58.5109 82.7951 58.5109V59.4762C84.5715 59.4762 86.3487 59.0853 87.7041 58.3026C89.0595 57.5198 89.7377 56.4945 89.7377 55.4683V54.5029C89.7377 55.5291 89.0595 56.5545 87.7041 57.3372Z" fill="#C78D18"/>
<path d="M87.7041 57.3372V58.3026C89.0595 57.5198 89.7377 56.4945 89.7377 55.4683V54.5029C89.7377 55.5291 89.0595 56.5545 87.7041 57.3372Z" fill="#C78D18"/>
<path d="M78.0259 50.9776C79.3479 50.2146 81.0805 49.8323 82.814 49.8323C84.5466 49.8323 86.2793 50.2138 87.6021 50.9776C88.9241 51.7407 89.5851 52.7411 89.5851 53.7416V54.4541C89.5851 55.4545 88.9241 56.455 87.6021 57.218C86.2801 57.9811 84.5475 58.3634 82.814 58.3634C81.0814 58.3634 79.3488 57.9819 78.0259 57.218C76.7039 56.455 76.0429 55.4545 76.0429 54.4541V53.7416C76.0429 52.7411 76.7039 51.7407 78.0259 50.9776Z" fill="#414E5F"/>
<path d="M77.905 50.2379C79.2604 49.4551 81.0367 49.0642 82.8139 49.0642C84.5903 49.0642 86.3675 49.4551 87.7229 50.2379C89.0783 51.0206 89.7565 52.0459 89.7565 53.0722V54.0375C89.7565 55.0637 89.0783 56.089 87.7229 56.8718C86.3675 57.6545 84.5912 58.0454 82.8139 58.0454C81.0376 58.0454 79.2604 57.6545 77.905 56.8718C76.5495 56.089 75.8714 55.0637 75.8714 54.0375V53.0722C75.8714 52.0468 76.5487 51.0206 77.905 50.2379Z" fill="#FFB41F"/>
<path d="M82.8139 49.0632C84.5903 49.0632 86.3675 49.4542 87.7229 50.2369C89.0783 51.0196 89.7565 52.045 89.7565 53.0712C89.7565 54.0974 89.0783 55.1227 87.7229 55.9055C86.3675 56.6882 84.5903 57.0791 82.8139 57.0791C81.0376 57.0791 79.2604 56.6882 77.905 55.9055C76.5495 55.1227 75.8714 54.0974 75.8714 53.0712C75.8714 52.0458 76.5487 51.0196 77.905 50.2369C79.2604 49.4542 81.0367 49.0632 82.8139 49.0632Z" fill="#FFC656"/>
<path opacity="0.5" d="M77.905 55.9056C79.2604 56.6883 81.0368 57.0792 82.814 57.0792V58.0446C81.0376 58.0446 79.2604 57.6536 77.905 56.8709C76.5496 56.0882 75.8714 55.0628 75.8714 54.0366V53.0713C75.8714 54.0975 76.5496 55.1228 77.905 55.9056Z" fill="#C78D18"/>
<path d="M77.905 55.9056V56.8709C76.5496 56.0882 75.8715 55.0628 75.8715 54.0366V53.0713C75.8715 54.0975 76.5496 55.1228 77.905 55.9056Z" fill="#C78D18"/>
<g style="mix-blend-mode:multiply" opacity="0.5">
<path d="M75.9958 53.8274H81.3146V54.3692H76.2444C76.139 54.1918 76.0558 54.01 75.9949 53.8274H75.9958Z" fill="#C78D18"/>
</g>
<g style="mix-blend-mode:multiply" opacity="0.5">
<path d="M79.7302 51.5479H76.391C76.523 51.3619 76.6808 51.181 76.8634 51.0061H79.7294V51.5479H79.7302Z" fill="#C78D18"/>
</g>
<g style="mix-blend-mode:multiply" opacity="0.5">
<path d="M76.0592 52.147H80.9545V53.0549H75.8723C75.8749 52.7497 75.9366 52.4453 76.0592 52.147Z" fill="#C78D18"/>
</g>
<g style="mix-blend-mode:multiply" opacity="0.2">
<path d="M86.6136 50.3245L87.2163 50.6717L86.996 51.1466L86.173 51.2735L85.5711 50.9263L85.7915 50.4513L86.6136 50.3245Z" fill="black"/>
</g>
<path d="M86.148 49.9765L86.9702 49.8496L87.572 50.1968V50.6718L87.3517 51.1467L86.5295 51.2736L85.9268 50.9264V50.4514L86.148 49.9765Z" fill="#FFB41F"/>
<path opacity="0.8" d="M86.9702 49.8496L87.572 50.1968L87.3517 50.6718L86.5295 50.7995L85.9277 50.4514L86.148 49.9765L86.9702 49.8496Z" fill="#FFC656"/>
<path d="M86.5295 50.7995V51.2736L85.9269 50.9264V50.4514L86.5295 50.7995Z" fill="#C78D18"/>
<path opacity="0.5" d="M87.572 50.6717L87.3517 51.1467V50.6717L87.572 50.1968V50.6717Z" fill="#C78D18"/>
<g style="mix-blend-mode:multiply" opacity="0.2">
<path d="M78.7418 50.3245L79.3436 50.6717L79.1233 51.1466L78.3003 51.2735L77.6984 50.9263L77.9188 50.4513L78.7418 50.3245Z" fill="black"/>
</g>
<path d="M78.2753 49.9765L79.0975 49.8496L79.6993 50.1968V50.6718L79.479 51.1467L78.6568 51.2736L78.055 50.9264V50.4514L78.2753 49.9765Z" fill="#FFB41F"/>
<path opacity="0.8" d="M79.0975 49.8496L79.6993 50.1968L79.479 50.6718L78.6568 50.7995L78.055 50.4514L78.2753 49.9765L79.0975 49.8496Z" fill="#FFC656"/>
<path d="M78.6569 50.7995V51.2736L78.055 50.9264V50.4514L78.6569 50.7995Z" fill="#C78D18"/>
<path opacity="0.5" d="M79.6993 50.6717L79.479 51.1467V50.6717L79.6993 50.1968V50.6717Z" fill="#C78D18"/>
<g style="mix-blend-mode:multiply" opacity="0.5">
<path d="M82.5207 50.6306C83.6027 50.6306 84.6855 50.8689 85.5111 51.3456C86.3366 51.8223 86.7499 52.4473 86.7499 53.0722C86.7499 53.6972 86.3366 54.3222 85.5111 54.7989C84.6855 55.2755 83.6035 55.5139 82.5207 55.5139C81.4388 55.5139 80.356 55.2755 79.5304 54.7989C78.7048 54.3222 78.2916 53.6972 78.2916 53.0722C78.2916 52.4473 78.704 51.8223 79.5304 51.3456C80.356 50.8689 81.438 50.6306 82.5207 50.6306Z" fill="#C78D18"/>
</g>
<path d="M79.8236 50.6383C80.6492 50.1617 81.732 49.9233 82.814 49.9233C83.8959 49.9233 84.9787 50.1617 85.8043 50.6383C86.6299 51.115 87.0431 51.74 87.0431 52.365V53.0774C87.0431 53.7024 86.6299 54.3274 85.8043 54.804C84.9787 55.2807 83.8968 55.519 82.814 55.519C81.732 55.519 80.6492 55.2807 79.8236 54.804C78.9981 54.3274 78.5848 53.7024 78.5848 53.0774V52.365C78.5848 51.74 78.9972 51.115 79.8236 50.6383Z" fill="#FFB41F"/>
<path d="M82.8131 49.9233C83.895 49.9233 84.9778 50.1617 85.8034 50.6383C86.629 51.115 87.0422 51.74 87.0422 52.365C87.0422 52.99 86.629 53.6149 85.8034 54.0916C84.9778 54.5683 83.8959 54.8066 82.8131 54.8066C81.7312 54.8066 80.6484 54.5683 79.8228 54.0916C78.9972 53.6149 78.584 52.99 78.584 52.365C78.584 51.74 78.9963 51.115 79.8228 50.6383C80.6484 50.1617 81.7303 49.9233 82.8131 49.9233Z" fill="#FFC656"/>
<path opacity="0.5" d="M79.8237 54.0906C80.6492 54.5673 81.7312 54.8056 82.814 54.8056V55.5181C81.732 55.5181 80.6492 55.2797 79.8237 54.8031C78.9981 54.3264 78.5848 53.7014 78.5848 53.0764V52.364C78.5848 52.989 78.9981 53.614 79.8237 54.0906Z" fill="#C78D18"/>
<path d="M79.8237 54.0906V54.8031C78.9981 54.3264 78.5849 53.7014 78.5849 53.0764V52.364C78.5849 52.989 78.9981 53.614 79.8237 54.0906Z" fill="#C78D18"/>
<g style="mix-blend-mode:multiply" opacity="0.2">
<path d="M86.6136 54.8699L87.2163 55.2171L86.996 55.692L86.173 55.8189L85.5711 55.4717L85.7915 54.9968L86.6136 54.8699Z" fill="black"/>
</g>
<path d="M86.148 54.5219L86.9702 54.395L87.572 54.7422V55.2172L87.3517 55.6921L86.5295 55.819L85.9268 55.4718V54.9969L86.148 54.5219Z" fill="#FFB41F"/>
<path opacity="0.8" d="M86.9702 54.395L87.572 54.7422L87.3517 55.2172L86.5295 55.3441L85.9277 54.9969L86.148 54.5219L86.9702 54.395Z" fill="#FFC656"/>
<path d="M86.5295 55.344V55.819L85.9269 55.4718V54.9968L86.5295 55.344Z" fill="#C78D18"/>
<path opacity="0.5" d="M87.572 55.2171L87.3517 55.6921V55.2171L87.572 54.7422V55.2171Z" fill="#C78D18"/>
<g style="mix-blend-mode:multiply" opacity="0.2">
<path d="M78.7418 54.8699L79.3436 55.2171L79.1233 55.692L78.3003 55.8189L77.6984 55.4717L77.9188 54.9968L78.7418 54.8699Z" fill="black"/>
</g>
<path d="M78.2753 54.5219L79.0975 54.395L79.6993 54.7422V55.2172L79.479 55.6921L78.6568 55.819L78.055 55.4718V54.9969L78.2753 54.5219Z" fill="#FFB41F"/>
<path opacity="0.8" d="M79.0975 54.395L79.6993 54.7422L79.479 55.2172L78.6568 55.3441L78.055 54.9969L78.2753 54.5219L79.0975 54.395Z" fill="#FFC656"/>
<path d="M78.6569 55.344V55.819L78.055 55.4718V54.9968L78.6569 55.344Z" fill="#C78D18"/>
<path opacity="0.5" d="M79.6993 55.2171L79.479 55.6921V55.2171L79.6993 54.7422V55.2171Z" fill="#C78D18"/>
<path d="M85.6294 53.6972L85.1219 53.9904V48.291L85.6294 47.9978V53.6972Z" fill="#FFB41F"/>
<g style="mix-blend-mode:multiply" opacity="0.5">
<path d="M85.1218 53.4485V53.9903H79.659C79.4001 53.8231 79.1892 53.6405 79.0237 53.4485H85.121H85.1218Z" fill="#C78D18"/>
</g>
<g style="mix-blend-mode:multiply" opacity="0.5">
<path d="M80.4221 51.265H79.0376C79.2064 51.0721 79.4208 50.8895 79.6831 50.7231H80.4221V51.265Z" fill="#C78D18"/>
</g>
<g style="mix-blend-mode:multiply" opacity="0.5">
<path d="M82.7017 52.7223H78.6303C78.6003 52.604 78.5848 52.484 78.5848 52.364C78.5848 52.1797 78.6217 51.9953 78.6937 51.8145H82.7017V52.7223Z" fill="#C78D18"/>
</g>
<path d="M82.1934 44.5334C82.3237 44.4579 82.5028 44.4116 82.7017 44.4116C82.9006 44.4116 83.0798 44.4579 83.2101 44.5334C83.3404 44.6088 83.421 44.7125 83.421 44.8266V52.3075C83.421 52.4224 83.3404 52.5261 83.2101 52.6007C83.0798 52.6761 82.9006 52.7224 82.7017 52.7224C82.5028 52.7224 82.3237 52.6761 82.1934 52.6007C82.063 52.5252 81.9825 52.4215 81.9825 52.3075V44.8266C81.9825 44.7117 82.063 44.6079 82.1934 44.5334Z" fill="#414E5F"/>
<path opacity="0.5" d="M82.1933 45.1206C82.3236 45.196 82.5028 45.2423 82.7017 45.2423V52.7233C82.5028 52.7233 82.3236 52.677 82.1933 52.6015C82.063 52.5261 81.9824 52.4223 81.9824 52.3083V44.8274C81.9824 44.9423 82.063 45.046 82.1933 45.1206Z" fill="#29333F"/>
<path d="M82.1932 45.1206V52.6015C82.0629 52.5261 81.9823 52.4223 81.9823 52.3083V44.8274C81.9823 44.9423 82.0629 45.046 82.1932 45.1206Z" fill="#29333F"/>
<path d="M81.5254 44.283L81.0179 44.4964L80.422 45.5775L80.9304 45.2843L81.5254 44.283Z" fill="#FFB41F"/>
<path d="M85.0336 45.5166L84.526 45.8098L85.1219 48.2909L85.6294 47.9977L85.0336 45.5166Z" fill="#FFB41F"/>
<path d="M80.9305 50.9836L80.4221 51.2768V45.5774L80.9305 45.2842V50.9836Z" fill="#FFB41F"/>
<path d="M85.1218 53.9903V48.2908L84.526 45.8098L81.0179 43.7839L79.8271 45.2337V50.9331L80.422 51.2769V45.5774L81.0179 44.4964L83.9302 46.1784L84.526 47.9471V53.6465L85.1218 53.9903Z" fill="#C78D18"/>
<path d="M81.0179 43.7839L81.5254 43.4907L82.2833 43.928C82.4239 43.8902 82.5756 43.8688 82.7282 43.8688C82.9983 43.8688 83.2684 43.928 83.4741 44.0471C83.6799 44.1663 83.7828 44.3215 83.7828 44.4775C83.7828 44.5658 83.7485 44.6541 83.6824 44.7355L85.0336 45.5157L84.526 45.8089L83.1723 45.027C83.0317 45.0647 82.88 45.0862 82.7274 45.0862C82.4573 45.0862 82.1873 45.027 81.9815 44.9079C81.7758 44.7887 81.6729 44.6335 81.6729 44.4775C81.6729 44.3892 81.7072 44.3009 81.7732 44.2194L81.0171 43.7831L81.0179 43.7839Z" fill="#FFC656"/>
<path d="M81.9824 44.9089C82.1882 45.028 82.4582 45.0872 82.7283 45.0872C82.8809 45.0872 83.0318 45.0658 83.1732 45.028V45.7405C83.0326 45.7782 82.8809 45.7996 82.7283 45.7996C82.4582 45.7996 82.1882 45.7405 81.9824 45.6213C81.7767 45.5021 81.6738 45.347 81.6738 45.1909V44.4785C81.6738 44.6345 81.7767 44.7906 81.9824 44.9089Z" fill="#FFB41F"/>
<path opacity="0.5" d="M81.9824 44.9089C82.1882 45.028 82.4582 45.0872 82.7283 45.0872V45.7996C82.4582 45.7996 82.1882 45.7405 81.9824 45.6213C81.7767 45.5021 81.6738 45.347 81.6738 45.1909V44.4785C81.6738 44.6345 81.7767 44.7906 81.9824 44.9089Z" fill="#C78D18"/>
<path d="M81.9824 44.9089V45.6213C81.7767 45.5021 81.6738 45.347 81.6738 45.1909V44.4785C81.6738 44.6345 81.7767 44.7906 81.9824 44.9089Z" fill="#C78D18"/>
<path d="M82.1934 41.2797C82.3237 41.2043 82.5028 41.158 82.7017 41.158C82.9006 41.158 83.0798 41.2043 83.2101 41.2797C83.3404 41.3551 83.421 41.4589 83.421 41.5729V44.4226C83.421 44.5375 83.3404 44.6412 83.2101 44.7158C83.0798 44.7913 82.9006 44.8376 82.7017 44.8376C82.5028 44.8376 82.3237 44.7913 82.1934 44.7158C82.063 44.6404 81.9825 44.5366 81.9825 44.4226V41.5729C81.9825 41.458 82.063 41.3543 82.1934 41.2797Z" fill="#414E5F"/>
<path opacity="0.5" d="M82.1933 41.8669C82.3236 41.9424 82.5028 41.9887 82.7017 41.9887V44.8384C82.5028 44.8384 82.3236 44.7921 82.1933 44.7166C82.063 44.6412 81.9824 44.5375 81.9824 44.4234V41.5737C81.9824 41.6886 82.063 41.7923 82.1933 41.8669Z" fill="#29333F"/>
<path d="M82.1932 41.8669V44.7166C82.0629 44.6412 81.9823 44.5375 81.9823 44.4234V41.5737C81.9823 41.6886 82.0629 41.7923 82.1932 41.8669Z" fill="#29333F"/>
<path d="M78.3336 45.1952L82.4015 42.7922C82.4958 42.8033 82.5936 42.8093 82.6939 42.8093C82.8225 42.8093 82.9468 42.799 83.0651 42.781L87.1176 45.1712C87.2505 45.1223 87.3808 45.0717 87.5086 45.0186L87.9124 45.2569C87.6594 45.3752 87.3937 45.485 87.1168 45.5861L83.0642 43.1959C82.9451 43.2139 82.8216 43.2242 82.693 43.2242C82.5927 43.2242 82.495 43.2182 82.4007 43.2071L78.3327 45.6101C78.055 45.5107 77.7883 45.4018 77.5329 45.2844L77.9401 45.0452C78.0687 45.0975 78.199 45.1472 78.3327 45.1952H78.3336Z" fill="#9B0000"/>
<path d="M81.2219 42.0274C81.2476 42.2074 81.3685 42.3712 81.5571 42.5015L81.2999 42.6533C81.2596 42.5864 81.2322 42.5161 81.2219 42.4424L74.6532 40.3805V39.969L81.2219 42.0274Z" fill="#9B0000"/>
<path d="M84.1565 42.0711L90.7501 40.0042V40.4191L84.1565 42.4861C84.1471 42.5264 84.1317 42.565 84.1128 42.6035L83.877 42.4646C84.0228 42.3515 84.1214 42.2169 84.1557 42.0711H84.1565Z" fill="#9B0000"/>
<path d="M75.8569 37.1879C77.6083 36.1762 80.0285 35.5513 82.7017 35.5513C85.3748 35.5513 87.795 36.1771 89.5465 37.1879C91.2979 38.1995 92.3816 39.5969 92.3816 41.1401V41.555C92.3816 43.0982 91.2979 44.4956 89.5465 45.5073C87.795 46.5189 85.3748 47.1439 82.7017 47.1439C80.0285 47.1439 77.6083 46.518 75.8569 45.5073C74.1054 44.4956 73.0217 43.0982 73.0217 41.555V41.1401C73.0217 39.5969 74.1054 38.1995 75.8569 37.1879ZM76.8419 44.5231C78.3413 45.3889 80.4135 45.9248 82.7017 45.9248C84.9898 45.9248 87.062 45.3889 88.5623 44.5231C89.9828 43.7026 90.889 42.5855 90.9807 41.3476C90.889 40.1088 89.9828 38.9917 88.5623 38.1712C87.0628 37.3053 84.9907 36.7695 82.7017 36.7695C80.4135 36.7695 78.3413 37.3053 76.8419 38.1712C75.4213 38.9917 74.5152 40.1088 74.4234 41.3476C74.5152 42.5864 75.4213 43.7035 76.8419 44.5231Z" fill="#C1060B"/>
<path opacity="0.5" d="M75.8569 37.1879C77.6083 36.1762 80.0285 35.5513 82.7017 35.5513C85.3748 35.5513 87.795 36.1771 89.5465 37.1879C91.2979 38.1995 92.3816 39.5969 92.3816 41.1401C92.3816 42.6833 91.2979 44.0807 89.5465 45.0923C87.795 46.1039 85.3748 46.7289 82.7017 46.7289C80.0285 46.7289 77.6083 46.1031 75.8569 45.0923C74.1054 44.0807 73.0217 42.6833 73.0217 41.1401C73.0217 39.5969 74.1054 38.1995 75.8569 37.1879ZM76.8419 44.5231C78.3413 45.3889 80.4135 45.9248 82.7017 45.9248C84.9898 45.9248 87.062 45.3889 88.5623 44.5231C90.0617 43.6572 90.9893 42.4612 90.9893 41.1392C90.9893 39.8181 90.0617 38.6213 88.5623 37.7554C87.0628 36.8895 84.9907 36.3537 82.7017 36.3537C80.4135 36.3537 78.3413 36.8895 76.8419 37.7554C75.3416 38.6213 74.414 39.8173 74.414 41.1392C74.414 42.4604 75.3416 43.6572 76.8419 44.5231Z" fill="#FE3C31"/>
<path d="M76.0575 37.1399C77.7585 36.1582 80.1066 35.5513 82.7017 35.5513C85.2968 35.5513 87.6459 36.1582 89.3459 37.1399C91.046 38.1215 92.0979 39.4778 92.0979 40.9763C92.0979 42.4741 91.046 43.8303 89.3459 44.8128C87.6459 45.7945 85.2968 46.4014 82.7017 46.4014C80.1066 46.4014 77.7585 45.7945 76.0575 44.8128C74.3575 43.8312 73.3056 42.4749 73.3056 40.9763C73.3056 39.4778 74.3575 38.1223 76.0575 37.1399ZM76.6602 44.4648C78.2068 45.3572 80.3424 45.9093 82.7017 45.9093C85.0611 45.9093 87.1975 45.3572 88.7441 44.4648C90.2907 43.5723 91.2466 42.3386 91.2466 40.9763C91.2466 39.6141 90.2898 38.3804 88.7441 37.4879C87.1975 36.5955 85.0619 36.0434 82.7017 36.0434C80.3424 36.0434 78.206 36.5955 76.6602 37.4879C75.1136 38.3804 74.1577 39.6141 74.1577 40.9763C74.1577 42.3386 75.1145 43.5723 76.6602 44.4648Z" fill="#FE3C31"/>
<path d="M90.9894 41.1402C90.9894 41.2096 90.9851 41.2791 90.98 41.3476C90.8882 40.1088 89.982 38.9917 88.5615 38.1713V37.7563C90.0609 38.6222 90.9885 39.8182 90.9885 41.1402H90.9894Z" fill="#9B0000"/>
<path opacity="0.5" d="M88.5623 37.7562C90.0618 38.6221 90.9894 39.818 90.9894 41.14C90.9894 41.2095 90.9851 41.2789 90.98 41.3475C90.8882 40.1087 89.982 38.9916 88.5615 38.1711C87.062 37.3052 84.9899 36.7694 82.7009 36.7694V36.3545C84.9899 36.3545 87.0612 36.8903 88.5615 37.7562H88.5623Z" fill="#9B0000"/>
<path opacity="0.5" d="M75.8569 45.0914C77.6083 46.103 80.0286 46.728 82.7017 46.728V47.1429C80.0286 47.1429 77.6083 46.5171 75.8569 45.5063C74.1054 44.4947 73.0217 43.0973 73.0217 41.5541V41.1392C73.0217 42.6823 74.1054 44.0797 75.8569 45.0914Z" fill="#9B0000"/>
<path d="M75.8569 45.0914V45.5063C74.1054 44.4947 73.0218 43.0973 73.0218 41.5541V41.1392C73.0218 42.6823 74.1054 44.0797 75.8569 45.0914Z" fill="#9B0000"/>
<path d="M74.6532 39.969C74.7329 39.7846 74.8315 39.6012 74.9464 39.4263L81.468 41.4796C81.5211 41.4341 81.582 41.3921 81.6489 41.3535C81.804 41.2644 81.9935 41.1949 82.2044 41.1529V36.3511C82.3664 36.346 82.5293 36.3425 82.6939 36.3425C82.8585 36.3425 83.0214 36.346 83.1835 36.3511V41.1529C83.3944 41.1958 83.5838 41.2644 83.739 41.3535C83.823 41.4015 83.895 41.4564 83.9568 41.5156L90.4664 39.4649C90.5787 39.6406 90.673 39.8215 90.7501 40.0058L84.1565 42.0728C84.1222 42.2194 84.0236 42.354 83.8779 42.4663L87.957 44.8677C87.7041 44.986 87.4272 45.0888 87.1511 45.19L83.066 42.7827C82.9468 42.8007 82.8234 42.811 82.6948 42.811C82.5945 42.811 82.4968 42.805 82.4024 42.7938L78.3122 45.2106C78.0344 45.1111 77.7601 45.0108 77.5046 44.8934L81.558 42.5032C81.3694 42.372 81.2485 42.2083 81.2228 42.0291L74.654 39.9707L74.6532 39.969Z" fill="#FE3C31"/>
<path d="M82.1934 40.5939C82.3237 40.5185 82.5028 40.4722 82.7017 40.4722C82.9006 40.4722 83.0798 40.5185 83.2101 40.5939C83.3404 40.6694 83.421 40.7731 83.421 40.8871V41.9562C83.421 42.0711 83.3404 42.1748 83.2101 42.2494C83.0798 42.3248 82.9006 42.3711 82.7017 42.3711C82.5028 42.3711 82.3237 42.3248 82.1934 42.2494C82.063 42.1739 81.9825 42.0702 81.9825 41.9562V40.8871C81.9825 40.7722 82.063 40.6685 82.1934 40.5939Z" fill="#414E5F"/>
<path opacity="0.5" d="M82.1933 41.1811C82.3236 41.2566 82.5028 41.3029 82.7017 41.3029V42.3719C82.5028 42.3719 82.3236 42.3257 82.1933 42.2502C82.063 42.1748 81.9824 42.071 81.9824 41.957V40.8879C81.9824 41.0028 82.063 41.1065 82.1933 41.1811Z" fill="#29333F"/>
<path d="M82.1934 40.5939C82.3237 40.5185 82.5028 40.4722 82.7017 40.4722C82.9006 40.4722 83.0798 40.5185 83.2101 40.5939C83.3404 40.6694 83.421 40.7731 83.421 40.8871C83.421 41.0011 83.3404 41.1057 83.2101 41.1803C83.0798 41.2558 82.9006 41.3021 82.7017 41.3021C82.5028 41.3021 82.3237 41.2558 82.1934 41.1803C82.063 41.1049 81.9825 41.0011 81.9825 40.8871C81.9825 40.7731 82.063 40.6685 82.1934 40.5939Z" fill="#5B6879"/>
<path d="M82.1932 41.1811V42.2502C82.0629 42.1748 81.9823 42.071 81.9823 41.957V40.8879C81.9823 41.0028 82.0629 41.1065 82.1932 41.1811Z" fill="#29333F"/>
<path d="M86.1747 66.6101C87.0543 65.0875 88.2691 63.7578 89.6108 62.9828C90.9525 62.2078 92.1673 62.1349 93.0469 62.6424L93.4653 62.8687C94.3449 63.3763 94.8884 64.4651 94.8884 66.0142C94.8884 67.5634 94.3449 69.2806 93.4653 70.8032C92.5857 72.3266 91.3709 73.6555 90.0292 74.4305C88.6875 75.2055 87.4727 75.2784 86.593 74.7708L86.1747 74.5445C85.2951 74.037 84.7515 72.9482 84.7515 71.399C84.7515 69.8499 85.2951 68.1326 86.1747 66.6101Z" fill="#414E5F"/>
<path d="M86.4284 66.7369C87.3166 65.198 88.5443 63.8554 89.8997 63.0727C91.2551 62.29 92.4828 62.2162 93.3709 62.7289L94.2068 63.221C95.095 63.7337 95.6445 64.8336 95.6445 66.3991C95.6445 67.9645 95.095 69.6989 94.2068 71.2369C93.3186 72.7758 92.091 74.1183 90.7355 74.9011C89.3801 75.6838 88.1533 75.7575 87.2643 75.2448L86.4284 74.7527C85.5402 74.2401 84.9907 73.1401 84.9907 71.5747C84.9907 70.0092 85.5402 68.2749 86.4284 66.736V66.7369Z" fill="#FFB41F"/>
<path opacity="0.6" d="M87.2643 67.2298C88.1525 65.6909 89.3801 64.3483 90.7355 63.5656C92.091 62.7829 93.3186 62.7092 94.2068 63.2218C95.095 63.7345 95.6445 64.8344 95.6445 66.3999C95.6445 67.9653 95.095 69.6997 94.2068 71.2377C93.3186 72.7766 92.091 74.1192 90.7355 74.9019C89.3801 75.6846 88.1533 75.7583 87.2643 75.2457C86.3761 74.733 85.8266 73.633 85.8266 72.0676C85.8266 70.5021 86.3761 68.7678 87.2643 67.2289V67.2298Z" fill="#C78D18"/>
<path d="M85.8266 72.0678C85.8266 73.6332 86.3761 74.7332 87.2643 75.2459L86.4284 74.7538C85.5402 74.2411 84.9907 73.1411 84.9907 71.5757L85.8266 72.0678Z" fill="#C78D18"/>
<path d="M93.3701 62.7289L94.2059 63.221C93.3178 62.7083 92.0901 62.7821 90.7347 63.5648L89.8988 63.0727C91.2542 62.29 92.4819 62.2162 93.3701 62.7289Z" fill="#FFC656"/>
<path opacity="0.5" d="M89.8989 63.0728L90.7347 63.5649C89.3793 64.3476 88.1525 65.6901 87.2635 67.229L86.4276 66.7369C87.3158 65.198 88.5434 63.8555 89.8989 63.0728Z" fill="#FFC656"/>
<g style="mix-blend-mode:multiply" opacity="0.2">
<path d="M90.2546 65.6918V64.9965L90.7759 64.3484L91.2971 64.3947V65.09L90.7759 65.739L90.2546 65.6918Z" fill="black"/>
</g>
<path d="M90.7758 63.8838L91.2971 63.9301L91.7197 64.159V64.8543L91.1985 65.5033L90.6764 65.4561L90.2546 65.2281V64.5328L90.7758 63.8838Z" fill="#FFB41F"/>
<path d="M90.6764 65.456V64.7607L91.1985 64.1125L91.7197 64.1588V64.8541L91.1985 65.5031L90.6764 65.456Z" fill="#C78D18"/>
<path opacity="0.5" d="M90.7758 63.8838L91.2971 63.9301L91.7197 64.159L91.1985 64.1127L90.6764 64.7608L90.2546 64.5328L90.7758 63.8838Z" fill="#FFC656"/>
<path d="M90.7758 63.8838L91.1985 64.1127L90.6764 64.7608L90.2546 64.5328L90.7758 63.8838Z" fill="#FFC656"/>
<g style="mix-blend-mode:multiply" opacity="0.2">
<path d="M94.1786 68.0708V67.3755L94.6998 66.7266L95.2219 66.7737V67.4681L94.7007 68.1171L94.1786 68.0708Z" fill="black"/>
</g>
<path d="M94.6998 66.262L95.2219 66.3091L95.6437 66.538V67.2324L95.1224 67.8814L94.6012 67.8351L94.1785 67.6062V66.9109L94.6998 66.262Z" fill="#FFB41F"/>
<path d="M94.6012 67.835V67.1397L95.1224 66.4907L95.6437 66.5379V67.2323L95.1224 67.8813L94.6012 67.835Z" fill="#C78D18"/>
<path opacity="0.5" d="M94.6998 66.262L95.2219 66.3091L95.6437 66.538L95.1224 66.4909L94.6012 67.1399L94.1785 66.9109L94.6998 66.262Z" fill="#FFC656"/>
<path d="M94.6998 66.262L95.1224 66.4909L94.6012 67.1399L94.1785 66.9109L94.6998 66.262Z" fill="#FFC656"/>
<g style="mix-blend-mode:multiply" opacity="0.2">
<path d="M90.0858 74.8112V74.1159L90.6079 73.4678L91.1292 73.5141V74.2093L90.6079 74.8583L90.0858 74.8112Z" fill="black"/>
</g>
<path d="M90.6079 73.0029L91.1291 73.0492L91.5509 73.2781V73.9734L91.0297 74.6224L90.5084 74.5752L90.0858 74.3472V73.6519L90.6079 73.0029Z" fill="#FFB41F"/>
<path d="M90.5084 74.5753V73.8801L91.0297 73.2319L91.5509 73.2782V73.9735L91.0297 74.6225L90.5084 74.5753Z" fill="#C78D18"/>
<path opacity="0.5" d="M90.6079 73.0029L91.1291 73.0492L91.5509 73.2781L91.0297 73.2318L90.5084 73.88L90.0858 73.6519L90.6079 73.0029Z" fill="#FFC656"/>
<path d="M90.6079 73.0029L91.0297 73.2318L90.5084 73.88L90.0858 73.6519L90.6079 73.0029Z" fill="#FFC656"/>
<g style="mix-blend-mode:multiply" opacity="0.2">
<path d="M86.2801 72.6188V71.9244L86.8014 71.2754L87.3226 71.3217V72.017L86.8014 72.666L86.2801 72.6188Z" fill="black"/>
</g>
<path d="M86.8013 70.8108L87.3226 70.8579L87.7452 71.086V71.7813L87.2231 72.4303L86.7019 72.3831L86.2801 72.1551V71.4598L86.8013 70.8108Z" fill="#FFB41F"/>
<path d="M86.7019 72.3832V71.6888L87.2231 71.0398L87.7452 71.0861V71.7814L87.2231 72.4304L86.7019 72.3832Z" fill="#C78D18"/>
<path opacity="0.5" d="M86.8013 70.8108L87.3226 70.8579L87.7452 71.086L87.2231 71.0397L86.7019 71.6887L86.2801 71.4598L86.8013 70.8108Z" fill="#FFC656"/>
<path d="M86.8013 70.8108L87.2231 71.0397L86.7019 71.6887L86.2801 71.4598L86.8013 70.8108Z" fill="#FFC656"/>
<path d="M88.6078 67.9972C89.1487 67.0601 89.8963 66.2423 90.7219 65.7656C91.5475 65.2889 92.2951 65.2435 92.836 65.5564L94.4143 66.4617C94.9553 66.7738 95.2905 67.4442 95.2905 68.3976C95.2905 69.3509 94.9562 70.4071 94.4143 71.345C93.8734 72.2821 93.1258 73.0999 92.3002 73.5766C91.4746 74.0533 90.727 74.0987 90.1861 73.7858L88.6078 72.8805C88.0668 72.5684 87.7316 71.898 87.7316 70.9446C87.7316 69.9913 88.0659 68.9351 88.6078 67.9972Z" fill="#FFB41F"/>
<path opacity="0.5" d="M88.6077 67.9971C89.1126 67.1218 89.7985 66.3511 90.5589 65.865L95.2861 68.5767C95.2476 69.482 94.9218 70.4653 94.4142 71.3441C93.8947 72.2443 93.184 73.0339 92.397 73.5174L87.7341 70.8426C87.7572 69.9158 88.0856 68.9016 88.6077 67.998V67.9971Z" fill="#FFC656"/>
<path d="M94.4152 71.3441C94.2052 71.7085 93.9634 72.054 93.6985 72.3686L88.0754 69.1417C88.216 68.7508 88.396 68.365 88.6086 67.9972C88.8049 67.6568 89.0287 67.3328 89.2739 67.0344L94.9219 70.2742C94.7856 70.6394 94.615 70.9995 94.4161 71.3433L94.4152 71.3441Z" fill="#FFC656"/>
<path d="M91.1025 69.4333C91.814 68.2004 92.7974 67.1245 93.8836 66.4978C94.9698 65.8711 95.9523 65.8111 96.6647 66.2226L102.987 69.8868C103.698 70.2974 104.139 71.1788 104.139 72.433C104.139 73.6873 103.699 75.0761 102.987 76.3089C102.275 77.5417 101.292 78.6177 100.205 79.2444C99.1192 79.8711 98.1367 79.9311 97.4243 79.5196L91.1025 75.8554C90.3909 75.4448 89.9502 74.5634 89.9502 73.3092C89.9502 72.0549 90.39 70.6661 91.1025 69.4333Z" fill="#FFB41F"/>
<path d="M97.4243 73.0973C98.1359 71.8645 99.1192 70.7886 100.205 70.1619C101.291 69.5352 102.274 69.4752 102.986 69.8867C103.697 70.2973 104.138 71.1787 104.138 72.4329C104.138 73.6872 103.698 75.076 102.987 76.3088C102.275 77.5416 101.292 78.6176 100.205 79.2443C99.1192 79.871 98.1367 79.931 97.4243 79.5195C96.7127 79.1088 96.2721 78.2275 96.2721 76.9732C96.2721 75.719 96.7119 74.3301 97.4243 73.0973Z" fill="#C78D18"/>
<path d="M102.368 77.2458C102.361 77.257 102.352 77.2673 102.344 77.2784C102.352 77.2673 102.36 77.257 102.368 77.2458Z" fill="#FFC656"/>
<path d="M102.693 76.783C102.681 76.801 102.668 76.819 102.656 76.8378C102.668 76.8198 102.681 76.8018 102.693 76.783Z" fill="#FFC656"/>
<path d="M102.535 77.0161C102.525 77.0307 102.513 77.0453 102.503 77.0607C102.513 77.0461 102.525 77.0315 102.535 77.0161Z" fill="#FFC656"/>
<path d="M97.4243 73.0973C97.0463 73.7522 96.7453 74.4518 96.5464 75.1514L90.2246 71.4872C90.4244 70.7876 90.7244 70.0881 91.1025 69.4331C91.496 68.7515 91.9727 68.118 92.5042 67.5813L98.826 71.2455C98.2945 71.7821 97.8178 72.4157 97.4243 73.0973Z" fill="#FFC656"/>
<path d="M102.014 77.6899C102.014 77.6899 102.008 77.6968 102.006 77.7002C102.008 77.6968 102.012 77.6934 102.014 77.6899Z" fill="#FFC656"/>
<path d="M101.828 77.9016C101.828 77.9016 101.827 77.9033 101.826 77.9042C101.826 77.9042 101.828 77.9025 101.828 77.9016Z" fill="#FFC656"/>
<path d="M103.628 74.9612C103.62 74.9826 103.612 75.0032 103.603 75.0246C103.612 75.0032 103.619 74.9826 103.628 74.9612Z" fill="#FFC656"/>
<path d="M103.723 74.7021C103.717 74.7184 103.711 74.7347 103.706 74.7519C103.712 74.7356 103.718 74.7193 103.723 74.7021Z" fill="#FFC656"/>
<path d="M103.525 75.2192C103.515 75.2432 103.505 75.2672 103.495 75.2912C103.505 75.2672 103.516 75.2432 103.525 75.2192Z" fill="#FFC656"/>
<path d="M103.161 75.9907C103.148 76.0147 103.136 76.0379 103.124 76.0619C103.137 76.0387 103.149 76.0147 103.161 75.9907Z" fill="#FFC656"/>
<path d="M103.414 75.4746C103.402 75.5003 103.39 75.5269 103.378 75.5526C103.39 75.5269 103.402 75.5003 103.414 75.4746Z" fill="#FFC656"/>
<path d="M103.293 75.7302C103.28 75.7568 103.267 75.7834 103.254 75.81C103.268 75.7834 103.28 75.7568 103.293 75.7302Z" fill="#FFC656"/>
<path opacity="0.5" d="M104.135 72.2949C104.135 72.3404 104.138 72.3858 104.138 72.4321C104.138 72.3858 104.136 72.3404 104.135 72.2949Z" fill="#FFC656"/>
<path opacity="0.5" d="M103.466 75.3589C103.536 75.1977 103.602 75.0348 103.663 74.8711C103.602 75.0348 103.537 75.1977 103.466 75.3589Z" fill="#FFC656"/>
<path opacity="0.5" d="M100.205 79.2435C100.409 79.126 100.609 78.9923 100.805 78.8457C100.609 78.9932 100.409 79.126 100.205 79.2435Z" fill="#FFC656"/>
<path opacity="0.5" d="M91.1025 69.4332C91.8141 68.2004 92.7975 67.1245 93.8837 66.4978C93.9265 66.4729 93.9694 66.4506 94.0114 66.4275L100.333 70.0917C100.29 70.1148 100.248 70.1371 100.206 70.162C99.1193 70.7887 98.1368 71.8646 97.4244 73.0974C96.7128 74.3302 96.2721 75.7191 96.2721 76.9733C96.2721 77.0196 96.2739 77.0651 96.2756 77.1105L89.9537 73.4463C89.9529 73.4009 89.9503 73.3563 89.9503 73.3092C89.9503 72.0549 90.3901 70.6661 91.1025 69.4332Z" fill="#FFC656"/>
<path opacity="0.3" d="M100.205 70.1618C100.247 70.137 100.29 70.1147 100.332 70.0916L101.022 71.8679L100.803 72.7338L98.1599 76.824L96.2721 76.9732C96.2721 75.719 96.7119 74.3301 97.4243 73.0973C98.1359 71.8645 99.1192 70.7885 100.205 70.1618H100.205Z" fill="#FFC656"/>
<path opacity="0.5" d="M96.5464 75.1515C96.7462 74.452 97.0462 73.7524 97.4243 73.0974C97.8178 72.4158 98.2953 71.7823 98.826 71.2456L99.7236 73.0305V74.4057L99.5805 74.6268L98.5131 75.1318L96.5456 75.1515H96.5464Z" fill="#FFC656"/>
<path d="M99.0335 74.025C99.5745 73.088 100.322 72.2701 101.148 71.7934C101.973 71.3168 102.721 71.2713 103.262 71.5842L105.481 72.8574C106.022 73.1694 106.358 73.8398 106.358 74.7932C106.358 75.7465 106.023 76.8027 105.482 77.7406C104.941 78.6777 104.194 79.4956 103.368 79.9722C102.542 80.4489 101.795 80.4943 101.254 80.1814L99.0344 78.9083C98.4934 78.5962 98.1582 77.9258 98.1582 76.9725C98.1582 76.0191 98.4925 74.9629 99.0344 74.025H99.0335Z" fill="#FFB41F"/>
<path opacity="0.5" d="M99.0335 74.0249C99.547 73.135 100.247 72.3532 101.024 71.8679L106.355 74.926C106.326 75.8441 105.998 76.8455 105.482 77.7397C104.971 78.6253 104.275 79.4037 103.504 79.8889L98.1608 76.824C98.1933 75.9102 98.52 74.914 99.0335 74.0249Z" fill="#FFC656"/>
<path d="M105.482 77.7398C105.279 78.0921 105.047 78.4273 104.791 78.7342L98.5131 75.1318C98.652 74.7537 98.8277 74.3808 99.0326 74.025C99.2358 73.6727 99.4681 73.3374 99.7227 73.0305L106.001 76.6321C105.862 77.0102 105.686 77.384 105.48 77.7398H105.482Z" fill="#FFC656"/>
<path d="M100.423 74.8599C101.311 73.321 102.539 71.9785 103.895 71.1957C105.25 70.413 106.478 70.3393 107.366 70.852L108.202 71.3441C109.09 71.8567 109.639 72.9567 109.639 74.5221C109.639 76.0876 109.09 77.8219 108.202 79.3599C107.314 80.8988 106.086 82.2414 104.73 83.0241C103.375 83.8068 102.148 83.8806 101.259 83.3679L100.423 82.8758C99.5351 82.3631 98.9856 81.2632 98.9856 79.6977C98.9856 78.1323 99.5351 76.3979 100.423 74.859V74.8599Z" fill="#FFB41F"/>
<path opacity="0.6" d="M101.259 75.3521C102.147 73.8132 103.375 72.4707 104.73 71.6879C106.086 70.9052 107.314 70.8315 108.202 71.3441C109.09 71.8568 109.639 72.9567 109.639 74.5222C109.639 76.0877 109.09 77.822 108.202 79.36C107.314 80.8989 106.086 82.2415 104.73 83.0242C103.375 83.8069 102.148 83.8807 101.259 83.368C100.371 82.8553 99.8214 81.7554 99.8214 80.1899C99.8214 78.6245 100.371 76.8901 101.259 75.3512V75.3521Z" fill="#C78D18"/>
<path d="M102.616 76.1356C103.157 75.1986 103.905 74.3807 104.73 73.904C105.556 73.4274 106.304 73.3819 106.845 73.6948C107.385 74.0069 107.721 74.6773 107.721 75.6307C107.721 76.584 107.386 77.6402 106.845 78.5781C106.304 79.5152 105.556 80.333 104.73 80.8097C103.905 81.2864 103.157 81.3318 102.616 81.0189C102.075 80.7068 101.74 80.0364 101.74 79.0831C101.74 78.1297 102.074 77.0735 102.616 76.1356Z" fill="#C78D18"/>
<path d="M99.8214 80.1908C99.8214 81.7563 100.371 82.8562 101.259 83.3689L100.423 82.8768C99.5351 82.3641 98.9856 81.2642 98.9856 79.6987L99.8214 80.1908Z" fill="#C78D18"/>
<path d="M107.366 70.852L108.202 71.3441C107.313 70.8314 106.086 70.9051 104.73 71.6878L103.895 71.1957C105.25 70.413 106.478 70.3393 107.366 70.852Z" fill="#FFC656"/>
<path opacity="0.5" d="M103.894 71.1958L104.73 71.6879C103.375 72.4706 102.148 73.8132 101.259 75.3521L100.423 74.86C101.311 73.3211 102.539 71.9785 103.894 71.1958Z" fill="#FFC656"/>
<path d="M101.342 75.4035C102.222 73.8809 103.437 72.5512 104.778 71.7762C106.12 71.0012 107.335 70.9283 108.215 71.4359L108.633 71.6622C109.512 72.1697 110.056 73.2585 110.056 74.8077C110.056 76.3569 109.512 78.0741 108.633 79.5967C107.753 81.1201 106.538 82.4489 105.197 83.2239C103.855 83.999 102.64 84.0718 101.761 83.5643L101.342 83.338C100.463 82.8304 99.9191 81.7417 99.9191 80.1925C99.9191 78.6433 100.463 76.9261 101.342 75.4035Z" fill="#414E5F"/>
<path d="M101.59 75.5364C102.478 73.9975 103.706 72.655 105.061 71.8723C106.417 71.0895 107.644 71.0158 108.533 71.5285L109.368 72.0206C110.257 72.5333 110.806 73.6332 110.806 75.1986C110.806 76.7641 110.257 78.4984 109.368 80.0365C108.48 81.5753 107.253 82.9179 105.897 83.7006C104.542 84.4834 103.315 84.5571 102.426 84.0444L101.59 83.5523C100.702 83.0396 100.152 81.9397 100.152 80.3742C100.152 78.8088 100.702 77.0744 101.59 75.5356V75.5364Z" fill="#FFB41F"/>
<path opacity="0.6" d="M102.426 76.0284C103.314 74.4895 104.542 73.1469 105.897 72.3642C107.253 71.5815 108.48 71.5077 109.368 72.0204C110.257 72.5331 110.806 73.633 110.806 75.1985C110.806 76.7639 110.257 78.4983 109.368 80.0363C108.48 81.5752 107.253 82.9177 105.897 83.7005C104.542 84.4832 103.315 84.5569 102.426 84.0443C101.538 83.5316 100.988 82.4316 100.988 80.8662C100.988 79.3007 101.538 77.5664 102.426 76.0275V76.0284Z" fill="#C78D18"/>
<path d="M100.988 80.8671C100.988 82.4326 101.538 83.5325 102.426 84.0452L101.59 83.5531C100.702 83.0404 100.152 81.9405 100.152 80.375L100.988 80.8671Z" fill="#C78D18"/>
<path d="M108.533 71.5285L109.368 72.0206C108.48 71.5079 107.253 71.5816 105.897 72.3644L105.061 71.8723C106.417 71.0895 107.644 71.0158 108.533 71.5285Z" fill="#FFC656"/>
<path opacity="0.5" d="M105.061 71.8723L105.897 72.3644C104.542 73.1471 103.315 74.4897 102.426 76.0286L101.59 75.5365C102.478 73.9976 103.706 72.655 105.061 71.8723Z" fill="#FFC656"/>
<g style="mix-blend-mode:multiply" opacity="0.2">
<path d="M105.416 74.4912V73.796L105.938 73.147L106.46 73.1941V73.8886L105.938 74.5375L105.416 74.4912Z" fill="black"/>
</g>
<path d="M105.938 72.6824L106.46 72.7295L106.881 72.9584V73.6528L106.36 74.3018L105.839 74.2555L105.416 74.0266V73.3314L105.938 72.6824Z" fill="#FFB41F"/>
<path d="M105.839 74.2554V73.5601L106.36 72.9111L106.881 72.9583V73.6527L106.36 74.3017L105.839 74.2554Z" fill="#C78D18"/>
<path opacity="0.5" d="M105.938 72.6824L106.46 72.7295L106.881 72.9584L106.36 72.9113L105.839 73.5603L105.416 73.3314L105.938 72.6824Z" fill="#FFC656"/>
<path d="M105.938 72.6824L106.36 72.9113L105.839 73.5603L105.416 73.3314L105.938 72.6824Z" fill="#FFC656"/>
<g style="mix-blend-mode:multiply" opacity="0.2">
<path d="M109.341 76.8695V76.1743L109.862 75.5261L110.384 75.5724V76.2677L109.862 76.9158L109.341 76.8695Z" fill="black"/>
</g>
<path d="M109.862 75.0615L110.383 75.1078L110.806 75.3367V76.032L110.285 76.6801L109.764 76.6338L109.341 76.4049V75.7105L109.862 75.0615Z" fill="#FFB41F"/>
<path d="M109.764 76.6337V75.9384L110.285 75.2903L110.806 75.3366V76.0319L110.285 76.68L109.764 76.6337Z" fill="#C78D18"/>
<path opacity="0.5" d="M109.862 75.0615L110.383 75.1078L110.806 75.3367L110.285 75.2904L109.764 75.9386L109.341 75.7105L109.862 75.0615Z" fill="#FFC656"/>
<path d="M109.862 75.0615L110.285 75.2904L109.764 75.9386L109.341 75.7096L109.862 75.0615Z" fill="#FFC656"/>
<g style="mix-blend-mode:multiply" opacity="0.2">
<path d="M105.248 83.6106V82.9154L105.769 82.2664L106.291 82.3135V83.0088L105.769 83.6569L105.248 83.6106Z" fill="black"/>
</g>
<path d="M105.769 81.8025L106.291 81.8488L106.713 82.0777V82.773L106.192 83.4211L105.671 83.3748L105.248 83.1459V82.4506L105.769 81.8025Z" fill="#FFB41F"/>
<path d="M105.671 83.3748V82.6795L106.192 82.0305L106.713 82.0777V82.773L106.192 83.4211L105.671 83.3748Z" fill="#C78D18"/>
<path opacity="0.5" d="M105.769 81.8025L106.291 81.8488L106.713 82.0777L106.192 82.0305L105.671 82.6795L105.248 82.4506L105.769 81.8025Z" fill="#FFC656"/>
<path d="M105.769 81.8025L106.192 82.0305L105.671 82.6795L105.248 82.4506L105.769 81.8025Z" fill="#FFC656"/>
<g style="mix-blend-mode:multiply" opacity="0.2">
<path d="M101.442 81.4185V80.7232L101.963 80.0742L102.485 80.1214V80.8167L101.963 81.4648L101.442 81.4185Z" fill="black"/>
</g>
<path d="M101.963 79.6104L102.485 79.6566L102.907 79.8856V80.5808L102.386 81.229L101.864 81.1827L101.442 80.9538V80.2585L101.963 79.6104Z" fill="#FFB41F"/>
<path d="M101.864 81.1827V80.4874L102.386 79.8384L102.907 79.8855V80.5808L102.386 81.2289L101.864 81.1827Z" fill="#C78D18"/>
<path opacity="0.5" d="M101.963 79.6104L102.485 79.6566L102.907 79.8856L102.386 79.8384L101.864 80.4874L101.442 80.2585L101.963 79.6104Z" fill="#FFC656"/>
<path d="M101.963 79.6104L102.386 79.8384L101.864 80.4874L101.442 80.2585L101.963 79.6104Z" fill="#FFC656"/>
<path d="M108.037 74.39C111.34 76.2976 114.331 79.5751 116.496 83.325C118.661 87.0749 120 91.2954 120 95.1105C120 95.7354 119.587 96.3604 118.761 96.8371C117.936 97.3138 116.854 97.5521 115.771 97.5521C114.689 97.5521 113.606 97.3138 112.781 96.8371C111.955 96.3604 111.542 95.7354 111.542 95.1105C111.542 92.644 110.676 89.9066 109.277 87.4829C107.878 85.0593 105.943 82.9486 103.808 81.7149C103.267 81.4029 102.932 80.7325 102.932 79.7791C102.932 78.8258 103.266 77.7696 103.808 76.8317C104.349 75.8946 105.096 75.0767 105.922 74.6001C106.748 74.1234 107.495 74.078 108.036 74.3909L108.037 74.39Z" fill="#FFB41F"/>
<path opacity="0.6" d="M113.051 96.9769V95.1097C113.051 92.4606 112.174 89.484 110.583 86.7277C108.995 83.9766 106.856 81.733 104.562 80.4076L102.945 79.4732C103.006 78.603 103.324 77.6694 103.809 76.8301C104.293 75.9916 104.943 75.2492 105.666 74.7605L107.283 75.695C110.25 77.4079 113.058 80.3845 115.19 84.0778C117.319 87.766 118.492 91.683 118.492 95.1089V96.9769C117.707 97.3585 116.74 97.5513 115.771 97.5513C114.802 97.5513 113.835 97.3585 113.05 96.9769H113.051Z" fill="#FFC656"/>
<path d="M114.559 97.4493V95.1106C114.559 92.2009 113.61 88.9559 111.89 85.975C110.172 82.9984 107.837 80.5585 105.317 79.1028L103.291 77.9334C103.43 77.5571 103.605 77.1859 103.809 76.8318C104.013 76.4777 104.247 76.1408 104.503 75.833L106.529 77.0024C109.27 78.585 111.882 81.3661 113.884 84.8331C115.883 88.2949 116.984 91.9454 116.984 95.1089V97.4493C116.588 97.5171 116.18 97.5514 115.771 97.5514C115.362 97.5514 114.953 97.5171 114.558 97.4493H114.559Z" fill="#FFC656"/>
<path d="M112.781 96.8062C113.606 97.2829 114.688 97.5212 115.771 97.5212C116.853 97.5212 117.936 97.2829 118.761 96.8062C119.587 96.3296 120 95.7046 120 95.0796V98.9195C120 99.5445 119.587 100.169 118.761 100.646C117.936 101.123 116.854 101.361 115.771 101.361C114.689 101.361 113.606 101.123 112.781 100.646C111.955 100.169 111.542 99.5445 111.542 98.9195V95.0796C111.542 95.7046 111.955 96.3296 112.781 96.8062Z" fill="#414E5F"/>
<path opacity="0.6" d="M115.771 97.5214C116.74 97.5214 117.707 97.3285 118.492 96.947V100.787C117.708 101.169 116.74 101.361 115.771 101.361C114.802 101.361 113.835 101.168 113.05 100.787V96.947C113.834 97.3294 114.802 97.5214 115.771 97.5214Z" fill="#5B6879"/>
<path d="M115.771 97.5215C116.18 97.5215 116.589 97.4872 116.984 97.4194V101.259C116.589 101.327 116.18 101.361 115.771 101.361C115.362 101.361 114.953 101.327 114.558 101.259V97.4194C114.953 97.4872 115.362 97.5215 115.771 97.5215Z" fill="#5B6879"/>
<path d="M1.23966 32.3843C2.06526 32.861 3.14719 33.0993 4.22998 33.0993C5.31191 33.0993 6.3947 32.861 7.22029 32.3843C8.04589 31.9077 8.45911 31.2827 8.45911 30.6577V34.4976C8.45911 35.1226 8.04589 35.7476 7.22029 36.2243C6.3947 36.7009 5.31277 36.9393 4.22998 36.9393C3.14805 36.9393 2.06526 36.7009 1.23966 36.2243C0.41407 35.7476 0.00084871 35.1226 0.00084871 34.4976V30.6577C0.00084871 31.2827 0.41407 31.9077 1.23966 32.3843Z" fill="#414E5F"/>
<path opacity="0.6" d="M4.22993 33.0993C5.1987 33.0993 6.16575 32.9064 6.95105 32.5249V36.3648C6.16661 36.7472 5.1987 36.9392 4.22993 36.9392C3.26117 36.9392 2.29412 36.7463 1.50882 36.3648V32.5249C2.29326 32.9073 3.26117 33.0993 4.22993 33.0993Z" fill="#5B6879"/>
<path d="M4.23001 33.0993C4.63895 33.0993 5.04789 33.065 5.44312 32.9973V36.8372C5.04789 36.905 4.63895 36.9392 4.23001 36.9392C3.82107 36.9392 3.41213 36.905 3.01691 36.8372V32.9973C3.41213 33.065 3.82107 33.0993 4.23001 33.0993Z" fill="#5B6879"/>
<path d="M96.4102 61.1919C96.5705 61.0993 96.7805 61.053 96.9906 61.053C97.2006 61.053 97.4107 61.0993 97.571 61.1919C97.7313 61.2845 97.811 61.4053 97.811 61.5271V67.8103C97.811 67.9312 97.7313 68.053 97.571 68.1455C97.4107 68.2381 97.2006 68.2844 96.9906 68.2844C96.7805 68.2844 96.5705 68.2381 96.4102 68.1455C96.2499 68.053 96.1701 67.9321 96.1701 67.8103V61.5271C96.1701 61.4062 96.2499 61.2845 96.4102 61.1919Z" fill="#FFB41F"/>
<path opacity="0.6" d="M97.5187 61.1644V68.173C97.3661 68.2467 97.1783 68.2844 96.9906 68.2844C96.8028 68.2844 96.6151 68.2467 96.4625 68.173V61.1644C96.6151 61.0907 96.8028 61.053 96.9906 61.053C97.1783 61.053 97.3661 61.0907 97.5187 61.1644Z" fill="#FFC656"/>
<path d="M97.2255 61.0727V68.2638C97.1492 68.2767 97.0694 68.2836 96.9906 68.2836C96.9117 68.2836 96.832 68.2767 96.7557 68.2638V61.0727C96.832 61.0598 96.9117 61.053 96.9906 61.053C97.0703 61.053 97.1492 61.0598 97.2255 61.0727Z" fill="#FFC656"/>
<g style="mix-blend-mode:multiply" opacity="0.5">
<path d="M96.4102 61.1919C96.5705 61.0993 96.7805 61.053 96.9906 61.053C97.2006 61.053 97.4107 61.0993 97.571 61.1919C97.7313 61.2845 97.811 61.4053 97.811 61.5271V63.0154C97.4398 63.2348 96.8989 63.4663 96.1701 63.5512V61.5271C96.1701 61.4062 96.2499 61.2845 96.4102 61.1919Z" fill="#C78D18"/>
</g>
<path d="M94.2678 56.0718L95.6832 55.2462C96.1684 54.9659 96.8388 55.0062 97.5787 55.434C98.3194 55.8618 98.989 56.5948 99.4742 57.435C99.9595 58.2751 100.26 59.2224 100.26 60.0772C100.26 60.9319 99.9595 61.5329 99.4742 61.8133L98.0588 62.6388C97.5736 62.9192 96.9031 62.8789 96.1633 62.4511C95.4226 62.0233 94.753 61.2903 94.2678 60.4501C93.7825 59.61 93.4825 58.6626 93.4825 57.8079C93.4825 56.9531 93.7825 56.3522 94.2678 56.0718Z" fill="#2A71C9"/>
<path d="M94.2677 56.0719C94.7529 55.7916 95.4233 55.8319 96.1632 56.2597C96.9039 56.6875 97.5735 57.4205 98.0587 58.2606C98.5439 59.1008 98.844 60.0481 98.844 60.9029C98.844 61.7576 98.5439 62.3586 98.0587 62.6389C97.5735 62.9193 96.903 62.879 96.1632 62.4512C95.4225 62.0234 94.7529 61.2904 94.2677 60.4502C93.7824 59.61 93.4824 58.6627 93.4824 57.808C93.4824 56.9532 93.7824 56.3523 94.2677 56.0719Z" fill="#044BA3"/>
<path opacity="0.5" d="M95.6832 55.2462C96.1684 54.9659 96.8389 55.0062 97.5787 55.434C98.3194 55.8618 98.989 56.5948 99.4742 57.435L98.0588 58.2605C97.5736 57.4204 96.9032 56.6865 96.1633 56.2596C95.4226 55.8318 94.753 55.7915 94.2678 56.0718L95.6832 55.2462Z" fill="#5198F0"/>
<path d="M95.6831 55.2462C96.1683 54.9659 96.8388 55.0062 97.5786 55.434L96.1632 56.2596C95.4225 55.8318 94.7529 55.7915 94.2677 56.0718L95.6831 55.2462Z" fill="#5198F0"/>
<path opacity="0.5" d="M98.8449 60.9037L100.26 60.0781C100.26 60.9329 99.9603 61.5338 99.4751 61.8142L98.0597 62.6398C98.5449 62.3594 98.8449 61.7593 98.8449 60.9037Z" fill="#044BA3"/>
<path d="M94.5592 56.4396C94.9802 56.2296 95.5434 56.2776 96.1641 56.6359C96.8148 57.0114 97.4029 57.6553 97.829 58.3934C98.2551 59.1316 98.5192 59.9632 98.5183 60.7142C98.5183 61.4112 98.2911 61.9161 97.9173 62.181C97.4964 62.3911 96.9331 62.3431 96.3124 61.9847C95.6626 61.6092 95.0736 60.9654 94.6475 60.2272C94.2215 59.4891 93.9574 58.6575 93.9574 57.9065C93.9574 57.2095 94.1846 56.7045 94.5584 56.4396H94.5592Z" fill="#D4DBDF"/>
<path d="M94.4983 56.4714C94.518 56.4603 94.5386 56.45 94.5583 56.4397C94.1845 56.7055 93.9573 57.2096 93.9573 57.9066C93.9573 58.6576 94.2205 59.4892 94.6474 60.2273C95.0735 60.9655 95.6625 61.6093 96.3123 61.9848C96.933 62.3432 97.4963 62.3912 97.9172 62.1811C97.8889 62.2017 97.8589 62.2206 97.8289 62.2386C97.4029 62.4846 96.8139 62.4495 96.164 62.074C95.5142 61.6985 94.9252 61.0546 94.4991 60.3165C94.073 59.5783 93.809 58.7467 93.809 57.9957C93.809 57.2447 94.0722 56.7175 94.4991 56.4714H94.4983Z" fill="#2A71C9"/>
<path opacity="0.5" d="M94.4983 56.4714C94.5181 56.4603 94.5386 56.45 94.5583 56.4397C94.1846 56.7055 93.9574 57.2096 93.9574 57.9066L93.8091 57.9957C93.8091 57.2447 94.0723 56.7175 94.4992 56.4714H94.4983Z" fill="#044BA3"/>
<path opacity="0.5" d="M96.3123 61.9855C96.933 62.3439 97.4963 62.3919 97.9172 62.1819C97.8889 62.2024 97.8589 62.2213 97.8289 62.2393C97.4029 62.4853 96.8139 62.4502 96.164 62.0747C95.5142 61.6992 94.9252 61.0553 94.4991 60.3172L94.6474 60.228C95.0735 60.9662 95.6625 61.61 96.3123 61.9855Z" fill="#5198F0"/>
<path d="M96.3123 61.9856C96.933 62.344 97.4963 62.392 97.9172 62.1819C97.8889 62.2025 97.8589 62.2214 97.8289 62.2394C97.4029 62.4854 96.8139 62.4503 96.164 62.0748L96.3123 61.9856Z" fill="#5198F0"/>
<path d="M95.9823 59.3289C95.936 59.2483 95.9069 59.1583 95.9069 59.076C95.9069 58.9937 95.9352 58.9371 95.9823 58.9097C95.9978 58.9011 96.0158 58.8968 96.0346 58.8951L96.1641 56.9421C96.1641 56.9421 96.2832 58.8805 96.2935 59.0443C96.3124 59.0683 96.3304 59.0923 96.3458 59.1197C96.3921 59.2003 96.4213 59.2903 96.4213 59.3726C96.4213 59.4541 96.393 59.5115 96.3458 59.5389C96.3252 59.5509 96.3012 59.5552 96.2755 59.5544L96.3733 60.2308L95.9566 59.9899L96.0543 59.4258C96.0286 59.3966 96.0046 59.364 95.984 59.3289H95.9823Z" fill="#414E5F"/>
<path d="M96.4264 57.3947L96.4684 57.1453C96.4907 57.1624 96.5138 57.1804 96.5361 57.1984L96.4941 57.4479C96.4718 57.4299 96.4495 57.4119 96.4264 57.3947Z" fill="#414E5F"/>
<path d="M97.8992 60.2264C97.8992 60.2033 97.8992 60.1793 97.8975 60.1553L98.1384 60.2942C98.1384 60.3182 98.1401 60.3413 98.1401 60.3653C98.1401 60.3687 98.1401 60.3713 98.1401 60.3747L97.8992 60.2359C97.8992 60.2359 97.8992 60.2299 97.8992 60.2264Z" fill="#414E5F"/>
<path d="M96.7162 57.6434L96.7985 57.4299C96.8199 57.4514 96.8414 57.4719 96.8628 57.4934L96.7805 57.7068C96.7591 57.6854 96.7376 57.664 96.7162 57.6434Z" fill="#414E5F"/>
<path d="M97.2392 58.2726L97.3935 58.1492C97.4115 58.1757 97.4287 58.2032 97.4467 58.2298L97.2923 58.3532C97.2752 58.3258 97.2572 58.2992 97.2392 58.2726Z" fill="#414E5F"/>
<path d="M96.9905 57.9383L97.1105 57.7668C97.1302 57.7909 97.15 57.8157 97.1697 57.8406L97.0497 58.012C97.0299 57.9872 97.0102 57.9623 96.9905 57.9383Z" fill="#414E5F"/>
<path d="M97.4577 58.6353L97.6421 58.5632C97.6575 58.5915 97.6721 58.6198 97.6866 58.649L97.5023 58.721C97.4878 58.6918 97.4723 58.6635 97.4577 58.6353Z" fill="#414E5F"/>
<path d="M97.8616 59.7883L98.0991 59.8766C98.1034 59.9049 98.1077 59.9332 98.1111 59.9615L97.8745 59.8732C97.871 59.8449 97.8668 59.8166 97.8616 59.7883Z" fill="#414E5F"/>
<path d="M97.7742 59.4043L98.0005 59.4394C98.0091 59.4686 98.0177 59.4986 98.0254 59.5277L97.7991 59.4926C97.7913 59.4635 97.7828 59.4343 97.7742 59.4043Z" fill="#414E5F"/>
<path d="M97.6379 59.0159L97.8462 58.9971C97.8582 59.0262 97.8693 59.0562 97.8813 59.0854L97.673 59.1042C97.6619 59.0751 97.6499 59.0451 97.6379 59.0159Z" fill="#414E5F"/>
<path d="M95.035 57.05L94.8807 56.7482C94.8978 56.7414 94.9158 56.7345 94.9338 56.7285L95.0881 57.0303C95.0701 57.0363 95.053 57.0432 95.035 57.05Z" fill="#414E5F"/>
<path d="M96.1641 57.2197C96.1529 57.2129 96.1409 57.2069 96.1298 57.2009V56.9231C96.1409 56.9291 96.1529 56.9351 96.1641 56.942C96.1752 56.9488 96.1872 56.9557 96.1984 56.9625V57.2403C96.1872 57.2334 96.1752 57.2257 96.1641 57.2197Z" fill="#414E5F"/>
<path d="M94.6553 57.3621L94.447 57.1032C94.4581 57.0869 94.4701 57.0706 94.4821 57.0552L94.6904 57.3149C94.6784 57.3304 94.6664 57.3467 94.6553 57.3629V57.3621Z" fill="#414E5F"/>
<path d="M94.453 57.8979L94.2163 57.7128C94.2198 57.6888 94.2241 57.6647 94.2283 57.6416L94.4658 57.8268C94.4615 57.8499 94.4572 57.8731 94.453 57.8971V57.8979Z" fill="#414E5F"/>
<path d="M94.5292 57.6048L94.3029 57.3794C94.3106 57.3588 94.3192 57.3391 94.3277 57.3193L94.5541 57.5448C94.5455 57.5645 94.5369 57.5843 94.5292 57.6048Z" fill="#414E5F"/>
<path d="M94.8249 57.1754L94.6406 56.8907C94.6552 56.8787 94.6706 56.8676 94.6852 56.8564L94.8695 57.1411C94.8541 57.1522 94.8395 57.1634 94.8249 57.1754Z" fill="#414E5F"/>
<path d="M95.8331 57.0656L95.7911 56.7681C95.8134 56.7758 95.8357 56.7844 95.8589 56.7929L95.9009 57.0904C95.8786 57.081 95.8554 57.0733 95.8331 57.0656Z" fill="#414E5F"/>
<path d="M95.5459 56.9944L95.4636 56.6858C95.4851 56.6884 95.5065 56.6926 95.5279 56.6969L95.6102 57.0056C95.5888 57.0013 95.5674 56.9979 95.5459 56.9944Z" fill="#414E5F"/>
<path d="M95.2776 56.9892L95.1576 56.6797C95.1773 56.678 95.197 56.6754 95.2168 56.6746L95.3368 56.9849C95.3171 56.9858 95.2974 56.9875 95.2776 56.99V56.9892Z" fill="#414E5F"/>
<path d="M94.6664 59.3735L94.4581 59.3923C94.4469 59.3632 94.4349 59.3332 94.4238 59.304L94.6321 59.2852C94.6432 59.3143 94.6544 59.3443 94.6655 59.3735H94.6664Z" fill="#414E5F"/>
<path d="M97.8822 60.4956L98.1196 60.6808C98.1162 60.7048 98.1128 60.7288 98.1085 60.7528L97.8719 60.5676C97.8762 60.5445 97.8796 60.5205 97.883 60.4956H97.8822Z" fill="#414E5F"/>
<path d="M94.5352 58.98L94.3088 58.9449C94.3011 58.9157 94.2934 58.8866 94.2865 58.8574L94.5129 58.8926C94.5197 58.9217 94.5274 58.9509 94.5352 58.98Z" fill="#414E5F"/>
<path d="M94.1889 58.0137L94.4298 58.1526C94.4298 58.1757 94.4281 58.198 94.4281 58.222C94.4281 58.2254 94.4281 58.228 94.4281 58.2314L94.1872 58.0925C94.1872 58.0925 94.1872 58.0865 94.1872 58.0831C94.1872 58.06 94.188 58.0368 94.1889 58.0137Z" fill="#414E5F"/>
<path d="M94.4554 58.5958L94.2188 58.5075C94.2145 58.4792 94.2111 58.4509 94.2077 58.4226L94.4452 58.5109C94.4486 58.5392 94.452 58.5675 94.4563 58.5958H94.4554Z" fill="#414E5F"/>
<path d="M94.843 59.7626L94.6587 59.8346C94.6441 59.8063 94.6295 59.7772 94.615 59.748L94.7993 59.676C94.8139 59.7052 94.8276 59.7335 94.843 59.7626Z" fill="#414E5F"/>
<path d="M97.6952 61.053L97.9036 61.3127C97.8924 61.3299 97.8813 61.3462 97.8693 61.3616L97.6609 61.1027C97.6721 61.0864 97.6841 61.0701 97.6944 61.053H97.6952Z" fill="#414E5F"/>
<path d="M97.5272 61.251L97.7115 61.5356C97.697 61.5485 97.6833 61.5605 97.6678 61.5716L97.4835 61.287C97.4981 61.2758 97.5126 61.263 97.5272 61.251Z" fill="#414E5F"/>
<path d="M97.8144 60.7983L98.0408 61.0238C98.0339 61.0444 98.0262 61.0658 98.0185 61.0855L97.7922 60.8601C97.7999 60.8403 97.8076 60.8189 97.8144 60.7983Z" fill="#414E5F"/>
</svg>
