<svg width="120" height="120" viewBox="0 0 120 120" fill="none" xmlns="http://www.w3.org/2000/svg">
<path d="M44.8815 105.826C44.8815 108.357 46.3573 110.888 49.3095 112.82C52.2618 114.75 56.1309 115.717 60 115.717C63.8691 115.717 67.7382 114.751 70.6904 112.82C73.642 110.889 75.1185 108.357 75.1185 105.827H44.8815V105.826Z" fill="#FF3B30"/>
<path d="M70.1288 111.271C67.3318 112.886 63.6652 113.694 59.9993 113.694C56.3335 113.694 52.6669 112.886 49.8699 111.271C47.0723 109.656 45.6742 107.54 45.6742 105.423V111.73C45.6742 113.846 47.073 115.963 49.8699 117.578C52.6669 119.193 56.3335 120 59.9993 120C63.6652 120 67.3318 119.193 70.1288 117.578C72.9257 115.963 74.3245 113.846 74.3245 111.73V105.423C74.3245 107.54 72.9257 109.656 70.1288 111.271ZM51.7873 115.808C51.7873 115.938 51.7386 116.052 51.6608 116.138C51.557 116.171 51.4397 116.169 51.3288 116.118C50.9092 115.927 50.5037 115.72 50.1158 115.497C49.1062 114.914 48.2832 114.264 47.6467 113.572C47.4418 113.348 47.3273 113.057 47.3273 112.753V111.377C48.4068 112.563 49.9498 113.556 51.7873 114.299V115.809V115.808ZM63.6172 116.624C63.6172 117.145 63.2258 117.581 62.7087 117.639C61.815 117.742 60.9072 117.793 59.9993 117.793C59.0915 117.793 58.1837 117.741 57.2893 117.639C56.7722 117.58 56.3808 117.144 56.3808 116.624V115.525C58.8407 115.896 61.3183 115.872 63.6172 115.524V116.625V116.624ZM72.6735 112.753C72.6735 113.056 72.559 113.348 72.3541 113.571C71.7176 114.263 70.8953 114.913 69.885 115.496C69.4972 115.72 69.0917 115.927 68.672 116.118C68.5604 116.169 68.4438 116.171 68.3393 116.137C68.2616 116.051 68.2128 115.938 68.2128 115.808V114.297C70.0503 113.555 71.594 112.561 72.6728 111.375V112.752L72.6735 112.753Z" fill="#FF3B30"/>
<path d="M70.1288 111.271C67.3318 112.886 63.6652 113.694 59.9993 113.694C56.3335 113.694 52.6669 112.886 49.8699 111.271C47.0723 109.656 45.6742 107.54 45.6742 105.423V111.73C45.6742 113.846 47.073 115.963 49.8699 117.578C52.6669 119.193 56.3335 120 59.9993 120C63.6652 120 67.3318 119.193 70.1288 117.578C72.9257 115.963 74.3245 113.846 74.3245 111.73V105.423C74.3245 107.54 72.9257 109.656 70.1288 111.271ZM51.7873 115.808C51.7873 115.938 51.7386 116.052 51.6608 116.138C51.557 116.171 51.4397 116.169 51.3288 116.118C50.9092 115.927 50.5037 115.72 50.1158 115.497C49.1062 114.914 48.2832 114.264 47.6467 113.572C47.4418 113.348 47.3273 113.057 47.3273 112.753V111.377C48.4068 112.563 49.9498 113.556 51.7873 114.299V115.809V115.808ZM63.6172 116.624C63.6172 117.145 63.2258 117.581 62.7087 117.639C61.815 117.742 60.9072 117.793 59.9993 117.793C59.0915 117.793 58.1837 117.741 57.2893 117.639C56.7722 117.58 56.3808 117.144 56.3808 116.624V115.525C58.8407 115.896 61.3183 115.872 63.6172 115.524V116.625V116.624ZM72.6735 112.753C72.6735 113.056 72.559 113.348 72.3541 113.571C71.7176 114.263 70.8953 114.913 69.885 115.496C69.4972 115.72 69.0917 115.927 68.672 116.118C68.5604 116.169 68.4438 116.171 68.3393 116.137C68.2616 116.051 68.2128 115.938 68.2128 115.808V114.297C70.0503 113.555 71.594 112.561 72.6728 111.375V112.752L72.6735 112.753Z" fill="#DF382E"/>
<path d="M70.1288 111.271C67.3318 112.886 63.6652 113.694 59.9993 113.694C56.3335 113.694 52.6669 112.886 49.8699 111.271C47.0723 109.656 45.6742 107.54 45.6742 105.423V111.73C45.6742 113.846 47.073 115.963 49.8699 117.578C52.6669 119.193 56.3335 120 59.9993 120C63.6652 120 67.3318 119.193 70.1288 117.578C72.9257 115.963 74.3245 113.846 74.3245 111.73V105.423C74.3245 107.54 72.9257 109.656 70.1288 111.271ZM51.7873 115.808C51.7873 115.938 51.7386 116.052 51.6608 116.138C51.557 116.171 51.4397 116.169 51.3288 116.118C50.9092 115.927 50.5037 115.72 50.1158 115.497C49.1062 114.914 48.2832 114.264 47.6467 113.572C47.4418 113.348 47.3273 113.057 47.3273 112.753V111.377C48.4068 112.563 49.9498 113.556 51.7873 114.299V115.809V115.808ZM63.6172 116.624C63.6172 117.145 63.2258 117.581 62.7087 117.639C61.815 117.742 60.9072 117.793 59.9993 117.793C59.0915 117.793 58.1837 117.741 57.2893 117.639C56.7722 117.58 56.3808 117.144 56.3808 116.624V115.525C58.8407 115.896 61.3183 115.872 63.6172 115.524V116.625V116.624ZM72.6735 112.753C72.6735 113.056 72.559 113.348 72.3541 113.571C71.7176 114.263 70.8953 114.913 69.885 115.496C69.4972 115.72 69.0917 115.927 68.672 116.118C68.5604 116.169 68.4438 116.171 68.3393 116.137C68.2616 116.051 68.2128 115.938 68.2128 115.808V114.297C70.0503 113.555 71.594 112.561 72.6728 111.375V112.752L72.6735 112.753Z" fill="url(#paint0_linear_112_43145)" fill-opacity="0.16"/>
<path d="M70.1288 111.271C67.3318 112.886 63.6652 113.694 59.9993 113.694C56.3335 113.694 52.6669 112.886 49.8699 111.271C47.0723 109.656 45.6742 107.54 45.6742 105.423V111.73C45.6742 113.846 47.073 115.963 49.8699 117.578C52.6669 119.193 56.3335 120 59.9993 120C63.6652 120 67.3318 119.193 70.1288 117.578C72.9257 115.963 74.3245 113.846 74.3245 111.73V105.423C74.3245 107.54 72.9257 109.656 70.1288 111.271ZM51.7873 115.808C51.7873 115.938 51.7386 116.052 51.6608 116.138C51.557 116.171 51.4397 116.169 51.3288 116.118C50.9092 115.927 50.5037 115.72 50.1158 115.497C49.1062 114.914 48.2832 114.264 47.6467 113.572C47.4418 113.348 47.3273 113.057 47.3273 112.753V111.377C48.4068 112.563 49.9498 113.556 51.7873 114.299V115.809V115.808ZM63.6172 116.624C63.6172 117.145 63.2258 117.581 62.7087 117.639C61.815 117.742 60.9072 117.793 59.9993 117.793C59.0915 117.793 58.1837 117.741 57.2893 117.639C56.7722 117.58 56.3808 117.144 56.3808 116.624V115.525C58.8407 115.896 61.3183 115.872 63.6172 115.524V116.625V116.624ZM72.6735 112.753C72.6735 113.056 72.559 113.348 72.3541 113.571C71.7176 114.263 70.8953 114.913 69.885 115.496C69.4972 115.72 69.0917 115.927 68.672 116.118C68.5604 116.169 68.4438 116.171 68.3393 116.137C68.2616 116.051 68.2128 115.938 68.2128 115.808V114.297C70.0503 113.555 71.594 112.561 72.6728 111.375V112.752L72.6735 112.753Z" fill="url(#paint1_linear_112_43145)" fill-opacity="0.16"/>
<path d="M70.1288 117.093C67.3318 118.708 63.6652 119.516 59.9993 119.516C56.3335 119.516 52.6669 118.708 49.8699 117.093C47.0723 115.478 45.6742 113.362 45.6742 111.245V111.729C45.6742 113.846 47.073 115.962 49.8699 117.577C52.6669 119.192 56.3335 120 59.9993 120C63.6652 120 67.3318 119.192 70.1288 117.577C72.9257 115.962 74.3245 113.846 74.3245 111.729V111.245C74.3245 113.362 72.9257 115.478 70.1288 117.093Z" fill="#FF3B30"/>
<path d="M70.1288 117.093C67.3318 118.708 63.6652 119.516 59.9993 119.516C56.3335 119.516 52.6669 118.708 49.8699 117.093C47.0723 115.478 45.6742 113.362 45.6742 111.245V111.729C45.6742 113.846 47.073 115.962 49.8699 117.577C52.6669 119.192 56.3335 120 59.9993 120C63.6652 120 67.3318 119.192 70.1288 117.577C72.9257 115.962 74.3245 113.846 74.3245 111.729V111.245C74.3245 113.362 72.9257 115.478 70.1288 117.093Z" fill="url(#paint2_linear_112_43145)" fill-opacity="0.16"/>
<path d="M70.1288 117.093C67.3318 118.708 63.6652 119.516 59.9993 119.516C56.3335 119.516 52.6669 118.708 49.8699 117.093C47.0723 115.478 45.6742 113.362 45.6742 111.245V111.729C45.6742 113.846 47.073 115.962 49.8699 117.577C52.6669 119.192 56.3335 120 59.9993 120C63.6652 120 67.3318 119.192 70.1288 117.577C72.9257 115.962 74.3245 113.846 74.3245 111.729V111.245C74.3245 113.362 72.9257 115.478 70.1288 117.093Z" fill="url(#paint3_linear_112_43145)" fill-opacity="0.16"/>
<g opacity="0.5">
<path d="M70.1288 116.123C67.3318 117.738 63.6652 118.546 59.9993 118.546C56.3335 118.546 52.6669 117.738 49.8699 116.123C47.0723 114.508 45.6742 112.392 45.6742 110.275V110.436C45.6742 112.552 47.073 114.669 49.8699 116.284C52.6669 117.899 56.3335 118.706 59.9993 118.706C63.6652 118.706 67.3318 117.899 70.1288 116.284C72.9257 114.669 74.3245 112.552 74.3245 110.436V110.275C74.3245 112.392 72.9257 114.508 70.1288 116.123Z" fill="#FF3B30"/>
<path d="M70.1288 116.123C67.3318 117.738 63.6652 118.546 59.9993 118.546C56.3335 118.546 52.6669 117.738 49.8699 116.123C47.0723 114.508 45.6742 112.392 45.6742 110.275V110.436C45.6742 112.552 47.073 114.669 49.8699 116.284C52.6669 117.899 56.3335 118.706 59.9993 118.706C63.6652 118.706 67.3318 117.899 70.1288 116.284C72.9257 114.669 74.3245 112.552 74.3245 110.436V110.275C74.3245 112.392 72.9257 114.508 70.1288 116.123Z" fill="url(#paint4_linear_112_43145)" fill-opacity="0.16"/>
<path d="M70.1288 116.123C67.3318 117.738 63.6652 118.546 59.9993 118.546C56.3335 118.546 52.6669 117.738 49.8699 116.123C47.0723 114.508 45.6742 112.392 45.6742 110.275V110.436C45.6742 112.552 47.073 114.669 49.8699 116.284C52.6669 117.899 56.3335 118.706 59.9993 118.706C63.6652 118.706 67.3318 117.899 70.1288 116.284C72.9257 114.669 74.3245 112.552 74.3245 110.436V110.275C74.3245 112.392 72.9257 114.508 70.1288 116.123Z" fill="url(#paint5_linear_112_43145)" fill-opacity="0.16"/>
</g>
<path d="M72.6734 111.376V112.753C72.6734 113.056 72.559 113.348 72.3541 113.571C71.7176 114.263 70.8952 114.913 69.885 115.496C69.4971 115.72 69.0916 115.927 68.672 116.118C68.5604 116.169 68.4438 116.171 68.3392 116.137C68.477 116.291 68.7059 116.354 68.9164 116.258C70.4247 115.566 71.7006 114.696 72.6353 113.682C72.8564 113.442 72.9793 113.128 72.9793 112.801V111.019C72.8818 111.14 72.7787 111.258 72.672 111.375L72.6734 111.376Z" fill="#FF3B30"/>
<path d="M63.6172 115.523V116.624C63.6172 117.145 63.2258 117.581 62.7087 117.639C61.815 117.742 60.9072 117.793 59.9993 117.793C59.0915 117.793 58.1837 117.741 57.2893 117.639C56.7722 117.58 56.3808 117.144 56.3808 116.624V115.525C56.3511 115.521 56.3214 115.516 56.2925 115.512V116.852C56.2925 117.391 56.698 117.841 57.2335 117.902C59.1106 118.116 60.9842 118.106 62.768 117.901C63.3021 117.84 63.7055 117.389 63.7055 116.852V115.511C63.6765 115.516 63.6469 115.52 63.6172 115.524V115.523Z" fill="#FF3B30"/>
<path d="M51.3281 116.118C50.9084 115.927 50.5029 115.72 50.1151 115.497C49.1055 114.914 48.2825 114.264 47.6459 113.572C47.441 113.348 47.3266 113.057 47.3266 112.753V111.377C47.2199 111.259 47.1168 111.141 47.0193 111.021V112.803C47.0193 113.129 47.1422 113.444 47.3633 113.683C48.298 114.697 49.5739 115.567 51.0822 116.259C51.2927 116.356 51.5216 116.291 51.6594 116.139C51.5555 116.172 51.4383 116.17 51.3274 116.119L51.3281 116.118Z" fill="#FF3B30"/>
<path d="M72.6734 111.376V112.753C72.6734 113.056 72.559 113.348 72.3541 113.571C71.7176 114.263 70.8952 114.913 69.885 115.496C69.4971 115.72 69.0916 115.927 68.672 116.118C68.5604 116.169 68.4438 116.171 68.3392 116.137C68.477 116.291 68.7059 116.354 68.9164 116.258C70.4247 115.566 71.7006 114.696 72.6353 113.682C72.8564 113.442 72.9793 113.128 72.9793 112.801V111.019C72.8818 111.14 72.7787 111.258 72.672 111.375L72.6734 111.376Z" fill="#AA2B24"/>
<path d="M63.6172 115.523V116.624C63.6172 117.145 63.2258 117.581 62.7087 117.639C61.815 117.742 60.9072 117.793 59.9993 117.793C59.0915 117.793 58.1837 117.741 57.2893 117.639C56.7722 117.58 56.3808 117.144 56.3808 116.624V115.525C56.3511 115.521 56.3214 115.516 56.2925 115.512V116.852C56.2925 117.391 56.698 117.841 57.2335 117.902C59.1106 118.116 60.9842 118.106 62.768 117.901C63.3021 117.84 63.7055 117.389 63.7055 116.852V115.511C63.6765 115.516 63.6469 115.52 63.6172 115.524V115.523Z" fill="#AA2B24"/>
<path d="M51.3281 116.118C50.9084 115.927 50.5029 115.72 50.1151 115.497C49.1055 114.914 48.2825 114.264 47.6459 113.572C47.441 113.348 47.3266 113.057 47.3266 112.753V111.377C47.2199 111.259 47.1168 111.141 47.0193 111.021V112.803C47.0193 113.129 47.1422 113.444 47.3633 113.683C48.298 114.697 49.5739 115.567 51.0822 116.259C51.2927 116.356 51.5216 116.291 51.6594 116.139C51.5555 116.172 51.4383 116.17 51.3274 116.119L51.3281 116.118Z" fill="#AA2B24"/>
<path d="M71.3241 9.96595C68.1966 7.44242 64.0983 6.18066 59.9986 6.18066C55.8997 6.18066 51.8014 7.44242 48.6739 9.96595C45.5463 12.4895 43.9829 15.7972 43.9829 19.1042V103.855C43.9829 106.688 45.5463 109.521 48.6739 111.682C51.8014 113.843 55.8997 114.924 59.9986 114.924C64.0976 114.924 68.1959 113.843 71.3234 111.682C74.4503 109.521 76.0144 106.688 76.0144 103.855V19.1042C76.0144 15.7972 74.451 12.4888 71.3234 9.96595H71.3241Z" fill="#FF3B30"/>
<path fill-rule="evenodd" clip-rule="evenodd" d="M59.9986 6.18066C64.0983 6.18066 68.1966 7.44242 71.3241 9.96595C74.2562 12.3311 75.8129 15.3867 75.9961 18.4843C76.0083 18.6908 76.0144 18.8975 76.0144 19.1042V103.855V104.48H75.989C75.776 107.101 74.2204 109.68 71.3234 111.682C68.1959 113.843 64.0976 114.924 59.9986 114.924C55.8997 114.924 51.8014 113.843 48.6739 111.682C45.7763 109.68 44.2212 107.101 44.0083 104.48H43.9829V103.855V19.1042C43.9829 15.7972 45.5463 12.4895 48.6739 9.96595C51.8014 7.44242 55.8997 6.18066 59.9986 6.18066Z" fill="#FF3B30"/>
<path fill-rule="evenodd" clip-rule="evenodd" d="M59.9986 6.18066C64.0983 6.18066 68.1966 7.44242 71.3241 9.96595C74.2562 12.3311 75.8129 15.3867 75.9961 18.4843C76.0083 18.6908 76.0144 18.8975 76.0144 19.1042V103.855V104.48H75.989C75.776 107.101 74.2204 109.68 71.3234 111.682C68.1959 113.843 64.0976 114.924 59.9986 114.924C55.8997 114.924 51.8014 113.843 48.6739 111.682C45.7763 109.68 44.2212 107.101 44.0083 104.48H43.9829V103.855V19.1042C43.9829 15.7972 45.5463 12.4895 48.6739 9.96595C51.8014 7.44242 55.8997 6.18066 59.9986 6.18066Z" fill="url(#paint6_linear_112_43145)" fill-opacity="0.16"/>
<path fill-rule="evenodd" clip-rule="evenodd" d="M59.9986 6.18066C64.0983 6.18066 68.1966 7.44242 71.3241 9.96595C74.2562 12.3311 75.8129 15.3867 75.9961 18.4843C76.0083 18.6908 76.0144 18.8975 76.0144 19.1042V103.855V104.48H75.989C75.776 107.101 74.2204 109.68 71.3234 111.682C68.1959 113.843 64.0976 114.924 59.9986 114.924C55.8997 114.924 51.8014 113.843 48.6739 111.682C45.7763 109.68 44.2212 107.101 44.0083 104.48H43.9829V103.855V19.1042C43.9829 15.7972 45.5463 12.4895 48.6739 9.96595C51.8014 7.44242 55.8997 6.18066 59.9986 6.18066Z" fill="url(#paint7_linear_112_43145)" fill-opacity="0.16"/>
<path d="M71.3241 110.394C68.1966 112.2 64.0983 113.102 59.9994 113.102C55.9004 113.102 51.8022 112.2 48.6746 110.394C45.5478 108.589 43.9843 106.223 43.9836 103.857C43.9843 106.689 45.5478 109.521 48.6746 111.682C51.8022 113.843 55.9004 114.924 59.9994 114.924C64.0983 114.924 68.1966 113.843 71.3241 111.682C74.451 109.521 76.0151 106.688 76.0151 103.855C76.0151 106.222 74.4517 108.588 71.3241 110.394Z" fill="#F3392E"/>
<path d="M71.3241 110.394C68.1966 112.2 64.0983 113.102 59.9994 113.102C55.9004 113.102 51.8022 112.2 48.6746 110.394C45.5478 108.589 43.9843 106.223 43.9836 103.857C43.9843 106.689 45.5478 109.521 48.6746 111.682C51.8022 113.843 55.9004 114.924 59.9994 114.924C64.0983 114.924 68.1966 113.843 71.3241 111.682C74.451 109.521 76.0151 106.688 76.0151 103.855C76.0151 106.222 74.4517 108.588 71.3241 110.394Z" fill="url(#paint8_linear_112_43145)" fill-opacity="0.16"/>
<path d="M71.3241 110.394C68.1966 112.2 64.0983 113.102 59.9994 113.102C55.9004 113.102 51.8022 112.2 48.6746 110.394C45.5478 108.589 43.9843 106.223 43.9836 103.857C43.9843 106.689 45.5478 109.521 48.6746 111.682C51.8022 113.843 55.9004 114.924 59.9994 114.924C64.0983 114.924 68.1966 113.843 71.3241 111.682C74.451 109.521 76.0151 106.688 76.0151 103.855C76.0151 106.222 74.4517 108.588 71.3241 110.394Z" fill="url(#paint9_linear_112_43145)" fill-opacity="0.16"/>
<g style="mix-blend-mode:multiply" opacity="0.2">
<path d="M76.0137 23.1804V22.8681C75.3743 24.7149 73.8229 26.4047 71.4887 27.7527C68.4141 29.5274 64.3343 30.5051 60.0007 30.5051H60C55.6658 30.5051 51.5859 29.5281 48.5114 27.7527C46.1772 26.4047 44.6251 24.7149 43.9857 22.8674V23.1797C44.6251 25.0271 46.1765 26.717 48.5114 28.065C51.5859 29.8396 55.6658 30.8174 60 30.8174H60.0007C64.335 30.8174 68.4148 29.8396 71.4887 28.065C73.8229 26.717 75.3743 25.0271 76.0137 23.1804Z" fill="black"/>
</g>
<path d="M76.0136 18.6768V20.3045C76.0136 22.6712 74.4502 25.0371 71.3234 26.8422C68.1965 28.6479 64.0983 29.5501 60 29.5501C55.9018 29.5501 51.8035 28.6472 48.6767 26.8422C45.5498 25.0364 43.9864 22.6704 43.9864 20.3045V18.6775C43.7681 19.3076 43.6558 19.9569 43.6558 20.6167V20.929C43.6558 23.5217 45.3803 25.945 48.5113 27.7528C51.5859 29.5275 55.6658 30.5052 60 30.5052H60.0007C64.3349 30.5052 68.4148 29.5275 71.4887 27.7528C74.6198 25.945 76.3443 23.5217 76.3443 20.929V20.6167C76.3443 19.9569 76.2319 19.3076 76.0136 18.6768Z" fill="#FF3B30"/>
<path d="M76.0136 18.6768V20.3045C76.0136 22.6712 74.4502 25.0371 71.3234 26.8422C68.1965 28.6479 64.0983 29.5501 60 29.5501C55.9018 29.5501 51.8035 28.6472 48.6767 26.8422C45.5498 25.0364 43.9864 22.6704 43.9864 20.3045V18.6775C43.7681 19.3076 43.6558 19.9569 43.6558 20.6167V20.929C43.6558 23.5217 45.3803 25.945 48.5113 27.7528C51.5859 29.5275 55.6658 30.5052 60 30.5052H60.0007C64.3349 30.5052 68.4148 29.5275 71.4887 27.7528C74.6198 25.945 76.3443 23.5217 76.3443 20.929V20.6167C76.3443 19.9569 76.2319 19.3076 76.0136 18.6768Z" fill="#DC2B21"/>
<path d="M76.0136 18.6768V20.3045C76.0136 22.6712 74.4502 25.0371 71.3234 26.8422C68.1965 28.6479 64.0983 29.5501 60 29.5501C55.9018 29.5501 51.8035 28.6472 48.6767 26.8422C45.5498 25.0364 43.9864 22.6704 43.9864 20.3045V18.6775C43.7681 19.3076 43.6558 19.9569 43.6558 20.6167V20.929C43.6558 23.5217 45.3803 25.945 48.5113 27.7528C51.5859 29.5275 55.6658 30.5052 60 30.5052H60.0007C64.3349 30.5052 68.4148 29.5275 71.4887 27.7528C74.6198 25.945 76.3443 23.5217 76.3443 20.929V20.6167C76.3443 19.9569 76.2319 19.3076 76.0136 18.6768Z" fill="url(#paint10_linear_112_43145)" fill-opacity="0.16"/>
<path d="M76.0136 18.6768V20.3045C76.0136 22.6712 74.4502 25.0371 71.3234 26.8422C68.1965 28.6479 64.0983 29.5501 60 29.5501C55.9018 29.5501 51.8035 28.6472 48.6767 26.8422C45.5498 25.0364 43.9864 22.6704 43.9864 20.3045V18.6775C43.7681 19.3076 43.6558 19.9569 43.6558 20.6167V20.929C43.6558 23.5217 45.3803 25.945 48.5113 27.7528C51.5859 29.5275 55.6658 30.5052 60 30.5052H60.0007C64.3349 30.5052 68.4148 29.5275 71.4887 27.7528C74.6198 25.945 76.3443 23.5217 76.3443 20.929V20.6167C76.3443 19.9569 76.2319 19.3076 76.0136 18.6768Z" fill="url(#paint11_linear_112_43145)" fill-opacity="0.16"/>
<g opacity="0.5">
<path d="M76.0136 18.6768V20.3045C76.0136 22.6712 74.4502 25.0371 71.3234 26.8422C68.1965 28.6479 64.0983 29.5501 60 29.5501C55.9018 29.5501 51.8035 28.6472 48.6767 26.8422C45.5498 25.0364 43.9864 22.6704 43.9864 20.3045V18.6775C43.7681 19.3076 43.6558 19.9569 43.6558 20.6167C43.6558 23.2095 45.3803 25.6327 48.5113 27.4406C51.5859 29.2152 55.6658 30.193 60 30.193H60.0007C64.3349 30.193 68.4148 29.2152 71.4887 27.4406C74.6198 25.6327 76.3443 23.2095 76.3443 20.6167C76.3443 19.9569 76.2319 19.3076 76.0136 18.6768Z" fill="#FF3B30"/>
<path d="M76.0136 18.6768V20.3045C76.0136 22.6712 74.4502 25.0371 71.3234 26.8422C68.1965 28.6479 64.0983 29.5501 60 29.5501C55.9018 29.5501 51.8035 28.6472 48.6767 26.8422C45.5498 25.0364 43.9864 22.6704 43.9864 20.3045V18.6775C43.7681 19.3076 43.6558 19.9569 43.6558 20.6167C43.6558 23.2095 45.3803 25.6327 48.5113 27.4406C51.5859 29.2152 55.6658 30.193 60 30.193H60.0007C64.3349 30.193 68.4148 29.2152 71.4887 27.4406C74.6198 25.6327 76.3443 23.2095 76.3443 20.6167C76.3443 19.9569 76.2319 19.3076 76.0136 18.6768Z" fill="url(#paint12_linear_112_43145)" fill-opacity="0.16"/>
<path d="M76.0136 18.6768V20.3045C76.0136 22.6712 74.4502 25.0371 71.3234 26.8422C68.1965 28.6479 64.0983 29.5501 60 29.5501C55.9018 29.5501 51.8035 28.6472 48.6767 26.8422C45.5498 25.0364 43.9864 22.6704 43.9864 20.3045V18.6775C43.7681 19.3076 43.6558 19.9569 43.6558 20.6167C43.6558 23.2095 45.3803 25.6327 48.5113 27.4406C51.5859 29.2152 55.6658 30.193 60 30.193H60.0007C64.3349 30.193 68.4148 29.2152 71.4887 27.4406C74.6198 25.6327 76.3443 23.2095 76.3443 20.6167C76.3443 19.9569 76.2319 19.3076 76.0136 18.6768Z" fill="url(#paint13_linear_112_43145)" fill-opacity="0.16"/>
</g>
<path d="M59.6178 6.64185C57.651 6.64185 55.6848 7.07491 54.1843 7.94105C52.6837 8.80719 51.9335 9.94319 51.9335 11.0785C51.9335 12.2138 52.6837 13.3491 54.1843 14.2159C55.6848 15.0821 57.6517 15.5151 59.6178 15.5151C61.5846 15.5151 63.5507 15.0821 65.0513 14.2159C66.5518 13.3498 67.3021 12.2145 67.3021 11.0785C67.3021 9.94319 66.5518 8.80789 65.0513 7.94105C63.5507 7.07491 61.5839 6.64185 59.6171 6.64185H59.6178Z" fill="#889AA5"/>
<path d="M59.6178 6.61011C57.728 6.61011 55.8382 7.02622 54.3962 7.85915C52.9543 8.69138 52.233 9.78288 52.233 10.8737C52.233 11.9652 52.9543 13.056 54.3962 13.8889C55.8382 14.7211 57.728 15.1379 59.6178 15.1379C61.5076 15.1379 63.3974 14.7218 64.8393 13.8889C66.2812 13.0567 67.0018 11.9652 67.0018 10.8744C67.0018 9.78359 66.2812 8.69208 64.8393 7.85915C63.3974 7.02693 61.5076 6.61011 59.6171 6.61011H59.6178Z" fill="url(#paint14_radial_112_43145)"/>
<path d="M59.1516 8.26538L57.562 9.18309L58.1441 10.4364L60.3151 10.7727L61.9047 9.85495L61.3233 8.60096L59.1516 8.26538Z" fill="#EECF96"/>
<path d="M61.9047 9.85496V10.7211L60.3151 11.6388L58.1441 11.3032L57.562 10.0492V9.18311L58.1441 10.4364L60.3151 10.7727L61.9047 9.85496Z" fill="#C8A970"/>
<path opacity="0.5" d="M58.1441 10.4364L57.562 9.18311V10.0492L58.1441 11.3032L60.3151 11.6388V10.7727L58.1441 10.4364Z" fill="#A2834A"/>
<path d="M57.562 9.18311V10.0492L58.1441 11.3032V10.4364L57.562 9.18311Z" fill="#A2834A"/>
<path d="M60.5709 5.12871C60.3398 5.26223 60.0361 5.32935 59.733 5.32935C59.4299 5.32935 59.1268 5.26223 58.8951 5.12871C58.6641 4.99519 58.5482 4.81998 58.5482 4.64478V9.52862C58.5482 9.70383 58.6641 9.87903 58.8951 10.0126C59.1261 10.1461 59.4299 10.2132 59.733 10.2132C60.0361 10.2132 60.3391 10.1461 60.5709 10.0126C60.8019 9.87903 60.9177 9.70383 60.9177 9.52862V4.64478C60.9177 4.81998 60.8019 4.99519 60.5709 5.12871Z" fill="#C8A970"/>
<path opacity="0.5" d="M59.3515 5.2919C59.1848 5.25941 59.0286 5.20501 58.8958 5.12871C58.6648 4.99519 58.549 4.81998 58.549 4.64478V9.52862C58.549 9.70383 58.6648 9.87903 58.8958 10.0126C59.0286 10.0889 59.1855 10.1433 59.3515 10.1758V5.2919Z" fill="#A2834A"/>
<path opacity="0.5" d="M59.9449 10.2012C60.1406 10.1807 60.3293 10.132 60.4903 10.0543V5.17041C60.3293 5.24812 60.1406 5.29687 59.9449 5.31736V10.2012Z" fill="#EECF96"/>
<path d="M58.9502 5.15624C58.9319 5.14705 58.9135 5.13857 58.8958 5.12798C58.6648 4.99445 58.549 4.81925 58.549 4.64404V9.52789C58.549 9.7031 58.6648 9.8783 58.8958 10.0118C58.9135 10.0217 58.9319 10.0302 58.9502 10.0401V5.15624Z" fill="#A2834A"/>
<g style="mix-blend-mode:multiply" opacity="0.2">
<path d="M58.5489 4.89404V5.46063C58.5863 5.48819 58.6273 5.51574 58.6718 5.54117C58.965 5.71073 59.3493 5.7948 59.7337 5.7948C60.118 5.7948 60.5023 5.71002 60.7955 5.54117C60.84 5.51574 60.8803 5.48889 60.9184 5.46063V4.89404C60.881 4.9216 60.84 4.94915 60.7955 4.97458C60.7785 4.98447 60.7595 4.99295 60.7418 5.00284C60.6945 5.04735 60.6379 5.08974 60.5708 5.12859C60.3398 5.26211 60.036 5.32923 59.7329 5.32923C59.4299 5.32923 59.1268 5.26211 58.8951 5.12859C58.8279 5.08974 58.7721 5.04735 58.7241 5.00284C58.7064 4.99366 58.6874 4.98447 58.6704 4.97458C58.6259 4.94915 58.5856 4.9223 58.5475 4.89404H58.5489Z" fill="black"/>
</g>
<path d="M60.7955 2.85099C60.5023 3.02054 60.118 3.10461 59.7337 3.10461C59.3493 3.10461 58.965 3.01983 58.6718 2.85028C58.3786 2.68073 58.2317 2.45889 58.2317 2.23706V4.64401C58.2317 4.86585 58.3786 5.08768 58.6718 5.25723C58.965 5.42679 59.3493 5.51156 59.7337 5.51156C60.118 5.51156 60.5023 5.42679 60.7955 5.25794C61.0887 5.08839 61.2356 4.86655 61.2356 4.64472V2.23777C61.2356 2.4596 61.0887 2.68143 60.7955 2.85099Z" fill="#C8A970"/>
<path opacity="0.5" d="M59.0901 3.02057C58.939 2.97888 58.7963 2.92307 58.6712 2.85101C58.378 2.68146 58.2311 2.45963 58.2311 2.23779V4.64475C58.2311 4.86658 58.378 5.08841 58.6712 5.25797C58.7963 5.33003 58.939 5.38584 59.0901 5.42752V3.02057Z" fill="#A2834A"/>
<path d="M59.9449 5.50249C60.2289 5.47918 60.5038 5.40924 60.7313 5.29196V2.88501C60.5031 3.00228 60.2289 3.07293 59.9449 3.09554V5.50249Z" fill="#EECF96"/>
<path d="M58.5914 2.80085C58.3519 2.63907 58.2311 2.43843 58.2311 2.23779V4.64475C58.2311 4.84539 58.3512 5.04602 58.5914 5.20781V2.80085Z" fill="#A2834A"/>
<path d="M62.3484 7.46984C62.1965 7.38223 61.9874 7.39495 61.7563 7.52847C61.5253 7.662 61.3155 7.89089 61.1643 8.1537C61.0124 8.41651 60.9192 8.71252 60.9192 8.97957C60.9192 9.24662 61.0131 9.43454 61.1643 9.52214C61.3162 9.60974 61.5253 9.59703 61.7563 9.4635C61.9874 9.32998 62.1972 9.10108 62.3484 8.83827C62.5003 8.57547 62.5935 8.27945 62.5935 8.01241C62.5935 7.74536 62.4996 7.55744 62.3484 7.46984Z" fill="#C8A970"/>
<g style="mix-blend-mode:multiply" opacity="0.7">
<path d="M62.13 7.84718C62.0339 7.79207 61.9018 7.79984 61.7556 7.88391C61.6093 7.96869 61.4772 8.11352 61.3811 8.27954C61.285 8.44556 61.2257 8.63277 61.2257 8.80162C61.2257 8.97047 61.285 9.08916 61.3811 9.14426C61.4772 9.19937 61.6093 9.19159 61.7556 9.10682C61.9018 9.02204 62.0339 8.87721 62.13 8.71119C62.2261 8.54517 62.2854 8.35796 62.2854 8.18911C62.2854 8.02026 62.2261 7.90157 62.13 7.84647V7.84718Z" fill="#A2834A"/>
</g>
<path d="M62.3483 7.46991L60.9184 6.64404L60.6196 6.81501C60.1498 7.06863 59.7336 7.04461 59.2963 7.2721C59.0272 7.41198 58.8958 7.5448 58.8958 7.81184C58.8958 8.07889 58.9897 8.26681 59.1409 8.35441L61.1635 9.52221C61.0116 9.43461 60.9184 9.24669 60.9184 8.97964C60.9184 8.7126 61.0124 8.41658 61.1635 8.15378C61.3154 7.89097 61.5246 7.66207 61.7556 7.52855C61.9866 7.39502 62.1964 7.38231 62.3476 7.46991C62.3617 7.47839 62.3759 7.48686 62.3886 7.49746C62.3751 7.48757 62.3617 7.47839 62.3476 7.46991H62.3483Z" fill="#C8A970"/>
<path opacity="0.5" d="M60.9177 6.64404L60.6189 6.81501C60.2897 6.99304 59.9873 7.03472 59.6849 7.12162L61.2462 8.02308C61.3875 7.81608 61.5635 7.63946 61.7556 7.52855C61.9866 7.39502 62.1964 7.38231 62.3476 7.46991C62.3618 7.47839 62.3759 7.48686 62.3886 7.49746C62.3752 7.48757 62.3618 7.47839 62.3476 7.46991L60.9177 6.64404Z" fill="#EECF96"/>
<path opacity="0.5" d="M59.1536 7.35474C58.9805 7.46918 58.8958 7.59706 58.8958 7.81182C58.8958 8.07887 58.9897 8.26679 59.1409 8.3544L61.1635 9.52219C61.0116 9.43459 60.9184 9.24667 60.9184 8.97962C60.9184 8.80513 60.9587 8.61862 61.0286 8.43705L59.1536 7.35474Z" fill="#A2834A"/>
<path d="M58.8993 7.74192C58.8972 7.76382 58.8958 7.78713 58.8958 7.81115C58.8958 8.0782 58.9897 8.26612 59.1409 8.35372L61.1635 9.52152C61.0116 9.43392 60.9184 9.246 60.9184 8.97895C60.9184 8.95564 60.9191 8.93232 60.9205 8.9083L58.8993 7.74121V7.74192Z" fill="#A2834A"/>
<path d="M61.4497 7.77236C61.5444 7.67416 61.6482 7.5908 61.7563 7.52863C61.7789 7.51521 61.8016 7.5039 61.8242 7.4926L60.6352 6.80591L60.6196 6.81439C60.4487 6.90693 60.2848 6.96204 60.1244 7.00655L61.4497 7.77166V7.77236Z" fill="#EECF96"/>
<path d="M63.2541 2.92723L63.2569 2.19603C63.259 2.06392 63.1467 1.93039 62.9037 1.85621L62.2247 1.64851C61.9542 1.56585 61.7507 1.43374 61.6355 1.27832L61.6525 1.20979C61.6603 1.17729 61.6617 1.1455 61.6567 1.11583L61.6596 0.372621C61.6483 0.0511757 60.9595 -0.128269 60.5342 0.109813L59.9824 0.418542C59.5882 0.639668 58.9955 0.69336 58.5023 0.554184L57.8128 0.359198C57.3515 0.2285 56.8704 0.431964 56.8548 0.689121L56.8591 1.42809C56.8443 1.49662 56.8633 1.57009 56.9248 1.64286L57.2144 1.98409C57.1629 2.03425 57.1014 2.08158 57.0286 2.12467L56.4938 2.44329C56.3603 2.52312 56.3024 2.6185 56.3045 2.71105V3.47474C56.3017 3.69092 56.6224 3.89651 57.0633 3.86048L57.8234 3.7976C58.3674 3.75309 58.9015 3.90993 59.1587 4.1904L59.5182 4.58249C59.8143 4.90535 60.6493 4.82835 60.7581 4.46946L60.8902 4.03286C60.9849 3.7206 61.4088 3.47545 61.9499 3.42105L62.7066 3.34475C63.0859 3.3066 63.283 3.11232 63.2534 2.92864L63.2541 2.92723Z" fill="#889AA5"/>
<path d="M57.8128 0.359288L58.5023 0.554275C58.9955 0.694157 59.5882 0.639759 59.9824 0.418632L60.5342 0.109904C60.9884 -0.144427 61.7415 0.0774056 61.6525 0.43912L61.5444 0.87784C61.4667 1.19222 61.7394 1.50024 62.2247 1.6486L62.9037 1.8563C63.4625 2.02727 63.3304 2.50979 62.7073 2.57196L61.9506 2.64826C61.4095 2.70266 60.9856 2.94781 60.8909 3.26007L60.7588 3.69667C60.65 4.05626 59.815 4.13256 59.5189 3.8097L59.1594 3.41761C58.9022 3.13714 58.3681 2.9803 57.8241 3.02481L57.064 3.08769C56.438 3.13926 56.0537 2.70407 56.4938 2.44197L57.0286 2.12335C57.4108 1.89587 57.5048 1.55393 57.2632 1.26852L56.9248 0.870069C56.6464 0.542265 57.2448 0.1968 57.8121 0.357876L57.8128 0.359288Z" fill="#AEC0CB"/>
<path d="M60.8916 1.18589C60.5419 0.983838 60.0827 0.882812 59.6242 0.882812C59.1657 0.882812 58.7065 0.983838 58.3568 1.18589C58.0071 1.38794 57.8319 1.65287 57.8319 1.9178C57.8319 2.18272 58.0071 2.44765 58.3568 2.6497C58.5808 2.77899 58.8485 2.86588 59.1325 2.91251C58.8817 2.868 58.6451 2.78888 58.4458 2.67372C58.1209 2.4858 57.9577 2.23995 57.9577 1.99339C57.9577 1.74754 58.1201 1.50098 58.4458 1.31305C58.7708 1.12513 59.1975 1.03117 59.6235 1.03117C60.0502 1.03117 60.4762 1.12513 60.8012 1.31305C61.1262 1.50098 61.2894 1.74683 61.2894 1.99339C61.2894 2.23924 61.1269 2.4858 60.8012 2.67372C60.6027 2.78817 60.366 2.868 60.1145 2.91251C60.3985 2.86588 60.667 2.77828 60.8902 2.6497C61.2399 2.44765 61.4151 2.18272 61.4151 1.9178C61.4151 1.65287 61.2399 1.38794 60.8902 1.18589H60.8916Z" fill="#62747F"/>
<path d="M59.6241 1.41113C59.3995 1.41113 59.1755 1.46059 59.0039 1.55949C58.8329 1.6584 58.7467 1.78768 58.7467 1.91767C58.7467 2.04696 58.8322 2.17695 59.0039 2.27586C59.1748 2.37476 59.3995 2.42421 59.6241 2.42421C59.8488 2.42421 60.0728 2.37476 60.2444 2.27586C60.4154 2.17695 60.5016 2.04766 60.5016 1.91767C60.5016 1.78839 60.4161 1.6584 60.2444 1.55949C60.0735 1.46059 59.8488 1.41113 59.6241 1.41113Z" fill="#62747F"/>
<path d="M60.1738 0.674373C60.0219 0.58677 59.8234 0.542969 59.6242 0.542969C59.4249 0.542969 59.2264 0.58677 59.0745 0.674373C58.9226 0.761975 58.847 0.87713 58.847 0.991579V1.91706C58.847 2.03221 58.9226 2.14666 59.0745 2.23426C59.2264 2.32187 59.4249 2.36567 59.6242 2.36567C59.8234 2.36567 60.0219 2.32187 60.1738 2.23426C60.3257 2.14666 60.4013 2.03151 60.4013 1.91706V0.991579C60.4013 0.876424 60.3257 0.761975 60.1738 0.674373Z" fill="#889AA5"/>
<path d="M59.6242 0.542969C59.4249 0.542969 59.2264 0.58677 59.0745 0.674373C58.9226 0.761975 58.847 0.87713 58.847 0.991579C58.847 1.10603 58.9226 1.22118 59.0745 1.30879C59.2264 1.39639 59.4249 1.44019 59.6242 1.44019C59.8234 1.44019 60.0219 1.39639 60.1738 1.30879C60.3257 1.22118 60.4013 1.10603 60.4013 0.991579C60.4013 0.876424 60.3257 0.761975 60.1738 0.674373C60.0219 0.58677 59.8234 0.542969 59.6242 0.542969Z" fill="#AEC0CB"/>
<path opacity="0.5" d="M58.8463 0.991699V1.91718C58.8463 2.03233 58.9219 2.14678 59.0738 2.23438C59.2257 2.32199 59.4242 2.36579 59.6234 2.36579V1.44031C59.4242 1.44031 59.2257 1.39651 59.0738 1.30891C58.9219 1.2213 58.8463 1.10615 58.8463 0.991699Z" fill="#62747F"/>
<path opacity="0.5" d="M60.1738 1.30939V2.23487C60.3257 2.14727 60.4013 2.03212 60.4013 1.91767V0.992188C60.4013 1.10734 60.3257 1.22179 60.1738 1.30939Z" fill="#62747F"/>
<path d="M59.2356 1.38004C59.1784 1.36097 59.124 1.33765 59.0745 1.30939C58.9226 1.22179 58.847 1.10664 58.847 0.992188V1.91767C58.847 2.03282 58.9226 2.14727 59.0745 2.23487C59.124 2.26313 59.1784 2.28645 59.2356 2.30552V1.38004Z" fill="#62747F"/>
<path d="M61.6574 1.11675L61.6602 0.373535C61.6609 0.394729 61.6588 0.417337 61.6531 0.439237L61.545 0.877957C61.5104 1.01713 61.545 1.15489 61.6369 1.27853L61.6538 1.21C61.6616 1.1775 61.663 1.14571 61.6581 1.11604L61.6574 1.11675Z" fill="#62747F"/>
<path d="M61.6376 1.28115C61.6376 1.28115 61.6362 1.27973 61.6362 1.27832C61.6362 1.27832 61.6376 1.28044 61.6384 1.28115H61.6376Z" fill="#62747F"/>
<path d="M56.9255 1.64292L57.2151 1.98415C57.2151 1.98415 57.208 1.99051 57.2045 1.99333C57.4334 1.77715 57.4624 1.50445 57.2632 1.2699L56.9255 0.871453C56.8732 0.80999 56.852 0.74782 56.8555 0.688477L56.8598 1.42745C56.8449 1.49597 56.864 1.56945 56.9255 1.64222V1.64292Z" fill="#62747F"/>
<path opacity="0.5" d="M59.9746 4.00831C59.793 3.98853 59.6228 3.92424 59.5196 3.81121L59.16 3.41911C59.0004 3.24461 58.7326 3.11816 58.4225 3.05811V3.82957C58.7326 3.88962 58.9997 4.01608 59.16 4.19058L59.5196 4.58267C59.6235 4.69571 59.793 4.75929 59.9746 4.77978V4.00831Z" fill="#62747F"/>
<path d="M59.16 3.41902C59.0802 3.33142 58.9728 3.25583 58.847 3.19507V3.96654C58.9728 4.02729 59.0802 4.10289 59.16 4.19049L59.5196 4.58258V3.81111L59.16 3.41902Z" fill="#62747F"/>
<path opacity="0.5" d="M57.0017 3.09196C56.5941 3.10467 56.3037 2.90969 56.3058 2.7041C56.3058 2.70622 56.3058 2.70905 56.3058 2.71117V3.47486C56.303 3.68045 56.5941 3.87614 57.0024 3.86342V3.09196H57.0017Z" fill="#62747F"/>
<path opacity="0.5" d="M61.29 2.83838C61.0851 2.94788 60.941 3.09412 60.8908 3.26085L60.7587 3.69745C60.7361 3.77234 60.6817 3.83521 60.6075 3.88396V4.65543C60.6817 4.60597 60.7361 4.5438 60.7587 4.46892L60.8908 4.03232C60.941 3.8663 61.0851 3.71935 61.29 3.60985V2.83838Z" fill="#62747F"/>
<path d="M61.0527 3.00928C60.975 3.08558 60.9184 3.16965 60.8916 3.26078L60.8153 3.51299V4.28446L60.8916 4.03225C60.9191 3.94182 60.975 3.85705 61.0527 3.78075V3.00928Z" fill="#62747F"/>
<path opacity="0.5" d="M63.2568 2.19971C63.254 2.30709 63.1756 2.41306 63.0308 2.48583V3.25659C63.1947 3.17393 63.2738 3.04889 63.254 2.92808L63.2568 2.19971Z" fill="#62747F"/>
<path d="M56.6188 3.03473C56.4245 2.96408 56.3044 2.83621 56.3058 2.7041C56.3058 2.70622 56.3058 2.70905 56.3058 2.71117V3.47486C56.3037 3.60768 56.4245 3.73555 56.6195 3.80691V3.03544L56.6188 3.03473Z" fill="#62747F"/>
<path d="M60.9481 61.4297C59.5754 62.5706 57.2787 64.4809 53.6552 66.8392C54.9685 68.3023 57.1663 70.7516 60.9834 73.9018C63.095 72.0734 65.3953 70.0077 68.2424 66.6526C66.2325 65.3796 64.0142 63.9278 60.9481 61.4304V61.4297ZM60.982 73.391C58.5715 71.374 56.782 69.7541 54.2295 66.9755C56.5432 65.4198 58.2995 64.1567 60.9502 61.9412C62.8407 63.4601 64.5362 64.7826 67.6751 66.8045C65.5847 69.1507 63.976 70.8138 60.9827 73.391H60.982Z" fill="white"/>
<path d="M63.5013 68.2302C63.3112 68.1574 63.4016 67.9314 63.5154 67.7194C63.7499 67.2828 63.6447 66.4591 63.2865 65.9208C63.1671 66.1454 63.0074 66.4443 62.888 66.6689C62.8209 65.3669 62.2331 64.784 62.0791 64.6986C62.113 65.1034 62.0403 65.333 61.8213 65.5181C61.6941 64.8194 61.4935 64.6357 61.2603 64.423C60.7397 63.9476 60.6167 63.6862 60.7333 63.3047C60.5475 63.4297 60.4253 63.5965 60.3709 63.7992C60.2578 64.2182 60.3504 64.6562 60.255 65.0772C60.0685 64.7968 59.8756 64.5071 59.4842 64.4244C59.7781 64.7866 59.7506 65.4437 59.4016 66.3955C59.16 65.8515 58.8555 65.7703 58.7559 65.7434C58.9777 66.334 58.6824 66.9077 58.6965 67.4912C58.5637 67.3711 58.3871 67.2101 58.2543 67.09C58.3603 67.5463 58.2818 67.6749 58.2564 67.7166C58.1469 67.8961 58.0967 68.8145 58.51 69.4333C58.8322 69.9159 59.7167 70.2677 60.2953 70.1433C59.1261 69.3712 58.9763 69.2723 58.9558 68.3828C59.0914 68.4379 59.2716 68.5107 59.4072 68.5658C59.3069 68.0543 59.5492 67.634 59.6291 67.4955C59.639 67.9992 59.7767 68.6908 60.3772 69.1274C60.1837 68.8095 60.0141 68.2874 60.308 67.6036C60.5164 68.149 60.775 68.3984 60.8597 68.4803C61.1028 67.983 61.3585 67.2461 61.1939 66.5615C61.7252 67.1444 61.8735 67.7413 61.6347 68.3355C62.053 68.1002 62.1738 67.6947 62.2134 67.5612C62.5249 68.0359 62.2925 68.44 62.2162 68.5722C62.308 68.4895 62.4302 68.38 62.5221 68.298C62.5291 68.912 62.2833 69.7117 61.0752 70.0409C62.8174 70.6061 63.8926 69.066 63.74 67.7915C63.6687 67.9236 63.5733 68.0995 63.502 68.2309L63.5013 68.2302Z" fill="white"/>
<path d="M58.8958 70.2655V70.4541C60.1568 70.5254 61.4285 70.517 62.6881 70.4301V70.2415C61.4278 70.3284 60.1561 70.3361 58.8958 70.2655Z" fill="white"/>
<defs>
<linearGradient id="paint0_linear_112_43145" x1="60.0006" y1="112.973" x2="46.2724" y2="110.11" gradientUnits="userSpaceOnUse">
<stop stop-opacity="0"/>
<stop offset="1"/>
</linearGradient>
<linearGradient id="paint1_linear_112_43145" x1="60.895" y1="113.442" x2="74.3116" y2="113.442" gradientUnits="userSpaceOnUse">
<stop stop-opacity="0"/>
<stop offset="1"/>
</linearGradient>
<linearGradient id="paint2_linear_112_43145" x1="60.0006" y1="115.779" x2="47.2165" y2="111.341" gradientUnits="userSpaceOnUse">
<stop stop-opacity="0"/>
<stop offset="1"/>
</linearGradient>
<linearGradient id="paint3_linear_112_43145" x1="60.895" y1="116.061" x2="74.3116" y2="116.061" gradientUnits="userSpaceOnUse">
<stop stop-opacity="0"/>
<stop offset="1"/>
</linearGradient>
<linearGradient id="paint4_linear_112_43145" x1="60.0006" y1="114.642" x2="47.3232" y2="110.071" gradientUnits="userSpaceOnUse">
<stop stop-opacity="0"/>
<stop offset="1"/>
</linearGradient>
<linearGradient id="paint5_linear_112_43145" x1="60.895" y1="114.913" x2="74.3116" y2="114.913" gradientUnits="userSpaceOnUse">
<stop stop-opacity="0"/>
<stop offset="1"/>
</linearGradient>
<linearGradient id="paint6_linear_112_43145" x1="60" y1="62.5005" x2="44" y2="62.0005" gradientUnits="userSpaceOnUse">
<stop stop-opacity="0"/>
<stop offset="1"/>
</linearGradient>
<linearGradient id="paint7_linear_112_43145" x1="61" y1="66.0005" x2="76" y2="66.0005" gradientUnits="userSpaceOnUse">
<stop stop-opacity="0"/>
<stop offset="1"/>
</linearGradient>
<linearGradient id="paint8_linear_112_43145" x1="60.0007" y1="109.588" x2="45.3647" y2="105.094" gradientUnits="userSpaceOnUse">
<stop stop-opacity="0"/>
<stop offset="1"/>
</linearGradient>
<linearGradient id="paint9_linear_112_43145" x1="61.0007" y1="109.944" x2="76.0007" y2="109.944" gradientUnits="userSpaceOnUse">
<stop stop-opacity="0"/>
<stop offset="1"/>
</linearGradient>
<linearGradient id="paint10_linear_112_43145" x1="60.0014" y1="24.8029" x2="44.951" y2="20.3903" gradientUnits="userSpaceOnUse">
<stop stop-opacity="0"/>
<stop offset="1"/>
</linearGradient>
<linearGradient id="paint11_linear_112_43145" x1="61.0219" y1="25.1836" x2="76.3296" y2="25.1836" gradientUnits="userSpaceOnUse">
<stop stop-opacity="0"/>
<stop offset="1"/>
</linearGradient>
<linearGradient id="paint12_linear_112_43145" x1="60.0014" y1="24.6412" x2="45.0162" y2="20.1286" gradientUnits="userSpaceOnUse">
<stop stop-opacity="0"/>
<stop offset="1"/>
</linearGradient>
<linearGradient id="paint13_linear_112_43145" x1="61.0219" y1="25.0119" x2="76.3296" y2="25.0119" gradientUnits="userSpaceOnUse">
<stop stop-opacity="0"/>
<stop offset="1"/>
</linearGradient>
<radialGradient id="paint14_radial_112_43145" cx="0" cy="0" r="1" gradientUnits="userSpaceOnUse" gradientTransform="translate(60.0001 10.0005) rotate(90) scale(6 6)">
<stop stop-color="#AEC0CB"/>
<stop offset="1" stop-color="#889AA5"/>
</radialGradient>
</defs>
</svg>
