<svg width="120" height="120" viewBox="0 0 120 120" fill="none" xmlns="http://www.w3.org/2000/svg">
<path d="M70.3856 91.051C67.5175 92.7067 63.759 93.5349 60.0005 93.5349C56.242 93.5349 52.4835 92.7073 49.6155 91.0516C46.7474 89.3959 45.3137 87.226 45.3137 85.0554V91.521C45.3137 93.691 46.7474 95.8609 49.6155 97.5172C52.4829 99.173 56.242 100.001 60.0005 100.001C63.759 100.001 67.5175 99.1724 70.3856 97.5166C73.253 95.8609 74.6867 93.691 74.6867 91.521V85.0554C74.6867 87.2253 73.253 89.3953 70.3856 91.051ZM51.5815 95.703C51.5815 95.8367 51.5313 95.9535 51.4515 96.0412C51.345 96.0751 51.2252 96.0732 51.1109 96.0212C50.6802 95.8252 50.2646 95.6129 49.8671 95.3836C48.8321 94.7859 47.9882 94.1193 47.336 93.4097C47.1255 93.181 47.0088 92.8816 47.0088 92.5712V91.1593C48.1152 92.3758 49.6971 93.3939 51.5815 94.155V95.703ZM63.71 96.5397C63.71 97.0732 63.3089 97.5203 62.7784 97.5808C61.8619 97.6854 60.9315 97.7386 60.0005 97.7386C59.0695 97.7386 58.1391 97.6854 57.2226 97.5808C56.6927 97.5203 56.2916 97.0732 56.2916 96.5397V95.4126C58.8136 95.7932 61.3538 95.7684 63.71 95.4114V96.5397ZM72.9941 92.5706C72.9941 92.8816 72.8773 93.1804 72.6668 93.4091C72.0147 94.1187 71.1708 94.7853 70.1357 95.383C69.7383 95.6123 69.3227 95.8246 68.892 96.0206C68.7776 96.0726 68.6578 96.0751 68.5514 96.0406C68.4721 95.9523 68.4213 95.8355 68.4213 95.7024V94.1544C70.3057 93.3933 71.8876 92.3752 72.9941 91.1587V92.5706Z" fill="#FFB710"/>
<path d="M70.3856 91.051C67.5175 92.7067 63.759 93.5349 60.0005 93.5349C56.242 93.5349 52.4835 92.7073 49.6155 91.0516C46.7474 89.3959 45.3137 87.226 45.3137 85.0554V91.521C45.3137 93.691 46.7474 95.8609 49.6155 97.5172C52.4829 99.173 56.242 100.001 60.0005 100.001C63.759 100.001 67.5175 99.1724 70.3856 97.5166C73.253 95.8609 74.6867 93.691 74.6867 91.521V85.0554C74.6867 87.2253 73.253 89.3953 70.3856 91.051ZM51.5815 95.703C51.5815 95.8367 51.5313 95.9535 51.4515 96.0412C51.345 96.0751 51.2252 96.0732 51.1109 96.0212C50.6802 95.8252 50.2646 95.6129 49.8671 95.3836C48.8321 94.7859 47.9882 94.1193 47.336 93.4097C47.1255 93.181 47.0088 92.8816 47.0088 92.5712V91.1593C48.1152 92.3758 49.6971 93.3939 51.5815 94.155V95.703ZM63.71 96.5397C63.71 97.0732 63.3089 97.5203 62.7784 97.5808C61.8619 97.6854 60.9315 97.7386 60.0005 97.7386C59.0695 97.7386 58.1391 97.6854 57.2226 97.5808C56.6927 97.5203 56.2916 97.0732 56.2916 96.5397V95.4126C58.8136 95.7932 61.3538 95.7684 63.71 95.4114V96.5397ZM72.9941 92.5706C72.9941 92.8816 72.8773 93.1804 72.6668 93.4091C72.0147 94.1187 71.1708 94.7853 70.1357 95.383C69.7383 95.6123 69.3227 95.8246 68.892 96.0206C68.7776 96.0726 68.6578 96.0751 68.5514 96.0406C68.4721 95.9523 68.4213 95.8355 68.4213 95.7024V94.1544C70.3057 93.3933 71.8876 92.3752 72.9941 91.1587V92.5706Z" fill="#DF382E"/>
<path d="M70.3856 91.051C67.5175 92.7067 63.759 93.5349 60.0005 93.5349C56.242 93.5349 52.4835 92.7073 49.6155 91.0516C46.7474 89.3959 45.3137 87.226 45.3137 85.0554V91.521C45.3137 93.691 46.7474 95.8609 49.6155 97.5172C52.4829 99.173 56.242 100.001 60.0005 100.001C63.759 100.001 67.5175 99.1724 70.3856 97.5166C73.253 95.8609 74.6867 93.691 74.6867 91.521V85.0554C74.6867 87.2253 73.253 89.3953 70.3856 91.051ZM51.5815 95.703C51.5815 95.8367 51.5313 95.9535 51.4515 96.0412C51.345 96.0751 51.2252 96.0732 51.1109 96.0212C50.6802 95.8252 50.2646 95.6129 49.8671 95.3836C48.8321 94.7859 47.9882 94.1193 47.336 93.4097C47.1255 93.181 47.0088 92.8816 47.0088 92.5712V91.1593C48.1152 92.3758 49.6971 93.3939 51.5815 94.155V95.703ZM63.71 96.5397C63.71 97.0732 63.3089 97.5203 62.7784 97.5808C61.8619 97.6854 60.9315 97.7386 60.0005 97.7386C59.0695 97.7386 58.1391 97.6854 57.2226 97.5808C56.6927 97.5203 56.2916 97.0732 56.2916 96.5397V95.4126C58.8136 95.7932 61.3538 95.7684 63.71 95.4114V96.5397ZM72.9941 92.5706C72.9941 92.8816 72.8773 93.1804 72.6668 93.4091C72.0147 94.1187 71.1708 94.7853 70.1357 95.383C69.7383 95.6123 69.3227 95.8246 68.892 96.0206C68.7776 96.0726 68.6578 96.0751 68.5514 96.0406C68.4721 95.9523 68.4213 95.8355 68.4213 95.7024V94.1544C70.3057 93.3933 71.8876 92.3752 72.9941 91.1587V92.5706Z" fill="url(#paint0_linear_112_43403)" fill-opacity="0.16"/>
<path d="M70.3856 91.051C67.5175 92.7067 63.759 93.5349 60.0005 93.5349C56.242 93.5349 52.4835 92.7073 49.6155 91.0516C46.7474 89.3959 45.3137 87.226 45.3137 85.0554V91.521C45.3137 93.691 46.7474 95.8609 49.6155 97.5172C52.4829 99.173 56.242 100.001 60.0005 100.001C63.759 100.001 67.5175 99.1724 70.3856 97.5166C73.253 95.8609 74.6867 93.691 74.6867 91.521V85.0554C74.6867 87.2253 73.253 89.3953 70.3856 91.051ZM51.5815 95.703C51.5815 95.8367 51.5313 95.9535 51.4515 96.0412C51.345 96.0751 51.2252 96.0732 51.1109 96.0212C50.6802 95.8252 50.2646 95.6129 49.8671 95.3836C48.8321 94.7859 47.9882 94.1193 47.336 93.4097C47.1255 93.181 47.0088 92.8816 47.0088 92.5712V91.1593C48.1152 92.3758 49.6971 93.3939 51.5815 94.155V95.703ZM63.71 96.5397C63.71 97.0732 63.3089 97.5203 62.7784 97.5808C61.8619 97.6854 60.9315 97.7386 60.0005 97.7386C59.0695 97.7386 58.1391 97.6854 57.2226 97.5808C56.6927 97.5203 56.2916 97.0732 56.2916 96.5397V95.4126C58.8136 95.7932 61.3538 95.7684 63.71 95.4114V96.5397ZM72.9941 92.5706C72.9941 92.8816 72.8773 93.1804 72.6668 93.4091C72.0147 94.1187 71.1708 94.7853 70.1357 95.383C69.7383 95.6123 69.3227 95.8246 68.892 96.0206C68.7776 96.0726 68.6578 96.0751 68.5514 96.0406C68.4721 95.9523 68.4213 95.8355 68.4213 95.7024V94.1544C70.3057 93.3933 71.8876 92.3752 72.9941 91.1587V92.5706Z" fill="url(#paint1_linear_112_43403)" fill-opacity="0.16"/>
<path d="M70.3856 97.0205C67.5175 98.6762 63.759 99.5044 60.0005 99.5044C56.242 99.5044 52.4835 98.6768 49.6155 97.0211C46.7474 95.3654 45.3137 93.1954 45.3137 91.0249V91.521C45.3137 93.6909 46.7474 95.8608 49.6155 97.5171C52.4829 99.1729 56.242 100.001 60.0005 100C63.759 100 67.5175 99.1723 70.3856 97.5165C73.253 95.8608 74.6867 93.6909 74.6867 91.521V91.0249C74.6867 93.1948 73.253 95.3648 70.3856 97.0205Z" fill="#FF3B30"/>
<path d="M70.3856 97.0205C67.5175 98.6762 63.759 99.5044 60.0005 99.5044C56.242 99.5044 52.4835 98.6768 49.6155 97.0211C46.7474 95.3654 45.3137 93.1954 45.3137 91.0249V91.521C45.3137 93.6909 46.7474 95.8608 49.6155 97.5171C52.4829 99.1729 56.242 100.001 60.0005 100C63.759 100 67.5175 99.1723 70.3856 97.5165C73.253 95.8608 74.6867 93.6909 74.6867 91.521V91.0249C74.6867 93.1948 73.253 95.3648 70.3856 97.0205Z" fill="url(#paint2_linear_112_43403)" fill-opacity="0.16"/>
<path d="M70.3856 97.0205C67.5175 98.6762 63.759 99.5044 60.0005 99.5044C56.242 99.5044 52.4835 98.6768 49.6155 97.0211C46.7474 95.3654 45.3137 93.1954 45.3137 91.0249V91.521C45.3137 93.6909 46.7474 95.8608 49.6155 97.5171C52.4829 99.1729 56.242 100.001 60.0005 100C63.759 100 67.5175 99.1723 70.3856 97.5165C73.253 95.8608 74.6867 93.6909 74.6867 91.521V91.0249C74.6867 93.1948 73.253 95.3648 70.3856 97.0205Z" fill="url(#paint3_linear_112_43403)" fill-opacity="0.16"/>
<g opacity="0.5">
<path d="M70.3856 96.0261C67.5175 97.6818 63.759 98.51 60.0005 98.51C56.242 98.51 52.4835 97.6824 49.6155 96.0267C46.7474 94.371 45.3137 92.2011 45.3137 90.0305V90.1951C45.3137 92.365 46.7474 94.5349 49.6155 96.1913C52.4829 97.847 56.242 98.6751 60.0005 98.6745C63.759 98.6745 67.5175 97.8464 70.3856 96.1907C73.253 94.5349 74.6867 92.365 74.6867 90.1951V90.0305C74.6867 92.2004 73.253 94.3704 70.3856 96.0261Z" fill="#FF3B30"/>
<path d="M70.3856 96.0261C67.5175 97.6818 63.759 98.51 60.0005 98.51C56.242 98.51 52.4835 97.6824 49.6155 96.0267C46.7474 94.371 45.3137 92.2011 45.3137 90.0305V90.1951C45.3137 92.365 46.7474 94.5349 49.6155 96.1913C52.4829 97.847 56.242 98.6751 60.0005 98.6745C63.759 98.6745 67.5175 97.8464 70.3856 96.1907C73.253 94.5349 74.6867 92.365 74.6867 90.1951V90.0305C74.6867 92.2004 73.253 94.3704 70.3856 96.0261Z" fill="url(#paint4_linear_112_43403)" fill-opacity="0.16"/>
<path d="M70.3856 96.0261C67.5175 97.6818 63.759 98.51 60.0005 98.51C56.242 98.51 52.4835 97.6824 49.6155 96.0267C46.7474 94.371 45.3137 92.2011 45.3137 90.0305V90.1951C45.3137 92.365 46.7474 94.5349 49.6155 96.1913C52.4829 97.847 56.242 98.6751 60.0005 98.6745C63.759 98.6745 67.5175 97.8464 70.3856 96.1907C73.253 94.5349 74.6867 92.365 74.6867 90.1951V90.0305C74.6867 92.2004 73.253 94.3704 70.3856 96.0261Z" fill="url(#paint5_linear_112_43403)" fill-opacity="0.16"/>
</g>
<path d="M72.9942 91.1593V92.5713C72.9942 92.8822 72.8775 93.181 72.6669 93.4097C72.0148 94.1193 71.1709 94.786 70.1359 95.3836C69.7384 95.6129 69.3228 95.8253 68.8921 96.0213C68.7778 96.0733 68.658 96.0757 68.5515 96.0412C68.6931 96.1979 68.9278 96.2638 69.1438 96.1646C70.69 95.4556 71.9979 94.5627 72.9567 93.5241C73.1836 93.2778 73.31 92.956 73.31 92.6215V90.7939C73.2102 90.918 73.1043 91.0389 72.9948 91.1593H72.9942Z" fill="#DE7B04"/>
<path d="M63.7101 95.4114V96.5396C63.7101 97.0732 63.309 97.5202 62.7785 97.5807C61.862 97.6854 60.9316 97.7386 60.0006 97.7386C59.0696 97.7386 58.1392 97.6854 57.2227 97.5807C56.6927 97.5202 56.2917 97.0732 56.2917 96.5396V95.4126C56.2614 95.4077 56.2312 95.4041 56.2009 95.3993V96.7731C56.2009 97.3254 56.6171 97.787 57.1652 97.8493C59.0895 98.0689 61.0108 98.0574 62.8396 97.8481C63.387 97.7852 63.8008 97.323 63.8008 96.7719V95.3975C63.7706 95.4023 63.7403 95.4059 63.7107 95.4108L63.7101 95.4114Z" fill="#DE7B04"/>
<path d="M51.1109 96.0213C50.6802 95.8253 50.2646 95.6129 49.8671 95.3836C48.8321 94.786 47.9882 94.1193 47.3361 93.4097C47.1255 93.181 47.0088 92.8816 47.0088 92.5713V91.1593C46.8999 91.0396 46.7934 90.918 46.6936 90.7939V92.6215C46.6936 92.956 46.82 93.2778 47.0469 93.5241C48.0057 94.5633 49.3136 95.4556 50.8598 96.1646C51.0758 96.2638 51.3105 96.1979 51.4521 96.0412C51.3456 96.0751 51.2258 96.0733 51.1115 96.0213H51.1109Z" fill="#DE7B04"/>
<path d="M72.9942 91.1593V92.5713C72.9942 92.8822 72.8775 93.181 72.6669 93.4097C72.0148 94.1193 71.1709 94.786 70.1359 95.3836C69.7384 95.6129 69.3228 95.8253 68.8921 96.0213C68.7778 96.0733 68.658 96.0757 68.5515 96.0412C68.6931 96.1979 68.9278 96.2638 69.1438 96.1646C70.69 95.4556 71.9979 94.5627 72.9567 93.5241C73.1836 93.2778 73.31 92.956 73.31 92.6215V90.7939C73.2102 90.918 73.1043 91.0389 72.9948 91.1593H72.9942Z" fill="#AA2B24"/>
<path d="M63.7101 95.4114V96.5396C63.7101 97.0732 63.309 97.5202 62.7785 97.5807C61.862 97.6854 60.9316 97.7386 60.0006 97.7386C59.0696 97.7386 58.1392 97.6854 57.2227 97.5807C56.6927 97.5202 56.2917 97.0732 56.2917 96.5396V95.4126C56.2614 95.4077 56.2312 95.4041 56.2009 95.3993V96.7731C56.2009 97.3254 56.6171 97.787 57.1652 97.8493C59.0895 98.0689 61.0108 98.0574 62.8396 97.8481C63.387 97.7852 63.8008 97.323 63.8008 96.7719V95.3975C63.7706 95.4023 63.7403 95.4059 63.7107 95.4108L63.7101 95.4114Z" fill="#AA2B24"/>
<path d="M51.1109 96.0213C50.6802 95.8253 50.2646 95.6129 49.8671 95.3836C48.8321 94.786 47.9882 94.1193 47.3361 93.4097C47.1255 93.181 47.0088 92.8816 47.0088 92.5713V91.1593C46.8999 91.0396 46.7934 90.918 46.6936 90.7939V92.6215C46.6936 92.956 46.82 93.2778 47.0469 93.5241C48.0057 94.5633 49.3136 95.4556 50.8598 96.1646C51.0758 96.2638 51.3105 96.1979 51.4521 96.0412C51.3456 96.0751 51.2258 96.0733 51.1115 96.0213H51.1109Z" fill="#AA2B24"/>
<path d="M71.6111 34.3194C68.4049 31.7321 64.2029 30.4387 60.0004 30.4387C55.7985 30.4387 51.5959 31.7321 48.3903 34.3194C45.1842 36.9068 43.5811 40.2975 43.5811 43.6882V83.448C43.5811 86.3523 45.1842 89.2561 48.3903 91.472C51.5965 93.6879 55.7985 94.7955 60.001 94.7955C64.2035 94.7955 68.4055 93.6879 71.6117 91.472C74.8179 89.2567 76.421 86.3523 76.421 83.4486V43.6888C76.421 40.2981 74.8179 36.9068 71.6123 34.3194H71.6111Z" fill="#FFB710"/>
<path d="M71.6111 34.3194C68.4049 31.7321 64.2029 30.4387 60.0004 30.4387C55.7985 30.4387 51.5959 31.7321 48.3903 34.3194C45.1842 36.9068 43.5811 40.2975 43.5811 43.6882V83.448C43.5811 86.3523 45.1842 89.2561 48.3903 91.472C51.5965 93.6879 55.7985 94.7955 60.001 94.7955C64.2035 94.7955 68.4055 93.6879 71.6117 91.472C74.8179 89.2567 76.421 86.3523 76.421 83.4486V43.6888C76.421 40.2981 74.8179 36.9068 71.6123 34.3194H71.6111Z" fill="#FF3B30"/>
<path d="M71.6111 34.3194C68.4049 31.7321 64.2029 30.4387 60.0004 30.4387C55.7985 30.4387 51.5959 31.7321 48.3903 34.3194C45.1842 36.9068 43.5811 40.2975 43.5811 43.6882V83.448C43.5811 86.3523 45.1842 89.2561 48.3903 91.472C51.5965 93.6879 55.7985 94.7955 60.001 94.7955C64.2035 94.7955 68.4055 93.6879 71.6117 91.472C74.8179 89.2567 76.421 86.3523 76.421 83.4486V43.6888C76.421 40.2981 74.8179 36.9068 71.6123 34.3194H71.6111Z" fill="url(#paint6_linear_112_43403)" fill-opacity="0.16"/>
<path d="M71.6111 34.3194C68.4049 31.7321 64.2029 30.4387 60.0004 30.4387C55.7985 30.4387 51.5959 31.7321 48.3903 34.3194C45.1842 36.9068 43.5811 40.2975 43.5811 43.6882V83.448C43.5811 86.3523 45.1842 89.2561 48.3903 91.472C51.5965 93.6879 55.7985 94.7955 60.001 94.7955C64.2035 94.7955 68.4055 93.6879 71.6117 91.472C74.8179 89.2567 76.421 86.3523 76.421 83.4486V43.6888C76.421 40.2981 74.8179 36.9068 71.6123 34.3194H71.6111Z" fill="url(#paint7_linear_112_43403)" fill-opacity="0.16"/>
<path d="M76.4199 42.0205V43.6889C76.4199 46.1154 74.8168 48.5412 71.6106 50.3923C68.4044 52.2434 64.2025 53.169 59.9999 53.169C55.798 53.169 51.5955 52.2434 48.3893 50.3923C45.1831 48.5412 43.58 46.1148 43.58 43.6889V42.0211C43.3561 42.6678 43.2412 43.3326 43.2412 44.0096V44.3296C43.2412 46.9883 45.0095 49.4728 48.2199 51.3263C51.3722 53.146 55.5554 54.1484 59.9999 54.1484H60.0005C64.4444 54.1484 68.6276 53.146 71.78 51.3263C74.9904 49.4728 76.7587 46.9877 76.7587 44.3296V44.0096C76.7587 43.3326 76.6437 42.6672 76.4199 42.0205Z" fill="#FFB710"/>
<path d="M76.4199 42.0205V43.6889C76.4199 46.1154 74.8168 48.5412 71.6106 50.3923C68.4044 52.2434 64.2025 53.169 59.9999 53.169C55.798 53.169 51.5955 52.2434 48.3893 50.3923C45.1831 48.5412 43.58 46.1148 43.58 43.6889V42.0211C43.3561 42.6678 43.2412 43.3326 43.2412 44.0096V44.3296C43.2412 46.9883 45.0095 49.4728 48.2199 51.3263C51.3722 53.146 55.5554 54.1484 59.9999 54.1484H60.0005C64.4444 54.1484 68.6276 53.146 71.78 51.3263C74.9904 49.4728 76.7587 46.9877 76.7587 44.3296V44.0096C76.7587 43.3326 76.6437 42.6672 76.4199 42.0205Z" fill="#F53A30" fill-opacity="0.96"/>
<path d="M76.4199 42.0205V43.6889C76.4199 46.1154 74.8168 48.5412 71.6106 50.3923C68.4044 52.2434 64.2025 53.169 59.9999 53.169C55.798 53.169 51.5955 52.2434 48.3893 50.3923C45.1831 48.5412 43.58 46.1148 43.58 43.6889V42.0211C43.3561 42.6678 43.2412 43.3326 43.2412 44.0096V44.3296C43.2412 46.9883 45.0095 49.4728 48.2199 51.3263C51.3722 53.146 55.5554 54.1484 59.9999 54.1484H60.0005C64.4444 54.1484 68.6276 53.146 71.78 51.3263C74.9904 49.4728 76.7587 46.9877 76.7587 44.3296V44.0096C76.7587 43.3326 76.6437 42.6672 76.4199 42.0205Z" fill="url(#paint8_linear_112_43403)" fill-opacity="0.16"/>
<path d="M76.4199 42.0205V43.6889C76.4199 46.1154 74.8168 48.5412 71.6106 50.3923C68.4044 52.2434 64.2025 53.169 59.9999 53.169C55.798 53.169 51.5955 52.2434 48.3893 50.3923C45.1831 48.5412 43.58 46.1148 43.58 43.6889V42.0211C43.3561 42.6678 43.2412 43.3326 43.2412 44.0096V44.3296C43.2412 46.9883 45.0095 49.4728 48.2199 51.3263C51.3722 53.146 55.5554 54.1484 59.9999 54.1484H60.0005C64.4444 54.1484 68.6276 53.146 71.78 51.3263C74.9904 49.4728 76.7587 46.9877 76.7587 44.3296V44.0096C76.7587 43.3326 76.6437 42.6672 76.4199 42.0205Z" fill="url(#paint9_linear_112_43403)" fill-opacity="0.16"/>
<g opacity="0.5">
<path d="M76.4199 42.0205V43.6889C76.4199 46.1154 74.8168 48.5412 71.6106 50.3923C68.4044 52.2434 64.2025 53.169 59.9999 53.169C55.798 53.169 51.5955 52.2434 48.3893 50.3923C45.1831 48.5412 43.58 46.1148 43.58 43.6889V42.0211C43.3561 42.6678 43.2412 43.3326 43.2412 44.0096C43.2412 46.6683 45.0095 49.1528 48.2199 51.0063C51.3722 52.826 55.5554 53.8284 59.9999 53.8284H60.0005C64.4444 53.8284 68.6276 52.826 71.78 51.0063C74.9904 49.1528 76.7587 46.6677 76.7587 44.0096C76.7587 43.3326 76.6437 42.6672 76.4199 42.0205Z" fill="#D5372E"/>
<path d="M76.4199 42.0205V43.6889C76.4199 46.1154 74.8168 48.5412 71.6106 50.3923C68.4044 52.2434 64.2025 53.169 59.9999 53.169C55.798 53.169 51.5955 52.2434 48.3893 50.3923C45.1831 48.5412 43.58 46.1148 43.58 43.6889V42.0211C43.3561 42.6678 43.2412 43.3326 43.2412 44.0096C43.2412 46.6683 45.0095 49.1528 48.2199 51.0063C51.3722 52.826 55.5554 53.8284 59.9999 53.8284H60.0005C64.4444 53.8284 68.6276 52.826 71.78 51.0063C74.9904 49.1528 76.7587 46.6677 76.7587 44.0096C76.7587 43.3326 76.6437 42.6672 76.4199 42.0205Z" fill="url(#paint10_linear_112_43403)" fill-opacity="0.16"/>
<path d="M76.4199 42.0205V43.6889C76.4199 46.1154 74.8168 48.5412 71.6106 50.3923C68.4044 52.2434 64.2025 53.169 59.9999 53.169C55.798 53.169 51.5955 52.2434 48.3893 50.3923C45.1831 48.5412 43.58 46.1148 43.58 43.6889V42.0211C43.3561 42.6678 43.2412 43.3326 43.2412 44.0096C43.2412 46.6683 45.0095 49.1528 48.2199 51.0063C51.3722 52.826 55.5554 53.8284 59.9999 53.8284H60.0005C64.4444 53.8284 68.6276 52.826 71.78 51.0063C74.9904 49.1528 76.7587 46.6677 76.7587 44.0096C76.7587 43.3326 76.6437 42.6672 76.4199 42.0205Z" fill="url(#paint11_linear_112_43403)" fill-opacity="0.16"/>
</g>
<path d="M76.4199 77.2358V78.9043C76.4199 81.3307 74.8168 83.7565 71.6106 85.6076C68.4044 87.4588 64.2025 88.3843 59.9999 88.3843C55.798 88.3843 51.5955 87.4588 48.3893 85.6076C45.1831 83.7565 43.58 81.3301 43.58 78.9043V77.2364C43.3561 77.8831 43.2412 78.548 43.2412 79.2249V79.5449C43.2412 82.2036 45.0095 84.6881 48.2199 86.5417C51.3722 88.3613 55.5554 89.3637 59.9999 89.3637H60.0005C64.4444 89.3637 68.6276 88.3613 71.78 86.5417C74.9904 84.6881 76.7587 82.203 76.7587 79.5449V79.2249C76.7587 78.548 76.6437 77.8825 76.4199 77.2358Z" fill="#FFB710"/>
<path d="M76.4199 77.2358V78.9043C76.4199 81.3307 74.8168 83.7565 71.6106 85.6076C68.4044 87.4588 64.2025 88.3843 59.9999 88.3843C55.798 88.3843 51.5955 87.4588 48.3893 85.6076C45.1831 83.7565 43.58 81.3301 43.58 78.9043V77.2364C43.3561 77.8831 43.2412 78.548 43.2412 79.2249V79.5449C43.2412 82.2036 45.0095 84.6881 48.2199 86.5417C51.3722 88.3613 55.5554 89.3637 59.9999 89.3637H60.0005C64.4444 89.3637 68.6276 88.3613 71.78 86.5417C74.9904 84.6881 76.7587 82.203 76.7587 79.5449V79.2249C76.7587 78.548 76.6437 77.8825 76.4199 77.2358Z" fill="#F53A30" fill-opacity="0.96"/>
<path d="M76.4199 77.2358V78.9043C76.4199 81.3307 74.8168 83.7565 71.6106 85.6076C68.4044 87.4588 64.2025 88.3843 59.9999 88.3843C55.798 88.3843 51.5955 87.4588 48.3893 85.6076C45.1831 83.7565 43.58 81.3301 43.58 78.9043V77.2364C43.3561 77.8831 43.2412 78.548 43.2412 79.2249V79.5449C43.2412 82.2036 45.0095 84.6881 48.2199 86.5417C51.3722 88.3613 55.5554 89.3637 59.9999 89.3637H60.0005C64.4444 89.3637 68.6276 88.3613 71.78 86.5417C74.9904 84.6881 76.7587 82.203 76.7587 79.5449V79.2249C76.7587 78.548 76.6437 77.8825 76.4199 77.2358Z" fill="url(#paint12_linear_112_43403)" fill-opacity="0.16"/>
<path d="M76.4199 77.2358V78.9043C76.4199 81.3307 74.8168 83.7565 71.6106 85.6076C68.4044 87.4588 64.2025 88.3843 59.9999 88.3843C55.798 88.3843 51.5955 87.4588 48.3893 85.6076C45.1831 83.7565 43.58 81.3301 43.58 78.9043V77.2364C43.3561 77.8831 43.2412 78.548 43.2412 79.2249V79.5449C43.2412 82.2036 45.0095 84.6881 48.2199 86.5417C51.3722 88.3613 55.5554 89.3637 59.9999 89.3637H60.0005C64.4444 89.3637 68.6276 88.3613 71.78 86.5417C74.9904 84.6881 76.7587 82.203 76.7587 79.5449V79.2249C76.7587 78.548 76.6437 77.8825 76.4199 77.2358Z" fill="url(#paint13_linear_112_43403)" fill-opacity="0.16"/>
<g opacity="0.5">
<path d="M76.4199 77.2358V78.9043C76.4199 81.3307 74.8168 83.7565 71.6106 85.6076C68.4044 87.4588 64.2025 88.3843 59.9999 88.3843C55.798 88.3843 51.5955 87.4588 48.3893 85.6076C45.1831 83.7565 43.58 81.3301 43.58 78.9043V77.2364C43.3561 77.8831 43.2412 78.548 43.2412 79.2249C43.2412 81.8836 45.0095 84.3681 48.2199 86.2217C51.3722 88.0413 55.5554 89.0437 59.9999 89.0437H60.0005C64.4444 89.0437 68.6276 88.0413 71.78 86.2217C74.9904 84.3681 76.7587 81.883 76.7587 79.2249C76.7587 78.548 76.6437 77.8825 76.4199 77.2358Z" fill="#D5372E"/>
<path d="M76.4199 77.2358V78.9043C76.4199 81.3307 74.8168 83.7565 71.6106 85.6076C68.4044 87.4588 64.2025 88.3843 59.9999 88.3843C55.798 88.3843 51.5955 87.4588 48.3893 85.6076C45.1831 83.7565 43.58 81.3301 43.58 78.9043V77.2364C43.3561 77.8831 43.2412 78.548 43.2412 79.2249C43.2412 81.8836 45.0095 84.3681 48.2199 86.2217C51.3722 88.0413 55.5554 89.0437 59.9999 89.0437H60.0005C64.4444 89.0437 68.6276 88.0413 71.78 86.2217C74.9904 84.3681 76.7587 81.883 76.7587 79.2249C76.7587 78.548 76.6437 77.8825 76.4199 77.2358Z" fill="url(#paint14_linear_112_43403)" fill-opacity="0.16"/>
<path d="M76.4199 77.2358V78.9043C76.4199 81.3307 74.8168 83.7565 71.6106 85.6076C68.4044 87.4588 64.2025 88.3843 59.9999 88.3843C55.798 88.3843 51.5955 87.4588 48.3893 85.6076C45.1831 83.7565 43.58 81.3301 43.58 78.9043V77.2364C43.3561 77.8831 43.2412 78.548 43.2412 79.2249C43.2412 81.8836 45.0095 84.3681 48.2199 86.2217C51.3722 88.0413 55.5554 89.0437 59.9999 89.0437H60.0005C64.4444 89.0437 68.6276 88.0413 71.78 86.2217C74.9904 84.3681 76.7587 81.883 76.7587 79.2249C76.7587 78.548 76.6437 77.8825 76.4199 77.2358Z" fill="url(#paint15_linear_112_43403)" fill-opacity="0.16"/>
</g>
<path d="M70.7049 31.2573C70.7049 30.5362 70.4871 29.8447 70.0891 29.2029C69.5585 28.3475 68.7055 27.5798 67.6148 26.9501C67.2906 26.7626 66.9446 26.5877 66.5804 26.4262C66.3511 26.3246 66.2023 26.0989 66.2023 25.8485V22.7748C66.2023 22.6877 66.2295 22.6096 66.2737 22.5455C66.3741 22.5007 66.4933 22.4959 66.6058 22.5485C66.8847 22.6786 67.1515 22.8171 67.4043 22.9635C69.2597 24.0349 70.4067 25.5146 70.4067 27.1491L70.7043 27.1394C70.7043 27.1425 70.7043 27.1455 70.7043 27.1491V26.1219C70.7043 24.4402 69.5234 22.9175 67.6142 21.8147C65.705 20.7125 63.0681 20.0308 60.1547 20.0308C57.2413 20.0308 54.6043 20.7125 52.6951 21.8147C50.786 22.9169 49.6051 24.4396 49.6051 26.1219V27.1491C49.6051 27.1461 49.6051 27.1431 49.6051 27.1394L49.9027 27.1491C49.9027 25.5146 51.0503 24.0349 52.9051 22.9635C53.1585 22.8171 53.4253 22.6786 53.7036 22.5485C53.8161 22.4959 53.9353 22.5007 54.0357 22.5455C54.0799 22.6096 54.1071 22.6877 54.1071 22.7748V25.8485C54.1071 26.0989 53.9577 26.3246 53.729 26.4262C53.3648 26.5877 53.0188 26.7632 52.6945 26.9501C51.6038 27.5798 50.7515 28.3469 50.2203 29.2029C49.8223 29.8447 49.6045 30.5362 49.6045 31.2573V36.6461C49.6045 34.9644 50.7853 33.4417 52.6945 32.3389C54.6037 31.2367 57.2407 30.5549 60.1541 30.5549C63.0669 30.5549 65.7044 31.2367 67.6136 32.3389C69.5228 33.4411 70.7037 34.9638 70.7037 36.6461V31.2573H70.7049Z" fill="#D22A20"/>
<path d="M70.7049 31.2573C70.7049 30.5362 70.4871 29.8447 70.0891 29.2029C69.5585 28.3475 68.7055 27.5798 67.6148 26.9501C67.2906 26.7626 66.9446 26.5877 66.5804 26.4262C66.3511 26.3246 66.2023 26.0989 66.2023 25.8485V22.7748C66.2023 22.6877 66.2295 22.6096 66.2737 22.5455C66.3741 22.5007 66.4933 22.4959 66.6058 22.5485C66.8847 22.6786 67.1515 22.8171 67.4043 22.9635C69.2597 24.0349 70.4067 25.5146 70.4067 27.1491L70.7043 27.1394C70.7043 27.1425 70.7043 27.1455 70.7043 27.1491V26.1219C70.7043 24.4402 69.5234 22.9175 67.6142 21.8147C65.705 20.7125 63.0681 20.0308 60.1547 20.0308C57.2413 20.0308 54.6043 20.7125 52.6951 21.8147C50.786 22.9169 49.6051 24.4396 49.6051 26.1219V27.1491C49.6051 27.1461 49.6051 27.1431 49.6051 27.1394L49.9027 27.1491C49.9027 25.5146 51.0503 24.0349 52.9051 22.9635C53.1585 22.8171 53.4253 22.6786 53.7036 22.5485C53.8161 22.4959 53.9353 22.5007 54.0357 22.5455C54.0799 22.6096 54.1071 22.6877 54.1071 22.7748V25.8485C54.1071 26.0989 53.9577 26.3246 53.729 26.4262C53.3648 26.5877 53.0188 26.7632 52.6945 26.9501C51.6038 27.5798 50.7515 28.3469 50.2203 29.2029C49.8223 29.8447 49.6045 30.5362 49.6045 31.2573V36.6461C49.6045 34.9644 50.7853 33.4417 52.6945 32.3389C54.6037 31.2367 57.2407 30.5549 60.1541 30.5549C63.0669 30.5549 65.7044 31.2367 67.6136 32.3389C69.5228 33.4411 70.7037 34.9638 70.7037 36.6461V31.2573H70.7049Z" fill="url(#paint16_linear_112_43403)" fill-opacity="0.16"/>
<path d="M70.7049 31.2573C70.7049 30.5362 70.4871 29.8447 70.0891 29.2029C69.5585 28.3475 68.7055 27.5798 67.6148 26.9501C67.2906 26.7626 66.9446 26.5877 66.5804 26.4262C66.3511 26.3246 66.2023 26.0989 66.2023 25.8485V22.7748C66.2023 22.6877 66.2295 22.6096 66.2737 22.5455C66.3741 22.5007 66.4933 22.4959 66.6058 22.5485C66.8847 22.6786 67.1515 22.8171 67.4043 22.9635C69.2597 24.0349 70.4067 25.5146 70.4067 27.1491L70.7043 27.1394C70.7043 27.1425 70.7043 27.1455 70.7043 27.1491V26.1219C70.7043 24.4402 69.5234 22.9175 67.6142 21.8147C65.705 20.7125 63.0681 20.0308 60.1547 20.0308C57.2413 20.0308 54.6043 20.7125 52.6951 21.8147C50.786 22.9169 49.6051 24.4396 49.6051 26.1219V27.1491C49.6051 27.1461 49.6051 27.1431 49.6051 27.1394L49.9027 27.1491C49.9027 25.5146 51.0503 24.0349 52.9051 22.9635C53.1585 22.8171 53.4253 22.6786 53.7036 22.5485C53.8161 22.4959 53.9353 22.5007 54.0357 22.5455C54.0799 22.6096 54.1071 22.6877 54.1071 22.7748V25.8485C54.1071 26.0989 53.9577 26.3246 53.729 26.4262C53.3648 26.5877 53.0188 26.7632 52.6945 26.9501C51.6038 27.5798 50.7515 28.3469 50.2203 29.2029C49.8223 29.8447 49.6045 30.5362 49.6045 31.2573V36.6461C49.6045 34.9644 50.7853 33.4417 52.6945 32.3389C54.6037 31.2367 57.2407 30.5549 60.1541 30.5549C63.0669 30.5549 65.7044 31.2367 67.6136 32.3389C69.5228 33.4411 70.7037 34.9638 70.7037 36.6461V31.2573H70.7049Z" fill="url(#paint17_linear_112_43403)" fill-opacity="0.16"/>
<path d="M69.9222 28.9513C69.8757 29.036 69.8261 29.1201 69.7728 29.2029C69.255 28.3947 68.4401 27.67 67.4045 27.0723C67.0796 26.8848 66.733 26.71 66.367 26.5484C66.1631 26.4595 66.0312 26.2593 66.0312 26.0367V22.8317C66.0312 22.678 66.1274 22.5558 66.2551 22.5056C66.2218 22.5582 66.2025 22.6218 66.2025 22.6901V25.8951C66.2025 26.1177 66.3343 26.3186 66.5382 26.4075C66.9181 26.5745 67.278 26.7553 67.615 26.9501C68.5986 27.5176 69.3875 28.1963 69.9222 28.9507V28.9513Z" fill="#C1060B"/>
<path d="M54.2803 22.9164V25.9895C54.2803 26.2399 54.1308 26.4656 53.9022 26.5672C53.5519 26.7233 53.2198 26.892 52.907 27.0723C51.8714 27.67 51.0571 28.3947 50.5387 29.2035C50.4861 29.1207 50.4359 29.0366 50.3887 28.9531C50.9234 28.1981 51.7135 27.5182 52.6965 26.9507C53.0202 26.7632 53.3662 26.5884 53.7304 26.4268C53.9596 26.3246 54.1085 26.0996 54.1085 25.8491V22.7754C54.1085 22.6889 54.0824 22.6109 54.0383 22.5461C54.1768 22.6078 54.2797 22.7464 54.2797 22.9164H54.2803Z" fill="#C1060B"/>
<path opacity="0.5" d="M66.2025 25.895L66.0312 26.0366C66.0312 26.2592 66.1631 26.4588 66.367 26.5484L66.5382 26.408C66.3343 26.3191 66.2025 26.1182 66.2025 25.8956V25.895Z" fill="#E82C31"/>
<path opacity="0.5" d="M54.1088 25.8491C54.1088 26.099 53.9594 26.3246 53.7307 26.4268L53.9019 26.5672C54.1312 26.4656 54.28 26.2405 54.28 25.9895L54.1088 25.8491Z" fill="#E82C31"/>
<path d="M67.6149 26.9506C67.278 26.7558 66.9181 26.5743 66.5381 26.408L66.3669 26.5483C66.7329 26.7098 67.0802 26.8847 67.4044 27.0722C68.4401 27.6699 69.2543 28.3946 69.7728 29.2028C69.8254 29.1199 69.8756 29.0358 69.9222 28.9511C69.3874 28.1968 68.598 27.518 67.6149 26.9506Z" fill="#E82C31"/>
<path d="M53.7311 26.4263C53.3663 26.5878 53.0209 26.7626 52.6973 26.9502C51.7136 27.5176 50.9242 28.1975 50.3894 28.9525C50.4366 29.0366 50.4868 29.1207 50.5394 29.203C51.0573 28.3941 51.8721 27.6694 52.9078 27.0717C53.2199 26.8915 53.5526 26.7227 53.9029 26.5666L53.7317 26.4263H53.7311Z" fill="#E82C31"/>
<path d="M60.0006 30.2742C58.1265 30.2742 56.2523 30.6867 54.8229 31.5125C53.3928 32.3382 52.6783 33.4199 52.6777 34.5021C52.6777 35.5844 53.3928 36.666 54.8229 37.4917C56.2529 38.3175 58.1271 38.7301 60.0012 38.7301C61.8753 38.7301 63.7494 38.3175 65.1795 37.4917C66.6096 36.666 67.324 35.5844 67.324 34.5021C67.324 33.4199 66.6089 32.3382 65.1795 31.5125C63.7494 30.6867 61.8753 30.2742 60.0012 30.2742H60.0006Z" fill="#DB332A"/>
<path d="M60.0006 30.2742C58.1265 30.2742 56.2523 30.6867 54.8229 31.5125C53.3928 32.3382 52.6783 33.4199 52.6777 34.5021C52.6777 35.5844 53.3928 36.666 54.8229 37.4917C56.2529 38.3175 58.1271 38.7301 60.0012 38.7301C61.8753 38.7301 63.7494 38.3175 65.1795 37.4917C66.6096 36.666 67.324 35.5844 67.324 34.5021C67.324 33.4199 66.6089 32.3382 65.1795 31.5125C63.7494 30.6867 61.8753 30.2742 60.0012 30.2742H60.0006Z" fill="url(#paint18_linear_112_43403)" fill-opacity="0.16"/>
<path d="M60.0006 30.2742C58.1265 30.2742 56.2523 30.6867 54.8229 31.5125C53.3928 32.3382 52.6783 33.4199 52.6777 34.5021C52.6777 35.5844 53.3928 36.666 54.8229 37.4917C56.2529 38.3175 58.1271 38.7301 60.0012 38.7301C61.8753 38.7301 63.7494 38.3175 65.1795 37.4917C66.6096 36.666 67.324 35.5844 67.324 34.5021C67.324 33.4199 66.6089 32.3382 65.1795 31.5125C63.7494 30.6867 61.8753 30.2742 60.0012 30.2742H60.0006Z" fill="url(#paint19_linear_112_43403)" fill-opacity="0.16"/>
<path d="M60.0004 30.2439C58.1995 30.2439 56.3986 30.6407 55.0242 31.4338C53.6497 32.2275 52.9631 33.2668 52.9631 34.3067C52.9631 35.3466 53.6504 36.3865 55.0242 37.1796C56.398 37.9726 58.1995 38.3695 60.0004 38.3695C61.8013 38.3695 63.6023 37.9726 64.9767 37.1796C66.3505 36.3865 67.0377 35.3466 67.0377 34.3067C67.0377 33.2668 66.3505 32.2269 64.9767 31.4338C63.6023 30.6401 61.8013 30.2439 60.0004 30.2439Z" fill="url(#paint20_radial_112_43403)"/>
<path d="M59.5558 31.501L58.041 32.3751L58.5958 33.5699L60.6647 33.8899L62.1794 33.0158L61.6253 31.821L59.5558 31.501Z" fill="#EECF96"/>
<path d="M62.1794 33.0159V33.841L60.6647 34.7158L58.5958 34.3957L58.041 33.201V32.3752L58.5958 33.57L60.6647 33.89L62.1794 33.0159Z" fill="#C8A970"/>
<path opacity="0.5" d="M58.5958 33.57L58.041 32.3752V33.201L58.5958 34.3957L60.6647 34.7158V33.89L58.5958 33.57Z" fill="#A2834A"/>
<path d="M58.041 32.3752V33.201L58.5958 34.3957V33.57L58.041 32.3752Z" fill="#A2834A"/>
<path d="M60.9084 29.792C60.6882 29.9191 60.3991 29.9832 60.1099 29.9832C59.8207 29.9832 59.5322 29.9197 59.3114 29.792C59.0912 29.665 58.9805 29.498 58.9805 29.3311V32.7042C58.9805 32.8712 59.0906 33.0381 59.3114 33.1652C59.5316 33.2922 59.8207 33.3563 60.1099 33.3563C60.3991 33.3563 60.6876 33.2928 60.9084 33.1652C61.1286 33.0381 61.2393 32.8712 61.2393 32.7042V29.3311C61.2393 29.498 61.1292 29.665 60.9084 29.792Z" fill="#C8A970"/>
<path opacity="0.5" d="M59.7465 29.9475C59.588 29.9166 59.4385 29.8652 59.3121 29.792C59.0919 29.665 58.9812 29.498 58.9812 29.3311V32.7042C58.9812 32.8712 59.0913 33.0381 59.3121 33.1652C59.4385 33.2384 59.588 33.2898 59.7465 33.3207V29.9475Z" fill="#A2834A"/>
<path opacity="0.5" d="M60.3123 33.3454C60.4986 33.3261 60.6783 33.2795 60.8319 33.2057V29.8325C60.6783 29.9063 60.4986 29.9529 60.3123 29.9723V33.3454Z" fill="#EECF96"/>
<path d="M59.3641 29.8186C59.3466 29.8096 59.329 29.8017 59.3121 29.792C59.0919 29.665 58.9812 29.498 58.9812 29.3311V32.7042C58.9812 32.8712 59.0913 33.0381 59.3121 33.1652C59.3284 33.1749 59.3466 33.1827 59.3641 33.1918V29.8186Z" fill="#A2834A"/>
<g style="mix-blend-mode:multiply" opacity="0.2">
<path d="M58.9814 29.5688V30.1085C59.0171 30.1351 59.0559 30.1605 59.0982 30.1853C59.3777 30.3468 59.7437 30.4273 60.1103 30.4273C60.4763 30.4273 60.8429 30.3468 61.1223 30.1853C61.1647 30.1611 61.2034 30.1351 61.2391 30.1085V29.5688C61.2034 29.5955 61.1647 29.6209 61.1223 29.6457C61.106 29.6554 61.0885 29.6632 61.0709 29.6723C61.0255 29.7146 60.9723 29.7552 60.9082 29.7921C60.688 29.9191 60.3988 29.9832 60.1097 29.9832C59.8205 29.9832 59.5319 29.9197 59.3111 29.7921C59.2476 29.7552 59.1938 29.7146 59.1484 29.6723C59.1315 29.6632 59.1139 29.6554 59.097 29.6457C59.0546 29.6215 59.0159 29.5955 58.9802 29.5688H58.9814Z" fill="black"/>
</g>
<path d="M61.1228 27.6215C60.8433 27.783 60.4767 27.8635 60.1107 27.8635C59.7442 27.8635 59.3781 27.783 59.0987 27.6215C58.8192 27.46 58.6794 27.2488 58.6794 27.0371V29.3311C58.6794 29.5428 58.8192 29.7539 59.0987 29.9154C59.3781 30.0769 59.7442 30.1574 60.1107 30.1574C60.4767 30.1574 60.8433 30.0769 61.1228 29.9154C61.4023 29.7539 61.542 29.5428 61.542 29.3311V27.0371C61.542 27.2488 61.4023 27.46 61.1228 27.6215Z" fill="#C8A970"/>
<path opacity="0.5" d="M59.4972 27.783C59.3532 27.7437 59.2171 27.6904 59.0979 27.6215C58.8185 27.46 58.6787 27.2488 58.6787 27.0371V29.3311C58.6787 29.5428 58.8185 29.7539 59.0979 29.9154C59.2171 29.9844 59.3526 30.0376 59.4972 30.0769V27.783Z" fill="#A2834A"/>
<path d="M60.3123 30.1483C60.5833 30.126 60.8446 30.0594 61.0618 29.9475V27.6536C60.8446 27.7655 60.5833 27.8326 60.3123 27.8544V30.1483Z" fill="#EECF96"/>
<path d="M59.0225 27.5737C58.7938 27.4194 58.6794 27.2283 58.6794 27.0371V29.3311C58.6794 29.5222 58.7944 29.7134 59.0225 29.8676V27.5737Z" fill="#A2834A"/>
<path d="M62.6024 31.0632C62.4579 30.9797 62.2582 30.9918 62.038 31.1188C61.8178 31.2459 61.6182 31.4643 61.4736 31.7147C61.329 31.9652 61.2395 32.2471 61.2395 32.5017C61.2395 32.7564 61.329 32.9349 61.4736 33.0184C61.6182 33.1018 61.8178 33.0897 62.038 32.9627C62.2582 32.8357 62.4579 32.6173 62.6024 32.3668C62.747 32.1164 62.8365 31.8345 62.8365 31.5798C62.8365 31.3251 62.747 31.1467 62.6024 31.0632Z" fill="#C8A970"/>
<g style="mix-blend-mode:multiply" opacity="0.7">
<path d="M62.3949 31.4223C62.3036 31.3697 62.1771 31.3769 62.038 31.4574C61.8988 31.5379 61.7724 31.6758 61.6811 31.8343C61.5897 31.9928 61.5334 32.1706 61.5334 32.3315C61.5334 32.4924 61.5897 32.6056 61.6811 32.6582C61.7724 32.7108 61.8988 32.7036 62.038 32.6231C62.1771 32.5427 62.3036 32.4047 62.3949 32.2462C62.4862 32.0877 62.5425 31.9099 62.5425 31.749C62.5425 31.5881 62.4862 31.4749 62.3949 31.4223Z" fill="#A2834A"/>
</g>
<path d="M62.6024 31.0632L61.2395 30.2761L60.9546 30.4389C60.5069 30.6808 60.1101 30.6578 59.6932 30.8744C59.4368 31.0075 59.3115 31.1339 59.3115 31.3886C59.3115 31.6433 59.4011 31.8218 59.5456 31.9052L61.473 33.0177C61.3284 32.9342 61.2389 32.7552 61.2389 32.5011C61.2389 32.247 61.3284 31.9645 61.473 31.7141C61.6176 31.4636 61.8172 31.2452 62.0374 31.1182C62.2576 30.9912 62.4572 30.9791 62.6018 31.0625C62.6151 31.0704 62.6284 31.0789 62.6411 31.0886C62.6284 31.0789 62.6157 31.0704 62.6018 31.0625L62.6024 31.0632Z" fill="#C8A970"/>
<path opacity="0.5" d="M61.2395 30.2761L60.9546 30.4389C60.6406 30.6082 60.3526 30.6482 60.0647 30.731L61.5528 31.5901C61.6871 31.3928 61.8553 31.2241 62.038 31.1188C62.2582 30.9918 62.4578 30.9797 62.6024 31.0632C62.6157 31.071 62.629 31.0795 62.6417 31.0892C62.629 31.0795 62.6163 31.071 62.6024 31.0632L61.2395 30.2761Z" fill="#EECF96"/>
<path opacity="0.5" d="M59.5579 30.9529C59.3933 31.0618 59.3123 31.184 59.3123 31.3884C59.3123 31.6431 59.4018 31.8216 59.5464 31.9051L61.4737 33.0175C61.3291 32.9341 61.2396 32.755 61.2396 32.5009C61.2396 32.3346 61.2783 32.1573 61.3449 31.9843L59.5585 30.9529H59.5579Z" fill="#A2834A"/>
<path d="M59.3159 31.3225C59.3141 31.3437 59.3123 31.3655 59.3123 31.3891C59.3123 31.6437 59.4018 31.8222 59.5464 31.9057L61.4737 33.0182C61.3291 32.9347 61.2396 32.7556 61.2396 32.5015C61.2396 32.4792 61.2402 32.4568 61.242 32.4344L59.3159 31.3225Z" fill="#A2834A"/>
<path d="M61.7459 31.351C61.8366 31.2579 61.9347 31.178 62.0381 31.1187C62.0599 31.106 62.0817 31.0951 62.1028 31.0849L60.9698 30.4309L60.9553 30.4394C60.7919 30.5277 60.6358 30.5803 60.4834 30.6227L61.7465 31.3522L61.7459 31.351Z" fill="#EECF96"/>
<path d="M63.4659 27.6948L63.4683 26.9985C63.4701 26.8727 63.3636 26.7456 63.1313 26.6748L62.4846 26.477C62.2269 26.3984 62.0328 26.2719 61.9233 26.1243L61.9396 26.059C61.9475 26.0282 61.948 25.9979 61.9438 25.9695L61.9462 25.2611C61.936 24.955 61.279 24.7832 60.8737 25.0106L60.348 25.3046C59.9717 25.5152 59.4079 25.5666 58.9379 25.4335L58.2803 25.2478C57.8405 25.1232 57.382 25.3173 57.3674 25.5617L57.3717 26.2665C57.3577 26.3318 57.3753 26.402 57.4346 26.471L57.7104 26.7958C57.6614 26.8436 57.6021 26.8884 57.5332 26.9295L57.0238 27.2332C56.8968 27.3088 56.8417 27.4002 56.8435 27.4885V28.2162C56.8405 28.4225 57.1466 28.6179 57.5671 28.5834L58.2918 28.5235C58.8102 28.4806 59.319 28.6306 59.564 28.898L59.9064 29.2713C60.1883 29.5786 60.9844 29.506 61.0878 29.163L61.2137 28.7468C61.3038 28.4491 61.7073 28.2156 62.2233 28.1636L62.9444 28.091C63.3061 28.0547 63.4943 27.8696 63.4653 27.6942L63.4659 27.6948Z" fill="#889AA5"/>
<path d="M58.2805 25.2472L58.9381 25.4329C59.4081 25.566 59.9725 25.5146 60.3482 25.3041L60.8739 25.0101C61.3064 24.7681 62.0245 24.9792 61.9398 25.3235L61.8363 25.7421C61.7625 26.0415 62.0221 26.3355 62.4849 26.4765L63.1315 26.6743C63.6639 26.837 63.538 27.2968 62.9446 27.3567L62.2235 27.4293C61.7075 27.4813 61.304 27.7142 61.2139 28.0124L61.088 28.4286C60.9846 28.771 60.1885 28.8442 59.9066 28.5369L59.5642 28.1637C59.3192 27.8963 58.8104 27.7469 58.292 27.7892L57.5673 27.8491C56.9708 27.8981 56.6048 27.4837 57.024 27.2339L57.5334 26.9302C57.8976 26.713 57.9871 26.3875 57.7566 26.1159L57.4342 25.7366C57.1692 25.4245 57.7391 25.0954 58.2799 25.2484L58.2805 25.2472Z" fill="#AEC0CB"/>
<path d="M61.2139 26.0349C60.8806 25.8425 60.4432 25.7463 60.0058 25.7463C59.5685 25.7463 59.1317 25.8425 58.7984 26.0349C58.4651 26.2273 58.2981 26.4801 58.2981 26.7324C58.2981 26.9847 58.4651 27.2369 58.7984 27.4299C59.0113 27.5527 59.2672 27.6362 59.5376 27.6809C59.2981 27.6386 59.073 27.563 58.8831 27.4535C58.5734 27.2744 58.4179 27.0397 58.4179 26.8056C58.4179 26.5709 58.5727 26.3362 58.8831 26.1577C59.1928 25.9786 59.5993 25.8891 60.0058 25.8891C60.4124 25.8891 60.8183 25.9786 61.1286 26.1577C61.4384 26.3368 61.5938 26.5715 61.5938 26.8056C61.5938 27.0403 61.439 27.275 61.1286 27.4535C60.9393 27.563 60.7136 27.6386 60.4741 27.6809C60.7451 27.6368 61.0004 27.5533 61.2133 27.4299C61.5466 27.2375 61.7136 26.9853 61.7136 26.7324C61.7136 26.4801 61.5466 26.2279 61.2133 26.0349H61.2139Z" fill="#62747F"/>
<path d="M60.0059 26.2495C59.7924 26.2495 59.5783 26.2967 59.4149 26.3911C59.2516 26.4854 59.1699 26.6088 59.1699 26.7323C59.1699 26.8557 59.2516 26.9791 59.4149 27.0734C59.5783 27.1678 59.7918 27.215 60.0059 27.215C60.2201 27.215 60.4336 27.1678 60.597 27.0734C60.7603 26.9791 60.842 26.8557 60.842 26.7323C60.842 26.6088 60.7603 26.4854 60.597 26.3911C60.4336 26.2967 60.2201 26.2495 60.0059 26.2495Z" fill="#62747F"/>
<path d="M60.5298 25.5478C60.3853 25.4643 60.1953 25.4226 60.0059 25.4226C59.8166 25.4226 59.6267 25.4643 59.4821 25.5478C59.3375 25.6313 59.2649 25.7408 59.2649 25.8503V26.7323C59.2649 26.8418 59.3375 26.9513 59.4821 27.0348C59.6267 27.1183 59.8166 27.16 60.0059 27.16C60.1953 27.16 60.3853 27.1183 60.5298 27.0348C60.6744 26.9513 60.747 26.8418 60.747 26.7323V25.8503C60.747 25.7408 60.6744 25.6313 60.5298 25.5478Z" fill="#889AA5"/>
<path d="M60.0059 25.4226C59.8166 25.4226 59.6267 25.4643 59.4821 25.5478C59.3375 25.6313 59.2649 25.7408 59.2649 25.8503C59.2649 25.9598 59.3375 26.0693 59.4821 26.1528C59.6267 26.2363 59.8166 26.278 60.0059 26.278C60.1953 26.278 60.3853 26.2363 60.5298 26.1528C60.6744 26.0693 60.747 25.9598 60.747 25.8503C60.747 25.7408 60.6744 25.6313 60.5298 25.5478C60.3853 25.4643 60.1953 25.4226 60.0059 25.4226Z" fill="#AEC0CB"/>
<path opacity="0.5" d="M59.2656 25.8503V26.7323C59.2656 26.8418 59.3382 26.9513 59.4828 27.0348C59.6274 27.1183 59.8173 27.16 60.0067 27.16V26.278C59.8173 26.278 59.6274 26.2363 59.4828 26.1528C59.3382 26.0693 59.2656 25.9598 59.2656 25.8503Z" fill="#62747F"/>
<path opacity="0.5" d="M60.53 26.1528V27.0348C60.6746 26.9513 60.7472 26.8418 60.7472 26.7323V25.8503C60.7472 25.9598 60.6746 26.0693 60.53 26.1528Z" fill="#62747F"/>
<path d="M59.6357 26.2198C59.5813 26.2017 59.5293 26.1793 59.4821 26.1521C59.3375 26.0686 59.2649 25.9591 59.2649 25.8496V26.7316C59.2649 26.8411 59.3375 26.9506 59.4821 27.0341C59.5287 27.0613 59.5807 27.0831 59.6357 27.1018V26.2198Z" fill="#62747F"/>
<path d="M61.9436 25.9689L61.946 25.2605C61.9466 25.2811 61.9448 25.3016 61.9394 25.3234L61.8359 25.742C61.8032 25.8745 61.8359 26.0058 61.923 26.1237L61.9394 26.059C61.9472 26.0282 61.9478 25.9979 61.9436 25.9695V25.9689Z" fill="#62747F"/>
<path d="M61.9254 26.1262C61.9254 26.1262 61.9242 26.1244 61.9236 26.1238C61.9236 26.1238 61.9248 26.1256 61.9254 26.1262Z" fill="#62747F"/>
<path d="M57.4344 26.4703L57.7102 26.7951C57.7072 26.7981 57.7036 26.8012 57.7006 26.8042C57.9189 26.5979 57.9462 26.3384 57.7568 26.1146L57.4344 25.7353C57.3848 25.6766 57.3642 25.6173 57.3678 25.561L57.3721 26.2658C57.3582 26.3311 57.3757 26.4013 57.435 26.4703H57.4344Z" fill="#62747F"/>
<path opacity="0.5" d="M60.3404 28.7243C60.1674 28.705 60.0053 28.6445 59.9067 28.5368L59.5643 28.1635C59.4118 27.9972 59.1571 27.8768 58.8613 27.8193V28.5543C59.1571 28.6118 59.4118 28.7322 59.5643 28.8986L59.9067 29.2718C60.0053 29.3795 60.1674 29.4406 60.3404 29.4593V28.7243Z" fill="#62747F"/>
<path d="M59.5637 28.163C59.4875 28.0795 59.3853 28.0075 59.2649 27.9495V28.6845C59.3847 28.7425 59.4869 28.8145 59.5637 28.898L59.9061 29.2713V28.5363L59.5637 28.163Z" fill="#62747F"/>
<path opacity="0.5" d="M57.5074 27.8513C57.1184 27.8634 56.842 27.6777 56.8438 27.4817C56.8438 27.4841 56.8438 27.4859 56.8438 27.4883V28.2161C56.8407 28.4121 57.1184 28.599 57.5074 28.5863V27.8513Z" fill="#62747F"/>
<path opacity="0.5" d="M61.5939 27.6101C61.3991 27.7142 61.2618 27.8539 61.214 28.0124L61.0882 28.4286C61.0664 28.5 61.0144 28.5593 60.9436 28.6064V29.3415C61.0144 29.2943 61.0664 29.235 61.0882 29.1636L61.214 28.7474C61.2618 28.5889 61.3991 28.4492 61.5939 28.3451V27.6101Z" fill="#62747F"/>
<path d="M61.3676 27.7727C61.2932 27.8453 61.24 27.9258 61.214 28.0123L61.1414 28.2524V28.9874L61.214 28.7473C61.24 28.6608 61.2938 28.5803 61.3676 28.5077V27.7727Z" fill="#62747F"/>
<path opacity="0.5" d="M63.4685 27.0008C63.4655 27.1031 63.3911 27.2041 63.2532 27.2731V28.0075C63.4092 27.9288 63.4849 27.8097 63.4661 27.6941L63.4685 27.0002V27.0008Z" fill="#62747F"/>
<path d="M57.142 27.7969C56.9569 27.7291 56.842 27.6075 56.8438 27.4817C56.8438 27.4841 56.8438 27.4859 56.8438 27.4883V28.2161C56.842 28.3425 56.9569 28.4647 57.1426 28.5325V27.7975L57.142 27.7969Z" fill="#62747F"/>
<path d="M70.7057 31.2565C70.7057 32.3956 70.1637 33.4615 69.2212 34.3732C69.0833 34.5063 68.8812 34.4809 68.7705 34.3599C68.8437 34.3587 68.9193 34.3308 68.9798 34.271C69.8872 33.3877 70.4081 32.3569 70.4081 31.2565C70.4081 30.6274 70.2375 30.0218 69.9235 29.4538C69.9822 29.3703 70.0379 29.2868 70.0905 29.2021C70.4885 29.844 70.7063 30.5354 70.7063 31.2565H70.7057Z" fill="#E82C31"/>
<path d="M68.9802 30.4866C69.4327 30.0885 69.8066 29.6584 70.0891 29.2029C70.4871 28.561 70.7049 27.8696 70.7049 27.1491V26.1219C70.7049 24.4402 69.524 22.9175 67.6148 21.8147C66.3923 21.1087 64.8708 20.5758 63.1697 20.2836C63.053 20.2612 62.9356 20.24 62.8171 20.2201C62.8116 20.2195 62.8068 20.2183 62.8013 20.2177C62.4716 20.1626 62.1347 20.1178 61.7911 20.0834C61.756 20.0797 61.7209 20.0761 61.6858 20.0725C61.6066 20.0652 61.5267 20.0592 61.4469 20.0525C61.3773 20.0471 61.3071 20.0416 61.2369 20.0374C61.1692 20.0332 61.1014 20.0289 61.0331 20.0253C60.9436 20.0204 60.8528 20.0168 60.7627 20.0132C60.7088 20.0114 60.655 20.009 60.6005 20.0071C60.4529 20.0029 60.3053 20.0005 60.1559 20.0005C60.0065 20.0005 59.8589 20.0029 59.7113 20.0071C59.6568 20.0084 59.6036 20.0108 59.5492 20.0132C59.4584 20.0168 59.3683 20.0204 59.2781 20.0253C59.2098 20.0289 59.142 20.0332 59.0743 20.0374C59.0041 20.0422 58.9339 20.0471 58.8644 20.0525C58.7845 20.0586 58.7047 20.0652 58.6254 20.0725C58.5903 20.0755 58.5552 20.0797 58.5202 20.0834C58.1765 20.1178 57.8396 20.1626 57.5093 20.2177C57.5038 20.2183 57.499 20.2195 57.4936 20.2201C57.375 20.24 57.257 20.2612 57.1409 20.2836C55.4398 20.5758 53.9184 21.1087 52.6958 21.8147C50.7866 22.9169 49.6057 24.4396 49.6057 26.1219V27.1491C49.6057 27.8702 49.8229 28.5616 50.2215 29.2029C50.4992 29.6505 50.8646 30.0734 51.3062 30.466C51.4828 30.6227 51.5802 30.8501 51.5802 31.0861V34.2045C51.5802 34.4435 51.2929 34.5675 51.1199 34.4024C50.1586 33.4841 49.6057 32.4079 49.6057 31.2567V36.6455C49.6057 38.3272 50.7866 39.8499 52.6958 40.9521C53.1295 41.2025 53.6008 41.4306 54.1041 41.6344L54.2747 41.4935V31.175L54.8645 29.8671C54.4241 29.6886 54.0109 29.4902 53.6316 29.2712C51.962 28.3076 50.9299 26.9761 50.9299 25.5055C50.9299 24.0348 51.9626 22.7034 53.6316 21.7391C55.3012 20.7754 57.6073 20.1789 60.1547 20.1789C62.7021 20.1789 65.0081 20.7754 66.6772 21.7391C68.3468 22.7028 69.3795 24.0342 69.3795 25.5055C69.3795 26.9767 68.3468 28.3076 66.6772 29.2718C66.2979 29.4908 65.8847 29.6892 65.4443 29.8677L66.0341 31.1756V41.4941L66.2047 41.635C66.708 41.4312 67.1793 41.2031 67.613 40.9527C69.5222 39.8505 70.7031 38.3278 70.7031 36.6461V31.2573C70.7031 32.3964 70.161 33.4623 69.2185 34.3739C69.0201 34.5657 68.6886 34.4278 68.6886 34.1519V31.1369C68.6886 30.8888 68.7921 30.6505 68.9784 30.4866H68.9802Z" fill="#C1060B"/>
<path d="M66.8968 21.6131C65.1715 20.6174 62.7881 20.001 60.156 20.001C57.5233 20.001 55.1398 20.6174 53.4145 21.6131C51.6892 22.6095 50.6221 23.9851 50.6221 25.5053C50.6221 27.0256 51.6892 28.4012 53.4145 29.3975C53.8065 29.6238 54.2336 29.8295 54.6885 30.0134L54.8657 29.8676C54.4253 29.6891 54.0122 29.4907 53.6329 29.2717C51.9632 28.308 50.9312 26.9766 50.9312 25.506C50.9312 24.0353 51.9638 22.7039 53.6329 21.7396C55.3025 20.7759 57.6086 20.1794 60.156 20.1794C62.7034 20.1794 65.0094 20.7759 66.6784 21.7396C68.3481 22.7033 69.3807 24.0347 69.3807 25.506C69.3807 26.9772 68.3481 28.308 66.6784 29.2723C66.2991 29.4913 65.886 29.6897 65.4456 29.8682L65.6228 30.014C66.0777 29.8295 66.5048 29.6244 66.8968 29.3982C68.6221 28.4024 69.6892 27.0262 69.6892 25.506C69.6892 23.9857 68.6221 22.6101 66.8968 21.6138V21.6131Z" fill="#E82C31"/>
<g opacity="0.5">
<path d="M60.156 20.001C59.1022 20.001 58.0895 20.1014 57.1416 20.2835C58.0968 20.1195 59.1083 20.0306 60.156 20.0306C61.2038 20.0306 62.2152 20.1189 63.1698 20.2835C62.2219 20.1014 61.2092 20.001 60.156 20.001Z" fill="#FFDE36"/>
<path d="M49.6064 26.1217C49.6064 27.8035 50.7873 29.3261 52.6965 30.4283C53.1302 30.6788 53.6015 30.9068 54.1048 31.1107L54.6886 30.0133C54.2337 29.8288 53.8066 29.6238 53.4146 29.3975C51.6893 28.4018 50.6221 27.0255 50.6221 25.5053C50.6221 23.9851 51.6893 22.6094 53.4146 21.6131C54.449 21.016 55.7218 20.5569 57.1416 20.2834C55.4405 20.5756 53.9191 21.1086 52.6965 21.8146C50.7873 22.9168 49.6064 24.4394 49.6064 26.1217Z" fill="#FF3B30"/>
<path d="M49.6064 26.1217C49.6064 27.8035 50.7873 29.3261 52.6965 30.4283C53.1302 30.6788 53.6015 30.9068 54.1048 31.1107L54.6886 30.0133C54.2337 29.8288 53.8066 29.6238 53.4146 29.3975C51.6893 28.4018 50.6221 27.0255 50.6221 25.5053C50.6221 23.9851 51.6893 22.6094 53.4146 21.6131C54.449 21.016 55.7218 20.5569 57.1416 20.2834C55.4405 20.5756 53.9191 21.1086 52.6965 21.8146C50.7873 22.9168 49.6064 24.4394 49.6064 26.1217Z" fill="url(#paint21_linear_112_43403)" fill-opacity="0.16"/>
</g>
<g opacity="0.5">
<path d="M67.615 21.8153C66.3924 21.1093 64.871 20.5764 63.1699 20.2842C64.5897 20.557 65.8619 21.0168 66.897 21.6138C68.6223 22.6102 69.6894 23.9858 69.6894 25.506C69.6894 27.0263 68.6223 28.4019 66.897 29.3982C66.505 29.6245 66.0779 29.8296 65.623 30.0141L66.2067 31.1114C66.71 30.9076 67.1813 30.6795 67.615 30.4291C69.5242 29.3269 70.7051 27.8042 70.7051 26.1225C70.7051 24.4407 69.5242 22.9181 67.615 21.8153Z" fill="#FF3B30"/>
<path d="M67.615 21.8153C66.3924 21.1093 64.871 20.5764 63.1699 20.2842C64.5897 20.557 65.8619 21.0168 66.897 21.6138C68.6223 22.6102 69.6894 23.9858 69.6894 25.506C69.6894 27.0263 68.6223 28.4019 66.897 29.3982C66.505 29.6245 66.0779 29.8296 65.623 30.0141L66.2067 31.1114C66.71 30.9076 67.1813 30.6795 67.615 30.4291C69.5242 29.3269 70.7051 27.8042 70.7051 26.1225C70.7051 24.4407 69.5242 22.9181 67.615 21.8153Z" fill="url(#paint22_linear_112_43403)" fill-opacity="0.16"/>
</g>
<path d="M52.6965 30.4291C50.7873 29.3269 49.6064 27.8043 49.6064 26.1226V27.1497C49.6064 27.8708 49.8236 28.5623 50.2223 29.2035C50.4999 29.6512 50.8653 30.074 51.3069 30.4667C51.4836 30.6233 51.581 30.8508 51.581 31.0867V34.2052C51.581 34.4441 51.2936 34.5682 51.1206 34.403C50.1594 33.4847 49.6064 32.4085 49.6064 31.2573V36.6461C49.6064 38.3279 50.7873 39.8505 52.6965 40.9527C53.1302 41.2032 53.6015 41.4312 54.1048 41.6351V31.1109C53.6015 30.907 53.1296 30.6784 52.6965 30.4285V30.4291Z" fill="#E53026"/>
<path d="M52.6965 30.4291C50.7873 29.3269 49.6064 27.8043 49.6064 26.1226V27.1497C49.6064 27.8708 49.8236 28.5623 50.2223 29.2035C50.4999 29.6512 50.8653 30.074 51.3069 30.4667C51.4836 30.6233 51.581 30.8508 51.581 31.0867V34.2052C51.581 34.4441 51.2936 34.5682 51.1206 34.403C50.1594 33.4847 49.6064 32.4085 49.6064 31.2573V36.6461C49.6064 38.3279 50.7873 39.8505 52.6965 40.9527C53.1302 41.2032 53.6015 41.4312 54.1048 41.6351V31.1109C53.6015 30.907 53.1296 30.6784 52.6965 30.4285V30.4291Z" fill="url(#paint23_linear_112_43403)" fill-opacity="0.16"/>
<path d="M68.6907 34.1518V31.1368C68.6907 30.8888 68.7941 30.6504 68.9805 30.4865C69.433 30.0884 69.8068 29.6583 70.0893 29.2028C70.4874 28.561 70.7051 27.8695 70.7051 27.149V26.1218C70.7051 27.8036 69.5243 29.3262 67.6151 30.4284C67.1814 30.6789 66.7101 30.9069 66.2068 31.1108V41.635C66.7101 41.4311 67.1814 41.203 67.6151 40.9526C69.5243 39.8504 70.7051 38.3277 70.7051 36.646V31.2572C70.7051 32.3963 70.1631 33.4622 69.2206 34.3738C69.0222 34.5656 68.6907 34.4277 68.6907 34.1518Z" fill="#E53026"/>
<path d="M68.6907 34.1518V31.1368C68.6907 30.8888 68.7941 30.6504 68.9805 30.4865C69.433 30.0884 69.8068 29.6583 70.0893 29.2028C70.4874 28.561 70.7051 27.8695 70.7051 27.149V26.1218C70.7051 27.8036 69.5243 29.3262 67.6151 30.4284C67.1814 30.6789 66.7101 30.9069 66.2068 31.1108V41.635C66.7101 41.4311 67.1814 41.203 67.6151 40.9526C69.5243 39.8504 70.7051 38.3277 70.7051 36.646V31.2572C70.7051 32.3963 70.1631 33.4622 69.2206 34.3738C69.0222 34.5656 68.6907 34.4277 68.6907 34.1518Z" fill="url(#paint24_linear_112_43403)" fill-opacity="0.16"/>
<path d="M51.5212 34.3757C51.4275 34.4907 51.2442 34.5215 51.1207 34.4024C50.1601 33.4841 49.6072 32.4079 49.6072 31.2567C49.6072 30.5362 49.8244 29.8441 50.2224 29.2029C50.2744 29.2876 50.3301 29.3711 50.39 29.4533C50.0748 30.022 49.9054 30.6281 49.9054 31.2561C49.9054 32.3698 50.4378 33.4109 51.3633 34.3007C51.4105 34.3455 51.4662 34.3691 51.5218 34.3745L51.5212 34.3757Z" fill="#E82C31"/>
<path d="M60.3108 63.3538C59.0029 64.4414 56.8142 66.2617 53.3606 68.5085C54.6122 69.9029 56.7065 72.2367 60.3447 75.2391C62.3573 73.4968 64.549 71.5277 67.2622 68.3306C65.3469 67.1177 63.2326 65.7336 60.3108 63.3538ZM60.3434 74.7527C58.0465 72.8308 56.3405 71.287 53.9081 68.6391C56.1131 67.1564 57.787 65.9526 60.3126 63.8413C62.1141 65.289 63.7299 66.5491 66.7213 68.4758C64.7293 70.7117 63.1964 72.2966 60.3434 74.7527Z" fill="#EEF5F9"/>
<path d="M62.7446 69.8345C62.5631 69.7649 62.6496 69.5496 62.7579 69.3475C62.9811 68.9313 62.8813 68.1467 62.5395 67.6331C62.4258 67.8466 62.274 68.1322 62.1596 68.3457C62.0961 67.105 61.5353 66.549 61.3883 66.4686C61.4204 66.8545 61.3514 67.0735 61.1421 67.2496C61.0211 66.5835 60.8294 66.4087 60.6073 66.206C60.1113 65.7529 59.9939 65.5043 60.1052 65.1401C59.928 65.2593 59.8118 65.4178 59.7598 65.6114C59.6521 66.0107 59.7405 66.4281 59.6497 66.8291C59.4719 66.5618 59.2886 66.2859 58.9153 66.2067C59.1952 66.5519 59.169 67.178 58.8367 68.085C58.6068 67.5666 58.3164 67.4891 58.2214 67.4637C58.4326 68.0269 58.1519 68.5732 58.1652 69.1297C58.0387 69.0148 57.87 68.8617 57.7435 68.7474C57.8446 69.1824 57.7696 69.3046 57.7454 69.3451C57.6407 69.5163 57.5935 70.3916 57.9873 70.9809C58.2946 71.4406 59.1373 71.7757 59.689 71.6578C58.5747 70.9222 58.432 70.8278 58.4126 69.9797C58.5415 70.0317 58.7139 70.1019 58.8427 70.1539C58.7465 69.6663 58.9782 69.2658 59.0538 69.134C59.0635 69.6137 59.1948 70.2737 59.7671 70.6887C59.5826 70.3856 59.4217 69.8877 59.7011 69.2362C59.8996 69.7558 60.1458 69.9936 60.2268 70.0716C60.4585 69.5974 60.7023 68.8956 60.5456 68.2435C61.052 68.7988 61.1929 69.3675 60.9655 69.9343C61.3641 69.7099 61.4791 69.3239 61.5166 69.1969C61.8136 69.6494 61.5922 70.0341 61.5196 70.1606C61.6067 70.0819 61.7235 69.9773 61.8112 69.8992C61.8178 70.4842 61.5837 71.2464 60.4319 71.5598C62.0925 72.0982 63.1172 70.6306 62.9714 69.4159C62.9037 69.5417 62.813 69.7093 62.7446 69.8351V69.8345Z" fill="#EEF5F9"/>
<path d="M58.3557 71.774V71.9536C59.5571 72.0214 60.7694 72.0141 61.9696 71.9306V71.751C60.7688 71.8339 59.5565 71.8417 58.3557 71.774Z" fill="#EEF5F9"/>
<defs>
<linearGradient id="paint0_linear_112_43403" x1="60.0015" y1="92.7957" x2="45.927" y2="89.8611" gradientUnits="userSpaceOnUse">
<stop stop-opacity="0"/>
<stop offset="1"/>
</linearGradient>
<linearGradient id="paint1_linear_112_43403" x1="60.9185" y1="93.2768" x2="74.6735" y2="93.2768" gradientUnits="userSpaceOnUse">
<stop stop-opacity="0"/>
<stop offset="1"/>
</linearGradient>
<linearGradient id="paint2_linear_112_43403" x1="60.0015" y1="95.6735" x2="46.8949" y2="91.1231" gradientUnits="userSpaceOnUse">
<stop stop-opacity="0"/>
<stop offset="1"/>
</linearGradient>
<linearGradient id="paint3_linear_112_43403" x1="60.9185" y1="95.9624" x2="74.6735" y2="95.9624" gradientUnits="userSpaceOnUse">
<stop stop-opacity="0"/>
<stop offset="1"/>
</linearGradient>
<linearGradient id="paint4_linear_112_43403" x1="60.0015" y1="94.5074" x2="47.0042" y2="89.8219" gradientUnits="userSpaceOnUse">
<stop stop-opacity="0"/>
<stop offset="1"/>
</linearGradient>
<linearGradient id="paint5_linear_112_43403" x1="60.9185" y1="94.7856" x2="74.6735" y2="94.7856" gradientUnits="userSpaceOnUse">
<stop stop-opacity="0"/>
<stop offset="1"/>
</linearGradient>
<linearGradient id="paint6_linear_112_43403" x1="60.0024" y1="63.7701" x2="43.6305" y2="62.8838" gradientUnits="userSpaceOnUse">
<stop stop-opacity="0"/>
<stop offset="1"/>
</linearGradient>
<linearGradient id="paint7_linear_112_43403" x1="61.0276" y1="65.8415" x2="76.4062" y2="65.8415" gradientUnits="userSpaceOnUse">
<stop stop-opacity="0"/>
<stop offset="1"/>
</linearGradient>
<linearGradient id="paint8_linear_112_43403" x1="60.0013" y1="48.3017" x2="44.5694" y2="43.7771" gradientUnits="userSpaceOnUse">
<stop stop-opacity="0"/>
<stop offset="1"/>
</linearGradient>
<linearGradient id="paint9_linear_112_43403" x1="61.0477" y1="48.6921" x2="76.7436" y2="48.6921" gradientUnits="userSpaceOnUse">
<stop stop-opacity="0"/>
<stop offset="1"/>
</linearGradient>
<linearGradient id="paint10_linear_112_43403" x1="60.0013" y1="48.136" x2="44.6362" y2="43.5089" gradientUnits="userSpaceOnUse">
<stop stop-opacity="0"/>
<stop offset="1"/>
</linearGradient>
<linearGradient id="paint11_linear_112_43403" x1="61.0477" y1="48.516" x2="76.7436" y2="48.5161" gradientUnits="userSpaceOnUse">
<stop stop-opacity="0"/>
<stop offset="1"/>
</linearGradient>
<linearGradient id="paint12_linear_112_43403" x1="60.0013" y1="83.5171" x2="44.5694" y2="78.9924" gradientUnits="userSpaceOnUse">
<stop stop-opacity="0"/>
<stop offset="1"/>
</linearGradient>
<linearGradient id="paint13_linear_112_43403" x1="61.0477" y1="83.9074" x2="76.7436" y2="83.9074" gradientUnits="userSpaceOnUse">
<stop stop-opacity="0"/>
<stop offset="1"/>
</linearGradient>
<linearGradient id="paint14_linear_112_43403" x1="60.0013" y1="83.3513" x2="44.6362" y2="78.7242" gradientUnits="userSpaceOnUse">
<stop stop-opacity="0"/>
<stop offset="1"/>
</linearGradient>
<linearGradient id="paint15_linear_112_43403" x1="61.0477" y1="83.7314" x2="76.7436" y2="83.7314" gradientUnits="userSpaceOnUse">
<stop stop-opacity="0"/>
<stop offset="1"/>
</linearGradient>
<linearGradient id="paint16_linear_112_43403" x1="60.1556" y1="28.6361" x2="49.7935" y2="27.2401" gradientUnits="userSpaceOnUse">
<stop stop-opacity="0"/>
<stop offset="1"/>
</linearGradient>
<linearGradient id="paint17_linear_112_43403" x1="60.8143" y1="29.1709" x2="70.6954" y2="29.1709" gradientUnits="userSpaceOnUse">
<stop stop-opacity="0"/>
<stop offset="1"/>
</linearGradient>
<linearGradient id="paint18_linear_112_43403" x1="60.0015" y1="34.6536" x2="52.9176" y2="33.3519" gradientUnits="userSpaceOnUse">
<stop stop-opacity="0"/>
<stop offset="1"/>
</linearGradient>
<linearGradient id="paint19_linear_112_43403" x1="60.4587" y1="34.9258" x2="67.3174" y2="34.9258" gradientUnits="userSpaceOnUse">
<stop stop-opacity="0"/>
<stop offset="1"/>
</linearGradient>
<radialGradient id="paint20_radial_112_43403" cx="0" cy="0" r="1" gradientUnits="userSpaceOnUse" gradientTransform="translate(60.0355 33.4969) rotate(90.4125) scale(4.8727 8.44018)">
<stop stop-color="#FF3B30"/>
<stop offset="0.710535" stop-color="#E62F24"/>
</radialGradient>
<linearGradient id="paint21_linear_112_43403" x1="54.0169" y1="25.8413" x2="49.6105" y2="25.8517" gradientUnits="userSpaceOnUse">
<stop stop-opacity="0"/>
<stop offset="1"/>
</linearGradient>
<linearGradient id="paint22_linear_112_43403" x1="67.5804" y1="25.842" x2="70.9192" y2="25.8341" gradientUnits="userSpaceOnUse">
<stop stop-opacity="0"/>
<stop offset="1"/>
</linearGradient>
<linearGradient id="paint23_linear_112_43403" x1="52.2394" y1="34.0854" x2="49.6088" y2="34.088" gradientUnits="userSpaceOnUse">
<stop stop-opacity="0"/>
<stop offset="1"/>
</linearGradient>
<linearGradient id="paint24_linear_112_43403" x1="68.8398" y1="34.085" x2="70.833" y2="34.083" gradientUnits="userSpaceOnUse">
<stop stop-opacity="0"/>
<stop offset="1"/>
</linearGradient>
</defs>
</svg>
