<svg width="120" height="120" viewBox="0 0 120 120" fill="none" xmlns="http://www.w3.org/2000/svg">
<path d="M40.6762 105.954L65.0083 120V114.463L40.6762 100.417V105.954Z" fill="#889AA5"/>
<path d="M40.6763 100.417L65.0084 114.464L79.3237 106.199L54.993 92.1519L40.6763 100.417Z" fill="#AEC0CB"/>
<path d="M53.0456 112.414L58.2851 115.439L60.8928 113.934L55.652 110.908L53.0456 112.414Z" fill="#AEC0CB"/>
<path d="M41.1242 105.532L46.3644 108.557L48.9714 107.052L43.7326 104.027H43.7313L41.1242 105.532Z" fill="#AEC0CB"/>
<path d="M53.0454 116.105L58.2849 119.13V115.439L53.0454 112.414V116.105Z" fill="#889AA5"/>
<path d="M58.2851 115.439V119.13L60.8928 117.625V113.933L58.2851 115.439Z" fill="#62747F"/>
<path d="M41.1243 105.531L46.3645 108.557V112.248L41.1243 109.223V105.531Z" fill="#889AA5"/>
<path d="M48.9714 107.052V110.743L46.3644 112.248V108.557L48.9714 107.052Z" fill="#62747F"/>
<path d="M65.0084 120.001V114.464L79.3237 106.199V111.736L65.0084 120.001Z" fill="#62747F"/>
<path d="M74.7131 95.7759V105.004L66.4036 109.801V100.573L74.7131 95.7759Z" fill="#BBC2C6"/>
<path d="M61.7321 97.877V107.105L66.4038 109.801V100.573L61.7321 97.877Z" fill="#D4DBDF"/>
<path d="M58.8006 99.5692V108.797L61.7319 107.105V97.877L58.8006 99.5692Z" fill="#BBC2C6"/>
<path d="M46.6211 101.766V92.5378L52.6074 95.994V105.222L46.6211 101.766Z" fill="#D4DBDF"/>
<path d="M51.6125 105.798V96.5696L53.7722 97.8165V107.045L51.6125 105.798Z" fill="#D4DBDF"/>
<path d="M54.7676 97.2415V106.47L53.772 107.045V97.8164L54.7676 97.2415Z" fill="#BBC2C6"/>
<path d="M54.7675 97.2415V106.47L58.8005 108.797V99.5692L54.7675 97.2415Z" fill="#D4DBDF"/>
<path d="M52.6072 95.994L51.6123 96.5696L53.7721 97.8165L54.7676 97.2415L58.8006 99.5693L61.7319 97.877L66.4036 100.573L74.7131 95.7759L70.0427 93.079L66.0097 90.7512L63.8493 89.5037L57.863 86.0476L49.5522 90.845L46.6209 92.5379L52.6072 95.994Z" fill="#EEF5F9"/>
<path d="M52.1326 96.5695L53.1282 95.9939V97.1438L52.1326 96.5695Z" fill="#BBC2C6"/>
<path d="M63.7197 91.5749L57.863 88.1936L48.7402 93.4605L47.1418 92.5379L57.863 86.3484L63.7197 89.729L74.1929 95.7758L72.5944 96.6985L63.7197 91.5749Z" fill="#D4DBDF"/>
<path d="M57.863 86.3484V88.1936L48.7403 93.4605L47.1418 92.5379L57.863 86.3484Z" fill="#BBC2C6"/>
<path d="M59.9004 84.5533L72.3621 91.9102V91.5195L59.9004 84.1626V84.5533Z" fill="#62747F"/>
<path d="M71.9675 96.4849L72.4187 96.7454V81.9091L71.9675 81.6487V96.4849Z" fill="#889AA5"/>
<path d="M53.8184 93.0198V78.1835L53.3671 77.9231V92.7593L53.8184 93.0198Z" fill="#889AA5"/>
<path d="M59.9004 89.5103V74.674L59.4492 74.4136V89.2498L59.9004 89.5103Z" fill="#889AA5"/>
<path d="M53.8183 83.1201V78.1834L54.2695 77.9229V77.9587L59.9003 74.7064V74.6745L60.3516 74.4141V89.2503L59.9003 89.5108V89.5088L54.22 92.7924L54.2129 92.8021L54.2083 92.7989L54.0814 92.8724V92.8679L53.8183 93.0196V83.1474L53.8007 83.1435L53.8183 83.1201ZM59.9003 75.4741L54.6537 82.5419L59.9003 79.511V75.4747V75.4741ZM59.9003 79.901L54.5697 82.9807L59.9003 84.1632V79.9016V79.901ZM59.9003 89.1181V85.0396L54.7162 92.1145L59.9003 89.1181ZM54.2695 92.1738L59.6256 84.8638L54.2695 87.9592V92.1738ZM54.2695 87.5678L59.6725 84.4451L54.2695 83.2471V87.5678ZM54.2695 82.5126L59.6803 75.224L54.2695 78.3487V82.5119V82.5126Z" fill="#62747F"/>
<path d="M61.4578 93.5835L66.0234 96.2192L64.6782 96.996L60.1126 94.3596L61.4578 93.5835Z" fill="#29333F"/>
<path d="M63.7614 96.7891L67.5574 98.9814V97.2488L63.7614 95.0571V96.7891Z" fill="#889AA5"/>
<path d="M63.7615 95.0571L67.5575 97.2488L69.115 96.3496L65.319 94.158L63.7615 95.0571Z" fill="#AEC0CB"/>
<path d="M69.115 96.3496V98.0822L67.5575 98.9814V97.2488L69.115 96.3496Z" fill="#62747F"/>
<path d="M65.8979 99.9937V85.1575L66.3491 85.4179V100.254L65.8979 99.9937Z" fill="#889AA5"/>
<g style="mix-blend-mode:multiply" opacity="0.2">
<path d="M58.3858 91.6809L59.0734 92.0781L59.7616 91.6809L63.8057 94.0158L62.1466 94.9742H60.7708L56.7268 92.6387L58.3858 91.6809Z" fill="black"/>
</g>
<path d="M56.7269 92.6389L60.771 94.9744V93.1285L56.7269 90.793V92.6389Z" fill="#889AA5"/>
<path d="M56.7269 90.793L60.771 93.1285L62.4307 92.1707L58.386 89.8352L56.7269 90.793Z" fill="#AEC0CB"/>
<path d="M62.4307 92.1707V94.0159L60.771 94.9743V93.1284L62.4307 92.1707Z" fill="#62747F"/>
<path d="M50.7854 94.1649L53.7434 95.8728V94.5231L50.7854 92.8152V94.1649Z" fill="#889AA5"/>
<path d="M50.7856 92.8153L53.7436 94.5232L54.9573 93.8226L51.9993 92.1147L50.7856 92.8153Z" fill="#AEC0CB"/>
<path d="M54.9573 93.8225V95.1723L53.7436 95.8729V94.5231L54.9573 93.8225Z" fill="#62747F"/>
<path d="M59.1522 99.0653L54.5436 96.4042L55.8888 95.6274L60.498 98.2885L59.1522 99.0653Z" fill="#29333F"/>
<path d="M62.9033 77.8793C63.0055 77.8116 63.1455 77.7745 63.2894 77.7686C63.4333 77.7628 63.5804 77.7888 63.6976 77.8481C63.8148 77.9073 63.8793 77.9881 63.8891 78.0707V95.2842C63.8988 95.3675 63.8539 95.4522 63.7517 95.5199C63.6495 95.5876 63.5095 95.6247 63.3656 95.6306C63.2217 95.6365 63.0745 95.6104 62.9567 95.5512C62.8395 95.4919 62.775 95.4112 62.7653 95.3285V78.115C62.7555 78.0317 62.8004 77.947 62.9026 77.8793H62.9033Z" fill="#414E5F"/>
<path d="M63.2894 77.7686C63.4333 77.7628 63.5804 77.7888 63.6976 77.8481C63.8148 77.9073 63.8793 77.9881 63.8891 78.0707C63.8988 78.1541 63.8539 78.2387 63.7517 78.3064C63.6495 78.3742 63.5095 78.4113 63.3656 78.4171C63.2217 78.423 63.0745 78.397 62.9567 78.3377C62.8395 78.2784 62.775 78.1977 62.7653 78.115C62.7555 78.0317 62.8004 77.947 62.9026 77.8793C63.0049 77.8116 63.1449 77.7745 63.2887 77.7686H63.2894Z" fill="#5B6879"/>
<path opacity="0.5" d="M63.7524 78.3071C63.8384 78.2504 63.8833 78.1808 63.8898 78.1111V95.2855C63.8996 95.3688 63.8546 95.4535 63.7524 95.5212C63.6502 95.5889 63.5102 95.626 63.3663 95.6319V78.4184C63.5102 78.4125 63.6502 78.3754 63.7524 78.3077V78.3071Z" fill="#29333F"/>
<path d="M63.6287 78.3678C63.6736 78.3515 63.7153 78.3313 63.7524 78.3066C63.8384 78.2499 63.8833 78.1803 63.8898 78.1106V95.285C63.8996 95.3683 63.8546 95.453 63.7524 95.5207C63.7153 95.5448 63.6736 95.5656 63.6287 95.5819V78.3684V78.3678Z" fill="#29333F"/>
<path d="M66.349 90.2713V85.4179L66.8002 85.1574V85.1874L72.4187 81.9423V81.9084L72.8699 81.6479V96.4842L72.4187 96.7446L66.8002 99.9924L66.349 100.253V90.382L66.2793 90.3657L66.349 90.2706V90.2713ZM72.4187 82.5452L67.073 89.835L72.4187 86.7468V82.5452ZM72.4187 87.1375L67.0841 90.2192L72.4187 91.4602V87.1375ZM72.4187 96.3546V92.2494L66.9356 99.5236L72.4187 96.354V96.3546ZM66.8002 99.1629L72.1081 92.1204L66.8002 95.1878V99.1629ZM66.8002 94.7972L72.1178 91.7239L66.8002 90.4868V94.7965V94.7972ZM66.8002 89.656L71.9876 82.5823L66.8002 85.5781V89.656Z" fill="#62747F"/>
<path d="M73.3271 78.0917L71.5424 79.1225L75.7415 81.5557L67.2959 86.4553L50.4047 76.7029L58.8503 71.7942L63.0487 74.2183L64.8334 73.1876L73.3271 78.0917Z" fill="#AEC0CB"/>
<path d="M50.4045 76.7029V77.3787L67.2957 87.1311V86.4552L50.4045 76.7029Z" fill="#889AA5"/>
<path d="M75.7415 81.5557V82.2224L67.2959 87.1311V86.4553L75.7415 81.5557Z" fill="#62747F"/>
<g style="mix-blend-mode:multiply" opacity="0.2">
<path d="M67.2954 86.3419L67.3117 86.3328L75.5457 81.5556L71.3473 79.1224L73.132 78.0917L73.0831 78.0637L64.8329 73.3001L63.0482 74.3308L58.8498 71.9067L58.8336 71.9165L50.5989 76.7022L55.5422 79.556L55.5747 79.5L50.7292 76.7022L58.8498 71.9823L63.0482 74.4064L64.8329 73.3757L73.0018 78.0917L71.2171 79.1217L75.4161 81.5556L67.2948 86.267L62.1119 83.2745L62.0793 83.3305L67.2954 86.3419Z" fill="black"/>
</g>
<path d="M75.4814 80.4805C75.4925 80.4805 75.5036 80.4747 75.5094 80.4643C75.5185 80.4486 75.5133 80.4291 75.4977 80.42L71.3475 78.0148L73.0834 77.0127C73.0932 77.0069 73.0997 76.9964 73.0997 76.9847C73.0997 76.973 73.0932 76.9626 73.0834 76.9567L64.8501 72.203C64.8403 72.1971 64.8273 72.1971 64.8175 72.203L63.0491 73.2239L58.867 70.8096C58.8566 70.8037 58.8442 70.8037 58.8344 70.8096L50.6487 75.5672C50.633 75.5764 50.6278 75.5965 50.6369 75.6115C50.6461 75.6272 50.6662 75.6324 50.6812 75.6232L58.8507 70.8747L63.0328 73.289C63.0426 73.2949 63.0556 73.2949 63.0654 73.289L64.8338 72.2681L73.002 76.9841L71.2661 77.9861C71.2564 77.992 71.2499 78.0024 71.2499 78.0141C71.2499 78.0258 71.2557 78.0363 71.2661 78.0421L75.4652 80.476C75.4704 80.4792 75.4762 80.4805 75.4814 80.4805Z" fill="#889AA5"/>
<path d="M75.4814 81.0347C75.4925 81.0347 75.5036 81.0289 75.5094 81.0185C75.5185 81.0028 75.5133 80.9833 75.4977 80.9742L71.3475 78.569L73.0834 77.5669C73.0932 77.5611 73.0997 77.5506 73.0997 77.5389C73.0997 77.5272 73.0932 77.5168 73.0834 77.5109L64.8501 72.7572C64.8403 72.7513 64.8273 72.7513 64.8175 72.7572L63.0491 73.7781L58.867 71.3638C58.8566 71.3579 58.8442 71.3579 58.8344 71.3638L50.6487 76.1214C50.633 76.1306 50.6278 76.1507 50.6369 76.1657C50.6461 76.1813 50.6662 76.1866 50.6812 76.1774L58.8507 71.4289L63.0328 73.8432C63.0426 73.8491 63.0556 73.8491 63.0654 73.8432L64.8338 72.8223L73.002 77.5383L71.2661 78.5403C71.2564 78.5462 71.2499 78.5566 71.2499 78.5683C71.2499 78.58 71.2557 78.5905 71.2661 78.5963L75.4652 81.0302C75.4704 81.0334 75.4762 81.0347 75.4814 81.0347Z" fill="#889AA5"/>
<path d="M50.6801 76.7028C50.6983 76.7028 50.7126 76.6884 50.7126 76.6702V75.6004C50.7126 75.5822 50.6983 75.5679 50.6801 75.5679C50.6619 75.5679 50.6475 75.5822 50.6475 75.6004V76.6702C50.6475 76.6884 50.6619 76.7028 50.6801 76.7028Z" fill="#889AA5"/>
<path d="M52.3168 75.7606C52.335 75.7606 52.3494 75.7463 52.3494 75.7281V74.6583C52.3494 74.6401 52.335 74.6257 52.3168 74.6257C52.2986 74.6257 52.2843 74.6401 52.2843 74.6583V75.7281C52.2843 75.7463 52.2986 75.7606 52.3168 75.7606Z" fill="#889AA5"/>
<path d="M53.9545 74.8177C53.9727 74.8177 53.9871 74.8034 53.9871 74.7852V73.7154C53.9871 73.6972 53.9727 73.6829 53.9545 73.6829C53.9363 73.6829 53.9219 73.6972 53.9219 73.7154V74.7852C53.9219 74.8034 53.9363 74.8177 53.9545 74.8177Z" fill="#889AA5"/>
<path d="M55.5912 73.8756C55.6095 73.8756 55.6238 73.8613 55.6238 73.8431V72.7733C55.6238 72.755 55.6095 72.7407 55.5912 72.7407C55.573 72.7407 55.5587 72.755 55.5587 72.7733V73.8431C55.5587 73.8613 55.573 73.8756 55.5912 73.8756Z" fill="#889AA5"/>
<path d="M57.2289 72.9335C57.2472 72.9335 57.2615 72.9192 57.2615 72.9009V71.8311C57.2615 71.8129 57.2472 71.7986 57.2289 71.7986C57.2107 71.7986 57.1964 71.8129 57.1964 71.8311V72.9009C57.1964 72.9192 57.2107 72.9335 57.2289 72.9335Z" fill="#889AA5"/>
<path d="M58.8659 71.9913C58.8841 71.9913 58.8984 71.977 58.8984 71.9588V70.889C58.8984 70.8708 58.8841 70.8564 58.8659 70.8564C58.8477 70.8564 58.8333 70.8708 58.8333 70.889V71.9588C58.8333 71.977 58.8477 71.9913 58.8659 71.9913Z" fill="#889AA5"/>
<path d="M72.5561 79.9017C72.5743 79.9017 72.5886 79.8873 72.5886 79.8691V78.7655C72.5886 78.7472 72.5743 78.7329 72.5561 78.7329C72.5378 78.7329 72.5235 78.7472 72.5235 78.7655V79.8691C72.5235 79.8873 72.5378 79.9017 72.5561 79.9017Z" fill="#889AA5"/>
<path d="M74.2797 80.8946C74.2979 80.8946 74.3123 80.8803 74.3123 80.862V79.7584C74.3123 79.7402 74.2979 79.7258 74.2797 79.7258C74.2615 79.7258 74.2471 79.7402 74.2471 79.7584V80.862C74.2471 80.8803 74.2615 80.8946 74.2797 80.8946Z" fill="#889AA5"/>
<path d="M60.6076 73.0142C60.6258 73.0142 60.6401 72.9999 60.6401 72.9816V71.878C60.6401 71.8598 60.6258 71.8455 60.6076 71.8455C60.5893 71.8455 60.575 71.8598 60.575 71.878V72.9816C60.575 72.9999 60.5893 73.0142 60.6076 73.0142Z" fill="#889AA5"/>
<path d="M62.3302 74.0079C62.3485 74.0079 62.3628 73.9935 62.3628 73.9753V72.8717C62.3628 72.8534 62.3485 72.8391 62.3302 72.8391C62.312 72.8391 62.2977 72.8534 62.2977 72.8717V73.9753C62.2977 73.9935 62.312 74.0079 62.3302 74.0079Z" fill="#889AA5"/>
<path d="M67.9274 75.1766C67.9456 75.1766 67.96 75.1622 67.96 75.144V74.0404C67.96 74.0221 67.9456 74.0078 67.9274 74.0078C67.9092 74.0078 67.8948 74.0221 67.8948 74.0404V75.144C67.8948 75.1622 67.9092 75.1766 67.9274 75.1766Z" fill="#889AA5"/>
<path d="M69.6501 76.1695C69.6683 76.1695 69.6826 76.1552 69.6826 76.1369V75.0333C69.6826 75.0151 69.6683 75.0007 69.6501 75.0007C69.6318 75.0007 69.6175 75.0151 69.6175 75.0333V76.1369C69.6175 76.1552 69.6318 76.1695 69.6501 76.1695Z" fill="#889AA5"/>
<path d="M72.0924 79.5006L71.5422 79.1223L73.3269 78.0916V78.7681L72.0924 79.5006Z" fill="#62747F"/>
<path d="M61.0052 52.445L70.5525 57.9567L70.5199 57.5478L61.0248 52.0654L61.0052 52.445Z" fill="#62747F"/>
<path d="M60.5939 60.4692L71.2402 66.615L71.2077 66.2061L60.6141 60.0896L60.5939 60.4692Z" fill="#62747F"/>
<path d="M60.1842 68.493L71.929 75.2736L71.8964 74.8647L60.2031 68.114L60.1842 68.493Z" fill="#62747F"/>
<path d="M56.5817 43.9141L57.033 44.1745L53.7989 77.5069L53.3477 77.2465L56.5817 43.9141Z" fill="#889AA5"/>
<path d="M61.2534 41.2166L61.7046 41.477L59.8958 73.9955L59.4452 73.735L61.2534 41.2166Z" fill="#889AA5"/>
<path d="M57.033 44.1746L57.2296 44.0606V44.0541L61.7041 41.4816V41.477L62.1553 41.2166L60.3465 73.735L53.7982 77.5069L57.0323 44.1746H57.033ZM54.3758 76.4984L59.8861 68.8205L54.8309 71.7329L54.3764 76.4984H54.3758ZM54.8693 71.3194L60.0593 68.3295L55.3394 66.3886L54.8693 71.3194ZM55.4332 65.4093L60.4702 58.1233L55.8759 60.7682L55.4332 65.4093ZM55.9157 60.3547L60.6792 57.6122L56.3858 55.4258L55.9157 60.3547ZM56.4854 54.382L61.0621 47.4223L56.9223 49.8034L56.4854 54.382ZM56.9614 49.39L61.2528 46.9209L57.4217 44.5633L56.9614 49.3893V49.39ZM61.6819 41.8852L57.5506 44.2605L61.4176 46.6403L61.6819 41.8852ZM61.3668 47.5506L56.6215 54.7668L61.1089 52.1845L61.3668 47.5506ZM61.0868 52.5882L56.6006 55.1699L60.8231 57.3205L61.0861 52.5882H61.0868ZM60.771 58.2607L55.6266 65.7023L60.5138 62.8875L60.771 58.2607ZM60.4917 63.2912L55.5647 66.1288L60.2273 68.0463L60.4917 63.2912ZM59.9187 73.5905L60.1752 68.9748L54.7079 76.5934L59.9187 73.5912V73.5905Z" fill="#62747F"/>
<path d="M62.9033 37.3913C63.0055 37.3236 63.1455 37.2865 63.2894 37.2806C63.4333 37.2747 63.5804 37.3008 63.6976 37.36C63.8148 37.4193 63.8793 37.5 63.8891 37.5827V80.2664C63.8988 80.3497 63.8539 80.4344 63.7517 80.5021C63.6495 80.5698 63.5095 80.6069 63.3656 80.6128C63.2217 80.6186 63.0745 80.5926 62.9567 80.5333C62.8395 80.4741 62.775 80.3933 62.7653 80.3106V37.6263C62.7555 37.543 62.8004 37.4583 62.9026 37.3906L62.9033 37.3913Z" fill="#414E5F"/>
<path d="M63.2894 37.2806C63.4333 37.2747 63.5804 37.3008 63.6976 37.36C63.8148 37.4193 63.8793 37.5 63.8891 37.5827C63.8988 37.6661 63.8539 37.7507 63.7517 37.8184C63.6495 37.8861 63.5095 37.9232 63.3656 37.9291C63.2217 37.935 63.0745 37.9089 62.9567 37.8497C62.8395 37.7904 62.775 37.7097 62.7653 37.627C62.7555 37.5436 62.8004 37.459 62.9026 37.3913C63.0049 37.3236 63.1449 37.2865 63.2887 37.2806H63.2894Z" fill="#5B6879"/>
<path opacity="0.5" d="M63.7524 37.819C63.8384 37.7624 63.8833 37.6927 63.8898 37.623V80.2676C63.8996 80.351 63.8546 80.4356 63.7524 80.5033C63.6502 80.5711 63.5102 80.6082 63.3663 80.614V37.9297C63.5102 37.9239 63.6502 37.8867 63.7524 37.819Z" fill="#29333F"/>
<path d="M63.6287 37.8802C63.6736 37.864 63.7153 37.8438 63.7524 37.819C63.8384 37.7624 63.8833 37.6927 63.8898 37.623V80.2677C63.8996 80.351 63.8546 80.4356 63.7524 80.5034C63.7153 80.5274 63.6736 80.5483 63.6287 80.5646V37.8802Z" fill="#29333F"/>
<path d="M55.5588 78.4529C55.5699 78.4529 55.581 78.447 55.5868 78.4366C55.5959 78.421 55.5907 78.4014 55.5751 78.3923L50.6813 75.5665C50.6657 75.5574 50.6462 75.5626 50.6371 75.5782C50.628 75.5938 50.6332 75.6134 50.6488 75.6225L55.5425 78.4483C55.5478 78.4516 55.5536 78.4529 55.5588 78.4529Z" fill="#889AA5"/>
<path d="M55.5588 79.0071C55.5699 79.0071 55.581 79.0012 55.5868 78.9908C55.5959 78.9752 55.5907 78.9556 55.5751 78.9465L50.6813 76.1207C50.6657 76.1116 50.6462 76.1168 50.6371 76.1324C50.628 76.148 50.6332 76.1676 50.6488 76.1767L55.5425 79.0025C55.5478 79.0058 55.5536 79.0071 55.5588 79.0071Z" fill="#889AA5"/>
<path d="M52.4027 77.7432C52.421 77.7432 52.4353 77.7289 52.4353 77.7107V76.607C52.4353 76.5888 52.421 76.5745 52.4027 76.5745C52.3845 76.5745 52.3702 76.5888 52.3702 76.607V77.7107C52.3702 77.7289 52.3845 77.7432 52.4027 77.7432Z" fill="#889AA5"/>
<path d="M54.1256 78.7361C54.1439 78.7361 54.1582 78.7218 54.1582 78.7036V77.5999C54.1582 77.5817 54.1439 77.5674 54.1256 77.5674C54.1074 77.5674 54.0931 77.5817 54.0931 77.5999V78.7036C54.0931 78.7218 54.1074 78.7361 54.1256 78.7361Z" fill="#889AA5"/>
<path d="M64.4602 76.6736L67.4846 78.4192V77.0395L64.4602 75.2932V76.6736Z" fill="#889AA5"/>
<path d="M64.4601 75.2931L67.4846 77.0394L68.7256 76.3225L65.7012 74.5769L64.4601 75.2931Z" fill="#AEC0CB"/>
<path d="M68.7256 76.3225V77.7029L67.4846 78.4191V77.0394L68.7256 76.3225Z" fill="#62747F"/>
<path d="M57.7627 75.7619L60.7871 77.5076V76.1279L57.7627 74.3816V75.7619Z" fill="#889AA5"/>
<path d="M57.7629 74.3815L60.7873 76.1278L62.0283 75.4116L59.0039 73.6653L57.7629 74.3815Z" fill="#AEC0CB"/>
<path d="M62.0283 75.4116V76.7913L60.7873 77.5076V76.1278L62.0283 75.4116Z" fill="#62747F"/>
<path d="M61.3394 85.3983L61.3198 81.5373L55.0711 77.9705L55.09 81.8316L61.3394 85.3983Z" fill="#C1060B"/>
<path d="M64.3313 79.8144L61.3206 81.5529L55.0894 77.9549L58.1002 76.217L64.3313 79.8144Z" fill="#AEC0CB"/>
<path d="M61.3206 81.5529L64.3313 79.8145V82.012L61.973 83.3734V84.0617L62.8259 84.5507L61.3206 85.4134L61.3225 83.7491L61.3206 81.5529Z" fill="#62747F"/>
<path d="M71.9676 80.9722L72.4019 81.2425L69.6223 46.0485L69.1717 45.7881L71.9676 80.9722Z" fill="#889AA5"/>
<path d="M66.3293 84.7415L65.8781 84.481L64.4991 48.4856L64.9503 48.746L66.3293 84.7415Z" fill="#889AA5"/>
<path d="M64.9504 48.7486V48.7454L70.0733 45.7874L72.9011 80.9429V80.9455V80.9526L66.3294 84.7408L64.9504 48.748V48.7486ZM69.6527 46.4352L65.4361 48.8606L70.0545 51.5269L69.6527 46.4359V46.4352ZM70.1385 52.5863L66.0592 60.242L70.5389 57.6617L70.1378 52.5863H70.1385ZM70.5688 58.0348L66.1094 60.6041L70.981 63.256L70.5688 58.0354V58.0348ZM71.0389 63.9879L66.4759 72.1346L71.4557 69.2619L71.0389 63.9879ZM71.485 69.6343L66.5892 72.4517L71.9004 74.8966L71.485 69.6343ZM72.3718 80.8615L71.9674 75.7418L67.1368 83.8846L72.3718 80.8615ZM66.8113 83.7947L71.6809 75.5862L66.6003 78.5188L66.8106 83.7947H66.8113ZM66.5853 78.1372L71.7213 75.1727L66.3692 72.7089L66.586 78.1372H66.5853ZM66.3294 71.729L70.6196 64.0699L66.127 66.6601L66.3294 71.729ZM66.112 66.2779L70.8423 63.551L65.8958 60.8587L66.112 66.2779ZM65.8587 59.9276L69.8891 52.3629L65.6542 54.8007L65.8587 59.9276ZM65.6386 54.4185L70.033 51.8889L65.4316 49.2324L65.6386 54.4178V54.4185Z" fill="#62747F"/>
<path d="M67.2956 85.2298C67.3015 85.2298 67.3067 85.2285 67.3119 85.2252L75.4977 80.476C75.5133 80.4669 75.5185 80.4474 75.5094 80.4317C75.5003 80.4161 75.4808 80.4109 75.4652 80.42L67.2956 85.1595L62.1128 82.1669C62.0972 82.1578 62.0776 82.163 62.0685 82.1787C62.0594 82.1943 62.0646 82.2138 62.0802 82.2229L67.28 85.2252C67.2852 85.2278 67.2904 85.2298 67.2963 85.2298H67.2956Z" fill="#889AA5"/>
<path d="M67.2956 85.7832C67.3015 85.7832 67.3067 85.7819 67.3119 85.7787L75.4977 81.0295C75.5133 81.0204 75.5185 81.0008 75.5094 80.9852C75.5003 80.9696 75.4808 80.9644 75.4652 80.9735L67.2956 85.7129L62.1128 82.7204C62.0972 82.7113 62.0776 82.7165 62.0685 82.7321C62.0594 82.7478 62.0646 82.7673 62.0802 82.7764L67.28 85.7787C67.2852 85.7813 67.2904 85.7832 67.2963 85.7832H67.2956Z" fill="#889AA5"/>
<path d="M67.2951 86.2994C67.3133 86.2994 67.3276 86.2851 67.3276 86.2669V85.1971C67.3276 85.1789 67.3133 85.1646 67.2951 85.1646C67.2768 85.1646 67.2625 85.1789 67.2625 85.1971V86.2669C67.2625 86.2851 67.2768 86.2994 67.2951 86.2994Z" fill="#889AA5"/>
<path d="M68.9325 85.3573C68.9508 85.3573 68.9651 85.343 68.9651 85.3247V84.255C68.9651 84.2367 68.9508 84.2224 68.9325 84.2224C68.9143 84.2224 68.9 84.2367 68.9 84.255V85.3247C68.9 85.343 68.9143 85.3573 68.9325 85.3573Z" fill="#889AA5"/>
<path d="M70.5695 84.4147C70.5877 84.4147 70.6021 84.4003 70.6021 84.3821V83.3123C70.6021 83.2941 70.5877 83.2798 70.5695 83.2798C70.5513 83.2798 70.5369 83.2941 70.5369 83.3123V84.3821C70.5369 84.4003 70.5513 84.4147 70.5695 84.4147Z" fill="#889AA5"/>
<path d="M72.2072 83.4725C72.2254 83.4725 72.2397 83.4582 72.2397 83.44V82.3702C72.2397 82.352 72.2254 82.3376 72.2072 82.3376C72.189 82.3376 72.1746 82.352 72.1746 82.3702V83.44C72.1746 83.4582 72.189 83.4725 72.2072 83.4725Z" fill="#889AA5"/>
<path d="M73.8439 82.5302C73.8621 82.5302 73.8765 82.5158 73.8765 82.4976V81.4278C73.8765 81.4096 73.8621 81.3953 73.8439 81.3953C73.8257 81.3953 73.8114 81.4096 73.8114 81.4278V82.4976C73.8114 82.5158 73.8257 82.5302 73.8439 82.5302Z" fill="#889AA5"/>
<path d="M75.4816 81.588C75.4998 81.588 75.5142 81.5737 75.5142 81.5555V80.4857C75.5142 80.4674 75.4998 80.4531 75.4816 80.4531C75.4634 80.4531 75.449 80.4674 75.449 80.4857V81.5555C75.449 81.5737 75.4634 81.588 75.4816 81.588Z" fill="#889AA5"/>
<path d="M63.8493 84.3489C63.8675 84.3489 63.8818 84.3346 63.8818 84.3164V83.2127C63.8818 83.1945 63.8675 83.1802 63.8493 83.1802C63.831 83.1802 63.8167 83.1945 63.8167 83.2127V84.3164C63.8167 84.3346 63.831 84.3489 63.8493 84.3489Z" fill="#889AA5"/>
<path d="M65.5722 85.3418C65.5904 85.3418 65.6047 85.3275 65.6047 85.3093V84.2057C65.6047 84.1874 65.5904 84.1731 65.5722 84.1731C65.5539 84.1731 65.5396 84.1874 65.5396 84.2057V85.3093C65.5396 85.3275 65.5539 85.3418 65.5722 85.3418Z" fill="#889AA5"/>
<path d="M56.0881 42.8384C56.1415 42.8033 56.2144 42.7838 56.2893 42.7805C56.3642 42.7772 56.441 42.7909 56.5022 42.8222C56.5634 42.8528 56.5973 42.8951 56.6018 42.9381V96.5708C56.607 96.6138 56.5836 96.6587 56.5302 96.6939C56.4768 96.7291 56.4039 96.7486 56.329 96.7518C56.2541 96.7551 56.1773 96.7414 56.1161 96.7102C56.0549 96.6796 56.021 96.6373 56.0165 96.5943V42.9615C56.0113 42.9185 56.0347 42.8736 56.0881 42.8384Z" fill="#414E5F"/>
<path d="M56.2893 42.7812C56.3642 42.778 56.441 42.7916 56.5022 42.8229C56.5634 42.8542 56.5973 42.8958 56.6018 42.9388C56.607 42.9818 56.5836 43.0267 56.5302 43.0619C56.4768 43.097 56.4039 43.1166 56.329 43.1198C56.2541 43.1231 56.1773 43.1094 56.1161 43.0781C56.0549 43.0475 56.021 43.0052 56.0165 42.9622C56.0113 42.9193 56.0347 42.8743 56.0881 42.8392C56.1415 42.804 56.2144 42.7845 56.2893 42.7812Z" fill="#5B6879"/>
<path opacity="0.5" d="M56.5309 43.0612C56.5759 43.0313 56.5993 42.9954 56.6026 42.959V96.5716C56.6078 96.6146 56.5843 96.6595 56.5309 96.6946C56.4775 96.7298 56.4046 96.7493 56.3297 96.7526V43.1198C56.4046 43.1166 56.4775 43.0977 56.5309 43.0619V43.0612Z" fill="#29333F"/>
<path d="M56.4665 43.0931C56.4899 43.0846 56.5114 43.0742 56.5309 43.0612C56.5759 43.0313 56.5993 42.9954 56.6026 42.959V96.5716C56.6078 96.6146 56.5843 96.6595 56.5309 96.6946C56.5121 96.707 56.4899 96.7181 56.4665 96.7265V43.0938V43.0931Z" fill="#29333F"/>
<path d="M56.5583 43.1353C56.6117 43.1002 56.6846 43.0806 56.7595 43.0774C56.8344 43.0741 56.9112 43.0878 56.9724 43.119C57.0336 43.1503 57.0675 43.192 57.072 43.2349V96.8677C57.0773 96.9107 57.0538 96.9556 57.0004 96.9908C56.947 97.0259 56.8741 97.0455 56.7992 97.0487C56.7244 97.052 56.6475 97.0383 56.5863 97.0071C56.5251 96.9764 56.4913 96.9341 56.4867 96.8912V43.2584C56.4815 43.2154 56.5049 43.1705 56.5583 43.1353Z" fill="#414E5F"/>
<path d="M56.7595 43.0781C56.8344 43.0749 56.9112 43.0885 56.9724 43.1198C57.0336 43.1504 57.0675 43.1927 57.072 43.2357C57.0773 43.2787 57.0538 43.3236 57.0004 43.3587C56.947 43.3939 56.8741 43.4134 56.7992 43.4167C56.7244 43.4199 56.6475 43.4063 56.5863 43.375C56.5251 43.3438 56.4913 43.3021 56.4867 43.2591C56.4815 43.2161 56.5049 43.1712 56.5583 43.1361C56.6117 43.1009 56.6846 43.0814 56.7595 43.0781Z" fill="#5B6879"/>
<path opacity="0.5" d="M57.0009 43.3581C57.0458 43.3281 57.0693 43.2923 57.0725 43.2559V96.8684C57.0777 96.9114 57.0543 96.9563 57.0009 96.9915C56.9475 97.0267 56.8746 97.0462 56.7997 97.0495V43.4167C56.8746 43.4134 56.9475 43.3945 57.0009 43.3587V43.3581Z" fill="#29333F"/>
<path d="M56.9365 43.39C56.9599 43.3815 56.9814 43.3711 57.0009 43.3581C57.0458 43.3281 57.0693 43.2923 57.0725 43.2559V96.8684C57.0777 96.9114 57.0543 96.9563 57.0009 96.9915C56.982 97.0045 56.9599 97.0149 56.9365 97.0234V43.3906V43.39Z" fill="#29333F"/>
<path d="M57.0571 43.4259C57.1105 43.3907 57.1834 43.3712 57.2583 43.3679C57.3332 43.3646 57.41 43.3783 57.4712 43.4096C57.5324 43.4402 57.5663 43.4825 57.5708 43.5255V97.1582C57.576 97.2012 57.5526 97.2461 57.4992 97.2813C57.4458 97.3165 57.3729 97.336 57.298 97.3392C57.2231 97.3425 57.1463 97.3288 57.0851 97.2976C57.0239 97.2663 56.99 97.2247 56.9855 97.1817V43.5489C56.9803 43.5059 57.0037 43.461 57.0571 43.4259Z" fill="#414E5F"/>
<path d="M57.2583 43.3679C57.3332 43.3646 57.41 43.3783 57.4712 43.4096C57.5324 43.4402 57.5663 43.4825 57.5708 43.5255C57.576 43.5684 57.5526 43.6134 57.4992 43.6485C57.4458 43.6837 57.3729 43.7032 57.298 43.7065C57.2231 43.7097 57.1463 43.6961 57.0851 43.6648C57.0239 43.6342 56.99 43.5919 56.9855 43.5489C56.9809 43.5059 57.0037 43.461 57.0571 43.4259C57.1105 43.3907 57.1834 43.3712 57.2583 43.3679Z" fill="#5B6879"/>
<path opacity="0.5" d="M57.4992 43.6484C57.5441 43.6184 57.5676 43.5826 57.5708 43.5461V97.1587C57.576 97.2017 57.5526 97.2466 57.4992 97.2818C57.4458 97.317 57.3729 97.3365 57.298 97.3397V43.707C57.3729 43.7037 57.4458 43.6848 57.4992 43.649V43.6484Z" fill="#29333F"/>
<path d="M57.4347 43.6803C57.4582 43.6718 57.4803 43.6614 57.4992 43.6484C57.5441 43.6184 57.5676 43.5826 57.5708 43.5461V97.1587C57.576 97.2017 57.5526 97.2466 57.4992 97.2818C57.4803 97.2942 57.4582 97.3052 57.4347 97.3137V43.6809V43.6803Z" fill="#29333F"/>
<path d="M58.8528 44.4649C58.9061 44.4297 58.9791 44.4102 59.0539 44.407C59.1288 44.4037 59.2057 44.4174 59.2669 44.4486C59.3281 44.4792 59.3619 44.5216 59.3665 44.5645V98.1973C59.3717 98.2403 59.3482 98.2852 59.2949 98.3204C59.2415 98.3555 59.1685 98.3751 59.0937 98.3783C59.0188 98.3816 58.942 98.3679 58.8807 98.3366C58.8195 98.306 58.7857 98.2637 58.7811 98.2207V44.588C58.7759 44.545 58.7994 44.5001 58.8528 44.4649Z" fill="#414E5F"/>
<path d="M59.0539 44.407C59.1288 44.4037 59.2057 44.4174 59.2669 44.4486C59.3281 44.4792 59.3619 44.5216 59.3665 44.5645C59.3717 44.6075 59.3482 44.6524 59.2949 44.6876C59.2415 44.7228 59.1685 44.7423 59.0937 44.7455C59.0188 44.7488 58.942 44.7351 58.8807 44.7039C58.8195 44.6726 58.7857 44.6309 58.7811 44.588C58.7759 44.545 58.7994 44.5001 58.8528 44.4649C58.9061 44.4297 58.9791 44.4102 59.0539 44.407Z" fill="#5B6879"/>
<path opacity="0.5" d="M59.2956 44.6877C59.3405 44.6577 59.364 44.6219 59.3672 44.5854V98.198C59.3724 98.241 59.349 98.2859 59.2956 98.3211C59.2422 98.3563 59.1693 98.3758 59.0944 98.379V44.7463C59.1693 44.743 59.2422 44.7241 59.2956 44.6883V44.6877Z" fill="#29333F"/>
<path d="M59.2311 44.7196C59.2546 44.7111 59.2761 44.7007 59.2956 44.6877C59.3405 44.6577 59.364 44.6219 59.3672 44.5854V98.198C59.3724 98.241 59.349 98.2859 59.2956 98.3211C59.2767 98.3335 59.2546 98.3445 59.2311 98.353V44.7202V44.7196Z" fill="#29333F"/>
<path d="M59.323 44.7618C59.3764 44.7266 59.4493 44.7071 59.5242 44.7038C59.599 44.7006 59.6759 44.7143 59.7371 44.7455C59.7983 44.7761 59.8321 44.8184 59.8367 44.8614V98.4942C59.8419 98.5371 59.8185 98.5821 59.7651 98.6172C59.7117 98.6524 59.6388 98.6719 59.5639 98.6752C59.489 98.6784 59.4122 98.6648 59.351 98.6335C59.2898 98.6029 59.2559 98.5606 59.2513 98.5176V44.8848C59.2461 44.8419 59.2696 44.7969 59.323 44.7618Z" fill="#414E5F"/>
<path d="M59.5242 44.7038C59.599 44.7006 59.6759 44.7143 59.7371 44.7455C59.7983 44.7761 59.8321 44.8184 59.8367 44.8614C59.8419 44.9044 59.8185 44.9493 59.7651 44.9845C59.7117 45.0196 59.6388 45.0392 59.5639 45.0424C59.489 45.0457 59.4122 45.032 59.351 45.0007C59.2898 44.9695 59.2559 44.9278 59.2513 44.8848C59.2461 44.8419 59.2696 44.7969 59.323 44.7618C59.3764 44.7266 59.4493 44.7071 59.5242 44.7038Z" fill="#5B6879"/>
<path opacity="0.5" d="M59.7656 44.9845C59.8105 44.9546 59.8339 44.9188 59.8372 44.8823V98.4949C59.8424 98.5379 59.8189 98.5828 59.7656 98.618C59.7122 98.6531 59.6392 98.6727 59.5644 98.6759V45.0431C59.6392 45.0399 59.7122 45.021 59.7656 44.9852V44.9845Z" fill="#29333F"/>
<path d="M59.7011 45.0165C59.7245 45.008 59.746 44.9976 59.7656 44.9845C59.8105 44.9546 59.8339 44.9188 59.8372 44.8823V98.4949C59.8424 98.5379 59.8189 98.5828 59.7656 98.618C59.7467 98.6303 59.7245 98.6414 59.7011 98.6499V45.0171V45.0165Z" fill="#29333F"/>
<path d="M59.7506 45.1752V98.7201L60.0631 98.5397L60.1999 98.461L60.3359 98.3822V45.1518C60.3307 45.1088 60.2969 45.0665 60.2363 45.0359C60.1751 45.0053 60.0983 44.9916 60.0234 44.9942C59.9544 44.9975 59.888 45.0137 59.8372 45.043C59.832 45.0456 59.8268 45.0489 59.8222 45.0522C59.7688 45.0873 59.7454 45.1316 59.7506 45.1752Z" fill="#414E5F"/>
<path d="M60.0227 44.9944C60.0976 44.9911 60.1744 45.0048 60.2356 45.036C60.2968 45.0666 60.3307 45.109 60.3352 45.1519C60.3404 45.1949 60.317 45.2398 60.2636 45.275C60.2102 45.3102 60.1373 45.3297 60.0624 45.3329C59.9875 45.3362 59.9107 45.3225 59.8495 45.2913C59.7883 45.2607 59.7544 45.2183 59.7499 45.1754C59.7447 45.1324 59.7681 45.0875 59.8215 45.0523C59.8749 45.0172 59.9478 44.9976 60.0227 44.9944Z" fill="#5B6879"/>
<path opacity="0.5" d="M60.0626 45.3328V98.5397L60.1994 98.4609L60.3354 98.3822V45.1726C60.3348 45.1817 60.3328 45.1908 60.3289 45.2C60.3276 45.2045 60.3257 45.2084 60.3231 45.213C60.3211 45.2175 60.3185 45.2221 60.3153 45.226C60.3035 45.2436 60.286 45.2599 60.2638 45.2748C60.2443 45.2879 60.2228 45.2983 60.1994 45.3067C60.1577 45.3217 60.1102 45.3308 60.0626 45.3328Z" fill="#29333F"/>
<path d="M60.1999 45.3067V98.4609L60.3359 98.3822V45.1726C60.3353 45.1817 60.3333 45.1908 60.3294 45.2C60.3281 45.2045 60.3262 45.2084 60.3236 45.213C60.3216 45.2175 60.319 45.2221 60.3158 45.226C60.304 45.2436 60.2865 45.2599 60.2643 45.2748C60.2448 45.2879 60.2233 45.2983 60.1999 45.3067Z" fill="#29333F"/>
<path d="M65.498 49.3827L54.5112 43.0493V38.3906L65.4889 44.7292L65.498 49.3827Z" fill="#889AA5"/>
<path d="M72.2988 40.7971V45.4558L65.498 49.3827L65.4888 44.7292L72.2988 40.7971Z" fill="#62747F"/>
<path d="M56.1089 39.3134L54.5111 38.3908L61.3204 34.4587L72.2988 40.7973L65.4888 44.7294L63.8904 43.8061L61.6277 45.1129L53.8463 40.6202L56.1089 39.3134Z" fill="#AEC0CB"/>
<path d="M61.6277 47.5564V45.1128L53.8462 40.6201V43.0637L61.6277 47.5564Z" fill="#C1060B"/>
<path d="M63.8904 46.2502V43.8059L61.6278 45.1127V47.5563L63.8904 46.2502Z" fill="#62747F"/>
<path opacity="0.3" d="M56.6299 40.0517V39.3133L55.6708 38.7599L61.3205 35.4978L71.1387 41.1664L65.489 44.4285L63.8905 43.5052L61.6279 44.812L55.0067 40.9886L56.6299 40.0517Z" fill="#889AA5"/>
<path d="M56.6299 39.3132V40.0516L55.0067 40.9885L54.3673 40.62L56.6299 39.3132Z" fill="#62747F"/>
<path d="M61.3206 35.4979L55.6709 38.76L55.0315 38.3908L61.3206 34.7595L71.7781 40.7973L71.1387 41.1665L61.3206 35.4979Z" fill="#889AA5"/>
<path d="M61.3206 34.7595V35.4979L55.6709 38.76L55.0315 38.3908L61.3206 34.7595Z" fill="#62747F"/>
<path d="M61.0528 38.504L59.6581 39.3094L59.2518 39.075L61.0528 38.0352L66.582 41.2276L66.1764 41.462L61.0528 38.504Z" fill="#889AA5"/>
<path d="M61.053 38.0352V38.504L59.6583 39.3094L59.252 39.075L61.053 38.0352Z" fill="#62747F"/>
<path d="M66.1765 41.4619L64.7812 42.2673L59.6582 39.3093L61.0529 38.5039L66.1765 41.4619Z" fill="#29333F"/>
<path d="M62.5817 20.6844L67.3472 23.406V23.0154L62.5817 20.2937V20.6844Z" fill="#62747F"/>
<path d="M62.2705 25.9493L68.0693 29.294V28.9034L62.2705 25.5586V25.9493Z" fill="#62747F"/>
<path d="M61.9591 31.2142L68.7913 35.182V34.7914L61.9591 30.8235V31.2142Z" fill="#62747F"/>
<path d="M69.3286 41.2242L66.7443 17.1298L66.2931 16.8694L68.878 40.9638L69.3286 41.2242Z" fill="#889AA5"/>
<path d="M59.4603 16.1045L59.9109 16.3649L57.3266 39.6891L56.8754 39.4286L59.4603 16.1045Z" fill="#889AA5"/>
<path d="M61.9983 36.9921L62.665 14.7748L62.2138 14.5144L61.5471 36.7317L61.9983 36.9921Z" fill="#889AA5"/>
<path d="M57.5505 39.5602L57.3265 39.6891L59.9108 16.3643L60.043 16.2881V16.2705L62.6637 14.8088L62.665 14.7743L63.1162 14.5425L62.4501 36.7311L61.9989 36.9915L62.0002 36.9583L57.5512 39.5667V39.5602H57.5505ZM59.1653 26.9032L62.2782 20.7652L59.6822 22.2386L59.1653 26.9032ZM58.4588 33.2841L62.0946 31.1699L59.0129 28.2783L58.4582 33.2841H58.4588ZM59.2453 27.4651L62.3375 25.6863L62.4749 21.0966L59.2453 27.4651ZM59.1171 27.9294L62.1838 30.8073L62.3258 26.0834L59.1177 27.9294H59.1171ZM58.4119 33.7015L57.906 38.2658L61.8407 31.7078L58.4119 33.7015ZM59.7285 21.8219L62.4547 20.2742L60.2695 16.9399L59.7285 21.8226V21.8219ZM60.3607 16.4847L62.5152 19.7722L62.652 15.2066L60.3607 16.4847ZM62.1532 31.8204L57.8429 39.0041L62.0106 36.5605L62.1526 31.8204H62.1532Z" fill="#62747F"/>
<path d="M62.9033 17.5558C63.0055 17.4881 63.1455 17.451 63.2894 17.4451C63.4333 17.4393 63.5804 17.4653 63.6976 17.5246C63.8148 17.5838 63.8793 17.6646 63.8891 17.7473V40.4978C63.8988 40.5811 63.8539 40.6658 63.7517 40.7335C63.6495 40.8012 63.5095 40.8383 63.3656 40.8442C63.2217 40.85 63.0745 40.824 62.9567 40.7647C62.8395 40.7055 62.775 40.6247 62.7653 40.542V17.7915C62.7555 17.7082 62.8004 17.6235 62.9026 17.5558H62.9033Z" fill="#414E5F"/>
<path d="M63.2894 17.4451C63.4333 17.4393 63.5804 17.4653 63.6976 17.5246C63.8148 17.5838 63.8793 17.6646 63.8891 17.7473C63.8988 17.8306 63.8539 17.9152 63.7517 17.983C63.6495 18.0507 63.5095 18.0878 63.3656 18.0937C63.2217 18.0995 63.0745 18.0735 62.9567 18.0142C62.8395 17.955 62.775 17.8742 62.7653 17.7915C62.7555 17.7082 62.8004 17.6235 62.9026 17.5558C63.0049 17.4881 63.1449 17.451 63.2887 17.4451H63.2894Z" fill="#5B6879"/>
<path opacity="0.5" d="M63.7524 17.9829C63.8384 17.9262 63.8833 17.8565 63.8898 17.7869V40.4977C63.8996 40.581 63.8546 40.6656 63.7524 40.7334C63.6502 40.8011 63.5102 40.8382 63.3663 40.8441V18.0935C63.5102 18.0877 63.6502 18.0506 63.7524 17.9829Z" fill="#29333F"/>
<path d="M63.6287 18.0441C63.6736 18.0278 63.7153 18.0076 63.7524 17.9829C63.8384 17.9262 63.8833 17.8565 63.8898 17.7869V40.4977C63.8996 40.581 63.8546 40.6656 63.7524 40.7334C63.7153 40.7575 63.6736 40.7783 63.6287 40.7946V18.0441Z" fill="#29333F"/>
<path d="M56.9111 41.5427L60.9558 43.8776V42.0323L56.9111 39.6968V41.5427Z" fill="#C1060B"/>
<path d="M56.9112 39.6968L60.956 42.0323L62.615 41.0739L58.5703 38.739L56.9112 39.6968Z" fill="#AEC0CB"/>
<path d="M62.615 41.074V42.9199L60.956 43.8777V42.0324L62.615 41.074Z" fill="#62747F"/>
<path d="M63.5414 18.4438L64.2081 43.6458L64.6567 43.9212L63.9907 18.7199L63.5414 18.4438Z" fill="#889AA5"/>
<path d="M64.1717 18.615V18.6098L66.7442 17.1324V17.1298L67.1948 16.8694L69.7791 40.9631L69.3278 41.2236L69.3265 41.2119L65.1067 43.6568V43.6607L64.6555 43.9211L63.9894 18.7198L64.171 18.615H64.1717ZM64.843 31.2121L68.6057 34.4839L68.0556 29.3571L64.843 31.2121ZM68.0165 28.9885L67.4526 23.7321L64.8729 30.8038L68.0165 28.9885ZM68.6253 34.9319L64.7889 31.5962L64.9335 37.0675L68.6253 34.9319ZM64.9439 37.4523L65.0871 42.8709L68.5732 35.3525L64.9439 37.4517V37.4523ZM67.1629 23.5771L64.6157 25.0441L64.7518 30.1859L67.1629 23.5771ZM67.2313 23.1468L64.464 19.3026L64.606 24.6593L67.2319 23.1468H67.2313ZM66.7839 17.501L64.5083 18.8077L67.3471 22.7509L66.7839 17.501ZM68.7425 35.7608L65.3196 43.1431L69.2881 40.844L68.7431 35.7608H68.7425Z" fill="#62747F"/>
<path d="M61.9702 12.2036L69.8076 16.7288L64.6853 19.6868L56.8472 15.1616L61.9702 12.2036Z" fill="#AEC0CB"/>
<path d="M56.8472 15.7033V15.1616L64.6853 19.6869V20.2286L56.8472 15.7033Z" fill="#889AA5"/>
<path d="M69.8076 16.7288V17.2705L64.6853 20.2285V19.6868L69.8076 16.7288Z" fill="#62747F"/>
<path d="M69.5474 16.2081C69.5584 16.2081 69.5695 16.2022 69.5753 16.1918C69.5845 16.1762 69.5793 16.156 69.5636 16.1475L61.986 11.7727C61.9762 11.7668 61.9632 11.7668 61.9534 11.7727L57.0909 14.5803C57.0753 14.5894 57.0701 14.609 57.0792 14.6246C57.0883 14.6402 57.1078 14.6454 57.1235 14.6363L61.9697 11.8385L69.5311 16.2042C69.5363 16.2074 69.5415 16.2087 69.5474 16.2087V16.2081Z" fill="#889AA5"/>
<path d="M57.0915 14.5796L61.954 11.772C61.9638 11.7661 61.9768 11.7661 61.9866 11.772L61.9703 11.8377L57.1241 14.6356C57.1084 14.6447 57.0883 14.6395 57.0798 14.6238C57.0707 14.6082 57.0759 14.588 57.0915 14.5796Z" fill="#889AA5"/>
<path d="M69.5148 16.7557C69.533 16.7557 69.5474 16.7413 69.5474 16.7231V15.6156C69.5474 15.5973 69.533 15.583 69.5148 15.583C69.4966 15.583 69.4823 15.5973 69.4823 15.6156V16.7231C69.4823 16.7413 69.4966 16.7557 69.5148 16.7557Z" fill="#889AA5"/>
<path d="M68.4325 16.1304C68.4508 16.1304 68.4651 16.1161 68.4651 16.0979V14.9903C68.4651 14.9721 68.4508 14.9578 68.4325 14.9578C68.4143 14.9578 68.4 14.9721 68.4 14.9903V16.0979C68.4 16.1161 68.4143 16.1304 68.4325 16.1304Z" fill="#889AA5"/>
<path d="M67.3498 15.5054C67.368 15.5054 67.3823 15.4911 67.3823 15.4729V14.3653C67.3823 14.3471 67.368 14.3328 67.3498 14.3328C67.3315 14.3328 67.3172 14.3471 67.3172 14.3653V15.4729C67.3172 15.4911 67.3315 15.5054 67.3498 15.5054Z" fill="#889AA5"/>
<path d="M66.2677 14.8804C66.286 14.8804 66.3003 14.8661 66.3003 14.8479V13.7403C66.3003 13.7221 66.286 13.7078 66.2677 13.7078C66.2495 13.7078 66.2352 13.7221 66.2352 13.7403V14.8479C66.2352 14.8661 66.2495 14.8804 66.2677 14.8804Z" fill="#889AA5"/>
<path d="M65.1847 14.2552C65.203 14.2552 65.2173 14.2408 65.2173 14.2226V13.1151C65.2173 13.0968 65.203 13.0825 65.1847 13.0825C65.1665 13.0825 65.1522 13.0968 65.1522 13.1151V14.2226C65.1522 14.2408 65.1665 14.2552 65.1847 14.2552Z" fill="#889AA5"/>
<path d="M64.1027 13.6302C64.1209 13.6302 64.1353 13.6158 64.1353 13.5976V12.4901C64.1353 12.4718 64.1209 12.4575 64.1027 12.4575C64.0845 12.4575 64.0701 12.4718 64.0701 12.4901V13.5976C64.0701 13.6158 64.0845 13.6302 64.1027 13.6302Z" fill="#889AA5"/>
<path d="M63.0199 13.0052C63.0382 13.0052 63.0525 12.9908 63.0525 12.9726V11.8651C63.0525 11.8468 63.0382 11.8325 63.0199 11.8325C63.0017 11.8325 62.9874 11.8468 62.9874 11.8651V12.9726C62.9874 12.9908 63.0017 13.0052 63.0199 13.0052Z" fill="#889AA5"/>
<path d="M61.9372 12.3807C61.9554 12.3807 61.9697 12.3663 61.9697 12.3481V11.2406C61.9697 11.2223 61.9554 11.208 61.9372 11.208C61.9189 11.208 61.9046 11.2223 61.9046 11.2406V12.3481C61.9046 12.3663 61.9189 12.3807 61.9372 12.3807Z" fill="#889AA5"/>
<path d="M57.1078 15.1941C57.1261 15.1941 57.1404 15.1798 57.1404 15.1616V14.054C57.1404 14.0358 57.1261 14.0215 57.1078 14.0215C57.0896 14.0215 57.0753 14.0358 57.0753 14.054V15.1616C57.0753 15.1798 57.0896 15.1941 57.1078 15.1941Z" fill="#889AA5"/>
<path d="M58.3149 14.4903C58.3331 14.4903 58.3474 14.476 58.3474 14.4577V13.3502C58.3474 13.332 58.3331 13.3176 58.3149 13.3176C58.2966 13.3176 58.2823 13.332 58.2823 13.3502V14.4577C58.2823 14.476 58.2966 14.4903 58.3149 14.4903Z" fill="#889AA5"/>
<path d="M59.5229 13.7872C59.5411 13.7872 59.5554 13.7728 59.5554 13.7546V12.6471C59.5554 12.6288 59.5411 12.6145 59.5229 12.6145C59.5046 12.6145 59.4903 12.6288 59.4903 12.6471V13.7546C59.4903 13.7728 59.5046 13.7872 59.5229 13.7872Z" fill="#889AA5"/>
<path d="M60.7299 13.084C60.7481 13.084 60.7625 13.0697 60.7625 13.0515V11.9439C60.7625 11.9257 60.7481 11.9114 60.7299 11.9114C60.7117 11.9114 60.6973 11.9257 60.6973 11.9439V13.0515C60.6973 13.0697 60.7117 13.084 60.7299 13.084Z" fill="#889AA5"/>
<path d="M61.9372 12.3807C61.9554 12.3807 61.9697 12.3663 61.9697 12.3481V11.2406C61.9697 11.2223 61.9554 11.208 61.9372 11.208C61.9189 11.208 61.9046 11.2223 61.9046 11.2406V12.3481C61.9046 12.3663 61.9189 12.3807 61.9372 12.3807Z" fill="#889AA5"/>
<path d="M69.5474 15.6539C69.5584 15.6539 69.5695 15.648 69.5753 15.6376C69.5845 15.622 69.5793 15.6018 69.5636 15.5933L61.986 11.2185C61.9762 11.2126 61.9632 11.2126 61.9534 11.2185L57.0909 14.0261C57.0753 14.0352 57.0701 14.0548 57.0792 14.0704C57.0883 14.086 57.1078 14.0912 57.1235 14.0821L61.9697 11.2843L69.5311 15.65C69.5363 15.6532 69.5415 15.6545 69.5474 15.6545V15.6539Z" fill="#889AA5"/>
<path d="M66.5683 16.6931L66.9062 16.4978V12.6406L66.5683 12.836V16.6931Z" fill="#62747F"/>
<path d="M65.7264 9.74365L65.3879 9.93899L66.5683 12.8358L66.9062 12.6405L65.7264 9.74365Z" fill="#889AA5"/>
<path opacity="0.5" d="M65.7264 9.74365L65.3879 9.93899L66.5683 12.8358L66.9062 12.6405L65.7264 9.74365Z" fill="#62747F"/>
<path d="M63.5512 8.48779L63.2126 8.68313L65.388 9.93912L65.7266 9.74379L63.5512 8.48779Z" fill="#AEC0CB"/>
<path d="M62.7092 14.0742L62.3706 14.2696L62.3713 10.5237L62.7092 10.3284V14.0742Z" fill="#62747F"/>
<path d="M63.74 8.98706L62.7093 10.3284L62.3714 10.5237L63.4021 9.18239L63.74 8.98706Z" fill="#62747F"/>
<path d="M63.2125 8.68311L65.3879 9.9391L66.5684 12.8359V16.6931L66.2298 16.4978V12.7513L65.1991 10.2204L63.402 9.18251L62.3713 10.5238L62.3706 14.2696L62.0327 14.0743V10.2178L63.2125 8.68311Z" fill="#889AA5"/>
<path d="M66.5281 13.2096V12.8189L62.3193 10.3896V10.7797L66.5281 13.2096Z" fill="#889AA5"/>
<path d="M60.2 11.6658L62.5701 10.2979V10.6885L60.2 12.0565V11.6658Z" fill="#62747F"/>
<path d="M60.2 15.1324L62.5701 13.7644V14.1551L60.2 15.5231V15.1324Z" fill="#62747F"/>
<path d="M61.1987 9.83039L63.5245 8.48779L63.863 8.68313L61.5366 10.0257L61.1987 9.83039Z" fill="#AEC0CB"/>
<path d="M63.0726 15.0601L61.5621 15.932L61.0366 15.6285L63.0726 14.4526L65.5996 15.9118L65.0735 16.2152L63.0726 15.0601Z" fill="#889AA5"/>
<path d="M63.0725 14.4526V15.0601L61.5619 15.932L61.0365 15.6285L63.0725 14.4526Z" fill="#62747F"/>
<path d="M65.0735 16.2151L63.5623 17.0876L61.562 15.9319L63.0726 15.0601L65.0735 16.2151Z" fill="#29333F"/>
<path d="M62.9417 10.6892C63.0798 10.598 63.2686 10.5472 63.4633 10.5394C63.6573 10.5316 63.8565 10.5667 64.0148 10.6468C64.173 10.7263 64.2602 10.8357 64.2739 10.9476V16.0992C64.2869 16.2112 64.2264 16.3265 64.0883 16.4176C63.9503 16.5088 63.7615 16.5596 63.5668 16.5674C63.3728 16.5752 63.1735 16.54 63.0153 16.46C62.8571 16.3805 62.7698 16.2711 62.7568 16.1591V11.0075C62.7438 10.8956 62.8043 10.7803 62.9424 10.6892H62.9417Z" fill="#414E5F"/>
<path d="M63.4633 10.5394C63.6573 10.5316 63.8565 10.5667 64.0148 10.6468C64.173 10.7263 64.2602 10.8357 64.2739 10.9476C64.2869 11.0596 64.2264 11.1749 64.0883 11.266C63.9503 11.3572 63.7615 11.408 63.5668 11.4158C63.3728 11.4236 63.1735 11.3884 63.0153 11.3084C62.8571 11.2289 62.7698 11.1195 62.7568 11.0075C62.7438 10.8956 62.8043 10.7803 62.9424 10.6892C63.0804 10.598 63.2692 10.5472 63.4639 10.5394H63.4633Z" fill="#5B6879"/>
<path opacity="0.5" d="M64.0883 11.266C64.2042 11.1891 64.2654 11.0954 64.2739 11.001V16.0992C64.2869 16.2112 64.2264 16.3264 64.0883 16.4176C63.9503 16.5087 63.7615 16.5595 63.5668 16.5673V11.4157C63.7608 11.4079 63.9503 11.3578 64.0883 11.266Z" fill="#29333F"/>
<path d="M63.9209 11.3487C63.9815 11.3265 64.0381 11.2992 64.0876 11.266C64.2035 11.1891 64.2647 11.0954 64.2732 11.001V16.0992C64.2862 16.2112 64.2256 16.3264 64.0876 16.4176C64.0381 16.4508 63.9815 16.4781 63.9209 16.5003V11.3487Z" fill="#29333F"/>
<path d="M63.0908 8.31389C63.193 8.24617 63.333 8.20906 63.4769 8.2032C63.6208 8.19734 63.7679 8.22338 63.8851 8.28263C64.0023 8.34189 64.0668 8.42262 64.0766 8.50532V10.9535C64.0863 11.0368 64.0414 11.1215 63.9392 11.1892C63.837 11.2569 63.697 11.294 63.5531 11.2999C63.4092 11.3057 63.262 11.2797 63.1442 11.2205C63.027 11.1612 62.9625 11.0805 62.9528 10.9978V8.54959C62.943 8.46625 62.9879 8.3816 63.0901 8.31389H63.0908Z" fill="#414E5F"/>
<path d="M63.4769 8.2032C63.6208 8.19734 63.7679 8.22338 63.8851 8.28263C64.0023 8.34189 64.0668 8.42262 64.0766 8.50532C64.0863 8.58866 64.0414 8.6733 63.9392 8.74102C63.837 8.80873 63.697 8.84585 63.5531 8.85171C63.4092 8.85757 63.262 8.83152 63.1448 8.77227C63.0276 8.71302 62.9632 8.63228 62.9534 8.54959C62.9436 8.46625 62.9886 8.3816 63.0908 8.31389C63.193 8.24617 63.333 8.20906 63.4769 8.2032Z" fill="#5B6879"/>
<path d="M63.4842 8.2638C63.6007 8.25924 63.7212 8.28007 63.8163 8.32826C63.9113 8.37644 63.9641 8.4422 63.9719 8.50927C63.9797 8.57698 63.9432 8.646 63.8599 8.70069C63.7765 8.75539 63.6632 8.78599 63.546 8.79055C63.4295 8.7951 63.309 8.77427 63.214 8.72609C63.1189 8.6779 63.0662 8.61214 63.0584 8.54508C63.0505 8.47736 63.087 8.40834 63.1703 8.35365C63.2537 8.29896 63.367 8.26835 63.4842 8.2638Z" fill="#29333F"/>
<path opacity="0.5" d="M63.9392 8.74091C64.0251 8.68426 64.0701 8.61459 64.0766 8.54492V10.9534C64.0863 11.0367 64.0414 11.1214 63.9392 11.1891C63.837 11.2568 63.697 11.2939 63.5531 11.2998V8.8516C63.697 8.84574 63.837 8.80862 63.9392 8.74091Z" fill="#29333F"/>
<path d="M63.8155 8.80211C63.8604 8.78583 63.9021 8.76565 63.9392 8.74091C64.0251 8.68426 64.0701 8.61459 64.0766 8.54492V10.9534C64.0863 11.0367 64.0414 11.1214 63.9392 11.1891C63.9021 11.2132 63.8604 11.234 63.8155 11.2503V8.80211Z" fill="#29333F"/>
<path d="M64.47 14.0477L66.8394 12.6797V13.0704L64.47 14.4383V14.0477Z" fill="#62747F"/>
<path d="M64.47 17.514L66.8394 16.146V16.5367L64.47 17.9047V17.514Z" fill="#62747F"/>
<path d="M63.0649 10.8872L65.3907 9.54395L65.7292 9.73928L63.4035 11.0825L63.0649 10.8872Z" fill="#AEC0CB"/>
<path d="M64.397 17.9464L64.7356 17.7511V13.8945L64.397 14.0899V17.9464Z" fill="#62747F"/>
<path d="M63.5551 10.9971L63.2172 11.1924L64.397 14.0899L64.7356 13.8945L63.5551 10.9971Z" fill="#889AA5"/>
<path opacity="0.5" d="M63.5551 10.9971L63.2172 11.1924L64.397 14.0899L64.7356 13.8945L63.5551 10.9971Z" fill="#62747F"/>
<path d="M61.3798 9.74121L61.0419 9.93654L63.2172 11.1925L63.5552 10.9972L61.3798 9.74121Z" fill="#AEC0CB"/>
<path d="M60.5378 15.3276L60.1999 15.523V11.7771L60.5378 11.5818V15.3276Z" fill="#62747F"/>
<path d="M61.5693 10.2412L60.538 11.5819L60.2 11.7772L61.2308 10.4365L61.5693 10.2412Z" fill="#62747F"/>
<path d="M61.0418 9.93652L63.2172 11.1925L64.397 14.09V17.9465L64.0584 17.7512V14.0053L63.0277 11.4738L61.2306 10.4366L60.1999 11.7772V15.5231L59.8613 15.3277V11.4712L61.0418 9.93652Z" fill="#889AA5"/>
<path d="M64.3567 14.4637V14.073L60.1479 11.6431V12.0337L64.3567 14.4637Z" fill="#889AA5"/>
<path d="M64.6855 19.5691C64.7037 19.5691 64.718 19.5548 64.718 19.5366V18.429C64.718 18.4108 64.7037 18.3965 64.6855 18.3965C64.6672 18.3965 64.6529 18.4108 64.6529 18.429V19.5366C64.6529 19.5548 64.6672 19.5691 64.6855 19.5691Z" fill="#889AA5"/>
<path d="M63.6027 18.9439C63.6209 18.9439 63.6353 18.9296 63.6353 18.9113V17.8038C63.6353 17.7856 63.6209 17.7712 63.6027 17.7712C63.5845 17.7712 63.5701 17.7856 63.5701 17.8038V18.9113C63.5701 18.9296 63.5845 18.9439 63.6027 18.9439Z" fill="#889AA5"/>
<path d="M62.5204 18.3189C62.5387 18.3189 62.553 18.3046 62.553 18.2863V17.1788C62.553 17.1606 62.5387 17.1462 62.5204 17.1462C62.5022 17.1462 62.4879 17.1606 62.4879 17.1788V18.2863C62.4879 18.3046 62.5022 18.3189 62.5204 18.3189Z" fill="#889AA5"/>
<path d="M61.4377 17.6939C61.4559 17.6939 61.4702 17.6796 61.4702 17.6613V16.5538C61.4702 16.5356 61.4559 16.5212 61.4377 16.5212C61.4194 16.5212 61.4051 16.5356 61.4051 16.5538V17.6613C61.4051 17.6796 61.4194 17.6939 61.4377 17.6939Z" fill="#889AA5"/>
<path d="M60.3549 17.0686C60.3731 17.0686 60.3875 17.0543 60.3875 17.0361V15.9286C60.3875 15.9103 60.3731 15.896 60.3549 15.896C60.3367 15.896 60.3223 15.9103 60.3223 15.9286V17.0361C60.3223 17.0543 60.3367 17.0686 60.3549 17.0686Z" fill="#889AA5"/>
<path d="M59.2726 16.4437C59.2909 16.4437 59.3052 16.4293 59.3052 16.4111V15.3036C59.3052 15.2853 59.2909 15.271 59.2726 15.271C59.2544 15.271 59.2401 15.2853 59.2401 15.3036V16.4111C59.2401 16.4293 59.2544 16.4437 59.2726 16.4437Z" fill="#889AA5"/>
<path d="M58.1899 15.8186C58.2081 15.8186 58.2224 15.8043 58.2224 15.7861V14.6786C58.2224 14.6603 58.2081 14.646 58.1899 14.646C58.1716 14.646 58.1573 14.6603 58.1573 14.6786V15.7861C58.1573 15.8043 58.1716 15.8186 58.1899 15.8186Z" fill="#889AA5"/>
<path d="M57.1078 15.1941C57.1261 15.1941 57.1404 15.1798 57.1404 15.1616V14.054C57.1404 14.0358 57.1261 14.0215 57.1078 14.0215C57.0896 14.0215 57.0753 14.0358 57.0753 14.054V15.1616C57.0753 15.1798 57.0896 15.1941 57.1078 15.1941Z" fill="#889AA5"/>
<path d="M64.6856 19.015C64.6914 19.015 64.6966 19.0137 64.7019 19.0104L69.5644 16.2028C69.58 16.1937 69.5852 16.1742 69.5761 16.1585C69.567 16.1429 69.5468 16.1377 69.5318 16.1468L64.6856 18.9447L57.1242 14.5789C57.1086 14.5698 57.089 14.575 57.0799 14.5907C57.0708 14.6063 57.076 14.6258 57.0917 14.6349L64.6693 19.0098C64.6745 19.013 64.6797 19.0143 64.6856 19.0143V19.015Z" fill="#889AA5"/>
<path d="M69.5311 16.1468C69.5467 16.1377 69.5662 16.1429 69.5753 16.1585C69.5845 16.1742 69.5793 16.1937 69.5636 16.2028L64.7011 19.0104C64.6959 19.0137 64.6907 19.015 64.6848 19.015V18.9446L69.5311 16.1468Z" fill="#889AA5"/>
<path d="M64.6855 19.5691C64.7037 19.5691 64.718 19.5548 64.718 19.5366V18.429C64.718 18.4108 64.7037 18.3965 64.6855 18.3965C64.6672 18.3965 64.6529 18.4108 64.6529 18.429V19.5366C64.6529 19.5548 64.6672 19.5691 64.6855 19.5691Z" fill="#889AA5"/>
<path d="M65.8925 18.8653C65.9107 18.8653 65.925 18.851 65.925 18.8327V17.7252C65.925 17.707 65.9107 17.6926 65.8925 17.6926C65.8743 17.6926 65.8599 17.707 65.8599 17.7252V18.8327C65.8599 18.851 65.8743 18.8653 65.8925 18.8653Z" fill="#889AA5"/>
<path d="M67.0998 18.1619C67.118 18.1619 67.1323 18.1476 67.1323 18.1294V17.0218C67.1323 17.0036 67.118 16.9893 67.0998 16.9893C67.0815 16.9893 67.0672 17.0036 67.0672 17.0218V18.1294C67.0672 18.1476 67.0815 18.1619 67.0998 18.1619Z" fill="#889AA5"/>
<path d="M68.3075 17.4588C68.3258 17.4588 68.3401 17.4445 68.3401 17.4262V16.3187C68.3401 16.3005 68.3258 16.2861 68.3075 16.2861C68.2893 16.2861 68.275 16.3005 68.275 16.3187V17.4262C68.275 17.4445 68.2893 17.4588 68.3075 17.4588Z" fill="#889AA5"/>
<path d="M69.5148 16.7557C69.533 16.7557 69.5474 16.7413 69.5474 16.7231V15.6156C69.5474 15.5973 69.533 15.583 69.5148 15.583C69.4966 15.583 69.4823 15.5973 69.4823 15.6156V16.7231C69.4823 16.7413 69.4966 16.7557 69.5148 16.7557Z" fill="#889AA5"/>
<path d="M64.6856 18.4615C64.6914 18.4615 64.6966 18.4602 64.7019 18.457L69.5644 15.6494C69.58 15.6402 69.5852 15.6207 69.5761 15.6051C69.567 15.5895 69.5468 15.5842 69.5318 15.5934L64.6856 18.3912L57.1242 14.0255C57.1086 14.0164 57.089 14.0216 57.0799 14.0372C57.0708 14.0528 57.076 14.073 57.0917 14.0815L64.6693 18.4563C64.6745 18.4589 64.6797 18.4609 64.6856 18.4609V18.4615Z" fill="#889AA5"/>
<path opacity="0.8" d="M64.5421 8.42588C64.9354 8.05931 65.595 7.44205 65.3827 5.89045C65.1711 4.3382 64.5617 4.29457 65.1776 3.08416C65.1776 3.08416 64.255 3.73787 64.2745 4.85127C64.2745 4.85127 63.5212 1.98899 65.1959 0.000488281C65.1959 0.000488281 62.8694 1.56967 62.8512 4.13896C62.8512 4.13896 62.6187 3.12583 62.6526 2.57108C62.6526 2.57108 61.2749 4.87992 61.9911 6.59105C61.9911 6.59105 61.532 6.0975 61.368 5.47569C61.368 5.47569 61.3471 8.0248 63.0869 8.56001C63.5049 8.68893 64.2446 8.70391 64.5434 8.42588H64.5421Z" fill="url(#paint0_radial_112_42727)"/>
<path opacity="0.6" d="M64.0741 8.36522C64.2994 8.15621 64.759 8.16403 64.9342 6.90738C65.0579 6.02122 64.9179 6.32203 64.8137 5.56739C64.8137 5.56739 64.6047 6.82599 64.0982 6.98291C64.0982 6.98291 63.2901 5.37792 63.5434 3.98193C63.5434 3.98193 63.0805 4.89219 63.0701 6.36045C63.0701 6.36045 62.628 5.51595 62.6475 5.19951C62.6475 5.19951 62.2086 6.33961 62.6175 7.31758C62.6175 7.31758 62.0328 7.27917 61.9391 6.92366C61.9391 6.92366 62.2497 8.13603 63.2433 8.44205C63.4822 8.51563 63.9048 8.52409 64.0754 8.36522H64.0741Z" fill="url(#paint1_radial_112_42727)"/>
<path opacity="0.6" d="M63.8297 8.30993C63.9228 8.22333 64.1136 8.22659 64.1859 7.70635C64.2367 7.33912 64.1794 7.46414 64.1358 7.15095C64.1358 7.15095 64.0492 7.67249 63.8395 7.7376C63.8395 7.7376 63.5048 7.07282 63.6097 6.49463C63.6097 6.49463 63.4176 6.87162 63.4137 7.47976C63.4137 7.47976 63.2307 7.13011 63.2385 6.99859C63.2385 6.99859 63.0569 7.4713 63.2262 7.87564C63.2262 7.87564 62.9839 7.86001 62.9455 7.71286C62.9455 7.71286 63.0738 8.21487 63.486 8.34183C63.5849 8.37244 63.7601 8.37569 63.8304 8.30993H63.8297Z" fill="url(#paint2_radial_112_42727)"/>
<path style="mix-blend-mode:screen" opacity="0.5" d="M62.2535 8.11912C62.2535 8.84902 62.8453 9.44088 63.5752 9.44088C64.3051 9.44088 64.897 8.84902 64.897 8.11912C64.897 7.38922 64.3051 6.79736 63.5752 6.79736C62.8453 6.79736 62.2535 7.38922 62.2535 8.11912Z" fill="url(#paint3_radial_112_42727)"/>
<defs>
<radialGradient id="paint0_radial_112_42727" cx="0" cy="0" r="1" gradientUnits="userSpaceOnUse" gradientTransform="translate(63.3977 7.62395) rotate(-172.07) scale(4.25567)">
<stop stop-color="#FFFF00"/>
<stop offset="0.44" stop-color="#FFA548"/>
<stop offset="1" stop-color="#FF530E"/>
</radialGradient>
<radialGradient id="paint1_radial_112_42727" cx="0" cy="0" r="1" gradientUnits="userSpaceOnUse" gradientTransform="translate(63.4418 7.97314) rotate(-172.07) scale(2.8994)">
<stop stop-color="#FFCD64"/>
<stop offset="0.55" stop-color="#FFA548"/>
<stop offset="1" stop-color="#FF530E"/>
</radialGradient>
<radialGradient id="paint2_radial_112_42727" cx="0" cy="0" r="1" gradientUnits="userSpaceOnUse" gradientTransform="translate(63.5666 8.14707) rotate(-172.07) scale(1.20065 1.20065)">
<stop stop-color="#FFCD64"/>
<stop offset="0.55" stop-color="#FFA548"/>
<stop offset="1" stop-color="#FF530E"/>
</radialGradient>
<radialGradient id="paint3_radial_112_42727" cx="0" cy="0" r="1" gradientUnits="userSpaceOnUse" gradientTransform="translate(63.5218 8.1354) rotate(180) scale(1.28725)">
<stop offset="0.3" stop-color="#FFCD64"/>
<stop offset="0.38" stop-color="#FAC962"/>
<stop offset="0.47" stop-color="#EDBE5D"/>
<stop offset="0.56" stop-color="#D7AC54"/>
<stop offset="0.65" stop-color="#B89448"/>
<stop offset="0.75" stop-color="#907438"/>
<stop offset="0.84" stop-color="#5F4C25"/>
<stop offset="0.94" stop-color="#271F0F"/>
<stop offset="1"/>
</radialGradient>
</defs>
</svg>
