<svg width="120" height="120" viewBox="0 0 120 120" fill="none" xmlns="http://www.w3.org/2000/svg">
<path d="M6.48673 52.9884V53.5626L8.86475 52.1901V51.6159L6.48673 52.9884Z" fill="#29333F"/>
<path d="M4.10766 52.1892L6.48657 53.5626V52.9884L4.10766 51.6159V52.1892Z" fill="#414E5F"/>
<path d="M4.10782 51.616L6.48673 52.9885L8.86475 51.616L6.48673 50.2426L4.10782 51.616Z" fill="#5B6879"/>
<path d="M6.48671 48.6011V52.2204L7.40112 51.6918V48.0734L6.48671 48.6011Z" fill="#29333F"/>
<path d="M5.57216 51.6918L6.48657 52.2204V48.6011L5.57216 48.0734V51.6918Z" fill="#414E5F"/>
<path d="M5.57229 48.0734L6.48671 48.6012L7.40112 48.0734L6.48671 47.5448L5.57229 48.0734Z" fill="#5B6879"/>
<path d="M6.48668 43.7158V48.8727L7.78955 48.12V42.963L6.48668 43.7158Z" fill="#29333F"/>
<path d="M5.18282 48.12L6.48657 48.8727V43.7158L5.18282 42.963V48.12Z" fill="#414E5F"/>
<path d="M5.18293 42.963L6.48668 43.7158L7.78955 42.963L6.48668 42.2111L5.18293 42.963Z" fill="#5B6879"/>
<path d="M37.6599 82.8079L78.8372 106.581V97.3636L37.6599 73.5915V82.8079Z" fill="#29333F"/>
<path d="M41.5951 81.8676L44.9768 79.9155C45.9529 79.352 47.3004 79.4333 48.789 80.2932C50.2776 81.1532 51.626 82.6275 52.6011 84.3179C53.5772 86.0074 54.1799 87.9122 54.1799 89.6321C54.1799 91.351 53.5763 92.5593 52.6011 93.1227L49.2194 95.0748C48.2434 95.6383 46.8959 95.557 45.4073 94.6971C43.9187 93.8371 42.5703 92.3628 41.5951 90.6724C40.6191 88.9829 40.0163 87.0772 40.0163 85.3582C40.0163 83.6392 40.62 82.431 41.596 81.8676H41.5951Z" fill="#414E5F"/>
<path opacity="0.5" d="M41.5953 81.8675C42.5713 81.3041 43.9188 81.3853 45.4074 82.2453C46.896 83.1052 48.2444 84.5795 49.2195 86.2699C50.1956 87.9595 50.7983 89.8642 50.7983 91.5841C50.7983 93.3031 50.1947 94.5113 49.2195 95.0748C48.2435 95.6382 46.896 95.557 45.4074 94.697C43.9188 93.8371 42.5704 92.3628 41.5953 90.6723C40.6192 88.9828 40.0165 87.0772 40.0165 85.3582C40.0165 83.6392 40.6201 82.431 41.5961 81.8675H41.5953Z" fill="#29333F"/>
<path opacity="0.5" d="M50.7982 91.5841L54.1799 89.632C54.1799 91.351 53.5763 92.5592 52.6011 93.1227L49.2194 95.0748C50.1954 94.5113 50.7982 93.3031 50.7982 91.5841Z" fill="#29333F"/>
<path d="M44.9769 79.9155C45.9529 79.352 47.3005 79.4333 48.7891 80.2932L45.4073 82.2453C43.9187 81.3854 42.5703 81.3041 41.5952 81.8676L44.9769 79.9155Z" fill="#414E5F"/>
<path d="M52.6011 84.3179C53.5772 86.0074 54.1799 87.9122 54.1799 89.632L50.7982 91.5841C50.7982 89.8651 50.1945 87.9604 49.2194 86.27L52.6011 84.3179Z" fill="#414E5F"/>
<path opacity="0.5" d="M48.7892 80.2932C50.2778 81.1531 51.6262 82.6274 52.6013 84.3179L49.2196 86.2699C48.2436 84.5804 46.896 83.1052 45.4074 82.2452L48.7892 80.2932Z" fill="#5B6879"/>
<path d="M41.6952 82.5265C42.59 82.0104 43.8267 82.0845 45.1921 82.873C46.5575 83.6615 47.7943 85.0144 48.689 86.5646C49.5838 88.1148 50.1375 89.8615 50.1375 91.4385C50.1375 93.0155 49.5838 94.1237 48.689 94.6399C47.7943 95.1569 46.5575 95.0819 45.1921 94.2934C43.8267 93.5049 42.59 92.152 41.6952 90.6018C40.8004 89.0516 40.2468 87.3049 40.2468 85.7279C40.2468 84.1509 40.8004 83.0427 41.6952 82.5265Z" fill="#29333F"/>
<path d="M42.7614 84.8073L42.9846 84.6769C43.5561 84.3474 44.3455 84.3947 45.218 84.8983C46.0904 85.402 46.8798 86.2664 47.4513 87.2558C48.0228 88.2461 48.3765 89.3615 48.3765 90.3688C48.3765 91.376 48.0228 92.0833 47.4513 92.4137L47.2281 92.5441C46.6566 92.8745 45.8672 92.8262 44.9947 92.3226C44.1223 91.819 43.3329 90.9555 42.7614 89.9651C42.1899 88.9748 41.8363 87.8595 41.8363 86.8522C41.8363 85.8449 42.1899 85.1377 42.7614 84.8073Z" fill="#95A7B2"/>
<path d="M42.7615 84.8072C43.333 84.4777 44.1224 84.525 44.9948 85.0286C45.8673 85.5323 46.6567 86.3967 47.2282 87.3861C47.7997 88.3764 48.1533 89.4918 48.1533 90.499C48.1533 91.5063 47.7997 92.2136 47.2282 92.544C46.6567 92.8744 45.8673 92.8262 44.9948 92.3225C44.1224 91.8189 43.333 90.9554 42.7615 89.965C42.19 88.9747 41.8364 87.8594 41.8364 86.8521C41.8364 85.8448 42.19 85.1376 42.7615 84.8072Z" fill="#7C8E99"/>
<path opacity="0.5" d="M48.1532 90.4991L48.3765 90.3687C48.3765 91.376 48.0228 92.0832 47.4513 92.4136L47.2281 92.544C47.7996 92.2136 48.1532 91.5064 48.1532 90.4991Z" fill="#7C8E99"/>
<path d="M45.2181 84.8983C46.0905 85.402 46.8799 86.2664 47.4514 87.2558L47.2282 87.3862C46.6567 86.3958 45.8673 85.5323 44.9948 85.0287L45.2181 84.8983Z" fill="#BBCDD8"/>
<path d="M42.889 85.0287C43.2096 84.8438 43.6034 84.7885 44.0418 84.8697C43.94 85.1573 43.8829 85.4939 43.8829 85.8806C43.8829 86.8298 44.216 87.8826 44.7553 88.8158C45.2947 89.749 46.0386 90.5643 46.861 91.0385C47.195 91.2313 47.5147 91.3492 47.8147 91.4055C47.6665 91.8252 47.4218 92.1386 47.1012 92.3226C46.5618 92.6333 45.818 92.5887 44.9955 92.1136C44.1731 91.6385 43.4284 90.8241 42.8899 89.891C42.3505 88.9578 42.0174 87.905 42.0174 86.9557C42.0174 86.0065 42.3505 85.3385 42.8899 85.0278L42.889 85.0287Z" fill="#95A7B2"/>
<path opacity="0.5" d="M42.0167 86.9566C42.0167 86.0074 42.3498 85.3394 42.8891 85.0287C43.2097 84.8438 43.6035 84.7885 44.042 84.8697C43.9402 85.1573 43.883 85.4939 43.883 85.8806L42.0176 86.9566H42.0167Z" fill="#7C8E99"/>
<path d="M44.7545 88.8158C45.2938 89.7489 46.0377 90.5642 46.8601 91.0384L44.9947 92.1144C44.1722 91.6394 43.4275 90.825 42.889 89.8918L44.7545 88.8158Z" fill="#BBCDD8"/>
<g style="mix-blend-mode:multiply" opacity="0.2">
<path d="M42.8891 85.0288C43.4285 84.718 44.1724 84.7627 44.9948 85.2377C45.8172 85.7128 46.562 86.5272 47.1005 87.4604C47.6389 88.3935 47.9729 89.4464 47.9729 90.3956C47.9729 91.3448 47.6398 92.0128 47.1005 92.3235C47.0326 92.3628 46.9603 92.3968 46.8861 92.4244C47.2407 92.0628 47.4514 91.4922 47.4514 90.7412C47.4514 90.3197 47.3826 89.8777 47.2621 89.4356C47.213 89.6991 47.0897 89.8884 46.9147 89.9893C46.6861 90.1214 46.3691 90.1027 46.0199 89.9009C45.6708 89.6991 45.3538 89.3526 45.1252 88.9561C44.8966 88.5596 44.7546 88.1122 44.7546 87.7086C44.7546 87.305 44.8966 87.0219 45.1252 86.8897C45.3538 86.7576 45.6681 86.7763 46.0164 86.9764C45.5654 86.3995 45.0386 85.9092 44.4724 85.5833C43.7545 85.169 43.0954 85.0823 42.5811 85.2743C42.6748 85.1788 42.7757 85.0948 42.8883 85.0297L42.8891 85.0288Z" fill="black"/>
</g>
<path d="M45.011 86.9013L46.0959 86.2753C46.129 86.2565 46.1647 86.2423 46.2022 86.2307C46.5389 86.5977 46.8434 87.0147 47.1006 87.4594C47.3577 87.905 47.5667 88.3783 47.7158 88.8533C47.6872 88.8792 47.6569 88.9034 47.6238 88.923L46.5389 89.549C46.3433 89.6615 46.0727 89.6454 45.7745 89.4731C45.4762 89.3007 45.2056 89.0052 45.0101 88.6658C44.8145 88.3274 44.6931 87.9452 44.6931 87.6005C44.6931 87.2558 44.8136 87.0138 45.0101 86.9004L45.011 86.9013Z" fill="#95A7B2"/>
<path d="M45.0109 86.9013C45.2065 86.7887 45.477 86.8048 45.7753 86.9772C46.0735 87.1495 46.3441 87.4451 46.5397 87.7844C46.7352 88.1229 46.8567 88.5051 46.8567 88.8498C46.8567 89.1944 46.7361 89.4364 46.5397 89.5498C46.3441 89.6624 46.0735 89.6463 45.7753 89.4739C45.477 89.3016 45.2065 89.006 45.0109 88.6676C44.8153 88.3291 44.6939 87.9469 44.6939 87.6023C44.6939 87.2576 44.8144 87.0156 45.0109 86.9022V86.9013Z" fill="#7C8E99"/>
<path d="M45.4583 87.6755C45.5396 87.6291 45.6521 87.6353 45.7754 87.7068C45.8995 87.7782 46.0111 87.9014 46.0924 88.0416C46.1736 88.1818 46.2236 88.3408 46.2236 88.4837C46.2236 88.6265 46.1736 88.7274 46.0924 88.7739C46.0111 88.8203 45.8986 88.8141 45.7754 88.7426C45.6512 88.6712 45.5396 88.548 45.4583 88.4078C45.3771 88.2676 45.3271 88.1086 45.3271 87.9657C45.3271 87.8229 45.3771 87.7219 45.4583 87.6755Z" fill="#414E5F"/>
<path opacity="0.5" d="M46.5396 89.549C46.7352 89.4365 46.8566 89.1936 46.8566 88.8489L47.5692 88.4382C47.6228 88.5766 47.6728 88.715 47.7166 88.8534C47.688 88.8793 47.6576 88.9034 47.6246 88.9231L46.5396 89.549Z" fill="#7C8E99"/>
<path d="M47.1013 87.4594L46.5396 87.7836C46.3441 87.4451 46.0735 87.1486 45.7752 86.9763L46.4887 86.5646C46.7129 86.8441 46.9191 87.1433 47.1013 87.4585V87.4594Z" fill="#BBCDD8"/>
<g style="mix-blend-mode:multiply" opacity="0.2">
<path d="M47.4344 88.1148C47.4388 88.1256 47.4451 88.1363 47.4496 88.147C47.5522 88.3801 47.6415 88.6167 47.7166 88.8533C47.688 88.8792 47.6576 88.9034 47.6246 88.923L47.5388 88.9721C47.3897 88.5033 47.1834 88.0381 46.9298 87.5987C46.6637 87.1388 46.3476 86.7075 45.9976 86.3316L46.0958 86.2753C46.1288 86.2565 46.1646 86.2423 46.2021 86.2307C46.3699 86.4137 46.5298 86.6093 46.6798 86.8147C46.6869 86.8245 46.6941 86.8352 46.7012 86.845C46.7682 86.9379 46.8334 87.0317 46.8968 87.1281C46.9673 87.237 47.0361 87.3469 47.1004 87.4594C47.1656 87.5719 47.2272 87.6862 47.2861 87.8023C47.3379 87.905 47.387 88.0095 47.4344 88.1148Z" fill="black"/>
</g>
<path d="M54.5658 89.3409L57.9475 87.3888C58.9236 86.8254 60.2711 86.9066 61.7597 87.7666C63.2483 88.6265 64.5967 90.1008 65.5718 91.7912C66.5479 93.4808 67.1506 95.3855 67.1506 97.1054C67.1506 98.8244 66.547 100.033 65.5718 100.596L62.1901 102.548C61.2141 103.112 59.8666 103.03 58.378 102.17C56.8894 101.31 55.541 99.8361 54.5658 98.1457C53.5898 96.4562 52.987 94.5506 52.987 92.8316C52.987 91.1126 53.5907 89.9044 54.5667 89.3409H54.5658Z" fill="#414E5F"/>
<path opacity="0.5" d="M54.5657 89.3409C55.5417 88.7774 56.8893 88.8586 58.3779 89.7186C59.8665 90.5785 61.2149 92.0528 62.19 93.7433C63.166 95.4328 63.7688 97.3375 63.7688 99.0574C63.7688 100.776 63.1651 101.985 62.19 102.548C61.214 103.112 59.8665 103.03 58.3779 102.17C56.8893 101.31 55.5409 99.8361 54.5657 98.1457C53.5897 96.4562 52.9869 94.5505 52.9869 92.8315C52.9869 91.1125 53.5906 89.9043 54.5666 89.3409H54.5657Z" fill="#29333F"/>
<path opacity="0.5" d="M63.7696 99.0574L67.1514 97.1053C67.1514 98.8243 66.5477 100.033 65.5726 100.596L62.1908 102.548C63.1669 101.985 63.7696 100.776 63.7696 99.0574Z" fill="#29333F"/>
<path d="M57.9474 87.3888C58.9234 86.8254 60.2709 86.9066 61.7595 87.7666L58.3778 89.7186C56.8892 88.8587 55.5408 88.7774 54.5656 89.3409L57.9474 87.3888Z" fill="#414E5F"/>
<path d="M65.5718 91.7912C66.5479 93.4808 67.1506 95.3855 67.1506 97.1054L63.7689 99.0574C63.7689 97.3384 63.1653 95.4337 62.1901 93.7433L65.5718 91.7912Z" fill="#414E5F"/>
<path opacity="0.5" d="M61.7596 87.7665C63.2482 88.6265 64.5966 90.1008 65.5718 91.7912L62.1901 93.7432C61.214 92.0537 59.8665 90.5785 58.3779 89.7186L61.7596 87.7665Z" fill="#5B6879"/>
<path d="M54.6659 89.9999C55.5607 89.4837 56.7974 89.5578 58.1628 90.3463C59.5282 91.1348 60.765 92.4877 61.6597 94.0379C62.5545 95.5882 63.1082 97.3348 63.1082 98.9118C63.1082 100.489 62.5545 101.597 61.6597 102.113C60.765 102.63 59.5282 102.555 58.1628 101.767C56.7974 100.978 55.5607 99.6253 54.6659 98.0751C53.7711 96.5249 53.2175 94.7782 53.2175 93.2012C53.2175 91.6242 53.7711 90.516 54.6659 89.9999Z" fill="#29333F"/>
<path d="M55.7328 92.2806L55.9561 92.1502C56.5276 91.8207 57.317 91.868 58.1894 92.3717C59.0619 92.8753 59.8513 93.7397 60.4228 94.7292C60.9943 95.7195 61.3479 96.8348 61.3479 97.8421C61.3479 98.8494 60.9943 99.5566 60.4228 99.887L60.1995 100.017C59.628 100.348 58.8386 100.3 57.9662 99.7959C57.0937 99.2923 56.3043 98.4288 55.7328 97.4385C55.1613 96.4481 54.8077 95.3328 54.8077 94.3255C54.8077 93.3182 55.1613 92.611 55.7328 92.2806Z" fill="#95A7B2"/>
<path d="M55.7329 92.2807C56.3044 91.9512 57.0938 91.9985 57.9663 92.5021C58.8387 93.0058 59.6281 93.8702 60.1996 94.8596C60.7711 95.8499 61.1248 96.9653 61.1248 97.9726C61.1248 98.9798 60.7711 99.6871 60.1996 100.017C59.6281 100.348 58.8387 100.3 57.9663 99.796C57.0938 99.2924 56.3044 98.4289 55.7329 97.4385C55.1614 96.4482 54.8078 95.3329 54.8078 94.3256C54.8078 93.3183 55.1614 92.6111 55.7329 92.2807Z" fill="#7C8E99"/>
<path opacity="0.5" d="M61.1247 97.9724L61.3479 97.842C61.3479 98.8493 60.9943 99.5566 60.4228 99.887L60.1995 100.017C60.771 99.6869 61.1247 98.9797 61.1247 97.9724Z" fill="#7C8E99"/>
<path d="M58.1895 92.3716C59.0619 92.8753 59.8513 93.7397 60.4229 94.7291L60.1996 94.8595C59.6281 93.8692 58.8387 93.0057 57.9663 92.502L58.1895 92.3716Z" fill="#BBCDD8"/>
<path d="M55.8597 92.502C56.1803 92.3172 56.5741 92.2618 57.0125 92.343C56.9107 92.6306 56.8536 92.9672 56.8536 93.3539C56.8536 94.3031 57.1867 95.356 57.726 96.2891C58.2654 97.2223 59.0093 98.0376 59.8317 98.5118C60.1657 98.7047 60.4854 98.8225 60.7854 98.8788C60.6372 99.2985 60.3925 99.6119 60.0719 99.7959C59.5325 100.107 58.7887 100.062 57.9663 99.5869C57.1438 99.1119 56.3991 98.2975 55.8606 97.3643C55.3212 96.4311 54.9881 95.3783 54.9881 94.4291C54.9881 93.4798 55.3212 92.8119 55.8606 92.5011L55.8597 92.502Z" fill="#95A7B2"/>
<path opacity="0.5" d="M54.9881 94.4299C54.9881 93.4807 55.3212 92.8128 55.8606 92.502C56.1812 92.3172 56.575 92.2618 57.0134 92.343C56.9116 92.6306 56.8545 92.9672 56.8545 93.3539L54.989 94.4299H54.9881Z" fill="#7C8E99"/>
<path d="M57.7252 96.2893C58.2645 97.2224 59.0084 98.0377 59.8308 98.5119L57.9654 99.588C57.1429 99.1129 56.3982 98.2985 55.8597 97.3653L57.7252 96.2893Z" fill="#BBCDD8"/>
<g style="mix-blend-mode:multiply" opacity="0.2">
<path d="M55.8596 92.5021C56.399 92.1913 57.1428 92.236 57.9653 92.711C58.7877 93.1861 59.5324 94.0005 60.0709 94.9337C60.6094 95.8668 60.9434 96.9197 60.9434 97.8689C60.9434 98.8182 60.6103 99.4861 60.0709 99.7969C60.0031 99.8362 59.9307 99.8701 59.8566 99.8978C60.2111 99.5361 60.4219 98.9655 60.4219 98.2145C60.4219 97.793 60.3531 97.351 60.2325 96.909C60.1834 97.1724 60.0602 97.3617 59.8852 97.4626C59.6566 97.5948 59.3396 97.576 58.9904 97.3742C58.6412 97.1724 58.3242 96.8259 58.0956 96.4294C57.867 96.0329 57.725 95.5856 57.725 95.1819C57.725 94.7783 57.867 94.4952 58.0956 94.3631C58.3242 94.2309 58.6386 94.2497 58.9868 94.4497C58.5359 93.8728 58.009 93.3826 57.4429 93.0566C56.7249 92.6423 56.0659 92.5557 55.5515 92.7477C55.6453 92.6521 55.7462 92.5682 55.8587 92.503L55.8596 92.5021Z" fill="black"/>
</g>
<path d="M57.9824 94.3746L59.0674 93.7486C59.1004 93.7299 59.1361 93.7156 59.1737 93.704C59.5103 94.071 59.8148 94.488 60.072 94.9327C60.3292 95.3783 60.5381 95.8516 60.6873 96.3267C60.6587 96.3526 60.6283 96.3767 60.5953 96.3963L59.5103 97.0223C59.3147 97.1348 59.0442 97.1188 58.7459 96.9464C58.4477 96.7741 58.1771 96.4785 57.9815 96.14C57.786 95.8016 57.6645 95.4194 57.6645 95.0747C57.6645 94.73 57.7851 94.488 57.9815 94.3746H57.9824Z" fill="#95A7B2"/>
<path d="M57.9823 94.3746C58.1779 94.2621 58.4485 94.2782 58.7467 94.4505C59.045 94.6228 59.3156 94.9184 59.5111 95.2577C59.7067 95.5962 59.8281 95.9784 59.8281 96.3231C59.8281 96.6678 59.7076 96.9098 59.5111 97.0232C59.3156 97.1357 59.045 97.1196 58.7467 96.9473C58.4485 96.7749 58.1779 96.4793 57.9823 96.1409C57.7868 95.8025 57.6653 95.4203 57.6653 95.0756C57.6653 94.7309 57.7859 94.4889 57.9823 94.3755V94.3746Z" fill="#7C8E99"/>
<path d="M58.4288 95.1488C58.5101 95.1024 58.6226 95.1087 58.7458 95.1801C58.8699 95.2515 58.9816 95.3748 59.0628 95.515C59.1441 95.6552 59.1941 95.8141 59.1941 95.957C59.1941 96.0999 59.1441 96.2008 59.0628 96.2472C58.9816 96.2937 58.869 96.2874 58.7458 96.216C58.6217 96.1445 58.5101 96.0213 58.4288 95.8811C58.3475 95.7409 58.2975 95.5819 58.2975 95.4391C58.2975 95.2962 58.3475 95.1953 58.4288 95.1488Z" fill="#414E5F"/>
<path opacity="0.5" d="M59.5103 97.0224C59.7059 96.9098 59.8273 96.667 59.8273 96.3223L60.5399 95.9115C60.5935 96.0499 60.6435 96.1883 60.6873 96.3267C60.6587 96.3526 60.6283 96.3767 60.5953 96.3964L59.5103 97.0224Z" fill="#7C8E99"/>
<path d="M60.072 94.9327L59.5103 95.2569C59.3148 94.9184 59.0442 94.622 58.7459 94.4496L59.4594 94.038C59.6836 94.3175 59.8899 94.6166 60.072 94.9318V94.9327Z" fill="#BBCDD8"/>
<g style="mix-blend-mode:multiply" opacity="0.2">
<path d="M60.4051 95.5882C60.4095 95.5989 60.4158 95.6096 60.4203 95.6203C60.5229 95.8534 60.6122 96.09 60.6873 96.3267C60.6587 96.3526 60.6283 96.3767 60.5953 96.3963L60.5096 96.4454C60.3604 95.9766 60.1541 95.5114 59.9005 95.072C59.6344 94.6121 59.3183 94.1808 58.9683 93.8049L59.0665 93.7486C59.0995 93.7299 59.1353 93.7156 59.1728 93.704C59.3406 93.887 59.5005 94.0826 59.6505 94.288C59.6576 94.2978 59.6648 94.3085 59.6719 94.3184C59.7389 94.4112 59.8041 94.505 59.8675 94.6014C59.938 94.7104 60.0068 94.8202 60.0711 94.9327C60.1363 95.0452 60.1979 95.1596 60.2568 95.2756C60.3086 95.3783 60.3577 95.4828 60.4051 95.5882Z" fill="black"/>
</g>
<path d="M67.3925 96.8142L70.7742 94.8622C71.7502 94.2987 73.0978 94.3799 74.5864 95.2399C76.075 96.0998 77.4234 97.5741 78.3985 99.2646C79.3745 100.954 79.9773 102.859 79.9773 104.579C79.9773 106.298 79.3736 107.506 78.3985 108.069L75.0168 110.021C74.0407 110.585 72.6932 110.504 71.2046 109.644C69.716 108.784 68.3676 107.309 67.3925 105.619C66.4164 103.93 65.8137 102.024 65.8137 100.305C65.8137 98.5859 66.4173 97.3777 67.3934 96.8142H67.3925Z" fill="#414E5F"/>
<path opacity="0.5" d="M67.3926 96.8144C68.3686 96.2509 69.7162 96.3322 71.2048 97.1921C72.6934 98.052 74.0418 99.5264 75.0169 101.217C75.9929 102.906 76.5957 104.811 76.5957 106.531C76.5957 108.25 75.992 109.458 75.0169 110.022C74.0409 110.585 72.6934 110.504 71.2048 109.644C69.7162 108.784 68.3678 107.31 67.3926 105.619C66.4166 103.93 65.8138 102.024 65.8138 100.305C65.8138 98.586 66.4175 97.3778 67.3935 96.8144H67.3926Z" fill="#29333F"/>
<path opacity="0.5" d="M76.5965 106.531L79.9783 104.579C79.9783 106.298 79.3746 107.506 78.3995 108.07L75.0177 110.022C75.9938 109.458 76.5965 108.25 76.5965 106.531Z" fill="#29333F"/>
<path d="M70.7743 94.8622C71.7503 94.2987 73.0978 94.3799 74.5864 95.2399L71.2047 97.1919C69.7161 96.332 68.3677 96.2507 67.3926 96.8142L70.7743 94.8622Z" fill="#414E5F"/>
<path d="M78.3995 99.2647C79.3755 100.954 79.9783 102.859 79.9783 104.579L76.5965 106.531C76.5965 104.812 75.9929 102.907 75.0177 101.217L78.3995 99.2647Z" fill="#414E5F"/>
<path opacity="0.5" d="M74.5873 95.24C76.0759 96.1 77.4243 97.5743 78.3994 99.2647L75.0177 101.217C74.0417 99.5272 72.6941 98.052 71.2055 97.1921L74.5873 95.24Z" fill="#5B6879"/>
<path d="M67.4935 97.4734C68.3883 96.9572 69.6251 97.0313 70.9904 97.8199C72.3558 98.6084 73.5926 99.9612 74.4874 101.511C75.3821 103.062 75.9358 104.808 75.9358 106.385C75.9358 107.962 75.3821 109.071 74.4874 109.587C73.5926 110.104 72.3558 110.029 70.9904 109.24C69.6251 108.452 68.3892 107.099 67.4935 105.549C66.5988 103.998 66.0451 102.252 66.0451 100.675C66.0451 99.0977 66.5988 97.9895 67.4935 97.4734Z" fill="#29333F"/>
<path d="M68.5597 99.7539L68.783 99.6235C69.3545 99.294 70.1439 99.3414 71.0163 99.845C71.8888 100.349 72.6782 101.213 73.2497 102.202C73.8212 103.193 74.1748 104.308 74.1748 105.315C74.1748 106.323 73.8212 107.03 73.2497 107.36L73.0264 107.491C72.4549 107.821 71.6655 107.773 70.7931 107.269C69.9206 106.766 69.1312 105.902 68.5597 104.912C67.9882 103.921 67.6346 102.806 67.6346 101.799C67.6346 100.792 67.9882 100.084 68.5597 99.7539Z" fill="#95A7B2"/>
<path d="M68.5596 99.754C69.1311 99.4245 69.9205 99.4718 70.7929 99.9755C71.6654 100.479 72.4548 101.344 73.0263 102.333C73.5978 103.323 73.9514 104.439 73.9514 105.446C73.9514 106.453 73.5978 107.16 73.0263 107.491C72.4548 107.821 71.6654 107.773 70.7929 107.269C69.9205 106.766 69.1311 105.902 68.5596 104.912C67.9881 103.922 67.6345 102.806 67.6345 101.799C67.6345 100.792 67.9881 100.084 68.5596 99.754Z" fill="#7C8E99"/>
<path opacity="0.5" d="M73.9516 105.446L74.1748 105.316C74.1748 106.323 73.8212 107.03 73.2497 107.36L73.0264 107.491C73.5979 107.16 73.9516 106.453 73.9516 105.446Z" fill="#7C8E99"/>
<path d="M71.0162 99.8452C71.8886 100.349 72.678 101.213 73.2495 102.203L73.0263 102.333C72.4548 101.343 71.6654 100.479 70.7929 99.9755L71.0162 99.8452Z" fill="#BBCDD8"/>
<path d="M68.6875 99.9755C69.0081 99.7906 69.4019 99.7353 69.8395 99.8165C69.7377 100.104 69.6805 100.441 69.6805 100.827C69.6805 101.777 70.0136 102.829 70.5529 103.763C71.0923 104.696 71.8362 105.511 72.6586 105.985C72.9926 106.178 73.3123 106.296 73.6123 106.352C73.4641 106.772 73.2194 107.085 72.8988 107.269C72.3594 107.58 71.6156 107.535 70.7932 107.06C69.9707 106.585 69.226 105.771 68.6875 104.838C68.1481 103.905 67.8151 102.852 67.8151 101.903C67.8151 100.953 68.1481 100.285 68.6875 99.9746V99.9755Z" fill="#95A7B2"/>
<path opacity="0.5" d="M67.815 101.903C67.815 100.954 68.148 100.286 68.6874 99.9755C69.008 99.7906 69.4018 99.7353 69.8394 99.8165C69.7376 100.104 69.6804 100.441 69.6804 100.827L67.815 101.903Z" fill="#7C8E99"/>
<path d="M70.5528 103.762C71.0922 104.695 71.836 105.51 72.6584 105.984L70.793 107.06C69.9706 106.585 69.2258 105.771 68.6874 104.838L70.5528 103.762Z" fill="#BBCDD8"/>
<g style="mix-blend-mode:multiply" opacity="0.2">
<path d="M68.6872 99.9754C69.2266 99.6647 69.9705 99.7093 70.7929 100.184C71.6153 100.659 72.3601 101.474 72.8985 102.407C73.437 103.34 73.771 104.393 73.771 105.342C73.771 106.291 73.4379 106.959 72.8985 107.27C72.8307 107.309 72.7584 107.343 72.6842 107.371C73.0388 107.009 73.2495 106.439 73.2495 105.688C73.2495 105.266 73.1807 104.824 73.0602 104.382C73.0111 104.646 72.8878 104.835 72.7128 104.936C72.4842 105.068 72.1672 105.049 71.818 104.848C71.4689 104.646 71.1519 104.299 70.9233 103.903C70.6947 103.506 70.5527 103.059 70.5527 102.655C70.5527 102.252 70.6947 101.969 70.9233 101.836C71.1519 101.704 71.4662 101.723 71.8145 101.923C71.3635 101.346 70.8367 100.856 70.2705 100.53C69.5525 100.116 68.8935 100.029 68.3792 100.221C68.4729 100.125 68.5738 100.041 68.6863 99.9763L68.6872 99.9754Z" fill="black"/>
</g>
<path d="M70.8091 101.848L71.894 101.222C71.9271 101.203 71.9628 101.189 72.0003 101.177C72.337 101.545 72.6415 101.962 72.8986 102.406C73.1558 102.852 73.3648 103.325 73.5139 103.8C73.4853 103.826 73.455 103.85 73.4219 103.87L72.337 104.496C72.1414 104.608 71.8708 104.592 71.5726 104.42C71.2743 104.248 71.0037 103.952 70.8082 103.614C70.6126 103.275 70.4912 102.893 70.4912 102.548C70.4912 102.204 70.6117 101.962 70.8082 101.848H70.8091Z" fill="#95A7B2"/>
<path d="M70.809 101.848C71.0046 101.736 71.2751 101.752 71.5734 101.924C71.8716 102.096 72.1422 102.392 72.3378 102.731C72.5333 103.07 72.6548 103.452 72.6548 103.797C72.6548 104.141 72.5342 104.383 72.3378 104.497C72.1422 104.609 71.8716 104.593 71.5734 104.421C71.2751 104.248 71.0046 103.953 70.809 103.614C70.6134 103.276 70.492 102.894 70.492 102.549C70.492 102.204 70.6125 101.962 70.809 101.849V101.848Z" fill="#7C8E99"/>
<path d="M71.2564 102.622C71.3377 102.576 71.4502 102.582 71.5735 102.653C71.6976 102.725 71.8092 102.848 71.8905 102.988C71.9717 103.128 72.0217 103.287 72.0217 103.43C72.0217 103.573 71.9717 103.674 71.8905 103.721C71.8092 103.767 71.6967 103.761 71.5735 103.689C71.4493 103.618 71.3377 103.495 71.2564 103.354C71.1752 103.214 71.1252 103.055 71.1252 102.912C71.1252 102.77 71.1752 102.669 71.2564 102.622Z" fill="#414E5F"/>
<path opacity="0.5" d="M72.3379 104.496C72.5335 104.383 72.6549 104.14 72.6549 103.796L73.3675 103.385C73.4211 103.523 73.4711 103.662 73.5149 103.8C73.4863 103.826 73.456 103.85 73.4229 103.87L72.3379 104.496Z" fill="#7C8E99"/>
<path d="M72.8987 102.406L72.337 102.73C72.1414 102.392 71.8709 102.095 71.5726 101.923L72.2861 101.511C72.5093 101.791 72.7165 102.09 72.8987 102.405V102.406Z" fill="#BBCDD8"/>
<g style="mix-blend-mode:multiply" opacity="0.2">
<path d="M73.2327 103.062C73.2372 103.072 73.2434 103.083 73.2479 103.094C73.3506 103.327 73.4399 103.564 73.5149 103.8C73.4863 103.826 73.456 103.85 73.4229 103.87L73.3372 103.919C73.1881 103.45 72.9818 102.985 72.7282 102.546C72.4621 102.086 72.1459 101.654 71.7959 101.278L71.8941 101.222C71.9272 101.203 71.9629 101.189 72.0004 101.177C72.1683 101.361 72.3281 101.556 72.4781 101.762C72.4853 101.771 72.4924 101.782 72.4996 101.792C72.5665 101.885 72.6317 101.979 72.6951 102.075C72.7657 102.184 72.8344 102.294 72.8987 102.406C72.9639 102.519 73.0255 102.633 73.0845 102.749C73.1363 102.852 73.1854 102.956 73.2327 103.062Z" fill="black"/>
</g>
<path d="M7.66713 45.3623V43.8434L8.14219 43.5701L42.3533 46.942V48.461L8.14219 45.0882L7.66713 45.3623Z" fill="#414E5F"/>
<path d="M-8.39233e-05 40.2589L1.93323 39.1427L7.17236 42.1681L44.2856 45.8258L42.3532 46.942L8.14214 43.5701L7.66708 43.8434L13.5081 63.5962L11.5757 64.7124L5.23905 43.2835L-8.39233e-05 40.2589Z" fill="#5B6879"/>
<path d="M0.00012064 40.2589V41.7779L5.23926 44.8024V43.2835L0.00012064 40.2589Z" fill="#414E5F"/>
<path d="M11.5757 64.7125V66.2306L5.23908 44.8025V43.2836L11.5757 64.7125Z" fill="#414E5F"/>
<path d="M120 87.245L116.071 89.565V91.1545L120 88.8649V87.245Z" fill="#29333F"/>
<path d="M13.5662 52.8214L87.415 95.4578V106.084L13.5662 63.4488V52.8214Z" fill="#414E5F"/>
<g style="mix-blend-mode:multiply" opacity="0.2">
<path d="M13.5662 45.2839L87.415 87.9203V98.5468L13.5662 55.9113V45.2839Z" fill="black"/>
</g>
<g style="mix-blend-mode:multiply" opacity="0.2">
<path d="M13.5662 57.3543L87.415 99.9898V104.18L13.5662 61.5442V57.3543Z" fill="black"/>
</g>
<path d="M13.6009 63.4685L9.66557 65.7402L37.4061 81.7559L41.3406 79.4841L13.6009 63.4685Z" fill="#5B6879"/>
<path d="M40.0924 82.698L38.185 83.7955L42.0882 79.5592L43.9956 78.4617L40.0924 82.698Z" fill="#29333F"/>
<path d="M9.66557 67.3297L38.1848 83.7954L42.088 79.5591L74.5399 98.2948L78.4423 107.037L83.4805 109.946V108.356L79.2218 105.897L75.3195 97.1553L41.3084 77.5195L37.4061 81.7558L9.66557 65.7402V67.3297Z" fill="#414E5F"/>
<path d="M87.415 106.084L83.4806 108.356L79.2219 105.897L83.1564 103.626L87.415 106.084Z" fill="#5B6879"/>
<path d="M87.415 107.674L83.4806 109.946V108.356L87.415 106.084V107.674Z" fill="#29333F"/>
<path d="M79.2542 94.8837L75.3197 97.1554L79.222 105.897L83.1565 103.626L79.2542 94.8837Z" fill="#29333F"/>
<path d="M43.216 76.4221L41.3086 77.5196L75.3196 97.1554L77.2271 96.058L43.216 76.4221Z" fill="#5B6879"/>
<path d="M14.0646 57.2479L86.9517 99.328L84.9237 100.501L12.0375 58.4222L14.0646 57.2479Z" fill="#5B6879"/>
<path d="M14.0645 57.248L12.0374 58.4223V54.0663L14.0645 52.892V57.248Z" fill="#29333F"/>
<path d="M25.0259 63.5756L22.9979 64.7499V60.3939L25.0259 59.2197V63.5756Z" fill="#29333F"/>
<path d="M76.4546 93.2673L74.4275 94.4416V90.0856L76.4546 88.9122V93.2673Z" fill="#29333F"/>
<path d="M87.415 94.6542L85.388 95.8285V101.355L87.415 100.182V94.6542Z" fill="#29333F"/>
<g style="mix-blend-mode:multiply" opacity="0.2">
<path d="M12.0373 58.4223L15.9861 58.3571V54.4217L14.0644 52.892V57.248L12.0373 58.4223Z" fill="black"/>
</g>
<g style="mix-blend-mode:multiply" opacity="0.2">
<path d="M74.4275 94.4416L78.2905 94.3273V90.6875L76.4546 88.9122V93.2673L74.4275 94.4416Z" fill="black"/>
</g>
<g style="mix-blend-mode:multiply" opacity="0.2">
<path d="M22.9978 64.7499H27.0591V61.1476L25.0258 59.2197V63.5756L22.9978 64.7499Z" fill="black"/>
</g>
<path d="M11.574 53.2126L85.3889 95.8284V101.356L11.574 58.7402V53.2126ZM84.9237 100.501V96.1454L74.4275 90.0857V94.4416L84.9237 100.501ZM73.9632 94.1737V89.8178L22.9979 60.394V64.7499L73.9632 94.1737ZM22.5345 64.482V60.1261L12.0384 54.0663V58.4223L22.5345 64.482Z" fill="#414E5F"/>
<path d="M118.098 82.4882L116.071 83.6625V78.1349L118.099 76.9419L118.098 82.4882Z" fill="#29333F"/>
<path d="M120 87.2451L115.74 84.7858L111.812 87.1067L116.071 89.5651L120 87.2451Z" fill="#5B6879"/>
<path d="M116.071 91.1546V78.1349L87.415 94.6541V107.674L116.071 91.1546Z" fill="#29333F"/>
<path d="M85.3889 63.5016L11.574 20.8857V53.2126L85.388 95.8284L85.3889 63.5016Z" fill="#D4DBDF"/>
<path d="M118.099 44.6158L44.2849 2L11.574 20.8857L85.3889 63.5015L118.099 44.6158Z" fill="#EEF5F9"/>
<path d="M118.099 44.6159L85.3889 63.5016L85.388 95.8285L118.099 76.9419V44.6159Z" fill="#BBC2C6"/>
<path d="M88.4177 104.496L89.5804 105.167L118.918 88.2471L117.756 87.5755L88.4177 104.496Z" fill="#5B6879"/>
<path d="M89.5804 109.518L118.918 92.5985V88.247L89.5804 105.167V109.518Z" fill="#29333F"/>
<path d="M88.4179 108.847L89.5806 109.518V105.167L88.4179 104.496V108.847Z" fill="#414E5F"/>
<path opacity="0.2" d="M90.1689 107.351L94.1543 105.05V103.255L90.2895 105.058L90.1689 105.556V107.351Z" fill="black"/>
<path d="M90.2895 105.058L90.5761 105.216L94.5615 102.916L94.2749 102.758L90.2895 105.058Z" fill="#F5393E"/>
<path d="M90.5761 107.011L94.5615 104.711V102.916L90.5761 105.216V107.011Z" fill="#C1060B"/>
<path d="M90.2895 106.853L90.5762 107.011V105.216L90.2895 105.058V106.853Z" fill="#8E0000"/>
<path opacity="0.2" d="M114.292 93.6139L118.277 91.3135V89.5186L114.412 91.3216L114.292 91.819V93.6139Z" fill="black"/>
<path d="M114.412 91.3216L114.698 91.4796L118.685 89.1793L118.397 89.0212L114.412 91.3216Z" fill="#F5393E"/>
<path d="M114.698 93.2745L118.684 90.9742L118.685 89.1793L114.698 91.4796V93.2745Z" fill="#C1060B"/>
<path d="M114.412 93.1164L114.698 93.2745V91.4796L114.412 91.3215V93.1164Z" fill="#8E0000"/>
<g style="mix-blend-mode:multiply" opacity="0.4">
<path d="M50.2048 68.073V57.4286L50.1825 57.4161L31.3263 46.5298V57.1741L31.3486 57.1866L50.2048 68.073ZM50.1155 57.4795V67.9176L31.4156 57.1214V46.6833L50.1155 57.4795Z" fill="black"/>
</g>
<g style="mix-blend-mode:multiply" opacity="0.4">
<path d="M50.2048 55.969V45.3693L50.1825 45.3568L31.3263 34.4705V45.0702L31.3486 45.0827L50.2048 55.969ZM50.1155 45.4211V55.8145L31.4156 45.0184V34.6249L50.1155 45.4211Z" fill="black"/>
</g>
<g style="mix-blend-mode:multiply" opacity="0.4">
<path d="M83.4995 92.5567V64.5921L83.4772 64.5796L68.2616 55.7953V83.76L68.284 83.7725L83.4995 92.5567ZM83.4111 64.6439V92.4022L68.3518 83.7082V55.9498L83.4111 64.6439Z" fill="black"/>
</g>
<g style="mix-blend-mode:multiply" opacity="0.4">
<path d="M67.2866 83.1955V55.2309L67.2643 55.2184L52.0488 46.4341V74.3988L52.0711 74.4113L67.2866 83.1955ZM67.1973 55.2827V83.041L52.1381 74.347V46.5886L67.1973 55.2827Z" fill="black"/>
</g>
<g style="mix-blend-mode:multiply" opacity="0.4">
<path d="M28.8357 60.9974V33.0328L28.8134 33.0203L13.5978 24.236V52.2007L13.6201 52.2132L28.8357 60.9974ZM28.7464 33.0837V60.8421L13.6871 52.148V24.3896L28.7464 33.0837Z" fill="black"/>
</g>
<g style="mix-blend-mode:multiply" opacity="0.3">
<path d="M16.4594 45.073L25.917 50.5336V49.3584L16.4594 43.8987V45.073Z" fill="black"/>
</g>
<path d="M16.1549 44.564L25.6134 50.0237L25.917 49.3584L16.4594 43.8987L16.1549 44.564Z" fill="#EEF5F9"/>
<g style="mix-blend-mode:multiply" opacity="0.3">
<path d="M16.4594 46.8429L25.917 52.3035V51.1283L16.4594 45.6686V46.8429Z" fill="black"/>
</g>
<path d="M16.1549 46.3339L25.6134 51.7936L25.917 51.1283L16.4594 45.6686L16.1549 46.3339Z" fill="#EEF5F9"/>
<g style="mix-blend-mode:multiply" opacity="0.3">
<path d="M16.4594 48.6128L25.917 54.0734V52.8983L16.4594 47.4377V48.6128Z" fill="black"/>
</g>
<path d="M16.1549 48.103L25.6134 53.5635L25.917 52.8983L16.4594 47.4377L16.1549 48.103Z" fill="#EEF5F9"/>
<g style="mix-blend-mode:multiply" opacity="0.3">
<path d="M16.4594 50.3828L25.917 55.8425V54.6682L16.4594 49.2076V50.3828Z" fill="black"/>
</g>
<path d="M16.1549 49.8729L25.6134 55.3335L25.917 54.6682L16.4594 49.2076L16.1549 49.8729Z" fill="#EEF5F9"/>
<g style="mix-blend-mode:multiply" opacity="0.3">
<path d="M16.4594 52.1518L25.917 57.6124V56.4372L16.4594 50.9775V52.1518Z" fill="black"/>
</g>
<path d="M16.1549 51.6428L25.6134 57.1025L25.917 56.4372L16.4594 50.9775L16.1549 51.6428Z" fill="#EEF5F9"/>
<g style="mix-blend-mode:multiply" opacity="0.3">
<path d="M54.996 67.1609L64.4536 72.6206V71.4463L54.996 65.9857V67.1609Z" fill="black"/>
</g>
<path d="M54.6924 66.651L64.15 72.1116L64.4536 71.4463L54.996 65.9857L54.6924 66.651Z" fill="#EEF5F9"/>
<g style="mix-blend-mode:multiply" opacity="0.3">
<path d="M54.996 68.93L64.4536 74.3905V73.2154L54.996 67.7557V68.93Z" fill="black"/>
</g>
<path d="M54.6924 68.4209L64.15 73.8807L64.4536 73.2154L54.996 67.7557L54.6924 68.4209Z" fill="#EEF5F9"/>
<g style="mix-blend-mode:multiply" opacity="0.3">
<path d="M54.996 70.6999L64.4536 76.1605V74.9853L54.996 69.5247V70.6999Z" fill="black"/>
</g>
<path d="M54.6924 70.19L64.15 75.6506L64.4536 74.9853L54.996 69.5247L54.6924 70.19Z" fill="#EEF5F9"/>
<g style="mix-blend-mode:multiply" opacity="0.3">
<path d="M54.996 72.4698L64.4536 77.9295V76.7552L54.996 71.2946V72.4698Z" fill="black"/>
</g>
<path d="M54.6924 71.9599L64.15 77.4205L64.4536 76.7552L54.996 71.2946L54.6924 71.9599Z" fill="#EEF5F9"/>
<g style="mix-blend-mode:multiply" opacity="0.3">
<path d="M54.996 74.2389L64.4536 79.6994V78.5243L54.996 73.0646V74.2389Z" fill="black"/>
</g>
<path d="M54.6924 73.7298L64.15 79.1896L64.4536 78.5243L54.996 73.0646L54.6924 73.7298Z" fill="#EEF5F9"/>
<g style="mix-blend-mode:multiply" opacity="0.3">
<path d="M71.3977 76.0435L80.8553 81.5041L80.8562 80.3289L71.3977 74.8683V76.0435Z" fill="black"/>
</g>
<path d="M71.0941 75.5336L80.5517 80.9942L80.8562 80.3289L71.3977 74.8683L71.0941 75.5336Z" fill="#EEF5F9"/>
<g style="mix-blend-mode:multiply" opacity="0.3">
<path d="M71.3977 77.8134L80.8553 83.2731L80.8562 82.0988L71.3977 76.6382V77.8134Z" fill="black"/>
</g>
<path d="M71.0941 77.3035L80.5517 82.7641L80.8562 82.0988L71.3977 76.6382L71.0941 77.3035Z" fill="#EEF5F9"/>
<g style="mix-blend-mode:multiply" opacity="0.3">
<path d="M71.3977 79.5824L80.8553 85.043L80.8562 83.8678L71.3977 78.4081V79.5824Z" fill="black"/>
</g>
<path d="M71.0941 79.0734L80.5517 84.5331L80.8562 83.8678L71.3977 78.4081L71.0941 79.0734Z" fill="#EEF5F9"/>
<g style="mix-blend-mode:multiply" opacity="0.3">
<path d="M71.3977 81.3524L80.8553 86.813L80.8562 85.6378L71.3977 80.1772V81.3524Z" fill="black"/>
</g>
<path d="M71.0941 80.8425L80.5517 86.3031L80.8562 85.6378L71.3977 80.1772L71.0941 80.8425Z" fill="#EEF5F9"/>
<g style="mix-blend-mode:multiply" opacity="0.3">
<path d="M71.3977 83.1221L80.8553 88.5818L80.8562 87.4076L71.3977 81.947V83.1221Z" fill="black"/>
</g>
<path d="M71.0941 82.6122L80.5517 88.0728L80.8562 87.4076L71.3977 81.947L71.0941 82.6122Z" fill="#EEF5F9"/>
<g style="mix-blend-mode:multiply" opacity="0.3">
<path d="M97.9568 60.3476L88.4179 65.8546V64.6697L97.9568 59.1626V60.3476Z" fill="black"/>
</g>
<path d="M98.2639 59.8333L88.7242 65.3403L88.4179 64.6697L97.9567 59.1626L98.2639 59.8333Z" fill="#D4DBDF"/>
<g style="mix-blend-mode:multiply" opacity="0.3">
<path d="M97.9568 62.1325L88.4179 67.6396V66.4546L97.9568 60.9475V62.1325Z" fill="black"/>
</g>
<path d="M98.2639 61.6182L88.7242 67.1252L88.4179 66.4546L97.9567 60.9475L98.2639 61.6182Z" fill="#D4DBDF"/>
<g style="mix-blend-mode:multiply" opacity="0.3">
<path d="M97.9568 63.9167L88.4179 69.4238V68.2388L97.9568 62.7318V63.9167Z" fill="black"/>
</g>
<path d="M98.2639 63.4033L88.7242 68.9103L88.4179 68.2388L97.9567 62.7318L98.2639 63.4033Z" fill="#D4DBDF"/>
<g style="mix-blend-mode:multiply" opacity="0.3">
<path d="M97.9568 65.7018L88.4179 71.2089V70.0239L97.9568 64.5168V65.7018Z" fill="black"/>
</g>
<path d="M98.2639 65.1875L88.7242 70.6954L88.4179 70.0239L97.9567 64.5168L98.2639 65.1875Z" fill="#D4DBDF"/>
<g style="mix-blend-mode:multiply" opacity="0.3">
<path d="M97.9568 67.4869L88.4179 72.994V71.809L97.9568 66.3019V67.4869Z" fill="black"/>
</g>
<path d="M98.2639 66.9726L88.7242 72.4796L88.4179 71.809L97.9567 66.3019L98.2639 66.9726Z" fill="#D4DBDF"/>
<g style="mix-blend-mode:multiply" opacity="0.3">
<path d="M97.9568 69.2712L88.4179 74.7791V73.5941L97.9568 68.0862V69.2712Z" fill="black"/>
</g>
<path d="M98.2639 68.7577L88.7242 74.2647L88.4179 73.5941L97.9567 68.0862L98.2639 68.7577Z" fill="#D4DBDF"/>
<g style="mix-blend-mode:multiply" opacity="0.3">
<path d="M97.9568 71.0563L88.4179 76.5633V75.3783L97.9568 69.8713V71.0563Z" fill="black"/>
</g>
<path d="M98.2639 70.5428L88.7242 76.0498L88.4179 75.3783L97.9567 69.8713L98.2639 70.5428Z" fill="#D4DBDF"/>
<g style="mix-blend-mode:multiply" opacity="0.3">
<path d="M97.9568 72.8412L88.4179 78.3482V77.1632L97.9568 71.6562V72.8412Z" fill="black"/>
</g>
<path d="M98.2639 72.3268L88.7242 77.8338L88.4179 77.1632L97.9567 71.6562L98.2639 72.3268Z" fill="#D4DBDF"/>
<g style="mix-blend-mode:multiply" opacity="0.3">
<path d="M97.9568 74.6263L88.4179 80.1333V78.9483L97.9568 73.4413V74.6263Z" fill="black"/>
</g>
<path d="M98.2639 74.1119L88.7242 79.6189L88.4179 78.9483L97.9567 73.4413L98.2639 74.1119Z" fill="#D4DBDF"/>
<g style="mix-blend-mode:multiply" opacity="0.3">
<path d="M97.9568 76.4105L88.4179 81.9184V80.7334L97.9568 75.2255V76.4105Z" fill="black"/>
</g>
<path d="M98.2639 75.8971L88.7242 81.4041L88.4179 80.7334L97.9567 75.2255L98.2639 75.8971Z" fill="#D4DBDF"/>
<g style="mix-blend-mode:multiply" opacity="0.3">
<path d="M97.9568 78.1956L88.4179 83.7026V82.5176L97.9568 77.0106V78.1956Z" fill="black"/>
</g>
<path d="M98.2639 77.6813L88.7242 83.1892L88.4179 82.5176L97.9567 77.0106L98.2639 77.6813Z" fill="#D4DBDF"/>
<g style="mix-blend-mode:multiply" opacity="0.3">
<path d="M97.9568 79.9807L88.4179 85.4877V84.3027L97.9568 78.7957V79.9807Z" fill="black"/>
</g>
<path d="M98.2639 79.4663L88.7242 84.9734L88.4179 84.3027L97.9567 78.7957L98.2639 79.4663Z" fill="#D4DBDF"/>
<g style="mix-blend-mode:multiply" opacity="0.3">
<path d="M97.9568 81.7649L88.4179 87.2728V86.0878L97.9568 80.5808V81.7649Z" fill="black"/>
</g>
<path d="M98.2639 81.2514L88.7242 86.7584L88.4179 86.0878L97.9567 80.5808L98.2639 81.2514Z" fill="#D4DBDF"/>
<g style="mix-blend-mode:multiply" opacity="0.3">
<path d="M97.9568 83.55L88.4179 89.057V87.872L97.9568 82.365V83.55Z" fill="black"/>
</g>
<path d="M98.2639 83.0365L88.7242 88.5436L88.4179 87.872L97.9567 82.365L98.2639 83.0365Z" fill="#D4DBDF"/>
<g style="mix-blend-mode:multiply" opacity="0.3">
<path d="M97.9568 85.3349L88.4179 90.842V89.657L97.9568 84.1499V85.3349Z" fill="black"/>
</g>
<path d="M98.2639 84.8206L88.7242 90.3285L88.4179 89.657L97.9567 84.1499L98.2639 84.8206Z" fill="#D4DBDF"/>
<g style="mix-blend-mode:multiply" opacity="0.3">
<path d="M115.765 50.6854L106.226 56.1924V55.0075L115.765 49.5004V50.6854Z" fill="black"/>
</g>
<path d="M116.071 50.172L106.532 55.679L106.226 55.0075L115.765 49.5004L116.071 50.172Z" fill="#D4DBDF"/>
<g style="mix-blend-mode:multiply" opacity="0.3">
<path d="M115.765 52.4705L106.226 57.9775V56.7926L115.765 51.2855V52.4705Z" fill="black"/>
</g>
<path d="M116.071 51.9562L106.532 57.4641L106.226 56.7926L115.765 51.2855L116.071 51.9562Z" fill="#D4DBDF"/>
<g style="mix-blend-mode:multiply" opacity="0.3">
<path d="M115.765 54.2556L106.226 59.7626V58.5777L115.765 53.0706V54.2556Z" fill="black"/>
</g>
<path d="M116.071 53.7412L106.532 59.2483L106.226 58.5777L115.765 53.0706L116.071 53.7412Z" fill="#D4DBDF"/>
<g style="mix-blend-mode:multiply" opacity="0.3">
<path d="M115.765 56.0398L106.226 61.5478V60.3628L115.765 54.8549V56.0398Z" fill="black"/>
</g>
<path d="M116.071 55.5264L106.532 61.0334L106.226 60.3628L115.765 54.8549L116.071 55.5264Z" fill="#D4DBDF"/>
<g style="mix-blend-mode:multiply" opacity="0.3">
<path d="M115.765 57.8249L106.226 63.332V62.147L115.765 56.64V57.8249Z" fill="black"/>
</g>
<path d="M116.071 57.3115L106.532 62.8185L106.226 62.147L115.765 56.64L116.071 57.3115Z" fill="#D4DBDF"/>
<g style="mix-blend-mode:multiply" opacity="0.3">
<path d="M115.765 59.6099L106.226 65.1169V63.9319L115.765 58.4249V59.6099Z" fill="black"/>
</g>
<path d="M116.071 59.0955L106.532 64.6025L106.226 63.9319L115.765 58.4249L116.071 59.0955Z" fill="#D4DBDF"/>
<g style="mix-blend-mode:multiply" opacity="0.3">
<path d="M115.765 61.395L106.226 66.902V65.717L115.765 60.21V61.395Z" fill="black"/>
</g>
<path d="M116.071 60.8806L106.532 66.3876L106.226 65.717L115.765 60.21L116.071 60.8806Z" fill="#D4DBDF"/>
<g style="mix-blend-mode:multiply" opacity="0.3">
<path d="M115.765 63.1792L106.226 68.6862V67.5021L115.765 61.9942V63.1792Z" fill="black"/>
</g>
<path d="M116.071 62.6657L106.532 68.1727L106.226 67.5021L115.765 61.9942L116.071 62.6657Z" fill="#D4DBDF"/>
<g style="mix-blend-mode:multiply" opacity="0.3">
<path d="M115.765 64.9643L106.226 70.4713V69.2863L115.765 63.7793V64.9643Z" fill="black"/>
</g>
<path d="M116.071 64.4499L106.532 69.9578L106.226 69.2863L115.765 63.7793L116.071 64.4499Z" fill="#D4DBDF"/>
<g style="mix-blend-mode:multiply" opacity="0.3">
<path d="M115.765 66.7494L106.226 72.2564V71.0714L115.765 65.5644V66.7494Z" fill="black"/>
</g>
<path d="M116.071 66.235L106.532 71.742L106.226 71.0714L115.765 65.5644L116.071 66.235Z" fill="#D4DBDF"/>
<g style="mix-blend-mode:multiply" opacity="0.3">
<path d="M115.765 68.5336L106.226 74.0415V72.8565L115.765 67.3495V68.5336Z" fill="black"/>
</g>
<path d="M116.071 68.0201L106.532 73.5271L106.226 72.8565L115.765 67.3495L116.071 68.0201Z" fill="#D4DBDF"/>
<g style="mix-blend-mode:multiply" opacity="0.3">
<path d="M115.765 70.3185L106.226 75.8255V74.6405L115.765 69.1335V70.3185Z" fill="black"/>
</g>
<path d="M116.071 69.805L106.532 75.3121L106.226 74.6405L115.765 69.1335L116.071 69.805Z" fill="#D4DBDF"/>
<g style="mix-blend-mode:multiply" opacity="0.3">
<path d="M115.765 72.1036L106.226 77.6106V76.4256L115.765 70.9186V72.1036Z" fill="black"/>
</g>
<path d="M116.071 71.5892L106.532 77.0972L106.226 76.4256L115.765 70.9186L116.071 71.5892Z" fill="#D4DBDF"/>
<g style="mix-blend-mode:multiply" opacity="0.3">
<path d="M115.765 73.8887L106.226 79.3957V78.2107L115.765 72.7037V73.8887Z" fill="black"/>
</g>
<path d="M116.071 73.3743L106.532 78.8814L106.226 78.2107L115.765 72.7037L116.071 73.3743Z" fill="#D4DBDF"/>
<g style="mix-blend-mode:multiply" opacity="0.3">
<path d="M115.765 75.6729L106.226 81.1808V79.9958L115.765 74.4879V75.6729Z" fill="black"/>
</g>
<path d="M116.071 75.1594L106.532 80.6665L106.226 79.9958L115.765 74.4879L116.071 75.1594Z" fill="#D4DBDF"/>
<path d="M33.1289 55.7084L36.7964 57.8257V53.592L33.1289 51.4748V55.7084Z" fill="#FFB710"/>
<path d="M33.4324 55.2807C33.3931 55.2575 33.3636 55.2289 33.3529 55.203C33.3431 55.1771 33.3485 55.145 33.3681 55.1164L34.8183 53.0589C34.838 53.0313 34.8621 53.0214 34.8826 53.033C34.9031 53.0447 34.9273 53.0822 34.9469 53.1331L36.3971 56.8648C36.4168 56.9157 36.423 56.955 36.4123 56.9693C36.4025 56.9836 36.3721 56.9782 36.3328 56.9559L33.4315 55.2807H33.4324Z" fill="#414E5F"/>
<path d="M33.6386 55.1378L36.0112 56.5166L34.8245 53.4662L33.6386 55.1378Z" fill="#FFB710"/>
<path d="M34.3753 54.2887L34.9557 54.8629L34.6262 53.8797L34.9307 54.1789L35.2754 55.3594L34.7637 54.8325L35.0736 55.8844L34.3753 54.2887Z" fill="#414E5F"/>
<path d="M71.2903 70.8927V73.3975L71.4368 73.3127V70.8079L71.2903 70.8927Z" fill="#29333F"/>
<path d="M68.9391 69.5345L71.2903 70.8928L71.4368 70.8079L69.0855 69.4506L68.9391 69.5345Z" fill="#5B6879"/>
<path d="M68.9393 72.0402L71.2905 73.3975V70.8927L68.9393 69.5345V72.0402Z" fill="#414E5F"/>
<path d="M69.3696 71.7947L69.2232 71.8786V70.0096L69.3696 70.0944V71.7947Z" fill="#29333F"/>
<path d="M69.793 72.0385V72.2072L69.2232 71.8786L69.3697 71.7947L69.793 72.0385Z" fill="#5B6879"/>
<g style="mix-blend-mode:multiply" opacity="0.2">
<path d="M69.793 70.3382V70.4855L69.3697 70.2418L69.2232 70.0096L69.793 70.3382Z" fill="black"/>
</g>
<path d="M66.3889 68.0629V70.5677L66.5354 70.4829V67.978L66.3889 68.0629Z" fill="#29333F"/>
<path d="M64.0377 66.7047L66.3889 68.063L66.5354 67.9781L64.1842 66.6208L64.0377 66.7047Z" fill="#5B6879"/>
<path d="M64.0377 69.2104L66.3889 70.5677V68.0629L64.0377 66.7047V69.2104Z" fill="#414E5F"/>
<path d="M65.6575 69.6408L65.5119 69.7257V67.8567L65.6575 67.9406V69.6408Z" fill="#29333F"/>
<path d="M66.0808 69.8856V70.0543L65.512 69.7257L65.6575 69.6409L66.0808 69.8856Z" fill="#5B6879"/>
<g style="mix-blend-mode:multiply" opacity="0.2">
<path d="M66.0808 68.1853V68.3326L65.6575 68.0879L65.512 67.8567L66.0808 68.1853Z" fill="black"/>
</g>
<path d="M27.9744 45.8223V48.3272L28.1208 48.2432V45.7384L27.9744 45.8223Z" fill="#29333F"/>
<path d="M25.6232 44.4649L27.9744 45.8223L28.1208 45.7383L25.7696 44.3801L25.6232 44.4649Z" fill="#5B6879"/>
<path d="M25.6234 46.9697L27.9746 48.327V45.8222L25.6234 44.4648V46.9697Z" fill="#414E5F"/>
<path d="M27.2441 47.401L27.0977 47.485V45.616L27.2441 45.7008V47.401Z" fill="#29333F"/>
<path d="M27.6665 47.6448V47.8136L27.0977 47.485L27.2441 47.4011L27.6665 47.6448Z" fill="#5B6879"/>
<g style="mix-blend-mode:multiply" opacity="0.2">
<path d="M27.6665 45.9446V46.0919L27.2441 45.8481L27.0977 45.616L27.6665 45.9446Z" fill="black"/>
</g>
<path d="M82.6518 68.8435L83.8618 69.5427V67.5049L82.6518 66.8057V68.8435Z" fill="#414E5F"/>
<path d="M83.8619 67.5048V69.5425L84.0217 69.4506V67.4128L83.8619 67.5048Z" fill="#29333F"/>
<path d="M82.9324 69.239L83.178 69.381V67.3432L82.9324 67.2012V69.239Z" fill="#414E5F"/>
<path d="M83.1778 67.3431V69.3809L83.3796 69.264V67.2262L83.1778 67.3431Z" fill="#29333F"/>
<path d="M83.1341 67.0842L82.6519 66.8055L82.8117 66.7136L84.0217 67.4128L83.8619 67.5047L83.3797 67.2261L83.1779 67.3431L82.9323 67.2011L83.1341 67.0842Z" fill="#5B6879"/>
<path d="M82.6518 89.5115L83.8618 90.2098V88.172L82.6518 87.4737V89.5115Z" fill="#414E5F"/>
<path d="M83.8619 88.1721V90.2099L84.0217 90.1179V88.0801L83.8619 88.1721Z" fill="#29333F"/>
<path d="M82.9324 89.9062L83.178 90.0481V88.0104L82.9324 87.8684V89.9062Z" fill="#414E5F"/>
<path d="M83.1778 88.0103V90.0481L83.3796 89.9311V87.8933L83.1778 88.0103Z" fill="#29333F"/>
<path d="M83.1341 87.7524L82.6519 87.4737L82.8117 87.3818L84.0217 88.0801L83.8619 88.1721L83.3797 87.8935L83.1779 88.0104L82.9323 87.8685L83.1341 87.7524Z" fill="#5B6879"/>
<path d="M51.5259 50.7757L52.7368 51.4749V49.4371L51.5259 48.7379V50.7757Z" fill="#414E5F"/>
<path d="M52.737 49.437V51.4748L52.896 51.3829V49.3442L52.737 49.437Z" fill="#29333F"/>
<path d="M51.8064 51.1713L52.052 51.3124V49.2746L51.8064 49.1335V51.1713Z" fill="#414E5F"/>
<path d="M52.0519 49.2745V51.3123L52.2546 51.1962V49.1584L52.0519 49.2745Z" fill="#29333F"/>
<path d="M52.0093 49.0164L51.5262 48.7378L51.686 48.6458L52.896 49.3441L52.737 49.437L52.2548 49.1584L52.0521 49.2745L51.8066 49.1334L52.0093 49.0164Z" fill="#5B6879"/>
<path d="M51.5259 71.4437L52.7368 72.142V70.1043L51.5259 69.4059V71.4437Z" fill="#414E5F"/>
<path d="M52.737 70.1043V72.1421L52.896 72.0501V70.0124L52.737 70.1043Z" fill="#29333F"/>
<path d="M51.8064 71.8384L52.052 71.9804V69.9426L51.8064 69.8006V71.8384Z" fill="#414E5F"/>
<path d="M52.0519 69.9425V71.9803L52.2546 71.8634V69.8256L52.0519 69.9425Z" fill="#29333F"/>
<path d="M52.0093 69.6847L51.5262 69.406L51.686 69.3132L52.896 70.0124L52.737 70.1044L52.2548 69.8257L52.0521 69.9427L51.8066 69.8007L52.0093 69.6847Z" fill="#5B6879"/>
<path d="M12.8813 28.6189L14.0913 29.3172V27.2794L12.8813 26.5811V28.6189Z" fill="#414E5F"/>
<path d="M14.0914 27.2795V29.3173L14.2512 29.2253V27.1875L14.0914 27.2795Z" fill="#29333F"/>
<path d="M13.1617 29.0136L13.4072 29.1556V27.1178L13.1617 26.9758V29.0136Z" fill="#414E5F"/>
<path d="M13.4073 27.1179V29.1557L13.6091 29.0387V27.0009L13.4073 27.1179Z" fill="#29333F"/>
<path d="M13.3636 26.8598L12.8814 26.5812L13.0412 26.4883L14.2512 27.1875L14.0914 27.2795L13.6092 27.0009L13.4073 27.1179L13.1618 26.9759L13.3636 26.8598Z" fill="#5B6879"/>
<path d="M12.8813 49.2862L14.0913 49.9854V47.9476L12.8813 47.2484V49.2862Z" fill="#414E5F"/>
<path d="M14.0914 47.9476V49.9854L14.2512 49.8925V47.8547L14.0914 47.9476Z" fill="#29333F"/>
<path d="M13.1617 49.6818L13.4072 49.8229V47.7851L13.1617 47.644V49.6818Z" fill="#414E5F"/>
<path d="M13.4073 47.785V49.8228L13.6091 49.7067V47.6689L13.4073 47.785Z" fill="#29333F"/>
<path d="M13.3636 47.5269L12.8814 47.2483L13.0412 47.1563L14.2512 47.8547L14.0914 47.9475L13.6092 47.6689L13.4073 47.785L13.1618 47.6439L13.3636 47.5269Z" fill="#5B6879"/>
<path d="M34.138 43.6774V38.532C34.138 38.4222 34.1603 38.3311 34.1987 38.2605C34.2737 38.2668 34.3559 38.2927 34.4425 38.3427L46.863 45.5133C47.0327 45.6116 47.1863 45.7794 47.2979 45.9723C47.4095 46.1652 47.4783 46.3822 47.4783 46.5787V51.724C47.4783 51.8339 47.4559 51.925 47.4175 51.9955C47.3425 51.9893 47.2604 51.9634 47.1738 51.9134L34.7533 44.7427C34.5836 44.6445 34.43 44.4766 34.3184 44.2837C34.2068 44.0908 34.138 43.8738 34.138 43.6774Z" fill="#414E5F"/>
<path d="M34.7532 44.7427L47.1737 51.9133C47.2603 51.9633 47.3425 51.9901 47.4175 51.9955C47.3871 52.0509 47.3469 52.0946 47.2978 52.1223C47.1862 52.1866 47.0326 52.1777 46.8629 52.0794L34.4424 44.9088L34.7532 44.7427Z" fill="#EEF5F9"/>
<path d="M34.3183 44.2836C34.4299 44.4765 34.5835 44.6444 34.7532 44.7426L34.4424 44.9087C34.2728 44.8105 34.1192 44.6426 34.0075 44.4497L34.3183 44.2836Z" fill="#EEF5F9"/>
<path d="M34.138 43.6774C34.138 43.8738 34.2067 44.0908 34.3184 44.2837L34.0076 44.4498C33.896 44.2569 33.8272 44.0399 33.8272 43.8435L34.138 43.6774Z" fill="#BBC2C6"/>
<path d="M33.828 38.6989C33.828 38.5024 33.8967 38.3649 34.0084 38.3006C34.0628 38.2694 34.128 38.256 34.1995 38.2613C34.1611 38.3319 34.1387 38.423 34.1387 38.5328V43.6782L33.828 43.8443V38.6989Z" fill="#BBC2C6"/>
<path d="M39.2403 41.8307L39.4136 41.7289L41.2915 42.8129L41.1174 42.9147L39.2403 41.8307Z" fill="#5B6879"/>
<path d="M39.2404 43.8996V41.8305L41.1174 42.9146V44.9837L39.2404 43.8996Z" fill="#414E5F"/>
<path d="M41.2915 44.8828V42.8128L41.1174 42.9146V44.9837L41.2915 44.8828Z" fill="#29333F"/>
<path d="M39.4162 43.2862L40.9834 44.1899V42.9924L39.4162 42.0878V43.2862Z" fill="#FEFCF7"/>
<g style="mix-blend-mode:multiply" opacity="0.2">
<path d="M39.4162 42.1387L40.9834 43.0433V42.9924L39.4162 42.0878V42.1387Z" fill="black"/>
</g>
<path d="M39.4162 43.2862L39.3742 43.3103L40.9834 44.239V44.1899L39.4162 43.2862Z" fill="#5B6879"/>
<path d="M39.3743 42.0637V43.3103L39.4163 43.2862V42.0878L39.3743 42.0637Z" fill="#29333F"/>
<path d="M40.9836 43.5086C40.9693 43.4818 40.9541 43.4542 40.9389 43.4274C40.7469 43.0952 40.4924 42.8264 40.2219 42.6701C39.9513 42.5139 39.6959 42.4889 39.5048 42.5987C39.4735 42.6165 39.4441 42.638 39.4182 42.663V42.7148C39.4494 42.6817 39.4851 42.6541 39.5244 42.6317C39.7111 42.5237 39.9593 42.5487 40.2227 42.7005C40.4862 42.8532 40.7344 43.1148 40.9211 43.4381C40.9434 43.4774 40.9648 43.5167 40.9854 43.556V43.5077L40.9836 43.5086Z" fill="#BEBCB7"/>
<path d="M40.3023 43.7023L40.5425 43.0049L40.2362 43.6424C40.2308 43.6389 40.2264 43.6362 40.221 43.6326C40.171 43.604 40.1263 43.6014 40.0933 43.6201C40.079 43.6282 40.0674 43.6407 40.0585 43.6558L40.3835 43.8434C40.3746 43.8175 40.363 43.7916 40.3487 43.7675C40.3353 43.7442 40.3192 43.7219 40.3023 43.7023Z" fill="#414E5F"/>
<path d="M39.6243 42.3022L39.4975 42.229V42.1816L39.6243 42.2549V42.3022Z" fill="#BEBCB7"/>
<path d="M40.9229 43.0513L40.796 42.9781V42.9307L40.9229 43.004V43.0513Z" fill="#BEBCB7"/>
<path d="M39.635 43.2996L39.5073 43.2264V43.1791L39.635 43.2523V43.2996Z" fill="#BEBCB7"/>
<path d="M41.7613 43.2397L41.9346 43.1388L43.8125 44.2229L43.6384 44.3238L41.7613 43.2397Z" fill="#5B6879"/>
<path d="M41.7605 45.3097L41.7614 43.2398L43.6384 44.3239V46.3938L41.7605 45.3097Z" fill="#414E5F"/>
<path d="M43.8125 46.2929V44.2229L43.6384 44.3238V46.3938L43.8125 46.2929Z" fill="#29333F"/>
<path d="M41.9372 44.6952L43.5044 45.5998V44.4014L41.9372 43.4969V44.6952Z" fill="#FEFCF7"/>
<g style="mix-blend-mode:multiply" opacity="0.2">
<path d="M41.9372 43.5478L43.5044 44.4523V44.4014L41.9372 43.4969V43.5478Z" fill="black"/>
</g>
<path d="M41.9372 44.6953L41.8952 44.7203L43.5044 45.649V45.5998L41.9372 44.6953Z" fill="#5B6879"/>
<path d="M41.8953 43.4728V44.7203L41.9373 44.6953V43.4969L41.8953 43.4728Z" fill="#29333F"/>
<path d="M43.5043 44.9185C43.49 44.8918 43.4748 44.8641 43.4597 44.8373C43.2677 44.5051 43.0132 44.2363 42.7426 44.08C42.472 43.9238 42.2166 43.8988 42.0255 44.0086C41.9943 44.0265 41.9648 44.0479 41.9389 44.0729V44.1247C41.9702 44.0916 42.0059 44.064 42.0452 44.0416C42.2318 43.9336 42.4801 43.9586 42.7435 44.1104C43.0069 44.2631 43.2552 44.5247 43.4418 44.848C43.4641 44.8873 43.4856 44.9266 43.5061 44.9659V44.9177L43.5043 44.9185Z" fill="#BEBCB7"/>
<path d="M42.823 45.1124L43.0632 44.415L42.7569 45.0526C42.7516 45.049 42.7471 45.0463 42.7418 45.0427C42.6918 45.0142 42.6471 45.0115 42.6141 45.0302C42.5998 45.0383 42.5882 45.0508 42.5792 45.066L42.9043 45.2535C42.8954 45.2276 42.8837 45.2017 42.8695 45.1776C42.8561 45.1544 42.84 45.132 42.823 45.1124Z" fill="#414E5F"/>
<path d="M42.1453 43.7121L42.0185 43.638V43.5907L42.1453 43.6648V43.7121Z" fill="#BEBCB7"/>
<path d="M43.4436 44.4614L43.3159 44.3882V44.3409L43.4436 44.4141V44.4614Z" fill="#BEBCB7"/>
<path d="M42.155 44.7096L42.0282 44.6355V44.5882L42.155 44.6623V44.7096Z" fill="#BEBCB7"/>
<path d="M44.2812 44.6498L44.4553 44.5489L46.3333 45.633L46.1591 45.7339L44.2812 44.6498Z" fill="#5B6879"/>
<path d="M44.2812 46.7197V44.6497L46.1592 45.7338V47.8037L44.2812 46.7197Z" fill="#414E5F"/>
<path d="M46.3333 47.7019V45.6329L46.1591 45.7338V47.8037L46.3333 47.7019Z" fill="#29333F"/>
<path d="M44.458 46.1054L46.0251 47.01V45.8116L44.458 44.907V46.1054Z" fill="#FEFCF7"/>
<g style="mix-blend-mode:multiply" opacity="0.2">
<path d="M44.458 44.9579L46.0251 45.8625V45.8116L44.458 44.907V44.9579Z" fill="black"/>
</g>
<path d="M44.458 46.1053L44.416 46.1295L46.0251 47.0591V47.0099L44.458 46.1053Z" fill="#5B6879"/>
<path d="M44.416 44.8829V46.1295L44.458 46.1054V44.907L44.416 44.8829Z" fill="#29333F"/>
<path d="M46.0253 46.3285C46.011 46.3017 45.9958 46.274 45.9807 46.2472C45.7887 45.915 45.5342 45.6463 45.2636 45.49C44.993 45.3337 44.7376 45.3087 44.5465 45.4185C44.5153 45.4364 44.4858 45.4578 44.4599 45.4828V45.5346C44.4912 45.5016 44.5269 45.4739 44.5662 45.4516C44.7528 45.3435 45.0011 45.3685 45.2645 45.5203C45.5279 45.673 45.7762 45.9347 45.9628 46.2579C45.9851 46.2972 46.0066 46.3365 46.0271 46.3758V46.3276L46.0253 46.3285Z" fill="#BEBCB7"/>
<path d="M45.344 46.5223L45.5842 45.8249L45.2779 46.4625C45.2726 46.4589 45.2681 46.4562 45.2628 46.4527C45.2127 46.4241 45.1681 46.4214 45.1351 46.4402C45.1208 46.4482 45.1092 46.4607 45.1002 46.4759L45.4253 46.6634C45.4164 46.6375 45.4047 46.6116 45.3905 46.5875C45.3771 46.5643 45.361 46.542 45.344 46.5223Z" fill="#414E5F"/>
<path d="M44.666 45.1212L44.5392 45.048V45.0006L44.666 45.0739V45.1212Z" fill="#BEBCB7"/>
<path d="M45.9646 45.8714L45.8369 45.7972V45.7499L45.9646 45.824V45.8714Z" fill="#BEBCB7"/>
<path d="M44.676 46.1188L44.5492 46.0456V45.9983L44.676 46.0715V46.1188Z" fill="#BEBCB7"/>
<path d="M39.6877 44.9614L39.5135 45.0623V46.2589C39.5135 46.4643 39.5859 46.692 39.7019 46.8938C39.8189 47.0956 39.9797 47.2715 40.1574 47.3742C40.3351 47.4769 40.4958 47.4868 40.6128 47.4198L40.7869 47.3189C40.9039 47.2519 40.9753 47.1072 40.9753 46.9018V45.7052L39.6877 44.9614Z" fill="#414E5F"/>
<path d="M39.5146 46.2599C39.5146 46.4652 39.5869 46.693 39.703 46.8948C39.82 47.0966 39.9807 47.2725 40.1584 47.3752C40.3361 47.4779 40.4968 47.4877 40.6138 47.4207C40.7308 47.3538 40.8022 47.2091 40.8022 47.0037V45.8071L39.5146 45.0633V46.2599Z" fill="#414E5F"/>
<path d="M39.6877 44.9614L39.5145 45.0632L40.8022 45.8071L40.9763 45.7052L39.6877 44.9614Z" fill="#5B6879"/>
<path d="M40.8022 45.807V47.0036C40.8022 47.209 40.7299 47.3537 40.6138 47.4206L40.7879 47.3197C40.9049 47.2528 40.9763 47.1081 40.9763 46.9027V45.7061L40.8022 45.807Z" fill="#29333F"/>
<path d="M40.5504 46.4054C40.4504 46.2313 40.3111 46.0795 40.1584 45.9911C40.0048 45.9027 39.8663 45.8947 39.7663 45.9527L39.544 46.0813C39.444 46.1393 39.3815 46.2635 39.3815 46.4403C39.3815 46.6171 39.444 46.8126 39.544 46.9868C39.644 47.1609 39.7833 47.3127 39.936 47.4011C40.0887 47.4895 40.228 47.4976 40.328 47.4395L40.5504 47.3109C40.6504 47.2529 40.7129 47.1288 40.7129 46.9519C40.7129 46.7751 40.6504 46.5796 40.5504 46.4054Z" fill="#414E5F"/>
<path d="M40.328 46.534C40.2279 46.3598 40.0886 46.208 39.9359 46.1196C39.7823 46.0312 39.6439 46.0232 39.5439 46.0803C39.4439 46.1384 39.3814 46.2625 39.3814 46.4393C39.3814 46.6161 39.4439 46.8117 39.5439 46.9858C39.6439 47.1599 39.7832 47.3118 39.9359 47.4002C40.0886 47.4886 40.2279 47.4966 40.328 47.4386C40.428 47.3805 40.4905 47.2564 40.4905 47.0796C40.4905 46.9028 40.428 46.7072 40.328 46.5331V46.534Z" fill="#414E5F"/>
<path d="M40.4905 47.0805C40.4905 47.2573 40.428 47.3815 40.328 47.4395L40.5504 47.3109C40.6504 47.2529 40.7129 47.1287 40.7129 46.9519L40.4905 47.0805Z" fill="#29333F"/>
<path d="M39.7664 45.9527L39.5441 46.0813C39.6441 46.0232 39.7834 46.0313 39.9361 46.1206L40.1584 45.992C40.0049 45.9036 39.8664 45.8955 39.7664 45.9536V45.9527Z" fill="#5B6879"/>
<path opacity="0.5" d="M40.5504 46.4053L40.328 46.5339C40.428 46.7081 40.4905 46.9036 40.4905 47.0804L40.7129 46.9518C40.7129 46.775 40.6504 46.5795 40.5504 46.4053Z" fill="#29333F"/>
<path opacity="0.5" d="M40.1583 45.9911L39.9359 46.1197C40.0895 46.2081 40.2279 46.3599 40.3279 46.5341L40.5503 46.4055C40.4503 46.2313 40.311 46.0795 40.1583 45.9911Z" fill="#5B6879"/>
<path d="M40.2728 46.5662C40.1871 46.417 40.0674 46.2867 39.9361 46.2108C39.8049 46.1349 39.6861 46.1277 39.5995 46.1777L39.5432 46.2117C39.4575 46.2617 39.4039 46.3679 39.4039 46.5197C39.4039 46.6715 39.4575 46.8394 39.5432 46.9885C39.629 47.1377 39.7486 47.2681 39.8799 47.344C40.0112 47.4199 40.1299 47.427 40.2165 47.377L40.2728 47.3431C40.3585 47.2931 40.4121 47.1868 40.4121 47.035C40.4121 46.8832 40.3585 46.7153 40.2728 46.5662Z" fill="#277500"/>
<path opacity="0.5" d="M40.2728 46.5662L40.2165 46.6001C40.3023 46.7492 40.3559 46.9171 40.3559 47.0689L40.4121 47.035C40.4121 46.8832 40.3585 46.7153 40.2728 46.5662Z" fill="#014F00"/>
<path opacity="0.5" d="M39.936 46.2107L39.8798 46.2446C40.0111 46.3205 40.1298 46.4509 40.2164 46.6L40.2727 46.5661C40.187 46.417 40.0673 46.2866 39.936 46.2107Z" fill="#4D9B26"/>
<path d="M40.3566 47.0689C40.3566 47.2207 40.303 47.327 40.2173 47.377L40.2735 47.3431C40.3593 47.293 40.4128 47.1868 40.4128 47.035L40.3566 47.0689Z" fill="#014F00"/>
<path d="M39.5994 46.1777L39.5431 46.2117C39.6289 46.1616 39.7485 46.1688 39.8798 46.2447L39.936 46.2108C39.8048 46.1349 39.686 46.1277 39.5994 46.1777Z" fill="#4D9B26"/>
<path d="M36.7221 40.4671L36.8962 40.3653L38.7742 41.4494L38.6 41.5512L36.7221 40.4671Z" fill="#5B6879"/>
<path d="M36.7222 42.5361V40.467L38.6001 41.5511V43.6201L36.7222 42.5361Z" fill="#414E5F"/>
<path d="M38.7733 43.5192L38.7742 41.4493L38.6 41.5511V43.6201L38.7733 43.5192Z" fill="#29333F"/>
<path d="M36.899 41.9217L38.4653 42.8263V41.6279L36.899 40.7242V41.9217Z" fill="#FEFCF7"/>
<g style="mix-blend-mode:multiply" opacity="0.2">
<path d="M36.899 40.7751L38.4653 41.6788V41.6279L36.899 40.7242V40.7751Z" fill="black"/>
</g>
<path d="M36.899 41.9218L36.8571 41.9468L38.4653 42.8755V42.8263L36.899 41.9218Z" fill="#5B6879"/>
<path d="M36.857 40.6992V41.9467L36.8989 41.9217V40.7242L36.857 40.6992Z" fill="#29333F"/>
<path d="M38.4653 42.1449C38.451 42.1181 38.4358 42.0904 38.4206 42.0636C38.2286 41.7314 37.9741 41.4627 37.7035 41.3064C37.433 41.1501 37.1776 41.1251 36.9865 41.2349C36.9552 41.2528 36.9257 41.2742 36.8999 41.2992V41.351C36.9311 41.318 36.9668 41.2903 37.0061 41.268C37.1927 41.1599 37.441 41.1849 37.7044 41.3367C37.9679 41.4894 38.2161 41.7511 38.4027 42.0744C38.4251 42.1136 38.4465 42.1529 38.467 42.1922V42.144L38.4653 42.1449Z" fill="#BEBCB7"/>
<path d="M37.7847 42.3387L38.0249 41.6413L37.7186 42.2789C37.7133 42.2753 37.7088 42.2726 37.7034 42.2691C37.6534 42.2405 37.6088 42.2378 37.5757 42.2566C37.5614 42.2646 37.5498 42.2771 37.5409 42.2923L37.8659 42.4798C37.857 42.4539 37.8454 42.428 37.8311 42.4039C37.8177 42.3807 37.8017 42.3584 37.7847 42.3387Z" fill="#414E5F"/>
<path d="M37.1072 40.9385L36.9795 40.8644V40.8179L37.1072 40.8912V40.9385Z" fill="#BEBCB7"/>
<path d="M38.4045 41.6878L38.2777 41.6145V41.5672L38.4045 41.6404V41.6878Z" fill="#BEBCB7"/>
<path d="M37.1169 41.9359L36.9901 41.8618V41.8154L37.1169 41.8886V41.9359Z" fill="#BEBCB7"/>
<path d="M37.1706 43.5979L36.9964 43.6988V44.8954C36.9964 45.1008 37.0688 45.3285 37.1849 45.5303C37.3018 45.7321 37.4626 45.908 37.6403 46.0107C37.818 46.1134 37.9787 46.1232 38.0957 46.0554L38.2698 45.9545C38.3868 45.8875 38.4583 45.7428 38.4583 45.5374V44.3408L37.1706 43.597V43.5979Z" fill="#414E5F"/>
<path d="M36.9963 44.8963C36.9963 45.1017 37.0686 45.3294 37.1847 45.5312C37.3017 45.733 37.4624 45.909 37.6401 46.0116C37.8178 46.1143 37.9785 46.1242 38.0955 46.0563C38.2125 45.9893 38.2839 45.8447 38.2839 45.6393V44.4427L36.9963 43.6988V44.8954V44.8963Z" fill="#414E5F"/>
<path d="M37.1706 43.5978L36.9964 43.6996L38.285 44.4426L38.4583 44.3417L37.1706 43.5978Z" fill="#5B6879"/>
<path d="M38.2849 44.4426V45.6392C38.2849 45.8446 38.2125 45.9893 38.0964 46.0562L38.2706 45.9553C38.3875 45.8884 38.459 45.7437 38.459 45.5383V44.3417L38.2849 44.4426Z" fill="#29333F"/>
<path d="M38.0323 45.0409C37.9323 44.8667 37.793 44.7149 37.6403 44.6265C37.4867 44.5381 37.3483 44.5301 37.2483 44.5872L37.0259 44.7158C36.9259 44.7739 36.8634 44.898 36.8634 45.0748C36.8634 45.2516 36.9259 45.4472 37.0259 45.6213C37.1259 45.7954 37.2652 45.9472 37.4179 46.0357C37.5715 46.1241 37.7099 46.1321 37.8099 46.074L38.0323 45.9455C38.1323 45.8874 38.1948 45.7633 38.1948 45.5865C38.1948 45.4097 38.1323 45.2141 38.0323 45.04V45.0409Z" fill="#414E5F"/>
<path d="M37.8106 45.1705C37.7106 44.9963 37.5713 44.8445 37.4186 44.7561C37.265 44.6677 37.1266 44.6597 37.0266 44.7177C36.9266 44.7758 36.8641 44.8999 36.8641 45.0767C36.8641 45.2535 36.9266 45.4491 37.0266 45.6232C37.1266 45.7973 37.2659 45.9491 37.4186 46.0375C37.5722 46.1259 37.7106 46.134 37.8106 46.0759C37.9106 46.0179 37.9731 45.8938 37.9731 45.717C37.9731 45.5401 37.9106 45.3446 37.8106 45.1705Z" fill="#414E5F"/>
<path d="M37.9732 45.7168C37.9732 45.8936 37.9107 46.0178 37.8107 46.0758L38.033 45.9472C38.133 45.8892 38.1956 45.765 38.1956 45.5882L37.9732 45.7168Z" fill="#29333F"/>
<path d="M37.2481 44.5881L37.0258 44.7167C37.1258 44.6587 37.2651 44.6667 37.4178 44.7551L37.6401 44.6265C37.4865 44.5381 37.3481 44.5301 37.2481 44.5872V44.5881Z" fill="#5B6879"/>
<path opacity="0.5" d="M38.0323 45.0409L37.8099 45.1695C37.91 45.3436 37.9725 45.5392 37.9725 45.716L38.1948 45.5874C38.1948 45.4106 38.1323 45.2151 38.0323 45.0409Z" fill="#29333F"/>
<path opacity="0.5" d="M37.6402 44.6274L37.4179 44.756C37.5714 44.8444 37.7099 44.9962 37.8099 45.1703L38.0322 45.0418C37.9322 44.8676 37.7929 44.7158 37.6402 44.6274Z" fill="#5B6879"/>
<path d="M37.7552 45.2025C37.6695 45.0533 37.5498 44.923 37.4186 44.847C37.2873 44.7711 37.1685 44.764 37.0819 44.814L37.0257 44.8479C36.9399 44.8979 36.8864 45.0042 36.8864 45.156C36.8864 45.3078 36.9399 45.4757 37.0257 45.6248C37.1114 45.774 37.231 45.9043 37.3623 45.9802C37.4936 46.0561 37.6123 46.0633 37.699 46.0133L37.7552 45.9794C37.841 45.9293 37.8945 45.8231 37.8945 45.6713C37.8945 45.5195 37.841 45.3516 37.7552 45.2025Z" fill="#277500"/>
<path opacity="0.5" d="M37.7552 45.2026L37.699 45.2365C37.7847 45.3857 37.8383 45.5535 37.8383 45.7054L37.8945 45.6714C37.8945 45.5196 37.841 45.3517 37.7552 45.2026Z" fill="#014F00"/>
<path opacity="0.5" d="M37.4187 44.8472L37.3625 44.8811C37.4937 44.957 37.6125 45.0874 37.6991 45.2365L37.7554 45.2026C37.6696 45.0534 37.55 44.9231 37.4187 44.8472Z" fill="#4D9B26"/>
<path d="M37.8383 45.7054C37.8383 45.8572 37.7847 45.9634 37.699 46.0134L37.7552 45.9795C37.841 45.9295 37.8945 45.8232 37.8945 45.6714L37.8383 45.7054Z" fill="#014F00"/>
<path d="M37.0821 44.814L37.0258 44.8479C37.1115 44.7979 37.2312 44.8051 37.3624 44.881L37.4187 44.847C37.2874 44.7711 37.1687 44.764 37.0821 44.814Z" fill="#4D9B26"/>
<path d="M42.2087 46.3492L42.0345 46.4501V47.6467C42.0345 47.8521 42.1069 48.0798 42.2229 48.2816C42.3399 48.4834 42.5007 48.6593 42.6784 48.762C42.8561 48.8647 43.0168 48.8745 43.1338 48.8076L43.3079 48.7067C43.4249 48.6397 43.4963 48.495 43.4963 48.2896V47.093L42.2087 46.3492Z" fill="#414E5F"/>
<path d="M42.0353 47.6466C42.0353 47.852 42.1076 48.0797 42.2237 48.2815C42.3407 48.4833 42.5015 48.6592 42.6792 48.7619C42.8569 48.8646 43.0176 48.8744 43.1346 48.8075C43.2516 48.7405 43.323 48.5958 43.323 48.3904V47.1938L42.0353 46.45V47.6466Z" fill="#414E5F"/>
<path d="M42.2087 46.3492L42.0355 46.4501L43.3232 47.1939L43.4973 47.093L42.2087 46.3492Z" fill="#5B6879"/>
<path d="M43.3232 47.194V48.3906C43.3232 48.5959 43.2509 48.7406 43.1348 48.8076L43.3089 48.7067C43.4259 48.6397 43.4973 48.495 43.4973 48.2896V47.093L43.3232 47.194Z" fill="#29333F"/>
<path d="M43.0714 47.7922C42.9713 47.618 42.832 47.4662 42.6793 47.3778C42.5257 47.2894 42.3873 47.2814 42.2873 47.3385L42.065 47.4671C41.965 47.5252 41.9024 47.6493 41.9024 47.8261C41.9024 48.0029 41.965 48.1985 42.065 48.3726C42.165 48.5467 42.3043 48.6986 42.457 48.787C42.6097 48.8754 42.749 48.8834 42.849 48.8254L43.0714 48.6968C43.1714 48.6387 43.2339 48.5146 43.2339 48.3378C43.2339 48.161 43.1714 47.9654 43.0714 47.7913V47.7922Z" fill="#414E5F"/>
<path d="M42.849 47.9216C42.7489 47.7475 42.6096 47.5957 42.4569 47.5073C42.3033 47.4189 42.1649 47.4108 42.0649 47.468C41.9649 47.526 41.9024 47.6501 41.9024 47.8269C41.9024 48.0038 41.9649 48.1993 42.0649 48.3735C42.1649 48.5476 42.3042 48.6994 42.4569 48.7878C42.6096 48.8762 42.7489 48.8842 42.849 48.8262C42.949 48.7682 43.0115 48.644 43.0115 48.4672C43.0115 48.2904 42.949 48.0948 42.849 47.9207V47.9216Z" fill="#414E5F"/>
<path d="M43.0115 48.4682C43.0115 48.645 42.949 48.7691 42.849 48.8271L43.0714 48.6986C43.1714 48.6405 43.2339 48.5164 43.2339 48.3396L43.0115 48.4682Z" fill="#29333F"/>
<path d="M42.2872 47.3394L42.0648 47.468C42.1648 47.41 42.3041 47.418 42.4568 47.5073L42.6792 47.3787C42.5256 47.2903 42.3872 47.2823 42.2872 47.3394Z" fill="#5B6879"/>
<path opacity="0.5" d="M43.0714 47.7923L42.849 47.9209C42.949 48.095 43.0115 48.2906 43.0115 48.4674L43.2339 48.3388C43.2339 48.162 43.1714 47.9664 43.0714 47.7923Z" fill="#29333F"/>
<path opacity="0.5" d="M42.6793 47.3787L42.4569 47.5073C42.6096 47.5957 42.7489 47.7475 42.8489 47.9217L43.0713 47.7931C42.9713 47.6189 42.832 47.4671 42.6793 47.3787Z" fill="#5B6879"/>
<path d="M42.7936 47.9538C42.7078 47.8047 42.5882 47.6743 42.4569 47.5984C42.3256 47.5225 42.2069 47.5153 42.1202 47.5654L42.064 47.5993C41.9783 47.6493 41.9247 47.7556 41.9247 47.9074C41.9247 48.0592 41.9783 48.2271 42.064 48.3762C42.1497 48.5253 42.2694 48.6557 42.4006 48.7316C42.5319 48.8075 42.6507 48.8146 42.7373 48.7646L42.7936 48.7307C42.8793 48.6807 42.9329 48.5744 42.9329 48.4226C42.9329 48.2708 42.8793 48.1029 42.7936 47.9538Z" fill="#277500"/>
<path opacity="0.5" d="M42.7936 47.9538L42.7373 47.9877C42.823 48.1368 42.8766 48.3047 42.8766 48.4565L42.9329 48.4226C42.9329 48.2708 42.8793 48.1029 42.7936 47.9538Z" fill="#014F00"/>
<path opacity="0.5" d="M42.4568 47.5985L42.4005 47.6324C42.5318 47.7083 42.6506 47.8387 42.7372 47.9878L42.7935 47.9539C42.7077 47.8048 42.5881 47.6744 42.4568 47.5985Z" fill="#4D9B26"/>
<path d="M42.8766 48.4556C42.8766 48.6074 42.823 48.7137 42.7373 48.7637L42.7936 48.7298C42.8793 48.6798 42.9329 48.5735 42.9329 48.4217L42.8766 48.4556Z" fill="#014F00"/>
<path d="M42.1201 47.5645L42.0639 47.5984C42.1496 47.5484 42.2693 47.5555 42.4005 47.6314L42.4568 47.5975C42.3255 47.5216 42.2068 47.5145 42.1201 47.5645Z" fill="#4D9B26"/>
<path d="M44.7294 47.7368L44.5553 47.8377V49.0343C44.5553 49.2397 44.6276 49.4674 44.7437 49.6692C44.8607 49.871 45.0214 50.0469 45.1991 50.1496C45.3768 50.2523 45.5376 50.2621 45.6545 50.1952L45.8287 50.0943C45.9457 50.0273 46.0171 49.8826 46.0171 49.6772V48.4806L44.7294 47.7368Z" fill="#414E5F"/>
<path d="M44.5553 49.0344C44.5553 49.2398 44.6277 49.4675 44.7438 49.6693C44.8607 49.8711 45.0215 50.047 45.1992 50.1497C45.3769 50.2524 45.5376 50.2622 45.6546 50.1952C45.7716 50.1283 45.843 49.9836 45.843 49.7782V48.5816L44.5553 47.8378V49.0344Z" fill="#414E5F"/>
<path d="M44.7295 47.7368L44.5554 47.8377L45.8439 48.5816L46.0181 48.4806L44.7295 47.7368Z" fill="#5B6879"/>
<path d="M45.8439 48.5816V49.7782C45.8439 49.9835 45.7716 50.1282 45.6555 50.1952L45.8296 50.0943C45.9466 50.0273 46.0181 49.8826 46.0181 49.6772V48.4807L45.8439 48.5816Z" fill="#29333F"/>
<path d="M45.5921 49.1798C45.4921 49.0057 45.3528 48.8538 45.2001 48.7654C45.0465 48.677 44.9081 48.669 44.8081 48.7261L44.5857 48.8547C44.4857 48.9128 44.4232 49.0369 44.4232 49.2137C44.4232 49.3905 44.4857 49.5861 44.5857 49.7602C44.6857 49.9344 44.825 50.0862 44.9777 50.1746C45.1313 50.263 45.2697 50.271 45.3698 50.2139L45.5921 50.0853C45.6921 50.0272 45.7546 49.9031 45.7546 49.7263C45.7546 49.5495 45.6921 49.3539 45.5921 49.1798Z" fill="#414E5F"/>
<path d="M45.3697 49.3085C45.2697 49.1344 45.1304 48.9826 44.9777 48.8942C44.8241 48.8058 44.6857 48.7977 44.5857 48.8549C44.4856 48.9129 44.4231 49.037 44.4231 49.2138C44.4231 49.3907 44.4856 49.5862 44.5857 49.7604C44.6857 49.9345 44.825 50.0863 44.9777 50.1747C45.1313 50.2631 45.2697 50.2711 45.3697 50.214C45.4697 50.1559 45.5322 50.0318 45.5322 49.855C45.5322 49.6782 45.4697 49.4826 45.3697 49.3085Z" fill="#414E5F"/>
<path d="M45.5323 49.8551C45.5323 50.0319 45.4698 50.156 45.3698 50.214L45.5921 50.0854C45.6921 50.0274 45.7546 49.9033 45.7546 49.7265L45.5323 49.8551Z" fill="#29333F"/>
<path d="M44.8072 48.7272L44.5848 48.8558C44.6849 48.7978 44.8242 48.8058 44.9769 48.8951L45.1992 48.7665C45.0456 48.6781 44.9072 48.6701 44.8072 48.7272Z" fill="#5B6879"/>
<path opacity="0.5" d="M45.5921 49.1799L45.3698 49.3085C45.4698 49.4826 45.5323 49.6782 45.5323 49.855L45.7546 49.7264C45.7546 49.5496 45.6921 49.354 45.5921 49.1799Z" fill="#29333F"/>
<path opacity="0.5" d="M45.2003 48.7655L44.9779 48.8941C45.1315 48.9825 45.2699 49.1343 45.3699 49.3084L45.5923 49.1798C45.4923 49.0057 45.353 48.8539 45.2003 48.7655Z" fill="#5B6879"/>
<path d="M45.3146 49.3407C45.2288 49.1916 45.1092 49.0612 44.9779 48.9853C44.8466 48.9094 44.7279 48.9022 44.6412 48.9523L44.585 48.9862C44.4993 49.0362 44.4457 49.1425 44.4457 49.2943C44.4457 49.4461 44.4993 49.614 44.585 49.7631C44.6707 49.9122 44.7904 50.0426 44.9216 50.1185C45.0529 50.1944 45.1717 50.2015 45.2583 50.1515L45.3146 50.1176C45.4003 50.0676 45.4539 49.9613 45.4539 49.8095C45.4539 49.6577 45.4003 49.4898 45.3146 49.3407Z" fill="#277500"/>
<path opacity="0.5" d="M45.3146 49.3407L45.2583 49.3746C45.344 49.5237 45.3976 49.6916 45.3976 49.8434L45.4539 49.8095C45.4539 49.6577 45.4003 49.4898 45.3146 49.3407Z" fill="#014F00"/>
<path opacity="0.5" d="M44.9778 48.9852L44.9215 49.0192C45.0528 49.0951 45.1716 49.2254 45.2582 49.3746L45.3145 49.3406C45.2287 49.1915 45.1091 49.0611 44.9778 48.9852Z" fill="#4D9B26"/>
<path d="M45.3976 49.8434C45.3976 49.9952 45.344 50.1015 45.2583 50.1515L45.3146 50.1176C45.4003 50.0676 45.4539 49.9613 45.4539 49.8095L45.3976 49.8434Z" fill="#014F00"/>
<path d="M44.6411 48.9523L44.5849 48.9862C44.6706 48.9362 44.7903 48.9433 44.9215 49.0192L44.9778 48.9853C44.8465 48.9094 44.7277 48.9022 44.6411 48.9523Z" fill="#4D9B26"/>
<path opacity="0.1" d="M47.4783 46.5796C47.4783 46.3831 47.4095 46.1661 47.2979 45.9732C47.1863 45.7803 47.0327 45.6125 46.863 45.5142L34.4425 38.3436C34.2728 38.2453 34.1192 38.2364 34.0076 38.3007C33.896 38.365 33.8272 38.5025 33.8272 38.699V43.8444C33.8272 44.0408 33.896 44.2578 34.0076 44.4507C34.1192 44.6436 34.2728 44.8115 34.4425 44.9097L46.863 52.0803C47.0327 52.1786 47.1863 52.1875 47.2979 52.1232C47.4095 52.0589 47.4783 51.9214 47.4783 51.7249V46.5796Z" fill="white"/>
<path opacity="0.1" d="M34.0085 38.3007C34.1201 38.2364 34.2737 38.2453 34.4433 38.3436L42.073 42.7487C40.5058 43.647 38.4671 44.8811 36.6526 46.1849L34.4425 44.9088C34.2728 44.8106 34.1192 44.6427 34.0076 44.4498C33.8959 44.2569 33.8272 44.0399 33.8272 43.8435V38.6981C33.8272 38.5016 33.8959 38.3641 34.0076 38.2998L34.0085 38.3007Z" fill="white"/>
<path d="M32.084 58.9232L49.8901 69.2032V71.9795L32.084 61.6994V58.9232Z" fill="#414E5F"/>
<path d="M32.084 61.6994L49.8901 71.9795V73.0984L31.1009 62.2513L32.084 61.6994Z" fill="#EEF5F9"/>
<path d="M31.1017 58.3553L32.084 58.9232V61.6995L31.1008 62.2514L31.1017 58.3553Z" fill="#BBC2C6"/>
<path d="M35.7872 62.0407L35.9783 61.9308L36.1382 62.0228V61.8058L36.3284 61.6951L36.9401 62.0487V62.4863L37.291 62.6881V64.2311L37.0999 64.341L35.7872 63.5837V62.0407Z" fill="#2A71C9"/>
<path d="M37.291 64.2311L37.0999 64.3409V62.7987L37.291 62.688V64.2311Z" fill="#044BA3"/>
<path d="M36.9402 62.0486L36.75 62.1584V62.596L36.9402 62.4861V62.0486Z" fill="#044BA3"/>
<path d="M36.9401 62.4862L36.7499 62.596L37.0999 62.7988L37.291 62.688L36.9401 62.4862Z" fill="#5198F0"/>
<path d="M36.3285 61.6951L36.1383 61.8058L36.75 62.1585L36.9402 62.0487L36.3285 61.6951Z" fill="#5198F0"/>
<path d="M36.1382 62.2434L35.7872 62.0407L35.9783 61.9309L36.1382 62.0229V62.2434Z" fill="#5198F0"/>
<g style="mix-blend-mode:multiply" opacity="0.2">
<path d="M35.8157 62.9282C35.8157 62.721 35.889 62.5746 36.0059 62.5067C36.0622 62.4746 36.1283 62.4594 36.2024 62.4647V61.9441L36.6944 62.187L36.7302 62.2486V62.7692C36.8034 62.8496 36.8704 62.9407 36.9266 63.038C37.0106 63.1836 37.0713 63.3425 37.0999 63.4979V63.8435C37.0713 63.9649 37.0106 64.0525 36.9266 64.1007C36.8775 64.1292 36.8212 64.1435 36.7587 64.1435L36.1765 63.8078C36.1131 63.7354 36.056 63.6551 36.0068 63.5693C35.889 63.3657 35.8166 63.1354 35.8166 62.9282H35.8157Z" fill="black"/>
</g>
<path d="M35.4265 63.064C35.4265 62.8666 35.4962 62.7282 35.6078 62.663C35.6614 62.6318 35.7248 62.6184 35.7944 62.6228V62.2996L35.9329 62.0478L36.1936 61.8977L36.6955 62.1871V62.5978L36.4856 62.7193V62.8032C36.5553 62.8791 36.6187 62.9657 36.6722 63.0586C36.7839 63.2524 36.8535 63.4712 36.8535 63.6685C36.8535 63.8659 36.7839 64.0043 36.6722 64.0695L36.4856 64.1775V64.2972L36.2963 64.4061L35.7944 64.1168V63.9293C35.7248 63.8534 35.6614 63.7668 35.6078 63.6739C35.4962 63.4801 35.4265 63.2613 35.4265 63.064Z" fill="#2A71C9"/>
<path opacity="0.5" d="M36.6713 63.0595C36.7829 63.2533 36.8525 63.472 36.8525 63.6694L36.6632 63.7783C36.6632 63.581 36.5936 63.3622 36.4819 63.1684L36.6713 63.0595Z" fill="#044BA3"/>
<path d="M36.6642 63.7783L36.8535 63.6694C36.8535 63.8668 36.7839 64.0052 36.6722 64.0704L36.4829 64.1793C36.5945 64.115 36.6642 63.9757 36.6642 63.7783Z" fill="#044BA3"/>
<path opacity="0.5" d="M36.2962 62.9131L36.4855 62.8041C36.5551 62.88 36.6185 62.9667 36.6721 63.0595L36.4828 63.1685C36.4292 63.0756 36.3658 62.989 36.2962 62.9131Z" fill="#5198F0"/>
<path d="M36.2963 62.9131V62.5898L36.4338 62.338L36.6946 62.188V62.5987L36.4847 62.7202V62.8041L36.2963 62.9131Z" fill="#044BA3"/>
<path d="M36.4338 62.3379L35.9329 62.0486L36.1927 61.8986L36.6946 62.1879L36.4338 62.3379Z" fill="#5198F0"/>
<path opacity="0.5" d="M35.9329 62.0486L35.7945 62.3004L36.2963 62.5897L36.4338 62.3379L35.9329 62.0486Z" fill="#5198F0"/>
<path d="M36.4827 64.1792C36.4827 64.1792 36.4845 64.1784 36.4854 64.1775V64.2971L36.296 64.4061V64.2185C36.3657 64.223 36.4291 64.2096 36.4827 64.1784V64.1792Z" fill="#044BA3"/>
<path d="M37.5563 63.0336L37.7474 62.9237L37.9072 63.0157V62.7987L38.0974 62.688L38.7091 63.0416V63.4792L39.0601 63.681V65.2241L38.869 65.3339L37.5563 64.5767V63.0336Z" fill="#2A71C9"/>
<path d="M39.0601 65.2242L38.869 65.334V63.7918L39.0601 63.6811V65.2242Z" fill="#044BA3"/>
<path d="M38.709 63.0417L38.5188 63.1515V63.5891L38.709 63.4792V63.0417Z" fill="#044BA3"/>
<path d="M38.7091 63.4793L38.5189 63.5891L38.869 63.7918L39.0601 63.6811L38.7091 63.4793Z" fill="#5198F0"/>
<path d="M38.0973 62.688L37.9071 62.7987L38.5188 63.1514L38.709 63.0416L38.0973 62.688Z" fill="#5198F0"/>
<path d="M37.9072 63.2363L37.5563 63.0336L37.7474 62.9238L37.9072 63.0158V63.2363Z" fill="#5198F0"/>
<g style="mix-blend-mode:multiply" opacity="0.2">
<path d="M37.5848 63.9213C37.5848 63.7141 37.658 63.5677 37.775 63.4998C37.8312 63.4677 37.8973 63.4525 37.9714 63.4578V62.9372L38.4635 63.1801L38.4992 63.2417V63.7623C38.5724 63.8427 38.6394 63.9338 38.6957 64.0311C38.7796 64.1767 38.8403 64.3356 38.8689 64.491V64.8366C38.8403 64.958 38.7796 65.0456 38.6957 65.0938C38.6465 65.1224 38.5903 65.1366 38.5278 65.1366L37.9455 64.8009C37.8821 64.7285 37.825 64.6482 37.7759 64.5625C37.658 64.3589 37.5857 64.1285 37.5857 63.9213H37.5848Z" fill="black"/>
</g>
<path d="M37.1956 64.0571C37.1956 63.8597 37.2652 63.7213 37.3768 63.6561C37.4304 63.6249 37.4938 63.6115 37.5635 63.6159V63.2927L37.7019 63.0409L37.9626 62.8908L38.4645 63.1802V63.5909L38.2546 63.7124V63.7963C38.3243 63.8722 38.3877 63.9588 38.4413 64.0517C38.5529 64.2455 38.6226 64.4643 38.6226 64.6616C38.6226 64.859 38.5529 64.9974 38.4413 65.0626L38.2546 65.1706V65.2903L38.0653 65.3992L37.5635 65.1099V64.9224C37.4938 64.8465 37.4304 64.7599 37.3768 64.667C37.2652 64.4732 37.1956 64.2544 37.1956 64.0571Z" fill="#2A71C9"/>
<path opacity="0.5" d="M38.4403 64.0526C38.5519 64.2464 38.6216 64.4651 38.6216 64.6625L38.4323 64.7714C38.4323 64.5741 38.3626 64.3553 38.251 64.1615L38.4403 64.0526Z" fill="#044BA3"/>
<path d="M38.4332 64.7714L38.6226 64.6625C38.6226 64.8598 38.5529 64.9982 38.4413 65.0634L38.252 65.1724C38.3636 65.1081 38.4332 64.9688 38.4332 64.7714Z" fill="#044BA3"/>
<path opacity="0.5" d="M38.0652 63.906L38.2545 63.7971C38.3242 63.873 38.3876 63.9596 38.4412 64.0525L38.2519 64.1614C38.1983 64.0685 38.1349 63.9819 38.0652 63.906Z" fill="#5198F0"/>
<path d="M38.0651 63.9061V63.5829L38.2026 63.3311L38.4634 63.181V63.5918L38.2535 63.7124V63.7972L38.0651 63.9061Z" fill="#044BA3"/>
<path d="M38.2026 63.3311L37.7008 63.0418L37.9615 62.8908L38.4634 63.1811L38.2026 63.3311Z" fill="#5198F0"/>
<path opacity="0.5" d="M37.7008 63.0417L37.5633 63.2935L38.0651 63.5828L38.2026 63.331L37.7008 63.0417Z" fill="#5198F0"/>
<path d="M38.252 65.1724C38.252 65.1724 38.2537 65.1715 38.2546 65.1706V65.2902L38.0653 65.3992V65.2116C38.135 65.2161 38.1984 65.2027 38.252 65.1715V65.1724Z" fill="#044BA3"/>
<path d="M39.3253 64.0267L39.5164 63.9168L39.6763 64.0088V63.7918L39.8665 63.6811L40.4782 64.0347V64.4723L40.8291 64.6741V66.2172L40.638 66.327L39.3253 65.5698V64.0267Z" fill="#2A71C9"/>
<path d="M40.8291 66.2171L40.638 66.3269V64.7839L40.8291 64.674V66.2171Z" fill="#044BA3"/>
<path d="M40.478 64.0346L40.2878 64.1444V64.582L40.478 64.4722V64.0346Z" fill="#044BA3"/>
<path d="M40.4782 64.4722L40.288 64.582L40.638 64.7838L40.8291 64.674L40.4782 64.4722Z" fill="#5198F0"/>
<path d="M39.8663 63.6811L39.6761 63.7918L40.2878 64.1445L40.478 64.0347L39.8663 63.6811Z" fill="#5198F0"/>
<path d="M39.6763 64.2284L39.3253 64.0266L39.5164 63.9167L39.6763 64.0087V64.2284Z" fill="#5198F0"/>
<g style="mix-blend-mode:multiply" opacity="0.2">
<path d="M39.3538 64.9142C39.3538 64.707 39.4271 64.5606 39.544 64.4927C39.6003 64.4606 39.6664 64.4454 39.7405 64.4508V63.9301L40.2325 64.173L40.2682 64.2347V64.7553C40.3415 64.8356 40.4084 64.9267 40.4647 65.024C40.5486 65.1696 40.6094 65.3286 40.6379 65.4839V65.8295C40.6094 65.951 40.5486 66.0385 40.4647 66.0867C40.4156 66.1153 40.3593 66.1296 40.2968 66.1296L39.7146 65.7938C39.6512 65.7215 39.594 65.6411 39.5449 65.5554C39.4271 65.3518 39.3547 65.1214 39.3547 64.9142H39.3538Z" fill="black"/>
</g>
<path d="M38.9644 65.05C38.9644 64.8526 39.034 64.7142 39.1456 64.649C39.1992 64.6178 39.2626 64.6044 39.3323 64.6089V64.2856L39.4707 64.0338L39.7314 63.8838L40.2333 64.1731V64.5839L40.0234 64.7053V64.7892C40.0931 64.8651 40.1565 64.9518 40.2101 65.0446C40.3217 65.2384 40.3914 65.4572 40.3914 65.6545C40.3914 65.8519 40.3217 65.9903 40.2101 66.0555L40.0234 66.1635V66.2832L39.8341 66.3922L39.3323 66.1028V65.9153C39.2626 65.8394 39.1992 65.7528 39.1456 65.6599C39.034 65.4661 38.9644 65.2473 38.9644 65.05Z" fill="#2A71C9"/>
<path opacity="0.5" d="M40.2093 65.0455C40.321 65.2393 40.3906 65.4581 40.3906 65.6554L40.2013 65.7644C40.2013 65.567 40.1317 65.3482 40.02 65.1544L40.2093 65.0455Z" fill="#044BA3"/>
<path d="M40.202 65.7643L40.3914 65.6554C40.3914 65.8527 40.3217 65.9912 40.2101 66.0563L40.0208 66.1653C40.1324 66.101 40.202 65.9617 40.202 65.7643Z" fill="#044BA3"/>
<path opacity="0.5" d="M39.8343 64.8991L40.0236 64.7902C40.0932 64.8661 40.1566 64.9527 40.2102 65.0456L40.0209 65.1545C39.9673 65.0616 39.9039 64.975 39.8343 64.8991Z" fill="#5198F0"/>
<path d="M39.8342 64.8991V64.5758L39.9717 64.324L40.2324 64.174V64.5847L40.0226 64.7053V64.7901L39.8342 64.8991Z" fill="#044BA3"/>
<path d="M39.9717 64.324L39.4698 64.0347L39.7306 63.8838L40.2324 64.174L39.9717 64.324Z" fill="#5198F0"/>
<path opacity="0.5" d="M39.4698 64.0346L39.3323 64.2864L39.8342 64.5758L39.9717 64.3239L39.4698 64.0346Z" fill="#5198F0"/>
<path d="M40.0208 66.1644C40.0208 66.1644 40.0225 66.1635 40.0234 66.1626V66.2823L39.8341 66.3912V66.2037C39.9038 66.2081 39.9672 66.1947 40.0208 66.1635V66.1644Z" fill="#044BA3"/>
<path d="M41.0941 65.0196L41.2852 64.9098L41.4442 65.0017V64.7839L41.6353 64.674L42.247 65.0276V65.4652L42.5979 65.667V67.2092L42.4068 67.3199L41.0941 66.5618V65.0196Z" fill="#2A71C9"/>
<path d="M42.5979 67.2093L42.4068 67.32V65.777L42.5979 65.6671V67.2093Z" fill="#044BA3"/>
<path d="M42.2471 65.0277L42.0569 65.1375V65.5751L42.2471 65.4653V65.0277Z" fill="#044BA3"/>
<path d="M42.247 65.4653L42.0568 65.5751L42.4068 65.777L42.5979 65.6671L42.247 65.4653Z" fill="#5198F0"/>
<path d="M41.6354 64.674L41.4443 64.7839L42.0569 65.1375L42.2471 65.0276L41.6354 64.674Z" fill="#5198F0"/>
<path d="M41.4443 65.2214L41.0943 65.0196L41.2854 64.9098L41.4443 65.0018V65.2214Z" fill="#5198F0"/>
<g style="mix-blend-mode:multiply" opacity="0.2">
<path d="M41.1229 65.9073C41.1229 65.7001 41.1961 65.5537 41.3131 65.4858C41.3693 65.4537 41.4354 65.4385 41.5095 65.4439V64.9232L42.0016 65.1661L42.0373 65.2278V65.7484C42.1105 65.8287 42.1775 65.9198 42.2337 66.0172C42.3177 66.1627 42.3784 66.3217 42.407 66.477V66.8226C42.3784 66.9441 42.3177 67.0316 42.2337 67.0798C42.1846 67.1084 42.1284 67.1227 42.0659 67.1227L41.4836 66.7869C41.4202 66.7146 41.3631 66.6342 41.314 66.5485C41.1961 66.3449 41.1238 66.1145 41.1238 65.9073H41.1229Z" fill="black"/>
</g>
<path d="M40.7334 66.0429C40.7334 65.8456 40.8031 65.7072 40.9147 65.642C40.9683 65.6107 41.0317 65.5973 41.1013 65.6018V65.2785L41.2397 65.0267L41.5005 64.8767L42.0023 65.166V65.5768L41.7925 65.6982V65.7822C41.8621 65.8581 41.9255 65.9447 41.9791 66.0376C42.0907 66.2313 42.1604 66.4501 42.1604 66.6475C42.1604 66.8448 42.0907 66.9832 41.9791 67.0484L41.7925 67.1565V67.2761L41.6032 67.3851L41.1013 67.0957V66.9082C41.0317 66.8323 40.9683 66.7457 40.9147 66.6528C40.8031 66.459 40.7334 66.2403 40.7334 66.0429Z" fill="#2A71C9"/>
<path opacity="0.5" d="M41.9782 66.0386C42.0898 66.2324 42.1594 66.4511 42.1594 66.6485L41.9701 66.7574C41.9701 66.5601 41.9005 66.3413 41.7888 66.1475L41.9782 66.0386Z" fill="#044BA3"/>
<path d="M41.9711 66.7574L42.1604 66.6485C42.1604 66.8458 42.0907 66.9843 41.9791 67.0494L41.7898 67.1584C41.9014 67.0941 41.9711 66.9548 41.9711 66.7574Z" fill="#044BA3"/>
<path opacity="0.5" d="M41.6033 65.892L41.7926 65.7831C41.8623 65.859 41.9257 65.9456 41.9792 66.0385L41.7899 66.1474C41.7364 66.0545 41.673 65.9679 41.6033 65.892Z" fill="#5198F0"/>
<path d="M41.6032 65.892V65.5687L41.7407 65.3169L42.0015 65.1669V65.5776L41.7916 65.6982V65.783L41.6032 65.892Z" fill="#044BA3"/>
<path d="M41.7407 65.3169L41.2389 65.0276L41.4996 64.8767L42.0015 65.1669L41.7407 65.3169Z" fill="#5198F0"/>
<path opacity="0.5" d="M41.2389 65.0277L41.1013 65.2786L41.6032 65.5689L41.7407 65.317L41.2389 65.0277Z" fill="#5198F0"/>
<path d="M41.7898 67.1575C41.7898 67.1575 41.7916 67.1566 41.7925 67.1557V67.2754L41.6032 67.3843V67.1968C41.6728 67.2012 41.7362 67.1878 41.7898 67.1566V67.1575Z" fill="#044BA3"/>
<path d="M32.8922 62.4228L34.772 63.5078V61.078L32.8922 59.9921V62.4228Z" fill="#C1060B"/>
<g style="mix-blend-mode:multiply" opacity="0.2">
<path d="M33.5638 62.7819C33.4887 62.6953 33.4209 62.5988 33.3628 62.4979C33.2209 62.2524 33.1333 61.9746 33.1333 61.7246C33.1333 61.4746 33.2209 61.2986 33.3628 61.2165C33.4218 61.1826 33.4896 61.1647 33.5638 61.1647V60.5021L34.1853 60.7387L34.271 60.9102V61.5728C34.346 61.6594 34.4139 61.7559 34.4719 61.8568C34.6139 62.1023 34.7014 62.3801 34.7014 62.6301C34.7014 62.8801 34.6139 63.056 34.4719 63.1382C34.413 63.1721 34.3451 63.19 34.271 63.19V63.2186L33.5638 62.8105V62.7819Z" fill="black"/>
</g>
<path d="M34.7718 63.5078L34.9629 63.3988V60.9681L34.7718 61.0779V63.5078Z" fill="#8E0000"/>
<path d="M32.8921 59.9921L34.7718 61.0779L34.9629 60.9681L33.0823 59.8831L32.8921 59.9921Z" fill="#E82C31"/>
<path d="M32.6484 61.7835C32.6484 61.5335 32.7359 61.3576 32.8779 61.2754L33.0788 61.1593V61.0522L33.369 60.3932L33.4771 60.3307L34.1843 60.7388V61.4013C34.2593 61.488 34.3272 61.5844 34.3852 61.6853C34.5272 61.9309 34.6147 62.2086 34.6147 62.4586C34.6147 62.7087 34.5272 62.8846 34.3852 62.9667L34.1843 63.0828V63.1695L33.7861 63.3998L33.0788 62.9917V62.8408C33.0038 62.7542 32.9359 62.6578 32.8779 62.5569C32.7359 62.3113 32.6484 62.0336 32.6484 61.7835Z" fill="#C1060B"/>
<path opacity="0.5" d="M34.387 61.6853C34.5289 61.9309 34.6165 62.2086 34.6165 62.4586L34.2182 62.689C34.2182 62.439 34.1307 62.1613 33.9887 61.9157L34.387 61.6853Z" fill="#8E0000"/>
<path d="M34.2182 62.6889L34.6165 62.4585C34.6165 62.7085 34.5289 62.8844 34.387 62.9666L33.9887 63.197C34.1307 63.1148 34.2182 62.9389 34.2182 62.6889Z" fill="#8E0000"/>
<path opacity="0.5" d="M33.7868 61.6316L34.1851 61.4012C34.2601 61.4878 34.3279 61.5842 34.386 61.6852L33.9877 61.9155C33.9288 61.8137 33.8609 61.7182 33.7868 61.6316Z" fill="#E82C31"/>
<path d="M34.1851 60.7395V61.4012L33.7868 61.6316V61.461L34.077 60.802L34.1851 60.7395Z" fill="#8E0000"/>
<path d="M33.3698 60.3932L33.4778 60.3307L34.1851 60.7396L34.077 60.8022L33.3698 60.3932Z" fill="#E82C31"/>
<path opacity="0.5" d="M33.3699 60.3931L33.0797 61.0521L33.7869 61.4611L34.0771 60.8021L33.3699 60.3931Z" fill="#E82C31"/>
<path d="M33.0796 61.2236C33.0046 61.2236 32.9367 61.2414 32.8787 61.2754L33.0796 61.1593V61.2236Z" fill="#E82C31"/>
<path d="M33.9877 63.197L34.1851 63.0827V63.1693L33.7868 63.3997V63.2488C33.8618 63.2488 33.9297 63.2309 33.9877 63.197Z" fill="#8E0000"/>
<path d="M47.9781 70.6543V68.6049L49.281 69.3576V71.4061L47.9781 70.6543Z" fill="#414E5F"/>
<path d="M49.2812 69.3578L47.9784 68.605L48.1695 68.4952L49.4714 69.2471L49.2812 69.3578Z" fill="#5B6879"/>
<g style="mix-blend-mode:multiply" opacity="0.2">
<path d="M48.9873 70.7874V69.7837L48.931 69.6167L48.3836 69.4354V70.4391L48.9873 70.7874Z" fill="black"/>
</g>
<path d="M49.2812 71.4063V69.3578L49.4714 69.2471V71.2965L49.2812 71.4063Z" fill="#29333F"/>
<path d="M48.822 70.6338V69.6792L48.2193 69.3309V70.2855L48.822 70.6338Z" fill="#414E5F"/>
<path d="M48.9309 70.5712V69.6166L48.822 69.6791V70.6337L48.9309 70.5712Z" fill="#29333F"/>
<path d="M48.3281 69.2685L48.9309 69.6168L48.822 69.6793L48.2192 69.331L48.3281 69.2685Z" fill="#5B6879"/>
<path d="M48.2978 69.4675L48.7434 69.7256V70.498L48.6613 70.5453L48.2157 70.2873V69.9381L48.1487 69.6104L48.2978 69.4675Z" fill="#C1060B"/>
<path d="M48.6613 70.5454L48.7434 70.4981V69.7256L48.5943 69.8685L48.6613 70.1963V70.5454Z" fill="#8E0000"/>
<path d="M48.6614 70.5455L48.2158 70.2874V69.9382L48.6614 70.1963V70.5455Z" fill="#C1060B"/>
<path opacity="0.5" d="M48.5944 69.8686L48.1488 69.6105L48.2158 69.9383L48.6614 70.1963L48.5944 69.8686Z" fill="#8E0000"/>
<path d="M48.7434 69.7256L48.5943 69.8684L48.1487 69.6104L48.2978 69.4675L48.7434 69.7256Z" fill="#E82C31"/>
<path d="M46.0252 69.6301V67.5807L47.3271 68.3326V70.382L46.0252 69.6301Z" fill="#414E5F"/>
<path d="M47.3271 68.3326L46.0252 67.5807L46.2154 67.47L47.5173 68.2228L47.3271 68.3326Z" fill="#5B6879"/>
<g style="mix-blend-mode:multiply" opacity="0.2">
<path d="M47.0334 69.7631V68.7594L46.9772 68.5924L46.4298 68.4111V69.4148L47.0334 69.7631Z" fill="black"/>
</g>
<path d="M47.3271 70.382V68.3326L47.5173 68.2227V70.2721L47.3271 70.382Z" fill="#29333F"/>
<path d="M46.8682 69.6095V68.6549L46.2654 68.3066V69.2612L46.8682 69.6095Z" fill="#414E5F"/>
<path d="M46.9771 69.5462V68.5925L46.8681 68.655V69.6096L46.9771 69.5462Z" fill="#29333F"/>
<path d="M46.3743 68.2442L46.9771 68.5925L46.8681 68.655L46.2653 68.3067L46.3743 68.2442Z" fill="#5B6879"/>
<path d="M46.344 68.4434L46.7896 68.7005V69.473L46.7074 69.5212L46.2618 69.2631V68.914L46.1948 68.5862L46.344 68.4434Z" fill="#C1060B"/>
<path d="M46.7074 69.5211L46.7896 69.4729V68.7004L46.6404 68.8433L46.7074 69.1719V69.5211Z" fill="#8E0000"/>
<path d="M46.7075 69.5212L46.2619 69.2631V68.9139L46.7075 69.172V69.5212Z" fill="#C1060B"/>
<path opacity="0.5" d="M46.6405 68.8434L46.1949 68.5862L46.2619 68.9139L46.7075 69.172L46.6405 68.8434Z" fill="#8E0000"/>
<path d="M46.7896 68.7005L46.6404 68.8434L46.1948 68.5862L46.344 68.4434L46.7896 68.7005Z" fill="#E82C31"/>
<path d="M44.8626 67.1754L45.0537 67.0655V68.3711L44.8626 68.4809V67.1754Z" fill="#BBC2C6"/>
<path d="M43.5758 66.2118L45.0537 67.0655L44.8626 67.1753L43.3847 66.3216L43.5758 66.2118Z" fill="#EEF5F9"/>
<path d="M43.3847 66.3217L44.8625 67.1753V68.4809L43.3847 67.6272V66.3217Z" fill="#D4DBDF"/>
<path d="M43.9436 66.86L43.6793 66.7144V67.544L43.9436 67.6967V66.86Z" fill="#414E5F"/>
<path d="M43.5857 66.6637V67.5978L43.6794 67.5442V66.7146L43.5857 66.6637Z" fill="#29333F"/>
<path d="M43.9436 67.178V67.3629L43.6793 67.5156V67.3307L43.9436 67.178Z" fill="#29333F"/>
<path d="M43.6794 67.5154L43.3214 67.3083V67.1234L43.6794 67.3306V67.5154Z" fill="#414E5F"/>
<path d="M43.9436 67.07V67.178L43.6793 67.3307L43.3221 67.1236L43.6793 66.9173L43.9436 67.07Z" fill="#5B6879"/>
<path d="M43.6793 67.5441L43.5855 67.5977L43.9436 67.8048V67.6968L43.6793 67.5441Z" fill="#5B6879"/>
<path d="M44.6062 67.2235L44.3428 67.0788V67.9084L44.6062 68.0611V67.2235Z" fill="#414E5F"/>
<path d="M44.249 67.027V67.9619L44.3428 67.9084V67.0788L44.249 67.027Z" fill="#29333F"/>
<path d="M44.6062 67.5424V67.7263L44.3428 67.879V67.6942L44.6062 67.5424Z" fill="#29333F"/>
<path d="M44.3428 67.8789L43.9847 67.6726V67.4878L44.3428 67.694V67.8789Z" fill="#414E5F"/>
<path d="M44.6062 67.4342V67.5422L44.3428 67.694L43.9847 67.4869L44.3428 67.2806L44.6062 67.4342Z" fill="#5B6879"/>
<path d="M44.3428 67.9084L44.249 67.962L44.6062 68.1692V68.0611L44.3428 67.9084Z" fill="#5B6879"/>
<path d="M32.6484 80.5985L9.66573 67.3297V65.7402L32.6484 79.009V80.5985Z" fill="#D4DBDF"/>
<path d="M42.0881 77.9697L74.54 96.7054V98.2949L42.0881 79.5592V77.9697Z" fill="#D4DBDF"/>
<path d="M68.2426 93.07V94.6595L71.5234 96.5535V94.964L68.2426 93.07Z" fill="#C1060B"/>
<path d="M61.6827 89.2828V90.8723L64.9626 92.7655V91.176L61.6827 89.2828Z" fill="#C1060B"/>
<path d="M55.1222 85.4948V87.0843L58.4021 88.9774V87.3879L55.1222 85.4948Z" fill="#C1060B"/>
<path d="M48.5624 81.7076V83.2972L51.8423 85.1903V83.6008L48.5624 81.7076Z" fill="#C1060B"/>
<path d="M42.0879 77.9697V79.5592L45.2812 81.4032V79.8137L42.0879 77.9697Z" fill="#C1060B"/>
<path d="M26.8413 75.6559V77.2455L29.7444 78.9216V77.3321L26.8413 75.6559Z" fill="#C1060B"/>
<path d="M21.0359 72.3036V73.894L23.939 75.5701V73.9797L21.0359 72.3036Z" fill="#C1060B"/>
<path d="M15.2307 68.9523V70.5427L18.1338 72.2188V70.6284L15.2307 68.9523Z" fill="#C1060B"/>
<path d="M9.66662 65.7402V67.3297L12.3286 68.8665V67.277L9.66662 65.7402Z" fill="#C1060B"/>
<path d="M71.5234 94.964L68.2426 93.07V94.6595L71.5234 96.5535V94.964Z" fill="#C1060B"/>
<path d="M64.9626 91.176L61.6827 89.2828V90.8723L64.9626 92.7655V91.176Z" fill="#C1060B"/>
<path d="M58.4021 87.3879L55.1222 85.4948V87.0843L58.4021 88.9774V87.3879Z" fill="#C1060B"/>
<path d="M51.8423 83.6008L48.5624 81.7076V83.2972L51.8423 85.1903V83.6008Z" fill="#C1060B"/>
<path d="M42.0879 77.9697V79.5592L45.2812 81.4032V79.8137L42.0879 77.9697Z" fill="#C1060B"/>
<path d="M29.7444 77.3321L26.8413 75.6559V77.2455L29.7444 78.9216V77.3321Z" fill="#C1060B"/>
<path d="M23.939 73.9797L21.0359 72.3036V73.894L23.939 75.5701V73.9797Z" fill="#C1060B"/>
<path d="M18.1338 70.6284L15.2307 68.9523V70.5427L18.1338 72.2188V70.6284Z" fill="#C1060B"/>
<path d="M9.66662 65.7402V67.3297L12.3286 68.8665V67.277L9.66662 65.7402Z" fill="#C1060B"/>
</svg>
