<svg width="120" height="120" viewBox="0 0 120 120" fill="none" xmlns="http://www.w3.org/2000/svg">
<path d="M94.9081 78.9596C95.7842 78.9596 96.6047 78.7495 97.3381 78.3254C99.0546 77.3343 100 75.3463 100 72.7241V53.1076H97.6413V72.7241C97.6413 74.4663 97.1141 75.7308 96.1588 76.2819C95.2034 76.8329 93.8457 76.6584 92.3373 75.7863L59.9346 57.0796C58.2221 56.0906 56.5988 54.3682 55.364 52.2315C54.1291 50.0949 53.4513 47.8274 53.4513 45.8493H51.0926C51.0926 48.2357 51.8835 50.9194 53.3224 53.4108C54.7594 55.9003 56.69 57.9299 58.7553 59.1231L91.158 77.8298C92.4583 78.581 93.7347 78.9596 94.9101 78.9596H94.9081Z" fill="#29333F"/>
<path d="M94.9061 78.0006C95.6672 78.0006 96.3768 77.8203 97.0031 77.4575C98.5035 76.5914 99.332 74.8075 99.332 72.435V52.8185H98.3053V72.435C98.3053 74.425 97.6612 75.8937 96.4898 76.5696C95.3184 77.2455 93.7248 77.0691 92.0004 76.0741L59.5976 57.3674C57.784 56.3208 56.0755 54.5132 54.7832 52.2754C53.4909 50.0377 52.7793 47.6533 52.7793 45.5602H51.7526C51.7526 47.8297 52.5118 50.3984 53.8933 52.7888C55.2728 55.1792 57.1161 57.1216 59.0823 58.2573L91.485 76.964C92.6802 77.6538 93.8437 78.0026 94.9021 78.0026L94.9061 78.0006Z" fill="#414E5F"/>
<path d="M94.9059 77.4513C95.6234 77.4513 96.2894 77.2828 96.8761 76.9439C98.2952 76.1253 99.0762 74.4207 99.0762 72.1433V52.5269H98.5628V72.1433C98.5628 74.2304 97.8731 75.7765 96.6184 76.4999C95.3658 77.2234 93.679 77.047 91.8734 76.0044L59.4706 57.2977C57.6194 56.2294 55.8771 54.388 54.563 52.1126C53.2489 49.8372 52.5255 47.4072 52.5255 45.2686H52.0121C52.0121 47.4944 52.7593 50.0156 54.119 52.3683C55.4767 54.721 57.2864 56.6297 59.2149 57.7417L91.6177 76.4484C92.7732 77.1144 93.8911 77.4513 94.9059 77.4513Z" fill="#5B6879"/>
<path d="M82.756 67.5334L85.2455 68.9704L96.8187 62.2889L94.3293 60.8519L82.756 67.5334Z" fill="#5B6879"/>
<path d="M82.756 80.0737L85.2455 81.5107V68.9702L82.756 67.5332V80.0737Z" fill="#414E5F"/>
<path d="M85.2455 68.9703V81.5108L96.8187 74.8292V62.2887L85.2455 68.9703Z" fill="#29333F"/>
<path d="M62.7273 71.208C63.9641 69.0654 65.6726 67.1943 67.5615 66.1062C69.4484 65.016 71.159 64.913 72.3958 65.6265L82.0821 71.2238C83.3189 71.9374 84.084 73.4695 84.084 75.6498C84.084 77.8301 83.3189 80.2442 82.0821 82.3868C80.8453 84.5294 79.1368 86.4005 77.2479 87.4906C75.3609 88.5808 73.6504 88.6838 72.4136 87.9703L62.7273 82.3729C61.4905 81.6594 60.7254 80.1273 60.7254 77.947C60.7254 75.7667 61.4905 73.3526 62.7273 71.21V71.208Z" fill="#D4DBDF"/>
<path opacity="0.5" d="M72.4136 76.8053C73.6504 74.6627 75.3589 72.7916 77.2479 71.7035C79.1348 70.6133 80.8453 70.5103 82.0821 71.2238C83.3189 71.9374 84.084 73.4695 84.084 75.6498C84.084 77.83 83.3189 80.2442 82.0821 82.3868C80.8453 84.5294 79.1368 86.4005 77.2479 87.4906C75.3609 88.5807 73.6504 88.6838 72.4136 87.9703C71.1768 87.2567 70.4117 85.7246 70.4117 83.5443C70.4117 81.3641 71.1768 78.9499 72.4136 76.8073V76.8053Z" fill="#BBC2C6"/>
<path d="M74.4671 77.9865C75.5473 76.1154 77.0398 74.4822 78.6869 73.5308C80.336 72.5794 81.8265 72.4903 82.9067 73.1126C83.987 73.737 84.6549 75.0729 84.6549 76.9776C84.6549 78.8804 83.987 80.9893 82.9067 82.8604C81.8265 84.7315 80.334 86.3647 78.6869 87.3161C77.0398 88.2675 75.5473 88.3586 74.4671 87.7343C73.3869 87.1099 72.7189 85.774 72.7189 83.8713C72.7189 81.9685 73.3869 79.8596 74.4671 77.9885V77.9865Z" fill="#BBC2C6"/>
<path opacity="0.5" d="M67.5617 66.1061L77.248 71.7035C75.3611 72.7936 73.6506 74.6627 72.4138 76.8053L62.7275 71.2079C63.9643 69.0653 65.6728 67.1943 67.5617 66.1061Z" fill="#EEF5F9"/>
<path opacity="0.5" d="M70.4118 83.5443C70.4118 85.7245 71.1769 87.2547 72.4137 87.9702L62.7274 82.3729C61.4905 81.6593 60.7255 80.1272 60.7255 77.9469L70.4118 83.5443Z" fill="#BBC2C6"/>
<path d="M72.3957 65.6265L82.082 71.2238C80.8452 70.5103 79.1367 70.6134 77.2478 71.7035L67.5614 66.1062C69.4484 65.016 71.1589 64.913 72.3957 65.6265Z" fill="#EEF5F9"/>
<path d="M80.2764 77.6733C80.1634 77.6079 80.0366 77.5643 79.8998 77.5405L81.7075 74.0085C81.8601 74.0521 82.0068 74.1115 82.1455 74.1829L80.3379 77.7129C80.318 77.6991 80.2962 77.6852 80.2744 77.6733H80.2764Z" fill="#414E5F"/>
<path d="M78.6868 77.8298C78.5897 77.8853 78.4946 77.9487 78.3994 78.0181V74.7715C78.4946 74.71 78.5897 74.6506 78.6868 74.5951C78.784 74.5396 78.8791 74.488 78.9742 74.4385V77.6851C78.8811 77.7247 78.784 77.7723 78.6868 77.8298Z" fill="#414E5F"/>
<path d="M79.1806 77.6102L80.1419 74.0029C80.3262 73.9612 80.5066 73.9315 80.681 73.9176L79.7197 77.525C79.5513 77.521 79.3709 77.5488 79.1806 77.6102Z" fill="#414E5F"/>
<path d="M80.4726 77.8199L82.9085 74.7914C83.0136 74.9142 83.1087 75.051 83.1959 75.1997L80.762 78.2282C80.6866 78.0657 80.5895 77.929 80.4746 77.8219L80.4726 77.8199Z" fill="#414E5F"/>
<path d="M76.6136 80.6204L74.1796 80.4024C74.2668 80.1546 74.3619 79.9089 74.467 79.6631L76.903 79.8811C76.788 80.1229 76.6909 80.3707 76.6156 80.6204H76.6136Z" fill="#414E5F"/>
<path d="M77.6562 78.7158L76.6949 76.2184C76.8693 76.0302 77.0497 75.8518 77.234 75.6813L78.1953 78.1787C78.005 78.3373 77.8247 78.5176 77.6562 78.7158Z" fill="#414E5F"/>
<path d="M80.8315 78.4128L83.6005 76.2503C83.6441 76.4386 83.6778 76.6368 83.6996 76.845L80.9306 79.0074C80.9207 78.7874 80.887 78.5872 80.8315 78.4128Z" fill="#414E5F"/>
<path d="M77.099 79.5065C77.0772 79.5442 77.0574 79.5819 77.0356 79.6195L75.228 78.1766C75.3667 77.9447 75.5134 77.7167 75.666 77.4967L77.4736 78.9417C77.3369 79.122 77.212 79.3103 77.097 79.5085L77.099 79.5065Z" fill="#414E5F"/>
<path d="M76.4433 81.5979L73.6743 82.6325C73.6961 82.3987 73.7298 82.1608 73.7734 81.923L76.5424 80.8883C76.4869 81.1282 76.4532 81.366 76.4433 81.5979Z" fill="#414E5F"/>
<path d="M76.901 83.0268L74.465 86.0554C74.36 85.9325 74.2649 85.7957 74.1776 85.6471L76.6116 82.6185C76.6869 82.781 76.7841 82.9178 76.899 83.0248L76.901 83.0268Z" fill="#414E5F"/>
<path d="M78.1953 83.2389L77.234 86.8463C77.0497 86.8879 76.8693 86.9176 76.6949 86.9315L77.6562 83.3241C77.8247 83.3281 78.005 83.3004 78.1953 83.2389Z" fill="#414E5F"/>
<path d="M77.0994 83.1757C77.2123 83.2411 77.3392 83.2847 77.476 83.3085L75.6683 86.8406C75.5157 86.7969 75.369 86.7375 75.2303 86.6661L77.0379 83.1361C77.0577 83.15 77.0795 83.1638 77.1013 83.1757H77.0994Z" fill="#414E5F"/>
<path d="M76.4433 81.8395C76.4532 82.0595 76.4869 82.2597 76.5424 82.4341L73.7734 84.5966C73.7298 84.4083 73.6961 84.2101 73.6743 84.0019L76.4433 81.8395Z" fill="#414E5F"/>
<path d="M78.6868 83.0171C78.784 82.9616 78.8791 82.8981 78.9742 82.8288V86.0754C78.8791 86.1368 78.784 86.1943 78.6868 86.2518C78.5897 86.3093 78.4946 86.3588 78.3994 86.4064V83.1598C78.4926 83.1201 78.5897 83.0726 78.6868 83.0151V83.0171Z" fill="#414E5F"/>
<path d="M80.2764 81.3402C80.2982 81.3025 80.318 81.2649 80.3398 81.2272L82.1475 82.6701C82.0087 82.902 81.862 83.13 81.7094 83.35L79.9018 81.9051C80.0385 81.7247 80.1634 81.5364 80.2784 81.3382L80.2764 81.3402Z" fill="#414E5F"/>
<path d="M80.9306 79.2491L83.6996 78.2145C83.6778 78.4484 83.6441 78.6862 83.6005 78.9241L80.8315 79.9587C80.887 79.7189 80.9207 79.481 80.9306 79.2491Z" fill="#414E5F"/>
<path d="M80.76 80.2266L83.194 80.4446C83.1068 80.6923 83.0116 80.9381 82.9066 81.1839L80.4706 80.9659C80.5856 80.7241 80.6827 80.4763 80.758 80.2266H80.76Z" fill="#414E5F"/>
<path d="M79.7197 82.1331L80.681 84.6305C80.5066 84.8188 80.3262 84.9972 80.1419 85.1677L79.1806 82.6703C79.3709 82.5117 79.5513 82.3314 79.7197 82.1331Z" fill="#414E5F"/>
<path d="M51.0906 45.8494H53.4492V26.2349C53.4492 23.6146 52.5038 21.6246 50.7873 20.6336C49.0708 19.6425 46.8767 19.8189 44.6053 21.1291L27.6606 30.9125L28.8399 32.956L45.7846 23.1726C47.2929 22.3005 48.6506 22.1261 49.606 22.6771C50.5614 23.2281 51.0886 24.4926 51.0886 26.2349V45.8513L51.0906 45.8494Z" fill="#29333F"/>
<path d="M51.7584 45.56H52.7852V25.9436C52.7852 23.571 51.9586 21.7872 50.4562 20.921C48.9558 20.0549 46.9975 20.2293 44.9421 21.4165L27.9975 31.2L28.5108 32.088L45.4555 22.3045C47.1799 21.3095 48.7735 21.1331 49.9449 21.809C51.1163 22.4849 51.7604 23.9536 51.7604 25.9436V45.56H51.7584Z" fill="#414E5F"/>
<path d="M52.0144 45.2686H52.5277V25.6521C52.5277 23.3747 51.7468 21.6701 50.3276 20.8516C48.9085 20.033 47.0414 20.2094 45.0692 21.3471L28.1246 31.1305L28.3802 31.5745L45.3249 21.7911C47.1325 20.7485 48.8173 20.5721 50.07 21.2955C51.3226 22.019 52.0144 23.567 52.0144 25.6521V45.2686Z" fill="#5B6879"/>
<path d="M87.0889 54.1782L75.694 60.7567L30.8379 34.859L42.2348 28.2826L87.0889 54.1782Z" fill="#EEF5F9"/>
<path d="M28.3722 34.5377L30.8379 33.1146L75.694 59.0122L73.262 60.4155C71.6149 61.3669 70.1244 62.9981 69.0442 64.8672C67.9639 66.7363 67.298 68.8433 67.298 70.746V91.2723L22.4082 65.3945V44.8682C22.4082 42.9674 23.0762 40.8585 24.1544 38.9894C25.2346 37.1203 26.7251 35.4891 28.3722 34.5377Z" fill="#D4DBDF"/>
<path opacity="0.7" d="M28.3723 34.5374L73.2621 60.4153C71.615 61.3666 70.1245 62.9979 69.0443 64.867L24.1545 38.9892C25.2347 37.1201 26.7252 35.4888 28.3723 34.5374Z" fill="#EEF5F9"/>
<path opacity="0.4" d="M24.1546 38.9896L69.0443 64.8674C67.9641 66.7365 67.2981 68.8434 67.2981 70.7462L22.4084 44.8684C22.4084 42.9676 23.0763 40.8587 24.1546 38.9896Z" fill="#EEF5F9"/>
<path d="M30.8379 33.1146L75.694 59.0122L73.262 60.4155L28.3722 34.5377L30.8379 33.1146Z" fill="#EEF5F9"/>
<path d="M87.0888 52.4336L42.2348 26.536L45.4556 24.6768C47.4079 23.5491 49.1779 23.442 50.4564 24.1813L95.3441 50.0611C94.0637 49.3218 92.2957 49.4288 90.3434 50.5566L87.0888 52.4356V52.4336Z" fill="#EEF5F9"/>
<path d="M87.0889 52.4338V54.178L42.2348 28.2823V26.5361L87.0889 52.4338Z" fill="#D4DBDF"/>
<path d="M67.2979 70.7462V91.2724L70.7665 89.2705V74.298L97.4174 58.9093V54.638C97.4174 52.3824 96.6245 50.7987 95.3461 50.0594C94.0677 49.3201 92.2977 49.4271 90.3454 50.5529L87.0908 52.4319V54.1761L75.6959 60.7546V59.0104L73.2639 60.4137C71.6169 61.3651 70.1263 62.9963 69.0461 64.8654C67.9679 66.7345 67.2999 68.8414 67.2999 70.7442L67.2979 70.7462Z" fill="#BBC2C6"/>
<path d="M67.621 73.2714L98.0814 55.6846L98.8207 56.1127L68.3603 73.6995L67.621 73.2714Z" fill="#5B6879"/>
<path d="M68.3603 73.6995L98.8207 56.1126V59.1254L68.3603 76.7122V73.6995Z" fill="#29333F"/>
<g style="mix-blend-mode:multiply" opacity="0.2">
<path d="M22.4081 49.6471V49.2467L67.2979 75.1622V75.5626L22.4081 49.6471Z" fill="black"/>
</g>
<path d="M22.4081 57.8148V57.4144L67.2979 83.3318V83.7322L22.4081 57.8148Z" fill="#EEF5F9"/>
<path d="M67.2145 82.9711L22.9312 57.4045V50.3444L67.2145 75.911V82.9711Z" fill="#889AA5"/>
<g style="mix-blend-mode:multiply" opacity="0.2">
<path d="M47.0355 34.3297C48.0741 34.3297 49.1107 34.5577 49.9036 35.0155C50.6964 35.4734 51.0908 36.072 51.0908 36.6706C51.0908 37.2691 50.6944 37.8697 49.9036 38.3256C49.1107 38.7834 48.0741 39.0114 47.0355 39.0114C45.9969 39.0114 44.9603 38.7834 44.1675 38.3256C43.3766 37.8677 42.9802 37.2691 42.9802 36.6706C42.9802 36.072 43.3766 35.4714 44.1675 35.0155C44.9603 34.5577 45.9969 34.3297 47.0355 34.3297Z" fill="black"/>
</g>
<path d="M43.2554 33.9075C44.0482 33.4496 45.0848 33.2217 46.1234 33.2217C47.162 33.2217 48.1986 33.4496 48.9915 33.9075C49.7843 34.3653 50.1787 34.9639 50.1787 35.5625V36.6705C50.1787 37.2691 49.7823 37.8696 48.9915 38.3255C48.1986 38.7833 47.162 39.0113 46.1234 39.0113C45.0848 39.0113 44.0482 38.7833 43.2554 38.3255C42.4625 37.8676 42.0681 37.2691 42.0681 36.6705V35.5625C42.0681 34.9639 42.4645 34.3633 43.2554 33.9075Z" fill="#414E5F"/>
<path d="M46.1234 33.2217C47.162 33.2217 48.1986 33.4496 48.9915 33.9075C49.7843 34.3653 50.1787 34.9639 50.1787 35.5625C50.1787 36.1611 49.7823 36.7616 48.9915 37.2175C48.1986 37.6754 47.162 37.9033 46.1234 37.9033C45.0848 37.9033 44.0482 37.6754 43.2554 37.2175C42.4645 36.7597 42.0681 36.1611 42.0681 35.5625C42.0681 34.9639 42.4645 34.3633 43.2554 33.9075C44.0482 33.4496 45.0848 33.2217 46.1234 33.2217Z" fill="#5B6879"/>
<path opacity="0.3" d="M43.2555 37.2195V38.3274C42.4627 37.8696 42.0682 37.271 42.0682 36.6724V35.5645C42.0682 36.163 42.4647 36.7636 43.2555 37.2195Z" fill="#29333F"/>
<path opacity="0.5" d="M50.1787 35.5625V36.6704C50.1787 37.269 49.7823 37.8696 48.9915 38.3255C48.1986 38.7833 47.162 39.0113 46.1234 39.0113V37.9033C47.162 37.9033 48.1986 37.6753 48.9915 37.2175C49.7843 36.7596 50.1787 36.161 50.1787 35.5625Z" fill="#29333F"/>
<path d="M50.1787 35.5625V36.6704C50.1787 37.269 49.7823 37.8696 48.9915 38.3255V37.2175C49.7843 36.7596 50.1787 36.161 50.1787 35.5625Z" fill="#29333F"/>
<path d="M41.7592 24.7366C41.7592 24.9646 41.8285 25.135 41.9475 25.2302C41.9475 25.2302 41.9475 25.2302 41.9494 25.2321L88.2306 51.9543L89.3842 49.9564L43.0733 23.2184C42.9365 23.1787 42.766 23.2065 42.5817 23.3135C42.5718 23.3195 42.5639 23.3234 42.5559 23.3294C42.5381 23.3393 42.5223 23.3512 42.5044 23.3631C42.3677 23.4562 42.2408 23.5811 42.1318 23.7278C42.0842 23.7912 42.0406 23.8586 42.001 23.9279C41.9494 24.0171 41.9038 24.1123 41.8682 24.2074C41.8008 24.3858 41.7611 24.5682 41.7611 24.7386L41.7592 24.7366Z" fill="#29333F"/>
<path d="M41.866 24.2051L88.5316 51.1473L89.0826 50.192L42.5537 23.3311C42.5359 23.341 42.52 23.3529 42.5022 23.3647C42.3654 23.4579 42.2386 23.5828 42.1296 23.7294C42.082 23.7929 42.0384 23.8603 41.9988 23.9296C41.9472 24.0188 41.9016 24.114 41.866 24.2091V24.2051Z" fill="#414E5F"/>
<path d="M42.1318 23.7276L88.6825 50.6044L88.9342 50.1703L42.5024 23.3629C42.3657 23.4561 42.2388 23.581 42.1298 23.7276H42.1318Z" fill="#5B6879"/>
<path d="M28.1742 32.2207C28.1742 32.4486 28.2436 32.6191 28.3625 32.7142C28.3625 32.7142 28.3625 32.7142 28.3625 32.7162L74.6456 59.4383L75.7992 57.4404L29.4883 30.7024C29.3515 30.6628 29.1811 30.6905 28.9968 30.7975C28.9868 30.8035 28.9789 30.8075 28.971 30.8134C28.9532 30.8233 28.9373 30.8352 28.9195 30.8471C28.7827 30.9403 28.6558 31.0651 28.5468 31.2118C28.4993 31.2752 28.4557 31.3426 28.416 31.412C28.3645 31.5012 28.3189 31.5963 28.2832 31.6915C28.2158 31.8698 28.1762 32.0522 28.1762 32.2227L28.1742 32.2207Z" fill="#29333F"/>
<path d="M28.281 31.6895L74.9467 58.6317L75.4977 57.6763L28.9688 30.8154C28.9509 30.8253 28.9351 30.8372 28.9172 30.8491C28.7805 30.9423 28.6536 31.0672 28.5446 31.2138C28.497 31.2773 28.4534 31.3446 28.4138 31.414C28.3623 31.5032 28.3167 31.5983 28.281 31.6935V31.6895Z" fill="#414E5F"/>
<path d="M28.5446 31.2117L75.0953 58.0885L75.347 57.6544L28.9172 30.847C28.7805 30.9402 28.6536 31.065 28.5446 31.2117Z" fill="#5B6879"/>
<path d="M63.8175 96.9095C64.6935 96.9095 65.5141 96.6994 66.2475 96.2753C67.9639 95.2842 68.9094 93.2962 68.9094 90.674V71.0575C68.9094 69.0794 69.5892 66.8139 70.8221 64.6753C72.0569 62.5386 73.6782 60.8162 75.3927 59.8271L92.3373 50.0437C93.8457 49.1716 95.2034 48.9971 96.1588 49.5482C97.1141 50.0992 97.6413 51.3637 97.6413 53.106H100C100 50.4857 99.0546 48.4957 97.3381 47.5047C95.6216 46.5136 93.4275 46.69 91.156 48.0002L74.2114 57.7836C72.1461 58.9768 70.2155 61.0045 68.7786 63.4959C67.3416 65.9854 66.5487 68.6711 66.5487 71.0575V90.674C66.5487 92.4162 66.0215 93.6808 65.0662 94.2318C64.1108 94.7828 62.7531 94.6084 61.2447 93.7363L28.842 75.0296C27.1295 74.0405 25.5062 72.3181 24.2713 70.1814C23.0365 68.0448 22.3587 65.7773 22.3587 63.7992V44.1827C22.3587 42.2046 23.0385 39.9391 24.2713 37.8005C25.5062 35.6638 27.1275 33.9414 28.842 32.9523L27.6627 30.9088C25.5973 32.102 23.6668 34.1297 22.2298 36.6211C20.7928 39.1106 20 41.7963 20 44.1827V63.7992C20 66.1856 20.7928 68.8693 22.2298 71.3608C23.6668 73.8502 25.5973 75.8799 27.6627 77.0731L60.0654 95.7798C61.3656 96.531 62.6421 96.9095 63.8175 96.9095Z" fill="#29333F"/>
<path d="M63.8154 95.9499C64.5765 95.9499 65.2861 95.7695 65.9124 95.4068C67.4129 94.5406 68.2414 92.7568 68.2414 90.3842V70.7678C68.2414 68.6747 68.9529 66.2903 70.2452 64.0525C71.5375 61.8148 73.2461 60.0072 75.0597 58.9606L92.0043 49.1772C93.7287 48.1822 95.3223 48.0058 96.4937 48.6817C97.6651 49.3575 98.3093 50.8262 98.3093 52.8162V53.1076H99.334V52.8162C99.334 50.4437 98.5075 48.6598 97.0051 47.7937C95.5046 46.9275 93.5464 47.1019 91.491 48.2892L74.5463 58.0727C72.5801 59.2084 70.7368 61.1488 69.3573 63.5412C67.9778 65.9315 67.2166 68.4983 67.2166 70.7698V90.3862C67.2166 92.3762 66.5725 93.8449 65.4011 94.5208C64.2317 95.1967 62.6361 95.0203 60.9117 94.0253L28.5089 75.3186C26.6954 74.2721 24.9868 72.4644 23.6945 70.2267C22.4022 67.9889 21.6907 65.6045 21.6907 63.5114V43.895C21.6907 41.8019 22.4022 39.4175 23.6945 37.1797C24.9868 34.942 26.6954 33.1344 28.5089 32.0878L27.9956 31.1999C26.0294 32.3356 24.1861 34.276 22.8066 36.6684C21.427 39.0587 20.6659 41.6255 20.6659 43.897V63.5134C20.6659 65.7849 21.427 68.3516 22.8066 70.742C24.1861 73.1324 26.0294 75.0748 27.9956 76.2105L60.3984 94.9172C61.5935 95.607 62.757 95.9558 63.8154 95.9558V95.9499Z" fill="#414E5F"/>
<path d="M63.8133 95.4029C64.5308 95.4029 65.1968 95.2344 65.7835 94.8955C67.2026 94.0769 67.9836 92.3723 67.9836 90.0949V70.4785C67.9836 68.3418 68.707 65.9098 70.0211 63.6344C71.3352 61.359 73.0775 59.5177 74.9287 58.4493L91.8734 48.6659C93.681 47.6233 95.3658 47.4469 96.6184 48.1703C97.8711 48.8938 98.5628 50.4418 98.5628 52.5269V53.1077L99.0762 53.1255V52.5249C99.0762 50.2475 98.2952 48.543 96.8761 47.7244C95.4569 46.9058 93.5898 47.0822 91.6177 48.2199L74.673 58.0034C72.7445 59.1173 70.9349 61.024 69.5771 63.3767C68.2194 65.7294 67.4702 68.2506 67.4702 70.4765V90.0929C67.4702 92.1801 66.7804 93.7261 65.5258 94.4495C64.2731 95.173 62.5864 94.9966 60.7807 93.954L28.378 75.2473C26.5267 74.179 24.7845 72.3376 23.4704 70.0622C22.1563 67.7868 21.4328 65.3568 21.4328 63.2182V43.6017C21.4328 41.465 22.1563 39.033 23.4704 36.7576C24.7845 34.4822 26.5267 32.6409 28.378 31.5726L28.1223 31.1286C26.1938 32.2425 24.3841 34.1492 23.0264 36.5019C21.6687 38.8547 20.9195 41.3758 20.9195 43.6017V63.2182C20.9195 65.444 21.6667 67.9652 23.0264 70.3179C24.3841 72.6706 26.1938 74.5793 28.1223 75.6913L60.5251 94.398C61.6806 95.064 62.7985 95.4009 63.8133 95.4009V95.4029Z" fill="#5B6879"/>
<path d="M25.4189 65.4499L33.7832 70.2802V65.7076L25.4189 60.8773V65.4499Z" fill="#889AA5"/>
<path d="M40.8731 62.4332L41.3369 62.1656L41.7254 62.3876V61.8604L42.1872 61.5928L43.6737 62.451V63.5134L44.524 64.0049V67.751L44.0602 68.0186L40.8731 66.1793V62.4332Z" fill="#2A71C9"/>
<path d="M44.524 67.751L44.0602 68.0186V64.2725L44.524 64.0049V67.751Z" fill="#044BA3"/>
<path d="M43.6738 62.4508L43.21 62.7184V63.7808L43.6738 63.5132V62.4508Z" fill="#044BA3"/>
<path d="M43.6737 63.5137L43.2099 63.7813L44.0602 64.2728L44.524 64.0052L43.6737 63.5137Z" fill="#5198F0"/>
<path d="M42.1873 61.5928L41.7255 61.8604L43.21 62.7186L43.6738 62.451L42.1873 61.5928Z" fill="#5198F0"/>
<path d="M41.7256 62.9228L40.8733 62.4333L41.3371 62.1657L41.7256 62.3877V62.9228Z" fill="#5198F0"/>
<g style="mix-blend-mode:multiply" opacity="0.2">
<path d="M40.9424 64.5876C40.9424 64.0842 41.1188 63.7294 41.4062 63.5649C41.5429 63.4856 41.7035 63.4499 41.8838 63.4618V62.1973L43.077 62.7879L43.1643 62.9366V64.2011C43.3426 64.3954 43.5052 64.6174 43.6419 64.8532C43.8461 65.208 43.9928 65.5945 44.0621 65.9691V66.8075C43.9928 67.1029 43.8461 67.315 43.6419 67.4339C43.523 67.5032 43.3863 67.5369 43.2336 67.5389L41.8204 66.7223C41.6678 66.5459 41.5271 66.3517 41.4082 66.1436C41.1227 65.648 40.9443 65.0891 40.9443 64.5857L40.9424 64.5876Z" fill="black"/>
</g>
<path d="M39.9969 64.9167C39.9969 64.437 40.1654 64.1001 40.4369 63.9435C40.5658 63.8681 40.7204 63.8345 40.8908 63.8463V63.0614L41.2258 62.451L41.8581 62.0863L43.077 62.7899V63.7869L42.5676 64.0802V64.2844C42.7381 64.4687 42.8907 64.6808 43.0215 64.9048C43.2931 65.3765 43.4615 65.9077 43.4615 66.3854C43.4615 66.865 43.2931 67.202 43.0215 67.3586L42.5676 67.6202V67.9116L42.1078 68.1772L40.8888 67.4735V67.0176C40.7184 66.8333 40.5658 66.6212 40.4349 66.3973C40.1634 65.9255 39.9949 65.3943 39.9949 64.9167H39.9969Z" fill="#2A71C9"/>
<path opacity="0.5" d="M43.0215 64.9069C43.2931 65.3786 43.4615 65.9098 43.4615 66.3875L43.0017 66.6531C43.0017 66.1734 42.8332 65.6422 42.5617 65.1725L43.0215 64.9069Z" fill="#044BA3"/>
<path d="M43.0017 66.6513L43.4615 66.3857C43.4615 66.8654 43.2931 67.2024 43.0215 67.3589L42.5617 67.6245C42.8332 67.4679 43.0017 67.131 43.0017 66.6513Z" fill="#044BA3"/>
<path opacity="0.5" d="M42.1081 64.5501L42.568 64.2845C42.7384 64.4688 42.891 64.6809 43.0219 64.9049L42.562 65.1705C42.4332 64.9465 42.2786 64.7364 42.1081 64.5501Z" fill="#5198F0"/>
<path d="M42.1079 64.5501V63.7652L42.4449 63.1547L43.0771 62.79V63.787L42.5678 64.0804V64.2865L42.1079 64.5501Z" fill="#044BA3"/>
<path d="M42.4449 63.1546L41.2259 62.451L41.8582 62.0863L43.0771 62.7899L42.4449 63.1546Z" fill="#5198F0"/>
<path opacity="0.5" d="M41.226 62.4508L40.891 63.0613L42.108 63.7649L42.4449 63.1545L41.226 62.4508Z" fill="#5198F0"/>
<path d="M42.5618 67.6241C42.5618 67.6241 42.5658 67.6221 42.5677 67.6201V67.9115L42.1079 68.1771V67.7232C42.2784 67.7351 42.431 67.7014 42.5618 67.6261V67.6241Z" fill="#044BA3"/>
<path d="M45.0692 65.0871L45.533 64.8195L45.9195 65.0435V64.5163L46.3833 64.2487L47.8678 65.1069V66.1693L48.7181 66.6589V70.407L48.2563 70.6745L45.0692 68.8332V65.0871Z" fill="#2A71C9"/>
<path d="M48.7181 70.4069L48.2563 70.6745V66.9264L48.7181 66.6588V70.4069Z" fill="#044BA3"/>
<path d="M47.8678 65.1071L47.406 65.3747V66.437L47.8678 66.1695V65.1071Z" fill="#044BA3"/>
<path d="M47.8678 66.1693L47.406 66.4369L48.2563 66.9264L48.7181 66.6589L47.8678 66.1693Z" fill="#5198F0"/>
<path d="M46.3832 64.2487L45.9194 64.5163L47.406 65.3745L47.8678 65.1069L46.3832 64.2487Z" fill="#5198F0"/>
<path d="M45.9196 65.5788L45.0692 65.0872L45.5331 64.8197L45.9196 65.0436V65.5788Z" fill="#5198F0"/>
<g style="mix-blend-mode:multiply" opacity="0.2">
<path d="M45.1367 67.2439C45.1367 66.7404 45.3131 66.3856 45.6005 66.2211C45.7373 66.1419 45.8978 66.1062 46.0782 66.1181V64.8535L47.2714 65.4442L47.3586 65.5928V66.8574C47.537 67.0516 47.6995 67.2736 47.8363 67.5095C48.0404 67.8643 48.1871 68.2508 48.2565 68.6254V69.4638C48.1871 69.7591 48.0404 69.9712 47.8363 70.0901C47.7173 70.1595 47.5806 70.1932 47.428 70.1952L46.0148 69.3786C45.8621 69.2022 45.7214 69.0079 45.6025 68.7998C45.3171 68.3043 45.1387 67.7453 45.1387 67.2419L45.1367 67.2439Z" fill="black"/>
</g>
<path d="M44.191 67.5726C44.191 67.0929 44.3595 66.756 44.631 66.5994C44.7598 66.5241 44.9144 66.4904 45.0849 66.5023V65.7174L45.4199 65.1069L46.0522 64.7422L47.2711 65.4458V66.4428L46.7617 66.7361V66.9403C46.9322 67.1246 47.0848 67.3367 47.2156 67.5607C47.4872 68.0324 47.6556 68.5636 47.6556 69.0413C47.6556 69.5209 47.4872 69.8579 47.2156 70.0145L46.7617 70.2761V70.5675L46.3019 70.8331L45.0829 70.1294V69.6736C44.9125 69.4892 44.7598 69.2771 44.629 69.0532C44.3575 68.5814 44.189 68.0502 44.189 67.5726H44.191Z" fill="#2A71C9"/>
<path opacity="0.5" d="M47.2156 67.5609C47.4872 68.0326 47.6556 68.5638 47.6556 69.0415L47.1958 69.3071C47.1958 68.8274 47.0273 68.2962 46.7558 67.8265L47.2156 67.5609Z" fill="#044BA3"/>
<path d="M47.1978 69.3069L47.6576 69.0414C47.6576 69.521 47.4891 69.858 47.2176 70.0145L46.7577 70.2801C47.0293 70.1236 47.1978 69.7866 47.1978 69.3069Z" fill="#044BA3"/>
<path opacity="0.5" d="M46.304 67.206L46.7639 66.9404C46.9343 67.1248 47.087 67.3368 47.2178 67.5608L46.7579 67.8264C46.6291 67.6024 46.4745 67.3923 46.304 67.206Z" fill="#5198F0"/>
<path d="M46.3039 67.2064V66.4215L46.6388 65.811L47.2711 65.4443V66.4433L46.7617 66.7366V66.9408L46.3039 67.2064Z" fill="#044BA3"/>
<path d="M46.6388 65.8109L45.4199 65.1073L46.0522 64.7406L47.2711 65.4442L46.6388 65.8109Z" fill="#5198F0"/>
<path opacity="0.5" d="M45.4201 65.1071L45.0851 65.7176L46.3041 66.4212L46.639 65.8107L45.4201 65.1071Z" fill="#5198F0"/>
<path d="M46.7558 70.2803C46.7558 70.2803 46.7597 70.2783 46.7617 70.2764V70.5677L46.3019 70.8333V70.3794C46.4723 70.3913 46.625 70.3576 46.7558 70.2823V70.2803Z" fill="#044BA3"/>
<path d="M49.2631 67.7434L49.7269 67.4758L50.1134 67.6997V67.1725L50.5772 66.9049L52.0638 67.7612V68.8236L52.9141 69.3151V73.0612L52.4503 73.3288L49.2631 71.4894V67.7434Z" fill="#2A71C9"/>
<path d="M52.9141 73.0612L52.4503 73.3288V69.5827L52.9141 69.3151V73.0612Z" fill="#044BA3"/>
<path d="M52.0638 67.7611L51.6 68.0287V69.091L52.0638 68.8235V67.7611Z" fill="#044BA3"/>
<path d="M52.0638 68.8232L51.6 69.0908L52.4503 69.5824L52.9141 69.3148L52.0638 68.8232Z" fill="#5198F0"/>
<path d="M50.5773 66.9049L50.1135 67.1725L51.6 68.0288L52.0638 67.7612L50.5773 66.9049Z" fill="#5198F0"/>
<path d="M50.1133 68.2351L49.263 67.7435L49.7268 67.4759L50.1133 67.6999V68.2351Z" fill="#5198F0"/>
<g style="mix-blend-mode:multiply" opacity="0.2">
<path d="M49.3327 69.8975C49.3327 69.3941 49.5092 69.0393 49.7966 68.8748C49.9333 68.7955 50.0939 68.7598 50.2742 68.7717V67.5072L51.4674 68.0978L51.5546 68.2465V69.511C51.733 69.7053 51.8956 69.9273 52.0323 70.1631C52.2365 70.5179 52.3831 70.9044 52.4525 71.279V72.1175C52.3831 72.4128 52.2365 72.6249 52.0323 72.7438C51.9134 72.8131 51.7766 72.8468 51.624 72.8488L50.2108 72.0322C50.0582 71.8558 49.9175 71.6616 49.7985 71.4535C49.5131 70.9579 49.3347 70.399 49.3347 69.8956L49.3327 69.8975Z" fill="black"/>
</g>
<path d="M48.3853 70.2269C48.3853 69.7472 48.5538 69.4103 48.8253 69.2537C48.9542 69.1784 49.1088 69.1447 49.2792 69.1566V68.3717L49.6142 67.7612L50.2465 67.3965L51.4655 68.1001V69.0971L50.9561 69.3904V69.5946C51.1265 69.7789 51.2791 69.991 51.41 70.215C51.6815 70.6867 51.85 71.2179 51.85 71.6956C51.85 72.1733 51.6815 72.5122 51.41 72.6688L50.9561 72.9304V73.2218L50.4962 73.4874L49.2773 72.7837V72.3279C49.1068 72.1435 48.9542 71.9314 48.8234 71.7075C48.5518 71.2357 48.3833 70.7045 48.3833 70.2269H48.3853Z" fill="#2A71C9"/>
<path opacity="0.5" d="M51.41 70.2171C51.6815 70.6889 51.85 71.2201 51.85 71.6977L51.3901 71.9633C51.3901 71.4837 51.2217 70.9525 50.9501 70.4827L51.41 70.2171Z" fill="#044BA3"/>
<path d="M51.3921 71.9629L51.8519 71.6973C51.8519 72.1769 51.6835 72.5139 51.4119 72.6705L50.9521 72.9361C51.2236 72.7795 51.3921 72.4425 51.3921 71.9629Z" fill="#044BA3"/>
<path opacity="0.5" d="M50.498 69.8619L50.9579 69.5963C51.1283 69.7807 51.2809 69.9928 51.4117 70.2167L50.9519 70.4823C50.8231 70.2584 50.6685 70.0483 50.498 69.8619Z" fill="#5198F0"/>
<path d="M50.498 69.862V69.0771L50.8329 68.4646L51.4652 68.0999V69.0969L50.9578 69.3923V69.5964L50.498 69.862Z" fill="#044BA3"/>
<path d="M50.8329 68.4648L49.6159 67.7612L50.2482 67.3965L51.4652 68.1001L50.8329 68.4648Z" fill="#5198F0"/>
<path opacity="0.5" d="M49.616 67.7611L49.2791 68.3735L50.498 69.0772L50.833 68.4647L49.616 67.7611Z" fill="#5198F0"/>
<path d="M50.9521 72.9362C50.9521 72.9362 50.956 72.9343 50.958 72.9323V73.2236L50.4982 73.4892V73.0353C50.6686 73.0472 50.8212 73.0135 50.9521 72.9382V72.9362Z" fill="#044BA3"/>
<path d="M24.8025 58.1522L29.3691 60.7884V54.8858L24.8025 52.2497V58.1522Z" fill="#C1060B"/>
<g style="mix-blend-mode:multiply" opacity="0.2">
<path d="M26.4358 59.0242C26.2555 58.8141 26.089 58.5802 25.9482 58.3344C25.6034 57.7378 25.3893 57.0639 25.3893 56.4554C25.3893 55.8469 25.6034 55.4208 25.9482 55.2226C26.091 55.1413 26.2555 55.0977 26.4358 55.0957V53.4883L27.9462 54.0631L28.1543 54.4813V56.0887C28.3346 56.2988 28.5011 56.5327 28.6419 56.7785C28.9867 57.3751 29.2008 58.049 29.2008 58.6575C29.2008 59.266 28.9867 59.6921 28.6419 59.8903C28.4992 59.9716 28.3346 60.0152 28.1543 60.0172V60.0866L26.4358 59.0936V59.0242Z" fill="black"/>
</g>
<path d="M29.3692 60.788L29.833 60.5224V54.6198L29.3692 54.8854V60.788Z" fill="#8E0000"/>
<path d="M24.8025 52.2496L29.3692 54.8858L29.833 54.6202L25.2663 51.984L24.8025 52.2496Z" fill="#E82C31"/>
<path d="M24.2119 56.5984C24.2119 55.9899 24.4259 55.5637 24.7708 55.3655L25.2584 55.0841V54.8244L25.964 53.2229L26.2256 53.0723L27.9441 54.0653V55.6727C28.1244 55.8828 28.2909 56.1167 28.4317 56.3625C28.7765 56.9591 28.9906 57.633 28.9906 58.2415C28.9906 58.85 28.7765 59.2761 28.4317 59.4743L27.9441 59.7558V59.9659L26.9768 60.5248L25.2584 59.5318V59.1651C25.078 58.955 24.9115 58.7211 24.7708 58.4754C24.4259 57.8788 24.2119 57.2049 24.2119 56.5964V56.5984Z" fill="#C1060B"/>
<path opacity="0.5" d="M28.4336 56.3623C28.7785 56.9589 28.9926 57.6328 28.9926 58.2413L28.0253 58.8002C28.0253 58.1917 27.8112 57.5198 27.4664 56.9212L28.4336 56.3623Z" fill="#8E0000"/>
<path d="M28.0234 58.7979L28.9906 58.2389C28.9906 58.8474 28.7765 59.2736 28.4317 59.4718L27.4644 60.0307C27.8093 59.8325 28.0234 59.4044 28.0234 58.7979Z" fill="#8E0000"/>
<path opacity="0.5" d="M26.9768 56.2315L27.944 55.6725C28.1244 55.8826 28.2909 56.1165 28.4316 56.3623L27.4644 56.9212C27.3217 56.6754 27.1572 56.4416 26.9768 56.2315Z" fill="#E82C31"/>
<path d="M27.944 54.0631V55.6726L26.9767 56.2315V55.8153L27.6823 54.2158L27.944 54.0631Z" fill="#8E0000"/>
<path d="M25.9639 53.2229L26.2275 53.0723L27.944 54.0633L27.6823 54.2159L25.9639 53.2229Z" fill="#E82C31"/>
<path opacity="0.5" d="M25.9638 53.2227L25.2582 54.8242L26.9766 55.8152L27.6823 54.2157L25.9638 53.2227Z" fill="#E82C31"/>
<path d="M25.2584 55.2382C25.0781 55.2382 24.9116 55.2819 24.7708 55.3651L25.2584 55.0836V55.2402V55.2382Z" fill="#E82C31"/>
<path d="M27.4643 60.033L27.944 59.7555V59.9656L26.9767 60.5246V60.1579C27.1571 60.1579 27.3236 60.1143 27.4643 60.031V60.033Z" fill="#8E0000"/>
<path d="M56.5632 76.0974V71.1205L59.7246 72.9479V77.9229L56.5632 76.0974Z" fill="#414E5F"/>
<path d="M59.7243 72.9482L56.5629 71.1208L57.0267 70.8532L60.1881 72.6806L59.7243 72.9482Z" fill="#5B6879"/>
<g style="mix-blend-mode:multiply" opacity="0.2">
<path d="M59.0111 76.4206V73.9827L58.8763 73.5764L57.5464 73.1383V75.5763L59.0111 76.4206Z" fill="black"/>
</g>
<path d="M59.7243 77.9232V72.9482L60.1881 72.6807V77.6556L59.7243 77.9232Z" fill="#29333F"/>
<path d="M58.6127 76.0481V73.7291L57.1459 72.8848V75.2018L58.6127 76.0481Z" fill="#414E5F"/>
<path d="M58.876 75.8935V73.5765L58.6124 73.7291V76.0481L58.876 75.8935Z" fill="#29333F"/>
<path d="M57.4112 72.7321L58.876 73.5764L58.6124 73.7291L57.1456 72.8847L57.4112 72.7321Z" fill="#5B6879"/>
<path d="M57.3381 73.2158L58.4203 73.8422V75.7172L58.2201 75.8321L57.1379 75.2058V74.3595L56.9754 73.5627L57.3381 73.2158Z" fill="#C1060B"/>
<path d="M58.2201 75.8321L58.4203 75.7172V73.8421L58.0576 74.187L58.2201 74.9838V75.8321Z" fill="#8E0000"/>
<path d="M58.2201 75.832L57.1379 75.2057V74.3594L58.2201 74.9837V75.832Z" fill="#C1060B"/>
<path opacity="0.5" d="M58.0576 74.1869L56.9754 73.5625L57.1379 74.3593L58.2201 74.9836L58.0576 74.1869Z" fill="#8E0000"/>
<path d="M58.4203 73.8422L58.0576 74.187L56.9754 73.5627L57.3381 73.2158L58.4203 73.8422Z" fill="#E82C31"/>
<path d="M36.9346 60.8398L37.3984 60.5723V63.7436L36.9346 64.0111V60.8398Z" fill="#BBC2C6"/>
<path d="M33.8089 58.5006L37.3984 60.5719L36.9346 60.8395L33.3451 58.7682L33.8089 58.5006Z" fill="#EEF5F9"/>
<path d="M33.3454 58.7682L36.9349 60.8395V64.0108L33.3454 61.9375V58.7682Z" fill="#D4DBDF"/>
<path d="M34.7028 60.0745L34.0606 59.7217V61.7355L34.7028 62.1081V60.0745Z" fill="#414E5F"/>
<path d="M33.835 59.597V61.8665L34.0609 61.7357V59.7219L33.835 59.597Z" fill="#29333F"/>
<path d="M34.7028 60.8457V61.2956L34.0606 61.6663V61.2163L34.7028 60.8457Z" fill="#29333F"/>
<path d="M34.0609 61.6662L33.1928 61.1628V60.7148L34.0609 61.2163V61.6662Z" fill="#414E5F"/>
<path d="M34.7028 60.5842V60.8458L34.0606 61.2165L33.1924 60.715L34.0606 60.2135L34.7028 60.5842Z" fill="#5B6879"/>
<path d="M34.0606 61.7357L33.8346 61.8665L34.7028 62.3699V62.1083L34.0606 61.7357Z" fill="#5B6879"/>
<path d="M36.3145 60.9586L35.6723 60.6058V62.6196L36.3145 62.9902V60.9586Z" fill="#414E5F"/>
<path d="M35.4463 60.4808V62.7503L35.6722 62.6194V60.6057L35.4463 60.4808Z" fill="#29333F"/>
<path d="M36.3145 61.7298V62.1798L35.6723 62.5504V62.1005L36.3145 61.7298Z" fill="#29333F"/>
<path d="M35.6722 62.5504L34.8041 62.0469V61.599L35.6722 62.1004V62.5504Z" fill="#414E5F"/>
<path d="M36.3145 61.468V61.7296L35.6723 62.1002L34.8041 61.5988L35.6723 61.0973L36.3145 61.468Z" fill="#5B6879"/>
<path d="M35.6723 62.6198L35.4463 62.7506L36.3145 63.254V62.9904L35.6723 62.6198Z" fill="#5B6879"/>
<path d="M58.545 85.0663L63.7043 88.0453C63.7657 88.081 63.8232 88.075 63.8549 88.0314C63.8846 87.9858 63.8846 87.9085 63.8529 87.8292L61.2743 81.3796C61.2425 81.3023 61.187 81.2329 61.1256 81.1973C61.0642 81.1616 61.0087 81.1656 60.9769 81.2092L58.3983 84.6797C58.3666 84.7234 58.3646 84.7987 58.3963 84.8799C58.426 84.9592 58.4835 85.0326 58.5469 85.0682L58.545 85.0663ZM63.399 87.4705L58.8502 84.8443L61.1236 81.784L63.397 87.4705H63.399Z" fill="#414E5F"/>
<path d="M64.1325 87.9069L61.4706 81.2531C61.314 80.8606 60.9354 80.6426 60.7788 80.8527L58.1169 84.4343C57.9544 84.6523 58.1486 85.1597 58.4638 85.3401L63.7856 88.4123C64.0988 88.5927 64.293 88.3092 64.1325 87.9049V87.9069Z" fill="#FFB710"/>
<path d="M58.545 85.0663L63.7043 88.0453C63.7657 88.081 63.8232 88.075 63.8549 88.0314C63.8846 87.9858 63.8846 87.9085 63.8529 87.8292L61.2743 81.3796C61.2425 81.3023 61.187 81.2329 61.1256 81.1973C61.0642 81.1616 61.0087 81.1656 60.9769 81.2092L58.3983 84.6797C58.3666 84.7234 58.3646 84.7987 58.3963 84.8799C58.426 84.9592 58.4835 85.0326 58.5469 85.0682L58.545 85.0663ZM63.399 87.4705L58.8502 84.8443L61.1236 81.784L63.397 87.4705H63.399Z" fill="#414E5F"/>
<path d="M60.307 84.006L61.2088 84.5273L60.6578 82.8584L61.3357 83.2508L61.7975 85.0466L61.0562 84.6185L61.4685 86.2041L60.307 84.006Z" fill="#414E5F"/>
</svg>
