<svg width="120" height="120" viewBox="0 0 120 120" fill="none" xmlns="http://www.w3.org/2000/svg">
<path d="M48.8413 30.0419L92.5293 55.3616L91.7186 98.8843L48.3899 73.3563L48.8413 30.0419Z" fill="#D4DBDF"/>
<path d="M48.8413 73.3822L92.5293 98.7006L71.2132 111.055L27.8858 85.5271L48.8413 73.3822Z" fill="#EEF5F9"/>
<path d="M48.8418 11.5366V73.3822L27.8863 85.5271V23.6815L48.8418 11.5366Z" fill="#BBC2C6"/>
<path d="M29.8662 69.8426L31.3734 70.7163L34.5901 68.8518L33.0829 67.9782L29.8662 69.8426ZM31.6911 70.9012L33.1983 71.7748L36.4151 69.9103L34.9079 69.0367L31.6911 70.9012ZM33.5161 71.9584L35.0233 72.832L38.2401 70.9676L36.7329 70.0939L33.5161 71.9584ZM35.3411 73.0156L36.8483 73.8892L40.065 72.0248L38.5578 71.1511L35.3411 73.0156ZM37.1661 74.0741L38.6733 74.9477L41.89 73.0833L40.3828 72.2096L37.1661 74.0741ZM33.3994 67.7946L34.9066 68.6682L41.89 64.6204L40.3828 63.7467L33.3994 67.7946ZM29.5484 69.6591L32.7651 67.7946L33.0816 67.611L40.065 63.5632L40.3815 63.3796L48.8553 58.4685L49.1731 58.6534L40.6993 63.5645L42.2065 64.4381L50.6803 59.527L50.9981 59.7119L42.5243 64.623L44.0315 65.4966L52.5053 60.5855L52.8231 60.7704L44.3493 65.6815L45.8565 66.5551L54.3303 61.644L54.648 61.8289L46.1743 66.74L47.6815 67.6136L56.1552 62.7026L56.473 62.8874L47.9992 67.7985L49.5064 68.6722L57.9802 63.7611L58.298 63.946L49.8242 68.857L51.3314 69.7307L59.8052 64.8196L60.123 65.0045L51.6492 69.9156L53.1564 70.7892L61.6302 65.8781L61.948 66.063L53.4742 70.9741L54.9814 71.8477L63.4552 66.9366L63.773 67.1215L55.2992 72.0326L56.8064 72.9062L65.2801 67.9951L65.5979 68.18L57.1242 73.0911L58.6314 73.9647L67.1051 69.0536L67.4229 69.2385L58.9491 74.1496L60.4563 75.0232L68.9301 70.1122L69.2479 70.297L60.7741 75.2081L62.2813 76.0817L70.7551 71.1707L71.0729 71.3555L62.5991 76.2666L64.1063 77.1403L72.5801 72.2292L72.8979 72.4141L64.4241 77.3251L65.9313 78.1988L74.4051 73.2877L74.7228 73.4726L66.2491 78.3837L67.7563 79.2573L76.23 74.3462L76.5478 74.5311L68.074 79.4422L69.5812 80.3158L78.055 75.4047L78.3728 75.5896L69.899 80.5007L71.4062 81.3743L79.88 76.4632L80.1978 76.6481L71.724 81.5592L73.2312 82.4328L81.705 77.5217L82.0228 77.7066L73.549 82.6177L75.0562 83.4913L83.53 78.5803L83.8477 78.7651L75.374 83.6762L76.8812 84.5499L85.3549 79.6388L85.6727 79.8237L77.199 84.7347L78.7062 85.6084L87.1799 80.6973L87.4977 80.8822L79.0239 85.7933L80.5311 86.6669L89.0049 81.7558L89.3227 81.9407L80.8489 86.8518L82.3561 87.7254L90.8299 82.8143L91.1477 82.9992L82.6739 87.9103L84.1811 88.7839L92.6549 83.8728L92.9727 84.0577L72.9679 95.6506L49.2431 81.9003L48.9254 81.7154L28.8506 70.0809L29.5471 69.6773L29.5484 69.6591ZM71.842 94.1702L73.3492 95.0439L76.566 93.1794L75.0588 92.3058L71.842 94.1702ZM75.3753 92.1222L76.8825 92.9958L83.8659 88.948L82.3587 88.0743L75.3753 92.1222ZM70.0171 93.1117L71.5243 93.9853L74.741 92.1209L73.2338 91.2473L70.0171 93.1117ZM73.5503 91.065L75.0575 91.9386L82.0409 87.8907L80.5337 87.0171L73.5503 91.065ZM68.1921 92.0545L69.6993 92.9281L72.916 91.0637L71.4088 90.1901L68.1921 92.0545ZM71.7253 90.0065L73.2325 90.8801L80.2159 86.8322L78.7087 85.9586L71.7253 90.0065ZM66.3671 90.9973L67.8743 91.8709L71.091 90.0065L69.5838 89.1328L66.3671 90.9973ZM69.9003 88.9493L71.4075 89.8229L78.391 85.775L76.8838 84.9014L69.9003 88.9493ZM64.5421 89.9388L66.0493 90.8124L69.2661 88.948L67.7589 88.0743L64.5421 89.9388ZM68.0753 87.8907L69.5825 88.7644L76.566 84.7165L75.0588 83.8429L68.0753 87.8907ZM62.7171 88.8816L64.2243 89.7552L67.4411 87.8907L65.9339 87.0171L62.7171 88.8816ZM66.2504 86.8335L67.7576 87.7072L74.741 83.6593L73.2338 82.7857L66.2504 86.8335ZM60.8922 87.8243L62.3993 88.698L65.6161 86.8335L64.1089 85.9599L60.8922 87.8243ZM64.4254 85.7763L65.9326 86.65L72.916 82.6021L71.4088 81.7285L64.4254 85.7763ZM59.0672 86.7658L60.5744 87.6395L63.7911 85.775L62.2839 84.9014L59.0672 86.7658ZM62.6004 84.7178L64.1076 85.5914L71.091 81.5436L69.5838 80.6699L62.6004 84.7178ZM57.2422 85.7086L58.7494 86.5823L61.9661 84.7178L60.4589 83.8442L57.2422 85.7086ZM60.7754 83.6606L62.2826 84.5342L69.2661 80.4864L67.7589 79.6127L60.7754 83.6606ZM55.4172 84.6501L56.9244 85.5237L60.1411 83.6593L58.6339 82.7857L55.4172 84.6501ZM58.9504 82.6034L60.4576 83.477L67.4411 79.4292L65.9339 78.5555L58.9504 82.6034ZM53.5922 83.5929L55.0994 84.4665L58.3162 82.6021L56.809 81.7285L53.5922 83.5929ZM57.1255 81.5449L58.6327 82.4185L65.6161 78.3706L64.1089 77.497L57.1255 81.5449ZM51.7672 82.5357L53.2744 83.4093L56.4912 81.5449L54.984 80.6712L51.7672 82.5357ZM55.3005 80.4877L56.8077 81.3613L63.7911 77.3134L62.2839 76.4398L55.3005 80.4877ZM49.941 81.4772L51.4482 82.3508L54.6649 80.4864L53.1577 79.6127L49.941 81.4772ZM53.4755 79.4292L54.9827 80.3028L61.9661 76.2549L60.4589 75.3813L53.4755 79.4292ZM48.116 80.42L49.6232 81.2936L52.8399 79.4292L51.3327 78.5555L48.116 80.42ZM51.6505 78.3719L53.1577 79.2456L60.1411 75.1977L58.6339 74.3241L51.6505 78.3719ZM46.291 79.3628L47.7982 80.2364L51.0149 78.3719L49.5077 77.4983L46.291 79.3628ZM49.8255 77.3147L51.3327 78.1884L58.3162 74.1405L56.809 73.2669L49.8255 77.3147ZM44.466 78.3042L45.9732 79.1779L49.19 77.3134L47.6828 76.4398L44.466 78.3042ZM48.0005 76.2562L49.5077 77.1299L56.4912 73.082L54.984 72.2083L48.0005 76.2562ZM42.641 77.247L44.1482 78.1207L47.365 76.2562L45.8578 75.3826L42.641 77.247ZM46.1756 75.199L47.6828 76.0726L54.6662 72.0248L53.159 71.1511L46.1756 75.199ZM40.8161 76.1885L42.3233 77.0621L45.54 75.1977L44.0328 74.3241L40.8161 76.1885ZM44.3506 74.1418L45.8578 75.0154L52.8412 70.9676L51.334 70.0939L44.3506 74.1418ZM38.9911 75.1313L40.4983 76.0049L43.715 74.1405L42.2078 73.2669L38.9911 75.1313ZM42.5256 73.0833L44.0328 73.9569L51.0162 69.909L49.509 69.0354L42.5256 73.0833ZM40.6993 72.0261L42.2065 72.8997L49.19 68.8518L47.6828 67.9782L40.6993 72.0261ZM38.8743 70.9676L40.3815 71.8412L47.365 67.7933L45.8578 66.9197L38.8743 70.9676ZM37.0494 69.9103L38.5566 70.784L45.54 66.7361L44.0328 65.8625L37.0494 69.9103ZM35.2244 68.8531L36.7316 69.7268L43.715 65.6789L42.2078 64.8053L35.2244 68.8531Z" fill="#EEF5F9"/>
<path d="M29.8662 54.9387L31.3734 55.8123L34.5901 53.9479L33.0829 53.0743L29.8662 54.9387ZM31.6911 55.9972L33.1983 56.8709L36.4151 55.0064L34.9079 54.1328L31.6911 55.9972ZM33.5161 57.0544L35.0233 57.9281L38.2401 56.0636L36.7329 55.19L33.5161 57.0544ZM35.3411 58.1116L36.8483 58.9853L40.065 57.1208L38.5578 56.2472L35.3411 58.1116ZM37.1661 59.1702L38.6733 60.0438L41.89 58.1794L40.3828 57.3057L37.1661 59.1702ZM33.3994 52.8907L34.9066 53.7643L41.89 49.7165L40.3828 48.8428L33.3994 52.8907ZM29.5484 54.7551L32.7651 52.8907L33.0816 52.7071L40.065 48.6592L40.3815 48.4757L48.8553 43.5646L49.1731 43.7495L40.6993 48.6605L42.2065 49.5342L50.6803 44.6231L50.9981 44.808L42.5243 49.7191L44.0315 50.5927L52.5053 45.6816L52.8231 45.8665L44.3493 50.7776L45.8565 51.6512L54.3303 46.7401L54.648 46.925L46.1743 51.8361L47.6815 52.7097L56.1552 47.7986L56.473 47.9835L47.9992 52.8946L49.5064 53.7682L57.9802 48.8571L58.298 49.042L49.8242 53.9531L51.3314 54.8267L59.8052 49.9157L60.123 50.1005L51.6492 55.0116L53.1564 55.8853L61.6302 50.9742L61.948 51.159L53.4742 56.0701L54.9814 56.9438L63.4552 52.0327L63.773 52.2176L55.2992 57.1286L56.8064 58.0023L65.2801 53.0912L65.5979 53.2761L57.1242 58.1872L58.6314 59.0608L67.1051 54.1497L67.4229 54.3346L58.9491 59.2457L60.4563 60.1193L68.9301 55.2082L69.2479 55.3931L60.7741 60.3042L62.2813 61.1778L70.7551 56.2667L71.0729 56.4516L62.5991 61.3627L64.1063 62.2363L72.5801 57.3252L72.8979 57.5101L64.4241 62.4212L65.9313 63.2948L74.4051 58.3838L74.7228 58.5686L66.2491 63.4797L67.7563 64.3534L76.23 59.4423L76.5478 59.6272L68.074 64.5382L69.5812 65.4119L78.055 60.5008L78.3728 60.6857L69.899 65.5968L71.4062 66.4704L79.88 61.5593L80.1978 61.7442L71.724 66.6553L73.2312 67.5289L81.705 62.6178L82.0228 62.8027L73.549 67.7138L75.0562 68.5874L83.53 63.6763L83.8477 63.8612L75.374 68.7723L76.8812 69.6459L85.3549 64.7348L85.6727 64.9197L77.199 69.8308L78.7062 70.7044L87.1799 65.7934L87.4977 65.9782L79.0239 70.8893L80.5311 71.763L89.0049 66.8519L89.3227 67.0368L80.8489 71.9478L82.3561 72.8215L90.8299 67.9104L91.1477 68.0953L82.6739 73.0063L84.1811 73.88L92.6549 68.9689L92.9727 69.1538L72.9679 80.7466L49.2431 66.9964L48.9254 66.8115L28.8506 55.177L29.5471 54.7734L29.5484 54.7551ZM71.842 79.2663L73.3492 80.1399L76.566 78.2755L75.0588 77.4018L71.842 79.2663ZM75.3753 77.2183L76.8825 78.0919L83.8659 74.044L82.3587 73.1704L75.3753 77.2183ZM70.0171 78.2078L71.5243 79.0814L74.741 77.217L73.2338 76.3433L70.0171 78.2078ZM73.5503 76.1611L75.0575 77.0347L82.0409 72.9868L80.5337 72.1132L73.5503 76.1611ZM68.1921 77.1506L69.6993 78.0242L72.916 76.1598L71.4088 75.2861L68.1921 77.1506ZM71.7253 75.1025L73.2325 75.9762L80.2159 71.9283L78.7087 71.0547L71.7253 75.1025ZM66.3671 76.0934L67.8743 76.967L71.091 75.1025L69.5838 74.2289L66.3671 76.0934ZM69.9003 74.0453L71.4075 74.919L78.391 70.8711L76.8838 69.9975L69.9003 74.0453ZM64.5421 75.0348L66.0493 75.9085L69.2661 74.044L67.7589 73.1704L64.5421 75.0348ZM68.0753 72.9881L69.5825 73.8618L76.566 69.8139L75.0588 68.9403L68.0753 72.9881ZM62.7171 73.9776L64.2243 74.8513L67.4411 72.9868L65.9339 72.1132L62.7171 73.9776ZM66.2504 71.9296L67.7576 72.8032L74.741 68.7554L73.2338 67.8817L66.2504 71.9296ZM60.8922 72.9204L62.3993 73.7941L65.6161 71.9296L64.1089 71.056L60.8922 72.9204ZM64.4254 70.8724L65.9326 71.746L72.916 67.6982L71.4088 66.8245L64.4254 70.8724ZM59.0672 71.8619L60.5744 72.7355L63.7911 70.8711L62.2839 69.9975L59.0672 71.8619ZM62.6004 69.8139L64.1076 70.6875L71.091 66.6396L69.5838 65.766L62.6004 69.8139ZM57.2422 70.8047L58.7494 71.6783L61.9661 69.8139L60.4589 68.9403L57.2422 70.8047ZM60.7754 68.7567L62.2826 69.6303L69.2661 65.5824L67.7589 64.7088L60.7754 68.7567ZM55.4172 69.7475L56.9244 70.6211L60.1411 68.7567L58.6339 67.883L55.4172 69.7475ZM58.9504 67.6995L60.4576 68.5731L67.4411 64.5252L65.9339 63.6516L58.9504 67.6995ZM53.5922 68.689L55.0994 69.5626L58.3162 67.6982L56.809 66.8245L53.5922 68.689ZM57.1255 66.6409L58.6327 67.5146L65.6161 63.4667L64.1089 62.5931L57.1255 66.6409ZM51.7672 67.6318L53.2744 68.5054L56.4912 66.6409L54.984 65.7673L51.7672 67.6318ZM55.3005 65.5837L56.8077 66.4574L63.7911 62.4095L62.2839 61.5359L55.3005 65.5837ZM49.941 66.5732L51.4482 67.4469L54.6649 65.5824L53.1577 64.7088L49.941 66.5732ZM53.4755 64.5265L54.9827 65.4002L61.9661 61.3523L60.4589 60.4787L53.4755 64.5265ZM48.116 65.516L49.6232 66.3897L52.8399 64.5252L51.3327 63.6516L48.116 65.516ZM51.6505 63.468L53.1577 64.3416L60.1411 60.2938L58.6339 59.4201L51.6505 63.468ZM46.291 64.4588L47.7982 65.3325L51.0149 63.468L49.5077 62.5944L46.291 64.4588ZM49.8255 62.4108L51.3327 63.2844L58.3162 59.2366L56.809 58.3629L49.8255 62.4108ZM44.466 63.4003L45.9732 64.2739L49.19 62.4095L47.6828 61.5359L44.466 63.4003ZM48.0005 61.3523L49.5077 62.2259L56.4912 58.178L54.984 57.3044L48.0005 61.3523ZM42.641 62.3431L44.1482 63.2167L47.365 61.3523L45.8578 60.4787L42.641 62.3431ZM46.1756 60.2951L47.6828 61.1687L54.6662 57.1208L53.159 56.2472L46.1756 60.2951ZM40.8161 61.2859L42.3233 62.1595L45.54 60.2951L44.0328 59.4214L40.8161 61.2859ZM44.3506 59.2379L45.8578 60.1115L52.8412 56.0636L51.334 55.19L44.3506 59.2379ZM38.9911 60.2274L40.4983 61.101L43.715 59.2366L42.2078 58.3629L38.9911 60.2274ZM42.5256 58.1794L44.0328 59.053L51.0162 55.0051L49.509 54.1315L42.5256 58.1794ZM40.6993 57.1221L42.2065 57.9958L49.19 53.9479L47.6828 53.0743L40.6993 57.1221ZM38.8743 56.0649L40.3815 56.9386L47.365 52.8907L45.8578 52.0171L38.8743 56.0649ZM37.0494 55.0064L38.5566 55.88L45.54 51.8322L44.0328 50.9585L37.0494 55.0064ZM35.2244 53.9492L36.7316 54.8228L43.715 50.775L42.2078 49.9013L35.2244 53.9492Z" fill="#EEF5F9"/>
<path d="M29.8668 40.0349L31.374 40.9085L34.5908 39.0441L33.0836 38.1705L29.8668 40.0349ZM31.6918 41.0934L33.199 41.967L36.4157 40.1026L34.9085 39.229L31.6918 41.0934ZM33.5168 42.1506L35.024 43.0243L38.2407 41.1598L36.7335 40.2862L33.5168 42.1506ZM35.3418 43.2078L36.849 44.0815L40.0657 42.217L38.5585 41.3434L35.3418 43.2078ZM37.1668 44.2664L38.674 45.14L41.8907 43.2755L40.3835 42.4019L37.1668 44.2664ZM33.4001 37.9882L34.9072 38.8618L41.8907 34.8139L40.3835 33.9403L33.4001 37.9882ZM29.549 39.8513L32.7658 37.9869L33.0823 37.8033L40.0657 33.7554L40.3822 33.5719L48.856 28.6608L49.1738 28.8456L40.7 33.7567L42.2072 34.6304L50.681 29.7193L50.9987 29.9042L42.525 34.8152L44.0322 35.6889L52.5059 30.7778L52.8237 30.9627L44.3499 35.8738L45.8571 36.7474L54.3309 31.8363L54.6487 32.0212L46.1749 36.9323L47.6821 37.8059L56.1559 32.8948L56.4737 33.0797L47.9999 37.9908L49.5071 38.8644L57.9809 33.9533L58.2987 34.1382L49.8249 39.0493L51.3321 39.9229L59.8059 35.0118L60.1236 35.1967L51.6499 40.1078L53.1571 40.9814L61.6308 36.0704L61.9486 36.2552L53.4748 41.1663L54.982 42.04L63.4558 37.1289L63.7736 37.3138L55.2998 42.2248L56.807 43.0985L65.2808 38.1874L65.5986 38.3723L57.1248 43.2834L58.632 44.157L67.1058 39.2459L67.4236 39.4308L58.9498 44.3419L60.457 45.2155L68.9308 40.3044L69.2486 40.4893L60.7748 45.4004L62.282 46.274L70.7558 41.3629L71.0735 41.5478L62.5998 46.4589L64.107 47.3325L72.5807 42.4214L72.8985 42.6063L64.4247 47.5174L65.9319 48.391L74.4057 43.48L74.7235 43.6648L66.2497 48.5759L67.7569 49.4496L76.2307 44.5385L76.5485 44.7233L68.0747 49.6344L69.5819 50.5081L78.0557 45.597L78.3735 45.7819L69.8997 50.6929L71.4069 51.5666L79.8807 46.6555L80.1984 46.8404L71.7247 51.7515L73.2319 52.6251L81.7056 47.714L82.0234 47.8989L73.5496 52.81L75.0568 53.6836L83.5306 48.7725L83.8484 48.9574L75.3746 53.8685L76.8818 54.7421L85.3556 49.831L85.6734 50.0159L77.1996 54.927L78.7068 55.8006L87.1806 50.8895L87.4984 51.0744L79.0246 55.9855L80.5318 56.8591L89.0056 51.9481L89.3233 52.1329L80.8496 57.044L82.3568 57.9177L90.8305 53.0066L91.1483 53.1915L82.6746 58.1025L84.1818 58.9762L92.6568 54.0456L92.9746 54.2304L72.9699 65.8233L49.2451 52.0731L48.9273 51.8882L28.8525 40.2536L29.549 39.85V39.8513ZM71.8427 64.3625L73.3499 65.2361L76.5666 63.3717L75.0594 62.498L71.8427 64.3625ZM75.3759 62.3145L76.8831 63.1881L83.8666 59.1402L82.3594 58.2666L75.3759 62.3145ZM70.0177 63.3053L71.5249 64.1789L74.7417 62.3145L73.2345 61.4408L70.0177 63.3053ZM73.5509 61.2572L75.0581 62.1309L82.0416 58.083L80.5344 57.2094L73.5509 61.2572ZM68.1927 62.2468L69.6999 63.1204L72.9167 61.256L71.4095 60.3823L68.1927 62.2468ZM71.726 60.1987L73.2332 61.0724L80.2166 57.0245L78.7094 56.1509L71.726 60.1987ZM66.3678 61.1895L67.875 62.0632L71.0917 60.1987L69.5845 59.3251L66.3678 61.1895ZM69.901 59.1415L71.4082 60.0152L78.3916 55.9673L76.8844 55.0937L69.901 59.1415ZM64.5428 60.131L66.05 61.0047L69.2667 59.1402L67.7595 58.2666L64.5428 60.131ZM68.076 58.0843L69.5832 58.9579L76.5666 54.9101L75.0594 54.0364L68.076 58.0843ZM62.7178 59.0738L64.225 59.9475L67.4417 58.083L65.9345 57.2094L62.7178 59.0738ZM66.251 57.0258L67.7582 57.8994L74.7417 53.8516L73.2345 52.9779L66.251 57.0258ZM60.8928 58.0166L62.4 58.8902L65.6167 57.0258L64.1096 56.1522L60.8928 58.0166ZM64.426 55.9686L65.9332 56.8422L72.9167 52.7943L71.4095 51.9207L64.426 55.9686ZM59.0678 56.9581L60.575 57.8317L63.7918 55.9673L62.2846 55.0937L59.0678 56.9581ZM62.6011 54.9101L64.1083 55.7837L71.0917 51.7358L69.5845 50.8622L62.6011 54.9101ZM57.2428 55.9009L58.75 56.7745L61.9668 54.9101L60.4596 54.0364L57.2428 55.9009ZM60.7761 53.8529L62.2833 54.7265L69.2667 50.6786L67.7595 49.805L60.7761 53.8529ZM55.4179 54.8437L56.9251 55.7173L60.1418 53.8529L58.6346 52.9792L55.4179 54.8437ZM58.9511 52.7957L60.4583 53.6693L67.4417 49.6214L65.9345 48.7478L58.9511 52.7957ZM53.5929 53.7852L55.1001 54.6588L58.3168 52.7943L56.8096 51.9207L53.5929 53.7852ZM57.1261 51.7371L58.6333 52.6108L65.6167 48.5629L64.1096 47.6893L57.1261 51.7371ZM51.7679 52.728L53.2751 53.6016L56.4918 51.7371L54.9846 50.8635L51.7679 52.728ZM55.3011 50.6799L56.8083 51.5536L63.7918 47.5057L62.2846 46.6321L55.3011 50.6799ZM49.9416 51.6694L51.4488 52.5431L54.6656 50.6786L53.1584 49.805L49.9416 51.6694ZM53.4761 49.6227L54.9833 50.4963L61.9668 46.4485L60.4596 45.5748L53.4761 49.6227ZM48.1166 50.6122L49.6238 51.4859L52.8406 49.6214L51.3334 48.7478L48.1166 50.6122ZM51.6512 48.5642L53.1584 49.4378L60.1418 45.39L58.6346 44.5163L51.6512 48.5642ZM46.2917 49.555L47.7989 50.4286L51.0156 48.5642L49.5084 47.6906L46.2917 49.555ZM49.8262 47.507L51.3334 48.3806L58.3168 44.3328L56.8096 43.4591L49.8262 47.507ZM44.4667 48.4965L45.9739 49.3701L49.1906 47.5057L47.6834 46.6321L44.4667 48.4965ZM48.0012 46.4485L49.5084 47.3221L56.4918 43.2742L54.9846 42.4006L48.0012 46.4485ZM42.6417 47.4393L44.1489 48.3129L47.3656 46.4485L45.8584 45.5748L42.6417 47.4393ZM46.1762 45.3913L47.6834 46.2649L54.6669 42.217L53.1597 41.3434L46.1762 45.3913ZM40.8167 46.3821L42.3239 47.2557L45.5407 45.3913L44.0335 44.5176L40.8167 46.3821ZM44.3512 44.3341L45.8584 45.2077L52.8419 41.1598L51.3347 40.2862L44.3512 44.3341ZM38.9917 45.3236L40.4989 46.1972L43.7157 44.3328L42.2085 43.4591L38.9917 45.3236ZM42.5263 43.2755L44.0335 44.1492L51.0169 40.1013L49.5097 39.2277L42.5263 43.2755ZM40.7 42.2183L42.2072 43.092L49.1906 39.0441L47.6834 38.1705L40.7 42.2183ZM38.875 41.1611L40.3822 42.0348L47.3656 37.9869L45.8584 37.1132L38.875 41.1611ZM37.05 40.1026L38.5572 40.9762L45.5407 36.9284L44.0335 36.0547L37.05 40.1026ZM35.225 39.0454L36.7322 39.919L43.7157 35.8712L42.2085 34.9975L35.225 39.0454Z" fill="#EEF5F9"/>
<path d="M71.9795 38.153V116.676L27.4782 90.8846V12.3619L71.9795 38.153ZM28.582 85.9163L69.8951 109.86L70.1415 106.209V49.0232L28.582 24.9378V85.9163Z" fill="#D4DBDF"/>
<path d="M71.2129 120V116.648L27.5249 91.3287V94.6813L71.2129 120Z" fill="#414E5F"/>
<path d="M92.5293 104.296V107.647L71.2132 120V116.649L92.5293 104.296Z" fill="#29333F"/>
<g style="mix-blend-mode:multiply" opacity="0.2">
<path d="M71.2129 118.002V116.648L27.5249 91.3287V92.6828L71.2129 118.002Z" fill="black"/>
</g>
<g style="mix-blend-mode:multiply" opacity="0.2">
<path d="M92.5293 104.296V105.65L71.2132 118.003V116.649L92.5293 104.296Z" fill="black"/>
</g>
<path d="M93.3115 25.7905V104.313L71.9799 116.676V38.1529L93.3115 25.7905Z" fill="#BBC2C6"/>
<path d="M26.7429 86.1089V91.3103L71.2441 117.101V111.9L26.7429 86.1089Z" fill="#D4DBDF"/>
<path d="M27.4782 85.3619L71.9795 111.153L71.2441 111.9L26.7428 86.1093L27.4782 85.3619Z" fill="#EEF5F9"/>
<path d="M71.9795 116.676L71.2441 117.101V111.9L71.9795 111.474V116.676Z" fill="#BBC2C6"/>
<path d="M48.8102 -0.00012207L93.3115 25.7909L71.9799 38.1532L27.4786 12.3622L48.8102 -0.00012207Z" fill="#EEF5F9"/>
<path d="M27.4254 22.1626L26.6887 22.5883L48.7558 35.3777L49.4912 34.952L27.4254 22.1626Z" fill="#5B6879"/>
<path d="M49.4912 34.952V98.0618L48.7558 98.4876V35.3778L49.4912 34.952Z" fill="#29333F"/>
<g style="mix-blend-mode:multiply" opacity="0.4">
<path d="M47.6533 36.0167V95.7165L28.528 84.6328V24.9329L47.6533 36.0167Z" fill="#5198F0"/>
<path d="M47.6533 36.0167V95.7165L28.528 84.6328V24.9329L47.6533 36.0167Z" stroke="#0000FF" stroke-width="0.25" stroke-miterlimit="10"/>
</g>
<path d="M48.7559 35.3774V98.4872L26.6888 85.6978V22.588L48.7559 35.3774ZM28.528 84.6328L47.6521 95.7166V36.0167L28.528 24.9329V84.6328Z" fill="#414E5F"/>
<path d="M28.5283 24.9331V84.633L27.7929 85.0587V24.5073L28.5283 24.9331Z" fill="#29333F"/>
<path d="M28.528 84.6326L47.6533 95.7164V96.5692L27.7925 85.0583L28.528 84.6326Z" fill="#5B6879"/>
<g style="mix-blend-mode:multiply" opacity="0.2">
<path d="M47.3211 74.8299L48.5352 75.6111V62.1343L48.1344 61.3921L47.3211 61.3544V74.8299Z" fill="black"/>
</g>
<path d="M46.7702 61.5443L47.3215 61.8633L48.1348 61.392L47.5822 61.073L46.7702 61.5443Z" fill="#F0F0F6"/>
<path d="M46.77 74.3326L47.3213 74.6529V61.8635L46.77 61.5446V74.3326Z" fill="#D6D6DC"/>
<path d="M47.3215 61.8639V74.6533L48.1348 74.182V61.3926L47.3215 61.8639Z" fill="#BDBDC3"/>
<path d="M49.9137 35.1687L49.1782 35.5945L71.2441 48.3838L71.9795 47.9568L49.9137 35.1687Z" fill="#5B6879"/>
<path d="M71.9795 47.9572V111.068L71.2441 111.494V48.3842L71.9795 47.9572Z" fill="#29333F"/>
<g style="mix-blend-mode:multiply" opacity="0.4">
<path d="M70.1416 49.0236V108.724L51.0163 97.6397V37.9398L70.1416 49.0236Z" fill="#5198F0"/>
<path d="M70.1416 49.0236V108.724L51.0163 97.6397V37.9398L70.1416 49.0236Z" stroke="#0000FF" stroke-width="0.25" stroke-miterlimit="10"/>
</g>
<path d="M71.2441 48.3845V111.494L49.177 98.7049V35.5951L71.2441 48.3845ZM51.0163 97.6399L70.1403 108.724V49.0238L51.0163 37.94V97.6399Z" fill="#414E5F"/>
<path d="M51.0166 37.9392V97.6391L50.2812 98.0648V37.5134L51.0166 37.9392Z" fill="#29333F"/>
<path d="M51.0163 97.6396L70.1416 108.723V109.576L50.2808 98.0654L51.0163 97.6396Z" fill="#5B6879"/>
<g style="mix-blend-mode:multiply" opacity="0.2">
<path d="M49.16 75.7997L50.374 76.5796V63.1041L49.9719 62.3619L49.16 62.3229V75.7997Z" fill="black"/>
</g>
<path d="M48.6081 62.5135L49.1607 62.8338L49.9727 62.3624L49.4214 62.0435L48.6081 62.5135Z" fill="#F0F0F6"/>
<path d="M48.6076 75.3025L49.1602 75.6214V62.8333L48.6076 62.5131V75.3025Z" fill="#D6D6DC"/>
<path d="M49.1607 62.8334V75.6215L49.9727 75.1515V62.3621L49.1607 62.8334Z" fill="#BDBDC3"/>
<path d="M71.2441 38.579L71.213 47.9312L26.7429 22.1597V12.7893L71.2441 38.579Z" fill="#D4DBDF"/>
<path d="M70.8193 38.825L27.1689 13.5275V21.9135L70.7921 47.1942L70.8193 38.825Z" fill="#D4DBDF"/>
<path d="M71.9795 38.153L71.2441 38.5787L26.7428 12.789L27.4782 12.3619L71.9795 38.153Z" fill="#EEF5F9"/>
<path d="M71.9795 47.5239L71.2129 47.9315L71.2441 38.5793L71.9795 38.1536V47.5239Z" fill="#BBC2C6"/>
</svg>
