<svg width="120" height="120" viewBox="0 0 120 120" fill="none" xmlns="http://www.w3.org/2000/svg">
<path d="M60.613 80.0453L60.6116 107.982L36.5188 94.0129L60.613 80.0453Z" fill="#EEF5F9"/>
<path d="M60.6116 40.7425L60.613 80.0449L36.5188 94.0125V26.7749L60.6116 40.7425Z" fill="#BBC2C6"/>
<path d="M57.9344 66.2819L49.0038 71.4594L50.5823 72.3748L59.5128 67.1974L59.8469 67.3912L50.9164 72.5686L52.4948 73.4841L61.4254 68.3066L61.7595 68.5004L52.8289 73.6779L54.4074 74.5933L63.3379 69.4159L63.672 69.6097L54.7415 74.7871L56.3199 75.7026L65.2505 70.5251L65.5846 70.7189L56.654 75.8964L58.2325 76.8118L67.163 71.6344L67.4971 71.8281L58.5666 77.0056L60.145 77.9211L69.0756 72.7436L69.4097 72.9374L60.4792 78.1149L62.0576 79.0303L70.9881 73.8529L71.3223 74.0466L62.3917 79.2241L63.9702 80.1396L72.9007 74.9621L73.2348 75.1559L64.3043 80.3334L65.8827 81.2488L74.8133 76.0714L75.1474 76.2652L66.2168 81.4426L67.7953 82.3581L76.7258 77.1806L77.0599 77.3744L68.1294 82.5519L69.7078 83.4673L78.6384 78.2899L78.9725 78.4836L70.0419 83.6611L71.6204 84.5766L80.5509 79.3991L80.8851 79.5929L71.9545 84.7704L73.5329 85.6858L82.4635 80.5084L82.7976 80.7021L61.7148 92.9256L36.5218 78.3188L57.6046 66.0953L57.9387 66.2891L57.9344 66.2819ZM60.5353 91.3839L62.1138 92.2994L65.5039 90.334L63.9255 89.4185L60.5353 91.3839ZM64.2582 89.2247L65.8366 90.1402L73.1974 85.8724L71.6189 84.9569L64.2582 89.2247ZM58.6228 90.2747L60.2012 91.1901L63.5914 89.2247L62.0129 88.3093L58.6228 90.2747ZM62.3456 88.1155L63.9241 89.0309L71.2848 84.7631L69.7064 83.8477L62.3456 88.1155ZM56.7102 89.1654L58.2886 90.0809L61.6788 88.1155L60.1004 87.2L56.7102 89.1654ZM60.4345 87.0062L62.0129 87.9217L69.3737 83.6539L67.7953 82.7384L60.4345 87.0062ZM54.7977 88.0576L56.3761 88.9731L59.7663 87.0077L58.1878 86.0922L54.7977 88.0576ZM58.522 85.8984L60.1004 86.8139L67.4611 82.5461L65.8827 81.6306L58.522 85.8984ZM52.8851 86.9484L54.4635 87.8638L57.8537 85.8984L56.2753 84.983L52.8851 86.9484ZM56.6094 84.7892L58.1878 85.7046L65.5486 81.4368L63.9702 80.5214L56.6094 84.7892ZM50.9725 85.8391L52.551 86.7546L55.9412 84.7892L54.3627 83.8737L50.9725 85.8391ZM54.6968 83.6799L56.2753 84.5954L63.636 80.3276L62.0576 79.4121L54.6968 83.6799ZM49.06 84.7313L50.6384 85.6468L54.0286 83.6814L52.4502 82.7659L49.06 84.7313ZM52.7843 82.5721L54.3627 83.4876L61.7235 79.2198L60.145 78.3043L52.7843 82.5721ZM47.1489 83.6221L48.7273 84.5375L52.1175 82.5721L50.539 81.6566L47.1489 83.6221ZM50.8717 81.4629L52.4502 82.3783L59.8109 78.1105L58.2325 77.1951L50.8717 81.4629ZM45.2363 82.5128L46.8147 83.4283L50.2049 81.4629L48.6265 80.5474L45.2363 82.5128ZM48.9606 80.3536L50.539 81.2691L57.8998 77.0013L56.3214 76.0858L48.9606 80.3536ZM43.3238 81.405L44.9022 82.3205L48.2924 80.3551L46.7139 79.4396L43.3238 81.405ZM47.0481 79.2458L48.6265 80.1613L55.9872 75.8935L54.4088 74.978L47.0481 79.2458ZM41.4112 80.2958L42.9896 81.2112L46.3798 79.2458L44.8014 78.3303L41.4112 80.2958ZM45.1355 78.1366L46.7139 79.052L54.0747 74.7842L52.4962 73.8688L45.1355 78.1366ZM39.4986 79.1865L41.0771 80.102L44.4673 78.1366L42.8888 77.2211L39.4986 79.1865ZM43.2229 77.0287L44.8014 77.9442L52.1621 73.6764L50.5837 72.761L43.2229 77.0287ZM37.5861 78.0787L39.1645 78.9942L42.5547 77.0287L40.9763 76.1133L37.5861 78.0787ZM41.3104 75.9195L42.8888 76.835L50.2496 72.5672L48.6711 71.6517L41.3104 75.9195Z" fill="#EEF5F9"/>
<path d="M57.9344 49.3744L49.0038 54.5519L50.5823 55.4673L59.5128 50.2899L59.8469 50.4837L50.9164 55.6611L52.4948 56.5766L61.4254 51.3991L61.7595 51.5929L52.8289 56.7704L54.4074 57.6858L63.3379 52.5084L63.672 52.7022L54.7415 57.8796L56.3199 58.7951L65.2505 53.6176L65.5846 53.8114L56.654 58.9889L58.2325 59.9043L67.163 54.7269L67.4971 54.9207L58.5666 60.0981L60.145 61.0136L69.0756 55.8361L69.4097 56.0299L60.4792 61.2074L62.0576 62.1228L70.9881 56.9454L71.3223 57.1392L62.3917 62.3166L63.9702 63.2321L72.9007 58.0546L73.2348 58.2484L64.3043 63.4259L65.8827 64.3413L74.8133 59.1639L75.1474 59.3577L66.2168 64.5351L67.7953 65.4506L76.7258 60.2731L77.0599 60.4669L68.1294 65.6444L69.7078 66.5598L78.6384 61.3824L78.9725 61.5762L70.0419 66.7536L71.6204 67.6691L80.5509 62.4916L80.8851 62.6854L71.9545 67.8629L73.5329 68.7783L82.4635 63.6009L82.7976 63.7947L61.7148 76.0181L36.5218 61.4113L57.6046 49.1879L57.9387 49.3817L57.9344 49.3744ZM60.5353 74.4764L62.1138 75.3919L65.5039 73.4265L63.9255 72.511L60.5353 74.4764ZM64.2582 72.3172L65.8366 73.2327L73.1974 68.9649L71.6189 68.0495L64.2582 72.3172ZM58.6228 73.3672L60.2012 74.2827L63.5914 72.3172L62.0129 71.4018L58.6228 73.3672ZM62.3456 71.208L63.9241 72.1235L71.2848 67.8557L69.7064 66.9402L62.3456 71.208ZM56.7102 72.2594L58.2886 73.1749L61.6788 71.2094L60.1004 70.294L56.7102 72.2594ZM60.4345 70.1002L62.0129 71.0156L69.3737 66.7479L67.7953 65.8324L60.4345 70.1002ZM54.7977 71.1501L56.3761 72.0656L59.7663 70.1002L58.1878 69.1847L54.7977 71.1501ZM58.522 68.9909L60.1004 69.9064L67.4611 65.6386L65.8827 64.7231L58.522 68.9909ZM52.8851 70.0409L54.4635 70.9564L57.8537 68.9909L56.2753 68.0755L52.8851 70.0409ZM56.6094 67.8817L58.1878 68.7971L65.5486 64.5294L63.9702 63.6139L56.6094 67.8817ZM50.9725 68.9331L52.551 69.8485L55.9412 67.8831L54.3627 66.9677L50.9725 68.9331ZM54.6968 66.7739L56.2753 67.6893L63.636 63.4216L62.0576 62.5061L54.6968 66.7739ZM49.06 67.8238L50.6384 68.7393L54.0286 66.7739L52.4502 65.8584L49.06 67.8238ZM52.7843 65.6646L54.3627 66.5801L61.7235 62.3123L60.145 61.3968L52.7843 65.6646ZM47.1489 66.7146L48.7273 67.63L52.1175 65.6646L50.539 64.7492L47.1489 66.7146ZM50.8717 64.5554L52.4502 65.4708L59.8109 61.2031L58.2325 60.2876L50.8717 64.5554ZM45.2363 65.6068L46.8147 66.5222L50.2049 64.5568L48.6265 63.6414L45.2363 65.6068ZM48.9606 63.4476L50.539 64.363L57.8998 60.0952L56.3214 59.1798L48.9606 63.4476ZM43.3238 64.4975L44.9022 65.413L48.2924 63.4476L46.7139 62.5321L43.3238 64.4975ZM47.0481 62.3383L48.6265 63.2538L55.9872 58.986L54.4088 58.0705L47.0481 62.3383ZM41.4112 63.3883L42.9896 64.3037L46.3798 62.3383L44.8014 61.4229L41.4112 63.3883ZM45.1355 61.2291L46.7139 62.1445L54.0747 57.8767L52.4962 56.9613L45.1355 61.2291ZM39.4986 62.2805L41.0771 63.1959L44.4673 61.2305L42.8888 60.3151L39.4986 62.2805ZM43.2229 60.1213L44.8014 61.0367L52.1621 56.7689L50.5837 55.8535L43.2229 60.1213ZM37.5861 61.1712L39.1645 62.0867L42.5547 60.1213L40.9763 59.2058L37.5861 61.1712ZM41.3104 59.012L42.8888 59.9275L50.2496 55.6597L48.6711 54.7442L41.3104 59.012Z" fill="#EEF5F9"/>
<path d="M57.9344 32.21L49.0038 37.3875L50.5823 38.3029L59.5128 33.1255L59.8469 33.3193L50.9164 38.4967L52.4948 39.4122L61.4254 34.2347L61.7595 34.4285L52.8289 39.606L54.4074 40.5214L63.3379 35.344L63.672 35.5377L54.7415 40.7152L56.3199 41.6307L65.2505 36.4532L65.5846 36.647L56.654 41.8245L58.2325 42.7399L67.163 37.5625L67.4971 37.7563L58.5666 42.9337L60.145 43.8492L69.0756 38.6717L69.4097 38.8655L60.4792 44.043L62.0576 44.9584L70.9881 39.781L71.3223 39.9747L62.3917 45.1522L63.9702 46.0677L72.9007 40.8902L73.2348 41.084L64.3043 46.2615L65.8827 47.1769L74.8133 41.9995L75.1474 42.1932L66.2168 47.3707L67.7953 48.2862L76.7258 43.1087L77.0599 43.3025L68.1294 48.48L69.7078 49.3954L78.6384 44.218L78.9725 44.4117L70.0419 49.5892L71.6204 50.5047L80.5509 45.3272L80.8851 45.521L71.9545 50.6985L73.5329 51.6139L82.4635 46.4365L82.7976 46.6302L61.7148 58.8537L36.5218 44.2469L57.6046 32.0234L57.9387 32.2172L57.9344 32.21ZM60.5353 57.312L62.1138 58.2275L65.5039 56.2621L63.9255 55.3466L60.5353 57.312ZM64.2582 55.1528L65.8366 56.0683L73.1974 51.8005L71.6189 50.885L64.2582 55.1528ZM58.6228 56.2028L60.2012 57.1182L63.5914 55.1528L62.0129 54.2374L58.6228 56.2028ZM62.3456 54.0436L63.9241 54.959L71.2848 50.6912L69.7064 49.7758L62.3456 54.0436ZM56.7102 55.095L58.2886 56.0104L61.6788 54.045L60.1004 53.1296L56.7102 55.095ZM60.4345 52.9358L62.0129 53.8512L69.3737 49.5834L67.7953 48.668L60.4345 52.9358ZM54.7977 53.9857L56.3761 54.9012L59.7663 52.9358L58.1878 52.0203L54.7977 53.9857ZM58.522 51.8265L60.1004 52.742L67.4611 48.4742L65.8827 47.5587L58.522 51.8265ZM52.8851 52.8765L54.4635 53.7919L57.8537 51.8265L56.2753 50.9111L52.8851 52.8765ZM56.6094 50.7173L58.1878 51.6327L65.5486 47.3649L63.9702 46.4495L56.6094 50.7173ZM50.9725 51.7687L52.551 52.6841L55.9412 50.7187L54.3627 49.8032L50.9725 51.7687ZM54.6968 49.6095L56.2753 50.5249L63.636 46.2571L62.0576 45.3417L54.6968 49.6095ZM49.06 50.6594L50.6384 51.5749L54.0286 49.6095L52.4502 48.694L49.06 50.6594ZM52.7843 48.5002L54.3627 49.4157L61.7235 45.1479L60.145 44.2324L52.7843 48.5002ZM47.1489 49.5502L48.7273 50.4656L52.1175 48.5002L50.539 47.5848L47.1489 49.5502ZM50.8717 47.391L52.4502 48.3064L59.8109 44.0386L58.2325 43.1232L50.8717 47.391ZM45.2363 48.4424L46.8147 49.3578L50.2049 47.3924L48.6265 46.4769L45.2363 48.4424ZM48.9606 46.2832L50.539 47.1986L57.8998 42.9308L56.3214 42.0154L48.9606 46.2832ZM43.3238 47.3331L44.9022 48.2486L48.2924 46.2832L46.7139 45.3677L43.3238 47.3331ZM47.0481 45.1739L48.6265 46.0894L55.9872 41.8216L54.4088 40.9061L47.0481 45.1739ZM41.4112 46.2239L42.9896 47.1393L46.3798 45.1739L44.8014 44.2584L41.4112 46.2239ZM45.1355 44.0661L46.7139 44.9816L54.0747 40.7138L52.4962 39.7983L45.1355 44.0661ZM39.4986 45.1161L41.0771 46.0315L44.4673 44.0661L42.8888 43.1506L39.4986 45.1161ZM43.2229 42.9569L44.8014 43.8723L52.1621 39.6045L50.5837 38.6891L43.2229 42.9569ZM37.5861 44.0068L39.1645 44.9223L42.5547 42.9569L40.9763 42.0414L37.5861 44.0068ZM41.3104 41.8476L42.8888 42.7631L50.2496 38.4953L48.6711 37.5798L41.3104 41.8476Z" fill="#EEF5F9"/>
<path d="M35.3466 101.442V105.134L60.9861 120V116.308L35.3466 101.442Z" fill="#414E5F"/>
<path d="M61.8367 29.1214V116.337L35.2942 100.948V13.7322L61.8367 29.1214ZM60.6111 107.982V40.7447L36.5183 26.7771V94.0147L60.6111 107.982Z" fill="#D4DBDF"/>
<path d="M84.6541 102.585V106.278L60.9862 120V116.308L84.6541 102.585Z" fill="#29333F"/>
<g style="mix-blend-mode:multiply" opacity="0.2">
<path d="M35.3466 101.442V102.906L60.9861 117.772V116.308L35.3466 101.442Z" fill="black"/>
</g>
<g style="mix-blend-mode:multiply" opacity="0.2">
<path d="M84.6541 102.585V104.048L60.9862 117.771V116.308L84.6541 102.585Z" fill="black"/>
</g>
<path d="M58.9797 0L85.5222 15.3892L61.837 29.1211L35.2945 13.7318L58.9797 0Z" fill="#EEF5F9"/>
<path d="M85.5222 15.3895L61.837 29.1214V116.337L85.5222 102.605V15.3895Z" fill="#BBC2C6"/>
<path d="M34.4778 95.6396V101.422L61.0203 116.811V111.029L34.4778 95.6396Z" fill="#D4DBDF"/>
<path d="M34.4776 95.6399L35.2942 95.167L61.8367 110.556L61.0201 111.029L34.4776 95.6399Z" fill="#EEF5F9"/>
<path d="M61.8367 116.337L61.0201 116.811V111.029L61.8367 110.556V116.337Z" fill="#BBC2C6"/>
<path d="M76.6669 99.1979L83.3191 95.3408V94.8679L76.6669 98.7235V99.1979Z" fill="#D4DBDF"/>
<g style="mix-blend-mode:multiply" opacity="0.2">
<path d="M76.6669 99.4348L83.3191 95.5778V95.3406L76.6669 99.1976V99.4348Z" fill="black"/>
</g>
<path d="M76.6669 100.177L83.3191 96.3199V95.8456L76.6669 99.7027V100.177Z" fill="#D4DBDF"/>
<g style="mix-blend-mode:multiply" opacity="0.2">
<path d="M76.6669 100.413L83.3191 96.5564V96.3192L76.6669 100.176V100.413Z" fill="black"/>
</g>
<path d="M76.6669 101.156L83.3191 97.2987V96.8243L76.6669 100.681V101.156Z" fill="#D4DBDF"/>
<g style="mix-blend-mode:multiply" opacity="0.2">
<path d="M76.6669 101.392L83.3191 97.5347V97.299L76.6669 101.156V101.392Z" fill="black"/>
</g>
<path d="M76.6669 102.133L83.3191 98.2773V97.803L76.6669 101.66V102.133Z" fill="#D4DBDF"/>
<g style="mix-blend-mode:multiply" opacity="0.2">
<path d="M76.6669 102.37L83.3191 98.5133V98.2776L76.6669 102.133V102.37Z" fill="black"/>
</g>
<path d="M76.6669 103.113L83.3191 99.2556V98.7827L76.6669 102.64V103.113Z" fill="#D4DBDF"/>
<g style="mix-blend-mode:multiply" opacity="0.2">
<path d="M76.6669 103.35L83.3191 99.4926V99.2554L76.6669 103.112V103.35Z" fill="black"/>
</g>
<path d="M76.6669 104.091L83.3191 100.234V99.7614L76.6669 103.617V104.091Z" fill="#D4DBDF"/>
<g style="mix-blend-mode:multiply" opacity="0.2">
<path d="M76.6669 104.328L83.3191 100.471V100.234L76.6669 104.091V104.328Z" fill="black"/>
</g>
<path d="M76.6669 105.071L83.3191 101.213V100.739L76.6669 104.596V105.071Z" fill="#D4DBDF"/>
<g style="mix-blend-mode:multiply" opacity="0.2">
<path d="M76.6669 105.308L83.3191 101.451V101.214L76.6669 105.071V105.308Z" fill="black"/>
</g>
<g style="mix-blend-mode:multiply" opacity="0.4">
<path d="M60.613 40.7425V107.955L36.5203 93.9865V26.7749L60.613 40.7425Z" fill="#5198F0"/>
<path d="M60.613 40.7425V107.955L36.5203 93.9865V26.7749L60.613 40.7425Z" stroke="#0000FF" stroke-width="0.25" stroke-miterlimit="10"/>
</g>
<path d="M61.0203 40.5068V110.56L34.4778 95.1709V25.1176L61.0203 40.5068ZM36.5199 93.9865L59.7961 107.481V41.2169L36.5199 27.7222V93.9865Z" fill="#414E5F"/>
<path d="M35.2942 24.6439L34.4776 25.1183L61.0201 40.5075L61.8367 40.0331L35.2942 24.6439Z" fill="#5B6879"/>
<path d="M61.8367 40.0325L61.0201 40.5068V110.559L61.8367 110.086V40.0325Z" fill="#29333F"/>
<path d="M35.986 27.412L36.5203 27.7214V93.9872L35.7037 94.4601V27.2485L35.986 27.412Z" fill="#29333F"/>
<path d="M36.5205 93.9873L59.7966 107.482V108.429L35.7039 94.4602L36.5205 93.9873Z" fill="#5B6879"/>
<g style="mix-blend-mode:multiply" opacity="0.2">
<path d="M59.5111 83.837L60.8591 84.7047V69.7349L60.4127 68.912L59.5111 68.8687V83.837Z" fill="black"/>
</g>
<path d="M58.8992 69.0804L59.5113 69.4347L60.4128 68.9127L59.8008 68.5569L58.8992 69.0804Z" fill="#F0F0F6"/>
<path d="M58.8994 83.2852L59.5115 83.641V69.4348L58.8994 69.0804V83.2852Z" fill="#D6D6DC"/>
<path d="M59.5113 69.4339V83.6402L60.4128 83.1166V68.9119L59.5113 69.4339Z" fill="#BDBDC3"/>
<path d="M34.4778 14.2058V24.6171L60.9857 40.0035L61.0203 29.595L34.4778 14.2058Z" fill="#D4DBDF"/>
<path d="M60.5476 29.8677L34.9484 15.0266V24.3446L60.5174 39.1842L60.5476 29.8677Z" fill="#D4DBDF"/>
<path d="M61.8367 29.1206V39.5334L60.9855 40.0034L61.0201 29.595L61.8367 29.1206Z" fill="#BBC2C6"/>
<path d="M34.4776 14.2065L35.2942 13.7322L61.8367 29.1214L61.0201 29.5958L34.4776 14.2065Z" fill="#EEF5F9"/>
</svg>
