<svg width="120" height="120" viewBox="0 0 120 120" fill="none" xmlns="http://www.w3.org/2000/svg">
<path d="M60.4054 90.9954C60.8947 90.7135 61.5355 90.5726 62.1764 90.5726C62.8172 90.5726 63.4581 90.7135 63.9474 90.9954C64.4366 91.2773 64.6813 91.6469 64.6813 92.0165V93.7237C64.6813 94.0933 64.4366 94.4629 63.9474 94.7448C63.4581 95.0266 62.8172 95.1676 62.1764 95.1676C61.5355 95.1676 60.8947 95.0266 60.4054 94.7448C59.9161 94.4629 59.6715 94.0933 59.6715 93.7237V92.0165C59.6715 91.6469 59.9161 91.2773 60.4054 90.9954Z" fill="#414E5F"/>
<path d="M62.1738 90.5726C62.8147 90.5726 63.4555 90.7135 63.9448 90.9954C64.4341 91.2773 64.6787 91.6469 64.6787 92.0165C64.6787 92.3861 64.4341 92.7557 63.9448 93.0376C63.4555 93.3195 62.8147 93.4604 62.1738 93.4604C61.533 93.4604 60.8921 93.3195 60.4028 93.0376C59.9135 92.7557 59.6689 92.3861 59.6689 92.0165C59.6689 91.6469 59.9135 91.2773 60.4028 90.9954C60.8921 90.7135 61.533 90.5726 62.1738 90.5726Z" fill="#5B6879"/>
<path opacity="0.3" d="M60.4053 93.0406V94.7478C59.916 94.4659 59.6714 94.0963 59.6714 93.7267V92.0195C59.6714 92.3892 59.916 92.7588 60.4053 93.0406Z" fill="#29333F"/>
<path opacity="0.5" d="M64.6787 92.0196V93.7267C64.6787 94.0964 64.4341 94.466 63.9448 94.7479C63.4555 95.0297 62.8147 95.1707 62.1738 95.1707V93.4635C62.8147 93.4635 63.4555 93.3226 63.9448 93.0407C64.4341 92.7588 64.6787 92.3892 64.6787 92.0196Z" fill="#29333F"/>
<path d="M64.6787 92.0196V93.7267C64.6787 94.0964 64.4341 94.466 63.9448 94.7479V93.0407C64.4341 92.7588 64.6787 92.3892 64.6787 92.0196Z" fill="#29333F"/>
<path d="M22.5554 69.5494C23.0447 69.2676 23.6855 69.1266 24.3264 69.1266C24.9673 69.1266 25.6081 69.2676 26.0974 69.5494C26.5867 69.8313 26.8313 70.2009 26.8313 70.5705V72.2777C26.8313 72.6473 26.5867 73.0169 26.0974 73.2988C25.6081 73.5807 24.9673 73.7216 24.3264 73.7216C23.6855 73.7216 23.0447 73.5807 22.5554 73.2988C22.0661 73.0169 21.8215 72.6473 21.8215 72.2777V70.5705C21.8215 70.2009 22.0661 69.8313 22.5554 69.5494Z" fill="#414E5F"/>
<path d="M24.3264 69.124C24.9673 69.124 25.6081 69.265 26.0974 69.5468C26.5867 69.8287 26.8313 70.1983 26.8313 70.5679C26.8313 70.9376 26.5867 71.3072 26.0974 71.589C25.6081 71.8709 24.9673 72.0118 24.3264 72.0118C23.6855 72.0118 23.0447 71.8709 22.5554 71.589C22.0661 71.3072 21.8215 70.9376 21.8215 70.5679C21.8215 70.1983 22.0661 69.8287 22.5554 69.5468C23.0447 69.265 23.6855 69.124 24.3264 69.124Z" fill="#5B6879"/>
<path opacity="0.3" d="M22.5553 71.5921V73.2992C22.066 73.0174 21.8214 72.6477 21.8214 72.2781V70.571C21.8214 70.9406 22.066 71.3102 22.5553 71.5921Z" fill="#29333F"/>
<path opacity="0.5" d="M26.8287 70.5707V72.2779C26.8287 72.6475 26.5841 73.0171 26.0948 73.299C25.6055 73.5808 24.9647 73.7218 24.3238 73.7218V72.0146C24.9647 72.0146 25.6055 71.8737 26.0948 71.5918C26.5841 71.3099 26.8287 70.9403 26.8287 70.5707Z" fill="#29333F"/>
<path d="M26.8287 70.5707V72.2779C26.8287 72.6475 26.5841 73.0171 26.0948 73.299V71.5918C26.5841 71.3099 26.8287 70.9403 26.8287 70.5707Z" fill="#29333F"/>
<path d="M20.7791 36.7284C21.2604 35.8961 21.9252 35.1675 22.6591 34.7447L45.4452 21.5873C46.1791 21.1645 46.8439 21.122 47.3252 21.4012L92.3709 46.9102C92.8522 47.1894 93.15 47.7851 93.15 48.6307V78.7294L65.0483 94.9554L20.0026 69.4464V39.3477C20.0026 38.4994 20.3004 37.5607 20.7817 36.7257L20.7791 36.7284Z" fill="#D4DBDF"/>
<path d="M65.0455 64.8567V94.9554L19.9998 69.4464V39.3477L65.0455 64.8567Z" fill="#D4DBDF"/>
<path d="M62.8811 66.1192L22.1645 43.0619L22.1671 68.1853L62.8811 91.24V66.1192Z" fill="#414E5F"/>
<path d="M45.445 21.5873C46.1789 21.1645 46.8437 21.122 47.325 21.4012L92.3707 46.9102C91.8894 46.631 91.2246 46.6736 90.4907 47.0964L67.7046 60.2511L22.6589 34.742L45.445 21.5873Z" fill="#EEF5F9"/>
<path opacity="0.3" d="M20.7791 36.7279L65.8248 62.2369C65.3435 63.0692 65.0457 64.0106 65.0457 64.8588L20 39.3498C20 38.5015 20.2978 37.5628 20.7791 36.7279Z" fill="#EEF5F9"/>
<path opacity="0.6" d="M22.659 34.7419L67.7047 60.2509C66.9708 60.6737 66.306 61.4023 65.8247 62.2346L20.779 36.7256C21.2603 35.8933 21.9251 35.1647 22.659 34.7419Z" fill="#EEF5F9"/>
<path d="M65.8249 62.2345C66.3062 61.4022 66.971 60.6736 67.7049 60.2508L90.4883 47.0961C91.2222 46.6733 91.887 46.6307 92.3683 46.91C92.8496 47.1892 93.1475 47.7848 93.1475 48.6304V78.7291L65.0458 94.9552V64.8564C65.0458 64.0082 65.3436 63.0695 65.8249 62.2345Z" fill="#BBC2C6"/>
<path d="M76.1449 62.9048L93.1474 53.0872L93.15 78.7293L76.1449 88.5468V62.9048Z" fill="#29333F"/>
<path d="M82.5799 67.8425L90.2754 63.3991V75.0062L82.5799 79.4496V67.8425Z" fill="#414E5F"/>
<path d="M76.1449 71.0867L93.1474 61.2692L93.15 62.4179L76.1449 72.2328V71.0867Z" fill="#414E5F"/>
<g style="mix-blend-mode:multiply" opacity="0.2">
<path d="M69.1674 73.3363C70.832 70.4538 73.1295 67.9409 75.669 66.473C78.2084 65.0079 80.5059 64.8696 82.1706 65.8295C83.8352 66.7895 84.8643 68.8503 84.8643 71.7807C84.8643 74.711 83.8352 77.9605 82.1706 80.8403C80.5059 83.7228 78.2084 86.2357 75.669 87.7036C73.1295 89.1687 70.832 89.307 69.1674 88.3471C67.5028 87.3871 66.4737 85.3263 66.4737 82.3959C66.4737 79.4656 67.5028 76.2161 69.1674 73.3336V73.3363Z" fill="black"/>
</g>
<path d="M69.3004 69.9036C70.9651 67.0211 73.2626 64.5083 75.802 63.0404C78.3415 61.5752 80.639 61.437 82.3036 62.3969L84.4655 63.6361C86.1301 64.596 87.1592 66.6568 87.1592 69.5872C87.1592 72.5176 86.1301 75.767 84.4655 78.6469C82.8009 81.5294 80.5034 84.0422 77.9639 85.5101C75.4244 86.9753 73.1269 87.1135 71.4623 86.1536L69.3004 84.9144C67.6358 83.9545 66.6067 81.8937 66.6067 78.9633C66.6067 76.0329 67.6358 72.7835 69.3004 69.901V69.9036Z" fill="#D4DBDF"/>
<path opacity="0.5" d="M71.4623 71.1422C73.1269 68.2597 75.4244 65.7468 77.9639 64.279C80.5034 62.8138 82.8009 62.6755 84.4655 63.6355C86.1301 64.5954 87.1592 66.6563 87.1592 69.5866C87.1592 72.517 86.1301 75.7665 84.4655 78.6463C82.8009 81.5288 80.5034 84.0417 77.9639 85.5095C75.4244 86.9747 73.1269 87.113 71.4623 86.153C69.7977 85.1931 68.7686 83.1323 68.7686 80.2019C68.7686 77.2715 69.7977 74.0221 71.4623 71.1396V71.1422Z" fill="#BBC2C6"/>
<path d="M74.2223 72.7326C75.6742 70.217 77.6818 68.0206 79.8969 66.7416C82.1146 65.4625 84.1196 65.3402 85.5714 66.1805C87.0233 67.0181 87.9221 68.8183 87.9221 71.3764C87.9221 73.9345 87.0233 76.7718 85.5714 79.2873C84.1196 81.8029 82.1119 83.9993 79.8969 85.2784C77.6818 86.5574 75.6742 86.6797 74.2223 85.8394C72.7704 85.0018 71.8716 83.2016 71.8716 80.6435C71.8716 78.0828 72.7704 75.2481 74.2223 72.7326Z" fill="#BBC2C6"/>
<path opacity="0.5" d="M75.7993 63.0404L77.9612 64.2795C75.4217 65.7447 73.1242 68.2603 71.4596 71.1428L69.2977 69.9036C70.9623 67.0211 73.2598 64.5082 75.7993 63.0404Z" fill="#EEF5F9"/>
<path opacity="0.5" d="M68.7685 80.2046C68.7685 83.135 69.7975 85.1958 71.4622 86.1558L69.3003 84.9166C67.6357 83.9567 66.6066 81.8958 66.6066 78.9655L68.7685 80.2046Z" fill="#BBC2C6"/>
<path d="M82.301 62.3969L84.4629 63.6361C82.7983 62.6761 80.5008 62.8144 77.9613 64.2796L75.7994 63.0404C78.3389 61.5752 80.6364 61.437 82.301 62.3969Z" fill="#EEF5F9"/>
<path d="M82.0349 72.3076C81.8806 72.2198 81.7131 72.1613 81.5296 72.1294L83.9601 67.3802C84.1675 67.4387 84.3616 67.5185 84.5504 67.6142L82.12 72.3608C82.0934 72.3422 82.0641 72.3235 82.0349 72.3076Z" fill="#414E5F"/>
<path d="M79.8996 72.52C79.7693 72.5945 79.6416 72.6796 79.514 72.7727V68.4064C79.6416 68.3239 79.7693 68.2442 79.8996 68.1697C80.0299 68.0952 80.1575 68.0261 80.2852 67.9596V72.3259C80.1575 72.3791 80.0299 72.4429 79.8996 72.52Z" fill="#414E5F"/>
<path d="M80.5618 72.2221L81.8541 67.3718C82.1014 67.316 82.3434 67.2761 82.5801 67.2575L81.2851 72.1104C81.0591 72.1051 80.8144 72.1423 80.5591 72.2247L80.5618 72.2221Z" fill="#414E5F"/>
<path d="M82.3009 72.5067L85.577 68.433C85.7179 68.6005 85.8455 68.7813 85.9625 68.9807L82.6891 73.0545C82.5881 72.8365 82.4578 72.653 82.3036 72.5067H82.3009Z" fill="#414E5F"/>
<path d="M77.1101 76.2747L73.8367 75.9822C73.9537 75.6498 74.0813 75.3174 74.2222 74.9876L77.4983 75.2801C77.3414 75.6046 77.2111 75.9396 77.1127 76.2747H77.1101Z" fill="#414E5F"/>
<path d="M78.5116 73.7113L77.2166 70.3528C77.4506 70.1002 77.6926 69.8582 77.9426 69.6295L79.2375 72.988C78.9823 73.2008 78.7403 73.4454 78.5116 73.7113Z" fill="#414E5F"/>
<path d="M82.7822 73.3045L86.505 70.3981C86.5635 70.6507 86.6087 70.9166 86.6379 71.1985L82.9152 74.1076C82.9019 73.8098 82.8567 73.5439 82.7822 73.3072V73.3045Z" fill="#414E5F"/>
<path d="M77.7616 74.7746C77.7324 74.8252 77.7058 74.8757 77.6765 74.9262L75.2461 72.9851C75.4322 72.6739 75.629 72.3681 75.8364 72.0703L78.2668 74.0115C78.0834 74.2535 77.9132 74.5087 77.7616 74.772V74.7746Z" fill="#414E5F"/>
<path d="M76.8813 77.5881L73.1585 78.9788C73.1878 78.6624 73.233 78.3459 73.2915 78.0242L77.0143 76.6335C76.9398 76.9552 76.8946 77.277 76.8813 77.5881Z" fill="#414E5F"/>
<path d="M77.4983 79.5107L74.2222 83.5845C74.0813 83.4169 73.9537 83.2361 73.8367 83.0367L77.1101 78.9629C77.2111 79.1809 77.3414 79.3644 77.4956 79.5107H77.4983Z" fill="#414E5F"/>
<path d="M79.2375 79.7927L77.9426 84.643C77.6953 84.6988 77.4533 84.7387 77.2166 84.7573L78.5116 79.9044C78.7376 79.9097 78.9823 79.8725 79.2375 79.79V79.7927Z" fill="#414E5F"/>
<path d="M77.7616 79.7078C77.9158 79.7956 78.0834 79.8541 78.2668 79.886L75.8364 84.6352C75.629 84.5767 75.4349 84.4969 75.2461 84.4012L77.6765 79.6546C77.7031 79.6732 77.7324 79.6919 77.7616 79.7078Z" fill="#414E5F"/>
<path d="M76.8813 77.9128C76.8946 78.2106 76.9398 78.4765 77.0143 78.7132L73.2915 81.6196C73.233 81.367 73.1878 81.1011 73.1585 80.8192L76.8813 77.9102V77.9128Z" fill="#414E5F"/>
<path d="M79.8996 79.4974C80.0299 79.4229 80.1602 79.3379 80.2852 79.2448V83.6111C80.1575 83.6935 80.0299 83.7733 79.8996 83.8477C79.7693 83.9222 79.6416 83.9913 79.514 84.0578V79.6915C79.6416 79.6383 79.7693 79.5745 79.8996 79.4974Z" fill="#414E5F"/>
<path d="M82.0349 77.2427C82.0641 77.1922 82.0907 77.1417 82.12 77.0912L84.5504 79.0323C84.3643 79.3434 84.1675 79.6492 83.9601 79.9471L81.5296 78.0059C81.7131 77.7639 81.8833 77.5086 82.0349 77.2454V77.2427Z" fill="#414E5F"/>
<path d="M82.9152 74.4291L86.6379 73.0384C86.6087 73.3549 86.5635 73.6713 86.505 73.993L82.7822 75.3838C82.8567 75.062 82.9019 74.7403 82.9152 74.4291Z" fill="#414E5F"/>
<path d="M82.6866 75.7428L85.96 76.0353C85.843 76.3677 85.7153 76.7001 85.5744 77.0299L82.2983 76.7373C82.4552 76.4129 82.5855 76.0779 82.6839 75.7428H82.6866Z" fill="#414E5F"/>
<path d="M81.2851 78.3063L82.5801 81.6648C82.3461 81.9174 82.1041 82.1594 81.8541 82.3881L80.5591 79.0296C80.8144 78.8169 81.0564 78.5722 81.2851 78.3063Z" fill="#414E5F"/>
<g style="mix-blend-mode:multiply" opacity="0.2">
<path d="M76.6687 50.8373L38.3612 28.7213L41.8819 28.8543L78.3147 49.888L76.6687 50.8373Z" fill="black"/>
</g>
<path d="M41.1134 21.2519C41.7968 20.8557 42.7435 20.9142 43.7885 21.5178L74.5308 39.2675C75.5758 39.8711 76.5198 40.9055 77.2058 42.0915C77.8892 43.2775 78.3147 44.6124 78.3147 45.8196V49.8934L76.6687 50.8401V46.7663C76.6687 45.5617 76.2459 44.2241 75.5598 43.0382C74.8764 41.8522 73.9298 40.8178 72.8847 40.2142L42.1425 22.4618C41.0975 21.8582 40.1535 21.8023 39.4674 22.1959L41.1134 21.2492V21.2519Z" fill="#414E5F"/>
<path d="M39.4699 22.1988C40.1533 21.8026 41.0999 21.8611 42.145 22.4647L72.8872 40.2145C73.9322 40.8181 74.8762 41.8525 75.5623 43.0384C76.2457 44.2244 76.6711 45.5593 76.6711 46.7666V50.8403L74.7965 49.7581V45.6843C74.7965 45.0966 74.597 44.4292 74.238 43.8043C73.8791 43.1794 73.3978 42.6741 72.8899 42.3816L42.1423 24.6293C41.6318 24.3341 41.1531 24.2889 40.7941 24.4963C40.4352 24.7037 40.2357 25.1425 40.2357 25.7302V29.8039L38.361 28.7217V24.6479C38.361 23.4406 38.7838 22.595 39.4699 22.1988Z" fill="#414E5F"/>
<path d="M41.1132 21.2519C41.7966 20.8557 42.7432 20.9142 43.7883 21.5178L74.5305 39.2675L72.8845 40.2142L42.1423 22.4618C41.0972 21.8582 40.1533 21.8023 39.4672 22.1959L41.1132 21.2492V21.2519Z" fill="#5B6879"/>
<path d="M78.3147 45.817V49.8882L76.6687 50.8375V46.7637L78.3147 45.817Z" fill="#29333F"/>
<path opacity="0.3" d="M77.2058 42.0885C77.8892 43.2745 78.3147 44.6094 78.3147 45.8166L76.6687 46.7633C76.6687 45.5587 76.2459 44.2212 75.5598 43.0352L77.2058 42.0885Z" fill="#5B6879"/>
<path opacity="0.6" d="M74.531 39.265C75.576 39.8686 76.52 40.903 77.2061 42.089L75.5601 43.0356C74.8767 41.8497 73.93 40.8153 72.885 40.2116L74.531 39.265Z" fill="#5B6879"/>
<path d="M40.7945 24.4936C41.0977 24.3181 41.4832 24.3261 41.8981 24.5069C41.8874 24.5947 41.8795 24.6851 41.8795 24.7808V28.8546L40.2335 29.8013V25.7275C40.2335 25.1398 40.4329 24.7011 40.7919 24.4936H40.7945Z" fill="#29333F"/>
<path d="M38.8798 32.8535L29.8122 38.0894L28.7485 37.4751L38.8798 31.625L73.6506 51.7015L72.5896 52.3157L38.8798 32.8535Z" fill="#D4DBDF"/>
<path d="M38.8799 31.625V32.8535L29.8122 38.0894L28.7486 37.4751L38.8799 31.625Z" fill="#BBC2C6"/>
<g style="mix-blend-mode:multiply" opacity="0.2">
<path d="M44.4771 37.5706C45.7588 37.5706 47.0405 37.8525 48.0191 38.4163C48.9977 38.98 49.4869 39.7219 49.4869 40.4611C49.4869 41.2004 48.9977 41.9396 48.0191 42.506C47.0405 43.0697 45.7588 43.3516 44.4771 43.3516C43.1954 43.3516 41.9137 43.0697 40.9352 42.506C39.9566 41.9423 39.4673 41.2004 39.4673 40.4611C39.4673 39.7219 39.9566 38.98 40.9352 38.4163C41.9137 37.8525 43.1954 37.5706 44.4771 37.5706Z" fill="black"/>
</g>
<path d="M39.8078 37.05C40.7864 36.4863 42.0681 36.2044 43.3498 36.2044C44.6315 36.2044 45.9132 36.4863 46.8918 37.05C47.8703 37.6138 48.3596 38.3557 48.3596 39.0949V40.4617C48.3596 41.2009 47.8703 41.9402 46.8918 42.5066C45.9132 43.0703 44.6315 43.3522 43.3498 43.3522C42.0681 43.3522 40.7864 43.0703 39.8078 42.5066C38.8293 41.9428 38.34 41.2009 38.34 40.4617V39.0949C38.34 38.3557 38.8293 37.6138 39.8078 37.05Z" fill="#414E5F"/>
<path d="M43.3498 36.2044C44.6315 36.2044 45.9132 36.4863 46.8918 37.05C47.8703 37.6138 48.3596 38.3557 48.3596 39.0949C48.3596 39.8342 47.8703 40.5734 46.8918 41.1398C45.9132 41.7035 44.6315 41.9854 43.3498 41.9854C42.0681 41.9854 40.7864 41.7035 39.8078 41.1398C38.8293 40.5761 38.34 39.8342 38.34 39.0949C38.34 38.3557 38.8293 37.6138 39.8078 37.05C40.7864 36.4863 42.0681 36.2044 43.3498 36.2044Z" fill="#5B6879"/>
<path opacity="0.3" d="M39.8079 41.1396V42.5064C38.8293 41.9427 38.34 41.2008 38.34 40.4615V39.0947C38.34 39.834 38.8293 40.5732 39.8079 41.1396Z" fill="#29333F"/>
<path opacity="0.5" d="M48.3571 39.0948V40.4616C48.3571 41.2008 47.8678 41.94 46.8892 42.5064C45.9107 43.0702 44.629 43.352 43.3473 43.352V41.9852C44.629 41.9852 45.9107 41.7034 46.8892 41.1396C47.8678 40.5759 48.3571 39.834 48.3571 39.0948Z" fill="#29333F"/>
<path d="M48.3571 39.0948V40.4616C48.3571 41.2008 47.8678 41.94 46.8892 42.5064V41.1396C47.8678 40.5759 48.3571 39.834 48.3571 39.0948Z" fill="#29333F"/>
<path d="M25.3076 46.5905L32.4287 50.7015V70.653L25.3076 66.542V46.5905Z" fill="#414E5F"/>
<path d="M50.668 82.7229V71.496L50.6334 71.4748L33.9287 61.8301V73.0569L33.9633 73.0782L50.668 82.7229ZM50.5244 71.5785V82.4729L34.0697 72.9745V62.08L50.5244 71.5785Z" fill="#29333F"/>
<path d="M33.9976 59.7427L50.5959 69.3263V61.1069L34.0003 51.526L33.9976 59.7427Z" fill="#29333F"/>
<path d="M25.3076 66.5423L32.4287 70.6533V72.2089L23.9674 67.3241L25.3076 66.5423Z" fill="#5B6879"/>
<path d="M23.9674 45.817L25.3076 46.5909V66.5423L23.9674 67.3241V45.817Z" fill="#29333F"/>
<g style="mix-blend-mode:multiply" opacity="0.2">
<path d="M23.9674 45.817L32.4287 50.7019V52.6005L25.3076 48.4895L23.9674 45.817Z" fill="black"/>
</g>
<path d="M26.6557 54.9507L30.4131 57.1206V52.2597L26.6557 50.0898V54.9507Z" fill="#C1060B"/>
<g style="mix-blend-mode:multiply" opacity="0.2">
<path d="M27.9984 55.6687C27.8495 55.4959 27.7139 55.3044 27.5969 55.0997C27.3124 54.6078 27.1369 54.0547 27.1369 53.5547C27.1369 53.0548 27.3124 52.7038 27.5969 52.5389C27.7139 52.4725 27.8495 52.4352 27.9984 52.4352V51.111L29.2403 51.5843L29.4131 51.9273V53.2516C29.562 53.4244 29.6976 53.6159 29.8146 53.8206C30.0992 54.3126 30.2747 54.8657 30.2747 55.3656C30.2747 55.8655 30.0992 56.2165 29.8146 56.3814C29.6976 56.4479 29.562 56.4851 29.4131 56.4851V56.5409L27.9984 55.7246V55.6687Z" fill="black"/>
</g>
<path d="M30.4132 57.1206L30.7961 56.8999V52.0417L30.4132 52.2597V57.1206Z" fill="#8E0000"/>
<path d="M26.6559 50.0905L30.4132 52.2603L30.7961 52.0423L27.0361 49.8724L26.6559 50.0905Z" fill="#E82C31"/>
<path d="M26.1689 53.672C26.1689 53.1721 26.3444 52.8211 26.629 52.6562L27.0305 52.4249V52.2121L27.6102 50.8932L27.8256 50.7682L29.2402 51.5846V52.9088C29.3892 53.0817 29.5248 53.2731 29.6418 53.4779C29.9263 53.9698 30.1018 54.5229 30.1018 55.0228C30.1018 55.5227 29.9263 55.8738 29.6418 56.0386L29.2402 56.27V56.4428L28.4425 56.9028L27.0278 56.0865V55.786C26.8789 55.6132 26.7433 55.4217 26.6263 55.2169C26.3418 54.725 26.1663 54.1719 26.1663 53.672H26.1689Z" fill="#C1060B"/>
<path opacity="0.5" d="M29.6447 53.4753C29.9292 53.9672 30.1047 54.5203 30.1047 55.0202L29.307 55.4802C29.307 54.9803 29.1315 54.4246 28.847 53.9353L29.6447 53.4753Z" fill="#8E0000"/>
<path d="M29.307 55.4828L30.1047 55.0228C30.1047 55.5227 29.9292 55.8737 29.6447 56.0386L28.847 56.4986C29.1315 56.3337 29.307 55.9827 29.307 55.4828Z" fill="#8E0000"/>
<path opacity="0.5" d="M28.4453 53.3692L29.243 52.9092C29.3919 53.082 29.5275 53.2735 29.6445 53.4782L28.8468 53.9383C28.7298 53.7362 28.5942 53.5447 28.4453 53.3692Z" fill="#E82C31"/>
<path d="M29.2405 51.5846V52.9089L28.4454 53.3689V53.0259L29.0251 51.7096L29.2405 51.5846Z" fill="#8E0000"/>
<path d="M27.6104 50.8932L27.8258 50.7682L29.2405 51.5846L29.0251 51.7096L27.6104 50.8932Z" fill="#E82C31"/>
<path opacity="0.5" d="M27.6104 50.8936L27.0307 52.2098L28.4453 53.0262L29.025 51.7099L27.6104 50.8936Z" fill="#E82C31"/>
<path d="M27.0305 52.5528C26.8816 52.5528 26.746 52.59 26.629 52.6565L27.0305 52.4251V52.5528Z" fill="#E82C31"/>
<path d="M28.847 56.4986L29.2432 56.2699V56.4427L28.4454 56.9027V56.6023C28.5943 56.6023 28.73 56.565 28.847 56.4986Z" fill="#8E0000"/>
<path d="M25.8103 57.4081L26.148 57.2114L26.4299 57.3736V56.9907L26.7676 56.7965L27.8472 57.4214V58.1952L28.4668 58.5516V61.2798L28.1291 61.474L25.8103 60.1364V57.4081Z" fill="#2A71C9"/>
<path d="M28.4668 61.2797L28.1291 61.4738V58.7455L28.4668 58.5514V61.2797Z" fill="#044BA3"/>
<path d="M27.8469 57.4212L27.5119 57.6153V58.3892L27.8469 58.195V57.4212Z" fill="#044BA3"/>
<path d="M27.8472 58.195L27.5122 58.3891L28.1291 58.7454L28.4668 58.5513L27.8472 58.195Z" fill="#5198F0"/>
<path d="M26.7673 56.7965L26.4296 56.9907L27.5119 57.6156L27.8469 57.4214L26.7673 56.7965Z" fill="#5198F0"/>
<path d="M26.4297 57.7647L25.8101 57.4084L26.1478 57.2116L26.4297 57.3738V57.7647Z" fill="#5198F0"/>
<g style="mix-blend-mode:multiply" opacity="0.2">
<path d="M25.8608 58.977C25.8608 58.6101 25.9885 58.3521 26.1986 58.2325C26.2969 58.174 26.4166 58.15 26.5469 58.158V57.2379L27.4164 57.6687L27.4803 57.7777V58.6978C27.6106 58.8387 27.7276 59.001 27.8286 59.1738C27.9775 59.4317 28.0839 59.7136 28.1344 59.9875V60.5991C28.0839 60.8145 27.9775 60.9687 27.8286 61.0538C27.7408 61.1043 27.6425 61.1283 27.5308 61.1309L26.5017 60.5353C26.39 60.4076 26.289 60.264 26.2012 60.1151C25.9938 59.7535 25.8635 59.3466 25.8635 58.9797L25.8608 58.977Z" fill="black"/>
</g>
<path d="M25.1694 59.2161C25.1694 58.8678 25.2917 58.6231 25.4911 58.5088C25.5869 58.4529 25.6986 58.429 25.8209 58.437V57.8653L26.0655 57.4212L26.5255 57.1553L27.4137 57.6685V58.3944L27.0441 58.6072V58.7561C27.1691 58.8917 27.2807 59.0433 27.3738 59.2081C27.5706 59.5512 27.6956 59.9367 27.6956 60.2877C27.6956 60.6361 27.5732 60.8807 27.3738 60.9951L27.0441 61.1865V61.3992L26.709 61.5934L25.8209 61.0802V60.7478C25.6959 60.6121 25.5842 60.4606 25.4911 60.2957C25.2944 59.9527 25.1694 59.5671 25.1694 59.2161Z" fill="#2A71C9"/>
<path opacity="0.5" d="M27.3738 59.2083C27.5706 59.5514 27.6956 59.9369 27.6956 60.288L27.3605 60.4821C27.3605 60.1337 27.2382 59.7455 27.0388 59.4025L27.3738 59.2083Z" fill="#044BA3"/>
<path d="M27.3605 60.4793L27.6956 60.2852C27.6956 60.6335 27.5732 60.8781 27.3738 60.9925L27.0388 61.1866C27.2355 61.0723 27.3605 60.8276 27.3605 60.4793Z" fill="#044BA3"/>
<path opacity="0.5" d="M26.7089 58.9503L27.0439 58.7562C27.1689 58.8918 27.2806 59.0434 27.3737 59.2082L27.0386 59.4024C26.9429 59.2375 26.8312 59.0859 26.7089 58.9503Z" fill="#5198F0"/>
<path d="M26.709 58.9504V58.3787L26.9537 57.9319L27.4137 57.666V58.3946L27.0441 58.6073V58.7563L26.709 58.9504Z" fill="#044BA3"/>
<path d="M26.9537 57.9317L26.0655 57.4212L26.5255 57.1553L27.4137 57.6658L26.9537 57.9317Z" fill="#5198F0"/>
<path opacity="0.5" d="M26.0652 57.4212L25.8206 57.8653L26.7087 58.3785L26.9534 57.9318L26.0652 57.4212Z" fill="#5198F0"/>
<path d="M27.0386 61.1891C27.0386 61.1891 27.0413 61.1891 27.0439 61.1891V61.4018L26.7089 61.596V61.2636C26.8339 61.2716 26.9456 61.2476 27.0386 61.1918V61.1891Z" fill="#044BA3"/>
<path d="M28.9427 59.179L29.2804 58.9849L29.5622 59.1471V58.7642L29.9 58.5674L30.9822 59.1923V59.9661L31.6018 60.3251V63.0533L31.2641 63.2475L28.9427 61.9073V59.179Z" fill="#2A71C9"/>
<path d="M31.6018 63.0535L31.2641 63.2476V60.5193L31.6018 60.3252V63.0535Z" fill="#044BA3"/>
<path d="M30.9824 59.1924L30.6447 59.3892V60.163L30.9824 59.9662V59.1924Z" fill="#044BA3"/>
<path d="M30.9822 59.9662L30.6445 60.1629L31.2641 60.5193L31.6018 60.3251L30.9822 59.9662Z" fill="#5198F0"/>
<path d="M29.9002 58.5674L29.5624 58.7642L30.6447 59.3891L30.9824 59.1923L29.9002 58.5674Z" fill="#5198F0"/>
<path d="M29.5625 59.5381L28.9429 59.1791L29.2806 58.985L29.5625 59.1472V59.5381Z" fill="#5198F0"/>
<g style="mix-blend-mode:multiply" opacity="0.2">
<path d="M28.993 60.7482C28.993 60.3812 29.1207 60.1233 29.3308 60.0036C29.4291 59.9451 29.5488 59.9212 29.6791 59.9292V59.0091L30.5486 59.4399L30.6125 59.5489V60.469C30.7428 60.6099 30.8598 60.7721 30.9608 60.945C31.1097 61.2029 31.2161 61.4848 31.2666 61.7587V62.3703C31.2161 62.5857 31.1097 62.7399 30.9608 62.825C30.8731 62.8755 30.7747 62.8994 30.663 62.9021L29.6339 62.3064C29.5222 62.1788 29.4212 62.0352 29.3334 61.8863C29.126 61.5247 28.9957 61.1178 28.9957 60.7509L28.993 60.7482Z" fill="black"/>
</g>
<path d="M28.3045 60.9899C28.3045 60.6415 28.4268 60.3969 28.6263 60.2825C28.722 60.2267 28.8337 60.2028 28.956 60.2108V59.639L29.2006 59.195L29.6607 58.929L30.5488 59.4423V60.1682L30.1792 60.3809V60.5298C30.3042 60.6655 30.4159 60.817 30.5089 60.9819C30.7057 61.3249 30.8307 61.7105 30.8307 62.0615C30.8307 62.4099 30.7084 62.6545 30.5089 62.7688L30.1792 62.9603V63.173L29.8442 63.3671L28.956 62.8539V62.5215C28.831 62.3859 28.7193 62.2343 28.6263 62.0695C28.4295 61.7265 28.3045 61.3409 28.3045 60.9899Z" fill="#2A71C9"/>
<path opacity="0.5" d="M30.5064 60.9821C30.7031 61.3251 30.8281 61.7107 30.8281 62.0617L30.4931 62.2558C30.4931 61.9075 30.3708 61.5192 30.1713 61.1762L30.5064 60.9821Z" fill="#044BA3"/>
<path d="M30.4931 62.2534L30.8281 62.0592C30.8281 62.4076 30.7058 62.6522 30.5064 62.7666L30.1713 62.9607C30.3681 62.8463 30.4931 62.6017 30.4931 62.2534Z" fill="#044BA3"/>
<path opacity="0.5" d="M29.844 60.7211L30.1791 60.527C30.304 60.6626 30.4157 60.8142 30.5088 60.9791L30.1737 61.1732C30.078 61.0083 29.9663 60.8567 29.844 60.7211Z" fill="#5198F0"/>
<path d="M29.8442 60.7212V60.1494L30.0861 59.7054L30.5488 59.4395V60.1654L30.1766 60.3808V60.5297L29.8442 60.7212Z" fill="#044BA3"/>
<path d="M30.0861 59.7055L29.2006 59.1923L29.6607 58.9264L30.5488 59.4396L30.0861 59.7055Z" fill="#5198F0"/>
<path opacity="0.5" d="M29.2007 59.1924L28.9561 59.6391L29.8442 60.1497L30.0862 59.7056L29.2007 59.1924Z" fill="#5198F0"/>
<path d="M30.1736 62.9603C30.1736 62.9603 30.1763 62.9603 30.179 62.9603V63.173L29.8439 63.3671V63.0374C29.9689 63.0454 30.0806 63.0215 30.1736 62.9656V62.9603Z" fill="#044BA3"/>
<path d="M29.2271 68.1348V64.5104L31.5299 65.84V69.4644L29.2271 68.1348Z" fill="#414E5F"/>
<path d="M31.5301 65.8401L29.2273 64.5105L29.565 64.3164L31.8678 65.646L31.5301 65.8401Z" fill="#5B6879"/>
<g style="mix-blend-mode:multiply" opacity="0.2">
<path d="M31.0114 68.3714V66.5951L30.913 66.2999L29.945 65.9782V67.7545L31.0114 68.3714Z" fill="black"/>
</g>
<path d="M31.5301 69.4644V65.84L31.8678 65.6458V69.2702L31.5301 69.4644Z" fill="#29333F"/>
<path d="M30.719 68.0977V66.4118L29.6527 65.7949V67.4835L30.719 68.0977Z" fill="#414E5F"/>
<path d="M30.9131 67.9863V66.3004L30.719 66.4121V68.098L30.9131 67.9863Z" fill="#29333F"/>
<path d="M29.8468 65.6833L30.9131 66.3002L30.719 66.4119L29.6527 65.7949L29.8468 65.6833Z" fill="#5B6879"/>
<path d="M29.7936 66.0371L30.5807 66.4918V67.8586L30.4344 67.9437L29.6473 67.4863V66.8694L29.5277 66.2897L29.7936 66.0371Z" fill="#C1060B"/>
<path d="M30.4344 67.9437L30.5807 67.8586V66.4919L30.3174 66.7445L30.4344 67.3242V67.9437Z" fill="#8E0000"/>
<path d="M30.4342 67.9438L29.6471 67.4864V66.8695L30.4342 67.3242V67.9438Z" fill="#C1060B"/>
<path opacity="0.5" d="M30.3172 66.7441L29.5274 66.2894L29.6471 66.8691L30.4342 67.3238L30.3172 66.7441Z" fill="#8E0000"/>
<path d="M30.5807 66.4918L30.3174 66.7444L29.5277 66.2897L29.7936 66.0371L30.5807 66.4918Z" fill="#E82C31"/>
<path d="M28.0705 64.7765L28.4082 64.5824V66.8905L28.0705 67.0846V64.7765Z" fill="#BBC2C6"/>
<path d="M25.7943 63.0719L28.4082 64.5823L28.0705 64.7764L25.4566 63.266L25.7943 63.0719Z" fill="#EEF5F9"/>
<path d="M25.4564 63.2663L28.0703 64.7767V67.0848L25.4564 65.5771V63.2663Z" fill="#D4DBDF"/>
<path d="M26.443 64.2179L25.9776 63.96V65.4278L26.443 65.699V64.2179Z" fill="#414E5F"/>
<path d="M25.8103 63.8698V65.5238L25.9778 65.428V63.9602L25.8103 63.8698Z" fill="#29333F"/>
<path d="M26.443 64.7816V65.106L25.975 65.3772V65.0502L26.443 64.7816Z" fill="#29333F"/>
<path d="M25.9778 65.3776L25.3449 65.0107V64.6836L25.9778 65.0506V65.3776Z" fill="#414E5F"/>
<path d="M26.443 64.5906V64.782L25.975 65.0506L25.3448 64.6836L25.975 64.3193L26.443 64.5906Z" fill="#5B6879"/>
<path d="M25.9776 65.4284L25.8101 65.5241L26.443 65.8911V65.6996L25.9776 65.4284Z" fill="#5B6879"/>
<path d="M27.6158 64.8615L27.1505 64.6035V66.0714L27.6158 66.3426V64.8615Z" fill="#414E5F"/>
<path d="M26.9855 64.513V66.167L27.1504 66.0713V64.6034L26.9855 64.513Z" fill="#29333F"/>
<path d="M27.6158 65.4251V65.7496L27.1505 66.0208V65.6937L27.6158 65.4251Z" fill="#29333F"/>
<path d="M27.1504 66.0212L26.5175 65.6542V65.3271L27.1504 65.6941V66.0212Z" fill="#414E5F"/>
<path d="M27.6158 65.2341V65.4256L27.1505 65.6942L26.5176 65.3272L27.1505 64.9629L27.6158 65.2341Z" fill="#5B6879"/>
<path d="M27.1505 66.0716L26.9856 66.1674L27.6158 66.5343V66.3429L27.1505 66.0716Z" fill="#5B6879"/>
<g style="mix-blend-mode:multiply" opacity="0.3">
<path d="M52.4707 62.8197L61.9664 68.3001V67.1221L52.4707 61.639V62.8197Z" fill="black"/>
</g>
<path d="M52.1649 62.3064L61.6606 67.7896L61.9664 67.1221L52.4707 61.639L52.1649 62.3064Z" fill="#5B6879"/>
<g style="mix-blend-mode:multiply" opacity="0.3">
<path d="M52.4707 64.596L61.9664 70.0792V68.8985L52.4707 63.4154V64.596Z" fill="black"/>
</g>
<path d="M52.1649 64.0855L61.6606 69.566L61.9664 68.8985L52.4707 63.4154L52.1649 64.0855Z" fill="#5B6879"/>
<g style="mix-blend-mode:multiply" opacity="0.3">
<path d="M52.4707 66.372L61.9664 71.8551V70.6745L52.4707 65.194V66.372Z" fill="black"/>
</g>
<path d="M52.1649 65.8614L61.6606 71.3419L61.9664 70.6745L52.4707 65.194L52.1649 65.8614Z" fill="#5B6879"/>
<g style="mix-blend-mode:multiply" opacity="0.3">
<path d="M52.4707 68.1484L61.9664 73.6315V72.4508L52.4707 66.9704V68.1484Z" fill="black"/>
</g>
<path d="M52.1649 67.6378L61.6606 73.1183L61.9664 72.4508L52.4707 66.9704L52.1649 67.6378Z" fill="#5B6879"/>
<g style="mix-blend-mode:multiply" opacity="0.3">
<path d="M52.4707 69.9244L61.9664 75.4076V74.2269L52.4707 68.7464V69.9244Z" fill="black"/>
</g>
<path d="M52.1649 69.4139L61.6606 74.897L61.9664 74.2269L52.4707 68.7464L52.1649 69.4139Z" fill="#5B6879"/>
<g style="mix-blend-mode:multiply" opacity="0.3">
<path d="M52.4707 71.7034L61.9664 77.1839V76.0059L52.4707 70.5228V71.7034Z" fill="black"/>
</g>
<path d="M52.1649 71.1902L61.6606 76.6734L61.9664 76.0059L52.4707 70.5228L52.1649 71.1902Z" fill="#5B6879"/>
<g style="mix-blend-mode:multiply" opacity="0.3">
<path d="M52.4707 73.4801L61.9664 78.9606V77.7826L52.4707 72.2995V73.4801Z" fill="black"/>
</g>
<path d="M52.1649 72.9669L61.6606 78.45L61.9664 77.7826L52.4707 72.2995L52.1649 72.9669Z" fill="#5B6879"/>
<g style="mix-blend-mode:multiply" opacity="0.3">
<path d="M52.4707 75.2562L61.9664 80.7367V79.5587L52.4707 74.0755V75.2562Z" fill="black"/>
</g>
<path d="M52.1649 74.743L61.6606 80.2261L61.9664 79.5587L52.4707 74.0755L52.1649 74.743Z" fill="#5B6879"/>
<g style="mix-blend-mode:multiply" opacity="0.3">
<path d="M52.4707 77.0326L61.9664 82.5157V81.335L52.4707 75.8519V77.0326Z" fill="black"/>
</g>
<path d="M52.1649 76.522L61.6606 82.0025L61.9664 81.335L52.4707 75.8519L52.1649 76.522Z" fill="#5B6879"/>
<g style="mix-blend-mode:multiply" opacity="0.3">
<path d="M52.4707 78.8089L61.9664 84.2921V83.1114L52.4707 77.6283V78.8089Z" fill="black"/>
</g>
<path d="M52.1649 78.2984L61.6606 83.7788L61.9664 83.1114L52.4707 77.6283L52.1649 78.2984Z" fill="#5B6879"/>
<g style="mix-blend-mode:multiply" opacity="0.3">
<path d="M52.4707 80.5849L61.9664 86.068V84.8874L52.4707 79.4069V80.5849Z" fill="black"/>
</g>
<path d="M52.1649 80.0743L61.6606 85.5548L61.9664 84.8874L52.4707 79.4069L52.1649 80.0743Z" fill="#5B6879"/>
<g style="mix-blend-mode:multiply" opacity="0.3">
<path d="M52.4707 82.3616L61.9664 87.8447V86.6641L52.4707 81.1836V82.3616Z" fill="black"/>
</g>
<path d="M52.1649 81.851L61.6606 87.3342L61.9664 86.6641L52.4707 81.1836L52.1649 81.851Z" fill="#5B6879"/>
<g style="mix-blend-mode:multiply" opacity="0.3">
<path d="M52.4707 84.138L61.9664 89.6211V88.4431L52.4707 82.96V84.138Z" fill="black"/>
</g>
<path d="M52.1649 83.6274L61.6606 89.1105L61.9664 88.4431L52.4707 82.96L52.1649 83.6274Z" fill="#5B6879"/>
<path d="M35.205 54.3607L35.5533 54.1559L39.3346 56.3391L38.9836 56.5412L35.205 54.3607Z" fill="#5B6879"/>
<path d="M35.2048 58.5249V54.3607L38.9834 56.5412V60.708L35.2048 58.5249Z" fill="#414E5F"/>
<path d="M39.3346 60.5031V56.3389L38.9836 56.541V60.7078L39.3346 60.5031Z" fill="#29333F"/>
<path d="M35.5587 57.2881L38.7151 59.1097V56.6978L35.5587 54.8763V57.2881Z" fill="#FEFCF7"/>
<g style="mix-blend-mode:multiply" opacity="0.2">
<path d="M35.5587 54.98L38.7151 56.8015V56.6978L35.5587 54.8763V54.98Z" fill="black"/>
</g>
<path d="M35.5587 57.2884L35.4763 57.3389L38.7151 59.2083V59.1099L35.5587 57.2884Z" fill="#5B6879"/>
<path d="M35.4762 54.8288V57.339L35.5586 57.2885V54.8766L35.4762 54.8288Z" fill="#29333F"/>
<path d="M38.7151 57.7377C38.6858 57.6818 38.6566 57.6287 38.6247 57.5755C38.2391 56.908 37.7259 56.3656 37.1808 56.0518C36.6356 55.738 36.1224 55.6848 35.7369 55.9082C35.673 55.9454 35.6145 55.988 35.5614 56.0358V56.1395C35.6252 56.0731 35.697 56.0172 35.7741 55.972C36.149 55.754 36.6489 55.8045 37.1808 56.1103C37.7126 56.4161 38.2125 56.9453 38.5875 57.5941C38.6327 57.6739 38.6752 57.751 38.7151 57.8307V57.735V57.7377Z" fill="#BEBCB7"/>
<path d="M37.3428 58.129L37.8268 56.7249L37.2099 58.0093C37.2099 58.0093 37.1886 57.996 37.178 57.9907C37.0769 57.9322 36.9865 57.9269 36.92 57.9641C36.8908 57.9801 36.8668 58.004 36.8509 58.0359L37.505 58.4135C37.4864 58.3603 37.4625 58.3098 37.4359 58.2619C37.4093 58.2141 37.3774 58.1715 37.3428 58.1316V58.129Z" fill="#414E5F"/>
<path d="M35.9788 55.3101L35.7235 55.1612V55.0654L35.9788 55.2143V55.3101Z" fill="#BEBCB7"/>
<path d="M38.5928 56.8178L38.3348 56.6689V56.5758L38.5928 56.7221V56.8178Z" fill="#BEBCB7"/>
<path d="M36 57.3179L35.7421 57.169V57.0732L36 57.2222V57.3179Z" fill="#BEBCB7"/>
<path d="M40.2786 57.1983L40.6296 56.9935L44.4082 59.1766L44.0599 59.3814L40.2786 57.1983Z" fill="#5B6879"/>
<path d="M40.2785 61.3648V57.1979L44.0598 59.3811V63.5453L40.2785 61.3648Z" fill="#414E5F"/>
<path d="M44.4082 63.343V59.1761L44.0599 59.3809V63.5451L44.4082 63.343Z" fill="#29333F"/>
<path d="M40.635 60.1286L43.7887 61.9475V59.5356L40.635 57.7168V60.1286Z" fill="#FEFCF7"/>
<g style="mix-blend-mode:multiply" opacity="0.2">
<path d="M40.635 57.8178L43.7887 59.6393V59.5356L40.635 57.7168V57.8178Z" fill="black"/>
</g>
<path d="M40.635 60.1283L40.5499 60.1761L43.7887 62.0482V61.9471L40.635 60.1283Z" fill="#5B6879"/>
<path d="M40.5497 57.666V60.1762L40.6348 60.1284V57.7165L40.5497 57.666Z" fill="#29333F"/>
<path d="M43.7887 60.5749C43.7594 60.5191 43.7302 60.4659 43.6983 60.4127C43.3127 59.7453 42.7995 59.2028 42.2544 58.889C41.7093 58.5752 41.196 58.522 40.8105 58.7454C40.7466 58.7826 40.6881 58.8252 40.635 58.8731V58.9768C40.6988 58.9103 40.7706 58.8544 40.8477 58.8092C41.2226 58.5912 41.7225 58.6417 42.2544 58.9475C42.7862 59.2533 43.2861 59.7825 43.6611 60.4313C43.7063 60.5111 43.7488 60.5882 43.7887 60.668V60.5722V60.5749Z" fill="#BEBCB7"/>
<path d="M42.4194 60.9662L42.9033 59.5622L42.2864 60.8465C42.2864 60.8465 42.2651 60.8332 42.2545 60.8279C42.1534 60.7694 42.063 60.7641 41.9966 60.8013C41.9673 60.8173 41.9434 60.8412 41.9274 60.8731L42.5816 61.2507C42.563 61.1975 42.539 61.147 42.5124 61.0991C42.4858 61.0513 42.4539 61.0087 42.4194 60.9688V60.9662Z" fill="#414E5F"/>
<path d="M41.0524 58.1473L40.7971 57.9983V57.9053L41.0524 58.0515V58.1473Z" fill="#BEBCB7"/>
<path d="M43.6663 59.6551L43.411 59.5088V59.4131L43.6663 59.562V59.6551Z" fill="#BEBCB7"/>
<path d="M41.0735 60.1551L40.8182 60.0062V59.9131L41.0735 60.0593V60.1551Z" fill="#BEBCB7"/>
<path d="M45.3547 60.0354L45.7031 59.8333L49.4844 62.0138L49.1334 62.2186L45.3547 60.0354Z" fill="#5B6879"/>
<path d="M45.3548 64.202V60.0352L49.1334 62.2183V66.3852L45.3548 64.202Z" fill="#414E5F"/>
<path d="M49.4844 66.1802V62.0133L49.1334 62.2181V66.3849L49.4844 66.1802Z" fill="#29333F"/>
<path d="M45.7086 62.9659L48.8623 64.7874V62.3756L45.7086 60.554V62.9659Z" fill="#FEFCF7"/>
<g style="mix-blend-mode:multiply" opacity="0.2">
<path d="M45.7086 60.6551L48.8623 62.4766V62.3756L45.7086 60.554V60.6551Z" fill="black"/>
</g>
<path d="M45.7086 62.9655L45.6235 63.016L48.8623 64.8854V64.787L45.7086 62.9655Z" fill="#5B6879"/>
<path d="M45.6262 60.5033L45.6235 63.0161L45.7086 62.9656V60.5538L45.6262 60.5033Z" fill="#29333F"/>
<path d="M48.8623 63.4154C48.8331 63.3596 48.8038 63.3064 48.7719 63.2532C48.3863 62.5858 47.8731 62.0433 47.328 61.7295C46.7829 61.4157 46.2697 61.3626 45.8841 61.5859C45.8203 61.6232 45.7618 61.6657 45.7086 61.7136V61.8173C45.7724 61.7508 45.8442 61.695 45.9213 61.6498C46.2962 61.4317 46.7962 61.4822 47.328 61.788C47.8598 62.0938 48.3597 62.623 48.7347 63.2718C48.7799 63.3516 48.8224 63.4287 48.8623 63.5085V63.4128V63.4154Z" fill="#BEBCB7"/>
<path d="M47.4928 63.806L47.9768 62.402L47.3599 63.6864C47.3599 63.6864 47.3386 63.6731 47.328 63.6678C47.2269 63.6093 47.1365 63.6039 47.07 63.6412C47.0408 63.6571 47.0169 63.6811 47.0009 63.713L47.655 64.0906C47.6364 64.0374 47.6125 63.9869 47.5859 63.939C47.5593 63.8911 47.5274 63.8486 47.4928 63.8087V63.806Z" fill="#414E5F"/>
<path d="M46.1285 60.9845L45.8733 60.8383V60.7425L46.1285 60.8888V60.9845Z" fill="#BEBCB7"/>
<path d="M48.7424 62.495L48.4845 62.3461V62.2503L48.7424 62.3992V62.495Z" fill="#BEBCB7"/>
<path d="M46.1475 62.9923L45.8922 62.8461V62.7503L46.1475 62.8993V62.9923Z" fill="#BEBCB7"/>
</svg>
