<svg width="120" height="120" viewBox="0 0 120 120" fill="none" xmlns="http://www.w3.org/2000/svg">
<path d="M51.2927 63.1969C51.2927 63.1969 50.8378 63.3667 49.5398 63.6093C48.2417 63.858 47.5623 64.04 46.5433 65.053C45.5243 66.0659 44.5356 66.3389 42.4854 66.2479C41.4421 66.1994 41.0114 65.9143 40.8355 65.6474C40.8112 65.7687 40.6778 66.6482 42.5824 66.7332C44.6266 66.8242 45.6213 66.5451 46.6404 65.5382C47.6594 64.5253 48.3387 64.3433 49.6368 64.0946C50.9349 63.8459 51.3898 63.6821 51.3898 63.6821C51.3898 63.6821 51.3473 63.482 51.2988 63.1787C51.2988 63.1847 51.2927 63.1908 51.2927 63.1908V63.1969Z" fill="#222C2F"/>
<path d="M84.8904 47.3169C84.8904 48.7363 83.8956 50.465 82.6643 51.1747C82.0517 51.5265 81.4997 51.5629 81.0933 51.3324C80.6869 51.1019 80.4321 50.5985 80.4321 49.8888C80.4321 48.4694 81.433 46.7407 82.6582 46.031C83.2709 45.6792 83.8228 45.6428 84.2292 45.8733C84.6356 46.1038 84.8904 46.6072 84.8904 47.3169Z" fill="#6D7072"/>
<path d="M89.2153 42.7739C88.7543 42.5131 88.2145 42.3857 87.6201 42.3978C87.8142 42.9498 87.9173 43.5988 87.9173 44.3388C87.9173 48.0207 85.3333 52.5032 82.1428 54.3411C81.2572 54.8507 80.4201 55.1054 79.668 55.1297C79.9591 55.9667 80.4444 56.5794 81.0813 56.9433C82.1246 57.5317 83.5621 57.4407 85.1453 56.5248C88.3358 54.6808 90.9198 50.2043 90.9198 46.5225C90.9198 44.6725 90.2647 43.3744 89.2153 42.7739Z" fill="url(#paint0_linear_43_26346)"/>
<path d="M83.7744 54.8203C83.7077 54.8203 83.6531 54.7657 83.6531 54.699V50.356C83.6531 50.3074 83.6834 50.265 83.7259 50.2468C83.7683 50.2286 83.8229 50.2407 83.8593 50.271L86.0854 52.4425C86.1339 52.4911 86.1339 52.5639 86.0854 52.6124C86.0369 52.6609 85.9641 52.6609 85.9156 52.6124L83.8957 50.641V54.699C83.8957 54.7657 83.8411 54.8203 83.7744 54.8203Z" fill="#6D7072"/>
<path d="M87.0924 50.7865C87.0924 50.7865 87.0499 50.7865 87.0317 50.7683L84.3204 49.1609C84.2779 49.1366 84.2536 49.0881 84.2597 49.0396C84.2658 48.9911 84.3022 48.9547 84.3446 48.9365L87.984 47.9296C88.0508 47.9114 88.1175 47.9478 88.1357 48.0145C88.1539 48.0812 88.1175 48.1479 88.0508 48.1661L84.6904 49.1002L87.1591 50.5621C87.2198 50.5985 87.238 50.6712 87.2016 50.7258C87.1773 50.7622 87.1409 50.7865 87.0984 50.7865H87.0924Z" fill="#6D7072"/>
<path d="M84.8905 47.8629C84.8905 47.8629 84.8298 47.8508 84.8055 47.8326C84.7631 47.7962 84.757 47.7294 84.7813 47.6809L87.8262 42.5312C87.8626 42.4705 87.9354 42.4523 87.99 42.4887C88.0446 42.5251 88.0689 42.5979 88.0325 42.6525L85.2665 47.3352L88.4267 45.1819C88.4813 45.1455 88.5602 45.1576 88.5966 45.2122C88.633 45.2668 88.6209 45.3456 88.5663 45.382L84.9572 47.8386C84.9572 47.8386 84.9147 47.8568 84.8905 47.8568V47.8629Z" fill="#6D7072"/>
<path d="M84.0718 47.5898C84.0718 47.5898 84.0172 47.5777 83.993 47.5656L81.4696 45.5154C81.4151 45.4729 81.409 45.3941 81.4514 45.3455C81.4939 45.2909 81.5728 45.2849 81.6213 45.3273L83.9869 47.2502L84.7694 43.0345C84.7815 42.9678 84.8422 42.9253 84.9089 42.9375C84.9756 42.9496 85.0181 43.0102 85.0059 43.077L84.1871 47.4928C84.181 47.5352 84.1507 47.5716 84.1082 47.5838C84.0961 47.5838 84.0779 47.5898 84.0658 47.5898H84.0718Z" fill="#6D7072"/>
<path d="M78.7462 51.0595C78.6916 51.0595 78.6431 51.0231 78.631 50.9685C78.6128 50.9018 78.6552 50.835 78.7159 50.8229L83.1014 49.7129L80.0018 47.5717C79.9472 47.5353 79.9351 47.4565 79.9715 47.4019C80.0079 47.3473 80.0867 47.3351 80.1413 47.3715L83.4592 49.6644C83.4956 49.6886 83.5199 49.7372 83.5078 49.7857C83.5017 49.8342 83.4653 49.8706 83.4168 49.8827L78.7765 51.0595C78.7765 51.0595 78.7583 51.0595 78.7462 51.0595Z" fill="#6D7072"/>
<path d="M78.4122 54.8202C78.3819 54.8202 78.3455 54.8081 78.3212 54.7778C78.2788 54.7292 78.2788 54.6504 78.3334 54.6079L82.828 50.5743C82.8766 50.5318 82.9554 50.5318 82.9979 50.5864C83.0403 50.6349 83.0403 50.7138 82.9857 50.7562L78.4911 54.7899C78.4911 54.7899 78.4365 54.8202 78.4122 54.8202Z" fill="#6D7072"/>
<path d="M81.2697 55.6209C81.2697 55.6209 81.2393 55.6209 81.2272 55.6149C81.1665 55.5906 81.1362 55.5178 81.1605 55.4572L83.1076 50.5015C83.1318 50.4409 83.2046 50.4105 83.2653 50.4348C83.3259 50.4591 83.3562 50.5318 83.332 50.5925L81.3849 55.5482C81.3667 55.5967 81.3182 55.627 81.2697 55.627V55.6209Z" fill="#6D7072"/>
<path d="M91.0651 38.9401L87.6865 36.8596C86.0245 35.9133 83.7378 36.0589 81.2144 37.5147C76.1435 40.4444 72.031 47.5655 72.031 53.4249C72.031 56.3728 73.0743 58.4352 74.7545 59.3875L78.1331 61.468C79.7951 62.4082 82.0758 62.2626 84.5991 60.8069C89.67 57.8771 93.7825 50.756 93.7825 44.8966C93.7825 41.9547 92.7453 39.8924 91.0711 38.934L91.0651 38.9401ZM85.3512 57.7012C83.6346 58.6899 82.0758 58.7931 80.9475 58.1501C79.8011 57.5011 79.0914 56.0938 79.0914 54.0861C79.0914 50.0949 81.8938 45.2423 85.3452 43.2528C87.0678 42.258 88.6206 42.161 89.7549 42.8039C90.8952 43.453 91.6049 44.8602 91.6049 46.8619C91.6049 50.8531 88.8026 55.7056 85.3512 57.7012Z" fill="#3B4447"/>
<path d="M91.0654 38.9404C89.4034 37.9941 87.1166 38.1397 84.5933 39.5955C79.5224 42.5252 75.4038 49.6463 75.4038 55.5057C75.4038 58.4536 76.4471 60.516 78.1273 61.4683C79.7893 62.4084 82.07 62.2629 84.5933 60.8071C89.6642 57.8774 93.7767 50.7563 93.7767 44.8969C93.7767 41.955 92.7395 39.8927 91.0654 38.9343V38.9404ZM85.3515 57.7015C83.6349 58.6902 82.0761 58.7933 80.9478 58.1503C79.8014 57.5013 79.0917 56.0941 79.0917 54.0863C79.0917 50.0951 81.8941 45.2426 85.3455 43.2531C87.0681 42.2583 88.6209 42.1612 89.7552 42.8042C90.8955 43.4532 91.6052 44.8605 91.6052 46.8621C91.6052 50.8533 88.8029 55.7059 85.3515 57.7015Z" fill="#555E61"/>
<path d="M89.7616 42.8043C89.2399 42.507 88.6213 42.3675 87.9419 42.4039C88.409 42.4343 88.8396 42.5556 89.2218 42.7739C90.2772 43.3744 90.9262 44.6725 90.9262 46.5225C90.9262 50.2044 88.3422 54.6869 85.1517 56.5248C83.5685 57.4407 82.131 57.5317 81.0877 56.9433C80.0323 56.3428 79.3772 55.0448 79.3772 53.1948C79.3772 52.1697 79.5773 51.0778 79.9352 50.0042C79.4014 51.375 79.0981 52.7823 79.0981 54.0925C79.0981 56.1002 79.8078 57.5074 80.9542 58.1565C82.0825 58.7994 83.6413 58.6963 85.3579 57.7076C88.8154 55.712 91.6116 50.8595 91.6116 46.8683C91.6116 44.8666 90.9019 43.4593 89.7616 42.8103V42.8043Z" fill="url(#paint1_linear_43_26346)"/>
<path d="M84.5934 48.4816C84.5934 48.4816 84.5691 48.4816 84.557 48.4816C84.4963 48.4634 84.4539 48.3967 84.4781 48.3299L86.1705 42.5857C86.1886 42.519 86.2554 42.4826 86.3221 42.5008C86.3888 42.519 86.4252 42.5857 86.407 42.6525L84.7147 48.3967C84.6965 48.4512 84.648 48.4816 84.5994 48.4816H84.5934Z" fill="#86898B"/>
<path d="M79.0917 52.2725C79.0492 52.2725 79.0067 52.2483 78.9825 52.2058C78.9521 52.1451 78.9825 52.0723 79.0371 52.042L82.9494 50.1131L79.7164 49.0516C79.6558 49.0334 79.6194 48.9607 79.6376 48.9C79.6558 48.8333 79.7286 48.803 79.7892 48.8211L83.3012 49.9797C83.3498 49.9979 83.3801 50.0403 83.3862 50.0889C83.3862 50.1374 83.3619 50.1859 83.3194 50.2041L79.1402 52.2665C79.1402 52.2665 79.1038 52.2786 79.0856 52.2786L79.0917 52.2725Z" fill="#86898B"/>
<path d="M83.568 49.0517C83.568 49.0517 83.5073 49.0395 83.4891 49.0213L80.887 46.7164C80.8384 46.6739 80.8324 46.5951 80.8748 46.5465C80.9173 46.498 80.9961 46.492 81.0447 46.5344L83.4527 48.6695L83.6529 43.4045C83.6529 43.3378 83.7136 43.2832 83.7803 43.2893C83.847 43.2893 83.9016 43.3499 83.8955 43.4167L83.6893 48.9364C83.6893 48.9849 83.659 49.0274 83.6165 49.0456C83.6044 49.0517 83.5862 49.0577 83.568 49.0577V49.0517Z" fill="#86898B"/>
<path d="M85.5337 55.3297C85.4791 55.3297 85.4366 55.2933 85.4184 55.2448L83.9809 50.5136C83.9687 50.4711 83.9809 50.4226 84.0173 50.3862C84.0537 50.3559 84.1022 50.3437 84.1446 50.3619L88.336 52.0361C88.3967 52.0603 88.427 52.1331 88.4027 52.1938C88.3785 52.2544 88.3057 52.2848 88.245 52.2605L84.2902 50.6834L85.655 55.172C85.6732 55.2387 85.6368 55.3055 85.5761 55.3237C85.564 55.3237 85.5519 55.3237 85.5397 55.3237L85.5337 55.3297Z" fill="#86898B"/>
<path d="M89.1548 49.5552H89.1487L84.1809 49.2883C84.1263 49.2883 84.0839 49.2458 84.0717 49.1973C84.0596 49.1427 84.0839 49.0881 84.1263 49.0639L89.3792 45.9522C89.4398 45.9158 89.5126 45.94 89.543 45.9946C89.5794 46.0492 89.5551 46.1281 89.5005 46.1584L84.5934 49.0699L89.1608 49.3186C89.2275 49.3186 89.2761 49.3793 89.2761 49.446C89.2761 49.5127 89.2215 49.5613 89.1548 49.5613V49.5552Z" fill="#86898B"/>
<path d="M82.1971 56.7006C82.1971 56.7006 82.1789 56.7006 82.1729 56.7006C82.1062 56.6884 82.0637 56.6278 82.0758 56.561L83.1434 50.9503L80.1712 55.6209C80.1348 55.6755 80.062 55.6937 80.0014 55.6573C79.9468 55.6209 79.9286 55.5481 79.965 55.4874L83.2768 50.2831C83.3072 50.2345 83.3678 50.2164 83.4224 50.2346C83.477 50.2588 83.5073 50.3134 83.4952 50.368L82.3063 56.5974C82.2942 56.6581 82.2457 56.6945 82.185 56.6945L82.1971 56.7006Z" fill="#86898B"/>
<path d="M84.8059 48.0449C84.8059 48.0449 84.7513 48.0388 84.7331 48.0206C84.6785 47.9782 84.6724 47.9054 84.7149 47.8508L88.7182 42.8345C88.7607 42.7799 88.8335 42.7738 88.8881 42.8163C88.9426 42.8587 88.9487 42.9315 88.9063 42.9861L84.9029 48.0024C84.9029 48.0024 84.8423 48.0449 84.8059 48.0449Z" fill="#86898B"/>
<path d="M86.0069 47.8749C86.0069 49.2943 85.0121 51.023 83.7808 51.7327C83.1681 52.0845 82.6161 52.1209 82.2097 51.8904C81.8033 51.6599 81.5486 51.1565 81.5486 50.4407C81.5486 49.0213 82.5434 47.2926 83.7747 46.5829C84.3873 46.2311 84.9393 46.1947 85.3457 46.4252C85.7521 46.6557 86.0008 47.1592 86.0008 47.8689L86.0069 47.8749Z" fill="url(#paint2_linear_43_26346)"/>
<path d="M90.7501 40.1291C89.2276 39.2617 87.1228 39.3951 84.8058 40.7296C80.1473 43.4227 76.3684 49.9615 76.3684 55.3418C76.3684 58.0471 77.3268 59.9456 78.8675 60.8191C80.39 61.6804 82.4887 61.5469 84.8058 60.2125C89.4642 57.5193 93.2431 50.9805 93.2431 45.6003C93.2431 42.895 92.2908 41.0025 90.7501 40.123V40.1291ZM85.3517 57.7013C83.6351 58.69 82.0762 58.7931 80.948 58.1502C79.8016 57.5011 79.0919 56.0939 79.0919 54.0862C79.0919 50.095 81.8942 45.2424 85.3456 43.2529C87.0683 42.2581 88.6211 42.1611 89.7553 42.804C90.8957 43.453 91.6054 44.8603 91.6054 46.862C91.6054 50.8532 88.803 55.7057 85.3517 57.7013Z" fill="#3B4447"/>
<path d="M86.3159 49.9979L83.9685 48.7605C83.8836 48.712 83.7623 48.7181 83.6288 48.7969C83.362 48.9486 83.1497 49.3246 83.1497 49.6279C83.1497 49.7796 83.2042 49.8887 83.2952 49.9433L85.6426 51.1807C85.7276 51.2292 85.8489 51.2232 85.9823 51.1443C86.2492 50.9927 86.4615 50.6166 86.4615 50.3133C86.4615 50.1617 86.4069 50.0525 86.322 49.9979H86.3159Z" fill="url(#paint3_linear_43_26346)"/>
<path d="M85.2 52.2969L83.9868 51.2596C83.9868 51.2596 84.6904 49.7614 85.297 49.3914C85.9096 49.0275 85.6913 47.1592 85.6913 47.1592C85.6913 47.1592 86.8619 45.752 87.79 45.5094C88.718 45.2607 89.6097 46.2009 89.6097 46.2009L90.289 49.7553L85.2 52.2969Z" fill="#DEE5E9"/>
<path d="M85.1998 52.297L90.2889 49.7555L89.6338 46.3284C89.3245 46.1707 88.9424 46.0675 88.5542 46.1707C87.6261 46.4193 86.4554 47.8266 86.4554 47.8266C86.4554 47.8266 86.6677 49.6948 86.0612 50.0588C85.4728 50.4106 84.8056 51.8057 84.751 51.9148L85.1938 52.2909L85.1998 52.297Z" fill="#A2B4BF"/>
<path d="M98.7021 39.0677C98.0895 38.2003 97.8347 37.6119 96.8218 36.4534C96.8218 36.4534 93.4311 29.7872 87.329 30.8002C77.6239 32.4112 76.9446 40.8267 76.9446 40.8267L74.7913 49.3429L76.7808 53.6253L78.6308 52.9884C78.6308 52.8853 78.6248 52.7822 78.6248 52.673C78.6248 48.3542 82.3794 41.6941 86.0734 39.468C92.7214 35.4647 94.7291 43.8414 99.9941 40.5295C99.4603 40.1292 98.9266 39.4013 98.6961 39.0737L98.7021 39.0677Z" fill="#DEE5E9"/>
<g style="mix-blend-mode:multiply" opacity="0.2">
<path d="M78.6307 52.6671C78.6307 48.3484 82.3853 41.6883 86.0793 39.4622C92.7273 35.4588 94.735 43.8355 100 40.5236C99.4603 40.1294 98.9325 39.3954 98.702 39.0679C98.0893 38.2005 97.8346 37.6121 96.8216 36.4536C94.6137 34.1426 90.9682 32.6929 86.7283 35.0342C81.1418 38.1156 76.72 45.9827 76.72 52.3638C76.72 52.8006 76.7442 53.2191 76.7806 53.6194L78.6307 52.9825C78.6307 52.8794 78.6246 52.7763 78.6246 52.6671H78.6307Z" fill="black"/>
</g>
<path d="M66.5723 62.3234L71.3642 59.6909L73.9179 60.8373L65.1348 65.8111L66.5723 62.3234Z" fill="#546671"/>
<path d="M41.1328 65.9021L41.1995 65.4471L53.9981 65.7808V66.2357L45.7549 68.6983L41.1328 65.9021Z" fill="#939A9E"/>
<path d="M41.1328 65.4473L49.7157 63.3789L53.9981 65.7809L45.7549 68.2436L41.1328 65.4473Z" fill="#DEE5E9"/>
<path d="M70.8544 58.8236L66.3961 61.3712L63.151 66.891L58.8322 69.384C58.8322 69.384 55.4354 70.494 53.7916 69.384L51.4806 70.2817C51.4806 70.2817 47.447 68.5894 47.2286 67.722C47.0102 66.8546 46.4886 65.3442 46.4886 65.3442L47.9868 61.5593L45.5969 55.4208L49.9339 51.9998L64.1336 46.8439L69.714 48.2572L70.8483 58.8176L70.8544 58.8236Z" fill="#889AA5"/>
<path d="M56.6592 53.9545L50.9685 60.2658L51.0586 60.347L56.7493 54.0357L56.6592 53.9545Z" fill="#6E808B"/>
<path d="M56.6885 54.261L51 60.5743L51.0901 60.6555L56.7786 54.3422L56.6885 54.261Z" fill="#6E808B"/>
<path d="M56.7116 54.5669L51.0393 60.8865L51.1296 60.9676L56.8019 54.6479L56.7116 54.5669Z" fill="#6E808B"/>
<path d="M51.1532 61.2741L51.0623 61.1952L56.7397 54.8748L56.8307 54.9536L51.1532 61.2741Z" fill="#6E808B"/>
<path d="M51.1835 61.5835L51.0925 61.4986L56.77 55.1781L56.861 55.2631L51.1835 61.5835Z" fill="#6E808B"/>
<path d="M51.2138 61.8867L51.1228 61.8079L56.8003 55.4874L56.8913 55.5663L51.2138 61.8867Z" fill="#6E808B"/>
<path d="M51.2441 62.1962L51.1531 62.1174L56.8245 55.7969L56.9155 55.8758L51.2441 62.1962Z" fill="#6E808B"/>
<path d="M51.2685 62.5054L51.1775 62.4205L56.855 56.1L56.9459 56.185L51.2685 62.5054Z" fill="#6E808B"/>
<path d="M51.299 62.8088L51.208 62.73L56.8855 56.4095L56.9765 56.4884L51.299 62.8088Z" fill="#6E808B"/>
<path d="M56.9109 56.709L51.2334 63.0322L51.3237 63.1132L57.0011 56.7901L56.9109 56.709Z" fill="#6E808B"/>
<path d="M51.3532 63.4275L51.2683 63.3426L56.9397 57.0222L57.0307 57.1071L51.3532 63.4275Z" fill="#6E808B"/>
<path d="M56.9712 57.3305L51.2937 63.6537L51.384 63.7347L57.0614 57.4116L56.9712 57.3305Z" fill="#6E808B"/>
<path d="M57.0005 57.6324L51.3208 63.9536L51.411 64.0347L57.0907 57.7135L57.0005 57.6324Z" fill="#6E808B"/>
<path d="M57.0284 57.9422L51.3528 64.2589L51.443 64.34L57.1186 58.0233L57.0284 57.9422Z" fill="#6E808B"/>
<path d="M59.9847 50.5572L59.9734 50.678L65.3666 51.1811L65.3779 51.0604L59.9847 50.5572Z" fill="#6E808B"/>
<path d="M65.2442 51.4358L59.8518 50.9384L59.8639 50.8171L65.2563 51.3145L65.2442 51.4358Z" fill="#6E808B"/>
<path d="M59.7476 51.0746L59.7363 51.1954L65.1296 51.6976L65.1409 51.5768L59.7476 51.0746Z" fill="#6E808B"/>
<path d="M59.6201 51.3343L59.6089 51.4551L65.0022 51.9573L65.0134 51.8365L59.6201 51.3343Z" fill="#6E808B"/>
<path d="M64.886 52.2182L59.4937 51.7148L59.5058 51.5934L64.8982 52.0969L64.886 52.2182Z" fill="#6E808B"/>
<path d="M64.7647 52.4789L59.3723 51.9754L59.3844 51.8541L64.7768 52.3576L64.7647 52.4789Z" fill="#6E808B"/>
<path d="M59.2683 52.1183L59.2571 52.2391L64.6503 52.7423L64.6616 52.6215L59.2683 52.1183Z" fill="#6E808B"/>
<path d="M59.1468 52.3785L59.1355 52.4993L64.5287 53.0025L64.54 52.8817L59.1468 52.3785Z" fill="#6E808B"/>
<path d="M64.4065 53.2614L59.0142 52.758L59.0263 52.6367L64.4187 53.1401L64.4065 53.2614Z" fill="#6E808B"/>
<path d="M64.2854 53.5221L58.8931 53.0187L58.9052 52.8973L64.2976 53.4008L64.2854 53.5221Z" fill="#6E808B"/>
<path d="M58.7886 53.1593L58.7773 53.2801L64.1706 53.7833L64.1818 53.6625L58.7886 53.1593Z" fill="#6E808B"/>
<path d="M58.667 53.4161L58.6558 53.5369L64.0491 54.0391L64.0603 53.9183L58.667 53.4161Z" fill="#6E808B"/>
<path d="M63.9273 54.2986L58.5349 53.8012L58.547 53.6799L63.9394 54.1773L63.9273 54.2986Z" fill="#6E808B"/>
<path d="M58.4304 53.9305L58.4192 54.0513L63.8125 54.5535L63.8237 54.4327L58.4304 53.9305Z" fill="#6E808B"/>
<path d="M58.303 54.1961L58.2917 54.3169L63.6851 54.8191L63.6963 54.6984L58.303 54.1961Z" fill="#6E808B"/>
<path d="M58.1873 54.4625L58.176 54.5833L63.5693 55.0855L63.5806 54.9647L58.1873 54.4625Z" fill="#6E808B"/>
<path d="M63.4488 55.342L58.0564 54.8385L58.0685 54.7172L63.4609 55.2206L63.4488 55.342Z" fill="#6E808B"/>
<path d="M63.3272 55.6026L57.9348 55.0992L57.9469 54.9779L63.3393 55.4813L63.3272 55.6026Z" fill="#6E808B"/>
<path d="M57.8291 55.2411L57.8179 55.3619L63.2111 55.865L63.2224 55.7442L57.8291 55.2411Z" fill="#6E808B"/>
<path d="M57.7075 55.4973L57.6963 55.6181L63.0896 56.1204L63.1008 55.9996L57.7075 55.4973Z" fill="#6E808B"/>
<path d="M57.5869 55.7575L57.5757 55.8783L62.969 56.3805L62.9802 56.2598L57.5869 55.7575Z" fill="#6E808B"/>
<path d="M57.4773 56.0219L57.4661 56.1427L62.8593 56.6459L62.8706 56.5251L57.4773 56.0219Z" fill="#6E808B"/>
<path d="M57.3555 56.288L57.3442 56.4088L62.7375 56.912L62.7487 56.7912L57.3555 56.288Z" fill="#6E808B"/>
<path d="M62.6111 57.1614L57.2188 56.658L57.2309 56.5427L62.6233 57.0401L62.6111 57.1614Z" fill="#6E808B"/>
<path d="M57.1192 56.8025L57.1079 56.9233L62.5011 57.4264L62.5124 57.3056L57.1192 56.8025Z" fill="#6E808B"/>
<path d="M56.9915 57.0641L56.9802 57.1849L62.3735 57.6872L62.3848 57.5664L56.9915 57.0641Z" fill="#6E808B"/>
<path d="M52.6756 69.8147L51.8142 65.3382L51.5837 60.1884L51.0924 59.2543L50.1158 55.1175C50.1158 55.1175 49.4486 53.5041 49.0786 52.667L45.5969 55.4147L47.9868 61.5532L46.4886 65.3382C46.4886 65.3382 47.0042 66.8485 47.2286 67.7159C47.447 68.5833 51.4806 70.2756 51.4806 70.2756L52.6695 69.8147H52.6756Z" fill="#6E808B"/>
<path d="M61.9929 53.6192C61.9929 55.633 60.5796 58.0775 58.8387 59.0844C57.0979 60.0913 55.6846 59.2724 55.6846 57.2647C55.6846 55.2509 57.0979 52.8064 58.8387 51.7995C60.5796 50.7926 61.9929 51.6054 61.9929 53.6192Z" fill="#A2B4BF"/>
<path d="M60.8582 54.9719C60.8582 55.8393 60.2456 56.9008 59.4934 57.3315C58.7413 57.7682 58.1287 57.4164 58.1287 56.5429C58.1287 55.6695 58.7413 54.6141 59.4934 54.1834C60.2456 53.7527 60.8582 54.0985 60.8582 54.9719Z" fill="#889AA5"/>
<path d="M64.7403 59.3148C64.7403 59.3148 63.2299 59.3087 62.4535 60.3156C61.6771 61.3225 61.0887 63.5122 61.1797 65.059C61.2707 66.6057 62.3261 66.7938 62.3261 66.7938L62.8781 66.6725L64.1397 65.5624L64.6311 65.6534L66.1718 60.1397L64.7463 59.3209L64.7403 59.3148Z" fill="url(#paint4_linear_43_26346)"/>
<path d="M70.1933 52.6669L66.4205 52.8671L62.7507 58.0653L64.7403 59.3088L66.1657 60.1277C66.5357 60.2732 66.8269 60.5826 66.9906 61.0254L70.8545 58.8175L70.1933 52.6608V52.6669Z" fill="#6E808B"/>
<path d="M64.14 58.9387L62.7449 58.0713C62.7449 58.0713 57.7529 59.7758 54.9202 62.748L53.24 62.4083C53.24 62.4083 51.2262 64.416 50.9108 66.3146C50.6742 67.7521 51.4688 68.9471 52.2877 69.9661L53.792 69.3838C53.792 69.3838 52.8639 67.9584 54.538 65.5382C56.2182 63.118 59.8637 61.1709 60.2701 60.8615C60.6765 60.5582 64.1339 58.9387 64.1339 58.9387H64.14Z" fill="url(#paint5_linear_43_26346)"/>
<path d="M50.1222 55.1174L48.1873 57.671L51.0988 59.2542L55.6784 53.9892L50.1222 55.1174Z" fill="#A2B4BF"/>
<path d="M60.7856 49.5856L66.8028 49.8647L66.73 48.142L64.1824 47.6689L60.7856 49.5856Z" fill="#6E808B"/>
<path d="M67.1486 61.9838C67.1486 63.7246 65.9294 65.8416 64.419 66.7089C62.9147 67.5763 61.6895 66.8727 61.6895 65.1319C61.6895 63.391 62.9087 61.2802 64.419 60.4067C65.9233 59.5393 67.1486 60.2429 67.1486 61.9838Z" fill="#A2B4BF"/>
<path d="M77.7514 45.9399L76.5321 51.9995V52.5333C76.5321 52.5333 79.1161 53.6979 79.195 54.0073C79.2738 54.3166 78.6612 55.4388 78.6612 55.4388L72.3104 58.9326L65.6989 54.3288L67.4761 53.6858C67.4761 53.6858 66.0507 52.6789 65.6989 52.1209C65.347 51.5567 65.3592 47.8142 65.3592 47.8142L77.7453 45.9339L77.7514 45.9399Z" fill="#DEE5E9"/>
<g style="mix-blend-mode:multiply" opacity="0.2">
<path d="M69.1258 56.7126L76.5381 52.5334V51.9996L77.3448 47.972C75.1612 48.7909 69.0591 51.0715 68.6284 51.0291C68.2584 50.9927 66.4084 49.7614 65.3833 49.0517C65.4136 50.1981 65.4864 51.7752 65.7048 52.1209C66.0566 52.685 67.482 53.6858 67.482 53.6858L68.0279 53.5827L69.3078 54.3652L67.106 55.3054L69.1258 56.7126Z" fill="black"/>
</g>
<g style="mix-blend-mode:multiply" opacity="0.2">
<path d="M78.6674 55.4449C78.6674 55.4449 79.2801 54.3228 79.2012 54.0134C79.1951 53.9831 79.1588 53.9467 79.1102 53.8982L70.873 57.9318L72.3167 58.9387L78.6674 55.4449Z" fill="black"/>
</g>
<g style="mix-blend-mode:multiply" opacity="0.2">
<path d="M70.6665 55.263C68.9317 54.4805 68.6284 51.0291 68.6284 51.0291C68.2584 50.9927 66.4084 49.7614 65.3833 49.0517C65.4136 50.1981 65.4864 51.7752 65.7048 52.121C66.0566 52.6851 67.482 53.6859 67.482 53.6859L68.0279 53.5828L69.3078 54.3653L69.417 54.9415L70.7636 55.7846L76.532 52.5274V51.9936L70.6604 55.2569L70.6665 55.263Z" fill="black"/>
</g>
<path d="M71.6794 66.0355C71.7037 66.5025 71.3822 66.7087 70.9697 66.4964C70.5512 66.2841 70.1994 65.7322 70.1751 65.2651C70.1509 64.7981 70.4723 64.5918 70.8848 64.8041C71.2973 65.0164 71.6551 65.5684 71.6794 66.0355Z" fill="#889AA5"/>
<path d="M63.1935 70.6396C62.4049 70.6396 61.5193 70.3727 60.7065 69.5538C59.7057 68.5469 58.0376 67.0426 56.6971 65.8355C55.9207 65.138 55.2535 64.5314 54.8228 64.125C53.9251 63.2819 50.7285 61.632 49.57 61.074C49.1454 60.8678 48.9755 60.3643 49.1757 59.9397C49.3819 59.5151 49.8914 59.3453 50.31 59.5454C50.7588 59.7638 54.744 61.717 55.9874 62.8876C56.406 63.2819 57.0671 63.8763 57.8314 64.5678C59.1901 65.7931 60.8764 67.3156 61.9075 68.3528C62.9872 69.4386 64.1154 68.6985 64.164 68.6682C64.1761 68.6622 64.1882 68.65 64.2004 68.644L70.7695 64.7498C71.1698 64.5132 71.6915 64.6467 71.9341 65.047C72.1707 65.4473 72.0372 65.969 71.6369 66.2116L65.086 70.0936C64.6735 70.3605 63.982 70.6335 63.1874 70.6335L63.1935 70.6396Z" fill="#889AA5"/>
<g style="mix-blend-mode:screen" opacity="0.3">
<path d="M63.1995 70.4574C62.4535 70.4574 61.6103 70.2027 60.84 69.4263C59.8331 68.4194 58.165 66.909 56.8245 65.6959C56.0542 64.9983 55.3809 64.3978 54.9563 63.9914C54.0404 63.1301 50.8195 61.4742 49.6549 60.9101C49.3213 60.7463 49.1878 60.352 49.3455 60.0184C49.5093 59.6848 49.9036 59.5514 50.2372 59.7091C50.4131 59.794 54.6227 61.8442 55.8722 63.0209C56.2907 63.4152 56.9519 64.0157 57.7222 64.7072C59.0749 65.9264 60.7611 67.4489 61.7923 68.4861C62.9387 69.6386 64.1518 68.9107 64.2853 68.8197C64.2914 68.8197 64.3035 68.8076 64.3096 68.8015L70.8787 64.9073C71.1941 64.7193 71.6066 64.8224 71.7946 65.1439C71.9826 65.4593 71.8795 65.8718 71.558 66.0598L65.001 69.9419C64.6128 70.1966 63.9577 70.4574 63.2056 70.4574H63.1995Z" fill="#889AA5"/>
</g>
<g style="mix-blend-mode:screen" opacity="0.3">
<path d="M63.1997 70.2755C62.49 70.2755 61.6954 70.0328 60.9614 69.2989C59.9545 68.2859 58.2804 66.7756 56.9338 65.5624C56.1635 64.8649 55.4963 64.2644 55.0656 63.858C53.9435 62.8026 49.7642 60.7645 49.7218 60.7402C49.4791 60.625 49.3821 60.3338 49.4973 60.0912C49.6126 59.8486 49.9037 59.7515 50.1464 59.8668C50.3223 59.9517 54.5076 61.9898 55.7328 63.1483C56.1514 63.5426 56.8186 64.1431 57.5829 64.8346C58.9355 66.0538 60.6218 67.5762 61.6469 68.6074C62.9207 69.8873 64.3097 69.0077 64.3643 68.9653C64.3643 68.9653 64.3764 68.9531 64.3825 68.9531L70.9516 65.059C71.1821 64.9195 71.4793 64.9983 71.6128 65.2288C71.7523 65.4593 71.6734 65.7565 71.4429 65.896L64.8799 69.7841C64.5159 70.0268 63.8972 70.2694 63.1815 70.2694L63.1997 70.2755Z" fill="#889AA5"/>
</g>
<g style="mix-blend-mode:screen" opacity="0.3">
<path d="M63.1754 70.0937C62.5446 70.0937 61.7985 69.8814 61.0949 69.1717C60.0819 68.1587 58.4078 66.6423 57.0612 65.4292C56.2909 64.7316 55.6237 64.1311 55.1991 63.7308C54.0587 62.6511 49.8491 60.607 49.8067 60.5827C49.655 60.5099 49.5944 60.328 49.6672 60.1763C49.74 60.0247 49.9219 59.964 50.0736 60.0368C50.2495 60.1217 54.4105 62.1477 55.6176 63.288C56.0422 63.6883 56.7034 64.2828 57.4737 64.9803C58.8263 66.1995 60.5065 67.7159 61.5316 68.741C62.9146 70.1301 64.4189 69.1656 64.4795 69.1232C64.4795 69.1232 64.4856 69.1232 64.4917 69.1171L71.0608 65.223C71.2064 65.138 71.3883 65.1866 71.4733 65.3321C71.5582 65.4777 71.5097 65.6597 71.3702 65.7446L64.801 69.6388C64.71 69.6994 64.0428 70.0937 63.1815 70.0937H63.1754Z" fill="#889AA5"/>
</g>
<g style="mix-blend-mode:screen" opacity="0.3">
<path d="M63.1817 69.9115C62.5873 69.9115 61.8897 69.7114 61.2225 69.0442C60.2095 68.0251 58.5293 66.5148 57.1828 65.2956C56.4124 64.598 55.7452 63.9975 55.3206 63.5972C54.1621 62.4993 49.9282 60.437 49.8858 60.4188C49.8251 60.3884 49.8008 60.3157 49.8312 60.255C49.8615 60.1943 49.9343 60.1701 49.9949 60.2004C50.1708 60.2853 54.3076 62.2991 55.4904 63.4213C55.915 63.8216 56.5762 64.4221 57.3465 65.1136C58.6931 66.3328 60.3733 67.8492 61.3923 68.8682C62.8845 70.3725 64.5526 69.2868 64.5708 69.2747L71.1459 65.3805C71.2066 65.3441 71.2794 65.3684 71.3097 65.4229C71.3461 65.4775 71.3218 65.5564 71.2673 65.5867L64.6981 69.4809C64.6981 69.4809 64.043 69.9055 63.1757 69.9055L63.1817 69.9115Z" fill="#889AA5"/>
</g>
<path d="M88.6693 52.9217C88.275 52.7215 87.9293 52.7155 87.6867 52.8732L72.8015 62.0505L74.8517 65.3867L89.8097 56.1668C90.0523 56.0091 90.1918 55.6937 90.1736 55.2509C90.1311 54.3714 89.4578 53.3281 88.6754 52.9217H88.6693Z" fill="url(#paint6_linear_43_26346)"/>
<path d="M92.2668 53.316C92.2425 52.8489 91.8907 52.297 91.4722 52.0847C91.3206 52.0058 91.181 51.9876 91.0658 52.0119H91.0537L88.033 52.764C88.221 52.7519 88.4333 52.8065 88.6638 52.9217C89.4463 53.3281 90.1195 54.3654 90.162 55.2509C90.1802 55.5846 90.1013 55.8454 89.9618 56.0213L91.9999 53.8558V53.8437C92.1697 53.783 92.2789 53.6011 92.2607 53.3221L92.2668 53.316Z" fill="url(#paint7_linear_43_26346)"/>
<path d="M73.7543 62.1175C73.2933 61.8809 72.899 61.9173 72.6564 62.166L70.3696 64.7803C70.497 64.6954 70.685 64.6954 70.8913 64.8046C71.3037 65.0169 71.6616 65.5688 71.6859 66.0359C71.698 66.2846 71.6131 66.4544 71.4736 66.5333L74.743 65.4354C75.0827 65.3262 75.2889 64.9744 75.2586 64.4467C75.2161 63.5672 74.5428 62.5239 73.7603 62.1175H73.7543Z" fill="url(#paint8_linear_43_26346)"/>
<path d="M95.6086 46.5042C95.2264 46.2858 94.8807 46.2616 94.632 46.4072L79.3162 54.8445L81.2026 58.2777L96.5912 49.8039C96.8399 49.6584 96.9976 49.349 96.9976 48.9062C96.9976 48.0206 96.3789 46.947 95.6146 46.5103L95.6086 46.5042Z" fill="url(#paint9_linear_43_26346)"/>
<path d="M99.1874 47.0743C99.1874 46.6072 98.8599 46.037 98.4535 45.8065C98.3079 45.7216 98.1684 45.6913 98.0532 45.7155H98.041L94.99 46.316C95.178 46.316 95.3903 46.3767 95.6148 46.5041C96.379 46.9469 96.9977 48.0205 96.9977 48.9C96.9977 49.2336 96.9128 49.4884 96.7612 49.6582L98.9024 47.5898V47.5716C99.0722 47.5231 99.1935 47.3411 99.1935 47.0621L99.1874 47.0743Z" fill="url(#paint10_linear_43_26346)"/>
<path d="M78.0001 58.7631C78.0001 59.2302 77.6726 59.4182 77.2662 59.1877C76.8598 58.9572 76.5322 58.387 76.5322 57.92C76.5322 57.4529 76.8598 57.2649 77.2662 57.4954C77.6726 57.7319 78.0001 58.296 78.0001 58.7631Z" fill="#889AA5"/>
<path d="M73.5478 60.8617C72.6562 60.8617 71.6008 60.4795 70.2057 59.2179C68.2889 57.4891 63.7942 54.0924 63.7518 54.056C63.3757 53.7709 63.3029 53.2432 63.588 52.8671C63.867 52.491 64.4008 52.4182 64.7769 52.7033C64.9649 52.8428 69.3747 56.179 71.346 57.9562C73.0323 59.4848 73.7298 59.2239 74.4698 58.9449C75.2098 58.6659 76.3987 57.9077 76.793 57.6347C77.1812 57.3739 77.7089 57.471 77.9697 57.8592C78.2305 58.2474 78.1335 58.7751 77.7453 59.0359C77.6786 59.0784 76.1439 60.1216 75.0643 60.528C74.5972 60.704 74.1059 60.8495 73.5478 60.8495V60.8617Z" fill="#889AA5"/>
<g style="mix-blend-mode:screen" opacity="0.3">
<path d="M73.5538 60.6735C72.6986 60.6735 71.6795 60.3035 70.3269 59.0843C68.4041 57.3495 63.9033 53.9467 63.8609 53.9164C63.5697 53.6919 63.5091 53.2795 63.7274 52.9822C63.9519 52.6911 64.3643 52.6304 64.6615 52.8488C64.8496 52.9883 69.2533 56.3184 71.2185 58.0956C72.9897 59.6969 73.7358 59.4179 74.5304 59.1207C75.2886 58.8356 76.4957 58.0653 76.896 57.7923C77.1993 57.5861 77.6178 57.6649 77.8241 57.9682C78.0303 58.2715 77.9514 58.69 77.6481 58.8963C77.5814 58.9387 76.065 59.9699 75.0035 60.3702C74.5607 60.5401 74.0937 60.6796 73.5599 60.6796L73.5538 60.6735Z" fill="#889AA5"/>
</g>
<g style="mix-blend-mode:screen" opacity="0.3">
<path d="M73.5419 60.4977C72.723 60.4977 71.7585 60.1338 70.4423 58.9509C68.5134 57.2101 64.0066 53.8073 63.9642 53.7709C63.7519 53.6071 63.7094 53.3038 63.8671 53.0915C64.0309 52.8792 64.3342 52.8367 64.5465 52.9945C64.7345 53.134 69.1321 56.458 71.0913 58.2291C72.9414 59.9033 73.7784 59.5939 74.5851 59.2906C75.5132 58.9388 76.969 57.9501 76.9872 57.944C77.2055 57.7924 77.5088 57.8531 77.6604 58.0714C77.8121 58.2898 77.7514 58.5931 77.5331 58.7447C77.4724 58.7872 75.9681 59.8062 74.9248 60.2005C74.4881 60.3642 74.0392 60.5038 73.5358 60.5038L73.5419 60.4977Z" fill="#889AA5"/>
</g>
<g style="mix-blend-mode:screen" opacity="0.3">
<path d="M73.5537 60.3096C72.7652 60.3096 71.8372 59.9639 70.5694 58.8114C68.6345 57.0645 64.1216 53.6556 64.0792 53.6192C63.9457 53.5161 63.9215 53.3281 64.0185 53.1946C64.1216 53.0612 64.3097 53.0369 64.4431 53.134C64.4916 53.1703 69.0227 56.5914 70.9758 58.3565C72.9108 60.1095 73.8388 59.7577 74.6577 59.4544C75.61 59.0965 77.084 58.0957 77.0961 58.0896C77.2356 57.9986 77.4236 58.0289 77.5146 58.1685C77.6117 58.308 77.5753 58.496 77.4358 58.587C77.3751 58.6295 75.889 59.6364 74.87 60.0185C74.4515 60.1762 74.0269 60.3036 73.5537 60.3036V60.3096Z" fill="#889AA5"/>
</g>
<g style="mix-blend-mode:screen" opacity="0.3">
<path d="M73.542 60.1338C72.7898 60.1338 71.9164 59.7941 70.6911 58.678C68.7562 56.9251 64.2312 53.5101 64.1887 53.4798C64.1341 53.4373 64.122 53.3645 64.1644 53.3099C64.2069 53.2553 64.2797 53.2432 64.3343 53.2857C64.3767 53.3221 68.9078 56.737 70.8549 58.5021C72.7231 60.1945 73.6754 60.0246 74.7248 59.6304C75.6953 59.2664 77.1874 58.2534 77.2056 58.2413C77.2602 58.2049 77.3391 58.2171 77.3755 58.2716C77.4119 58.3262 77.3997 58.4051 77.3452 58.4415C77.2845 58.4839 75.8166 59.4787 74.8158 59.8548C74.4094 60.0064 74.003 60.1277 73.5541 60.1277L73.542 60.1338Z" fill="#889AA5"/>
</g>
<path d="M80.2625 54.9536C79.8137 54.6928 79.4133 54.711 79.1646 54.9476L76.7505 57.4466C76.8839 57.3678 77.0659 57.3799 77.2721 57.4952C77.6785 57.7317 78.0061 58.2958 78.0061 58.7629C78.0061 59.0116 77.9151 59.1754 77.7695 59.2481L81.0874 58.314C81.4332 58.223 81.6516 57.8834 81.6516 57.3496C81.6516 56.464 81.0329 55.3904 80.2686 54.9536H80.2625Z" fill="url(#paint11_linear_43_26346)"/>
<path d="M61.6955 44.1993C61.6955 43.7808 62.1444 43.0954 63.5941 42.4281C65.0438 41.7609 68.4284 39.5833 69.4353 38.4794C70.4422 37.3754 71.3521 36.3018 72.365 35.8469C73.3719 35.3919 75.0643 34.6459 77.1145 35.8469C79.1647 37.0479 80.7599 38.2125 80.5658 39.6986C80.3717 41.1847 79.7288 45.0242 77.9333 46.1282C76.1379 47.2321 71.1944 48.2936 70.1207 48.5787C69.0471 48.8638 65.2075 48.4089 64.4251 47.8872C63.6426 47.3656 61.6895 44.2054 61.6895 44.2054L61.6955 44.1993Z" fill="#414E52"/>
<path d="M80.3595 38.558C79.3829 38.8492 78.0242 39.389 77.3934 40.2686C76.3379 41.7304 74.0815 43.8837 69.8355 45.1514C66.9665 46.0067 64.2612 45.9946 62.8054 45.8975C63.3817 46.7406 64.0489 47.6323 64.431 47.887C65.2135 48.4087 69.0531 48.8636 70.1267 48.5785C71.2003 48.2934 76.1438 47.232 77.9393 46.128C79.7347 45.0241 80.3777 41.1845 80.5718 39.6984C80.6264 39.2981 80.5475 38.922 80.3655 38.558H80.3595Z" fill="#2E383B"/>
<path d="M44.0624 45.5518C44.0624 45.5518 45.5606 41.9973 49.0423 41.7365C52.524 41.4818 62.1624 42.5068 63.9578 44.1931C65.7532 45.8794 66.4144 47.4686 63.5514 49.5491C60.6945 51.6296 54.3862 55.2023 51.8932 55.4146C49.4002 55.6269 45.0026 54.3652 43.7227 52.6729C42.4368 50.9806 43.3648 47.3958 44.0563 45.5458L44.0624 45.5518Z" fill="#DEE5E9"/>
<g style="mix-blend-mode:multiply" opacity="0.2">
<path d="M51.8993 55.4205C54.3923 55.2082 60.7006 51.6356 63.5575 49.555C65.6502 48.0325 65.8564 46.7709 65.1104 45.5456C64.0185 45.0179 62.6841 44.4659 61.9319 44.4963C60.4944 44.5508 58.4563 45.2059 53.3915 46.4858C50.298 47.2683 46.6525 46.8073 43.9594 45.8307C43.2861 47.7414 42.4975 51.0775 43.7228 52.6849C45.0027 54.3772 49.4063 55.6328 51.8933 55.4266L51.8993 55.4205Z" fill="black"/>
</g>
<path d="M54.1438 43.6049C54.0407 44.0294 53.0398 44.1447 51.8995 43.8717C50.7591 43.5988 49.9221 43.0347 50.0191 42.6161C50.1222 42.1915 51.1231 42.0763 52.2634 42.3493C53.4038 42.6222 54.2408 43.1863 54.1438 43.6049Z" fill="#414E52"/>
<path d="M49.74 68.583C49.0909 68.4435 48.5268 68.207 48.1265 67.8491C47.987 67.7217 47.2227 66.8301 45.9974 61.377C45.3363 58.4291 44.8692 55.6207 44.8692 55.5904C44.7904 55.093 44.3173 54.7594 43.8259 54.8382C43.3285 54.9171 42.9949 55.3902 43.0738 55.8815C43.0738 55.9118 43.5469 58.7627 44.2202 61.7652C45.4879 67.4124 46.3674 68.7165 46.9194 69.2078C47.8657 70.0449 49.1395 70.4027 50.3769 70.518L49.74 68.577V68.583Z" fill="#151F22"/>
<path d="M53.8886 71.7617C52.3601 71.7617 50.6314 71.4705 49.4243 70.403C48.8723 69.9177 47.9928 68.6136 46.7251 62.9604C46.0518 59.9579 45.5787 57.107 45.5787 57.0767C45.4998 56.5793 45.8334 56.1122 46.3308 56.0334C46.8282 55.9545 47.2953 56.2881 47.3741 56.7855C47.3741 56.8159 47.8412 59.6243 48.5023 62.5722C49.7276 68.0192 50.4919 68.9169 50.6314 69.0442C51.8627 70.1361 54.6287 70.1057 56.6728 69.6205C57.1641 69.5052 57.6494 69.8025 57.7707 70.2938C57.8859 70.7851 57.5887 71.2704 57.0974 71.3917C56.6728 71.4948 55.3808 71.7677 53.8886 71.7677V71.7617Z" fill="#2E383B"/>
<path d="M50.2554 71.4827L50.3221 71.0278L63.1207 71.3614V71.8224L54.8774 74.279L50.2554 71.4827Z" fill="#939A9E"/>
<path d="M50.2554 71.0275L58.8322 68.9591L63.1207 71.3611L54.8774 73.8238L50.2554 71.0275Z" fill="#DEE5E9"/>
<path d="M93.953 30.8121C93.953 29.8719 93.2918 28.7255 92.479 28.2585C92.0665 28.0219 91.6905 28.0037 91.4236 28.1614C91.4054 28.1736 89.2278 29.4231 90.2772 31.2307C91.1506 32.7289 93.4434 31.8008 93.4495 31.8008C93.7589 31.6674 93.953 31.3216 93.953 30.8121Z" fill="url(#paint12_linear_43_26346)"/>
<path d="M92.6484 28.198C92.2663 27.9796 91.9266 27.9493 91.6658 28.0706C91.9023 28.0282 92.1814 28.0827 92.4846 28.2586C93.2974 28.7257 93.9586 29.8721 93.9586 30.8123C93.9586 31.1944 93.8494 31.4856 93.6614 31.6676C93.9343 31.522 94.1042 31.1884 94.1042 30.7152C94.1042 29.7872 93.4551 28.659 92.6484 28.198Z" fill="#B61617"/>
<path d="M98.0953 35.7013C98.0953 35.2525 97.792 34.7065 97.4099 34.476C97.2158 34.3608 97.0338 34.3487 96.9065 34.4215C96.9004 34.4215 95.851 35.0098 96.3423 35.8772C96.7487 36.599 97.8466 36.1684 97.8466 36.1684C97.9922 36.1077 98.0893 35.9439 98.0953 35.7013Z" fill="url(#paint13_linear_43_26346)"/>
<path d="M97.489 34.4517C97.3071 34.3425 97.1433 34.3304 97.022 34.385C97.1312 34.3668 97.2646 34.3911 97.4102 34.4821C97.7923 34.7125 98.1017 35.2585 98.0956 35.7073C98.0956 35.8893 98.041 36.0288 97.95 36.1137C98.0835 36.047 98.1623 35.8893 98.1684 35.6649C98.1684 35.2221 97.8712 34.6822 97.489 34.4578V34.4517Z" fill="#FFBC45"/>
<path d="M84.8179 51.0776C84.5571 50.7562 84.3023 50.4347 84.0415 50.1132C84.1082 50.192 84.1871 50.2648 84.2781 50.3194C84.8179 50.647 85.6428 50.4286 86.116 49.8281C86.5102 49.3307 86.5406 48.7302 86.2373 48.3481C86.2494 48.3602 86.2615 48.3845 86.2737 48.3966C86.2979 48.4269 86.3283 48.4633 86.3525 48.4937C86.3647 48.5058 86.3768 48.5301 86.3889 48.5422C86.401 48.5543 86.4132 48.5786 86.4253 48.5907C86.6194 48.8333 86.8135 49.076 87.0076 49.3125C87.3109 49.6886 87.2806 50.2952 86.8863 50.7925C86.4132 51.3931 85.5882 51.6114 85.0484 51.2839C84.9574 51.2293 84.8786 51.1565 84.8118 51.0776H84.8179Z" fill="url(#paint14_linear_43_26346)"/>
<path d="M83.8595 49.2761C83.8716 49.2155 83.8919 49.1063 83.9202 48.9486C83.8595 49.264 83.9687 49.5673 84.2356 49.7311C84.642 49.9797 85.2607 49.8099 85.6186 49.3611C85.9764 48.9061 85.934 48.342 85.5336 48.0933L86.0007 48.1418C86.5405 48.4694 86.5951 49.2276 86.1159 49.8281C85.6428 50.4286 84.8179 50.647 84.278 50.3194C83.9202 50.1011 83.7746 49.7007 83.8595 49.2761Z" fill="url(#paint15_linear_43_26346)"/>
<path d="M84.0596 49.5796C83.2407 48.5606 82.4158 47.5355 81.5969 46.5165C81.6454 46.5771 81.7061 46.6256 81.7728 46.6742C82.1792 46.9229 82.6948 46.6378 83.0527 46.1829C83.3499 45.8068 83.4712 45.4732 83.2407 45.1881L85.7034 48.2512C85.9339 48.5363 85.9096 48.9913 85.6124 49.3613C85.2545 49.8162 84.6358 49.98 84.2294 49.7313C84.1566 49.6888 84.102 49.6342 84.0535 49.5736L84.0596 49.5796Z" fill="url(#paint16_linear_43_26346)"/>
<path d="M85.7098 47.7233L85.5764 47.5352C85.8797 47.9174 85.8493 48.5179 85.4551 49.0152C84.982 49.6157 84.157 49.8341 83.6172 49.5066C83.5262 49.452 83.4473 49.3792 83.3806 49.3003C83.6293 49.6097 83.2654 49.179 83.5141 49.4884C83.5808 49.5672 83.6596 49.64 83.7506 49.6946C84.2905 50.0221 85.1154 49.8038 85.5885 49.2033C85.9828 48.7059 86.0131 48.1054 85.7098 47.7233Z" fill="url(#paint17_linear_43_26346)"/>
<path d="M85.3395 47.3291C85.1939 47.2381 85.0241 47.1896 84.8482 47.1835L85.0362 47.4201C85.0969 47.4383 85.1515 47.4626 85.2061 47.499C85.661 47.778 85.7095 48.4149 85.3031 48.9244C84.9028 49.4339 84.2052 49.6219 83.7442 49.3429C83.5198 49.2095 83.3985 48.985 83.3742 48.7363C83.3136 48.6575 83.2529 48.5847 83.1862 48.5058C83.1195 48.9122 83.265 49.3005 83.6108 49.5128C84.1506 49.8403 84.9756 49.6219 85.4487 49.0214C85.9218 48.4209 85.8733 47.6688 85.3334 47.3352L85.3395 47.3291Z" fill="#DEE5E9"/>
<path d="M85.3029 47.2261L85.1694 47.038C85.4727 47.4202 85.4424 48.0207 85.0481 48.5181C84.575 49.1186 83.75 49.343 83.2102 49.0094C83.1192 48.9548 83.0404 48.882 82.9736 48.8031C83.2223 49.1125 82.8584 48.6818 83.1071 48.9912C83.1677 49.07 83.2527 49.1428 83.3436 49.1974C83.8835 49.5249 84.7084 49.3066 85.1815 48.7061C85.5758 48.2087 85.6061 47.6082 85.3029 47.2261Z" fill="url(#paint18_linear_43_26346)"/>
<path d="M84.933 46.8257C84.7874 46.7347 84.6176 46.6861 84.4417 46.674L84.6297 46.9106C84.6904 46.9288 84.745 46.953 84.7996 46.9894C85.2545 47.2684 85.303 47.9053 84.8966 48.4149C84.4963 48.9244 83.7987 49.1124 83.3377 48.8334C83.1133 48.6999 82.992 48.4755 82.9677 48.2268C82.9071 48.148 82.8464 48.0752 82.7797 47.9963C82.713 48.4027 82.8585 48.7909 83.2043 49.0032C83.7441 49.3308 84.5691 49.1124 85.0422 48.5119C85.5153 47.9114 85.4668 47.1593 84.9269 46.8257H84.933Z" fill="#DEE5E9"/>
<path d="M84.8964 46.7227L84.7629 46.5347C85.0662 46.9168 85.0359 47.5173 84.6416 48.0147C84.1685 48.6152 83.3435 48.8336 82.8037 48.506C82.7127 48.4514 82.6339 48.3786 82.5671 48.2998C82.8158 48.6091 82.4519 48.1785 82.7006 48.4878C82.7673 48.5667 82.8462 48.6395 82.9371 48.6941C83.477 49.0216 84.3019 48.8032 84.775 48.2027C85.1693 47.7053 85.1996 47.1048 84.8964 46.7227Z" fill="url(#paint19_linear_43_26346)"/>
<path d="M84.527 46.3283C84.3814 46.2373 84.2116 46.1888 84.0357 46.1827L84.2237 46.4193C84.2844 46.4375 84.339 46.4678 84.3936 46.4981C84.8485 46.7771 84.897 47.414 84.4906 47.9236C84.0903 48.4331 83.3927 48.6211 82.9317 48.3421C82.7073 48.2086 82.586 47.9842 82.5617 47.7355C82.5011 47.6567 82.4343 47.5778 82.3737 47.505C82.307 47.9114 82.4525 48.2996 82.7983 48.5119C83.3381 48.8395 84.1631 48.6211 84.6362 48.0206C85.1093 47.4201 85.0608 46.668 84.5209 46.3344L84.527 46.3283Z" fill="#DEE5E9"/>
<path d="M84.4899 46.2191L84.3564 46.031C84.6597 46.4132 84.6294 47.0137 84.2351 47.5111C83.762 48.1116 82.9371 48.3299 82.3972 48.0024C82.3062 47.9478 82.2274 47.875 82.1606 47.7961C82.4093 48.1055 82.0454 47.6748 82.2941 47.9842C82.3608 48.063 82.4397 48.1358 82.5306 48.1904C83.0705 48.518 83.8954 48.2996 84.3685 47.6991C84.7628 47.2017 84.7931 46.6012 84.4899 46.2191Z" fill="url(#paint20_linear_43_26346)"/>
<path d="M84.1144 45.8248C83.9688 45.7338 83.799 45.6853 83.6231 45.6732L83.8111 45.9097C83.8718 45.9279 83.9264 45.9583 83.981 45.9886C84.4359 46.2676 84.4844 46.9045 84.078 47.414C83.6777 47.9236 82.9801 48.1116 82.5191 47.8326C82.2947 47.6991 82.1734 47.4747 82.1491 47.226C82.0885 47.1471 82.0217 47.0744 81.9611 46.9955C81.8944 47.4019 82.0399 47.7901 82.3857 48.0024C82.9255 48.33 83.7505 48.1116 84.2236 47.5111C84.6967 46.9106 84.6482 46.1584 84.1083 45.8248H84.1144Z" fill="#DEE5E9"/>
<path d="M84.0841 45.7219L83.9507 45.5338C84.2539 45.916 84.2236 46.5165 83.8293 47.0139C83.3562 47.6144 82.5313 47.8388 81.9914 47.5052C81.9005 47.4506 81.8216 47.3778 81.7549 47.299C82.0036 47.6083 81.6396 47.1776 81.8883 47.487C81.9551 47.5658 82.0339 47.6386 82.1249 47.6932C82.6647 48.0208 83.4897 47.8024 83.9628 47.2019C84.3571 46.7045 84.3874 46.104 84.0841 45.7219Z" fill="url(#paint21_linear_43_26346)"/>
<path d="M83.7079 45.3275C83.5623 45.2365 83.3925 45.188 83.2166 45.1819L83.4046 45.4185C83.4653 45.4367 83.5199 45.467 83.5745 45.4973C84.0294 45.7763 84.0779 46.4132 83.6715 46.9228C83.2712 47.4323 82.5736 47.6203 82.1126 47.3413C81.8882 47.2078 81.7669 46.9834 81.7426 46.7347C81.682 46.6559 81.6153 46.5831 81.5546 46.5042C81.4879 46.9106 81.6334 47.2988 81.9792 47.5111C82.519 47.8387 83.344 47.6203 83.8171 47.0198C84.2902 46.4193 84.2417 45.6672 83.7018 45.3336L83.7079 45.3275Z" fill="#DEE5E9"/>
<path d="M83.6713 45.2183L83.5378 45.0302C83.8411 45.4124 83.8108 46.0129 83.4165 46.5103C82.9434 47.1108 82.1184 47.3291 81.5786 47.0016C81.4876 46.947 81.4088 46.8742 81.342 46.7954C81.5907 47.1047 81.2268 46.674 81.4755 46.9834C81.5422 47.0622 81.6211 47.135 81.712 47.1896C82.2519 47.5172 83.0768 47.2988 83.5499 46.6983C83.9442 46.2009 83.9745 45.6004 83.6713 45.2183Z" fill="url(#paint22_linear_43_26346)"/>
<path d="M83.3014 44.8239C83.1558 44.7329 82.986 44.6844 82.8101 44.6783L82.9981 44.9149C83.0588 44.9331 83.1134 44.9634 83.168 44.9937C83.6229 45.2727 83.6714 45.9096 83.265 46.4192C82.8647 46.9287 82.1671 47.1167 81.7061 46.8377C81.4817 46.7042 81.3604 46.4798 81.3361 46.2311C81.2755 46.1523 81.2088 46.0795 81.1481 46.0006C81.0814 46.407 81.227 46.7952 81.5727 47.0075C82.1125 47.3351 82.9375 47.1167 83.4106 46.5162C83.8837 45.9157 83.8352 45.1636 83.2953 44.83L83.3014 44.8239Z" fill="#DEE5E9"/>
<path d="M82.3308 43.5805C82.8707 43.9081 82.9253 44.6602 82.4461 45.2668C81.973 45.8673 81.148 46.0917 80.6082 45.7581C80.0683 45.4306 80.0137 44.6723 80.4929 44.0718C80.9661 43.4713 81.791 43.2469 82.3308 43.5805Z" fill="#DEE5E9"/>
<path d="M81.1179 46.4799C80.8692 46.1706 80.6205 45.8612 80.3718 45.5519C80.4385 45.6307 80.5174 45.7035 80.6084 45.7581C81.1482 46.0856 81.9732 45.8673 82.4463 45.2668C82.8406 44.7694 82.8709 44.1689 82.5676 43.7867C82.6828 43.9263 82.792 44.0658 82.9073 44.2053C83.0468 44.3751 83.1802 44.545 83.3197 44.7148C83.623 45.0909 83.5927 45.6974 83.1984 46.1948C82.7253 46.7953 81.9004 47.0197 81.3605 46.6861C81.2695 46.6315 81.1907 46.5588 81.124 46.4799H81.1179Z" fill="url(#paint23_linear_43_26346)"/>
<path d="M38.9673 72.8959L38.8459 72.6836C38.9066 72.6472 45.0875 69.117 45.1179 65.7505C45.13 64.41 44.9056 63.021 44.6933 61.6865C44.3414 59.5211 44.0139 57.4709 44.6144 55.6208L44.8449 55.6936C44.2626 57.4891 44.5841 59.5089 44.9298 61.6441C45.1482 62.9906 45.3726 64.3857 45.3605 65.7505C45.3302 69.2565 39.222 72.7503 38.9673 72.8959Z" fill="#2E383B"/>
<path d="M34.7333 65.7264L34.5635 65.5505C34.6363 65.4838 41.6239 58.6053 42.3882 53.7285L42.6248 53.7649C41.8483 58.7205 35.0245 65.4352 34.7333 65.7203V65.7264Z" fill="#2E383B"/>
<path d="M41.9515 44.2659C41.1751 43.9262 40.4775 43.817 40.3926 44.0172L32.8105 61.7108C32.7256 61.9109 33.2837 62.3477 34.054 62.6873C34.8304 63.027 35.528 63.1362 35.6129 62.936L43.195 45.2425C43.2799 45.0423 42.7218 44.6056 41.9515 44.2659Z" fill="url(#paint24_linear_43_26346)"/>
<path d="M34.054 62.6814C33.2776 62.3417 32.7196 61.905 32.8105 61.7048L31.9614 64.9924L26.9026 76.9418C26.848 77.0631 27.1816 77.3179 27.6426 77.5241C28.1036 77.7243 28.5221 77.791 28.5706 77.6757L33.6294 65.7264L35.5644 62.9908C35.3763 63.106 34.7455 62.9908 34.054 62.6875V62.6814Z" fill="url(#paint25_linear_43_26346)"/>
<g style="mix-blend-mode:multiply" opacity="0.1">
<path d="M35.5647 62.9906C35.3766 63.1119 34.7458 62.9906 34.0543 62.6873C33.2779 62.3477 32.7199 61.9109 32.8109 61.7108L31.9617 64.9983C32.914 65.9507 33.6297 65.7262 33.6297 65.7262L35.5647 62.9906Z" fill="black"/>
</g>
<path d="M43.1951 45.2426C43.1102 45.4428 42.4066 45.3275 41.6362 44.9939C40.8598 44.6542 40.3018 44.2175 40.3928 44.0173C40.4777 43.8172 41.1813 43.9324 41.9517 44.266C42.7281 44.6057 43.2861 45.0424 43.1951 45.2426Z" fill="#DEE5E9"/>
<path d="M32.8592 76.6927C32.8592 78.1121 31.8644 79.8408 30.6331 80.5505C30.0205 80.9023 29.4685 80.9387 29.0681 80.7082C28.6617 80.4777 28.407 79.9743 28.407 79.2646C28.407 77.8452 29.4078 76.1165 30.6331 75.4068C31.2457 75.055 31.7977 75.0186 32.2041 75.2491C32.6105 75.4796 32.8653 75.9831 32.8653 76.6927H32.8592Z" fill="#6D7072"/>
<path d="M37.1838 72.15C36.7228 71.8891 36.183 71.7618 35.5886 71.7739C35.7827 72.3259 35.8858 72.9749 35.8858 73.7149C35.8858 77.3968 33.3018 81.8793 30.1113 83.7172C29.2257 84.2267 28.3886 84.4815 27.6365 84.5057C27.9276 85.3428 28.4129 85.9554 29.0498 86.3133C30.0931 86.9017 31.5306 86.8107 33.1138 85.8948C36.3043 84.0508 38.8883 79.5743 38.8883 75.8925C38.8883 74.0425 38.2332 72.7444 37.1838 72.1439V72.15Z" fill="url(#paint26_linear_43_26346)"/>
<path d="M31.7492 84.1964C31.6825 84.1964 31.6279 84.1418 31.6279 84.0751V79.732C31.6279 79.6835 31.6583 79.6411 31.7007 79.6229C31.7432 79.6047 31.7978 79.6168 31.8342 79.6471L34.0603 81.8186C34.1088 81.8672 34.1088 81.94 34.0603 81.9885C34.0117 82.037 33.939 82.037 33.8904 81.9885L31.8706 80.0171V84.0751C31.8706 84.1418 31.816 84.1964 31.7492 84.1964Z" fill="#6D7072"/>
<path d="M35.0672 80.1626C35.0672 80.1626 35.0248 80.1626 35.0066 80.1444L32.2952 78.537C32.2528 78.5127 32.2285 78.4642 32.2346 78.4156C32.2406 78.3671 32.277 78.3307 32.3255 78.3125L35.9589 77.3056C36.0256 77.2874 36.0923 77.3238 36.1105 77.3906C36.1287 77.4573 36.0923 77.524 36.0256 77.5422L32.6652 78.4763L35.134 79.9381C35.1885 79.9745 35.2128 80.0473 35.1764 80.1019C35.1522 80.1383 35.1158 80.1626 35.0733 80.1626H35.0672Z" fill="#6D7072"/>
<path d="M32.8592 77.239C32.8592 77.239 32.7986 77.2268 32.7743 77.2086C32.7318 77.1722 32.7258 77.1055 32.75 77.057L35.795 71.9072C35.8314 71.8466 35.9042 71.8284 35.9588 71.8648C36.0134 71.9012 36.0376 71.974 36.0012 72.0285L33.2353 76.7112L36.3955 74.5579C36.4501 74.5215 36.5289 74.5337 36.5653 74.5883C36.6017 74.6428 36.5896 74.7156 36.535 74.7581L32.9259 77.2147C32.9259 77.2147 32.8835 77.2329 32.8592 77.2329V77.239Z" fill="#6D7072"/>
<path d="M32.0406 76.9658C32.0406 76.9658 31.986 76.9537 31.9617 76.9355L29.4384 74.8853C29.3838 74.8428 29.3777 74.764 29.4202 74.7154C29.4627 74.6608 29.5415 74.6548 29.59 74.6972L31.9556 76.6201L32.7381 72.4044C32.7503 72.3377 32.8109 72.2952 32.8776 72.3074C32.9444 72.3195 32.9868 72.3801 32.9747 72.4469L32.1558 76.8627C32.1498 76.9051 32.1194 76.9415 32.077 76.9537C32.0648 76.9537 32.0466 76.9597 32.0345 76.9597L32.0406 76.9658Z" fill="#6D7072"/>
<path d="M26.7203 80.4355C26.6657 80.4355 26.6172 80.3991 26.6051 80.3446C26.5869 80.2778 26.6293 80.2111 26.69 80.199L31.0755 79.089L27.9759 76.9478C27.9213 76.9114 27.9092 76.8325 27.9456 76.7779C27.982 76.7233 28.0608 76.7112 28.1154 76.7476L31.4334 79.0404C31.4697 79.0647 31.494 79.1132 31.4819 79.1618C31.4758 79.2103 31.4394 79.2467 31.3909 79.2588L26.7507 80.4355C26.7507 80.4355 26.7325 80.4355 26.7203 80.4355Z" fill="#6D7072"/>
<path d="M26.381 84.1961C26.3506 84.1961 26.3143 84.1839 26.29 84.1536C26.2475 84.1051 26.2475 84.0262 26.3021 83.9838L30.7968 79.9501C30.8453 79.9076 30.9242 79.9076 30.9666 79.9622C31.0091 80.0107 31.0091 80.0896 30.9545 80.1321L26.4598 84.1657C26.4598 84.1657 26.4052 84.1961 26.381 84.1961Z" fill="#6D7072"/>
<path d="M29.2445 84.9968C29.2445 84.9968 29.2142 84.9968 29.2021 84.9907C29.1414 84.9664 29.1111 84.8937 29.1353 84.833L31.0824 79.8773C31.1067 79.8167 31.1795 79.7864 31.2401 79.8106C31.3008 79.8349 31.3311 79.9077 31.3068 79.9683L29.3598 84.924C29.3416 84.9725 29.293 85.0028 29.2445 85.0028V84.9968Z" fill="#6D7072"/>
<path d="M39.0401 68.3164L35.6616 66.2359C33.9996 65.2897 31.7128 65.4352 29.1895 66.891C24.1186 69.8207 20 76.9418 20 82.8013C20 85.7492 21.0433 87.8115 22.7235 88.7638L26.1021 90.8443C27.7641 91.7845 30.0448 91.6389 32.5681 90.1832C37.639 87.2535 41.7515 80.1324 41.7515 74.2729C41.7515 71.3311 40.7143 69.2687 39.0401 68.3104V68.3164ZM33.3202 87.0775C31.6036 88.0662 30.0448 88.1694 28.9165 87.5264C27.7701 86.8774 27.0604 85.4701 27.0604 83.4624C27.0604 79.4712 29.8628 74.6187 33.3142 72.623C35.0307 71.6283 36.5896 71.5312 37.7239 72.1742C38.8642 72.8232 39.5739 74.2304 39.5739 76.2321C39.5739 80.2233 36.7716 85.0759 33.3202 87.0654V87.0775Z" fill="#3B4447"/>
<path d="M39.0403 68.3164C37.3783 67.3702 35.0915 67.5158 32.5682 68.9715C27.4973 71.9012 23.3848 79.0223 23.3848 84.8818C23.3848 87.8297 24.4281 89.892 26.1083 90.8443C27.7702 91.7845 30.0509 91.6389 32.5743 90.1832C37.6452 87.2535 41.7577 80.1324 41.7577 74.2729C41.7577 71.3311 40.7205 69.2687 39.0463 68.3104L39.0403 68.3164ZM33.3203 87.0776C31.6038 88.0663 30.0449 88.1694 28.9167 87.5264C27.7702 86.8774 27.0606 85.4702 27.0606 83.4624C27.0606 79.4712 29.8629 74.6187 33.3143 72.6231C35.0309 71.6283 36.5897 71.5312 37.724 72.1742C38.8644 72.8232 39.574 74.2305 39.574 76.2321C39.574 80.2233 36.7717 85.0759 33.3203 87.0654V87.0776Z" fill="#555E61"/>
<path d="M37.7299 72.1801C37.2082 71.8829 36.5895 71.7434 35.9102 71.7797C36.3772 71.8101 36.8079 71.9314 37.19 72.1498C38.2454 72.7503 38.8945 74.0483 38.8945 75.8983C38.8945 79.5802 36.3105 84.0627 33.1199 85.9006C31.5368 86.8166 30.0992 86.9075 29.0559 86.3192C28.0005 85.7187 27.3454 84.4206 27.3454 82.5706C27.3454 81.5455 27.5456 80.4537 27.9035 79.38C27.3697 80.7509 27.0664 82.1581 27.0664 83.4683C27.0664 85.476 27.7761 86.8833 28.9225 87.5323C30.0507 88.1753 31.6096 88.0721 33.3262 87.0834C36.7836 85.0878 39.5799 80.2353 39.5799 76.2501C39.5799 74.2485 38.8763 72.8412 37.7299 72.1922V72.1801Z" fill="url(#paint27_linear_43_26346)"/>
<path d="M32.562 77.8638C32.562 77.8638 32.5378 77.8638 32.5256 77.8638C32.4589 77.8456 32.4225 77.7789 32.4407 77.7122L34.133 71.968C34.1512 71.9013 34.2179 71.8649 34.2847 71.8891C34.3514 71.9073 34.3878 71.9741 34.3635 72.0408L32.6712 77.785C32.653 77.8396 32.6045 77.8699 32.556 77.8699L32.562 77.8638Z" fill="#86898B"/>
<path d="M27.0665 81.6488C27.0241 81.6488 26.9816 81.6246 26.9573 81.5821C26.927 81.5214 26.9573 81.4487 27.0119 81.4183L30.9243 79.4894L27.6913 78.4279C27.6306 78.4037 27.5942 78.337 27.6124 78.2763C27.6306 78.2156 27.7034 78.1793 27.7641 78.1974L31.2761 79.356C31.3246 79.3742 31.3549 79.4106 31.361 79.4652C31.361 79.5137 31.3367 79.5622 31.2943 79.5804L27.115 81.6428C27.115 81.6428 27.0786 81.6549 27.0604 81.6549L27.0665 81.6488Z" fill="#86898B"/>
<path d="M31.537 78.4341C31.537 78.4341 31.4763 78.422 31.4581 78.4038L28.856 76.0989C28.8074 76.0564 28.8014 75.9775 28.8438 75.929C28.8863 75.8805 28.9651 75.8744 29.0137 75.9169L31.4217 78.052L31.6219 72.787C31.6219 72.7203 31.6826 72.6657 31.7493 72.6718C31.816 72.6718 31.8706 72.7324 31.8645 72.7991L31.6583 78.325C31.6583 78.3735 31.628 78.4159 31.5855 78.4341C31.5734 78.4402 31.5552 78.4463 31.537 78.4463V78.4341Z" fill="#86898B"/>
<path d="M33.5022 84.7056C33.4476 84.7056 33.4051 84.6692 33.3869 84.6207L31.9494 79.8894C31.9372 79.847 31.9494 79.7985 31.9858 79.7621C32.0222 79.7317 32.0707 79.7196 32.1131 79.7378L36.3045 81.4119C36.3652 81.4362 36.3955 81.509 36.3712 81.5696C36.347 81.6303 36.2742 81.6606 36.2135 81.6363L32.2587 80.0593L33.6235 84.5479C33.6417 84.6085 33.6053 84.6813 33.5446 84.6995C33.5325 84.6995 33.5204 84.6995 33.5083 84.6995L33.5022 84.7056Z" fill="#86898B"/>
<path d="M37.1292 78.931C37.1292 78.931 37.1292 78.931 37.1231 78.931L32.1614 78.6641C32.1068 78.6641 32.0643 78.6217 32.0522 78.5731C32.0401 78.5186 32.0643 78.47 32.1068 78.4397L37.3597 75.328C37.4142 75.2916 37.4931 75.3159 37.5234 75.3705C37.5598 75.4251 37.5416 75.5039 37.481 75.5342L32.5738 78.4458L37.1413 78.6945C37.208 78.6945 37.2626 78.7551 37.2565 78.8218C37.2565 78.8886 37.202 78.9371 37.1352 78.9371L37.1292 78.931Z" fill="#86898B"/>
<path d="M30.172 86.0764C30.172 86.0764 30.1599 86.0764 30.1477 86.0764C30.081 86.0643 30.0386 86.0036 30.0507 85.9369L31.1182 80.3261L28.1461 84.9967C28.1097 85.0513 28.0369 85.0695 27.9762 85.0331C27.9216 84.9967 27.9034 84.9239 27.9398 84.8633L31.2517 79.6589C31.282 79.6104 31.3427 79.5922 31.3973 79.6104C31.4519 79.6346 31.4822 79.6892 31.4701 79.7438L30.2812 85.9733C30.2691 86.0339 30.2205 86.0703 30.1599 86.0703L30.172 86.0764Z" fill="#86898B"/>
<path d="M32.7744 77.4212C32.7744 77.4212 32.7198 77.4151 32.7016 77.3969C32.647 77.3545 32.6409 77.2817 32.6834 77.2271L36.6928 72.2108C36.7353 72.1562 36.808 72.1501 36.8626 72.1926C36.9172 72.2351 36.9233 72.3078 36.8808 72.3624L32.8775 77.3787C32.8775 77.3787 32.8168 77.4273 32.7804 77.4273L32.7744 77.4212Z" fill="#86898B"/>
<path d="M33.9754 77.2572C33.9754 78.6766 32.9745 80.4053 31.7493 81.115C31.1366 81.4668 30.5846 81.5032 30.1782 81.2727C29.7718 81.0422 29.5171 80.5387 29.5171 79.823C29.5171 78.4036 30.5119 76.6749 31.7432 75.9652C32.3558 75.6134 32.9078 75.577 33.3142 75.8075C33.7206 76.038 33.9754 76.5414 33.9754 77.2511V77.2572Z" fill="url(#paint28_linear_43_26346)"/>
<path d="M33.0351 77.9487C33.0351 78.6462 32.5438 79.4954 31.9372 79.8472C31.634 80.0231 31.361 80.0413 31.1669 79.9261C30.9667 79.8108 30.8394 79.5682 30.8394 79.2164C30.8394 78.5188 31.3307 77.6696 31.9372 77.3178C32.2405 77.1419 32.5135 77.1298 32.7076 77.239C32.9077 77.3542 33.0291 77.5969 33.0291 77.9487H33.0351Z" fill="url(#paint29_linear_43_26346)"/>
<path d="M38.7186 69.5051C37.1961 68.6377 35.0914 68.7712 32.7743 70.1056C28.1158 72.7927 24.3369 79.3376 24.3369 84.7178C24.3369 87.4231 25.2953 89.3217 26.836 90.1951C28.3585 91.0565 30.4572 90.923 32.7743 89.5886C37.4327 86.8954 41.2116 80.3566 41.2116 74.9764C41.2116 72.2711 40.2593 70.3786 38.7186 69.4991V69.5051ZM33.3202 87.0774C31.6036 88.0661 30.0447 88.1692 28.9165 87.5262C27.7701 86.8772 27.0604 85.47 27.0604 83.4622C27.0604 79.471 29.8627 74.6185 33.3141 72.6229C35.0307 71.6281 36.5896 71.5311 37.7239 72.174C38.8642 72.8231 39.5739 74.2303 39.5739 76.232C39.5739 80.2232 36.7715 85.0757 33.3202 87.0653V87.0774Z" fill="#3B4447"/>
<path d="M45.1846 75.9168C44.5416 75.3041 44.0867 74.3458 44.0867 73.0962C44.0867 70.1241 43.1283 68.0617 41.5148 66.9638C41.6119 67.0306 41.7089 67.0973 41.7999 67.1761C38.5245 64.3617 35.8252 63.4639 35.8252 63.4639C34.1996 63.1303 32.2283 63.4154 30.0507 64.3495C26.9269 65.69 24.3672 67.8798 22.4504 70.4455L26.4962 72.7808C26.4962 72.7808 29.1651 74.1699 30.9242 73.0052C31.4762 72.6413 33.6416 70.8459 35.1702 70.209C35.9951 69.8632 38.4335 68.9958 39.7376 70.4698C40.4473 71.2705 40.3988 71.7375 40.6475 73.0902C40.975 74.8613 42.2124 78.1793 45.7729 76.6932C45.6334 76.4142 45.4333 76.1533 45.1785 75.9107L45.1846 75.9168Z" fill="#DEE5E9"/>
<g style="mix-blend-mode:multiply" opacity="0.2">
<path d="M35.1763 70.2151C36.0012 69.8694 38.4396 69.002 39.7438 70.4759C40.4534 71.2766 40.4049 71.7437 40.6536 73.0963C40.9812 74.8675 42.2186 78.1854 45.7791 76.6993C45.6396 76.4203 45.4394 76.1595 45.1847 75.9168C44.5417 75.3042 44.0868 74.3458 44.0868 73.0963C44.0868 66.7152 39.6831 64.5437 33.8176 67.0549C30.8454 68.3287 28.3828 70.3789 26.4963 72.787C26.4963 72.787 29.1652 74.176 30.9243 73.0114C31.4763 72.6474 33.6417 70.852 35.1702 70.2151H35.1763Z" fill="black"/>
</g>
<path style="mix-blend-mode:screen" opacity="0.5" d="M40.2107 65.9145C38.2515 65.2048 35.7161 65.4232 33.0351 66.5757C30.0507 67.8555 27.5881 69.9118 25.7017 72.3259L26.5023 72.7869C28.3888 70.3788 30.8454 68.3347 33.8236 67.0548C37.1233 65.6415 39.956 65.7083 41.806 67.1762C41.254 66.703 40.7203 66.2845 40.2107 65.9145Z" fill="url(#paint30_linear_43_26346)"/>
<path d="M34.6426 79.2465L32.2952 78.0091C32.2103 77.9606 32.089 77.9666 31.9555 78.0455C31.6886 78.1971 31.4763 78.5732 31.4763 78.8825C31.4763 79.0342 31.5309 79.1434 31.6219 79.1919L33.9693 80.4293C34.0542 80.4778 34.1755 80.4718 34.309 80.3929C34.5759 80.2413 34.7882 79.8652 34.7882 79.5619C34.7882 79.4103 34.7336 79.3011 34.6487 79.2465H34.6426Z" fill="url(#paint31_linear_43_26346)"/>
<path d="M40.4836 31.8009C40.3683 31.346 40.1014 31.1337 39.9013 31.0427C39.8831 30.8122 39.695 30.6302 39.4645 30.6302C39.234 30.6302 39.0217 30.8304 39.0217 31.073C39.0217 31.3157 39.2219 31.5158 39.4645 31.5158C39.5798 31.5158 39.689 31.4673 39.7678 31.3945C39.9498 31.7585 39.8952 32.6622 40.2773 33.566C40.7201 34.6275 42.0303 34.7064 42.0303 34.7064L42.1455 33.839C41.1508 33.7783 40.6837 32.5895 40.4896 31.8131L40.4836 31.8009Z" fill="#AEBFC8"/>
<path d="M47.993 56.9856L36.996 50.6106L35.334 50.9928L46.331 57.3678L47.993 56.9856Z" fill="#939A9E"/>
<path d="M42.0425 44.4175L44.954 45.3395C44.954 45.3395 47.6229 46.6376 47.6472 46.6436C47.6714 46.6497 49.2606 47.972 49.3516 48.4148C49.4365 48.8515 46.7009 48.0327 46.7009 48.0327L42.0485 45.57V44.4115L42.0425 44.4175Z" fill="#DEE5E9"/>
<path d="M46.7738 46.8865C46.519 46.9532 46.052 46.8865 45.3848 46.5104C44.7175 46.1344 44.2748 45.8432 44.2929 45.455L44.2505 44.1873L47.7382 46.0131L46.7738 46.8744V46.8865Z" fill="#939A9E"/>
<path d="M42.5946 33.2507L41.7818 31.4067C41.7818 31.4067 41.4664 30.5515 42.5946 30.139C43.7228 29.7266 44.0625 30.7274 44.0625 30.7274L44.8571 32.6866L42.5946 33.2507Z" fill="#2E383B"/>
<path d="M43.6201 36.6171C43.6201 36.6171 43.2683 36.1016 43.1955 35.3979H41.9702L41.6548 34.0028L42.7405 32.4561L44.8878 32.2498L45.1122 33.6995C45.1122 33.6995 46.4467 34.1302 46.4649 34.9066C46.4831 35.677 45.7855 36.1865 45.7855 36.1865C45.7855 36.1865 44.4207 36.9871 43.614 36.6171H43.6201Z" fill="#2E383B"/>
<path d="M50.771 47.2077C50.3221 47.2077 49.9278 47.1046 49.6731 46.9955C49.6549 46.9894 49.6367 46.9833 49.6246 46.9712C49.3819 46.8438 43.6802 43.7625 42.1335 42.6524C41.533 42.2218 41.1751 41.688 41.078 41.0814C40.9021 39.9896 41.6057 39.0191 41.9818 38.4974C42.37 37.9637 43.3709 36.0833 43.7227 35.404C43.8925 35.0764 44.2928 34.949 44.6204 35.1189C44.9479 35.2887 45.0753 35.689 44.9055 36.0166C44.772 36.2774 43.5771 38.5642 43.0615 39.2799C42.7946 39.6439 42.3033 40.3232 42.3943 40.8691C42.4367 41.1239 42.6066 41.3544 42.9099 41.5727C44.3292 42.5918 49.7641 45.5397 50.2251 45.7884C50.3767 45.849 51.1834 46.1099 51.7597 45.4366C51.9053 45.2667 52.0751 45.0484 52.2753 44.7936C53.4581 43.2954 55.0715 41.2452 56.8245 41.5545C58.4562 41.8396 62.0895 42.7434 62.2472 42.7798C62.6051 42.8708 62.8235 43.2287 62.7325 43.5865C62.6415 43.9444 62.2836 44.1628 61.9257 44.0718C61.8894 44.0597 58.1772 43.1438 56.594 42.8647C55.6235 42.6949 54.1253 44.5934 53.3186 45.6185C53.1184 45.8672 52.9364 46.1038 52.7726 46.2979C52.1721 47.0015 51.42 47.2138 50.771 47.2138V47.2077Z" fill="#889AA5"/>
<g style="mix-blend-mode:screen" opacity="0.3">
<path d="M50.771 47.0865C50.3464 47.0865 49.9643 46.9895 49.7217 46.8803C49.7095 46.8803 49.6974 46.8682 49.6792 46.8621C49.4366 46.7347 43.7409 43.6534 42.2002 42.5494C41.624 42.1369 41.2904 41.6335 41.1933 41.0572C41.0235 40.014 41.7089 39.0738 42.0789 38.5643C42.4732 38.0244 43.474 36.138 43.8258 35.4586C43.9653 35.1917 44.2929 35.0886 44.5598 35.2281C44.8267 35.3676 44.9298 35.6952 44.7903 35.9621C44.7357 36.0652 43.474 38.4915 42.9584 39.2072C42.6855 39.5833 42.1699 40.293 42.2669 40.8874C42.3155 41.1725 42.4974 41.4273 42.8311 41.6699C44.2626 42.701 49.752 45.6732 50.1645 45.8977C50.3222 45.9583 51.2078 46.2616 51.8446 45.5155C51.9902 45.3396 52.1661 45.1212 52.3663 44.8726C53.5309 43.3986 55.1201 41.3787 56.8003 41.676C58.4259 41.961 62.0592 42.8648 62.2109 42.9012C62.502 42.974 62.684 43.2712 62.6112 43.5624C62.5384 43.8535 62.2412 44.0355 61.9501 43.9627C61.9137 43.9506 58.2015 43.0347 56.6123 42.7496C55.575 42.5676 54.1011 44.4298 53.2216 45.5458C53.0275 45.7945 52.8394 46.0311 52.6756 46.2191C52.1055 46.8924 51.3837 47.0926 50.765 47.0926L50.771 47.0865Z" fill="#889AA5"/>
</g>
<g style="mix-blend-mode:screen" opacity="0.3">
<path d="M50.7713 46.965C50.3649 46.965 50.007 46.8741 49.7705 46.7709C49.7583 46.7709 49.7523 46.7588 49.7401 46.7527C49.4975 46.6254 43.8079 43.5501 42.2733 42.4461C41.7274 42.0518 41.4059 41.5787 41.3149 41.0328C41.1572 40.038 41.8184 39.1221 42.1762 38.6308C42.6554 37.9696 43.9232 35.5312 43.9353 35.507C44.0445 35.3008 44.2992 35.2158 44.5055 35.325C44.7117 35.4342 44.7966 35.689 44.6874 35.8952C44.6328 35.9983 43.3772 38.4185 42.8617 39.1282C42.5766 39.5225 42.0489 40.2564 42.152 40.8994C42.2066 41.2208 42.4067 41.4999 42.7646 41.7607C44.2143 42.7979 49.7462 45.8004 50.1162 46.0006C50.2436 46.0491 51.2384 46.407 51.9359 45.5821C52.0875 45.4062 52.2574 45.1878 52.4576 44.933C53.5979 43.4833 55.1689 41.4999 56.7763 41.785C58.3958 42.07 62.0292 42.9678 62.1808 43.0102C62.4113 43.0648 62.5448 43.2953 62.4902 43.5258C62.4356 43.7563 62.2051 43.8897 61.9746 43.8352C61.9382 43.823 58.2199 42.901 56.6307 42.622C55.5207 42.4279 54.0225 44.3265 53.1248 45.4608C52.9307 45.7094 52.7426 45.946 52.5849 46.134C52.039 46.7709 51.3536 46.965 50.7652 46.965H50.7713Z" fill="#889AA5"/>
</g>
<g style="mix-blend-mode:screen" opacity="0.3">
<path d="M50.7711 46.8438C50.3829 46.8438 50.0432 46.7528 49.8188 46.6558C49.8127 46.6558 49.8067 46.6497 49.7945 46.6436C49.5519 46.5163 43.8684 43.447 42.3398 42.3491C41.8182 41.9731 41.5149 41.5242 41.43 41.0147C41.2783 40.0745 41.9213 39.1829 42.267 38.7037C42.7523 38.0365 44.02 35.592 44.0382 35.5617C44.1171 35.4161 44.299 35.3554 44.4446 35.4343C44.5902 35.5131 44.6509 35.6951 44.572 35.8407C44.5174 35.9438 43.2679 38.3519 42.7584 39.0555C42.4612 39.4619 41.9152 40.2201 42.0244 40.9177C42.079 41.2695 42.2974 41.5788 42.6856 41.8578C44.1474 42.9072 49.746 45.94 50.0614 46.1038C50.1828 46.1523 51.2624 46.5587 52.0267 45.6549C52.1784 45.479 52.3482 45.2546 52.5484 45.0059C53.6099 43.6593 55.2112 41.6273 56.7519 41.9003C58.3653 42.1854 61.9926 43.0831 62.1503 43.1195C62.3141 43.1619 62.4111 43.3257 62.3748 43.4895C62.3323 43.6533 62.1685 43.7503 62.0047 43.7079C61.9684 43.6957 58.244 42.7737 56.6488 42.4947C55.466 42.2885 53.9374 44.2234 53.0276 45.382C52.8334 45.6307 52.6454 45.8612 52.4877 46.0492C51.9721 46.6558 51.317 46.8377 50.759 46.8377L50.7711 46.8438Z" fill="#889AA5"/>
</g>
<g style="mix-blend-mode:screen" opacity="0.3">
<path d="M50.7892 46.7226C50.2675 46.7226 49.8733 46.5527 49.8611 46.5527C49.8611 46.5527 49.8551 46.5527 49.849 46.5467C49.6064 46.4193 43.9289 43.35 42.4125 42.2582C41.9212 41.9064 41.63 41.4818 41.5512 41.0026C41.4056 40.111 42.0304 39.2436 42.37 38.7826C42.8614 38.1093 44.1351 35.6527 44.1473 35.6284C44.1958 35.5375 44.305 35.5071 44.3899 35.5496C44.4809 35.5981 44.5112 35.7073 44.4688 35.7922C44.4142 35.8953 43.1646 38.2973 42.6612 38.9949C42.3579 39.4195 41.7877 40.202 41.909 40.948C41.9697 41.3302 42.2123 41.6699 42.6187 41.9671C44.0987 43.0286 49.7701 46.0978 50.0128 46.2252C50.1159 46.2676 51.2926 46.7286 52.1236 45.746C52.2753 45.564 52.4572 45.3335 52.6513 45.0909C53.6946 43.7686 55.2717 41.7669 56.7396 42.0277C58.3531 42.3128 62.0895 43.2409 62.1259 43.2469C62.223 43.2712 62.2836 43.3682 62.2594 43.4653C62.2351 43.5623 62.1381 43.623 62.041 43.5987C62.0046 43.5866 58.2803 42.6646 56.679 42.3856C55.4234 42.1672 53.9312 44.0597 52.9425 45.3153C52.7484 45.564 52.5664 45.7945 52.4087 45.9825C51.9053 46.577 51.2926 46.7286 50.7952 46.7286L50.7892 46.7226Z" fill="#889AA5"/>
</g>
<g style="mix-blend-mode:screen" opacity="0.3">
<path d="M50.7894 46.6013C50.2981 46.6013 49.922 46.4435 49.9159 46.4375C49.8553 46.4011 44.0019 43.2409 42.4855 42.1551C42.0184 41.8215 41.7455 41.4212 41.6727 40.9784C41.5392 40.1352 42.1458 39.2982 42.4673 38.8493C42.9586 38.17 44.2445 35.7073 44.2567 35.677C44.2749 35.6466 44.3113 35.6345 44.3355 35.6527C44.3658 35.6709 44.378 35.7073 44.3598 35.7376C44.3052 35.8408 43.0617 38.2367 42.5643 38.9221C42.2489 39.3588 41.6606 40.1716 41.7879 40.9662C41.8547 41.3787 42.1094 41.7487 42.5522 42.0641C44.0626 43.1499 49.9038 46.304 49.9645 46.3344C50.013 46.3586 51.305 46.8985 52.2148 45.8248C52.3665 45.6429 52.5484 45.4124 52.7425 45.1637C53.7676 43.8656 55.3144 41.9004 56.7156 42.143C58.323 42.4281 62.0594 43.3501 62.0958 43.3622C62.1261 43.3683 62.1504 43.4046 62.1383 43.435C62.1322 43.4653 62.0958 43.4896 62.0655 43.4774C62.0291 43.4653 58.2987 42.5433 56.6974 42.2582C55.369 42.0277 53.8526 43.9566 52.8457 45.2304C52.6516 45.473 52.4696 45.7096 52.3119 45.8916C51.8388 46.4496 51.2564 46.5952 50.7894 46.5952V46.6013Z" fill="#889AA5"/>
</g>
<path d="M48.6844 47.8992C47.908 47.5595 47.2105 47.4503 47.1255 47.6505L39.5435 65.3441C39.4585 65.5442 40.0166 65.981 40.7869 66.3206C41.5633 66.6603 42.2609 66.7695 42.3458 66.5693L49.9279 48.8758C50.0128 48.6756 49.4548 48.2389 48.6844 47.8992Z" fill="url(#paint32_linear_43_26346)"/>
<path d="M40.7872 66.3147C40.0108 65.975 39.4527 65.5383 39.5437 65.3381L38.6945 68.6257L33.6357 80.5751C33.5811 80.6964 33.9148 80.9512 34.3757 81.1574C34.8367 81.3576 35.2553 81.4243 35.3038 81.3091L40.3626 69.3597L42.2975 66.6241C42.1095 66.7393 41.4787 66.6241 40.7872 66.3208V66.3147Z" fill="url(#paint33_linear_43_26346)"/>
<g style="mix-blend-mode:multiply" opacity="0.1">
<path d="M42.2973 66.618C42.1093 66.7393 41.4785 66.618 40.787 66.3147C40.0106 65.975 39.4525 65.5383 39.5435 65.3381L38.6943 68.6257C39.6466 69.578 40.3624 69.3536 40.3624 69.3536L42.2973 66.618Z" fill="black"/>
</g>
<path d="M49.928 48.8759C49.8431 49.0761 49.1395 48.9608 48.3691 48.6272C47.5927 48.2875 47.0347 47.8508 47.1257 47.6506C47.2106 47.4505 47.9142 47.5657 48.6846 47.8993C49.461 48.239 50.019 48.6757 49.928 48.8759Z" fill="#DEE5E9"/>
<path d="M44.2628 44.0596C44.1233 44.3082 44.7905 44.9451 45.7489 45.491C46.7073 46.0309 47.5989 46.2735 47.7385 46.0248L47.8112 45.8489C47.8112 45.8489 47.6111 45.5638 47.7749 45.1878C47.9326 44.8117 48.4299 44.8056 48.4299 44.8056L48.7332 44.4963L45.2394 42.5492L44.2628 44.0656V44.0596Z" fill="url(#paint34_linear_43_26346)"/>
<path d="M35.9588 80.3868L35.4736 80.1078C35.419 80.0775 35.3462 80.0836 35.2613 80.1321C35.0975 80.2291 34.958 80.4596 34.958 80.6537C34.958 80.7508 34.9944 80.8175 35.049 80.8478L35.5342 81.1269C35.5888 81.1572 35.6616 81.1511 35.7465 81.1026C35.9103 81.0056 36.0498 80.7751 36.0498 80.581C36.0498 80.4839 36.0134 80.4172 35.9588 80.3868Z" fill="url(#paint35_linear_43_26346)"/>
<path d="M36.0494 80.5811C36.0494 80.7752 35.916 81.0057 35.7462 81.1028C35.6612 81.1513 35.5884 81.1574 35.5339 81.127C35.4793 81.0967 35.4429 81.03 35.4429 80.933C35.4429 80.7389 35.5763 80.5084 35.7462 80.4113C35.8311 80.3628 35.9039 80.3567 35.9585 80.387C36.013 80.4174 36.0494 80.4841 36.0494 80.5811Z" fill="#B8BFC3"/>
<path d="M61.3014 42.2037L67.64 44.0476C67.64 44.0476 67.8948 44.1932 67.7371 44.9939C67.5915 45.7278 66.9789 45.8613 66.9789 45.8613L60.7373 44.169L61.3014 42.2037Z" fill="#2E383B"/>
<path d="M56.4179 41.6272L57.3945 41.2026L60.1847 41.4149V43.0405L59.9663 44.2536L58.8138 44.7874L57.1215 44.4963L56.8607 43.732L56.1328 43.55L56.4179 41.6272Z" fill="#2E383B"/>
<path d="M58.2565 41.2635L57.2436 42.1188L57.1101 43.5624L57.2739 44.0295L58.76 44.3085L60.1854 42.9922V41.4152L58.2565 41.2635Z" fill="#414E52"/>
<path d="M66.8995 46.6315C66.7418 46.6315 66.6084 46.7103 66.5295 46.8316C65.8623 46.5102 64.8069 46.0552 63.9698 45.9279C62.4352 45.7034 61.1432 45.1636 60.5366 44.7208C59.924 44.2719 59.8209 44.0596 59.4812 44.0354C59.1355 44.0111 58.9717 44.4357 58.9717 44.4357C58.9717 45.9218 63.4906 46.5223 64.8675 46.6921C65.6015 46.7831 66.1292 46.9469 66.4628 47.0803C66.4628 47.329 66.6629 47.5292 66.9116 47.5292C67.1603 47.5292 67.3605 47.329 67.3605 47.0803C67.3605 46.8316 67.1603 46.6315 66.9116 46.6315H66.8995Z" fill="#AEBFC8"/>
<path d="M43.0135 33.8998L45.1122 33.7057L44.8878 32.256L42.7405 32.4622L41.6548 34.009L41.9702 35.4041L42.1946 34.7187L43.0135 33.8998Z" fill="#414E52"/>
<path d="M46.4709 34.9067C46.4588 34.4033 45.8947 34.0515 45.4943 33.8574C44.9969 34.0029 44.6633 34.2638 44.6633 34.561C44.6633 35.0159 45.4276 35.3798 46.386 35.392C46.4406 35.2464 46.477 35.0826 46.4709 34.9007V34.9067Z" fill="#414E52"/>
<path d="M48.7394 44.4905C48.5999 44.7392 47.7083 44.4965 46.7499 43.9567C45.7915 43.4108 45.1243 42.7739 45.2638 42.5252C45.4033 42.2765 46.295 42.5191 47.2533 43.059C48.2117 43.6049 48.8789 44.2418 48.7394 44.4905Z" fill="#DEE5E9"/>
<path d="M48.175 44.175C48.078 44.3448 47.4775 44.175 46.8284 43.811C46.1794 43.441 45.7305 43.0104 45.8215 42.8405C45.9186 42.6707 46.5191 42.8405 47.1681 43.2045C47.8171 43.5745 48.266 44.0051 48.175 44.175Z" fill="#414E52"/>
<path d="M41.885 45.3396C41.885 45.3396 42.631 45.558 43.086 45.4913L47.338 47.7962L46.5313 49.2823L41.4058 46.5103L41.8789 45.3336L41.885 45.3396Z" fill="#C5CCD0"/>
<path d="M46.331 59.5273L35.334 53.1523V50.9929L46.331 57.3679V59.5273Z" fill="#C5CCD0"/>
<path d="M37.3418 50.744C37.0143 49.828 35.7769 49.5612 34.6487 50.1859L36.2318 53.0125C36.2318 53.0125 37.8696 52.2361 37.3418 50.744Z" fill="url(#paint36_linear_43_26346)"/>
<path d="M36.6139 52.2484C36.6139 52.9823 36.0983 53.2735 35.4675 52.9095C34.8366 52.5456 34.321 51.6539 34.321 50.92C34.321 50.186 34.8366 49.8888 35.4675 50.2588C36.0983 50.6228 36.6139 51.5144 36.6139 52.2484Z" fill="url(#paint37_linear_43_26346)"/>
<path d="M36.2803 52.1938C36.2803 52.7943 35.8557 53.0369 35.3401 52.7397C34.8245 52.4425 34.3999 51.7085 34.3999 51.108C34.3999 50.5075 34.8245 50.2649 35.3401 50.5621C35.8617 50.8593 36.2803 51.5933 36.2803 52.1938Z" fill="#F09041"/>
<path d="M48.2962 56.9856C47.9686 56.0697 46.7312 55.8028 45.603 56.4275L47.1862 59.2541C47.1862 59.2541 48.8239 58.4777 48.2962 56.9856Z" fill="url(#paint38_linear_43_26346)"/>
<path d="M47.5682 58.4961C47.5682 59.2301 47.0526 59.5212 46.4218 59.1573C45.791 58.7934 45.2754 57.9017 45.2754 57.1678C45.2754 56.4338 45.791 56.1366 46.4218 56.5066C47.0526 56.8705 47.5682 57.7622 47.5682 58.4961Z" fill="url(#paint39_linear_43_26346)"/>
<path d="M47.2346 58.4354C47.2346 59.0359 46.81 59.2785 46.2944 58.9813C45.7728 58.6841 45.3542 57.9501 45.3542 57.3496C45.3542 56.7491 45.7788 56.5065 46.2944 56.8037C46.8161 57.1009 47.2346 57.8349 47.2346 58.4354Z" fill="#F09041"/>
<path d="M44.9663 48.6941C44.0201 46.0434 40.4352 45.273 37.178 47.0806L41.7636 55.2571C41.7636 55.2571 46.507 53.0068 44.9663 48.6941Z" fill="url(#paint40_linear_43_26346)"/>
<path d="M42.8492 53.0552C42.8492 55.1721 41.3631 56.0273 39.5313 54.9719C37.6995 53.9165 36.2134 51.3446 36.2134 49.2277C36.2134 47.1108 37.6995 46.2555 39.5313 47.311C41.3631 48.3664 42.8492 50.9382 42.8492 53.0552Z" fill="url(#paint41_linear_43_26346)"/>
<path d="M41.885 52.8915C41.885 54.6262 40.6658 55.3299 39.1615 54.4625C37.6572 53.5951 36.438 51.4842 36.438 49.7434C36.438 48.0025 37.6572 47.305 39.1615 48.1724C40.6658 49.0398 41.885 51.1506 41.885 52.8915Z" fill="#E3E3E4"/>
<path d="M41.7513 52.3879C41.7513 53.5647 40.9264 54.0439 39.9013 53.4555C38.8823 52.8671 38.0513 51.4356 38.0513 50.2589C38.0513 49.0821 38.8762 48.603 39.9013 49.1913C40.9203 49.7797 41.7513 51.2112 41.7513 52.394V52.3879Z" fill="white"/>
<path d="M41.885 52.8915C41.885 54.6262 40.6658 55.3299 39.1615 54.4625C37.6572 53.5951 36.438 51.4842 36.438 49.7434C36.438 48.0025 37.6572 47.305 39.1615 48.1724C40.6658 49.0398 41.885 51.1506 41.885 52.8915Z" fill="url(#paint42_linear_43_26346)"/>
<defs>
<linearGradient id="paint0_linear_43_26346" x1="79.668" y1="49.8525" x2="90.9198" y2="49.8525" gradientUnits="userSpaceOnUse">
<stop stop-color="#D0D2D4"/>
<stop offset="1" stop-color="#86898B"/>
</linearGradient>
<linearGradient id="paint1_linear_43_26346" x1="84.6179" y1="57.3983" x2="86.3588" y2="40.9846" gradientUnits="userSpaceOnUse">
<stop stop-color="#D0D2D4"/>
<stop offset="1" stop-color="#86898B"/>
</linearGradient>
<linearGradient id="paint2_linear_43_26346" x1="81.5486" y1="49.1669" x2="86.0069" y2="49.1669" gradientUnits="userSpaceOnUse">
<stop stop-color="#D0D2D4"/>
<stop offset="1" stop-color="#86898B"/>
</linearGradient>
<linearGradient id="paint3_linear_43_26346" x1="85.1574" y1="49.355" x2="84.4538" y2="50.5742" gradientUnits="userSpaceOnUse">
<stop stop-color="#9EA5A9"/>
<stop offset="0.02" stop-color="#A9B0B4"/>
<stop offset="0.06" stop-color="#C0C7CB"/>
<stop offset="0.11" stop-color="#D1D8DC"/>
<stop offset="0.16" stop-color="#DAE1E5"/>
<stop offset="0.22" stop-color="#DEE5E9"/>
<stop offset="0.4" stop-color="#DAE1E5"/>
<stop offset="0.54" stop-color="#D0D7DB"/>
<stop offset="0.67" stop-color="#BFC6CA"/>
<stop offset="0.8" stop-color="#A7AEB2"/>
<stop offset="0.84" stop-color="#9EA5A9"/>
<stop offset="1" stop-color="#6F7980"/>
</linearGradient>
<linearGradient id="paint4_linear_43_26346" x1="64.6614" y1="60.3823" x2="61.671" y2="67" gradientUnits="userSpaceOnUse">
<stop stop-color="#C7D5DC"/>
<stop offset="1" stop-color="#586770"/>
</linearGradient>
<linearGradient id="paint5_linear_43_26346" x1="57.2858" y1="62.5478" x2="51.7175" y2="70.4696" gradientUnits="userSpaceOnUse">
<stop stop-color="#C7D5DC"/>
<stop offset="1" stop-color="#586770"/>
</linearGradient>
<linearGradient id="paint6_linear_43_26346" x1="80.7487" y1="57.2852" x2="82.7995" y2="60.464" gradientUnits="userSpaceOnUse">
<stop stop-color="#9EA5A9"/>
<stop offset="0.02" stop-color="#A9B0B4"/>
<stop offset="0.06" stop-color="#C0C7CB"/>
<stop offset="0.11" stop-color="#D1D8DC"/>
<stop offset="0.16" stop-color="#DAE1E5"/>
<stop offset="0.22" stop-color="#DEE5E9"/>
<stop offset="0.4" stop-color="#DAE1E5"/>
<stop offset="0.54" stop-color="#D0D7DB"/>
<stop offset="0.67" stop-color="#BFC6CA"/>
<stop offset="0.8" stop-color="#A7AEB2"/>
<stop offset="0.84" stop-color="#9EA5A9"/>
<stop offset="1" stop-color="#6F7980"/>
</linearGradient>
<linearGradient id="paint7_linear_43_26346" x1="89.4234" y1="51.8797" x2="91.4681" y2="55.0587" gradientUnits="userSpaceOnUse">
<stop stop-color="#858C90"/>
<stop offset="0.02" stop-color="#90979B"/>
<stop offset="0.06" stop-color="#A7AEB2"/>
<stop offset="0.11" stop-color="#B8BFC3"/>
<stop offset="0.16" stop-color="#C1C8CC"/>
<stop offset="0.22" stop-color="#C5CCD0"/>
<stop offset="0.4" stop-color="#C1C8CC"/>
<stop offset="0.54" stop-color="#B7BEC2"/>
<stop offset="0.67" stop-color="#A6ADB1"/>
<stop offset="0.8" stop-color="#8E9599"/>
<stop offset="0.84" stop-color="#858C90"/>
<stop offset="1" stop-color="#566067"/>
</linearGradient>
<linearGradient id="paint8_linear_43_26346" x1="71.7667" y1="62.7183" x2="73.8901" y2="66.015" gradientUnits="userSpaceOnUse">
<stop stop-color="#858C90"/>
<stop offset="0.02" stop-color="#90979B"/>
<stop offset="0.06" stop-color="#A7AEB2"/>
<stop offset="0.11" stop-color="#B8BFC3"/>
<stop offset="0.16" stop-color="#C1C8CC"/>
<stop offset="0.22" stop-color="#C5CCD0"/>
<stop offset="0.4" stop-color="#C1C8CC"/>
<stop offset="0.54" stop-color="#B7BEC2"/>
<stop offset="0.67" stop-color="#A6ADB1"/>
<stop offset="0.8" stop-color="#8E9599"/>
<stop offset="0.84" stop-color="#858C90"/>
<stop offset="1" stop-color="#566067"/>
</linearGradient>
<linearGradient id="paint9_linear_43_26346" x1="87.4866" y1="50.4651" x2="89.3791" y2="53.7466" gradientUnits="userSpaceOnUse">
<stop stop-color="#9EA5A9"/>
<stop offset="0.02" stop-color="#A9B0B4"/>
<stop offset="0.06" stop-color="#C0C7CB"/>
<stop offset="0.11" stop-color="#D1D8DC"/>
<stop offset="0.16" stop-color="#DAE1E5"/>
<stop offset="0.22" stop-color="#DEE5E9"/>
<stop offset="0.4" stop-color="#DAE1E5"/>
<stop offset="0.54" stop-color="#D0D7DB"/>
<stop offset="0.67" stop-color="#BFC6CA"/>
<stop offset="0.8" stop-color="#A7AEB2"/>
<stop offset="0.84" stop-color="#9EA5A9"/>
<stop offset="1" stop-color="#6F7980"/>
</linearGradient>
<linearGradient id="paint10_linear_43_26346" x1="96.4154" y1="45.4911" x2="98.3079" y2="48.7666" gradientUnits="userSpaceOnUse">
<stop stop-color="#858C90"/>
<stop offset="0.02" stop-color="#90979B"/>
<stop offset="0.06" stop-color="#A7AEB2"/>
<stop offset="0.11" stop-color="#B8BFC3"/>
<stop offset="0.16" stop-color="#C1C8CC"/>
<stop offset="0.22" stop-color="#C5CCD0"/>
<stop offset="0.4" stop-color="#C1C8CC"/>
<stop offset="0.54" stop-color="#B7BEC2"/>
<stop offset="0.67" stop-color="#A6ADB1"/>
<stop offset="0.8" stop-color="#8E9599"/>
<stop offset="0.84" stop-color="#858C90"/>
<stop offset="1" stop-color="#566067"/>
</linearGradient>
<linearGradient id="paint11_linear_43_26346" x1="78.2548" y1="55.451" x2="80.2079" y2="58.8478" gradientUnits="userSpaceOnUse">
<stop stop-color="#858C90"/>
<stop offset="0.02" stop-color="#90979B"/>
<stop offset="0.06" stop-color="#A7AEB2"/>
<stop offset="0.11" stop-color="#B8BFC3"/>
<stop offset="0.16" stop-color="#C1C8CC"/>
<stop offset="0.22" stop-color="#C5CCD0"/>
<stop offset="0.4" stop-color="#C1C8CC"/>
<stop offset="0.54" stop-color="#B7BEC2"/>
<stop offset="0.67" stop-color="#A6ADB1"/>
<stop offset="0.8" stop-color="#8E9599"/>
<stop offset="0.84" stop-color="#858C90"/>
<stop offset="1" stop-color="#566067"/>
</linearGradient>
<linearGradient id="paint12_linear_43_26346" x1="91.0839" y1="27.7975" x2="92.8854" y2="33.2202" gradientUnits="userSpaceOnUse">
<stop stop-color="#D0D2D4"/>
<stop offset="0.28" stop-color="#F0F2F5"/>
<stop offset="1" stop-color="#86898B"/>
</linearGradient>
<linearGradient id="paint13_linear_43_26346" x1="96.7475" y1="34.2486" x2="97.5684" y2="36.8437" gradientUnits="userSpaceOnUse">
<stop stop-color="#D0D2D4"/>
<stop offset="0.28" stop-color="#F0F2F5"/>
<stop offset="1" stop-color="#86898B"/>
</linearGradient>
<linearGradient id="paint14_linear_43_26346" x1="86.9591" y1="49.3671" x2="84.6299" y2="50.8714" gradientUnits="userSpaceOnUse">
<stop stop-color="#9EA5A9"/>
<stop offset="0.02" stop-color="#A9B0B4"/>
<stop offset="0.06" stop-color="#C0C7CB"/>
<stop offset="0.11" stop-color="#D1D8DC"/>
<stop offset="0.16" stop-color="#DAE1E5"/>
<stop offset="0.22" stop-color="#DEE5E9"/>
<stop offset="0.4" stop-color="#DAE1E5"/>
<stop offset="0.54" stop-color="#D0D7DB"/>
<stop offset="0.67" stop-color="#BFC6CA"/>
<stop offset="0.8" stop-color="#A7AEB2"/>
<stop offset="0.84" stop-color="#9EA5A9"/>
<stop offset="1" stop-color="#6F7980"/>
</linearGradient>
<linearGradient id="paint15_linear_43_26346" x1="86.4192" y1="48.5361" x2="84.09" y2="50.0404" gradientUnits="userSpaceOnUse">
<stop stop-color="#B8BFC3"/>
<stop offset="0.02" stop-color="#C3CACE"/>
<stop offset="0.06" stop-color="#DAE1E3"/>
<stop offset="0.11" stop-color="#EBF2F2"/>
<stop offset="0.16" stop-color="#F4FBFC"/>
<stop offset="0.22" stop-color="#F8FFFF"/>
<stop offset="0.4" stop-color="#F4FBFB"/>
<stop offset="0.54" stop-color="#EAF1F2"/>
<stop offset="0.67" stop-color="#D9E0E2"/>
<stop offset="0.8" stop-color="#C1C8CC"/>
<stop offset="0.84" stop-color="#B8BFC3"/>
<stop offset="1" stop-color="#89939A"/>
</linearGradient>
<linearGradient id="paint16_linear_43_26346" x1="84.6904" y1="47.0381" x2="83.0648" y2="48.415" gradientUnits="userSpaceOnUse">
<stop stop-color="#535A5E"/>
<stop offset="0.02" stop-color="#5E6569"/>
<stop offset="0.06" stop-color="#757C80"/>
<stop offset="0.11" stop-color="#868D91"/>
<stop offset="0.16" stop-color="#8F969A"/>
<stop offset="0.22" stop-color="#939A9E"/>
<stop offset="0.4" stop-color="#8F969A"/>
<stop offset="0.54" stop-color="#858C90"/>
<stop offset="0.67" stop-color="#747B7F"/>
<stop offset="0.8" stop-color="#5C6367"/>
<stop offset="0.84" stop-color="#535A5E"/>
<stop offset="1" stop-color="#242E35"/>
</linearGradient>
<linearGradient id="paint17_linear_43_26346" x1="85.9464" y1="48.1297" x2="83.696" y2="49.8402" gradientUnits="userSpaceOnUse">
<stop stop-color="#9EA5A9"/>
<stop offset="0.02" stop-color="#A9B0B4"/>
<stop offset="0.06" stop-color="#C0C7CB"/>
<stop offset="0.11" stop-color="#D1D8DC"/>
<stop offset="0.16" stop-color="#DAE1E5"/>
<stop offset="0.22" stop-color="#DEE5E9"/>
<stop offset="0.4" stop-color="#DAE1E5"/>
<stop offset="0.54" stop-color="#D0D7DB"/>
<stop offset="0.67" stop-color="#BFC6CA"/>
<stop offset="0.8" stop-color="#A7AEB2"/>
<stop offset="0.84" stop-color="#9EA5A9"/>
<stop offset="1" stop-color="#6F7980"/>
</linearGradient>
<linearGradient id="paint18_linear_43_26346" x1="85.5333" y1="47.6264" x2="83.289" y2="49.3369" gradientUnits="userSpaceOnUse">
<stop stop-color="#9EA5A9"/>
<stop offset="0.02" stop-color="#A9B0B4"/>
<stop offset="0.06" stop-color="#C0C7CB"/>
<stop offset="0.11" stop-color="#D1D8DC"/>
<stop offset="0.16" stop-color="#DAE1E5"/>
<stop offset="0.22" stop-color="#DEE5E9"/>
<stop offset="0.4" stop-color="#DAE1E5"/>
<stop offset="0.54" stop-color="#D0D7DB"/>
<stop offset="0.67" stop-color="#BFC6CA"/>
<stop offset="0.8" stop-color="#A7AEB2"/>
<stop offset="0.84" stop-color="#9EA5A9"/>
<stop offset="1" stop-color="#6F7980"/>
</linearGradient>
<linearGradient id="paint19_linear_43_26346" x1="85.1269" y1="47.1291" x2="82.8826" y2="48.8396" gradientUnits="userSpaceOnUse">
<stop stop-color="#9EA5A9"/>
<stop offset="0.02" stop-color="#A9B0B4"/>
<stop offset="0.06" stop-color="#C0C7CB"/>
<stop offset="0.11" stop-color="#D1D8DC"/>
<stop offset="0.16" stop-color="#DAE1E5"/>
<stop offset="0.22" stop-color="#DEE5E9"/>
<stop offset="0.4" stop-color="#DAE1E5"/>
<stop offset="0.54" stop-color="#D0D7DB"/>
<stop offset="0.67" stop-color="#BFC6CA"/>
<stop offset="0.8" stop-color="#A7AEB2"/>
<stop offset="0.84" stop-color="#9EA5A9"/>
<stop offset="1" stop-color="#6F7980"/>
</linearGradient>
<linearGradient id="paint20_linear_43_26346" x1="84.7204" y1="46.6255" x2="82.4761" y2="48.336" gradientUnits="userSpaceOnUse">
<stop stop-color="#9EA5A9"/>
<stop offset="0.02" stop-color="#A9B0B4"/>
<stop offset="0.06" stop-color="#C0C7CB"/>
<stop offset="0.11" stop-color="#D1D8DC"/>
<stop offset="0.16" stop-color="#DAE1E5"/>
<stop offset="0.22" stop-color="#DEE5E9"/>
<stop offset="0.4" stop-color="#DAE1E5"/>
<stop offset="0.54" stop-color="#D0D7DB"/>
<stop offset="0.67" stop-color="#BFC6CA"/>
<stop offset="0.8" stop-color="#A7AEB2"/>
<stop offset="0.84" stop-color="#9EA5A9"/>
<stop offset="1" stop-color="#6F7980"/>
</linearGradient>
<linearGradient id="paint21_linear_43_26346" x1="84.3146" y1="46.1283" x2="82.0703" y2="47.8388" gradientUnits="userSpaceOnUse">
<stop stop-color="#9EA5A9"/>
<stop offset="0.02" stop-color="#A9B0B4"/>
<stop offset="0.06" stop-color="#C0C7CB"/>
<stop offset="0.11" stop-color="#D1D8DC"/>
<stop offset="0.16" stop-color="#DAE1E5"/>
<stop offset="0.22" stop-color="#DEE5E9"/>
<stop offset="0.4" stop-color="#DAE1E5"/>
<stop offset="0.54" stop-color="#D0D7DB"/>
<stop offset="0.67" stop-color="#BFC6CA"/>
<stop offset="0.8" stop-color="#A7AEB2"/>
<stop offset="0.84" stop-color="#9EA5A9"/>
<stop offset="1" stop-color="#6F7980"/>
</linearGradient>
<linearGradient id="paint22_linear_43_26346" x1="83.9078" y1="45.6247" x2="81.6575" y2="47.3352" gradientUnits="userSpaceOnUse">
<stop stop-color="#9EA5A9"/>
<stop offset="0.02" stop-color="#A9B0B4"/>
<stop offset="0.06" stop-color="#C0C7CB"/>
<stop offset="0.11" stop-color="#D1D8DC"/>
<stop offset="0.16" stop-color="#DAE1E5"/>
<stop offset="0.22" stop-color="#DEE5E9"/>
<stop offset="0.4" stop-color="#DAE1E5"/>
<stop offset="0.54" stop-color="#D0D7DB"/>
<stop offset="0.67" stop-color="#BFC6CA"/>
<stop offset="0.8" stop-color="#A7AEB2"/>
<stop offset="0.84" stop-color="#9EA5A9"/>
<stop offset="1" stop-color="#6F7980"/>
</linearGradient>
<linearGradient id="paint23_linear_43_26346" x1="83.7868" y1="44.46" x2="81.4576" y2="45.9643" gradientUnits="userSpaceOnUse">
<stop stop-color="#9EA5A9"/>
<stop offset="0.02" stop-color="#A9B0B4"/>
<stop offset="0.06" stop-color="#C0C7CB"/>
<stop offset="0.11" stop-color="#D1D8DC"/>
<stop offset="0.16" stop-color="#DAE1E5"/>
<stop offset="0.22" stop-color="#DEE5E9"/>
<stop offset="0.4" stop-color="#DAE1E5"/>
<stop offset="0.54" stop-color="#D0D7DB"/>
<stop offset="0.67" stop-color="#BFC6CA"/>
<stop offset="0.8" stop-color="#A7AEB2"/>
<stop offset="0.84" stop-color="#9EA5A9"/>
<stop offset="1" stop-color="#6F7980"/>
</linearGradient>
<linearGradient id="paint24_linear_43_26346" x1="36.6137" y1="52.8609" x2="39.3857" y2="54.0862" gradientUnits="userSpaceOnUse">
<stop stop-color="#9EA5A9"/>
<stop offset="0.02" stop-color="#A9B0B4"/>
<stop offset="0.06" stop-color="#C0C7CB"/>
<stop offset="0.11" stop-color="#D1D8DC"/>
<stop offset="0.16" stop-color="#DAE1E5"/>
<stop offset="0.22" stop-color="#DEE5E9"/>
<stop offset="0.4" stop-color="#DAE1E5"/>
<stop offset="0.54" stop-color="#D0D7DB"/>
<stop offset="0.67" stop-color="#BFC6CA"/>
<stop offset="0.8" stop-color="#A7AEB2"/>
<stop offset="0.84" stop-color="#9EA5A9"/>
<stop offset="1" stop-color="#6F7980"/>
</linearGradient>
<linearGradient id="paint25_linear_43_26346" x1="29.5593" y1="69.3233" x2="32.1373" y2="70.4637" gradientUnits="userSpaceOnUse">
<stop stop-color="#9EA5A9"/>
<stop offset="0.02" stop-color="#A9B0B4"/>
<stop offset="0.06" stop-color="#C0C7CB"/>
<stop offset="0.11" stop-color="#D1D8DC"/>
<stop offset="0.16" stop-color="#DAE1E5"/>
<stop offset="0.22" stop-color="#DEE5E9"/>
<stop offset="0.4" stop-color="#DAE1E5"/>
<stop offset="0.54" stop-color="#D0D7DB"/>
<stop offset="0.67" stop-color="#BFC6CA"/>
<stop offset="0.8" stop-color="#A7AEB2"/>
<stop offset="0.84" stop-color="#9EA5A9"/>
<stop offset="1" stop-color="#6F7980"/>
</linearGradient>
<linearGradient id="paint26_linear_43_26346" x1="27.6365" y1="79.2347" x2="38.8944" y2="79.2347" gradientUnits="userSpaceOnUse">
<stop stop-color="#D0D2D4"/>
<stop offset="1" stop-color="#576169"/>
</linearGradient>
<linearGradient id="paint27_linear_43_26346" x1="32.5862" y1="86.7741" x2="34.327" y2="70.3664" gradientUnits="userSpaceOnUse">
<stop stop-color="#D0D2D4"/>
<stop offset="1" stop-color="#86898B"/>
</linearGradient>
<linearGradient id="paint28_linear_43_26346" x1="29.5171" y1="78.5431" x2="33.9754" y2="78.5431" gradientUnits="userSpaceOnUse">
<stop stop-color="#D0D2D4"/>
<stop offset="1" stop-color="#86898B"/>
</linearGradient>
<linearGradient id="paint29_linear_43_26346" x1="33.2414" y1="76.2867" x2="30.5725" y2="80.9936" gradientUnits="userSpaceOnUse">
<stop offset="0.22" stop-color="#DEE5E9"/>
<stop offset="0.4" stop-color="#DAE1E5"/>
<stop offset="0.54" stop-color="#D0D7DB"/>
<stop offset="0.67" stop-color="#BFC6CA"/>
<stop offset="0.8" stop-color="#A7AEB2"/>
<stop offset="0.84" stop-color="#9EA5A9"/>
<stop offset="1" stop-color="#6F7980"/>
</linearGradient>
<linearGradient id="paint30_linear_43_26346" x1="25.7017" y1="69.1475" x2="41.806" y2="69.1475" gradientUnits="userSpaceOnUse">
<stop stop-color="white"/>
<stop offset="1"/>
</linearGradient>
<linearGradient id="paint31_linear_43_26346" x1="33.4841" y1="78.6035" x2="32.7804" y2="79.8288" gradientUnits="userSpaceOnUse">
<stop stop-color="#9EA5A9"/>
<stop offset="0.02" stop-color="#A9B0B4"/>
<stop offset="0.06" stop-color="#C0C7CB"/>
<stop offset="0.11" stop-color="#D1D8DC"/>
<stop offset="0.16" stop-color="#DAE1E5"/>
<stop offset="0.22" stop-color="#DEE5E9"/>
<stop offset="0.4" stop-color="#DAE1E5"/>
<stop offset="0.54" stop-color="#D0D7DB"/>
<stop offset="0.67" stop-color="#BFC6CA"/>
<stop offset="0.8" stop-color="#A7AEB2"/>
<stop offset="0.84" stop-color="#9EA5A9"/>
<stop offset="1" stop-color="#6F7980"/>
</linearGradient>
<linearGradient id="paint32_linear_43_26346" x1="43.3466" y1="56.4942" x2="46.1186" y2="57.7195" gradientUnits="userSpaceOnUse">
<stop stop-color="#9EA5A9"/>
<stop offset="0.02" stop-color="#A9B0B4"/>
<stop offset="0.06" stop-color="#C0C7CB"/>
<stop offset="0.11" stop-color="#D1D8DC"/>
<stop offset="0.16" stop-color="#DAE1E5"/>
<stop offset="0.22" stop-color="#DEE5E9"/>
<stop offset="0.4" stop-color="#DAE1E5"/>
<stop offset="0.54" stop-color="#D0D7DB"/>
<stop offset="0.67" stop-color="#BFC6CA"/>
<stop offset="0.8" stop-color="#A7AEB2"/>
<stop offset="0.84" stop-color="#9EA5A9"/>
<stop offset="1" stop-color="#6F7980"/>
</linearGradient>
<linearGradient id="paint33_linear_43_26346" x1="36.2925" y1="72.9566" x2="38.8704" y2="74.097" gradientUnits="userSpaceOnUse">
<stop stop-color="#9EA5A9"/>
<stop offset="0.02" stop-color="#A9B0B4"/>
<stop offset="0.06" stop-color="#C0C7CB"/>
<stop offset="0.11" stop-color="#D1D8DC"/>
<stop offset="0.16" stop-color="#DAE1E5"/>
<stop offset="0.22" stop-color="#DEE5E9"/>
<stop offset="0.4" stop-color="#DAE1E5"/>
<stop offset="0.54" stop-color="#D0D7DB"/>
<stop offset="0.67" stop-color="#BFC6CA"/>
<stop offset="0.8" stop-color="#A7AEB2"/>
<stop offset="0.84" stop-color="#9EA5A9"/>
<stop offset="1" stop-color="#6F7980"/>
</linearGradient>
<linearGradient id="paint34_linear_43_26346" x1="44.2446" y1="44.3325" x2="48.7393" y2="44.3325" gradientUnits="userSpaceOnUse">
<stop stop-color="#9EA5A9"/>
<stop offset="0.02" stop-color="#A9B0B4"/>
<stop offset="0.06" stop-color="#C0C7CB"/>
<stop offset="0.11" stop-color="#D1D8DC"/>
<stop offset="0.16" stop-color="#DAE1E5"/>
<stop offset="0.22" stop-color="#DEE5E9"/>
<stop offset="0.4" stop-color="#DAE1E5"/>
<stop offset="0.54" stop-color="#D0D7DB"/>
<stop offset="0.67" stop-color="#BFC6CA"/>
<stop offset="0.8" stop-color="#A7AEB2"/>
<stop offset="0.84" stop-color="#9EA5A9"/>
<stop offset="1" stop-color="#6F7980"/>
</linearGradient>
<linearGradient id="paint35_linear_43_26346" x1="35.7162" y1="80.2595" x2="35.3038" y2="80.9692" gradientUnits="userSpaceOnUse">
<stop stop-color="#9EA5A9"/>
<stop offset="0.02" stop-color="#A9B0B4"/>
<stop offset="0.06" stop-color="#C0C7CB"/>
<stop offset="0.11" stop-color="#D1D8DC"/>
<stop offset="0.16" stop-color="#DAE1E5"/>
<stop offset="0.22" stop-color="#DEE5E9"/>
<stop offset="0.4" stop-color="#DAE1E5"/>
<stop offset="0.54" stop-color="#D0D7DB"/>
<stop offset="0.67" stop-color="#BFC6CA"/>
<stop offset="0.8" stop-color="#A7AEB2"/>
<stop offset="0.84" stop-color="#9EA5A9"/>
<stop offset="1" stop-color="#6F7980"/>
</linearGradient>
<linearGradient id="paint36_linear_43_26346" x1="35.7284" y1="49.8402" x2="36.8687" y2="52.4605" gradientUnits="userSpaceOnUse">
<stop stop-color="#D0D2D4"/>
<stop offset="0.28" stop-color="#F0F2F5"/>
<stop offset="1" stop-color="#86898B"/>
</linearGradient>
<linearGradient id="paint37_linear_43_26346" x1="35.4675" y1="50.5075" x2="35.4675" y2="53.1643" gradientUnits="userSpaceOnUse">
<stop stop-color="#C8CACD"/>
<stop offset="1" stop-color="#6D7072"/>
</linearGradient>
<linearGradient id="paint38_linear_43_26346" x1="46.6827" y1="56.0818" x2="47.8231" y2="58.7082" gradientUnits="userSpaceOnUse">
<stop stop-color="#D0D2D4"/>
<stop offset="0.28" stop-color="#F0F2F5"/>
<stop offset="1" stop-color="#86898B"/>
</linearGradient>
<linearGradient id="paint39_linear_43_26346" x1="46.4157" y1="56.7492" x2="46.4157" y2="59.406" gradientUnits="userSpaceOnUse">
<stop stop-color="#C8CACD"/>
<stop offset="1" stop-color="#6D7072"/>
</linearGradient>
<linearGradient id="paint40_linear_43_26346" x1="40.2897" y1="46.0859" x2="43.5894" y2="53.6679" gradientUnits="userSpaceOnUse">
<stop stop-color="#D0D2D4"/>
<stop offset="0.28" stop-color="#F0F2F5"/>
<stop offset="1" stop-color="#86898B"/>
</linearGradient>
<linearGradient id="paint41_linear_43_26346" x1="39.5313" y1="48.0206" x2="39.5313" y2="55.6998" gradientUnits="userSpaceOnUse">
<stop stop-color="#C8CACD"/>
<stop offset="1" stop-color="#6D7072"/>
</linearGradient>
<linearGradient id="paint42_linear_43_26346" x1="36.438" y1="51.3204" x2="41.885" y2="51.3204" gradientUnits="userSpaceOnUse">
<stop stop-color="white"/>
<stop offset="1" stop-color="white"/>
</linearGradient>
</defs>
</svg>
