<svg width="120" height="120" viewBox="0 0 120 120" fill="none" xmlns="http://www.w3.org/2000/svg">
<path d="M108.239 56.2097L106.626 58.0715H104.305L99.3521 54.3157L104.796 51.7395L108.239 56.2097Z" fill="#0D1316"/>
<path d="M51.7739 88.0139C51.7739 88.0139 50.7014 89.88 50.221 90.1567C49.7405 90.4334 44.1785 89.9722 44.1785 89.9722C44.1785 89.9722 42.3381 85.5643 42.4668 85.3498C42.5955 85.1353 51.4479 84.9401 51.4479 84.9401L51.7739 88.0139Z" fill="#0D1316"/>
<path d="M103.668 55.9761L100.285 54.0434C99.2105 53.4493 97.7391 53.5479 96.1175 54.4853C92.8249 56.3858 90.1565 61.0083 90.1565 64.8092C90.1565 66.6839 90.8064 68.0074 91.8596 68.6402L95.3217 70.6179C96.4006 71.2421 97.8914 71.1541 99.5387 70.2039C102.831 68.3034 105.5 63.6809 105.5 59.88C105.5 57.9302 104.796 56.5745 103.668 55.9761Z" fill="#212A2D"/>
<path d="M105.5 59.882C105.5 63.683 102.831 68.3055 99.5387 70.2059C96.2483 72.1064 93.5778 70.5663 93.5778 66.7632C93.5778 62.9601 96.2461 58.3398 99.5387 56.4393C102.831 54.5388 105.5 56.079 105.5 59.8799V59.882Z" fill="#555F62"/>
<path d="M105.277 60.148C105.277 63.7323 102.761 68.0888 99.6569 69.8798C96.5531 71.6709 94.037 70.2187 94.037 66.6366C94.037 63.0544 96.5531 58.6958 99.6569 56.9026C102.761 55.1115 105.277 56.5637 105.277 60.148Z" fill="#2E373A"/>
<path d="M103.929 61.1131C103.929 63.8008 102.042 67.0698 99.7146 68.4147C97.3851 69.7575 95.4996 68.6699 95.4996 65.9801C95.4996 63.2903 97.3872 60.0234 99.7146 58.6785C102.042 57.3357 103.929 58.4233 103.929 61.1131Z" fill="url(#paint0_linear_43_29802)"/>
<path d="M99.2599 67.8551C101.441 66.596 103.207 63.535 103.207 61.019C103.207 59.1528 102.235 58.1082 100.843 58.2069C100.483 58.2991 100.105 58.4557 99.7125 58.6809C97.383 60.0258 95.4976 63.2948 95.4976 65.9825C95.4976 66.4673 95.5598 66.9005 95.6735 67.2759C96.2998 68.4771 97.6683 68.771 99.2577 67.8551H99.2599Z" fill="url(#paint1_linear_43_29802)"/>
<path d="M99.5602 58.7732C97.4388 60.0859 95.7185 62.9752 95.5168 65.4999C95.6992 67.4197 97.1814 68.1425 98.9832 67.1022C100.907 65.9889 102.469 63.2862 102.469 61.064C102.469 59.067 101.21 58.1382 99.558 58.7732H99.5602Z" fill="#4E4E4D"/>
<path d="M97.0163 64.0586C97.0163 64.0586 96.5808 65.322 96.2312 65.5622C95.8816 65.8046 95.6757 65.4121 95.6757 65.3392C95.6757 65.3392 95.8751 65.4357 96.0918 65.3091C96.3106 65.1826 96.7696 64.5712 97.0163 64.0586Z" fill="#696867"/>
<path d="M98.2046 67.3468C98.2046 67.3468 98.447 67.0315 98.5199 66.6389C98.5928 66.2464 98.3076 64.9959 98.284 64.9229C98.2604 64.85 98.8524 66.1263 98.8095 66.6518C98.7666 67.1773 98.2046 67.3468 98.2046 67.3468Z" fill="#696867"/>
<path d="M99.3177 60.8731C99.3177 60.8731 100.191 59.7856 100.296 59.4703C100.401 59.1571 100.296 58.8783 100.296 58.8783C100.296 58.8783 100.751 59.0413 100.6 59.5132C100.476 59.9036 99.3606 60.8731 99.3177 60.8731Z" fill="#696867"/>
<path d="M100.367 62.1257C100.367 62.1257 101.499 62.441 101.935 62.2458C102.37 62.0527 102.443 61.4414 102.443 61.4414C102.443 61.4414 102.231 61.8532 101.815 61.9905C101.396 62.13 100.367 62.1235 100.367 62.1235V62.1257Z" fill="#696867"/>
<path d="M99.837 61.049C99.837 61.049 100.97 59.8328 101.079 59.6762C101.188 59.5175 101.493 59.1614 101.682 59.2215C101.682 59.2215 101.484 59.288 101.321 59.4639C101.158 59.6398 100.56 60.3304 100.397 60.4977C100.234 60.6651 99.837 61.049 99.837 61.049Z" fill="#343433"/>
<path d="M100.32 63.0375C100.32 63.0375 101.817 63.0032 101.961 63.1083C102.091 63.2027 101.971 63.3914 101.971 63.3914C101.971 63.3914 101.909 63.2413 101.66 63.207C101.409 63.1727 100.32 63.0375 100.32 63.0375Z" fill="#343433"/>
<path d="M99.1119 64.7875C99.1119 64.7875 99.4293 66.2654 99.5816 66.3899C99.7361 66.5143 99.8991 66.3899 99.8991 66.3899C99.8991 66.3899 99.7318 66.3856 99.6117 66.2097C99.4937 66.0338 99.1097 64.7875 99.1097 64.7875H99.1119Z" fill="#696867"/>
<path d="M96.212 66.8746C96.212 66.8746 96.1413 66.6773 96.2378 66.5229C96.3343 66.3684 96.7354 65.6777 96.8791 65.4268C97.025 65.1758 97.2138 64.7511 97.2138 64.7511C97.2138 64.7511 96.995 65.2766 96.8362 65.5726C96.6775 65.8665 96.2871 66.4886 96.2506 66.5701C96.2163 66.6537 96.2077 66.7867 96.212 66.8746Z" fill="#343433"/>
<path d="M97.4345 62.439C97.4345 62.439 97.441 61.9821 97.1471 61.9306C96.8532 61.8792 96.7417 62.0636 96.7417 62.0636C96.7417 62.0636 96.9798 62.01 97.1385 62.1237C97.2994 62.2352 97.4324 62.439 97.4324 62.439H97.4345Z" fill="#343433"/>
<path d="M97.9988 61.6238C97.9988 61.6238 97.5526 61.1519 97.692 60.6522C97.692 60.6522 97.795 61.3235 97.9988 61.6238Z" fill="#696867"/>
<path d="M100.796 63.5799C100.549 63.5263 100.223 63.6163 100.071 63.6678C99.9442 63.7858 99.8885 63.9167 99.8885 63.9167C99.8885 63.9167 99.5667 64.2448 99.5067 64.3692C99.4616 64.4615 99.4573 64.6631 99.4831 64.8905C99.526 65.0878 99.6418 65.5061 99.7705 65.5855C99.9249 65.6777 100.116 65.564 100.283 65.3431C100.448 65.12 101.034 64.2856 101.148 64.0561C101.261 63.8266 101.13 63.6528 100.796 63.5799Z" fill="#1B1B1A"/>
<path d="M97.945 66.1563C97.93 65.6415 97.6919 65.3455 97.5332 65.2383C97.4474 65.1804 97.3251 65.2125 97.2329 65.2554C97.1685 65.3284 97.1278 65.397 97.1278 65.397L96.583 66.3429C96.5315 66.4481 96.5079 66.5574 96.5057 66.6647C96.7181 66.935 97.3466 67.0079 97.5418 66.9843C97.7627 66.9564 97.9643 66.6711 97.9472 66.1563H97.945Z" fill="#1B1B1A"/>
<path d="M96.6451 62.5462C96.5893 62.5183 96.5207 62.529 96.4649 62.5505C96.407 62.6921 96.1389 63.3441 96.023 63.6852C95.8943 64.0713 95.83 64.3223 95.83 64.3223C95.83 64.3223 95.8042 64.4381 95.7957 64.5754C95.8364 64.6783 95.9351 64.6419 96.1024 64.5067C96.334 64.3201 96.6365 63.8825 96.7716 63.2862C96.9046 62.6921 96.7652 62.6041 96.6451 62.544V62.5462Z" fill="#1B1B1A"/>
<path d="M99.1869 60.2489C99.4529 59.9464 99.706 59.5368 99.6889 59.3909C99.676 59.2794 99.6009 59.2257 99.4508 59.2214C99.2084 59.3351 98.8588 59.5217 98.8588 59.5217C98.7901 59.5904 98.1831 60.1009 98.1831 60.1009C98.1831 60.1009 98.0587 60.2253 98.0115 60.4634C98.0308 60.62 98.0823 60.8409 98.226 60.8409C98.4426 60.8409 98.9231 60.5513 99.1891 60.2489H99.1869Z" fill="#1B1B1A"/>
<path d="M101.336 59.7125C101.302 59.7382 101.272 59.7661 101.251 59.7897C101.15 59.8969 100.468 60.7228 100.337 60.9373C100.324 60.9587 100.313 60.9802 100.302 61.0016C100.311 61.1303 100.352 61.2612 100.429 61.3448C100.568 61.495 100.935 61.5443 101.3 61.4778C101.667 61.4113 101.868 61.1818 101.918 60.9394C101.967 60.697 101.748 60.1307 101.62 59.8798C101.549 59.7425 101.431 59.7125 101.336 59.7146V59.7125Z" fill="#1B1B1A"/>
<path d="M97.0634 62.5011C96.879 62.3316 96.4778 62.5225 96.4778 62.5225C96.4778 62.5225 96.4735 62.5311 96.465 62.5504C96.5207 62.529 96.5894 62.5183 96.6451 62.5461C96.7653 62.6062 96.9047 62.692 96.7717 63.2883C96.6387 63.8825 96.3363 64.3222 96.1025 64.5088C95.9351 64.6418 95.8365 64.6783 95.7957 64.5775C95.7807 64.792 95.8107 65.0558 96.0381 65.0172C96.4156 64.9528 96.7674 64.2621 96.9562 63.7624C97.1471 63.2626 97.2457 62.6706 97.0613 62.5032L97.0634 62.5011Z" fill="url(#paint2_linear_43_29802)"/>
<path d="M98.2388 66.0834C98.1981 65.7101 97.9578 65.1803 97.6661 65.0795C97.4902 65.0194 97.3315 65.146 97.2328 65.2554C97.3272 65.2125 97.4473 65.1803 97.5331 65.2382C97.6918 65.3433 97.9278 65.6394 97.9449 66.1563C97.9621 66.6711 97.7626 66.9564 97.5395 66.9843C97.3422 67.0079 96.7137 66.9349 96.5035 66.6647C96.4949 66.9328 96.6108 67.1752 96.7266 67.2288C96.8875 67.306 97.4323 67.4583 97.8613 67.3167C98.2903 67.1773 98.2774 66.4545 98.2388 66.0812V66.0834Z" fill="url(#paint3_linear_43_29802)"/>
<path d="M100.442 63.4835C100.281 63.5071 100.159 63.5844 100.071 63.668C100.225 63.6165 100.549 63.5264 100.796 63.5801C101.13 63.653 101.261 63.8267 101.148 64.0563C101.034 64.2858 100.448 65.1202 100.283 65.3433C100.118 65.5663 99.927 65.6779 99.7705 65.5856C99.6418 65.5063 99.5259 65.0901 99.483 64.8907C99.5345 65.3261 99.7018 65.8666 99.9185 65.9739C100.251 66.1391 100.56 65.6135 100.796 65.324C101.032 65.0344 101.519 64.245 101.542 63.8589C101.566 63.4728 100.832 63.4213 100.44 63.4814L100.442 63.4835Z" fill="url(#paint4_linear_43_29802)"/>
<path d="M102.287 60.8171C102.259 60.401 101.976 59.839 101.81 59.6546C101.68 59.5087 101.472 59.6117 101.339 59.7146C101.433 59.7146 101.551 59.7425 101.622 59.8798C101.75 60.1329 101.969 60.697 101.92 60.9394C101.871 61.1818 101.667 61.4113 101.302 61.4778C100.937 61.5443 100.571 61.495 100.431 61.3448C100.354 61.2612 100.313 61.1303 100.305 61.0016C100.212 61.2011 100.238 61.4263 100.238 61.4263C100.238 61.4263 100.292 61.6516 100.575 61.7974C100.86 61.9411 101.493 61.821 101.838 61.7202C102.184 61.6194 102.315 61.2354 102.287 60.8171Z" fill="url(#paint5_linear_43_29802)"/>
<path d="M99.6225 59.1483C99.5817 59.1634 99.5195 59.1891 99.4487 59.2234C99.5989 59.2277 99.6739 59.2813 99.6868 59.3929C99.704 59.5387 99.4509 59.9484 99.1849 60.2509C98.9189 60.5533 98.4363 60.8429 98.2218 60.8429C98.0802 60.8429 98.0287 60.622 98.0073 60.4654C98.003 60.4804 98.0008 60.4975 97.9987 60.5147C97.9601 60.7828 98.0824 61.229 98.2733 61.2161C98.4663 61.2054 98.7666 61.0402 99.172 60.7356C99.5774 60.4311 100.006 59.764 100.039 59.4873C100.071 59.2105 99.8048 59.0861 99.6203 59.1505L99.6225 59.1483Z" fill="url(#paint6_linear_43_29802)"/>
<path d="M100.382 62.0079C100.382 62.9431 99.7254 64.0821 98.9146 64.5497C98.1038 65.0173 97.4474 64.6377 97.4474 63.7024C97.4474 62.7672 98.1038 61.6282 98.9146 61.1606C99.7254 60.693 100.382 61.0727 100.382 62.0079Z" fill="url(#paint7_linear_43_29802)"/>
<path d="M100.382 62.0634C100.382 62.9686 99.7469 64.0711 98.9619 64.5237C98.1768 64.9763 97.5419 64.6095 97.5419 63.7043C97.5419 62.7991 98.1768 61.6966 98.9619 61.244C99.7469 60.7914 100.382 61.1582 100.382 62.0634Z" fill="url(#paint8_linear_43_29802)"/>
<path d="M100.541 62.0465L100.047 61.33C99.7984 61.1134 99.4165 61.1048 98.9854 61.3515C98.2368 61.7848 97.6298 62.8358 97.6298 63.7003C97.6298 64.1507 97.7928 64.4617 98.0566 64.5947L98.9425 64.7599C99.1205 64.7921 99.335 64.747 99.5646 64.614C100.195 64.2494 100.706 63.3657 100.706 62.6385C100.706 62.3854 100.643 62.1859 100.536 62.0465H100.541Z" fill="url(#paint9_linear_43_29802)"/>
<path d="M100.708 62.6382C100.708 63.3653 100.197 64.2491 99.5667 64.6137C98.9382 64.9762 98.4277 64.6823 98.4277 63.9552C98.4277 63.228 98.9382 62.3443 99.5667 61.9796C100.197 61.615 100.708 61.911 100.708 62.6382Z" fill="url(#paint10_linear_43_29802)"/>
<path d="M100.637 62.7629C100.637 63.3871 100.199 64.1443 99.6589 64.4574C99.1184 64.7706 98.6808 64.5153 98.6808 63.8933C98.6808 63.2712 99.1184 62.5098 99.6589 62.1987C100.199 61.8856 100.637 62.1387 100.637 62.7629Z" fill="url(#paint11_linear_43_29802)"/>
<path d="M100.416 62.8914C100.416 63.374 100.077 63.9617 99.6589 64.202C99.2406 64.4444 98.9017 64.247 98.9017 63.7644C98.9017 63.2818 99.2406 62.694 99.6589 62.4538C100.077 62.2114 100.416 62.4088 100.416 62.8914Z" fill="url(#paint12_linear_43_29802)"/>
<path d="M100.474 63.0094C100.474 63.4298 100.178 63.9425 99.8134 64.1527C99.4487 64.3651 99.1527 64.1935 99.1527 63.7709C99.1527 63.3483 99.4487 62.8378 99.8134 62.6255C100.178 62.4152 100.474 62.5847 100.474 63.0073V63.0094Z" fill="url(#paint13_linear_43_29802)"/>
<path d="M47.7069 88.1105L44.3243 86.18C43.2496 85.5858 41.7781 85.6845 40.1565 86.6218C36.8639 88.5223 34.1956 93.1448 34.1956 96.9457C34.1956 98.8205 34.8455 100.144 35.8987 100.777L39.3607 102.754C40.4397 103.379 41.9304 103.291 43.5778 102.34C46.8704 100.44 49.5388 95.8175 49.5388 92.0165C49.5388 90.0667 48.8352 88.7132 47.7069 88.1126V88.1105Z" fill="#212A2D"/>
<path d="M49.5389 92.0144C49.5389 95.8153 46.8705 100.438 43.5779 102.338C40.2853 104.239 37.6169 102.699 37.6169 98.8955C37.6169 95.0924 40.2853 90.4721 43.5779 88.5716C46.8705 86.6712 49.5389 88.2113 49.5389 92.0122V92.0144Z" fill="#555F62"/>
<path d="M49.3156 92.2824C49.3156 95.8667 46.7995 100.223 43.6957 102.014C40.5919 103.805 38.0758 102.353 38.0758 98.771C38.0758 95.1888 40.5919 90.8302 43.6957 89.037C46.7995 87.2459 49.3156 88.6981 49.3156 92.2824Z" fill="#2E373A"/>
<path d="M47.9687 93.2497C47.9687 95.9373 46.0811 99.2063 43.7538 100.551C41.4243 101.894 39.5367 100.806 39.5367 98.1167C39.5367 95.4268 41.4243 92.16 43.7538 90.8151C46.0811 89.4702 47.9687 90.5598 47.9687 93.2497Z" fill="url(#paint14_linear_43_29802)"/>
<path d="M43.2991 99.987C45.4805 98.7279 47.248 95.667 47.248 93.1509C47.248 91.2848 46.2763 90.2401 44.8842 90.3388C44.5239 90.431 44.1464 90.5876 43.7538 90.815C41.4243 92.1578 39.5367 95.4268 39.5367 98.1166C39.5367 98.6014 39.5989 99.0346 39.7126 99.41C40.339 100.611 41.7075 100.907 43.2969 99.9892L43.2991 99.987Z" fill="url(#paint15_linear_43_29802)"/>
<path d="M43.6014 90.905C41.48 92.2177 39.7576 95.107 39.5581 97.6317C39.7404 99.5515 41.2226 100.274 43.0244 99.234C44.9506 98.1229 46.5101 95.4181 46.5101 93.1959C46.5101 91.1989 45.2509 90.2701 43.5993 90.905H43.6014Z" fill="#4E4E4D"/>
<path d="M41.053 96.1925C41.053 96.1925 40.6176 97.4559 40.268 97.6961C39.9183 97.9385 39.7124 97.5439 39.7124 97.4731C39.7124 97.4731 39.9119 97.5696 40.1285 97.443C40.3452 97.3165 40.8042 96.7052 41.053 96.1925Z" fill="#696867"/>
<path d="M42.2438 99.4808C42.2438 99.4808 42.4862 99.1676 42.5591 98.773C42.632 98.3804 42.3467 97.1299 42.3231 97.057C42.2995 96.984 42.8937 98.2582 42.8508 98.7858C42.8079 99.3114 42.2459 99.4808 42.2459 99.4808H42.2438Z" fill="#696867"/>
<path d="M43.3568 93.0096C43.3568 93.0096 44.232 91.9221 44.3349 91.6068C44.44 91.2936 44.3349 91.0148 44.3349 91.0148C44.3349 91.0148 44.7897 91.1778 44.6395 91.6497C44.5151 92.0401 43.3997 93.0096 43.3568 93.0096Z" fill="#696867"/>
<path d="M44.4058 94.2579C44.4058 94.2579 45.5383 94.5732 45.9738 94.3802C46.4092 94.1871 46.4821 93.5758 46.4821 93.5758C46.4821 93.5758 46.2698 93.9876 45.8536 94.1249C45.4375 94.2644 44.4058 94.2579 44.4058 94.2579Z" fill="#696867"/>
<path d="M43.8781 93.181C43.8781 93.181 45.0085 91.9647 45.1179 91.806C45.2273 91.6473 45.5319 91.2912 45.7207 91.3534C45.7207 91.3534 45.5233 91.4199 45.3603 91.5958C45.1973 91.7717 44.5988 92.4624 44.4358 92.6297C44.2728 92.797 43.876 93.181 43.876 93.181H43.8781Z" fill="#343433"/>
<path d="M44.3607 95.1715C44.3607 95.1715 45.8579 95.1372 46.0016 95.2423C46.1325 95.3367 46.0124 95.5254 46.0124 95.5254C46.0124 95.5254 45.9502 95.3753 45.6992 95.341C45.4482 95.3045 44.3607 95.1693 44.3607 95.1693V95.1715Z" fill="#343433"/>
<path d="M43.151 96.922C43.151 96.922 43.4685 98.402 43.6208 98.5243C43.7752 98.6466 43.9382 98.5243 43.9382 98.5243C43.9382 98.5243 43.7709 98.52 43.6529 98.3441C43.535 98.1682 43.151 96.922 43.151 96.922Z" fill="#696867"/>
<path d="M40.2509 99.007C40.2509 99.007 40.1801 98.8096 40.2766 98.6552C40.3731 98.5008 40.7742 97.8101 40.918 97.5591C41.0638 97.3081 41.2526 96.8834 41.2526 96.8834C41.2526 96.8834 41.0338 97.4089 40.8751 97.705C40.7163 97.9988 40.3238 98.6209 40.2895 98.7045C40.2551 98.7882 40.2444 98.9212 40.2487 99.0091L40.2509 99.007Z" fill="#343433"/>
<path d="M41.4736 94.5731C41.4736 94.5731 41.4779 94.1162 41.1862 94.0647C40.8923 94.0111 40.7808 94.1977 40.7808 94.1977C40.7808 94.1977 41.0167 94.1441 41.1776 94.2578C41.3385 94.3693 41.4736 94.5731 41.4736 94.5731Z" fill="#343433"/>
<path d="M42.0376 93.7583C42.0376 93.7583 41.5914 93.2864 41.7308 92.7844C41.7308 92.7844 41.8338 93.4558 42.0376 93.7583Z" fill="#696867"/>
<path d="M44.8348 95.7142C44.5881 95.6606 44.262 95.7507 44.1097 95.8022C43.9832 95.9201 43.9274 96.051 43.9274 96.051C43.9274 96.051 43.6078 96.3792 43.5456 96.5036C43.5006 96.5958 43.4963 96.7953 43.522 97.0248C43.5649 97.2222 43.6807 97.6404 43.8094 97.7198C43.9639 97.812 44.1548 97.7005 44.3221 97.4774C44.4873 97.2543 45.0729 96.4199 45.1865 96.1904C45.3002 95.9609 45.1694 95.7872 44.8348 95.7142Z" fill="#1B1B1A"/>
<path d="M41.984 98.2904C41.9669 97.7756 41.7309 97.4796 41.5722 97.3723C41.4864 97.3144 41.3641 97.3466 41.2698 97.3895C41.2054 97.4624 41.1647 97.5289 41.1647 97.5289L40.6198 98.4748C40.5683 98.5799 40.5447 98.6893 40.5426 98.7966C40.755 99.0669 41.3834 99.1398 41.5786 99.1162C41.8017 99.0904 42.0012 98.8052 41.984 98.2882V98.2904Z" fill="#1B1B1A"/>
<path d="M40.6843 94.6806C40.6285 94.6527 40.5598 94.6634 40.5041 94.6849C40.4462 94.8265 40.1759 95.4785 40.0622 95.8196C39.9335 96.2057 39.8692 96.4567 39.8692 96.4567C39.8692 96.4567 39.8434 96.5725 39.8348 96.7119C39.8756 96.8149 39.9743 96.7784 40.1416 96.6433C40.3754 96.4566 40.6757 96.0191 40.8087 95.4228C40.9417 94.8264 40.8022 94.7406 40.6821 94.6806H40.6843Z" fill="#1B1B1A"/>
<path d="M43.226 92.3833C43.492 92.0808 43.7451 91.6712 43.7279 91.5253C43.7172 91.4138 43.64 91.3601 43.4898 91.3558C43.2474 91.4674 42.8978 91.654 42.8978 91.654C42.8292 91.7226 42.2221 92.2331 42.2221 92.2331C42.2221 92.2331 42.0977 92.3576 42.0505 92.5956C42.0698 92.7522 42.1235 92.9732 42.265 92.9732C42.4817 92.9732 42.9622 92.6836 43.2303 92.3811L43.226 92.3833Z" fill="#1B1B1A"/>
<path d="M45.3753 91.8449C45.341 91.8706 45.311 91.9007 45.2895 91.9221C45.1887 92.0294 44.5066 92.8573 44.3758 93.0697C44.3629 93.0911 44.3522 93.1126 44.3414 93.134C44.35 93.2627 44.3908 93.3936 44.468 93.4751C44.6074 93.6252 44.9742 93.6746 45.3389 93.6081C45.7035 93.5416 45.9073 93.3121 45.9566 93.0697C46.006 92.8273 45.7872 92.261 45.6563 92.0079C45.5855 91.8706 45.4676 91.8406 45.3732 91.8428L45.3753 91.8449Z" fill="#1B1B1A"/>
<path d="M41.1024 94.6356C40.918 94.4661 40.5169 94.6549 40.5169 94.6549C40.5169 94.6549 40.5126 94.6634 40.5061 94.6827C40.5619 94.6613 40.6305 94.6506 40.6863 94.6785C40.8064 94.7385 40.9459 94.8243 40.8129 95.4206C40.6799 96.0169 40.3774 96.4545 40.1458 96.6411C39.9785 96.7741 39.8798 96.8106 39.839 96.7098C39.8262 96.9243 39.854 97.1881 40.0814 97.1495C40.4589 97.0851 40.8107 96.3945 40.9995 95.8947C41.1882 95.3949 41.2869 94.8029 41.1046 94.6356H41.1024Z" fill="url(#paint16_linear_43_29802)"/>
<path d="M42.2779 98.2173C42.2372 97.8441 41.9969 97.3143 41.7052 97.2135C41.5293 97.1534 41.3706 97.28 41.2719 97.3894C41.3663 97.3465 41.4864 97.3143 41.5744 97.3722C41.7331 97.4773 41.969 97.7755 41.9862 98.2903C42.0034 98.8072 41.8039 99.0925 41.5808 99.1182C41.3835 99.1418 40.755 99.0689 40.5448 98.7986C40.5362 99.0668 40.652 99.3091 40.7678 99.3649C40.9287 99.44 41.4735 99.5923 41.9025 99.4529C42.3315 99.3134 42.3208 98.5906 42.2801 98.2173H42.2779Z" fill="url(#paint17_linear_43_29802)"/>
<path d="M44.4809 95.6177C44.32 95.6413 44.1978 95.7207 44.1098 95.8022C44.2643 95.7507 44.5882 95.6606 44.8348 95.7142C45.1695 95.7872 45.3003 95.9609 45.1866 96.1904C45.0729 96.4199 44.4873 97.2543 44.3222 97.4774C44.1549 97.7005 43.964 97.8142 43.8095 97.7198C43.6808 97.6404 43.565 97.2243 43.5221 97.0248C43.5736 97.4603 43.7409 98.0008 43.9575 98.108C44.29 98.2711 44.5989 97.7455 44.837 97.4581C45.0729 97.1707 45.5598 96.3792 45.5834 95.9931C45.607 95.6091 44.8734 95.5555 44.4809 95.6156V95.6177Z" fill="url(#paint18_linear_43_29802)"/>
<path d="M46.3256 92.9496C46.2978 92.5313 46.0146 91.9714 45.8494 91.787C45.7207 91.6411 45.5105 91.7441 45.3775 91.8449C45.4719 91.8449 45.592 91.8728 45.6607 92.0101C45.7894 92.2632 46.0103 92.8273 45.961 93.0718C45.9095 93.3142 45.7079 93.5437 45.3432 93.6102C44.9786 93.6767 44.6118 93.6274 44.4724 93.4772C44.3951 93.3957 44.3544 93.2627 44.3458 93.1362C44.2536 93.3357 44.2793 93.5609 44.2793 93.5609C44.2793 93.5609 44.3329 93.7861 44.6161 93.932C44.9014 94.0757 45.5341 93.9556 45.8795 93.8548C46.2248 93.7539 46.3578 93.37 46.3278 92.9517L46.3256 92.9496Z" fill="url(#paint19_linear_43_29802)"/>
<path d="M43.6615 91.2807C43.6186 91.2957 43.5585 91.3214 43.4877 91.3557C43.6379 91.36 43.7151 91.4136 43.7258 91.5252C43.743 91.671 43.4899 92.0807 43.2239 92.3832C42.9579 92.6856 42.4753 92.9752 42.2586 92.9752C42.1171 92.9752 42.0656 92.7543 42.0441 92.5977C42.0398 92.6148 42.0377 92.6299 42.0356 92.647C41.997 92.9152 42.1192 93.3613 42.3101 93.3484C42.5032 93.3356 42.8035 93.1726 43.2089 92.868C43.6143 92.5634 44.0433 91.8963 44.0776 91.6217C44.1119 91.345 43.8438 91.2206 43.6593 91.2849L43.6615 91.2807Z" fill="url(#paint20_linear_43_29802)"/>
<path d="M44.4208 94.1419C44.4208 95.0771 43.7644 96.2161 42.9536 96.6838C42.1428 97.1514 41.4865 96.7717 41.4865 95.8365C41.4865 94.9013 42.1428 93.7623 42.9536 93.2947C43.7644 92.827 44.4208 93.2067 44.4208 94.1419Z" fill="url(#paint21_linear_43_29802)"/>
<path d="M44.4208 94.1978C44.4208 95.103 43.7859 96.2056 43.0008 96.6582C42.2157 97.1108 41.5808 96.744 41.5808 95.8388C41.5808 94.9336 42.2157 93.831 43.0008 93.3784C43.7859 92.9259 44.4208 93.2927 44.4208 94.1978Z" fill="url(#paint22_linear_43_29802)"/>
<path d="M44.5795 94.1784L44.0861 93.462C43.8373 93.2454 43.4533 93.2368 43.0243 93.4835C42.2757 93.9167 41.6687 94.9678 41.6687 95.8322C41.6687 96.2827 41.8317 96.5937 42.0956 96.7267L42.9836 96.8919C43.1616 96.924 43.3783 96.879 43.6078 96.746C44.2384 96.3814 44.7489 95.4976 44.7489 94.7705C44.7489 94.5173 44.6867 94.3157 44.5795 94.1784Z" fill="url(#paint23_linear_43_29802)"/>
<path d="M44.7469 94.7726C44.7469 95.4997 44.2364 96.3835 43.6058 96.7481C42.9752 97.1128 42.4668 96.8167 42.4668 96.0896C42.4668 95.3624 42.9773 94.4787 43.6058 94.114C44.2364 93.7494 44.7469 94.0454 44.7469 94.7726Z" fill="url(#paint24_linear_43_29802)"/>
<path d="M44.6761 94.8973C44.6761 95.5215 44.2385 96.2787 43.698 96.5919C43.1574 96.9051 42.7198 96.6519 42.7198 96.0278C42.7198 95.4036 43.1574 94.6442 43.698 94.3332C44.2385 94.02 44.6761 94.2731 44.6761 94.8973Z" fill="url(#paint25_linear_43_29802)"/>
<path d="M44.4553 95.0259C44.4553 95.5085 44.1164 96.0962 43.6981 96.3364C43.2798 96.5788 42.9409 96.3815 42.9409 95.8989C42.9409 95.4162 43.2798 94.8285 43.6981 94.5861C44.1164 94.3437 44.4553 94.5411 44.4553 95.0237V95.0259Z" fill="url(#paint26_linear_43_29802)"/>
<path d="M44.5131 95.1438C44.5131 95.5643 44.2171 96.0769 43.8524 96.2893C43.4878 96.5016 43.1918 96.33 43.1918 95.9075C43.1918 95.4849 43.4878 94.9744 43.8524 94.762C44.2171 94.5518 44.5131 94.7234 44.5131 95.1438Z" fill="url(#paint27_linear_43_29802)"/>
<path d="M116.991 47.3016C116.482 47.0013 115.229 46.1369 115.229 46.1369L115.47 39.3458C115.47 39.3458 115.764 35.3518 114.191 31.5702C112.619 27.7885 110.036 25.8173 110.036 25.8173C110.036 25.8173 105.616 21.6903 97.441 16.7096C89.2621 11.7289 85.2938 11.0897 85.2938 11.0897C85.2938 11.0897 84.4423 10.6628 82.338 11.6753C80.2338 12.6877 32.6705 39.719 32.6705 39.719C32.6705 39.719 30.0064 41.3428 26.4907 45.2574C22.9751 49.1721 17.1964 57.6942 17.1964 57.6942L6.67735 68.3999C6.67735 68.3999 4.75972 70.2896 4.78546 72.1558C4.8112 74.0198 4.78546 79.2664 4.78546 79.2664C4.78546 79.2664 3.90601 79.6375 3.90601 80.8645C3.90601 82.1901 3.90601 83.9812 3.90601 83.9812C3.90601 84.3286 4.91416 85.5706 6.20974 86.6324C7.50532 87.6942 8.79447 88.9726 14.9313 92.6727C21.0682 96.375 29.2835 100.498 30.6134 101.115C31.9455 101.733 32.7885 101.926 33.9897 101.375C35.1909 100.824 36.0682 100.27 36.0682 100.27L36.1583 100.206C36.4393 98.8439 37.1707 95.3776 37.5289 94.5496L37.2372 93.3355C37.2372 93.3355 40.1201 88.8932 41.1776 88.1682C42.2351 87.4432 45.9781 85.5105 46.7631 85.3604C47.5482 85.2102 49.0883 85.3304 49.2707 85.9653C49.2707 85.9653 50.4783 86.3878 50.5083 87.3252C50.5384 88.2626 50.7421 89.644 50.2166 90.1609L91.6945 65.9996C92.1171 65.4569 92.5804 64.8134 92.8442 64.2965C93.4148 63.1811 94.1934 61.1069 94.1934 61.1069V59.8349C94.1934 59.8349 94.7897 59.5496 95.075 59.2643C95.3603 58.979 97.3831 56.8254 98.5757 56.1519C99.7683 55.4784 103.479 53.299 103.479 53.299C103.479 53.299 105.27 52.78 105.399 53.8954C105.399 53.8954 106.851 54.5453 106.8 55.6071C106.77 56.2356 106.684 57.3038 106.619 58.076L113.254 53.9962L113.809 54.7641C113.809 54.7641 115.954 53.6851 116.722 53.2433C117.49 52.8014 117.658 52.1772 117.658 52.1772V49.4724C117.658 48.7173 117.49 47.6062 116.984 47.3059L116.991 47.3016Z" fill="#D4DBDF"/>
<g style="mix-blend-mode:multiply" opacity="0.1">
<path d="M116.991 47.3015C116.924 47.2629 116.847 47.2157 116.761 47.16V47.4002L106.178 54.3929C106.514 54.6868 106.832 55.0965 106.806 55.6027C106.776 56.2312 106.69 57.2994 106.626 58.0716L113.26 53.9918L113.816 54.7597C113.816 54.7597 115.961 53.6808 116.729 53.2389C117.497 52.797 117.664 52.1728 117.664 52.1728V49.468C117.664 48.713 117.497 47.6018 116.991 47.3015ZM108.351 54.1891L114.185 50.3668L114.738 50.7378L108.348 54.1891H108.351Z" fill="black"/>
</g>
<path style="mix-blend-mode:multiply" opacity="0.1" d="M106.804 55.6029C106.774 56.2314 106.688 57.2996 106.624 58.0718L113.258 53.992L113.814 54.7599C113.814 54.7599 115.959 53.681 116.727 53.2391C116.738 53.2327 116.748 53.2263 116.759 53.2198V47.4026L106.176 54.3953C106.512 54.6892 106.83 55.0989 106.804 55.6051V55.6029ZM114.187 50.367L114.741 50.7381L108.351 54.1894L114.185 50.367H114.187Z" fill="url(#paint28_linear_43_29802)"/>
<g style="mix-blend-mode:multiply" opacity="0.1">
<path d="M105.384 53.8032L116.094 46.7247C115.643 46.4244 115.227 46.137 115.227 46.137L115.467 39.3459C115.467 39.3459 115.607 37.4304 115.171 34.9958C114.83 33.7603 114.498 32.5977 114.18 31.551C113.05 28.8397 111.401 27.0615 110.564 26.2785C109.23 25.7401 107.776 26.5939 107.776 26.5939C107.776 26.5939 83.6399 40.3412 68.8394 48.9255C62.709 52.4819 58.1466 55.0709 57.7326 55.2983C56.319 56.0748 54.3242 57.8358 54.3242 57.8358L51.4199 63.4986C51.4199 63.4986 47.132 73.8397 46.9197 74.2944C46.7073 74.747 46.2032 75.693 45.7549 76.1413C45.3066 76.5896 34.6481 85.7552 33.7215 86.6947C32.7948 87.6342 32.9964 89.5475 32.9964 89.5475L32.9879 101.68C33.3053 101.639 33.6335 101.542 33.9917 101.377C35.1929 100.826 36.0702 100.273 36.0702 100.273L36.1603 100.208C36.4413 98.8461 37.1728 95.3798 37.531 94.5518L37.2393 93.3377C37.2393 93.3377 40.1221 88.8954 41.1796 88.1704C42.2371 87.4454 45.9801 85.5128 46.7652 85.3626C47.5503 85.2125 49.0904 85.3326 49.2727 85.9675C49.2727 85.9675 49.292 85.9739 49.3263 85.989L94.1955 60.1932V59.8371C94.1955 59.8371 94.7918 59.5518 95.0771 59.2665C95.3624 58.9812 97.3851 56.8277 98.5777 56.1541C99.7704 55.4806 103.481 53.3013 103.481 53.3013C103.481 53.3013 105.165 52.8165 105.382 53.8096L105.384 53.8032ZM66.2676 73.3721C66.2676 73.505 66.1732 73.6702 66.0595 73.7388L64.6352 74.5904C64.5215 74.6591 64.4272 74.6054 64.4272 74.4724V70.8517C64.4272 70.7187 64.5215 70.5535 64.6352 70.487L66.0595 69.6355C66.1732 69.5668 66.2676 69.6204 66.2676 69.7534V73.3742V73.3721ZM70.8171 70.7745C70.8171 70.9075 70.7227 71.0726 70.6091 71.1391L69.1848 71.9907C69.0711 72.0593 68.9767 72.0057 68.9767 71.8727V68.2498C68.9767 68.1168 69.0689 67.9516 69.1848 67.8851L70.6091 67.0336C70.7227 66.9649 70.8171 67.0186 70.8171 67.1516V70.7723V70.7745ZM36.8574 86.4308V85.9868L113.867 40.2318V40.6758L36.8574 86.433V86.4308Z" fill="black"/>
</g>
<path style="mix-blend-mode:screen" opacity="0.5" d="M28.0181 83.8909L29.4488 85.0385C29.4488 85.0385 39.4037 75.1779 41.8683 73.6206C41.8683 73.6206 33.3269 78.1895 28.0181 83.8909Z" fill="url(#paint29_linear_43_29802)"/>
<path style="mix-blend-mode:multiply" opacity="0.1" d="M8.09089 72.4841L8.84808 72.7265L9.10119 72.1538C9.10119 72.1538 14.5881 64.5712 19.7769 60.9697C19.7769 60.9697 13.7301 64.1658 8.08875 72.4841H8.09089Z" fill="url(#paint30_linear_43_29802)"/>
<g style="mix-blend-mode:multiply" opacity="0.1">
<path d="M48.9446 85.5962C49.112 85.6927 49.2321 85.8128 49.275 85.963C49.275 85.963 49.2943 85.9694 49.3286 85.9844L94.1978 60.1886V59.8326C94.1978 59.8326 94.7941 59.5473 95.0794 59.262C95.1416 59.1998 95.2917 59.0432 95.4933 58.8373L48.9425 85.5983L48.9446 85.5962Z" fill="black"/>
</g>
<g style="mix-blend-mode:multiply" opacity="0.1">
<path d="M50.4696 87.0659C50.4932 87.1474 50.5083 87.231 50.5125 87.3211C50.5426 88.2564 50.7464 89.6399 50.2208 90.1568L91.6987 65.9955C92.1213 65.4528 92.5846 64.8093 92.8484 64.2924C93.1509 63.7004 93.5113 62.8424 93.7837 62.1646L50.4718 87.0659H50.4696Z" fill="black"/>
</g>
<path style="mix-blend-mode:multiply" opacity="0.1" d="M91.6988 65.9955C92.1213 65.4528 92.5847 64.8093 92.8485 64.2924C93.1509 63.7004 93.5113 62.8424 93.7837 62.1646L50.4718 87.0659C50.4954 87.1474 50.5105 87.231 50.5147 87.3211C50.5448 88.2564 50.7485 89.6399 50.223 90.1568L91.7009 65.9955H91.6988Z" fill="url(#paint31_linear_43_29802)"/>
<path d="M92.4001 65.0343L50.5662 89.0841C50.5404 89.5345 50.4503 89.9292 50.2208 90.1587L91.6987 65.9974C91.9347 65.695 92.1814 65.3603 92.4023 65.0343H92.4001Z" fill="#404B4D"/>
<g style="mix-blend-mode:multiply" opacity="0.1">
<path d="M115.716 46.4695L105.184 53.4301C105.281 53.5202 105.35 53.6446 105.384 53.8033L116.094 46.7248C115.961 46.6369 115.832 46.5489 115.716 46.4695Z" fill="black"/>
</g>
<g style="mix-blend-mode:multiply" opacity="0.2">
<path d="M67.0914 79.399C67.0914 79.3304 67.085 77.7174 67.0914 77.4728C67.0979 77.2798 66.7311 76.381 66.5895 76.0507L66.5788 76.025L66.9992 75.167C67.0056 74.7594 67.1494 65.7182 67.0657 64.2875C66.982 62.8332 65.0623 52.2862 65.043 52.1811L65.1631 52.1597C65.1824 52.2648 67.1022 62.8182 67.1858 64.2811C67.2716 65.7418 67.1215 75.0876 67.1193 75.182L67.1129 75.2077L66.7118 76.0271C66.7997 76.233 67.2201 77.2326 67.2137 77.475C67.2051 77.7195 67.2137 79.3797 67.2137 79.3969H67.0936L67.0914 79.399Z" fill="black"/>
</g>
<g style="mix-blend-mode:multiply" opacity="0.2">
<path d="M88.8547 66.9141H88.7346C88.7346 66.8991 88.7411 65.3847 88.7346 65.0351C88.7282 64.6983 88.1726 63.6644 88.1683 63.6537L88.1576 63.6323L88.3657 62.8922V51.9999L85.8539 40.0179L85.9719 39.9922L88.4858 51.987V62.9094V62.918L88.2885 63.6194C88.3721 63.776 88.8526 64.6919 88.859 65.0329C88.8655 65.3847 88.859 66.8991 88.859 66.9141H88.8547Z" fill="black"/>
</g>
<g style="mix-blend-mode:multiply" opacity="0.2">
<path d="M51.9906 88.2305C51.9712 86.2164 50.6585 85.2661 50.6435 85.2554L50.6285 85.2447L50.4526 84.7149C50.4376 84.6613 50.0858 83.445 50.0279 82.9774C49.97 82.512 49.8284 72.3768 49.8241 71.9457H49.9442C49.9442 72.0486 50.0901 82.5055 50.148 82.9624C50.2059 83.4193 50.5663 84.6655 50.5684 84.6784L50.7314 85.1675C50.888 85.2876 52.0957 86.2764 52.1128 88.2262H51.9927L51.9906 88.2305Z" fill="black"/>
</g>
<path d="M37.2414 93.3355L33.301 95.1201C33.301 95.1201 32.428 95.3453 31.7095 95.0086C30.993 94.6718 28.7065 93.6636 28.7065 93.6636L27.5868 93.7537C27.5868 93.7537 20.5512 89.9893 16.9218 87.7713C13.2925 85.5534 7.75622 81.7439 7.75622 81.7439L7.62108 81.2291L4.78753 78.8867C4.78753 79.127 4.78753 79.2664 4.78753 79.2664C4.78753 79.2664 3.90808 79.6375 3.90808 80.8644C3.90808 82.19 3.90808 83.9811 3.90808 83.9811C3.90808 84.3286 4.91623 85.5705 6.21181 86.6323C7.50739 87.6941 8.79654 88.9725 14.9334 92.6727C21.0702 96.3749 29.2856 100.498 30.6155 101.115C31.9475 101.733 32.7905 101.926 33.9917 101.375C35.1929 100.824 36.0702 100.27 36.0702 100.27L36.1603 100.206C36.4413 98.8438 37.1728 95.3775 37.531 94.5495L37.2393 93.3355H37.2414Z" fill="#404B4D"/>
<path d="M37.2416 93.3354L35.3304 94.2019C35.3304 94.2019 34.1185 95.3989 32.514 95.5426C30.9096 95.6841 28.5629 94.5945 27.484 94.0089C27.484 94.0089 20.4741 90.2294 17.2652 88.301C14.0563 86.3748 8.45569 82.5224 7.67062 81.9883C6.88555 81.4542 5.06016 79.8733 4.78774 79.2663C4.78774 79.2663 4.11635 79.5516 3.9469 80.4418C4.12708 80.8557 4.35874 81.2311 4.66548 81.4971C5.58997 82.2993 9.88641 85.4182 15.7573 89.0496C21.6282 92.679 27.9023 95.8386 29.9422 96.5121C31.9821 97.1835 33.8418 96.3105 33.8418 96.3105L37.5355 94.5516L37.2438 93.3375L37.2416 93.3354Z" fill="#5A6567"/>
<path d="M10.6713 88.5908C12.5739 89.8178 18.2582 93.4514 22.0956 95.4033C22.6147 95.6672 22.8099 95.2897 22.8099 94.9507V93.6487C18.211 91.4887 10.0278 86.0704 10.0278 86.0704V87.396C10.0278 87.8057 10.0772 88.2069 10.6713 88.5908Z" fill="#333E40"/>
<path d="M22.7885 94.7255C18.9511 92.7736 13.2669 89.1378 11.3642 87.913C10.7701 87.529 10.7207 87.1279 10.7207 86.7182V86.5252C10.281 86.2399 10.0258 86.0704 10.0258 86.0704V87.396C10.0258 87.8057 10.0751 88.2069 10.6693 88.5908C12.5719 89.8178 18.2561 93.4514 22.0935 95.4033C22.6126 95.6672 22.8078 95.2897 22.8078 94.9507V94.7341C22.8078 94.7341 22.795 94.7298 22.7885 94.7255Z" fill="#5A6567"/>
<g style="mix-blend-mode:multiply" opacity="0.2">
<path d="M18.6206 93.891C18.5477 93.891 18.4769 93.8696 18.4061 93.831L13.4812 90.9888C13.2903 90.8773 13.1509 90.6392 13.1509 90.4161V88.018C13.1509 87.7928 13.301 87.6276 13.5091 87.6276C13.582 87.6276 13.6528 87.6491 13.7236 87.6877L18.6485 90.5298C18.8394 90.6392 18.9789 90.8795 18.9789 91.1025V93.5006C18.9789 93.7259 18.8287 93.891 18.6206 93.891Z" fill="black"/>
</g>
<path d="M18.7366 93.5007C18.7366 93.6337 18.6423 93.6873 18.5286 93.6208L13.6036 90.7787C13.4878 90.7122 13.3934 90.5491 13.3934 90.4162V88.018C13.3934 87.8851 13.4878 87.8314 13.6036 87.8979L18.5286 90.7401C18.6444 90.8065 18.7366 90.9696 18.7366 91.1026V93.5007Z" fill="white"/>
<path d="M116.99 47.3016C116.482 47.0013 115.229 46.1369 115.229 46.1369L114.869 47.3724C114.869 47.3724 115.478 47.7285 115.435 48.55C115.395 49.3694 114.974 50.0001 114.174 50.3561C114.174 50.3561 114.399 52.188 113.258 53.9919L113.814 54.7598C113.814 54.7598 115.959 53.6809 116.727 53.239C117.495 52.7971 117.662 52.1729 117.662 52.1729V49.4681C117.662 48.713 117.495 47.6019 116.988 47.3016H116.99Z" fill="#404B4D"/>
<path d="M116.212 49.7877C116.212 49.7877 117.248 49.2128 117.535 48.2991C117.432 47.8529 117.259 47.4625 116.988 47.3016C116.48 47.0013 115.227 46.1369 115.227 46.1369L114.867 47.3724C114.867 47.3724 115.476 47.7285 115.433 48.55C115.392 49.3694 114.972 50.0001 114.172 50.3561C114.172 50.3561 114.206 50.6436 114.178 51.0983L116.21 49.7877H116.212Z" fill="#5A6567"/>
<path d="M29.9377 93.8076C30.4804 94.1272 33.0501 95.3906 33.3161 93.5609C33.5842 91.7312 31.5271 91.9093 31.0724 91.8664C30.6155 91.8235 29.5066 92.0937 29.4186 92.6471C29.3328 93.2027 29.3071 93.4365 29.9377 93.8054V93.8076Z" fill="white"/>
<path d="M115.227 46.1368L115.468 39.3458C115.468 39.3458 115.468 39.3393 115.468 39.3307L114.114 40.133V47.3295L115.328 46.2098C115.264 46.1669 115.225 46.139 115.225 46.139L115.227 46.1368Z" fill="#6E7E85"/>
<path d="M114.236 40.1995V47.0506L115.227 46.1369L115.463 39.4724L114.236 40.1995Z" fill="#C22026"/>
<path d="M114.236 42.6083L115.375 41.9583L115.42 40.6542L114.236 41.332V42.6083Z" fill="#9C1C1F"/>
<path d="M114.236 45.5876L115.268 44.9999L115.313 43.6957L114.236 44.3114V45.5876Z" fill="#9C1C1F"/>
<path d="M31.7095 95.0087C32.426 95.3455 33.3011 95.1203 33.3011 95.1203L34.1141 94.7535L35.9373 90.7595V86.8384L33.8224 88.016C33.8224 88.016 32.8593 88.5437 31.7267 88.016C30.5941 87.4884 28.8567 86.6926 28.8567 86.6926V93.7282C29.3651 93.9534 31.1047 94.7235 31.7138 95.0087H31.7095Z" fill="#86959E"/>
<path d="M32.6362 95.0729C32.3016 95.0729 32.0077 95.015 31.761 94.8991C31.1733 94.6246 29.5624 93.9103 28.9725 93.6486V86.879C29.438 87.0935 30.755 87.6962 31.6709 88.1231C32.0206 88.2861 32.3895 88.3697 32.767 88.3697C33.4105 88.3697 33.8567 88.1317 33.8739 88.1209L35.8108 87.0441V90.7335L34.0176 94.661L33.2475 95.0085C33.2389 95.0085 32.9751 95.0707 32.6341 95.0707L32.6362 95.0729Z" fill="#E3E2E3"/>
<path d="M31.8876 88.404L29.1978 87.1835V88.5606L31.8876 89.7811C31.8876 89.7811 32.5783 90.0042 32.9987 89.9163V88.5392C32.5783 88.625 31.8876 88.404 31.8876 88.404Z" fill="white"/>
<path d="M32.0227 90.0451C31.9391 90.0215 31.8876 90.0065 31.8876 90.0065L29.1978 88.786V90.5406L31.8876 91.7611C31.8876 91.7611 31.9412 91.7783 32.0227 91.7997V90.0473V90.0451Z" fill="white"/>
<path d="M35.815 87.0441L33.8781 88.1209C33.8652 88.1273 33.6185 88.2603 33.2324 88.3289V95.0128C33.2431 95.0128 33.2517 95.0085 33.2517 95.0085L34.0218 94.661L35.815 90.7335V87.0441Z" fill="#EF9042"/>
<path d="M33.5864 90.0365C33.0094 90.2703 32.1643 90.1309 32.1643 90.1309V91.8254C32.1643 91.8254 33.0073 91.967 33.5864 91.7311C34.1656 91.4973 35.5405 90.6993 35.5405 90.6993V89.0048C35.5405 89.0048 34.1656 89.8027 33.5864 90.0365Z" fill="#D47728"/>
<path d="M32.6362 95.0726C32.3016 95.0726 32.0077 95.0147 31.761 94.8988C31.1733 94.6243 29.5624 93.91 28.9725 93.6483V86.8787C29.438 87.0932 30.755 87.6959 31.6709 88.1228C32.0206 88.2858 32.3895 88.3694 32.767 88.3694C33.4105 88.3694 33.8567 88.1313 33.8739 88.1206L35.8108 87.0438V90.7332L34.0176 94.6607L33.2475 95.0082C33.2389 95.0082 32.9751 95.0704 32.6341 95.0704L32.6362 95.0726Z" fill="url(#paint32_linear_43_29802)"/>
<path d="M4.78977 78.7239C4.86055 78.8847 4.90989 78.9856 4.92705 78.9984C4.92705 78.9984 4.92919 79.0027 4.93134 79.0027L7.62332 81.2271V73.992L5.38608 72.3575C5.38608 72.3575 5.10294 72.0079 4.83696 71.6068C4.80693 71.7869 4.78548 71.9714 4.78762 72.1537C4.80907 73.6531 4.7962 77.3361 4.78977 78.7217V78.7239Z" fill="#86959E"/>
<path d="M5.28948 72.4345C5.28948 72.4345 5.03208 72.0677 4.81543 71.7567C4.79613 71.8897 4.7854 72.0227 4.7854 72.1557C4.80685 73.655 4.79398 77.338 4.78755 78.7237C4.78755 78.7258 4.78969 78.728 4.79184 78.7323L7.50097 80.9716V74.0562L5.3002 72.4496L5.28948 72.4367V72.4345Z" fill="#E3E2E3"/>
<path d="M5.04492 73.7752L7.37654 75.4912V74.0969L5.04492 72.3809V73.7752Z" fill="white"/>
<path d="M5.04492 75.3303L7.37654 77.0442V75.65L5.04492 73.9361V75.3303Z" fill="white"/>
<path d="M4.79838 75.5834C4.79838 76.7588 4.79408 77.9043 4.78979 78.5992C5.95453 79.5795 6.98413 80.1715 7.14286 78.6872C7.31232 77.0956 5.48049 75.9802 4.79838 75.5834Z" fill="white"/>
<path d="M5.28972 72.435C5.28972 72.435 5.03232 72.0682 4.81567 71.7572C4.79637 71.8902 4.78564 72.0232 4.78564 72.1562C4.80709 73.6555 4.79422 77.3385 4.78779 78.7242C4.78779 78.7263 4.78993 78.7285 4.79208 78.7327L7.50122 80.9721V74.0566L5.30044 72.45L5.28972 72.4372V72.435Z" fill="url(#paint33_linear_43_29802)"/>
<path d="M7.75635 81.7437C7.75635 81.7437 13.2905 85.5532 16.9219 87.7711C20.5513 89.9891 27.5869 93.7535 27.5869 93.7535L28.7066 93.6635C28.7066 93.6635 28.7624 93.687 28.8524 93.7278V86.6922C28.8524 86.6922 28.6851 85.4846 29.4466 85.0384C29.4466 85.0384 28.713 83.8865 28.2862 83.5991C27.8593 83.3117 21.4822 79.7853 18.121 77.7518C14.7598 75.7184 9.10127 72.1555 9.10127 72.1555H8.19608C8.19608 72.1555 7.74348 73.5819 7.62122 73.9959V81.231L7.75635 81.7458V81.7437Z" fill="#273234"/>
<path d="M28.7066 93.6635C28.7066 93.6635 28.7624 93.6871 28.8524 93.7278V86.6922C28.8524 86.6922 28.6851 85.4846 29.4466 85.0384C29.4466 85.0384 28.713 83.8865 28.2862 83.5991C27.8593 83.3117 21.4822 79.7853 18.121 77.7518C14.7598 75.7184 9.10127 72.1555 9.10127 72.1555H8.19608C8.19608 72.1555 7.74348 73.5819 7.62122 73.9959V74.0753C7.97514 73.8522 8.41701 73.9402 8.41701 73.9402C8.41701 73.9402 15 77.9556 16.8125 79.1225C18.6251 80.2894 26.5766 84.6995 27.0807 85.0813C27.5848 85.4631 27.5869 86.6943 27.5869 86.6943V93.7557L28.7066 93.6656V93.6635Z" fill="url(#paint34_linear_43_29802)"/>
<path d="M10.1244 76.0125C9.41228 75.5985 8.95754 75.3347 8.87389 75.2918C8.33764 75.0065 8.3548 75.8109 8.3548 75.8109C8.3548 75.8109 8.4599 79.2965 8.36981 80.4119C8.27972 81.5252 8.62078 81.7054 8.90821 81.9392C8.98328 81.9992 9.45089 82.3124 10.1244 82.7543V76.0147V76.0125Z" fill="#1B2628"/>
<path d="M25.9823 85.3002C25.9823 85.3002 25.5662 85.0557 24.8669 84.646V91.5894C25.4568 91.909 25.8558 92.1235 25.9373 92.1664C26.7631 92.6125 26.7545 91.4971 26.7545 91.4971C26.7545 91.4971 26.7545 87.3101 26.7653 86.465C26.7738 85.6198 25.9845 85.3002 25.9845 85.3002H25.9823Z" fill="#1B2628"/>
<path d="M23.8954 85.9417V84.1913C20.6522 82.2887 14.4274 78.5264 11.0962 76.5809V78.387C12.735 79.3908 20.3433 84.0305 23.8954 85.9417Z" fill="#1B2628"/>
<path d="M23.8954 88.3548V86.9798C20.3433 85.0686 12.735 80.4268 11.0962 79.4251V80.8001C12.735 81.8039 20.3433 86.4436 23.8954 88.3548Z" fill="#1B2628"/>
<path d="M11.0962 81.8403V83.389C13.0589 84.6717 15.7702 86.4242 16.7268 87.0441C17.7693 87.7219 21.5102 89.7704 23.8954 91.0638V89.395C20.3433 87.4838 12.735 82.842 11.0962 81.8403Z" fill="#1B2628"/>
<path d="M9.67188 81.5273C9.38445 81.2935 9.0434 81.1133 9.13349 80.0001C9.21929 78.9426 9.1292 75.7508 9.12062 75.4291C8.99192 75.354 8.90826 75.3068 8.87609 75.2918C8.33984 75.0065 8.357 75.8109 8.357 75.8109C8.357 75.8109 8.4621 79.2965 8.37201 80.4119C8.28192 81.5252 8.62298 81.7054 8.91041 81.9392C8.98548 81.9992 9.45309 82.3124 10.1266 82.7543V81.8405C9.87995 81.6753 9.71478 81.5638 9.67403 81.5295L9.67188 81.5273Z" fill="url(#paint35_linear_43_29802)"/>
<path d="M26.6988 91.7567C26.6195 91.7138 26.2184 91.4993 25.6285 91.1797V85.0943C25.4397 84.9849 25.1845 84.8348 24.8649 84.646V91.5894C25.4547 91.909 25.8537 92.1235 25.9352 92.1664C26.4865 92.4645 26.6667 92.0656 26.7246 91.7695C26.716 91.7653 26.7074 91.7631 26.6988 91.7567Z" fill="#5A6567"/>
<path d="M11.8597 77.9752V77.025C11.5916 76.8684 11.3364 76.7182 11.0983 76.5767V78.3828C12.737 79.3866 20.3454 84.0262 23.8975 85.9374V85.1116C20.1201 83.0138 13.3913 78.9104 11.8619 77.9731L11.8597 77.9752Z" fill="url(#paint36_linear_43_29802)"/>
<path d="M11.8597 80.3904V79.8906C11.5423 79.6954 11.2806 79.5366 11.0983 79.4251V80.8001C12.737 81.8039 20.3454 86.4436 23.8975 88.3548V87.5268C20.1201 85.429 13.3913 81.3256 11.8619 80.3882L11.8597 80.3904Z" fill="url(#paint37_linear_43_29802)"/>
<path d="M17.4883 86.6344C16.5316 86.0145 13.8225 84.2599 11.8577 82.9793V82.3058C11.5402 82.1106 11.2785 81.9519 11.0962 81.8403V83.389C13.0589 84.6717 15.7702 86.4242 16.7268 87.0441C17.7693 87.7219 21.5102 89.7704 23.8954 91.0638V90.2402C21.5424 88.9596 18.4278 87.2436 17.4883 86.6344Z" fill="url(#paint38_linear_43_29802)"/>
<path d="M70.6971 67.1278C70.6971 67.1278 70.6843 67.1321 70.6735 67.1385L69.6547 67.7477V71.5723L70.5513 71.0381C70.6285 70.991 70.7014 70.8665 70.7014 70.7765V67.1557C70.7014 67.1428 70.7014 67.1342 70.7014 67.1299L70.6971 67.1278Z" fill="#404B4D"/>
<path d="M66.1475 69.7256C66.1475 69.7256 66.1346 69.7299 66.1239 69.7364L65.1029 70.3456V74.1701L65.9995 73.6338C66.0767 73.5867 66.1475 73.4622 66.1475 73.3722V69.7514C66.1475 69.7385 66.1475 69.7299 66.1475 69.7256Z" fill="#404B4D"/>
<path d="M46.9219 74.2923L54.4144 58.3163C54.6139 57.8101 54.4101 56.9993 53.6829 56.5767C52.9536 56.152 44.5645 51.1434 41.0253 49.0778C37.4839 47.0121 31.716 43.638 31.1282 43.1983C30.5383 42.7586 29.5238 42.8959 28.4942 43.9255C27.4646 44.9551 21.2655 52.5677 18.3247 57.0979C18.3247 57.0979 21.7674 62.1923 31.2698 67.5055C40.7722 72.8208 46.924 74.2944 46.924 74.2944L46.9219 74.2923Z" fill="#131B1D"/>
<path d="M47.1836 72.4839C45.71 72.072 40.0407 70.3238 32.0313 65.8429C23.9296 61.3127 20.2681 56.9262 19.438 55.8408C22.4153 51.3256 26.7117 46.2119 27.7456 45.1758C28.4599 44.4616 29.0176 44.3543 29.2857 44.3543C29.468 44.3543 29.6246 44.4015 29.749 44.4937C30.2059 44.8326 33.9618 47.0613 40.1973 50.6971C42.5933 52.0956 47.1557 54.809 50.1737 56.6044C51.5851 57.4453 52.619 58.0587 52.855 58.196C53.3655 58.4942 53.4899 59.039 53.3848 59.3307L47.1814 72.4817L47.1836 72.4839Z" fill="#303E42"/>
<path d="M62.1514 54.4939C63.0823 53.9705 64.1548 53.8869 64.3586 55.6651C64.5602 57.4433 65.1244 63.0954 65.1458 64.2001C65.1694 65.3026 64.5388 66.0919 63.0737 66.8127C61.6108 67.5334 52.4667 72.6449 52.4667 72.6449C52.4667 72.6449 51.6108 73.0503 51.5208 72.0593C51.4307 71.0683 51.2741 70.191 51.7224 69.0199C52.1728 67.8487 55.6177 60.2597 55.9566 59.3824C56.2955 58.5029 57.1857 57.5355 58.2818 56.8384C59.3779 56.1413 61.4285 54.9015 62.1492 54.4961L62.1514 54.4939Z" fill="#131B1D"/>
<path d="M52.0978 72.4838C52.0099 72.4838 51.8061 72.4838 51.7632 72.0355C51.7546 71.9261 51.7417 71.8167 51.731 71.7094C51.6452 70.8407 51.5701 70.0921 51.9519 69.1054C52.19 68.4834 53.3183 65.9544 54.3114 63.7236C55.193 61.7481 56.0253 59.8798 56.184 59.4658C56.5015 58.6421 57.3552 57.7112 58.4148 57.0376C59.4723 56.3641 61.5251 55.12 62.2716 54.7017C62.6169 54.5065 62.9386 54.4036 63.1982 54.4036C63.3891 54.4036 63.9725 54.4036 64.1205 55.6884C64.3308 57.5353 64.8842 63.1101 64.9078 64.1998C64.9292 65.1972 64.3479 65.9115 62.9708 66.5915C61.5187 67.3058 52.7435 72.2114 52.3552 72.428C52.3552 72.428 52.2308 72.4795 52.1 72.4795L52.0978 72.4838Z" fill="#303E42"/>
<path d="M88.9682 50.0236C89.1055 50.6735 89.6847 50.9245 90.2552 50.5834L110.324 38.5436C110.892 38.2025 112.194 36.9434 111.66 35.0515C111.231 33.5307 110.182 30.4934 109.236 28.9747C108.885 28.4106 108.316 28.121 107.737 28.447L87.9451 39.6525C87.3681 39.9786 87.0056 40.7786 87.145 41.4286L88.9682 50.0215V50.0236Z" fill="#131B1D"/>
<path d="M89.7382 50.0106C89.7382 50.0106 89.6974 49.9699 89.676 49.8734L87.8527 41.2805C87.7798 40.9394 87.9986 40.4568 88.301 40.2852L108.093 29.0797C108.144 29.0518 108.189 29.0368 108.228 29.0368C108.344 29.0368 108.496 29.1634 108.618 29.3607C109.476 30.7378 110.506 33.6335 110.961 35.2509C111.446 36.9712 109.963 37.915 109.948 37.9235L89.8798 49.9634C89.8047 50.0085 89.7575 50.0128 89.7446 50.0128C89.7382 50.0128 89.736 50.0128 89.736 50.0128L89.7382 50.0106Z" fill="#303E42"/>
<path d="M85.5555 42.3124C85.4461 41.6581 84.8841 41.3879 84.3071 41.7161L67.7863 51.0704C67.2093 51.3986 66.8232 52.203 66.9283 52.8572L68.4619 62.351C68.5692 63.0052 69.1205 63.2626 69.691 62.9215L86.1947 53.0202C86.7652 52.6792 87.1406 51.8619 87.0334 51.2077L85.5576 42.3124H85.5555Z" fill="#131B1D"/>
<path d="M69.2105 62.3465C69.2019 62.3293 69.1869 62.295 69.1762 62.235L67.6425 52.7412C67.5846 52.383 67.827 51.8789 68.1423 51.6987L84.6631 42.3465C84.736 42.3036 84.7811 42.3015 84.7918 42.3015C84.7961 42.3036 84.824 42.3444 84.839 42.4323L86.3147 51.3276C86.3748 51.6901 86.1346 52.2114 85.8193 52.4001L69.3156 62.3015C69.2641 62.3315 69.2277 62.3422 69.2084 62.3465H69.2105Z" fill="#303E42"/>
<path d="M29.7512 44.4958C29.6268 44.4014 29.4702 44.3564 29.2879 44.3564C29.0198 44.3564 28.4621 44.4636 27.7478 45.1779C27.3059 45.6198 26.2656 46.8103 24.9872 48.3804L24.541 53.4941L34.7062 47.4817C31.7825 45.7592 30.0537 44.7189 29.7534 44.4958H29.7512Z" fill="#C4CFD2"/>
<path d="M34.0883 61.6582C30.5812 59.717 23.863 55.2575 23.2281 55.2961C22.7841 55.324 21.2204 56.315 20.3259 56.9049C21.9647 58.7389 25.5983 62.2438 32.0291 65.8431C40.0406 70.324 45.7077 72.0722 47.1814 72.4841L48.7279 69.2043C45.7356 67.6771 37.1985 63.3828 34.0861 61.6582H34.0883Z" fill="#39474B"/>
<path d="M108.095 29.0797L106.613 29.9184C107.295 30.3796 108.786 31.3749 108.919 31.3642C109.05 31.3534 108.423 29.8133 108.115 29.0712C108.108 29.0755 108.102 29.0776 108.095 29.0797Z" fill="#C4CFD2"/>
<path d="M55.1545 71.894C55.1545 71.894 55.858 71.9369 56.2313 72.1814C56.6045 72.426 58.372 73.1574 58.9747 73.0008C59.5775 72.8421 59.8928 72.4581 59.8928 72.4581C59.8928 72.4581 59.9657 68.4041 59.8928 68.0588C59.822 67.7134 58.3698 66.909 57.9966 66.7953C57.6234 66.6795 56.6603 66.9391 56.5166 67.5139C56.3729 68.0888 56.1433 68.994 56.1433 68.994L55.1523 68.6358V71.8962L55.1545 71.894Z" fill="#404B4D"/>
<path d="M58.8309 68.6466C59.1097 68.7602 59.5366 68.8117 59.9227 68.7581C59.9184 68.3977 59.9098 68.1339 59.8927 68.0567C59.8219 67.7113 58.3697 66.907 57.9965 66.7933C57.6233 66.6774 56.6602 66.937 56.5164 67.5118C56.51 67.5376 56.5036 67.5676 56.495 67.5934C57.235 67.9344 58.4941 68.5093 58.8288 68.6466H58.8309Z" fill="#5A6567"/>
<path d="M55.1544 68.6335L54.3779 67.9878L53.033 66.0059C52.4045 67.4194 51.8833 68.6099 51.7267 69.0174C51.2762 70.1886 51.435 71.0659 51.5251 72.0569C51.6152 73.0479 52.471 72.6425 52.471 72.6425C52.471 72.6425 53.7666 72.7068 55.2273 71.8939L55.1566 68.6335H55.1544Z" fill="#404B4D"/>
<path d="M53.0331 66.0037C52.6448 66.8789 52.2973 67.6682 52.0507 68.2388C52.8593 68.6978 54.1099 69.3435 54.4852 69.1633C54.7212 69.0496 54.9357 68.8223 55.1094 68.5927L54.3801 67.9857L53.0352 66.0037H53.0331Z" fill="#5A6567"/>
<path d="M55.1757 69.6033C54.8604 69.7921 53.9359 70.2576 52.4687 70.2576C52.2242 70.2576 52.7497 71.4502 53.4211 71.5059C53.833 71.5424 54.6416 71.2593 55.2079 71.0341L55.1757 69.6033Z" fill="#5A6567"/>
<path d="M58.9747 73.001C59.5775 72.8422 59.8928 72.4583 59.8928 72.4583C59.8928 72.4583 59.9357 70.013 59.9228 68.7603C59.5496 68.8096 59.1377 68.7646 58.8589 68.6573V73.0181C58.9018 73.0139 58.9404 73.0096 58.9747 73.001Z" fill="#5A6567"/>
<path d="M55.1544 69.5326V71.5939C55.8666 71.4695 56.3041 70.8904 56.1862 70.2941C56.0939 69.8308 55.5041 69.6184 55.1544 69.5305V69.5326Z" fill="#5A6567"/>
<path d="M23.7044 48.6593V46.7567C23.7044 46.7567 23.4255 46.0102 23.0223 45.6927C22.619 45.3774 22.2458 45.3774 21.7868 45.9072C21.3277 46.4392 21.3277 47.2865 21.3277 48.0051C21.3277 48.6185 21.2248 50.6262 21.5701 51.5014C22.2651 50.5533 22.988 49.5838 23.7044 48.6571V48.6593Z" fill="#5A6567"/>
<path d="M22.2608 47.0443C22.2329 46.8255 21.9176 46.4823 21.6023 46.1906C21.3299 46.7118 21.3277 47.4046 21.3277 48.0074C21.3277 48.6101 21.2248 50.6286 21.5701 51.5037C21.7739 51.227 21.9819 50.946 22.19 50.665C22.2415 49.1592 22.2951 47.3038 22.2608 47.0443Z" fill="#404B4D"/>
<path d="M46.8662 66.4242C46.4157 65.0728 44.7534 63.4533 43.1511 62.8055C42.7006 62.6232 42.3059 62.5374 41.9777 62.5374C41.1348 62.5374 40.7422 63.1058 41.0661 64.0775C41.5166 65.4289 43.1789 67.0484 44.7813 67.6961C45.2296 67.8785 45.6264 67.9643 45.9546 67.9643C46.7976 67.9643 47.1901 67.3958 46.8662 66.4242ZM46.2677 67.2049C46.2399 67.2435 46.1326 67.2843 45.9546 67.2843C45.7765 67.2843 45.4805 67.2457 45.0365 67.0655C43.6208 66.4928 42.0979 65.0256 41.7096 63.8609C41.5959 63.5198 41.6302 63.3396 41.6646 63.2925C41.6925 63.2538 41.8018 63.2131 41.9777 63.2131C42.1515 63.2131 42.4518 63.2517 42.8958 63.4297C44.3115 64.0024 45.8345 65.4718 46.2227 66.6344C46.3364 66.9754 46.3021 67.1556 46.2677 67.2028V67.2049Z" fill="#3D4B50"/>
<path d="M39.1013 64.2344C38.505 64.3953 36.9906 67.1666 39.8155 68.5738C44.867 71.0898 48.2132 68.9405 48.2132 68.9405C48.2132 68.9405 45.3432 62.5506 39.1013 64.2344Z" fill="#3D4B50"/>
<path opacity="0.2" d="M29.7511 44.4958C29.6267 44.4014 29.4701 44.3564 29.2878 44.3564C29.0196 44.3564 28.4619 44.4636 27.7477 45.1779C26.7116 46.214 22.4173 51.3276 19.4401 55.8429C19.7597 56.2611 20.504 57.1728 21.7588 58.3911C25.2402 55.8708 31.141 52.3916 39.3993 50.2315C33.6464 46.8725 30.1908 44.8197 29.7532 44.4958H29.7511Z" fill="white"/>
<defs>
<linearGradient id="paint0_linear_43_29802" x1="95.4975" y1="63.5477" x2="103.929" y2="63.5477" gradientUnits="userSpaceOnUse">
<stop stop-color="#696867"/>
<stop offset="1" stop-color="#343433"/>
</linearGradient>
<linearGradient id="paint1_linear_43_29802" x1="98.492" y1="66.7268" x2="100.858" y2="57.7736" gradientUnits="userSpaceOnUse">
<stop stop-color="#696867"/>
<stop offset="1" stop-color="#343433"/>
</linearGradient>
<linearGradient id="paint2_linear_43_29802" x1="96.2419" y1="64.3522" x2="96.9218" y2="62.6212" gradientUnits="userSpaceOnUse">
<stop stop-color="#696867"/>
<stop offset="1" stop-color="#343433"/>
</linearGradient>
<linearGradient id="paint3_linear_43_29802" x1="97.4752" y1="66.8127" x2="96.9904" y2="64.9701" gradientUnits="userSpaceOnUse">
<stop stop-color="#696867"/>
<stop offset="1" stop-color="#343433"/>
</linearGradient>
<linearGradient id="paint4_linear_43_29802" x1="100.217" y1="65.1759" x2="101" y2="63.2219" gradientUnits="userSpaceOnUse">
<stop stop-color="#696867"/>
<stop offset="1" stop-color="#343433"/>
</linearGradient>
<linearGradient id="paint5_linear_43_29802" x1="101.227" y1="61.5615" x2="101.396" y2="59.4787" gradientUnits="userSpaceOnUse">
<stop stop-color="#696867"/>
<stop offset="1" stop-color="#343433"/>
</linearGradient>
<linearGradient id="paint6_linear_43_29802" x1="99.1355" y1="60.8515" x2="98.876" y2="59.0904" gradientUnits="userSpaceOnUse">
<stop stop-color="#696867"/>
<stop offset="1" stop-color="#343433"/>
</linearGradient>
<linearGradient id="paint7_linear_43_29802" x1="99.6975" y1="61.6969" x2="98.3054" y2="63.7539" gradientUnits="userSpaceOnUse">
<stop stop-color="#DFE0E2"/>
<stop offset="1" stop-color="#727475"/>
</linearGradient>
<linearGradient id="paint8_linear_43_29802" x1="99.7148" y1="61.1196" x2="98.2476" y2="64.5516" gradientUnits="userSpaceOnUse">
<stop stop-color="#D0D1D3"/>
<stop offset="1" stop-color="#858889"/>
</linearGradient>
<linearGradient id="paint9_linear_43_29802" x1="99.8177" y1="62.454" x2="98.2518" y2="63.962" gradientUnits="userSpaceOnUse">
<stop stop-color="#DFE0E2"/>
<stop offset="1" stop-color="#727475"/>
</linearGradient>
<linearGradient id="paint10_linear_43_29802" x1="99.9807" y1="62.0547" x2="99.0777" y2="64.7617" gradientUnits="userSpaceOnUse">
<stop stop-color="#DFE0E2"/>
<stop offset="1" stop-color="#727475"/>
</linearGradient>
<linearGradient id="paint11_linear_43_29802" x1="100.29" y1="62.1172" x2="98.9296" y2="64.7191" gradientUnits="userSpaceOnUse">
<stop stop-color="#D0D1D3"/>
<stop offset="1" stop-color="#858889"/>
</linearGradient>
<linearGradient id="paint12_linear_43_29802" x1="99.6997" y1="62.4924" x2="99.6267" y2="63.9467" gradientUnits="userSpaceOnUse">
<stop stop-color="#DFE0E2"/>
<stop offset="1" stop-color="#727475"/>
</linearGradient>
<linearGradient id="paint13_linear_43_29802" x1="99.9978" y1="62.5504" x2="99.6332" y2="64.1977" gradientUnits="userSpaceOnUse">
<stop stop-color="#D0D1D3"/>
<stop offset="1" stop-color="#858889"/>
</linearGradient>
<linearGradient id="paint14_linear_43_29802" x1="39.5367" y1="95.6821" x2="47.9687" y2="95.6821" gradientUnits="userSpaceOnUse">
<stop stop-color="#696867"/>
<stop offset="1" stop-color="#343433"/>
</linearGradient>
<linearGradient id="paint15_linear_43_29802" x1="42.5312" y1="98.8609" x2="44.8971" y2="89.9077" gradientUnits="userSpaceOnUse">
<stop stop-color="#696867"/>
<stop offset="1" stop-color="#343433"/>
</linearGradient>
<linearGradient id="paint16_linear_43_29802" x1="40.2809" y1="96.4867" x2="40.963" y2="94.7557" gradientUnits="userSpaceOnUse">
<stop stop-color="#696867"/>
<stop offset="1" stop-color="#343433"/>
</linearGradient>
<linearGradient id="paint17_linear_43_29802" x1="41.5143" y1="98.9466" x2="41.0295" y2="97.1041" gradientUnits="userSpaceOnUse">
<stop stop-color="#696867"/>
<stop offset="1" stop-color="#343433"/>
</linearGradient>
<linearGradient id="paint18_linear_43_29802" x1="44.2557" y1="97.3101" x2="45.0386" y2="95.356" gradientUnits="userSpaceOnUse">
<stop stop-color="#696867"/>
<stop offset="1" stop-color="#343433"/>
</linearGradient>
<linearGradient id="paint19_linear_43_29802" x1="45.266" y1="93.6939" x2="45.4355" y2="91.6132" gradientUnits="userSpaceOnUse">
<stop stop-color="#696867"/>
<stop offset="1" stop-color="#343433"/>
</linearGradient>
<linearGradient id="paint20_linear_43_29802" x1="43.1746" y1="92.9859" x2="42.915" y2="91.2249" gradientUnits="userSpaceOnUse">
<stop stop-color="#696867"/>
<stop offset="1" stop-color="#343433"/>
</linearGradient>
<linearGradient id="paint21_linear_43_29802" x1="43.7366" y1="93.8288" x2="42.3445" y2="95.888" gradientUnits="userSpaceOnUse">
<stop stop-color="#DFE0E2"/>
<stop offset="1" stop-color="#727475"/>
</linearGradient>
<linearGradient id="paint22_linear_43_29802" x1="43.7537" y1="93.254" x2="42.2865" y2="96.6839" gradientUnits="userSpaceOnUse">
<stop stop-color="#D0D1D3"/>
<stop offset="1" stop-color="#858889"/>
</linearGradient>
<linearGradient id="paint23_linear_43_29802" x1="43.8566" y1="94.5881" x2="42.2908" y2="96.0939" gradientUnits="userSpaceOnUse">
<stop stop-color="#DFE0E2"/>
<stop offset="1" stop-color="#727475"/>
</linearGradient>
<linearGradient id="paint24_linear_43_29802" x1="44.0198" y1="94.1891" x2="43.1189" y2="96.8961" gradientUnits="userSpaceOnUse">
<stop stop-color="#DFE0E2"/>
<stop offset="1" stop-color="#727475"/>
</linearGradient>
<linearGradient id="paint25_linear_43_29802" x1="44.3307" y1="94.2517" x2="42.9708" y2="96.8536" gradientUnits="userSpaceOnUse">
<stop stop-color="#D0D1D3"/>
<stop offset="1" stop-color="#858889"/>
</linearGradient>
<linearGradient id="paint26_linear_43_29802" x1="43.7389" y1="94.6269" x2="43.6681" y2="96.0812" gradientUnits="userSpaceOnUse">
<stop stop-color="#DFE0E2"/>
<stop offset="1" stop-color="#727475"/>
</linearGradient>
<linearGradient id="paint27_linear_43_29802" x1="44.0369" y1="94.6848" x2="43.6723" y2="96.3322" gradientUnits="userSpaceOnUse">
<stop stop-color="#D0D1D3"/>
<stop offset="1" stop-color="#858889"/>
</linearGradient>
<linearGradient id="paint28_linear_43_29802" x1="110.929" y1="51.6089" x2="112.578" y2="54.0435" gradientUnits="userSpaceOnUse">
<stop stop-color="white"/>
<stop offset="1"/>
</linearGradient>
<linearGradient id="paint29_linear_43_29802" x1="28.668" y1="84.7382" x2="40.2231" y2="73.6549" gradientUnits="userSpaceOnUse">
<stop stop-color="white"/>
<stop offset="1"/>
</linearGradient>
<linearGradient id="paint30_linear_43_29802" x1="18.5757" y1="61.1907" x2="8.82663" y2="72.2246" gradientUnits="userSpaceOnUse">
<stop stop-color="white"/>
<stop offset="1"/>
</linearGradient>
<linearGradient id="paint31_linear_43_29802" x1="71.3856" y1="75.0517" x2="72.2929" y2="76.6862" gradientUnits="userSpaceOnUse">
<stop stop-color="white"/>
<stop offset="1"/>
</linearGradient>
<linearGradient id="paint32_linear_43_29802" x1="28.9725" y1="90.9756" x2="35.8151" y2="90.9756" gradientUnits="userSpaceOnUse">
<stop stop-color="white"/>
<stop offset="1" stop-color="white"/>
</linearGradient>
<linearGradient id="paint33_linear_43_29802" x1="4.78564" y1="76.3647" x2="7.50122" y2="76.3647" gradientUnits="userSpaceOnUse">
<stop stop-color="white"/>
<stop offset="1" stop-color="white"/>
</linearGradient>
<linearGradient id="paint34_linear_43_29802" x1="22.692" y1="86.4412" x2="23.9811" y2="88.5755" gradientUnits="userSpaceOnUse">
<stop stop-color="#5A6567"/>
<stop offset="1" stop-color="#2E383B"/>
</linearGradient>
<linearGradient id="paint35_linear_43_29802" x1="10.3626" y1="81.3386" x2="9.59466" y2="79.9186" gradientUnits="userSpaceOnUse">
<stop stop-color="#5A6567"/>
<stop offset="1" stop-color="#2E383B"/>
</linearGradient>
<linearGradient id="paint36_linear_43_29802" x1="14.6139" y1="76.5638" x2="14.4616" y2="76.2914" gradientUnits="userSpaceOnUse">
<stop stop-color="#5A6567"/>
<stop offset="1" stop-color="#2E383B"/>
</linearGradient>
<linearGradient id="paint37_linear_43_29802" x1="14.4981" y1="79.0111" x2="14.3479" y2="78.7516" gradientUnits="userSpaceOnUse">
<stop stop-color="#5A6567"/>
<stop offset="1" stop-color="#2E383B"/>
</linearGradient>
<linearGradient id="paint38_linear_43_29802" x1="13.8568" y1="81.6773" x2="13.6509" y2="81.3856" gradientUnits="userSpaceOnUse">
<stop stop-color="#5A6567"/>
<stop offset="1" stop-color="#2E383B"/>
</linearGradient>
</defs>
</svg>
