<svg width="120" height="120" viewBox="0 0 120 120" fill="none" xmlns="http://www.w3.org/2000/svg">
<path d="M111.833 33.1903C111.833 33.1903 112.24 30.1328 110.674 27.9626C109.109 25.7925 102.734 22.0229 99.2132 20.1466C95.6923 18.2703 91.7759 17.5187 87.379 18.3155C82.9821 19.1068 78.3931 20.9435 75.0927 22.5429C71.7922 24.1479 56.1037 32.8851 56.1037 32.8851L32.9778 47.2738L50.6895 65.7767L90.2048 48.6019L108.323 39.1017L111.867 33.1846H111.822L111.833 33.1903Z" fill="#E1E8EC"/>
<path d="M99.6031 33.1902L95.1045 35.3208C95.1045 35.3208 93.7708 35.9255 92.1714 35.0269C90.5664 34.1284 80.4446 28.0926 80.4446 28.0926C80.4446 28.0926 79.5912 27.55 81.2132 26.4706C82.8352 25.3855 84.5871 24.097 84.5871 24.097C84.5871 24.097 81.2528 22.2659 74.5049 24.453C67.757 26.6401 60.9187 30.6866 60.9187 30.6866L60.3536 30.534C57.8782 31.9017 56.1093 32.8907 56.1093 32.8907L32.9834 47.2794L50.6952 65.7823L89.2553 49.02C89.3965 48.2684 89.487 47.7937 89.487 47.7937C89.487 47.7937 98.2242 42.3513 100.372 37.4514C101.835 34.1001 99.6031 33.1959 99.6031 33.1959V33.1902Z" fill="#555E61"/>
<path d="M51.5598 44.7023C51.5598 44.7023 49.4575 43.0012 45.6201 43.5889C41.7827 44.1767 34.4471 48.4662 33.8594 49.8056C33.2716 51.1393 35.8374 54.7619 37.109 54.9767C38.3749 55.1915 44.8741 55.6775 45.3997 55.3553C45.9253 55.0389 51.2773 51.1676 51.2773 51.1676L51.5598 44.7023Z" fill="url(#paint0_linear_43_27244)"/>
<path d="M73.3801 35.6261C73.3801 35.6261 67.9038 34.2133 60.7321 38.3389L49.8247 44.6968C49.8247 44.6968 45.9365 42.9166 40.788 45.8101C35.6338 48.7037 34.82 49.5175 34.82 49.5175L33.3789 48.4833L38.0809 45.0528L54.9845 34.7784L66.4684 31.9244L75.3751 29.8729L86.1073 35.0158C86.1073 35.0158 90.5663 39.5652 90.2668 40.5599C89.9672 41.5546 87.6784 45.0472 87.6784 45.0472C87.6784 45.0472 77.2458 36.5191 73.3914 35.6148L73.3801 35.6261Z" fill="#CFC5B1"/>
<path d="M71.9219 34.3658C71.9219 34.3658 60.5342 35.903 58.9574 38.1353C57.3807 40.3677 56.7929 45.7196 58.9574 46.0644C61.122 46.4035 67.0617 45.5218 67.6833 45.2449C68.2993 44.968 71.4133 39.0113 71.4133 39.0113L71.9219 34.3714V34.3658Z" fill="url(#paint1_linear_43_27244)"/>
<path d="M59.7487 46.4092C59.7939 46.5957 59.0649 51.0547 61.4329 52.038C63.8008 53.0157 68.5085 52.4958 68.5085 52.4958C68.5085 52.4958 69.4354 49.6983 69.1358 49.5175C68.8363 49.3366 59.7487 46.4035 59.7487 46.4035V46.4092Z" fill="#C2B8A4" stroke="#C2B8A4" stroke-miterlimit="10"/>
<path d="M79.9301 50.0938C79.9301 50.0938 73.9 50.7889 73.4366 52.0662C72.9731 53.3434 75.4881 56.0957 77.7543 55.361C80.0262 54.6263 83.3719 51.7497 83.3719 51.7497L79.9245 50.0938H79.9301Z" fill="url(#paint2_linear_43_27244)"/>
<path d="M69.4581 43.8434L68.2147 44.0186C68.2147 44.0186 62.275 44.1147 61.5912 44.3577C60.9074 44.6007 58.2399 45.358 60.2292 46.8613C62.2185 48.3646 67.7174 50.953 68.6386 51.2751C69.5654 51.6029 75.3639 47.6355 75.3639 47.6355L69.4524 43.8434H69.4581Z" fill="url(#paint3_linear_43_27244)"/>
<path d="M60.9185 30.6867C60.9185 30.6867 62.9643 31.9866 63.5521 31.9187C64.1455 31.8566 68.9492 30.3194 70.5825 29.8333C72.2215 29.3417 74.2956 28.6748 76.5731 29.4208C78.8507 30.1611 81.2808 31.4836 83.9935 33.0547C86.7119 34.6258 89.1533 36.2026 89.8089 36.8694C90.4645 37.5363 91.8547 38.6836 91.3291 39.7517L90.0349 40.0004L89.6845 39.1979C89.6845 39.1979 86.4349 36.2986 84.5586 35.0892C82.6824 33.8798 79.2915 32.0996 78.1046 31.6757C76.9178 31.2519 73.3574 30.7602 70.9442 31.088C68.531 31.4158 58.867 34.7388 56.5499 35.5922C54.2328 36.4456 49.8076 38.2371 46.0325 40.4242C42.2573 42.6114 33.4749 48.6641 33.4749 48.6641C33.4749 48.6641 33.6557 47.6751 33.8931 47.4829C34.1304 47.2964 37.4026 45.0698 37.4026 45.0698L53.645 34.9027L60.9128 30.6867H60.9185Z" fill="#E6E0D5"/>
<path d="M63.0098 39.9043C63.0098 39.9043 60.4327 40.1304 59.5285 42.6679C58.7203 44.9398 58.7655 46.8556 58.7655 46.8556C58.7655 46.8556 57.5957 48.4663 57.1944 50.7891C56.7875 53.1457 57.1492 54.4569 57.2849 55.3555L60.9527 53.79L63.0098 39.9043Z" fill="#CFC5B1"/>
<path d="M54.9449 35.3492C54.9449 35.3492 52.8086 36.0161 51.9044 38.5592C51.0962 40.8311 51.2997 42.6057 51.2997 42.6057L58.7709 46.8669C58.7709 46.8669 58.7257 44.9511 59.5339 42.6792C60.4381 40.136 63.0152 39.9156 63.0152 39.9156L54.9505 35.3548L54.9449 35.3492Z" fill="url(#paint4_linear_43_27244)"/>
<path d="M57.2 50.789C57.6012 48.4718 58.7711 46.8555 58.7711 46.8555L51.2998 42.5943C51.2998 42.5943 50.356 44.0354 49.7174 46.0587C49.3105 47.3472 49.1636 49.7095 49.2935 50.6081L57.2847 55.3554C57.1491 54.4568 56.7874 53.1456 57.1943 50.789H57.2Z" fill="url(#paint5_linear_43_27244)"/>
<path d="M60.003 37.7736C60.2743 37.4514 60.7716 37.2423 61.1559 37.3045C60.7321 37.0445 57.0812 34.8461 56.7139 34.6992C56.3183 34.5466 55.7249 34.767 55.414 35.1287C55.1089 35.4904 54.8093 37.2932 54.8093 37.2932L59.5566 40.1302C59.6244 40.1585 59.6866 40.1755 59.7487 40.1868C59.7487 39.469 59.7713 38.0392 60.003 37.7679V37.7736Z" fill="url(#paint6_linear_43_27244)"/>
<path d="M61.156 37.3103C60.7717 37.2481 60.2744 37.4572 60.0031 37.7793C59.7714 38.0506 59.7488 39.4804 59.7488 40.1982C59.9974 40.2434 60.2065 40.1869 60.2065 40.1869C60.2065 40.1869 61.5177 39.4804 61.6929 39.1639C61.8681 38.8475 61.1956 37.3385 61.1956 37.3385C61.1956 37.3385 61.1786 37.3272 61.156 37.3159V37.3103Z" fill="#CFC5B1"/>
<path d="M49.3105 50.6025C49.3105 50.6025 48.7849 50.0543 47.3099 50.3539C45.8348 50.6534 40.0986 52.5918 40.2399 53.287C40.3755 53.9821 49.1805 59.5319 50.0848 59.9501C50.989 60.3683 56.94 56.9661 57.2565 55.3159L49.3105 50.5969V50.6025Z" fill="url(#paint7_linear_43_27244)"/>
<path d="M68.2092 50.0373C68.2092 50.0373 65.0726 49.7264 60.947 51.5519C56.8215 53.3716 56.1207 55.8753 56.1207 55.8753L52.3794 59.4979V59.5826L54.2783 61.4815C54.2783 61.4815 55.2843 60.4473 58.4943 57.1016C61.7043 53.756 69.4638 51.7214 69.4638 51.7214L68.2149 50.0429L68.2092 50.0373Z" fill="#838B8E"/>
<path d="M58.4887 57.0961C55.2787 60.4418 54.2727 61.476 54.2727 61.476L54.9396 65.3021L65.6548 60.7809L69.3339 56.1749V51.7441C68.3562 52.0154 61.4614 53.9878 58.4831 57.0961H58.4887Z" fill="#697174"/>
<path d="M68.2148 43.1877C68.2148 43.1877 67.8474 43.7359 68.2148 44.0185C68.5765 44.3011 74.228 47.3246 74.228 47.3246L76.7203 39.7064L70.7523 36.5755C70.7523 36.5755 70.2606 36.5077 70.0176 37.0954C69.7746 37.6832 68.2148 43.1877 68.2148 43.1877Z" fill="url(#paint8_linear_43_27244)"/>
<path d="M75.1378 29.7655C74.1036 29.2569 73.3576 30.1103 72.8489 30.7602C72.3403 31.4101 70.2775 35.6205 70.2549 36.0839C70.2379 36.5078 70.6562 36.5699 70.7353 36.5756C70.7409 36.5756 70.7466 36.5756 70.7466 36.5756L76.7146 39.7065C76.7146 39.7065 77.9296 34.9084 78.1726 33.7555C78.4156 32.6026 79.9246 32.094 79.9246 32.094C79.9246 32.094 76.1664 30.2742 75.1321 29.7655H75.1378Z" fill="url(#paint9_linear_43_27244)"/>
<path d="M78.1783 33.7554C78.0596 34.3036 77.7262 35.6769 77.4041 36.9655L79.7946 33.9758L79.9303 32.0939C79.9303 32.0939 78.4213 32.6025 78.1783 33.7554Z" fill="#CFC5B1"/>
<path d="M73.7476 30.5567C73.7476 30.5567 73.8549 29.2512 74.1036 29.0082C74.3523 28.7595 74.7479 28.3526 75.2904 28.5278C75.8273 28.703 78.8113 30.195 79.1278 30.5567C79.4443 30.9184 79.6025 31.9357 79.6025 31.9357C79.6025 31.9357 79.043 32.1504 78.7774 32.4104C78.5061 32.6704 78.2009 32.8908 78.2009 32.8908L73.7532 30.5567H73.7476Z" fill="url(#paint10_linear_43_27244)"/>
<path d="M79.0202 30.4662C78.5963 30.5679 78.1668 31.0766 78.1273 31.2179C78.0821 31.3592 78.1555 32.3821 78.1951 32.8851C78.2064 32.8794 78.5003 32.659 78.7715 32.4047C79.0428 32.1447 79.5967 31.93 79.5967 31.93C79.5967 31.93 79.4384 30.9127 79.1219 30.551C79.0993 30.5284 79.0654 30.4945 79.0202 30.4606V30.4662Z" fill="#CFC5B1"/>
<path d="M79.7946 33.9758C79.7946 33.9758 77.7884 35.2304 77.2006 37.0332C76.6129 38.836 73.7476 47.7428 73.7476 47.7428L78.6022 50.659L81.88 39.0395C81.88 39.0395 82.4282 37.4401 84.248 36.4059C84.248 36.4059 83.4399 34.3601 79.7946 33.9758Z" fill="url(#paint11_linear_43_27244)"/>
<path d="M81.8799 39.0395L78.6021 50.659L80.2014 50.2351L84.2479 36.4059C82.4281 37.4402 81.8799 39.0395 81.8799 39.0395Z" fill="#CFC5B1"/>
<path d="M82.3661 42.8317C82.3661 42.8317 81.8462 42.9335 81.5919 43.606C81.3319 44.2785 80.0377 49.8848 80.0377 49.8848C80.0377 49.8848 79.7947 50.3934 80.0377 50.5517C80.2807 50.7156 82.3661 51.7385 82.3661 51.7385L87.249 45.8101L82.3661 42.8204V42.8317Z" fill="url(#paint12_linear_43_27244)"/>
<path d="M88.3001 37.2367C87.1076 36.2646 84.9374 36.1459 84.5362 36.3268C84.1293 36.5076 82.6768 40.458 82.3716 41.2662C82.0721 42.08 82.3716 42.8373 82.3716 42.8373L87.2545 45.8269C87.2545 45.8269 87.7914 42.1026 88.0457 40.8536C88.2944 39.6046 89.696 39.2034 89.696 39.2034C89.696 39.2034 89.4982 38.2144 88.3057 37.2423L88.3001 37.2367Z" fill="url(#paint13_linear_43_27244)"/>
<path d="M88.04 40.8481C87.7913 42.0971 87.2488 45.8214 87.2488 45.8214C87.2488 45.8214 89.3059 41.7128 89.3285 41.6506C89.3511 41.5885 89.6902 39.1979 89.6902 39.1979C89.6902 39.1979 88.2886 39.5991 88.04 40.8481Z" fill="#CFC5B1"/>
<path d="M84.5815 36.7393C84.5815 36.7393 84.4346 36.5246 84.4572 36.0894C84.4798 35.6542 84.5985 35.0552 85.0223 34.8461C85.4462 34.637 85.6892 34.3657 86.2431 34.7782C86.7969 35.1908 88.8936 36.6885 89.1649 37.0275C89.4362 37.3666 89.8092 38.4913 89.6 38.6326C89.3909 38.7739 88.3228 39.3842 88.0289 39.2994C87.7351 39.2147 84.5872 36.7337 84.5872 36.7337L84.5815 36.7393Z" fill="url(#paint14_linear_43_27244)"/>
<path d="M89.5999 38.6326C89.809 38.4913 89.436 37.3666 89.1647 37.0276C89.1534 37.0106 89.1308 36.988 89.1082 36.9654C88.6844 37.0615 88.1814 37.2875 88.0853 37.4627C87.9836 37.6436 87.9949 38.6382 88.0175 39.2995C88.0175 39.2995 88.0231 39.2995 88.0288 39.2995C88.3227 39.3786 89.3908 38.7682 89.5999 38.6326Z" fill="#CFC5B1"/>
<path d="M79.6138 49.8056C79.6138 49.8056 77.0367 50.0316 76.1325 52.5692C75.3243 54.8411 75.3695 56.7569 75.3695 56.7569C75.3695 56.7569 74.1997 58.3732 73.7984 60.6847C73.3915 63.0414 73.7532 64.3525 73.8889 65.2511L77.5567 63.6856L79.6138 49.7999V49.8056Z" fill="#CFC5B1"/>
<path d="M71.5491 45.2449C71.5491 45.2449 69.4129 45.9118 68.5086 48.455C67.7005 50.7269 67.9039 52.4958 67.9039 52.4958L75.3752 56.757C75.3752 56.757 75.33 54.8412 76.1381 52.5693C77.0424 50.0261 79.6195 49.8057 79.6195 49.8057L71.5548 45.2506L71.5491 45.2449Z" fill="url(#paint15_linear_43_27244)"/>
<path d="M73.8041 60.6903C74.2054 58.3732 75.3752 56.7626 75.3752 56.7626L67.904 52.5013C67.904 52.5013 66.9602 53.9425 66.3215 55.9657C65.9146 57.2542 65.7621 59.6166 65.8977 60.5152L73.8889 65.2624C73.7533 64.3638 73.3916 63.0527 73.7985 60.696L73.8041 60.6903Z" fill="url(#paint16_linear_43_27244)"/>
<path d="M76.6073 47.675C76.8785 47.3529 77.3759 47.1438 77.7602 47.206C77.3363 46.946 73.6854 44.7476 73.3181 44.6063C72.9225 44.4537 72.3291 44.6741 72.0239 45.0358C71.7131 45.3975 71.4192 47.2003 71.4192 47.2003L76.1664 50.0373C76.2343 50.0656 76.2964 50.0826 76.3586 50.0939C76.3586 49.3818 76.3812 47.9463 76.6129 47.675H76.6073Z" fill="url(#paint17_linear_43_27244)"/>
<path d="M77.7546 47.206C77.3703 47.1438 76.873 47.3529 76.6017 47.6751C76.37 47.9463 76.3474 49.3762 76.3474 50.0939C76.5961 50.1391 76.8052 50.0826 76.8052 50.0826C76.8052 50.0826 78.1163 49.3818 78.2915 49.0597C78.4667 48.7432 77.7942 47.2343 77.7942 47.2343C77.7942 47.2343 77.7772 47.223 77.749 47.206H77.7546Z" fill="#CFC5B1"/>
<path d="M65.9145 60.4983C65.9145 60.4983 65.3889 59.9501 63.9139 60.2496C62.4388 60.5491 56.7026 62.4876 56.8439 63.1884C56.9795 63.8835 65.7845 69.4333 66.6888 69.8515C67.593 70.2697 73.544 66.8675 73.8605 65.2173L65.9145 60.4983Z" fill="url(#paint18_linear_43_27244)"/>
<path d="M74.505 24.4474C81.2529 22.2603 84.5873 24.0914 84.5873 24.0914C84.5873 24.0914 82.841 25.3799 81.2133 26.465C79.5857 27.5501 80.4447 28.087 80.4447 28.087C80.4447 28.087 80.5578 28.1548 80.7556 28.2735C80.7386 28.0022 80.9251 27.5953 81.7502 27.0471C83.3722 25.962 85.9662 24.0349 85.9662 24.0349C85.9662 24.0349 81.948 21.7912 75.2002 23.9784C72.1653 24.9617 69.1361 26.3689 66.7173 27.6236C69.0231 26.5159 71.7754 25.3234 74.5107 24.4361L74.505 24.4474Z" fill="#485154"/>
<path d="M100.293 32.7268L94.1833 35.513C94.7484 35.4791 95.0988 35.3208 95.0988 35.3208L99.5974 33.1902C99.5974 33.1902 101.835 34.0945 100.366 37.4458C98.2184 42.3513 89.4813 47.788 89.4813 47.788C89.4813 47.788 89.4078 48.1836 89.2834 48.8222C90.945 47.675 99.3261 41.7296 101.259 37.3158C102.723 33.9645 100.287 32.7268 100.287 32.7268H100.293Z" fill="#485154"/>
<g style="mix-blend-mode:multiply" opacity="0.2">
<path d="M93.4487 37.8924L76.4773 27.7931L76.5112 27.7366L93.4826 37.8415L93.4487 37.8924Z" fill="black"/>
</g>
<g style="mix-blend-mode:multiply" opacity="0.2">
<path d="M84.7279 19.4465L84.6816 19.5242L108.585 33.7509L108.631 33.6732L84.7279 19.4465Z" fill="black"/>
</g>
<g style="mix-blend-mode:multiply" opacity="0.2">
<path d="M111.601 29.9972C111.46 30.8393 110.957 32.4047 109.233 34.3262C106.622 37.2424 90.9224 47.6637 90.9224 47.6637C90.9224 47.6637 91.4988 47.5733 92.4652 47.4264L108.335 39.1074L111.878 33.1903H111.833C111.833 33.1903 112.036 31.6587 111.601 29.9972Z" fill="black"/>
</g>
<path d="M33.4809 46.5165L28.8862 51.9419L34.6621 48.4888L33.4809 46.5165Z" fill="#303E42"/>
<path d="M48.6832 53.4622C48.1689 53.4792 47.485 53.5018 46.7899 53.547C45.3431 53.6374 43.9585 53.5357 43.4725 54.18C42.9865 54.8242 40.4489 57.2374 39.4373 57.8252C38.4257 58.4129 37.4763 58.2603 36.8715 59.2606C36.2725 60.261 35.9843 60.9956 35.2552 61.3743C34.9218 61.5495 34.1984 61.7247 33.5654 61.9055C33.7293 61.9734 33.9554 62.0242 34.2662 62.0581C35.1139 62.1429 35.0687 61.979 35.5604 61.7699C36.0464 61.5551 36.7472 60.86 37.5723 60.4192C38.3975 59.9784 38.2788 59.3454 38.2505 59.1928C38.2223 59.0402 38.3353 59.0063 38.55 58.8537C38.7704 58.7011 41.3306 57.5822 42.41 56.8475C43.4894 56.1184 44.145 54.8186 44.3033 54.6377C44.4671 54.4569 44.4785 54.5134 44.9871 54.5021C45.4957 54.4908 47.5924 54.519 47.5924 54.519C47.5924 54.519 48.4232 54.4117 48.4458 54.4004C48.4458 54.4004 48.5588 53.9822 48.6719 53.4679L48.6832 53.4622Z" fill="#D88F69"/>
<path d="M56.2789 43.2952C55.7816 43.5043 55.8777 44.8719 55.8268 45.1997C55.7759 45.5275 55.5781 45.6914 55.5781 45.6914C55.5781 45.6914 55.6346 45.9118 55.7081 46.1718C56.0246 46.1605 56.262 46.1266 56.262 46.1266L57.3244 45.3128C57.3244 45.3128 57.4092 44.742 57.4714 44.1146C57.0193 43.6173 56.5106 43.1878 56.2733 43.2895L56.2789 43.2952Z" fill="#D88F69"/>
<path d="M65.0217 62.8946C65.0217 62.8946 73.1938 58.1925 75.7878 56.4123C78.3818 54.6321 87.9724 46.8217 89.6905 39.1979L91.3351 39.7461C91.3351 39.7461 90.5664 41.368 89.8035 42.7301C89.0349 44.0864 87.8029 45.8384 87.8029 45.8384C87.8029 45.8384 87.4129 46.2283 87.8933 46.5674C88.3737 46.9065 90.0804 48.0255 89.9843 48.568L65.0274 64.234V62.9002L65.0217 62.8946Z" fill="#E6E0D5"/>
<path d="M62.4617 61.069C62.1056 59.2436 60.3141 57.0338 58.4604 56.1296C57.9236 55.8696 57.4432 55.7453 57.0419 55.7453C56.0416 55.7453 55.5047 56.4969 55.759 57.7911C56.1207 59.6109 57.9122 61.8263 59.7603 62.7305C60.2972 62.9905 60.7775 63.1148 61.1788 63.1148C62.1791 63.1148 62.716 62.3632 62.4617 61.069ZM61.5462 62.2276C61.4501 62.3462 61.2805 62.4084 61.0545 62.4084C60.7606 62.4084 60.3932 62.3067 59.992 62.1089C58.4378 61.3459 56.8667 59.4244 56.5728 57.9098C56.4824 57.4577 56.522 57.096 56.6746 56.9095C56.7706 56.7908 56.9402 56.7287 57.1663 56.7287C57.4601 56.7287 57.8275 56.8304 58.2287 57.0282C59.7829 57.7855 61.354 59.7126 61.6535 61.2272C61.744 61.6794 61.7044 62.0411 61.5518 62.2276H61.5462Z" fill="#39464A"/>
<path d="M27.8235 52.7387C27.8235 52.7387 32.9494 48.8392 33.7745 48.5058C34.5996 48.178 40.7823 51.3711 46.6994 54.8976C52.6165 58.4241 59.0197 61.7642 60.8281 63.7478C60.8281 63.7478 57.5446 68.5742 50.5029 68.6759C43.4611 68.7776 25.9698 58.0285 27.8235 52.7387Z" fill="#838B8E"/>
<path d="M58.545 57.6387C54.1369 55.6098 51.4015 57.6387 51.4015 57.6387C51.4015 57.6387 47.7789 62.2616 51.4015 64.5504C55.0242 66.8393 59.8844 65.8898 63.6201 64.1209V64.0361C63.6201 64.0361 62.9532 59.6732 58.545 57.6443V57.6387Z" fill="url(#paint19_linear_43_27244)"/>
<path d="M51.2434 57.6159C51.2434 57.6159 51.6503 55.0841 48.7511 53.5299C45.8518 51.9758 43.5573 53.14 43.5573 53.14C43.5573 53.14 39.9008 55.6436 44.3598 58.0568C48.8189 60.4699 51.2434 57.6159 51.2434 57.6159Z" fill="url(#paint20_linear_43_27244)"/>
<path d="M50.7347 88.7388L52.5771 89.4113C52.5771 89.4113 55.4594 83.2964 51.9611 81.2619C48.4572 79.2273 45.9592 82.8499 45.9592 82.8499L50.7347 88.7388Z" fill="#091215"/>
<path d="M109.216 50.9416L107.905 53.9934L105.724 54.7224C105.724 54.7224 102.768 48.4549 104.463 47.9011C106.159 47.3472 109.685 47.0986 109.216 50.9416Z" fill="#091215"/>
<path d="M49.8645 81.6347L45.2868 79.2103C44.0943 78.6168 42.5006 78.7581 40.743 79.7697C37.0526 81.9004 34.0686 87.0771 34.0686 91.3327C34.0686 93.322 34.7185 94.7575 35.7923 95.5035L40.873 98.2106C42.0485 98.7305 43.597 98.5666 45.2868 97.5889C48.9716 95.4583 51.9612 90.2815 51.9612 86.0259C51.9612 83.8162 51.1587 82.2903 49.8702 81.6291L49.8645 81.6347Z" fill="#3B4447"/>
<path d="M51.9553 86.0316C51.9553 90.2872 48.9656 95.464 45.2809 97.5946C41.5961 99.7252 38.6064 97.9958 38.6064 93.7402C38.6064 89.4847 41.5961 84.3079 45.2809 82.1773C48.9713 80.0467 51.9553 81.7761 51.9553 86.0316Z" fill="#555E61"/>
<path d="M51.6785 86.2578C51.6785 90.2647 48.864 95.1306 45.3997 97.1369C41.9296 99.1375 39.1208 97.5155 39.1208 93.5086C39.1208 89.5017 41.9296 84.6301 45.3997 82.6295C48.8697 80.6289 51.6785 82.2509 51.6785 86.2578Z" fill="#3B4447"/>
<path d="M50.5538 87.2015C50.5538 90.4342 48.2819 94.3676 45.4844 95.9839C42.6869 97.6003 40.415 96.2891 40.415 93.0565C40.415 89.8238 42.6869 85.8904 45.4844 84.274C48.2819 82.6577 50.5538 83.9689 50.5538 87.2015Z" fill="url(#paint21_linear_43_27244)"/>
<path d="M50.5536 87.2636C50.5536 90.4737 48.2987 94.3788 45.5181 95.9895C42.7376 97.5945 40.4827 96.2947 40.4827 93.0847C40.4827 89.8746 42.7376 85.9694 45.5181 84.3588C48.2987 82.7537 50.5536 84.0536 50.5536 87.2636Z" fill="url(#paint22_linear_43_27244)"/>
<path d="M47.0217 89.1003C47.0217 90.0836 46.3323 91.2818 45.4789 91.7734C44.6255 92.2651 43.936 91.8639 43.936 90.8805C43.936 89.8971 44.6255 88.699 45.4789 88.2073C46.3323 87.7157 47.0217 88.1113 47.0217 89.1003Z" fill="url(#paint23_linear_43_27244)"/>
<path d="M45.5805 89.2248C45.5805 89.6599 45.2753 90.1855 44.9023 90.4003C44.5293 90.615 44.2241 90.4398 44.2241 90.0103C44.2241 89.5808 44.5293 89.0496 44.9023 88.8348C45.2753 88.62 45.5805 88.7952 45.5805 89.2248Z" fill="url(#paint24_linear_43_27244)"/>
<path d="M43.3934 95.3398C43.3934 95.3398 44.0377 94.0004 44.2242 93.407C44.4502 92.6892 44.4276 92.3049 44.2242 92.1749C43.936 91.9884 43.2521 92.661 42.7152 93.2939C42.1783 93.9269 41.1215 94.9498 41.5115 95.5602C41.7884 95.9897 42.7209 96.6283 43.3991 95.3398H43.3934Z" fill="#091215"/>
<path d="M42.6135 89.9933C42.6135 89.9933 43.8342 89.982 43.7269 90.711C43.6138 91.4401 42.4722 92.48 41.8167 92.7512C41.195 93.0112 40.5903 92.9773 40.7768 91.9883C40.9633 90.9993 41.0085 89.9764 42.6135 89.9933Z" fill="#091215"/>
<path d="M45.0041 86.433C45.0041 86.433 45.411 87.9702 44.6707 88.6766C43.9304 89.3831 43.0657 88.3941 42.8848 88.1002C42.6983 87.8063 42.6192 87.1733 43.4048 86.3539C44.196 85.5401 44.7498 85.4609 45.0041 86.4273V86.433Z" fill="#091215"/>
<path d="M46.304 85.5343C46.304 85.5343 45.7502 87.6989 46.304 87.8175C46.8635 87.9362 47.6886 86.5968 48.0955 85.8169C48.5024 85.037 48.8754 83.8615 47.7734 83.8446C46.6714 83.8276 46.4453 84.9409 46.3097 85.5343H46.304Z" fill="#091215"/>
<path d="M48.6946 86.4667C48.6946 86.4667 47.1517 87.9813 47.2817 88.7216C47.4117 89.4563 49.0167 88.7329 49.5253 88.3599C50.0283 87.9869 50.4861 87.3709 50.3674 86.4271C50.2544 85.4833 49.8757 85.1725 48.6946 86.4667Z" fill="#091215"/>
<path d="M47.6208 92.1465C47.6208 92.1465 46.7505 90.9823 46.9652 90.3776C47.18 89.7728 47.8977 89.5807 48.7342 89.6203C49.5762 89.6598 50.1753 89.8915 49.418 91.3779C48.6607 92.8586 48.2086 92.8303 47.6208 92.1465Z" fill="#091215"/>
<path d="M44.6991 94.475C44.7782 93.8476 45.0608 92.5139 45.6824 92.1409C46.3945 91.717 46.6884 93.0677 46.7392 93.5368C46.7845 94.0059 46.9597 95.0571 45.7728 95.6279C44.586 96.1987 44.5295 95.7635 44.6991 94.4693V94.475Z" fill="#091215"/>
<path d="M48.7341 89.6203C48.5024 89.609 48.2876 89.6203 48.0785 89.6429C48.1294 89.739 48.1633 89.8633 48.1181 89.9933C48.0333 90.2532 47.666 91.1801 47.2139 91.5022C47.406 91.8639 47.6151 92.1465 47.6151 92.1465C48.2029 92.8303 48.655 92.8586 49.4123 91.3779C50.1696 89.8972 49.5705 89.6598 48.7285 89.6203H48.7341Z" fill="url(#paint25_linear_43_27244)"/>
<path d="M48.7057 86.4556C48.9996 87.4051 48.0671 88.3489 47.6997 88.541C47.5189 88.6371 47.3776 88.6201 47.2759 88.5806C47.2759 88.6314 47.2759 88.6766 47.2815 88.7219C47.4115 89.4565 49.0165 88.7332 49.5252 88.3602C50.0282 87.9872 50.4859 87.3711 50.3672 86.4273C50.2542 85.4892 49.8812 85.1784 48.7057 86.4556Z" fill="url(#paint26_linear_43_27244)"/>
<path d="M47.7732 83.8389C47.2872 83.8333 46.9764 84.0424 46.7616 84.3306C47.5698 84.5001 47.0103 86.5629 46.6995 87.0942C46.5186 87.405 46.2982 87.5576 46.1287 87.6367C46.1682 87.7328 46.2247 87.795 46.3095 87.8119C46.869 87.9306 47.6941 86.5912 48.101 85.8113C48.5079 85.0314 48.8809 83.8559 47.7789 83.8389H47.7732Z" fill="url(#paint27_linear_43_27244)"/>
<path d="M45.004 86.4329C44.7949 85.6361 44.3824 85.5513 43.8059 85.9978C44.2015 86.1899 44.5802 86.529 44.6367 87.4163C44.6819 88.1679 44.6028 88.6596 44.0772 88.9252C44.275 88.9309 44.4784 88.8631 44.6762 88.6766C45.4166 87.9701 45.0097 86.4329 45.0097 86.4329H45.004Z" fill="url(#paint28_linear_43_27244)"/>
<path d="M43.7267 90.711C43.7267 90.6771 43.7323 90.6489 43.7323 90.6206C43.4667 90.8693 42.8224 91.4231 42.2347 91.6605C41.5621 91.9374 41.0705 91.96 40.8218 91.717C40.8048 91.8074 40.7879 91.8978 40.7709 91.9883C40.5844 92.9773 41.1891 93.0112 41.8108 92.7512C42.472 92.4799 43.608 91.4401 43.721 90.711H43.7267Z" fill="url(#paint29_linear_43_27244)"/>
<path d="M44.2243 92.175C44.1847 92.1524 44.1395 92.1411 44.0887 92.1467C43.9078 93.1979 42.9075 94.0795 42.4441 94.3225C42.2067 94.4469 41.9524 94.4582 41.7603 94.4412C41.4833 94.8481 41.3194 95.255 41.5116 95.5545C41.7885 95.9841 42.721 96.6227 43.3992 95.3341C43.3992 95.3341 44.0435 93.9947 44.23 93.4013C44.456 92.6836 44.4334 92.2993 44.23 92.1693L44.2243 92.175Z" fill="url(#paint30_linear_43_27244)"/>
<path d="M46.7391 93.5424C46.6995 93.1412 46.4791 92.1069 45.9761 92.0674C45.9761 92.3782 45.9479 92.8868 45.8066 93.1525C45.6088 93.5198 45.0549 93.8928 44.7893 93.9606C44.7497 94.1584 44.7215 94.3393 44.6989 94.4806C44.535 95.7748 44.5858 96.2099 45.7727 95.6391C46.9595 95.0683 46.7843 94.0115 46.7391 93.5481V93.5424Z" fill="url(#paint31_linear_43_27244)"/>
<path d="M105.724 48.9127L101.146 46.4882C99.9535 45.8948 98.3598 46.0361 96.6021 47.0477C92.9174 49.1783 89.9277 54.3551 89.9277 58.6106C89.9277 60.6 90.5777 62.0354 91.6514 62.7814L96.7265 65.4885C97.902 66.0084 99.4505 65.8445 101.146 64.8668C104.831 62.7362 107.82 57.5595 107.82 53.3039C107.82 51.0942 107.018 49.5683 105.724 48.907V48.9127Z" fill="#3B4447"/>
<path d="M107.815 53.3039C107.815 57.5595 104.825 62.7362 101.14 64.8668C97.4498 66.9975 94.4658 65.2681 94.4658 61.0125C94.4658 56.757 97.4555 51.5802 101.14 49.4496C104.825 47.319 107.815 49.0483 107.815 53.3039Z" fill="#555E61"/>
<path d="M107.538 53.5356C107.538 57.5425 104.729 62.4084 101.259 64.4147C97.789 66.4153 94.9802 64.7934 94.9802 60.7865C94.9802 56.7796 97.7947 51.9136 101.259 49.9073C104.729 47.9067 107.538 49.5287 107.538 53.5356Z" fill="#3B4447"/>
<path d="M106.413 54.4795C106.413 57.7121 104.141 61.6399 101.344 63.2619C98.5407 64.8782 96.2744 63.5671 96.2744 60.3344C96.2744 57.1018 98.5407 53.1683 101.344 51.552C104.141 49.9357 106.413 51.2468 106.413 54.4795Z" fill="url(#paint32_linear_43_27244)"/>
<path d="M106.413 54.5359C106.413 57.746 104.158 61.6511 101.378 63.2618C98.5972 64.8668 96.3423 63.567 96.3423 60.3513C96.3423 57.1356 98.5972 53.2361 101.378 51.6254C104.158 50.0204 106.413 51.3202 106.413 54.5359Z" fill="url(#paint33_linear_43_27244)"/>
<path d="M102.881 56.3784C102.881 57.3618 102.191 58.5599 101.338 59.0515C100.485 59.5432 99.7952 59.1476 99.7952 58.1586C99.7952 57.1696 100.485 55.9771 101.338 55.4798C102.191 54.9881 102.881 55.3837 102.881 56.3727V56.3784Z" fill="url(#paint34_linear_43_27244)"/>
<path d="M101.44 56.5027C101.44 56.9379 101.135 57.4634 100.762 57.6782C100.389 57.8929 100.083 57.7178 100.083 57.2826C100.083 56.8474 100.389 56.3218 100.762 56.1071C101.135 55.8923 101.44 56.0675 101.44 56.497V56.5027Z" fill="url(#paint35_linear_43_27244)"/>
<path d="M99.2527 62.6175C99.2527 62.6175 99.8969 61.2781 100.078 60.6847C100.298 59.967 100.281 59.5827 100.078 59.4527C99.7895 59.2662 99.1057 59.9387 98.5688 60.5717C98.0263 61.2047 96.9751 62.2276 97.3651 62.838C97.642 63.2675 98.5745 63.9061 99.2527 62.6232V62.6175Z" fill="#091215"/>
<path d="M98.4727 57.2712C98.4727 57.2712 99.6934 57.2599 99.586 57.9889C99.473 58.718 98.337 59.7579 97.6758 60.0291C97.0541 60.2891 96.4494 60.2495 96.6359 59.2662C96.8224 58.2772 96.8676 57.2542 98.4727 57.2712Z" fill="#091215"/>
<path d="M100.863 53.7052C100.863 53.7052 101.27 55.2424 100.53 55.9488C99.7895 56.6553 98.9305 55.6663 98.744 55.3724C98.5575 55.0785 98.4783 54.4455 99.2639 53.6261C100.055 52.8123 100.609 52.7275 100.863 53.6995V53.7052Z" fill="#091215"/>
<path d="M102.163 52.8066C102.163 52.8066 101.609 54.9711 102.163 55.0898C102.717 55.2085 103.548 53.8691 103.955 53.0892C104.362 52.3093 104.735 51.1338 103.633 51.1168C102.53 51.0999 102.304 52.2132 102.169 52.8066H102.163Z" fill="#091215"/>
<path d="M104.554 53.7447C104.554 53.7447 103.011 55.2649 103.141 55.9996C103.271 56.7399 104.876 56.0109 105.384 55.6379C105.887 55.2649 106.345 54.6489 106.227 53.7051C106.114 52.7613 105.735 52.4505 104.554 53.7447Z" fill="#091215"/>
<path d="M103.48 59.4187C103.48 59.4187 102.61 58.2545 102.824 57.6498C103.033 57.0451 103.757 56.853 104.593 56.8925C105.435 56.9321 106.034 57.1638 105.277 58.6501C104.52 60.1308 104.068 60.1026 103.48 59.4187Z" fill="#091215"/>
<path d="M100.558 61.7529C100.637 61.1256 100.92 59.7918 101.542 59.4188C102.248 58.995 102.548 60.3457 102.598 60.8148C102.644 61.2838 102.819 62.335 101.632 62.9058C100.445 63.4766 100.389 63.0415 100.558 61.7529Z" fill="#091215"/>
<path d="M104.593 56.8926C104.362 56.8812 104.147 56.8926 103.944 56.9152C103.994 57.0169 104.028 57.1356 103.983 57.2656C103.898 57.5255 103.531 58.4524 103.079 58.7688C103.265 59.1305 103.48 59.4131 103.48 59.4131C104.068 60.0969 104.52 60.1252 105.277 58.6445C106.035 57.1638 105.436 56.9265 104.593 56.8869V56.8926Z" fill="url(#paint36_linear_43_27244)"/>
<path d="M104.565 53.7334C104.859 54.6829 103.926 55.6267 103.559 55.8188C103.378 55.9149 103.237 55.898 103.135 55.8584C103.135 55.9093 103.135 55.9545 103.141 55.9997C103.271 56.74 104.876 56.011 105.385 55.638C105.888 55.265 106.345 54.649 106.227 53.7052C106.114 52.767 105.741 52.4562 104.565 53.7334Z" fill="url(#paint37_linear_43_27244)"/>
<path d="M103.633 51.1168C103.152 51.1055 102.836 51.3202 102.621 51.6084C103.429 51.778 102.87 53.8408 102.559 54.3777C102.378 54.6885 102.158 54.8411 101.988 54.9202C102.028 55.0163 102.084 55.0785 102.169 55.0954C102.723 55.2141 103.553 53.8747 103.96 53.0948C104.367 52.3149 104.74 51.1394 103.638 51.1224L103.633 51.1168Z" fill="url(#paint38_linear_43_27244)"/>
<path d="M100.863 53.7051C100.654 52.9082 100.242 52.8235 99.6653 53.2699C100.061 53.4621 100.44 53.8012 100.496 54.6941C100.541 55.4514 100.462 55.9374 99.9366 56.2031C100.134 56.2087 100.338 56.1409 100.536 55.9544C101.276 55.248 100.869 53.7107 100.869 53.7107L100.863 53.7051Z" fill="url(#paint39_linear_43_27244)"/>
<path d="M99.5863 57.9833C99.5863 57.9494 99.5919 57.9211 99.5919 57.8929C99.3263 58.1415 98.682 58.6954 98.0943 58.9328C97.4161 59.2097 96.9301 59.2379 96.6814 58.9893C96.6645 59.0797 96.6475 59.1701 96.6306 59.2605C96.4441 60.2496 97.0488 60.2835 97.6704 60.0235C98.3317 59.7522 99.4676 58.7067 99.5806 57.9833H99.5863Z" fill="url(#paint40_linear_43_27244)"/>
<path d="M100.083 59.4527C100.044 59.4245 99.9987 59.4188 99.9478 59.4245C99.767 60.4756 98.7667 61.3573 98.3033 61.6003C98.0659 61.7246 97.8116 61.7416 97.6138 61.7246C97.3368 62.1315 97.173 62.5384 97.3651 62.838C97.642 63.2675 98.5745 63.9061 99.2527 62.6232C99.2527 62.6232 99.897 61.2838 100.078 60.6904C100.298 59.9726 100.281 59.5883 100.078 59.4584L100.083 59.4527Z" fill="url(#paint41_linear_43_27244)"/>
<path d="M102.598 60.8148C102.559 60.4192 102.338 59.3793 101.835 59.3397C101.835 59.6506 101.807 60.1592 101.666 60.4248C101.468 60.7922 100.914 61.1595 100.648 61.233C100.609 61.4308 100.581 61.606 100.558 61.7529C100.394 63.0471 100.445 63.4823 101.632 62.9058C102.819 62.335 102.643 61.2838 102.598 60.8148Z" fill="url(#paint42_linear_43_27244)"/>
<path d="M113.613 36.4229L111.833 33.1846C111.833 33.1846 111.709 34.264 107.9 36.7846C105.848 38.1409 89.9108 48.2853 89.9108 48.2853C89.9108 48.2853 86.13 50.6307 82.6939 52.7218C79.2578 54.8128 68.4804 61.6737 67.6214 62.171C66.7623 62.6684 65.4229 63.1261 65.4229 63.1261L63.4223 59.837C64.6317 57.2938 69.0964 50.2803 69.0964 50.2803L68.5821 49.4213C68.5821 49.4213 60.1783 44.7362 56.2675 42.4134C52.3567 40.0907 48.5476 37.5532 47.3269 36.7394C46.1005 35.9255 45.6314 36.5642 45.6314 36.5642C45.6314 36.5642 39.3526 41.1419 36.8434 43.1651C34.3341 45.1883 28.3944 50.2125 28.3944 50.2125C26.5633 51.7554 16.3511 58.8367 13.8983 59.6674C11.4399 60.4982 6.98089 62.544 5.06504 67.6247C3.14918 72.7111 3.35829 78.4982 3.35829 78.4982C1.48199 81.9173 4.48293 86.625 12.7737 91.248C21.0644 95.8709 27.7049 98.0071 31.757 97.7867C34.5771 97.6285 36.346 96.9164 37.1655 96.4925C37.2616 94.7293 37.7532 90.3324 40.3247 87.1619C43.5969 83.1268 48.751 79.425 51.6785 82.3525C53.6452 84.3192 53.1196 87.6536 52.5884 89.4056L53.5209 88.6426C53.5209 88.6426 89.6904 66.7261 90.5042 66.2684C91.318 65.8163 93.4035 64.7933 93.4035 64.7933C93.7369 62.7079 94.9576 56.8304 98.4841 52.9309C102.83 48.1214 109.951 46.3808 107.939 53.9086C107.933 53.9368 107.922 53.9651 107.916 53.9933C109.787 52.6539 113.641 46.929 114.178 46.0134C114.732 45.0696 114.992 42.1139 115.156 39.9664C115.32 37.8188 113.63 36.4229 113.63 36.4229H113.613ZM54.1369 66.6583C51.0512 67.1613 41.7375 61.8263 37.4481 59.0232C33.2434 56.2765 29.9203 54.242 29.6886 52.8857C29.4229 51.3089 31.7627 48.6188 35.1196 45.7026C36.7642 44.2784 42.7152 39.5086 43.5121 39.0508C43.5121 39.0508 43.9868 38.6439 44.6424 39.1186C45.298 39.5934 51.4016 43.685 54.7981 45.6178C58.0364 47.4659 64.9821 51.2806 64.9821 51.2806C64.9821 51.2806 65.4399 51.5745 65.2138 52.1566C65.2138 52.1566 61.6421 58.2602 60.5796 59.9218C59.0537 62.3067 56.9853 66.1949 54.1369 66.6583Z" fill="#DEE5E9"/>
<path style="mix-blend-mode:screen" opacity="0.3" d="M4.98025 67.8395C4.01949 70.4844 3.61824 73.2932 3.45435 75.3673C4.09862 76.9497 5.31934 78.6056 5.31934 78.6056L4.95764 76.2659L4.4038 72.242L5.72624 67.6643C5.72624 67.6643 5.39281 67.7039 4.9746 67.8395H4.98025Z" fill="url(#paint43_linear_43_27244)"/>
<g style="mix-blend-mode:multiply" opacity="0.07">
<path d="M107.199 48.3589C106.978 48.2628 106.735 48.195 106.481 48.1498C106.973 47.0251 108.058 45.9852 108.99 45.2223C110.07 44.3407 112.505 41.6619 112.505 41.6619L113.444 36.9259C113.444 36.9259 113.517 36.7168 113.619 36.4342L111.839 33.1959C111.839 33.1959 111.714 34.2754 107.905 36.7959C105.854 38.1523 89.9165 48.2967 89.9165 48.2967C89.9165 48.2967 86.1356 50.6421 82.6995 52.7331C79.2634 54.8242 68.4861 61.6851 67.627 62.1824C66.768 62.6797 65.4286 63.1375 65.4286 63.1375L63.428 59.8483C64.6374 57.3052 69.1021 50.2917 69.1021 50.2917L68.5878 49.4326C68.5878 49.4326 66.9545 51.1111 66.6437 51.7724C66.6437 51.7724 58.5394 64.2961 57.9008 65.1946C56.8101 66.7205 54.7868 67.7604 52.9332 68.9303C51.0795 70.1001 36.8264 79.2329 33.9611 80.9227C31.0958 82.6125 27.1398 85.3648 23.5737 84.9296C20.0019 84.4945 16.0233 82.1491 13.0789 80.4876C10.1344 78.826 6.64748 75.469 6.56271 73.8753C6.47794 72.2816 8.79505 66.5001 13.2993 62.6006C17.5775 58.8932 27.4845 51.9758 29.7508 49.0823C28.9313 49.7717 28.3944 50.2239 28.3944 50.2239C26.5633 51.7667 16.3511 58.848 13.8983 59.6788C11.4399 60.5096 6.98092 62.5554 5.06506 67.6361C5.03681 67.7039 5.0142 67.7774 4.98594 67.8452C5.3985 67.7039 5.73759 67.67 5.73759 67.67L4.41514 72.2477L4.96899 76.2716L5.33068 78.6113C5.33068 78.6113 4.10996 76.9554 3.46569 75.373C3.31876 77.2436 3.36397 78.5095 3.36397 78.5095C3.35266 78.5322 3.34136 78.5491 3.33006 78.5717C3.29615 79.2951 3.2905 80.8775 3.75392 82.0813C3.75392 82.0813 3.05314 81.0753 2.99662 79.3799C2.64058 80.5836 2.82708 81.9117 3.56742 83.3246C4.13822 82.3582 4.83901 82.7538 5.60761 83.545C7.35392 85.3422 10.1005 87.2354 11.7395 88.2584C15.5429 90.6376 22.1439 93.4125 24.1275 94.3902C25.4726 95.0571 26.2864 96.3909 26.6707 97.1764C28.6487 97.6681 30.3555 97.8715 31.757 97.7924C34.5771 97.6342 36.346 96.9221 37.1655 96.4982C37.2616 94.735 37.7533 90.3381 40.3247 87.1676C43.5969 83.1325 48.7511 79.4307 51.6785 82.3582C53.6452 84.3249 53.1197 87.6593 52.5884 89.4113L53.5209 88.6483C53.5209 88.6483 89.6904 66.7318 90.5042 66.2741C91.3181 65.822 93.4035 64.799 93.4035 64.799C93.7369 62.7136 94.9576 56.8361 98.4841 52.9366C102.83 48.1272 109.951 46.3865 107.939 53.9143C107.933 53.9425 107.922 53.9708 107.916 53.999C109.126 53.1344 111.166 50.433 112.602 48.3815C111.285 49.6531 109.584 51.1733 109.584 51.1733C111.302 48.568 113.003 47.3133 113.596 46.9234C113.873 46.5052 114.077 46.183 114.173 46.0191C114.676 45.1545 114.941 42.6056 115.105 40.5372C113.692 43.7077 108.403 47.5224 107.204 48.3589H107.199ZM35.1027 96.4135C34.8993 96.5604 32.8195 96.8769 30.5137 96.7639C28.2079 96.6565 26.5746 95.7183 26.5746 95.7183C26.5746 95.7183 31.5027 96.5208 35.1027 95.7861C35.1027 95.7861 35.3062 96.2609 35.1027 96.4135ZM33.526 91.1237C31.6214 91.7114 30.2594 91.1689 29.3439 90.7733C28.4283 90.372 27.5128 90.1968 26.0999 90.0442C24.3592 89.8577 22.8559 89.2474 22.8559 89.2474C24.8509 88.6822 28.6713 86.5121 28.6713 86.5121L37.2672 87.761C37.2672 87.761 35.4192 90.5359 33.5147 91.1237H33.526ZM54.2443 87.0772C54.8999 85.8847 56.0528 85.15 56.0528 85.15C56.0528 85.15 89.1366 65.3416 90.3573 64.6521C91.578 63.9626 92.5105 64.3356 92.5105 64.3356L54.2443 87.0716V87.0772Z" fill="black"/>
</g>
<g style="mix-blend-mode:multiply" opacity="0.1">
<path d="M92.6179 65.1832C92.827 63.6404 93.9404 56.8925 97.9473 52.4617C100.31 49.8451 103.457 48.0875 105.775 48.0875C106.023 48.0875 106.255 48.1101 106.481 48.1497C106.781 47.4715 107.289 46.8216 107.86 46.2508C106.549 45.4765 104.085 44.8944 100.355 47.4941C95.1385 51.128 93.6634 53.6429 93.6634 53.6429L57.7313 75.7911C57.7313 75.7911 53.5322 78.7412 52.7749 79.3798C52.2832 79.798 51.7294 80.6796 51.4016 81.2448C51.6729 81.42 51.9272 81.6234 52.1702 81.8608C54.0635 83.754 53.9504 86.6419 53.5153 88.6539C53.5153 88.6539 89.6848 66.7374 90.4986 66.2796C90.9903 66.0027 91.9454 65.5223 92.6236 65.1832H92.6179ZM54.2443 87.0771C54.8999 85.8846 56.0528 85.1499 56.0528 85.1499C56.0528 85.1499 89.1366 65.3415 90.3573 64.652C91.578 63.9625 92.5105 64.3355 92.5105 64.3355L54.2443 87.0714V87.0771Z" fill="black"/>
</g>
<path style="mix-blend-mode:multiply" opacity="0.1" d="M113.613 36.4229L111.833 33.1846C111.833 33.1846 111.708 34.264 107.899 36.7846C105.848 38.1409 89.9107 48.2853 89.9107 48.2853C89.9107 48.2853 86.1298 50.6307 82.6937 52.7218C79.2576 54.8128 68.4802 61.6737 67.6212 62.171C66.7622 62.6684 65.4228 63.1261 65.4228 63.1261L64.2812 61.2499L58.8671 67.9808C58.8671 67.9808 39.2225 79.7641 36.4194 81.3013C35.0178 82.0699 33.1584 83.302 31.6495 84.3475L37.2727 87.7553C37.2727 87.7553 35.4247 90.5302 33.5201 91.118C31.6156 91.7057 30.2536 91.1632 29.338 90.7676C28.4225 90.3663 27.507 90.1911 26.0941 90.0385C24.3534 89.852 22.8501 89.2417 22.8501 89.2417C21.8442 89.2417 19.7305 89.5468 19.6853 89.5525C21.8837 90.2928 24.4212 90.9371 27.49 91.4684C32.3842 92.3161 35.3851 91.96 37.0071 91.5418C37.1258 91.4514 37.2445 91.3553 37.3688 91.2536C37.8605 89.722 38.6121 88.1114 39.7481 86.7155C42.15 83.7541 45.8686 80.5949 49.0956 80.5949C49.9434 80.5949 50.712 80.8097 51.3845 81.2335C51.7123 80.6684 52.2661 79.7811 52.7578 79.3685C53.5151 78.7299 57.7142 75.7798 57.7142 75.7798L93.6463 53.6317C93.6463 53.6317 95.1157 51.1167 100.338 47.4828C104.068 44.8888 106.532 45.4653 107.843 46.2395C108.21 45.8609 108.606 45.5161 108.973 45.2109C110.053 44.3293 112.488 41.6505 112.488 41.6505L113.427 36.9146C113.427 36.9146 113.5 36.7054 113.602 36.4229H113.613Z" fill="url(#paint44_linear_43_27244)"/>
<g style="mix-blend-mode:multiply" opacity="0.2">
<path d="M57.4485 75.503L94.1549 52.897L93.6632 53.6374L57.7311 75.7856L57.4485 75.503Z" fill="black"/>
</g>
<g style="mix-blend-mode:multiply" opacity="0.2">
<path d="M53.5095 88.6483C53.9447 86.6421 54.0577 83.7485 52.1644 81.8553C51.328 81.0188 50.2995 80.595 49.107 80.595C45.88 80.595 42.1613 83.7542 39.7594 86.7155C36.8433 90.3042 36.4703 95.2832 36.425 96.8204C36.7189 96.7017 36.9619 96.5887 37.1484 96.4926C37.2445 94.7293 37.7362 90.3325 40.3076 87.162C43.5798 83.1268 48.734 79.4251 51.6615 82.3526C53.6282 84.3193 53.1026 87.6537 52.5713 89.4056L53.5038 88.6427L53.5095 88.6483Z" fill="black"/>
</g>
<g style="mix-blend-mode:multiply" opacity="0.2">
<path d="M108.295 49.201C107.735 48.4719 106.865 48.082 105.774 48.082C103.457 48.082 100.315 49.8396 97.947 52.4562C93.9401 56.887 92.8268 63.6349 92.6177 65.1777C93.0641 64.9573 93.3919 64.7934 93.3919 64.7934C93.7254 62.708 94.9461 56.8305 98.4726 52.9309C102.819 48.1215 109.939 46.3809 107.928 53.9087C107.922 53.9369 107.911 53.9652 107.905 53.9934C108.176 53.8013 108.487 53.513 108.82 53.1627C109.148 51.422 108.973 50.0882 108.289 49.201H108.295Z" fill="black"/>
<path d="M108.295 49.201C107.735 48.4719 106.865 48.082 105.774 48.082C103.457 48.082 100.315 49.8396 97.947 52.4562C93.9401 56.887 92.8268 63.6349 92.6177 65.1777C93.0641 64.9573 93.3919 64.7934 93.3919 64.7934C93.7254 62.708 94.9461 56.8305 98.4726 52.9309C102.819 48.1215 109.939 46.3809 107.928 53.9087C107.922 53.9369 107.911 53.9652 107.905 53.9934C108.176 53.8013 108.487 53.513 108.82 53.1627C109.148 51.422 108.973 50.0882 108.289 49.201H108.295Z" stroke="#FFD500" stroke-width="0.25" stroke-miterlimit="10"/>
</g>
<g style="mix-blend-mode:multiply" opacity="0.1">
<path d="M107.199 48.3589C107.64 48.5454 108.007 48.8336 108.295 49.2066C108.979 50.0939 109.154 51.4276 108.826 53.1683C109.996 51.9532 111.483 49.9695 112.596 48.3758C111.279 49.6474 109.578 51.1677 109.578 51.1677C111.296 48.5623 112.997 47.3077 113.591 46.9177C113.867 46.4995 114.071 46.1774 114.167 46.0135C114.67 45.1488 114.936 42.6 115.1 40.5316C113.687 43.702 108.397 47.5168 107.199 48.3532V48.3589Z" fill="black"/>
</g>
<path style="mix-blend-mode:screen" opacity="0.26" d="M57.8838 70.4561C57.7934 69.9362 57.816 69.1337 57.8443 68.6024C53.7752 71.0382 38.8383 79.9845 36.4195 81.3126C33.6785 82.8216 29.1743 86.1107 28.9878 86.2464C33.5768 87.6197 37.3803 91.2649 37.3803 91.2649C37.8719 89.7333 38.6236 88.1227 39.7595 86.7267C42.1614 83.7654 45.8801 80.6062 49.1071 80.6062C49.9548 80.6062 50.7234 80.8209 51.3959 81.2448C51.7237 80.6796 52.2776 79.7924 52.7693 79.3798C53.5266 78.7412 57.7256 75.7911 57.7256 75.7911L58.7824 75.1355C58.7316 73.6096 58.0138 71.253 57.8725 70.4618L57.8838 70.4561Z" fill="url(#paint45_radial_43_27244)"/>
<path style="mix-blend-mode:multiply" opacity="0.4" d="M28.6826 86.512C28.6826 86.512 24.8622 88.6821 22.8672 89.2473C22.8672 89.2473 24.3705 89.8576 26.1111 90.0441C27.524 90.1967 28.4339 90.3719 29.3551 90.7732C30.2706 91.1744 31.6326 91.7113 33.5372 91.1236C35.4417 90.5358 37.2898 87.7609 37.2898 87.7609L28.6939 86.512H28.6826Z" fill="url(#paint46_linear_43_27244)"/>
<path style="mix-blend-mode:screen" opacity="0.3" d="M28.6826 86.512C28.6826 86.512 24.8622 88.6821 22.8672 89.2473C22.8672 89.2473 24.3705 89.8576 26.1111 90.0441C27.524 90.1967 28.4339 90.3719 29.3551 90.7732C30.2706 91.1744 31.6326 91.7113 33.5372 91.1236C35.4417 90.5358 37.2898 87.7609 37.2898 87.7609L28.6939 86.512H28.6826Z" fill="url(#paint47_linear_43_27244)"/>
<path style="mix-blend-mode:screen" opacity="0.26" d="M16.2267 58.4806C15.2151 59.074 14.39 59.5035 13.887 59.6731C11.4286 60.5039 6.96958 62.5497 5.05373 67.6304C5.02547 67.6982 5.00287 67.7717 4.97461 67.8395C5.38717 67.6982 5.72626 67.6643 5.72626 67.6643L4.40381 72.242L4.62422 73.864H6.55137C6.4666 72.2703 8.78371 66.4888 13.2879 62.5893C14.4804 61.555 16.1137 60.2721 17.8939 58.8932L16.2267 58.475V58.4806Z" fill="url(#paint48_radial_43_27244)"/>
<path style="mix-blend-mode:multiply" opacity="0.3" d="M24.116 94.3846C22.138 93.4069 15.5371 90.632 11.728 88.2528C10.089 87.2299 7.34806 85.3366 5.5961 83.5394C4.82749 82.7482 4.12671 82.3526 3.55591 83.319C4.86705 85.8057 7.90755 88.541 12.7622 91.2537C18.1876 94.2829 22.9123 96.244 26.6592 97.1708C26.2749 96.3853 25.4667 95.0515 24.116 94.3846Z" fill="url(#paint49_linear_43_27244)"/>
<g style="mix-blend-mode:multiply" opacity="0.1">
<path d="M27.5014 91.4741C19.0467 90.0104 14.6047 87.6989 10.2587 84.8449C7.29165 82.8951 4.66936 80.2107 3.35822 76.865C3.31866 77.8766 3.34126 78.4983 3.34126 78.4983C3.32996 78.5209 3.31866 78.5378 3.30735 78.5604C3.27344 79.2838 3.26779 80.8662 3.73121 82.07C3.73121 82.07 3.03043 81.064 2.97392 79.3686C2.61787 80.5724 2.80437 81.9005 3.54472 83.3133C4.11552 82.3469 4.8163 82.7425 5.5849 83.5337C7.33121 85.3309 10.0778 87.2242 11.7168 88.2471C15.5202 90.6264 22.1212 93.4012 24.1048 94.379C25.4499 95.0458 26.2637 96.3796 26.648 97.1651C28.626 97.6568 30.3328 97.8603 31.7343 97.7811C33.8989 97.6625 35.4474 97.2103 36.4194 96.8147C36.4477 95.9049 36.589 93.7799 37.3067 91.4571C35.7638 91.9093 32.7007 92.367 27.4957 91.4628L27.5014 91.4741ZM35.1026 96.4135C34.8992 96.5604 32.8194 96.8769 30.5136 96.7639C28.2078 96.6565 26.5745 95.7183 26.5745 95.7183C26.5745 95.7183 31.5026 96.5209 35.1026 95.7862C35.1026 95.7862 35.3061 96.2609 35.1026 96.4135Z" fill="black"/>
</g>
<path d="M82.6938 52.7274C79.2577 54.8185 68.4803 61.6794 67.6213 62.1767C66.7623 62.6741 65.4229 63.1318 65.4229 63.1318L63.4223 59.8427C64.6317 57.2995 69.0963 50.286 69.0963 50.286L68.9664 50.0656C68.9664 50.0656 65.3664 55.4402 63.0323 59.6562C61.9698 61.5664 58.8728 67.3422 58.8728 67.3422V67.9865L72.3912 59.7579L90.216 48.6075L89.8373 48.3362C89.3061 48.664 85.853 50.8003 82.6938 52.7274Z" fill="#555E61"/>
<path opacity="0.32" d="M54.1368 66.6583C51.0511 67.1613 41.7375 61.8263 37.448 59.0232C33.2433 56.2765 29.9202 54.242 29.6885 52.8856C29.4229 51.3089 31.7626 48.6188 35.1196 45.7026C36.7642 44.2784 42.7152 39.5086 43.512 39.0508C43.512 39.0508 43.9868 38.6439 44.6423 39.1186C45.2979 39.5933 51.4015 43.685 54.7981 45.6178C58.0364 47.4659 64.982 51.2806 64.982 51.2806C64.982 51.2806 65.4398 51.5745 65.2137 52.1566C65.2137 52.1566 61.642 58.2602 60.5795 59.9217C59.0536 62.3067 56.9852 66.1949 54.1368 66.6583Z" fill="#303E42"/>
<path d="M44.0433 37.7228C42.0144 39.2148 38.6631 41.8258 36.9507 43.2047C36.5494 43.5325 36.0069 43.9677 35.4644 44.4198C31.9039 47.5112 28.3435 51.2185 28.6204 52.8857C28.8634 54.3212 32.3843 56.4801 36.8433 59.3906C41.3928 62.3633 51.2603 68.0204 54.5325 67.4835C57.5504 66.9862 59.8279 62.9284 61.3595 60.3457C62.648 58.1642 65.2364 53.9143 66.8301 51.4616C66.8301 51.4616 67.1579 50.9134 66.638 50.6195C64.5469 49.4609 57.5673 45.8327 53.9108 43.476C50.7968 41.4697 46.0439 38.4801 44.7724 37.655C44.3824 37.4007 44.0377 37.7228 44.0377 37.7228H44.0433ZM29.6885 52.8801C29.4229 51.3033 31.7626 48.6132 35.1196 45.697C36.7642 44.2729 42.7152 39.503 43.5121 39.0452C43.5121 39.0452 43.9868 38.6383 44.6424 39.1131C45.2979 39.5878 51.4015 43.6795 54.7981 45.6123C58.0364 47.4603 64.9821 51.2751 64.9821 51.2751C64.9821 51.2751 65.4398 51.5689 65.2138 52.151C65.2138 52.151 61.642 58.2546 60.5796 59.9162C59.0537 62.3011 56.9852 66.1893 54.1369 66.6528C51.0512 67.1557 41.7375 61.8207 37.448 59.0176C33.2433 56.271 29.9202 54.2364 29.6885 52.8801Z" fill="#303E42"/>
<path opacity="0.2" d="M54.7981 45.6122C51.4016 43.6738 45.2979 39.5877 44.6424 39.113C43.9868 38.6383 43.5121 39.0452 43.5121 39.0452C42.7152 39.503 36.7642 44.2672 35.1196 45.697C31.757 48.6132 29.4229 51.3089 29.6885 52.88C29.8185 53.643 30.9375 54.6263 32.6386 55.8358C36.2895 53.0326 43.9755 48.421 56.6574 46.6634C55.968 46.2791 55.3293 45.9174 54.7981 45.6122Z" fill="white"/>
<g style="mix-blend-mode:multiply" opacity="0.2">
<path d="M58.8956 83.1438C58.8956 83.1438 58.8617 83.1438 58.8391 83.1325C58.6922 83.0647 58.6356 82.7256 58.6583 82.1209C58.6583 82.0531 58.9408 75.1809 58.7091 74.2427C58.6865 74.1523 58.6583 74.0393 58.6243 73.898C58.3248 72.6942 57.6127 69.8628 57.7766 68.7212C57.7766 68.7043 57.7936 68.693 57.8105 68.693C57.8275 68.693 57.8388 68.7099 57.8388 68.7269C57.6749 69.8572 58.3813 72.6772 58.6865 73.881C58.7204 74.0167 58.7487 74.1353 58.7713 74.2201C59.003 75.1696 58.7261 82.0474 58.7204 82.1152C58.6865 82.8951 58.8108 83.0421 58.8674 83.0647C58.9126 83.0873 58.9578 83.0477 58.9634 83.0477C59.1725 82.9234 79.3314 70.9027 81.4168 69.5633C83.4796 68.2352 85.4407 62.1485 85.938 58.3677C86.4184 54.6999 82.9766 53.1853 82.937 53.1683C82.9201 53.1627 82.9144 53.1401 82.9201 53.1288C82.9257 53.1118 82.9427 53.1061 82.9596 53.1118C82.9936 53.1288 86.4862 54.6603 85.9945 58.3733C85.7402 60.3287 85.1016 62.8211 84.333 64.8782C83.4231 67.3196 82.4002 68.9981 81.4451 69.6085C79.3597 70.9535 59.2008 82.9743 58.9973 83.0929C58.9973 83.0929 58.9521 83.1325 58.8956 83.1325V83.1438Z" fill="black"/>
</g>
<path style="mix-blend-mode:multiply" opacity="0.15" d="M81.7782 56.7908C80.4445 57.565 80.5236 59.0005 80.5236 59.0005L83.6828 57.1242C83.6828 57.1242 83.112 56.0222 81.7782 56.7964V56.7908Z" fill="url(#paint50_linear_43_27244)"/>
<path style="mix-blend-mode:screen" opacity="0.15" d="M83.6772 57.1187L80.5181 58.995C80.5181 58.995 81.0154 60.227 82.4452 59.3397C83.8751 58.4581 83.8864 57.3843 83.6772 57.113V57.1187Z" fill="url(#paint51_linear_43_27244)"/>
<path style="mix-blend-mode:multiply" opacity="0.2" d="M81.6653 56.9604C82.9934 56.1918 83.6942 57.3616 83.6942 57.3616C83.7225 57.3955 83.7507 57.4464 83.779 57.5086C83.779 57.3334 83.7394 57.1921 83.6829 57.1186C83.6829 57.1186 83.1121 56.0166 81.7784 56.7908C81.3601 57.0338 81.0832 57.339 80.8967 57.6499C81.0776 57.4012 81.3262 57.1582 81.671 56.9604H81.6653Z" fill="url(#paint52_linear_43_27244)"/>
<g style="mix-blend-mode:screen" opacity="0.3">
<path d="M83.779 57.5086C83.7507 57.4465 83.7168 57.39 83.6942 57.3617C83.6942 57.3617 83.6603 57.3052 83.5981 57.2261C83.7338 57.6047 83.5925 58.5542 82.3096 59.3454C81.9648 59.5601 81.6766 59.6506 81.4336 59.6619C81.7049 59.6788 82.0383 59.5997 82.4509 59.3454C83.4794 58.7068 83.7733 57.9721 83.779 57.5086Z" fill="white"/>
</g>
<path d="M81.9309 57.8533C81.4449 58.1867 80.5293 58.7293 80.3202 58.8254C80.1111 58.9158 79.8455 59.074 79.8851 59.3114C79.9246 59.5487 80.2976 59.5318 80.5745 59.4301C80.8571 59.3283 82.0948 58.6841 82.5921 58.3619C83.0894 58.0398 83.7111 57.6216 83.9315 57.3447C84.1124 57.1186 84.2763 56.7513 84.1406 56.5252C84.0672 56.4009 83.762 56.2144 83.2251 56.723C82.6882 57.2316 82.1683 57.6894 81.9309 57.8533Z" fill="#BCB6AD"/>
<g style="mix-blend-mode:multiply" opacity="0.2">
<path d="M83.9316 57.3391C84.0672 57.1696 84.1915 56.9209 84.1915 56.7118C84.039 56.8983 83.8807 57.0791 83.7394 57.2261C83.2873 57.6838 81.4336 58.7859 80.778 59.1137C80.4446 59.2776 80.1338 59.3397 79.9077 59.3567C79.9868 59.5375 80.3259 59.5206 80.5802 59.4245C80.8628 59.3228 82.1005 58.6785 82.5978 58.3564C83.0952 58.0342 83.7168 57.616 83.9372 57.3391H83.9316Z" fill="black"/>
</g>
<path d="M62.9304 62.9566C62.9304 62.9566 62.823 62.8379 62.4557 63.0357C62.0883 63.2335 61.6419 63.3691 61.7323 63.7817C61.8227 64.1943 62.2579 64.8668 62.2579 64.8668L64.3207 64.7311L64.0663 63.4878L62.9304 62.9566Z" fill="#A5B1BD"/>
<path d="M64.3208 64.7255L64.2417 64.3412L61.7438 63.5331C61.7155 63.6009 61.7098 63.68 61.7325 63.7704C61.8229 64.183 62.258 64.8555 62.258 64.8555L64.3208 64.7199V64.7255Z" fill="#737F8B"/>
<path d="M64.3492 61.6285C64.3492 61.6285 63.8801 61.5381 63.6597 61.8263C63.4393 62.1145 63.2697 62.2728 63.315 62.787C63.3602 63.3013 63.4845 64.556 64.0044 64.7764C64.5187 64.9968 68.1357 65.901 68.5143 65.9971C68.8873 66.0932 69.735 65.2172 69.8142 65.1494C69.8933 65.0872 69.9555 64.4768 69.7068 63.9286C69.4581 63.3805 69.3451 62.7249 68.2318 62.4593C67.1184 62.1936 64.3492 61.6285 64.3492 61.6285Z" fill="#FFFDFE"/>
<g style="mix-blend-mode:multiply" opacity="0.2">
<path d="M68.9382 62.7476C68.4522 63.1884 68.1074 63.3014 68.1074 63.3014C68.1074 63.3014 69.0004 65.1099 68.6104 65.9972C69.0173 65.952 69.7407 65.206 69.8142 65.1494C69.8933 65.0873 69.9555 64.4769 69.7068 63.9287C69.5203 63.5275 69.4129 63.0697 68.9382 62.7476Z" fill="black"/>
</g>
<g style="mix-blend-mode:multiply" opacity="0.3">
<path d="M68.6102 65.9971C69.0002 65.1098 68.1073 63.3013 68.1073 63.3013L63.3318 62.3745C63.3092 62.4818 63.2978 62.6118 63.3148 62.7814C63.36 63.2956 63.4843 64.5503 64.0043 64.7707C64.5186 64.9911 68.1355 65.8953 68.5142 65.9914C68.5424 65.9971 68.5763 65.9971 68.6102 65.9914V65.9971Z" fill="black"/>
</g>
<path d="M33.4073 45.2618C33.4073 45.2618 33.7012 43.8998 33.7125 43.6907C33.7238 43.4816 33.5881 43.069 33.4073 42.8034C33.2265 42.5378 32.1188 40.6163 32.1188 40.6163C32.1188 40.6163 31.4123 40.7237 31.0958 41.1871C30.7794 41.6505 30.429 42.6734 30.4742 43.1425C30.5137 43.6059 32.2205 45.7987 32.2205 45.7987L33.4073 45.2618Z" fill="#FFFDFE"/>
<g style="mix-blend-mode:multiply" opacity="0.3">
<path d="M31.3671 42.1704C31.2372 41.8935 31.1919 41.4018 31.1806 41.0797C31.1467 41.1136 31.1185 41.1475 31.0902 41.1871C30.7737 41.6505 30.4233 42.6734 30.4686 43.1425C30.5081 43.589 32.0736 45.6235 32.2036 45.7874L32.2827 45.6009C32.2827 45.6009 32.3449 43.9959 32.3335 43.8489C32.3222 43.702 31.5536 42.5717 31.3615 42.1704H31.3671Z" fill="black"/>
</g>
<g style="mix-blend-mode:multiply" opacity="0.2">
<path d="M32.2092 45.7874L32.2205 45.7987L33.4073 45.2618C33.4073 45.2618 33.7012 43.8998 33.7125 43.6907C33.7125 43.6342 33.7125 43.5607 33.6899 43.4816C33.1135 43.5381 32.5709 43.7133 32.3279 43.8037C32.3336 43.8207 32.3392 43.8376 32.3392 43.8489C32.3505 43.9959 32.2883 45.6009 32.2883 45.6009L32.2092 45.7874Z" fill="black"/>
</g>
<path d="M33.8539 45.6235L33.3452 45.0188C33.3452 45.0188 32.2997 45.2618 32.2601 45.2731C32.2149 45.2844 32.1245 45.5444 32.1245 45.5444L32.5766 46.6973C33.0005 46.3412 33.4357 45.9796 33.8595 45.6235H33.8539Z" fill="#A5B1BD"/>
<path d="M32.2204 45.3183C32.1752 45.3974 32.1187 45.55 32.1187 45.55L32.5708 46.7029C32.6499 46.6351 32.729 46.5673 32.8081 46.5051L32.2204 45.3239V45.3183Z" fill="#737F8B"/>
<path style="mix-blend-mode:multiply" opacity="0.15" d="M9.23588 76.5485L9.64278 77.3171C9.64278 77.3171 13.2823 70.2188 30.5589 57.3391C30.5589 57.3391 15.899 67.2574 9.23022 76.5485H9.23588Z" fill="url(#paint53_linear_43_27244)"/>
<path style="mix-blend-mode:screen" opacity="0.26" d="M17.0969 81.5161L17.1082 82.686C19.6175 81.0414 44.2523 66.1215 44.2523 66.1215C44.2523 66.1215 19.4592 79.5663 17.0969 81.5161Z" fill="url(#paint54_linear_43_27244)"/>
<g style="mix-blend-mode:multiply" opacity="0.2">
<path d="M16.9159 91.6606C16.8029 91.6606 16.7012 91.6154 16.6842 91.6097C11.7505 89.4508 8.85125 87.292 7.28013 85.8565C7.17275 85.7717 6.99756 85.5457 6.99756 85.1896V83.5055C6.99756 83.1212 7.20101 83.0816 7.29144 83.0816C7.43272 83.0816 7.55706 83.189 7.58531 83.2229C9.13382 84.6245 12.0104 86.7494 16.8933 88.88C17.0346 88.9252 17.272 89.0891 17.272 89.4113V91.2593C17.272 91.3893 17.2324 91.491 17.1589 91.5645C17.0968 91.621 17.012 91.6549 16.9159 91.6549V91.6606Z" fill="black"/>
</g>
<path d="M7.1785 83.5111V85.1952C7.1785 85.5626 7.39891 85.7265 7.39891 85.7265C8.82874 87.0376 11.7223 89.2473 16.7578 91.4514C16.7578 91.4514 17.0969 91.604 17.0969 91.2706V89.4225C17.0969 89.1343 16.8312 89.0552 16.8312 89.0552C11.824 86.8681 8.91916 84.6809 7.46108 83.3585C7.46108 83.3585 7.17285 83.0703 7.17285 83.5111H7.1785Z" fill="white"/>
<path d="M23.8221 86.0825C23.9747 85.9186 23.743 85.8169 23.743 85.8169C21.1942 85.1839 17.2946 83.8671 12.96 81.194C9.99857 79.3686 8.06011 77.4527 6.86765 76.0059C6.77157 77.2945 6.72071 79.0577 7.03154 81.1375C7.08806 81.4935 7.37628 81.8157 7.40454 81.8552C8.38225 82.8442 9.5182 83.6919 10.7672 84.5114C13.1804 86.0938 15.9552 87.7441 19.8378 89.0891C19.8774 89.0891 19.9508 89.1004 20.0413 89.1004C20.0526 89.1004 20.0582 89.1004 20.0695 89.1004C20.1317 89.0835 20.1882 89.0665 20.2334 89.0383C21.5389 88.2244 22.7427 87.2241 23.8278 86.0882L23.8221 86.0825Z" fill="#3C4548"/>
<path d="M20.0582 89.0948C20.0582 89.0948 20.0413 89.0948 20.03 89.0948C19.9396 89.0948 19.8661 89.0892 19.8265 89.0835C15.944 87.7441 13.1691 86.0939 10.7559 84.5058C9.50127 83.6863 8.37097 82.8386 7.39326 81.8496C7.35936 81.81 7.07113 81.4879 7.02027 81.1319C6.70943 79.0521 6.7603 77.2889 6.85637 76.0003C6.82246 75.9608 6.78856 75.9212 6.75465 75.876C6.75465 75.876 6.57945 75.6499 6.5625 75.876C6.46077 77.1758 6.3873 79.0013 6.71509 81.1658C6.76595 81.5218 7.05418 81.844 7.08808 81.8835C8.06579 82.8725 9.20174 83.7202 10.4507 84.5397C12.8696 86.1221 15.6388 87.7724 19.5214 89.1118C19.5609 89.1118 19.6344 89.1231 19.7248 89.1231C19.8491 89.1231 19.9622 89.1061 20.0582 89.0835V89.0948Z" fill="url(#paint55_linear_43_27244)"/>
<path d="M23.2402 86.0486C19.6458 85.0709 16.125 83.5281 12.7906 81.4596C10.5187 80.0524 8.60848 78.4248 7.11649 76.6332L6.83391 76.2715L6.69263 76.3224L6.80566 76.8367L6.82826 76.865C8.34851 78.696 10.287 80.3463 12.5984 81.7761C15.9667 83.8671 19.5159 85.427 23.1554 86.416L23.438 86.4838C23.5454 86.3821 23.6471 86.2747 23.7545 86.173L23.2458 86.0599L23.2402 86.0486Z" fill="url(#paint56_linear_43_27244)"/>
<path d="M20.4426 88.4899C17.2269 87.4161 14.3503 86.0089 11.1289 83.9292C9.62563 82.9628 8.34839 81.9285 7.32548 80.8548L6.89031 80.4026L6.74902 80.4535L6.96378 81.013L7.0542 81.1091C8.09408 82.1998 9.39392 83.2566 10.9255 84.24C14.1751 86.3367 17.0743 87.7552 20.3295 88.846L20.6517 88.942C20.7873 88.8516 20.923 88.7612 21.0586 88.6708L20.4426 88.4899Z" fill="url(#paint57_linear_43_27244)"/>
<path d="M21.1436 87.9135C17.8488 86.8567 14.7122 85.3591 11.5474 83.3415C9.87456 82.279 8.43908 81.0978 7.27488 79.8262L6.81145 79.3289L6.67017 79.3798L6.85667 79.9223L7.0036 80.0806C8.18476 81.3748 9.6485 82.5785 11.3496 83.658C14.5427 85.6925 17.7075 87.2014 21.0419 88.2696L21.4375 88.3769C21.5505 88.2922 21.6692 88.2074 21.7822 88.1226L21.7935 88.0887L21.1493 87.9079L21.1436 87.9135Z" fill="url(#paint58_linear_43_27244)"/>
<path d="M22.5394 86.7664C19.0299 85.7435 15.6107 84.2006 12.3724 82.183C10.3096 80.9002 8.55766 79.4195 7.1674 77.7918L6.78875 77.3397L6.64746 77.4019L6.7831 77.9105L6.88482 78.0349C8.30335 79.6907 10.0836 81.194 12.1803 82.4995C15.4468 84.5397 18.8942 86.0939 22.449 87.1281L22.8164 87.2185C22.9068 87.1338 23.0029 87.0546 23.0933 86.9699L23.1102 86.9077L22.5451 86.7664H22.5394Z" fill="url(#paint59_linear_43_27244)"/>
<path d="M21.8444 87.3485C18.4535 86.3087 15.1248 84.7658 11.9599 82.7708C10.1006 81.601 8.50687 80.2729 7.22399 78.8204L6.78317 78.3231L6.63623 78.374L6.79447 78.8996L6.94141 79.0635C8.2469 80.5442 9.86888 81.8949 11.7621 83.0817C14.9552 85.0936 18.3122 86.6478 21.7427 87.7046L22.1496 87.812C22.2456 87.7385 22.3361 87.6594 22.4265 87.5803L22.4491 87.5011L21.8444 87.3429V87.3485Z" fill="url(#paint60_linear_43_27244)"/>
<path d="M23.0932 86.1052C19.4989 85.1275 15.9836 83.579 12.6436 81.5162C10.3717 80.109 8.46152 78.4813 6.96952 76.6898L6.68695 76.3281C6.67565 76.509 6.66434 76.7011 6.65869 76.8933L6.6813 76.9215C8.20155 78.747 10.14 80.4029 12.4515 81.8327C15.8198 83.9181 19.3689 85.4779 23.0084 86.4669L23.3758 86.5573C23.4832 86.4556 23.5962 86.3539 23.6979 86.2521L23.0932 86.1109V86.1052Z" fill="url(#paint61_linear_43_27244)"/>
<path d="M6.91292 81.1657C7.95279 82.2564 9.25263 83.3132 10.7842 84.2966C14.0338 86.3933 16.933 87.8118 20.1883 88.9025L20.5104 88.9986C20.646 88.9082 20.7817 88.8178 20.9173 88.7274L20.3013 88.5465C17.0856 87.4727 14.209 86.0655 10.9876 83.9858C9.48434 83.0194 8.20146 81.9851 7.18419 80.9113L6.74902 80.4592C6.77163 80.6627 6.79424 80.8661 6.82249 81.0752L6.91292 81.1713V81.1657Z" fill="url(#paint62_linear_43_27244)"/>
<path d="M11.1968 83.7145C14.3899 85.749 17.5547 87.258 20.8891 88.3261L21.2847 88.4392C21.3977 88.3544 21.5164 88.2696 21.6294 88.1792L21.6407 88.1453L20.9965 87.9644C17.7017 86.9076 14.5651 85.41 11.4003 83.3924C9.72741 82.3299 8.29193 81.1487 7.12773 79.8772L6.66431 79.3798C6.67561 79.5776 6.68691 79.7754 6.70387 79.9732L6.85081 80.1315C8.03197 81.4257 9.4957 82.6294 11.1968 83.7032V83.7145Z" fill="url(#paint63_linear_43_27244)"/>
<path d="M12.0334 82.556C15.2943 84.5962 18.7474 86.1504 22.3022 87.1846L22.6695 87.275C22.7656 87.1902 22.856 87.1111 22.9464 87.0263L22.9634 86.9642L22.3982 86.8229C18.8887 85.8 15.4639 84.2571 12.2312 82.2395C10.1684 80.9566 8.41645 79.476 7.02618 77.854L6.64753 77.4019C6.64753 77.5884 6.63623 77.7749 6.63623 77.9727L6.73796 78.097C8.15648 79.7529 9.9367 81.2562 12.0334 82.5617V82.556Z" fill="url(#paint64_linear_43_27244)"/>
<path d="M22.3022 87.5632L21.6974 87.4049C18.3066 86.3594 14.9778 84.8222 11.813 82.8272C9.95365 81.6574 8.35993 80.3293 7.07705 78.8768L6.63623 78.3795C6.63623 78.566 6.64188 78.7582 6.65319 78.9616L6.80012 79.1255C8.10562 80.6062 9.72759 81.9569 11.6208 83.1437C14.8139 85.1557 18.1709 86.7098 21.6014 87.7666L22.0083 87.874C22.0987 87.8005 22.1948 87.7214 22.2852 87.6423L22.3078 87.5632H22.3022Z" fill="url(#paint65_linear_43_27244)"/>
<path d="M24.0879 85.2066C21.443 84.5566 17.5774 83.2398 13.2879 80.6006C9.82921 78.47 7.82293 76.2433 6.80001 74.8756C6.80001 74.8756 6.48353 74.4179 6.41571 75.0395C6.29138 76.1416 6.08792 78.6508 6.47787 81.2336C6.55134 81.7422 6.83392 82.0643 6.83392 82.0643C7.87379 83.1155 9.038 84.048 10.2644 84.8505C12.9714 86.6251 15.7181 88.1905 19.448 89.4734C19.448 89.4734 20.0471 89.5639 20.4144 89.3378C22.432 88.0775 23.7771 86.6816 24.4327 85.9413C24.9469 85.3648 24.0879 85.2066 24.0879 85.2066ZM23.8223 86.0825C22.7372 87.2185 21.5334 88.2188 20.2279 89.0326C20.1827 89.0609 20.1262 89.0778 20.0641 89.0948C19.968 89.1174 19.8606 89.1343 19.7306 89.1343C19.6402 89.1343 19.5667 89.1287 19.5272 89.123C15.6446 87.7836 12.8754 86.1334 10.4565 84.551C9.20754 83.7315 8.07159 82.8838 7.09389 81.8948C7.05998 81.8552 6.77175 81.5331 6.72089 81.177C6.39875 79.0069 6.46657 77.1871 6.5683 75.8873C6.58525 75.6612 6.76045 75.8873 6.76045 75.8873C6.79436 75.9268 6.82827 75.9664 6.86218 76.0116C8.05464 77.464 9.9931 79.3742 12.9545 81.1997C17.2892 83.8728 21.1887 85.184 23.7375 85.8226C23.7375 85.8226 23.9749 85.9243 23.8166 86.0882L23.8223 86.0825Z" fill="url(#paint66_linear_43_27244)"/>
<path d="M4.95769 76.2659C4.95769 76.2659 4.91813 73.231 5.3646 72.1573C5.3646 72.1573 4.79945 70.1001 5.82802 67.8791C5.82802 67.8791 5.78281 67.1105 5.08767 68.4103C4.39254 69.7102 3.3018 73.7114 4.95769 76.2659Z" fill="#E3E3E4"/>
<path d="M4.33594 71.3718C4.33594 71.9482 4.68633 72.6264 5.14975 73.0107C5.20627 72.6773 5.27408 72.3777 5.36451 72.163C5.36451 72.163 5.20627 71.5809 5.21192 70.6992C4.71459 70.5014 4.33594 70.7784 4.33594 71.3718Z" fill="white"/>
<path d="M4.60135 72.5076L4.9461 73.2423L5.07608 73.5362C5.13259 73.0502 5.20606 72.5924 5.31909 72.2703C4.99696 72.3437 4.5957 72.5076 4.5957 72.5076H4.60135Z" fill="url(#paint67_linear_43_27244)"/>
<path d="M4.97474 72.5472C4.66956 72.372 4.4209 72.5133 4.4209 72.8693C4.4209 73.2253 4.66956 73.6548 4.97474 73.83C4.99735 73.8413 5.01996 73.8527 5.04821 73.864C5.08212 73.4627 5.13299 73.0671 5.2008 72.7337C5.13299 72.6602 5.05387 72.5924 4.97474 72.5472Z" fill="white"/>
<path d="M4.64109 69.5124C4.57892 69.7102 4.51676 69.9193 4.45459 70.1454C4.45459 70.168 4.45459 70.1849 4.45459 70.2019C4.45459 70.8857 4.82759 71.6769 5.34752 72.2082C5.35318 72.1912 5.35883 72.1743 5.36448 72.1573C5.36448 72.1573 5.01409 70.8688 5.37578 69.2355C5.06495 69.1846 4.80498 69.2807 4.64109 69.5124Z" fill="white"/>
<path d="M5.20048 68.5856C5.20048 68.7721 5.27395 68.9812 5.38697 69.162C5.45479 68.8682 5.55087 68.563 5.66955 68.2522C5.40393 68.1335 5.19482 68.2748 5.19482 68.5912L5.20048 68.5856Z" fill="#F09041"/>
<path d="M4.95769 76.2659C4.95769 76.2659 4.91813 73.231 5.3646 72.1573C5.3646 72.1573 4.79945 70.1001 5.82802 67.8791C5.82802 67.8791 5.78281 67.1105 5.08767 68.4103C4.39254 69.7102 3.3018 73.7114 4.95769 76.2659Z" fill="url(#paint68_linear_43_27244)"/>
<path d="M113.613 36.423L112.161 33.7894L111.46 34.3602C111.46 34.3602 111.844 35.8804 111.652 37.3442C111.46 38.8079 111.211 39.2713 111.415 40.1416C111.618 41.012 112.285 41.6901 112.5 41.6619C112.715 41.628 113.642 40.2208 113.771 39.2091C113.862 38.5027 113.755 37.2085 113.681 36.4908C113.642 36.4512 113.613 36.4343 113.613 36.4343V36.423Z" fill="#BD1E2D"/>
<path d="M111.878 41.1362C112.121 41.4696 112.381 41.6731 112.5 41.6561C112.715 41.6222 113.641 40.215 113.771 39.2034C113.862 38.4969 113.755 37.2028 113.681 36.485C113.641 36.4455 113.613 36.4285 113.613 36.4285L113.591 36.3946C113.602 37.1575 113.579 38.2822 113.382 38.8643C113.144 39.5764 112.274 40.6671 111.873 41.1418L111.878 41.1362Z" fill="#E3E3E4"/>
<path d="M113.596 36.3891L113.104 35.5018C113.093 36.423 113.059 37.7285 112.946 38.0845C112.765 38.6553 111.946 39.6048 111.839 39.8365C111.765 39.9947 111.969 40.5316 112.104 40.865C112.545 40.3225 113.189 39.4578 113.387 38.8588C113.579 38.2767 113.602 37.152 113.596 36.3891Z" fill="#D73747"/>
<path d="M25.7722 89.0439C25.7722 89.0439 25.484 88.8404 25.9248 88.5013C26.3656 88.1622 28.5867 86.6702 28.9766 86.2464C28.9766 86.2464 31.7911 86.4668 33.3904 86.2464C34.9842 86.026 37.4765 85.28 37.5782 86.6702C37.6799 88.0605 35.5776 89.756 33.916 90.3324C32.2545 90.9089 30.2369 90.112 29.6266 89.8238C29.0162 89.5356 26.8121 89.0439 25.7779 89.0439H25.7722Z" fill="#E3E3E4"/>
<path d="M32.8704 86.2972C32.2318 86.3481 31.4971 86.3481 30.8359 86.3312C30.5025 86.4781 30.2255 86.5855 30.186 86.5685C29.5643 86.6928 28.7505 87.0376 28.7505 87.0376L29.3948 88.4052L29.9486 89.6486C30.4968 89.4677 31.8136 88.2414 32.0736 87.4162C32.7517 86.9359 32.9326 86.5685 32.8761 86.2972H32.8704Z" fill="url(#paint69_linear_43_27244)"/>
<path d="M29.0047 87.032C28.9595 87.015 27.9592 87.5011 27.9026 87.4785C27.5692 87.5463 27.134 87.7271 27.134 87.7271L27.4788 88.4618L27.7783 89.1287C28.0722 89.0326 28.7786 88.3714 28.9143 87.9306C29.6376 87.4163 29.3042 87.145 29.0047 87.032Z" fill="url(#paint70_linear_43_27244)"/>
<path d="M28.0552 88.733C28.0552 89.089 27.8065 89.2303 27.5014 89.0551C27.1962 88.8799 26.9475 88.4504 26.9475 88.0943C26.9475 87.7383 27.1962 87.597 27.5014 87.7722C27.8065 87.9474 28.0552 88.3769 28.0552 88.733Z" fill="white"/>
<path d="M30.4742 88.914C30.4742 89.5752 30.0108 89.8408 29.44 89.513C28.8692 89.1853 28.4058 88.3827 28.4058 87.7215C28.4058 87.0603 28.8692 86.7947 29.44 87.1225C30.0108 87.4502 30.4742 88.2584 30.4742 88.914Z" fill="white"/>
<path d="M33.3903 86.2465C33.3903 86.2465 33.3733 86.2465 33.3677 86.2465C33.3507 86.2522 33.3337 86.2578 33.3224 86.2522C32.4973 86.4217 31.4688 86.7778 31.4688 86.7778L32.3221 88.5919L33.0625 90.2478C33.7972 90.0048 36.0747 87.6481 36.4195 86.5517C36.4647 86.2352 36.4421 86.0035 36.3686 85.8396C35.487 85.817 34.2945 86.1109 33.3846 86.2352L33.3903 86.2465Z" fill="url(#paint71_linear_43_27244)"/>
<path d="M33.7689 89.2698C33.7689 90.1458 33.1529 90.5019 32.39 90.0667C31.6327 89.6259 31.011 88.5577 31.011 87.6818C31.011 86.8058 31.627 86.4441 32.39 86.8849C33.1529 87.3257 33.7689 88.3939 33.7689 89.2698Z" fill="white"/>
<path d="M36.7473 87.3767C36.7473 87.7158 36.5099 87.8514 36.2161 87.6819C35.9222 87.5123 35.6848 87.0998 35.6848 86.7607C35.6848 86.4216 35.9222 86.286 36.2161 86.4555C36.5099 86.625 36.7473 87.0376 36.7473 87.3767Z" fill="#F09041"/>
<path d="M25.7722 89.0439C25.7722 89.0439 25.484 88.8404 25.9248 88.5013C26.3656 88.1622 28.5867 86.6702 28.9766 86.2464C28.9766 86.2464 31.7911 86.4668 33.3904 86.2464C34.9842 86.026 37.4765 85.28 37.5782 86.6702C37.6799 88.0605 35.5776 89.756 33.916 90.3324C32.2545 90.9089 30.2369 90.112 29.6266 89.8238C29.0162 89.5356 26.8121 89.0439 25.7779 89.0439H25.7722Z" fill="url(#paint72_linear_43_27244)"/>
<defs>
<linearGradient id="paint0_linear_43_27244" x1="43.2182" y1="41.9218" x2="42.3253" y2="53.1852" gradientUnits="userSpaceOnUse">
<stop stop-color="#838B8E"/>
<stop offset="1" stop-color="#414647"/>
</linearGradient>
<linearGradient id="paint1_linear_43_27244" x1="64.9819" y1="32.8342" x2="64.3885" y2="46.6295" gradientUnits="userSpaceOnUse">
<stop stop-color="#838B8E"/>
<stop offset="1" stop-color="#414647"/>
</linearGradient>
<linearGradient id="paint2_linear_43_27244" x1="79.6645" y1="50.3029" x2="76.1662" y2="54.6941" gradientUnits="userSpaceOnUse">
<stop stop-color="#C7B99D"/>
<stop offset="0.18" stop-color="#CABEA6"/>
<stop offset="0.49" stop-color="#CDC3AE"/>
<stop offset="1" stop-color="#CFC5B1"/>
</linearGradient>
<linearGradient id="paint3_linear_43_27244" x1="69.1642" y1="44.4424" x2="65.1121" y2="49.5344" gradientUnits="userSpaceOnUse">
<stop stop-color="#C7B99D"/>
<stop offset="0.18" stop-color="#CABEA6"/>
<stop offset="0.49" stop-color="#CDC3AE"/>
<stop offset="1" stop-color="#CFC5B1"/>
</linearGradient>
<linearGradient id="paint4_linear_43_27244" x1="58.4771" y1="37.3668" x2="54.4306" y2="44.3803" gradientUnits="userSpaceOnUse">
<stop offset="0.2" stop-color="#EEEAE2"/>
<stop offset="0.49" stop-color="#DED7C8"/>
<stop offset="1" stop-color="#BDAF8F"/>
</linearGradient>
<linearGradient id="paint5_linear_43_27244" x1="56.2392" y1="45.5952" x2="52.3001" y2="52.4222" gradientUnits="userSpaceOnUse">
<stop stop-color="#DED7C8"/>
<stop offset="1" stop-color="#BDAF8F"/>
</linearGradient>
<linearGradient id="paint6_linear_43_27244" x1="58.658" y1="35.7899" x2="57.0191" y2="38.6213" gradientUnits="userSpaceOnUse">
<stop offset="0.2" stop-color="#EEEAE2"/>
<stop offset="0.49" stop-color="#DED7C8"/>
<stop offset="1" stop-color="#CFC5B1"/>
</linearGradient>
<linearGradient id="paint7_linear_43_27244" x1="50.4691" y1="51.3372" x2="46.6487" y2="57.9551" gradientUnits="userSpaceOnUse">
<stop stop-color="#C7B99D"/>
<stop offset="0.18" stop-color="#CABEA6"/>
<stop offset="0.49" stop-color="#CDC3AE"/>
<stop offset="1" stop-color="#CFC5B1"/>
</linearGradient>
<linearGradient id="paint8_linear_43_27244" x1="74.0641" y1="38.3275" x2="70.5715" y2="45.3071" gradientUnits="userSpaceOnUse">
<stop stop-color="#DED7C8"/>
<stop offset="1" stop-color="#BDAF8F"/>
</linearGradient>
<linearGradient id="paint9_linear_43_27244" x1="77.2175" y1="30.698" x2="73.3237" y2="37.8811" gradientUnits="userSpaceOnUse">
<stop offset="0.2" stop-color="#EEEAE2"/>
<stop offset="0.49" stop-color="#DED7C8"/>
<stop offset="1" stop-color="#BDAF8F"/>
</linearGradient>
<linearGradient id="paint10_linear_43_27244" x1="77.3136" y1="29.5903" x2="76.1212" y2="31.8226" gradientUnits="userSpaceOnUse">
<stop offset="0.2" stop-color="#EEEAE2"/>
<stop offset="0.49" stop-color="#DED7C8"/>
<stop offset="1" stop-color="#CFC5B1"/>
</linearGradient>
<linearGradient id="paint11_linear_43_27244" x1="82.0439" y1="34.6031" x2="75.6691" y2="48.7883" gradientUnits="userSpaceOnUse">
<stop offset="0.2" stop-color="#EEEAE2"/>
<stop offset="0.49" stop-color="#DED7C8"/>
<stop offset="1" stop-color="#CFC5B1"/>
</linearGradient>
<linearGradient id="paint12_linear_43_27244" x1="84.6437" y1="44.2164" x2="81.4562" y2="51.309" gradientUnits="userSpaceOnUse">
<stop stop-color="#DED7C8"/>
<stop offset="1" stop-color="#BDAF8F"/>
</linearGradient>
<linearGradient id="paint13_linear_43_27244" x1="88.0627" y1="37.3497" x2="84.1858" y2="43.8998" gradientUnits="userSpaceOnUse">
<stop offset="0.2" stop-color="#EEEAE2"/>
<stop offset="0.49" stop-color="#DED7C8"/>
<stop offset="1" stop-color="#BDAF8F"/>
</linearGradient>
<linearGradient id="paint14_linear_43_27244" x1="87.7859" y1="35.9481" x2="86.3335" y2="38.1239" gradientUnits="userSpaceOnUse">
<stop offset="0.2" stop-color="#EEEAE2"/>
<stop offset="0.49" stop-color="#DED7C8"/>
<stop offset="1" stop-color="#CFC5B1"/>
</linearGradient>
<linearGradient id="paint15_linear_43_27244" x1="75.0813" y1="47.2682" x2="71.0348" y2="54.276" gradientUnits="userSpaceOnUse">
<stop offset="0.2" stop-color="#EEEAE2"/>
<stop offset="0.49" stop-color="#DED7C8"/>
<stop offset="1" stop-color="#BDAF8F"/>
</linearGradient>
<linearGradient id="paint16_linear_43_27244" x1="72.8434" y1="55.4966" x2="68.9043" y2="62.3236" gradientUnits="userSpaceOnUse">
<stop stop-color="#DED7C8"/>
<stop offset="1" stop-color="#BDAF8F"/>
</linearGradient>
<linearGradient id="paint17_linear_43_27244" x1="75.2622" y1="45.6857" x2="73.6289" y2="48.5227" gradientUnits="userSpaceOnUse">
<stop offset="0.2" stop-color="#EEEAE2"/>
<stop offset="0.49" stop-color="#DED7C8"/>
<stop offset="1" stop-color="#CFC5B1"/>
</linearGradient>
<linearGradient id="paint18_linear_43_27244" x1="67.0731" y1="61.2386" x2="63.2527" y2="67.8565" gradientUnits="userSpaceOnUse">
<stop stop-color="#C7B99D"/>
<stop offset="0.18" stop-color="#CABEA6"/>
<stop offset="0.49" stop-color="#CDC3AE"/>
<stop offset="1" stop-color="#CFC5B1"/>
</linearGradient>
<linearGradient id="paint19_linear_43_27244" x1="51.3789" y1="58.4186" x2="60.8565" y2="65.206" gradientUnits="userSpaceOnUse">
<stop stop-color="#939EA1"/>
<stop offset="1" stop-color="#697174"/>
</linearGradient>
<linearGradient id="paint20_linear_43_27244" x1="43.7721" y1="53.7164" x2="49.9718" y2="58.3563" gradientUnits="userSpaceOnUse">
<stop stop-color="#939EA1"/>
<stop offset="1" stop-color="#697174"/>
</linearGradient>
<linearGradient id="paint21_linear_43_27244" x1="40.415" y1="90.129" x2="50.5538" y2="90.129" gradientUnits="userSpaceOnUse">
<stop stop-color="white"/>
<stop offset="1" stop-color="#B3B7B8"/>
</linearGradient>
<linearGradient id="paint22_linear_43_27244" x1="43.8962" y1="84.6696" x2="47.6431" y2="97.3967" gradientUnits="userSpaceOnUse">
<stop stop-color="#F3F5F7"/>
<stop offset="1" stop-color="#999D9E"/>
</linearGradient>
<linearGradient id="paint23_linear_43_27244" x1="45.9254" y1="91.7791" x2="45.0042" y2="88.1056" gradientUnits="userSpaceOnUse">
<stop stop-color="#D0D2D4"/>
<stop offset="1" stop-color="#86898B"/>
</linearGradient>
<linearGradient id="paint24_linear_43_27244" x1="44.9362" y1="88.8687" x2="44.8627" y2="90.4681" gradientUnits="userSpaceOnUse">
<stop stop-color="#D0D2D4"/>
<stop offset="1" stop-color="#86898B"/>
</linearGradient>
<linearGradient id="paint25_linear_43_27244" x1="48.5646" y1="90.6771" x2="48.8302" y2="89.5977" gradientUnits="userSpaceOnUse">
<stop stop-color="#F1F3F5"/>
<stop offset="1" stop-color="#86898B"/>
</linearGradient>
<linearGradient id="paint26_linear_43_27244" x1="48.8526" y1="87.665" x2="48.474" y2="86.0204" gradientUnits="userSpaceOnUse">
<stop stop-color="#F1F3F5"/>
<stop offset="1" stop-color="#86898B"/>
</linearGradient>
<linearGradient id="paint27_linear_43_27244" x1="46.9764" y1="85.3479" x2="46.3378" y2="84.178" gradientUnits="userSpaceOnUse">
<stop stop-color="#F1F3F5"/>
<stop offset="1" stop-color="#86898B"/>
</linearGradient>
<linearGradient id="paint28_linear_43_27244" x1="44.4219" y1="90.5416" x2="44.4615" y2="86.2634" gradientUnits="userSpaceOnUse">
<stop stop-color="#F1F3F5"/>
<stop offset="1" stop-color="#86898B"/>
</linearGradient>
<linearGradient id="paint29_linear_43_27244" x1="41.8673" y1="91.7509" x2="44.8626" y2="91.7509" gradientUnits="userSpaceOnUse">
<stop stop-color="#F1F3F5"/>
<stop offset="1" stop-color="#86898B"/>
</linearGradient>
<linearGradient id="paint30_linear_43_27244" x1="41.4212" y1="94.1247" x2="44.3825" y2="94.1247" gradientUnits="userSpaceOnUse">
<stop offset="0.37" stop-color="#F1F3F5"/>
<stop offset="0.38" stop-color="#EEF0F2"/>
<stop offset="0.51" stop-color="#C9CBCD"/>
<stop offset="0.63" stop-color="#ABAEB0"/>
<stop offset="0.76" stop-color="#96999B"/>
<stop offset="0.88" stop-color="#8A8D8F"/>
<stop offset="1" stop-color="#86898B"/>
</linearGradient>
<linearGradient id="paint31_linear_43_27244" x1="44.9023" y1="94.2715" x2="46.869" y2="93.4237" gradientUnits="userSpaceOnUse">
<stop offset="0.37" stop-color="#F1F3F5"/>
<stop offset="1" stop-color="#86898B"/>
</linearGradient>
<linearGradient id="paint32_linear_43_27244" x1="96.2744" y1="57.4013" x2="106.413" y2="57.4013" gradientUnits="userSpaceOnUse">
<stop stop-color="white"/>
<stop offset="1" stop-color="#B3B7B8"/>
</linearGradient>
<linearGradient id="paint33_linear_43_27244" x1="99.7614" y1="51.9475" x2="103.503" y2="64.6747" gradientUnits="userSpaceOnUse">
<stop stop-color="#F3F5F7"/>
<stop offset="1" stop-color="#999D9E"/>
</linearGradient>
<linearGradient id="paint34_linear_43_27244" x1="101.784" y1="59.0515" x2="100.863" y2="55.3837" gradientUnits="userSpaceOnUse">
<stop stop-color="#D0D2D4"/>
<stop offset="1" stop-color="#86898B"/>
</linearGradient>
<linearGradient id="paint35_linear_43_27244" x1="100.796" y1="56.141" x2="100.722" y2="57.746" gradientUnits="userSpaceOnUse">
<stop stop-color="#D0D2D4"/>
<stop offset="1" stop-color="#86898B"/>
</linearGradient>
<linearGradient id="paint36_linear_43_27244" x1="104.424" y1="57.955" x2="104.69" y2="56.8756" gradientUnits="userSpaceOnUse">
<stop stop-color="#F1F3F5"/>
<stop offset="1" stop-color="#86898B"/>
</linearGradient>
<linearGradient id="paint37_linear_43_27244" x1="104.712" y1="54.9429" x2="104.333" y2="53.2983" gradientUnits="userSpaceOnUse">
<stop stop-color="#F1F3F5"/>
<stop offset="1" stop-color="#86898B"/>
</linearGradient>
<linearGradient id="paint38_linear_43_27244" x1="102.836" y1="52.6257" x2="102.197" y2="51.4502" gradientUnits="userSpaceOnUse">
<stop stop-color="#F1F3F5"/>
<stop offset="1" stop-color="#86898B"/>
</linearGradient>
<linearGradient id="paint39_linear_43_27244" x1="100.281" y1="57.8137" x2="100.321" y2="53.5412" gradientUnits="userSpaceOnUse">
<stop stop-color="#F1F3F5"/>
<stop offset="1" stop-color="#86898B"/>
</linearGradient>
<linearGradient id="paint40_linear_43_27244" x1="97.7269" y1="59.0288" x2="100.722" y2="59.0288" gradientUnits="userSpaceOnUse">
<stop stop-color="#F1F3F5"/>
<stop offset="1" stop-color="#86898B"/>
</linearGradient>
<linearGradient id="paint41_linear_43_27244" x1="97.2803" y1="61.3968" x2="100.242" y2="61.3968" gradientUnits="userSpaceOnUse">
<stop offset="0.37" stop-color="#F1F3F5"/>
<stop offset="0.38" stop-color="#EEF0F2"/>
<stop offset="0.51" stop-color="#C9CBCD"/>
<stop offset="0.63" stop-color="#ABAEB0"/>
<stop offset="0.76" stop-color="#96999B"/>
<stop offset="0.88" stop-color="#8A8D8F"/>
<stop offset="1" stop-color="#86898B"/>
</linearGradient>
<linearGradient id="paint42_linear_43_27244" x1="100.761" y1="61.5438" x2="102.734" y2="60.6961" gradientUnits="userSpaceOnUse">
<stop offset="0.37" stop-color="#F1F3F5"/>
<stop offset="1" stop-color="#86898B"/>
</linearGradient>
<linearGradient id="paint43_linear_43_27244" x1="3.44869" y1="73.1349" x2="5.72624" y2="73.1349" gradientUnits="userSpaceOnUse">
<stop/>
<stop offset="0.12" stop-color="#282828"/>
<stop offset="0.38" stop-color="#8E8E8E"/>
<stop offset="0.65" stop-color="white"/>
<stop offset="0.68" stop-color="#F7F7F7"/>
<stop offset="0.72" stop-color="#E2E2E2"/>
<stop offset="0.78" stop-color="#C0C0C0"/>
<stop offset="0.84" stop-color="#919191"/>
<stop offset="0.91" stop-color="#545454"/>
<stop offset="0.99" stop-color="#0B0B0B"/>
<stop offset="1"/>
</linearGradient>
<linearGradient id="paint44_linear_43_27244" x1="68.0394" y1="64.9572" x2="70.0457" y2="68.1108" gradientUnits="userSpaceOnUse">
<stop stop-color="white"/>
<stop offset="1"/>
</linearGradient>
<radialGradient id="paint45_radial_43_27244" cx="0" cy="0" r="1" gradientUnits="userSpaceOnUse" gradientTransform="translate(42.054 78.9277) scale(12.9928 12.9928)">
<stop stop-color="white"/>
<stop offset="1"/>
</radialGradient>
<linearGradient id="paint46_linear_43_27244" x1="29.8863" y1="87.9022" x2="29.6207" y2="87.0149" gradientUnits="userSpaceOnUse">
<stop stop-color="white"/>
<stop offset="1"/>
</linearGradient>
<linearGradient id="paint47_linear_43_27244" x1="24.0257" y1="88.1961" x2="35.9843" y2="89.6711" gradientUnits="userSpaceOnUse">
<stop/>
<stop offset="0.12" stop-color="#282828"/>
<stop offset="0.38" stop-color="#8E8E8E"/>
<stop offset="0.65" stop-color="white"/>
<stop offset="0.68" stop-color="#F7F7F7"/>
<stop offset="0.72" stop-color="#E2E2E2"/>
<stop offset="0.78" stop-color="#C0C0C0"/>
<stop offset="0.84" stop-color="#919191"/>
<stop offset="0.91" stop-color="#545454"/>
<stop offset="0.99" stop-color="#0B0B0B"/>
<stop offset="1"/>
</linearGradient>
<radialGradient id="paint48_radial_43_27244" cx="0" cy="0" r="1" gradientUnits="userSpaceOnUse" gradientTransform="translate(8.58591 64.0191) scale(7.2339)">
<stop stop-color="white"/>
<stop offset="1"/>
</radialGradient>
<linearGradient id="paint49_linear_43_27244" x1="14.062" y1="92.0167" x2="15.2375" y2="90.0273" gradientUnits="userSpaceOnUse">
<stop stop-color="white"/>
<stop offset="1"/>
</linearGradient>
<linearGradient id="paint50_linear_43_27244" x1="82.123" y1="58.0963" x2="81.5748" y2="57.0621" gradientUnits="userSpaceOnUse">
<stop stop-color="white"/>
<stop offset="1"/>
</linearGradient>
<linearGradient id="paint51_linear_43_27244" x1="80.5181" y1="58.3903" x2="83.779" y2="58.3903" gradientUnits="userSpaceOnUse">
<stop stop-color="white"/>
<stop offset="1"/>
</linearGradient>
<linearGradient id="paint52_linear_43_27244" x1="80.8911" y1="57.0791" x2="83.779" y2="57.0791" gradientUnits="userSpaceOnUse">
<stop stop-color="white"/>
<stop offset="1"/>
</linearGradient>
<linearGradient id="paint53_linear_43_27244" x1="9.23588" y1="67.3309" x2="30.5589" y2="67.3309" gradientUnits="userSpaceOnUse">
<stop stop-color="white"/>
<stop offset="1"/>
</linearGradient>
<linearGradient id="paint54_linear_43_27244" x1="44.4162" y1="65.9802" x2="15.5089" y2="82.9572" gradientUnits="userSpaceOnUse">
<stop stop-color="white"/>
<stop offset="1"/>
</linearGradient>
<linearGradient id="paint55_linear_43_27244" x1="11.7619" y1="80.6345" x2="10.9085" y2="78.2609" gradientUnits="userSpaceOnUse">
<stop stop-color="#F3F5F7"/>
<stop offset="1" stop-color="#999D9E"/>
</linearGradient>
<linearGradient id="paint56_linear_43_27244" x1="6.69263" y1="81.3748" x2="23.7432" y2="81.3748" gradientUnits="userSpaceOnUse">
<stop stop-color="#CCCED0"/>
<stop offset="1" stop-color="#727677"/>
</linearGradient>
<linearGradient id="paint57_linear_43_27244" x1="6.74902" y1="84.6752" x2="21.0586" y2="84.6752" gradientUnits="userSpaceOnUse">
<stop stop-color="#CCCED0"/>
<stop offset="1" stop-color="#727677"/>
</linearGradient>
<linearGradient id="paint58_linear_43_27244" x1="6.67017" y1="83.8614" x2="21.7822" y2="83.8614" gradientUnits="userSpaceOnUse">
<stop stop-color="#CCCED0"/>
<stop offset="1" stop-color="#727677"/>
</linearGradient>
<linearGradient id="paint59_linear_43_27244" x1="6.64746" y1="82.2848" x2="23.1046" y2="82.2848" gradientUnits="userSpaceOnUse">
<stop stop-color="#CCCED0"/>
<stop offset="1" stop-color="#727677"/>
</linearGradient>
<linearGradient id="paint60_linear_43_27244" x1="6.63623" y1="83.0704" x2="22.4434" y2="83.0704" gradientUnits="userSpaceOnUse">
<stop stop-color="#CCCED0"/>
<stop offset="1" stop-color="#727677"/>
</linearGradient>
<linearGradient id="paint61_linear_43_27244" x1="6.65869" y1="81.4427" x2="23.6979" y2="81.4427" gradientUnits="userSpaceOnUse">
<stop stop-color="#E6E8EA"/>
<stop offset="1" stop-color="#8C9091"/>
</linearGradient>
<linearGradient id="paint62_linear_43_27244" x1="6.74902" y1="84.7261" x2="20.9173" y2="84.7261" gradientUnits="userSpaceOnUse">
<stop stop-color="#E6E8EA"/>
<stop offset="1" stop-color="#8C9091"/>
</linearGradient>
<linearGradient id="paint63_linear_43_27244" x1="6.66996" y1="83.9123" x2="21.6407" y2="83.9123" gradientUnits="userSpaceOnUse">
<stop stop-color="#E6E8EA"/>
<stop offset="1" stop-color="#8C9091"/>
</linearGradient>
<linearGradient id="paint64_linear_43_27244" x1="6.63623" y1="82.3356" x2="22.9634" y2="82.3356" gradientUnits="userSpaceOnUse">
<stop stop-color="#E6E8EA"/>
<stop offset="1" stop-color="#8C9091"/>
</linearGradient>
<linearGradient id="paint65_linear_43_27244" x1="6.63623" y1="83.1268" x2="22.3022" y2="83.1268" gradientUnits="userSpaceOnUse">
<stop stop-color="#E6E8EA"/>
<stop offset="1" stop-color="#8C9091"/>
</linearGradient>
<linearGradient id="paint66_linear_43_27244" x1="6.24616" y1="82.0982" x2="24.5965" y2="82.0982" gradientUnits="userSpaceOnUse">
<stop stop-color="#F3F5F7"/>
<stop offset="1" stop-color="#999D9E"/>
</linearGradient>
<linearGradient id="paint67_linear_43_27244" x1="4.99131" y1="72.4907" x2="5.18911" y2="73.248" gradientUnits="userSpaceOnUse">
<stop stop-color="#FAFFFF"/>
<stop offset="1" stop-color="#D4D7D9"/>
</linearGradient>
<linearGradient id="paint68_linear_43_27244" x1="5.11593" y1="67.4383" x2="4.86162" y2="71.999" gradientUnits="userSpaceOnUse">
<stop stop-color="white"/>
<stop offset="1" stop-color="white"/>
</linearGradient>
<linearGradient id="paint69_linear_43_27244" x1="30.8133" y1="86.6928" x2="31.3219" y2="88.6313" gradientUnits="userSpaceOnUse">
<stop stop-color="#FAFFFF"/>
<stop offset="1" stop-color="#D4D7D9"/>
</linearGradient>
<linearGradient id="paint70_linear_43_27244" x1="28.2135" y1="87.4389" x2="28.5017" y2="88.5579" gradientUnits="userSpaceOnUse">
<stop stop-color="#FAFFFF"/>
<stop offset="1" stop-color="#D4D7D9"/>
</linearGradient>
<linearGradient id="paint71_linear_43_27244" x1="33.978" y1="86.5178" x2="34.6279" y2="88.9988" gradientUnits="userSpaceOnUse">
<stop stop-color="#FAFFFF"/>
<stop offset="1" stop-color="#D4D7D9"/>
</linearGradient>
<linearGradient id="paint72_linear_43_27244" x1="25.6818" y1="88.1905" x2="37.5838" y2="88.1905" gradientUnits="userSpaceOnUse">
<stop stop-color="white"/>
<stop offset="1" stop-color="white"/>
</linearGradient>
</defs>
</svg>
