<svg width="120" height="120" viewBox="0 0 120 120" fill="none" xmlns="http://www.w3.org/2000/svg">
<path d="M113.087 72.8616L108.128 69.899C107.117 69.3078 105.725 69.3968 104.193 70.3059C101.11 72.1305 98.605 76.5679 98.605 80.2233C98.605 82.0606 99.2407 83.3448 100.258 83.9424L105.217 86.9049C106.227 87.4897 107.613 87.4007 109.152 86.4916C112.235 84.6671 114.74 80.2297 114.74 76.5742C114.74 74.7433 114.11 73.4528 113.087 72.8616Z" fill="#2E373A"/>
<path d="M114.734 76.5736C114.734 80.2227 112.235 84.6665 109.146 86.491C107.614 87.4001 106.221 87.4891 105.211 86.9043C104.187 86.313 103.558 85.0225 103.558 83.1852C103.558 79.5361 106.056 75.0924 109.146 73.2678C110.684 72.3587 112.07 72.2697 113.081 72.861C114.098 73.4522 114.734 74.7427 114.734 76.5736Z" fill="#B8BFC3"/>
<path d="M114.753 76.5604C114.753 80.2222 112.249 84.6723 109.153 86.5032C106.063 88.3341 103.552 86.8465 103.552 83.1847C103.552 79.5229 106.063 75.0728 109.153 73.2419C112.249 71.411 114.753 72.8922 114.753 76.554V76.5604Z" fill="#555E61"/>
<path d="M113.462 77.3248C113.462 80.1411 111.529 83.574 109.152 84.979C106.768 86.3903 104.835 85.246 104.835 82.4297C104.835 79.6134 106.768 76.1805 109.145 74.7755C111.529 73.3642 113.462 74.5085 113.462 77.3248Z" fill="#3B4447"/>
<path d="M112.832 77.6983C112.832 80.1077 111.186 83.0384 109.145 84.2399C107.111 85.4478 105.458 84.4688 105.458 82.0594C105.458 79.65 107.111 76.7192 109.145 75.5177C111.18 74.3162 112.832 75.2888 112.832 77.6983Z" fill="#2E373A"/>
<path d="M112.127 77.9024C112.127 79.9749 110.71 82.4988 108.955 83.535C107.2 84.5713 105.783 83.7321 105.783 81.6596C105.783 79.5871 107.2 77.0633 108.955 76.027C110.71 74.9908 112.127 75.83 112.127 77.9024Z" fill="#EF9F01"/>
<path d="M112.127 77.9024C112.127 79.9749 110.71 82.4988 108.955 83.535C107.2 84.5713 105.783 83.7321 105.783 81.6596C105.783 79.5871 107.2 77.0633 108.955 76.027C110.71 74.9908 112.127 75.83 112.127 77.9024Z" fill="#EF9F01"/>
<path d="M110.042 78.7922C110.042 79.6823 109.432 80.7567 108.682 81.2017C107.932 81.6467 107.321 81.2843 107.321 80.4006C107.321 79.517 107.932 78.4299 108.682 77.9912C109.432 77.5462 110.042 77.9086 110.042 78.7922Z" fill="#AEB5B9"/>
<path d="M110.188 79.0476C110.188 79.855 109.635 80.834 108.955 81.2345C108.275 81.635 107.722 81.3108 107.722 80.5034C107.722 79.696 108.275 78.717 108.955 78.3165C109.635 77.916 110.188 78.2402 110.188 79.0476Z" fill="#D4DBDF"/>
<path d="M111.244 78.4938C111.244 78.729 111.085 79.0087 110.888 79.1232C110.691 79.2376 110.532 79.1486 110.532 78.9134C110.532 78.6782 110.691 78.3984 110.888 78.284C111.085 78.1696 111.244 78.2586 111.244 78.4938Z" fill="#414E52"/>
<path d="M106.972 80.8467C106.972 81.0819 106.813 81.3616 106.616 81.476C106.419 81.5905 106.26 81.4951 106.26 81.2662C106.26 81.0374 106.419 80.7513 106.616 80.6369C106.813 80.5224 106.972 80.6178 106.972 80.8467Z" fill="#414E52"/>
<path d="M108.071 82.2632C108.071 82.492 107.912 82.7781 107.715 82.8925C107.518 83.007 107.359 82.9116 107.359 82.6827C107.359 82.4539 107.518 82.1678 107.715 82.0534C107.912 81.9389 108.071 82.0343 108.071 82.2632Z" fill="#414E52"/>
<path d="M109.864 81.4253C109.864 81.6541 109.705 81.9402 109.508 82.0547C109.311 82.1691 109.152 82.0737 109.152 81.8449C109.152 81.616 109.311 81.3299 109.508 81.2155C109.705 81.101 109.864 81.1964 109.864 81.4253Z" fill="#414E52"/>
<path d="M110.399 76.7334C110.399 76.9686 110.24 77.2483 110.043 77.3628C109.845 77.4772 109.687 77.3818 109.687 77.153C109.687 76.9241 109.845 76.638 110.043 76.5236C110.24 76.4092 110.399 76.5045 110.399 76.7334Z" fill="#414E52"/>
<path d="M108.173 77.6738C108.173 77.909 108.015 78.1887 107.817 78.3032C107.62 78.4176 107.461 78.3286 107.461 78.0934C107.461 77.8582 107.62 77.5784 107.817 77.464C108.015 77.3496 108.173 77.4449 108.173 77.6738Z" fill="#414E52"/>
<path d="M111.117 75.7603C111.473 76.1544 111.682 76.7647 111.682 77.5594C111.682 79.6319 110.265 82.1557 108.51 83.192C107.671 83.6878 106.908 83.7514 106.342 83.459C106.914 84.1011 107.868 84.1773 108.949 83.5352C110.703 82.499 112.121 79.9752 112.121 77.9027C112.121 76.8219 111.733 76.0781 111.117 75.7603Z" fill="#FFAA00"/>
<path d="M109.349 73.1353L109.222 74.7309L109.075 74.8199L108.948 73.3705C109.012 73.326 109.082 73.2878 109.145 73.2497C109.209 73.2115 109.279 73.1734 109.342 73.1353H109.349Z" fill="#3B4447"/>
<path d="M109.349 86.384C109.286 86.4285 109.216 86.4667 109.152 86.5048C109.082 86.543 109.019 86.5811 108.955 86.6193L109.082 85.0236L109.228 84.9346L109.356 86.3777L109.349 86.384Z" fill="#3B4447"/>
<path d="M104.836 82.3462V82.5178L103.552 83.4269C103.552 83.3506 103.552 83.2744 103.552 83.1917C103.552 83.1091 103.552 83.0328 103.552 82.9565L104.836 82.3462Z" fill="#3B4447"/>
<path d="M114.753 76.5682C114.753 76.6445 114.753 76.7272 114.753 76.8034L113.469 77.4137V77.2421L114.753 76.333C114.753 76.4093 114.753 76.4856 114.753 76.5682Z" fill="#3B4447"/>
<path d="M107.054 76.6559L106.927 76.8212L106.177 76.0202C106.291 75.8676 106.406 75.7214 106.52 75.5815L107.054 76.6559Z" fill="#3B4447"/>
<path d="M112.115 83.7385C112.007 83.8911 111.892 84.031 111.778 84.1772L111.244 83.1028L111.371 82.9438L112.121 83.7385H112.115Z" fill="#3B4447"/>
<path d="M105.453 84.6921L104.404 86.2051C104.334 86.1161 104.264 86.0207 104.2 85.919L105.376 84.5903L105.446 84.6984L105.453 84.6921Z" fill="#3B4447"/>
<path d="M114.098 73.8408L112.922 75.1695L112.852 75.0614L113.907 73.5483C113.977 73.6373 114.041 73.7327 114.104 73.8344L114.098 73.8408Z" fill="#3B4447"/>
<path d="M105.452 79.4408L105.382 79.6316L104.206 79.6951C104.27 79.5235 104.333 79.3455 104.403 79.1675L105.458 79.4345L105.452 79.4408Z" fill="#3B4447"/>
<path d="M114.098 80.0645C114.041 80.2361 113.971 80.4141 113.901 80.5858L112.852 80.3188L112.922 80.1217L114.098 80.0581V80.0645Z" fill="#3B4447"/>
<path d="M107.054 85.5825L106.52 87.2926C106.399 87.2926 106.285 87.2799 106.177 87.2609L106.927 85.5762L107.054 85.5889V85.5825Z" fill="#3B4447"/>
<path d="M112.121 72.4991L111.371 74.1901L111.244 74.1774L111.778 72.4673C111.898 72.4673 112.013 72.4864 112.121 72.4991Z" fill="#3B4447"/>
<path d="M103.544 83.1911C103.544 83.1148 103.544 83.0385 103.544 82.9558L101.612 81.8115C101.612 81.9069 101.605 82.0022 101.605 82.0976C101.605 82.1612 101.605 82.2247 101.605 82.282L103.544 83.4263C103.544 83.35 103.544 83.2674 103.544 83.1847V83.1911Z" fill="#212A2D"/>
<path d="M106.793 69.5303L108.745 70.6809C108.879 70.6937 109.006 70.7064 109.127 70.7318L107.149 69.5621C107.035 69.543 106.914 69.5366 106.793 69.5303Z" fill="#212A2D"/>
<path d="M98.6113 80.0332C98.6113 80.0968 98.6113 80.1604 98.6113 80.2239C98.6113 80.3193 98.6113 80.4146 98.6177 80.51L100.442 81.5907C100.442 81.5208 100.442 81.4445 100.442 81.3746C100.442 81.292 100.442 81.2029 100.442 81.1203L98.6113 80.0396V80.0332Z" fill="#212A2D"/>
<path d="M101.294 77.343L99.4441 76.2495C99.3742 76.4212 99.3106 76.5928 99.2471 76.7645L101.097 77.8579C101.161 77.6863 101.224 77.5146 101.294 77.343Z" fill="#212A2D"/>
<path d="M101.218 73.0832L103.081 74.183C103.189 74.0368 103.303 73.8906 103.418 73.7507L101.555 72.6445C101.441 72.7844 101.326 72.9306 101.218 73.0768V73.0832Z" fill="#212A2D"/>
<path d="M101.078 84.0758L99.311 83.0332C99.381 83.1413 99.4573 83.243 99.5399 83.3384L101.269 84.3619C101.199 84.2729 101.136 84.1775 101.078 84.0822V84.0758Z" fill="#212A2D"/>
<path d="M106.018 71.4555C106.1 71.4047 106.189 71.3602 106.272 71.3157L104.39 70.1968C104.327 70.2349 104.263 70.2667 104.193 70.3049C104.13 70.343 104.06 70.3875 103.996 70.4256L105.878 71.5382C105.929 71.5064 105.973 71.481 106.018 71.4492V71.4555Z" fill="#212A2D"/>
<path d="M104.397 79.1799L102.477 78.0483C102.407 78.22 102.344 78.3916 102.28 78.5633L104.2 79.7012C104.264 79.5296 104.327 79.3579 104.397 79.1863V79.1799Z" fill="#212A2D"/>
<path d="M107.194 72.1814C107.155 72.2068 107.117 72.2323 107.079 72.2513L108.961 73.3639C109.024 73.3257 109.088 73.2812 109.152 73.2431C109.222 73.2049 109.285 73.1668 109.355 73.1286L107.48 72.0161C107.384 72.067 107.295 72.1178 107.2 72.175L107.194 72.1814Z" fill="#212A2D"/>
<path d="M102.229 84.7559C102.286 84.8512 102.343 84.9466 102.407 85.0356L104.41 86.218C104.34 86.129 104.27 86.0273 104.206 85.9256L102.229 84.7559Z" fill="#212A2D"/>
<path d="M109.984 71.417L111.764 72.4723C111.885 72.4723 112 72.485 112.114 72.5041L110.398 71.4869C110.264 71.4551 110.131 71.4361 109.984 71.4234V71.417Z" fill="#212A2D"/>
<path d="M104.276 74.8888L106.184 76.0141C106.292 75.8679 106.406 75.7216 106.52 75.5818L104.62 74.4565C104.505 74.5964 104.391 74.7426 104.276 74.8888Z" fill="#212A2D"/>
<path d="M47.988 74.8196L43.6587 74.3364L46.0045 79.8736L51.6053 83.2049L48.6238 75.36C48.5284 75.112 48.2232 74.8577 47.988 74.8323V74.8196Z" fill="#C78501"/>
<path d="M45.5724 74.4123L38.948 70.458C37.6003 69.6697 35.7376 69.7905 33.6905 71.0048C29.571 73.446 26.2271 79.3773 26.2271 84.2598C26.2271 86.7137 27.0726 88.4365 28.4394 89.2248L35.0637 93.1791C36.4115 93.961 38.2678 93.8402 40.3149 92.626C44.4408 90.1848 47.7784 84.2534 47.7784 79.3773C47.7784 76.9234 46.9328 75.2069 45.5724 74.4123Z" fill="#2E373A"/>
<path d="M47.7781 79.3782C47.7781 84.2606 44.4341 90.192 40.3146 92.6268C38.2675 93.8411 36.4112 93.9619 35.0634 93.1799C33.6966 92.3852 32.8511 90.6688 32.8511 88.2085C32.8511 83.3324 36.195 77.3947 40.3146 74.9598C42.368 73.7456 44.2243 73.6248 45.5721 74.4131C46.9325 75.2078 47.7781 76.9243 47.7781 79.3782Z" fill="#B8BFC3"/>
<path d="M47.7972 79.3589C47.7972 84.2541 44.4469 90.2045 40.3083 92.6457C36.176 95.0933 32.8193 93.1098 32.8193 88.2147C32.8193 83.3195 36.1696 77.3691 40.3083 74.9279C44.4405 72.4803 47.7972 74.4638 47.7972 79.3589Z" fill="#555E61"/>
<path d="M46.0742 80.3829C46.0742 84.1528 43.4931 88.7301 40.3081 90.6118C37.1231 92.4936 34.542 90.9678 34.542 87.198C34.542 83.4281 37.1231 78.8508 40.3081 76.969C43.4931 75.0873 46.0742 76.613 46.0742 80.3766V80.3829Z" fill="#3B4447"/>
<path d="M45.2357 80.8774C45.2357 84.1006 43.0297 88.0103 40.3088 89.6251C37.5878 91.2335 35.3818 89.9302 35.3818 86.7071C35.3818 83.4839 37.5878 79.5742 40.3088 77.9594C43.0297 76.351 45.2357 77.6542 45.2357 80.8774Z" fill="#2E373A"/>
<path d="M44.2819 81.1454C44.2819 83.9172 42.3811 87.2866 40.0416 88.6725C37.7021 90.0584 35.8013 88.9331 35.8013 86.1613C35.8013 83.3895 37.7021 80.0202 40.0416 78.6343C42.3811 77.2484 44.2819 78.3736 44.2819 81.1454Z" fill="#EF9F01"/>
<path d="M44.2819 81.1454C44.2819 83.9172 42.3811 87.2866 40.0416 88.6725C37.7021 90.0584 35.8013 88.9331 35.8013 86.1613C35.8013 83.3895 37.7021 80.0202 40.0416 78.6343C42.3811 77.2484 44.2819 78.3736 44.2819 81.1454Z" fill="#EF9F01"/>
<path d="M41.5046 82.3397C41.5046 83.5285 40.6908 84.9716 39.6864 85.5629C38.6819 86.1541 37.8682 85.6773 37.8682 84.4885C37.8682 83.2996 38.6819 81.8565 39.6864 81.2653C40.6908 80.6741 41.5046 81.1509 41.5046 82.3397Z" fill="#AEB5B9"/>
<path d="M41.6945 82.6773C41.6945 83.758 40.957 85.0676 40.0479 85.6017C39.1388 86.142 38.4014 85.7034 38.4014 84.629C38.4014 83.5546 39.1388 82.2386 40.0479 81.7046C40.957 81.1643 41.6945 81.6029 41.6945 82.6773Z" fill="#D4DBDF"/>
<path d="M43.1059 81.9402C43.1059 82.2517 42.8961 82.6268 42.6291 82.7858C42.3685 82.9383 42.1523 82.8175 42.1523 82.506C42.1523 82.1945 42.3621 81.8194 42.6291 81.6605C42.8898 81.5079 43.1059 81.6287 43.1059 81.9402Z" fill="#414E52"/>
<path d="M37.4028 85.0794C37.4028 85.3909 37.193 85.766 36.926 85.9249C36.6654 86.0839 36.4492 85.9567 36.4492 85.6452C36.4492 85.3337 36.659 84.9586 36.926 84.7997C37.1867 84.6471 37.4028 84.7679 37.4028 85.0794Z" fill="#414E52"/>
<path d="M38.8725 86.9749C38.8725 87.2864 38.6628 87.6615 38.3957 87.8204C38.1351 87.973 37.9189 87.8522 37.9189 87.5407C37.9189 87.2292 38.1287 86.8541 38.3957 86.6952C38.6564 86.5426 38.8725 86.6634 38.8725 86.9749Z" fill="#414E52"/>
<path d="M41.2632 85.8558C41.2632 86.1673 41.0534 86.5424 40.7864 86.7013C40.5257 86.8539 40.3096 86.7331 40.3096 86.4216C40.3096 86.1101 40.5194 85.735 40.7864 85.576C41.047 85.4235 41.2632 85.5443 41.2632 85.8558Z" fill="#414E52"/>
<path d="M41.98 79.5877C41.98 79.8992 41.7702 80.2743 41.5032 80.4332C41.2425 80.5858 41.0264 80.465 41.0264 80.1535C41.0264 79.842 41.2362 79.4669 41.5032 79.308C41.7638 79.1554 41.98 79.2762 41.98 79.5877Z" fill="#414E52"/>
<path d="M39.0054 80.846C39.0054 81.1575 38.7956 81.5326 38.5286 81.6915C38.2679 81.8441 38.0518 81.7233 38.0518 81.4118C38.0518 81.1003 38.2615 80.7252 38.5286 80.5663C38.7892 80.4137 39.0054 80.5345 39.0054 80.846Z" fill="#414E52"/>
<path d="M42.9404 78.2842C43.4172 78.8118 43.6905 79.6319 43.6905 80.6872C43.6905 83.459 41.7897 86.8284 39.4502 88.2143C38.3313 88.8755 37.3141 88.9581 36.5576 88.5703C37.3205 89.4286 38.5983 89.5303 40.0414 88.672C42.3809 87.2861 44.2818 83.9168 44.2818 81.145C44.2818 79.7019 43.7605 78.7101 42.934 78.2842H42.9404Z" fill="#FFAA00"/>
<path d="M40.576 74.7803L40.4044 76.9163L40.2136 77.0371L40.042 75.0981C40.1246 75.0409 40.22 74.9901 40.309 74.9392C40.398 74.8883 40.487 74.8375 40.576 74.7866V74.7803Z" fill="#3B4447"/>
<path d="M40.576 92.4873C40.487 92.5445 40.398 92.5954 40.309 92.6526C40.22 92.7035 40.131 92.7543 40.042 92.8052L40.2073 90.6755L40.4044 90.561L40.576 92.4937V92.4873Z" fill="#3B4447"/>
<path d="M34.5485 87.0825V87.3114L32.832 88.5256C32.832 88.4239 32.832 88.3222 32.832 88.2141C32.832 88.1061 32.832 88.0043 32.832 87.8963L34.5485 87.0762V87.0825Z" fill="#3B4447"/>
<path d="M47.798 79.3584C47.798 79.4665 47.798 79.5682 47.798 79.6762L46.0815 80.4963V80.2675L47.798 79.0532C47.798 79.1549 47.798 79.2567 47.798 79.3647V79.3584Z" fill="#3B4447"/>
<path d="M37.5111 79.4783L37.3394 79.6944L36.335 78.62C36.4812 78.423 36.6338 78.2259 36.7927 78.0352L37.5111 79.4719V79.4783Z" fill="#3B4447"/>
<path d="M44.2752 88.9513C44.129 89.1484 43.9764 89.3455 43.8238 89.5362L43.1055 88.0994L43.2708 87.8833L44.2752 88.9513Z" fill="#3B4447"/>
<path d="M35.3692 90.2234L33.9643 92.245C33.8689 92.1242 33.7799 91.9971 33.6973 91.8572L35.2739 90.0835L35.3692 90.2234Z" fill="#3B4447"/>
<path d="M46.9269 75.7227L45.3502 77.5028L45.2549 77.3629L46.6598 75.3413C46.7489 75.4621 46.8379 75.5892 46.9269 75.7291V75.7227Z" fill="#3B4447"/>
<path d="M35.3692 83.2046L35.2739 83.4589L33.6973 83.5479C33.7799 83.3127 33.8689 83.0775 33.9643 82.8486L35.3756 83.211L35.3692 83.2046Z" fill="#3B4447"/>
<path d="M46.921 84.0313C46.8384 84.2665 46.7493 84.5017 46.654 84.7306L45.249 84.3746L45.3444 84.1139L46.9146 84.0249L46.921 84.0313Z" fill="#3B4447"/>
<path d="M37.5111 91.4121L36.7927 93.6944C36.6338 93.6944 36.4812 93.6753 36.335 93.6499L37.3394 91.3931L37.5111 91.4121Z" fill="#3B4447"/>
<path d="M44.2816 73.9298L43.2771 76.1866L43.1055 76.1739L43.8238 73.8853C43.9828 73.8853 44.1354 73.9043 44.2816 73.9298Z" fill="#3B4447"/>
<path d="M32.8257 88.2211C32.8257 88.1194 32.8257 88.0113 32.8321 87.9096L30.2446 86.3774C30.2446 86.5046 30.2383 86.6317 30.2383 86.7589C30.2383 86.8415 30.2383 86.9242 30.2383 87.0068L32.8321 88.5389C32.8321 88.4309 32.8257 88.3291 32.8257 88.2211Z" fill="#212A2D"/>
<path d="M37.1621 69.9629L39.7686 71.5014C39.9403 71.5141 40.1119 71.5332 40.2836 71.5649L37.6389 70.001C37.4863 69.9756 37.3274 69.9629 37.1685 69.9565L37.1621 69.9629Z" fill="#212A2D"/>
<path d="M26.2212 83.9985C26.2212 84.0812 26.2212 84.1702 26.2212 84.2528C26.2212 84.38 26.2212 84.5071 26.2275 84.6343L28.6688 86.0774C28.6688 85.982 28.6688 85.8867 28.6688 85.7849C28.6688 85.6705 28.6688 85.5561 28.6751 85.448L26.2275 83.9985H26.2212Z" fill="#212A2D"/>
<path d="M29.8059 80.4011L27.3329 78.939C27.2439 79.1678 27.1549 79.3967 27.0723 79.6256L29.5389 81.0877C29.6215 80.8589 29.7106 80.63 29.7996 80.4011H29.8059Z" fill="#212A2D"/>
<path d="M29.7109 74.7108L32.203 76.1857C32.3492 75.9886 32.5018 75.7979 32.6544 75.6136L30.1623 74.1387C30.0097 74.3294 29.8572 74.5201 29.7109 74.7172V74.7108Z" fill="#212A2D"/>
<path d="M29.5265 89.3971L27.168 88.0049C27.2633 88.1511 27.365 88.2846 27.4731 88.4118L29.7872 89.7786C29.6982 89.6578 29.6092 89.5306 29.5329 89.3971H29.5265Z" fill="#212A2D"/>
<path d="M36.1257 72.5299C36.2401 72.4663 36.3482 72.4028 36.4626 72.3392L33.9451 70.8516C33.8561 70.8961 33.7735 70.9469 33.6845 70.9978C33.5955 71.0486 33.5065 71.1059 33.4238 71.1631L35.9413 72.6507C36.0049 72.6125 36.0685 72.568 36.132 72.5299H36.1257Z" fill="#212A2D"/>
<path d="M33.9574 82.8548L31.3954 81.3354C31.3001 81.5643 31.2111 81.7932 31.1284 82.022L33.6968 83.5414C33.7794 83.3126 33.8684 83.0837 33.9574 82.8548Z" fill="#212A2D"/>
<path d="M37.7019 73.5032C37.651 73.535 37.6002 73.5668 37.543 73.5986L40.0541 75.0862C40.1368 75.0354 40.2258 74.9781 40.3084 74.9273C40.3974 74.8701 40.4864 74.8256 40.5754 74.7747L38.0706 73.2935C37.9498 73.357 37.8227 73.427 37.6955 73.5032H37.7019Z" fill="#212A2D"/>
<path d="M31.0645 90.3062C31.1407 90.4333 31.217 90.5604 31.306 90.6749L33.9825 92.2578C33.8871 92.1371 33.7981 92.0099 33.7155 91.87L31.0708 90.3062H31.0645Z" fill="#212A2D"/>
<path d="M41.4209 72.479L43.7985 73.884C43.9575 73.884 44.1164 73.903 44.269 73.9285L41.974 72.568C41.796 72.5235 41.6116 72.4981 41.4273 72.479H41.4209Z" fill="#212A2D"/>
<path d="M33.792 77.1264L36.3349 78.633C36.4811 78.436 36.6337 78.2452 36.7863 78.0545L34.2434 76.5542C34.0908 76.7386 33.9382 76.9293 33.7856 77.1264H33.792Z" fill="#212A2D"/>
<path d="M51.5992 83.1983L52.5337 82.2383L49.5585 74.3934C49.3868 73.9357 48.9291 73.5542 48.4968 73.5097L42.8515 72.874C42.4383 72.8295 41.7644 73.0075 41.2876 73.2936L36.1382 76.3387V77.5148L41.2876 74.4697C41.5864 74.2917 42.0886 74.1582 42.3429 74.1899L47.9882 74.8257C48.2234 74.8511 48.5286 75.1118 48.624 75.3533L51.6055 83.1983H51.5992Z" fill="#EF9F01"/>
<path d="M41.2872 73.2936C41.7704 73.0075 42.4379 72.8295 42.8511 72.874L48.4964 73.5098C48.5982 73.5225 48.7062 73.5543 48.8079 73.5988L40.874 68.8371C40.7151 68.7354 40.5498 68.6655 40.3845 68.6464L34.7392 68.0107C34.326 67.9662 33.6521 68.1442 33.1753 68.4303L28.0259 71.4754V72.6515L36.1378 77.5149V76.3388L41.2872 73.2936Z" fill="url(#paint0_linear_1062_22904)"/>
<path d="M36.1378 76.3389L28.0259 71.4756V72.6517L36.1378 77.515V76.3389Z" fill="#DE9403"/>
<path d="M30.251 88.5321L30.3845 82.8486L57.6256 100.096L54.0591 103.44L30.251 88.5321Z" fill="#2E383B"/>
<path d="M114.969 52.7527C115.465 55.4482 116.056 59.3707 115.948 62.8672C115.897 64.4883 115.758 66.0522 115.567 67.4699C115.141 67.508 114.747 67.5716 114.454 67.667C103.234 71.2906 99.7053 84.8826 99.7053 84.8826L97.9253 88.4808L80.0358 99.0658L52.2289 80.6486L46.1958 72.1679L55.1914 66.8469L77.0161 38.3343L77.0034 35.1112L83.8693 31.0488L111.625 47.8703C112.56 48.3471 114.848 52.136 114.963 52.7527H114.969Z" fill="#EF9F01"/>
<path d="M114.957 52.7273C114.798 52.047 112.554 48.3407 111.632 47.8703L83.8757 31.0488L77.0098 35.1112L77.0225 38.3343L75.91 39.7901L72.5915 75.9506L72.4897 88.2583L76.5902 90.5787L85.5858 85.2577C85.5858 85.2577 85.8528 78.4553 86.5394 77.4127C92.9984 67.4826 102.967 60.8837 107.423 57.6542C110.837 55.1812 113.781 53.4139 114.969 52.7209L114.957 52.7273Z" fill="url(#paint1_linear_1062_22904)"/>
<path d="M103.347 53.0711L111.84 48.0107C111.764 47.9471 111.694 47.9026 111.63 47.8645L99.7041 40.6362L103.347 53.0711Z" fill="#FFAA00"/>
<path d="M46.2016 72.8672L38.5283 82.8482L65.7694 100.096L73.1312 87.5017L46.2016 72.8672Z" fill="#DE9403"/>
<path d="M65.7697 100.096L70.4678 92.0544L46.933 77.7759L41.561 84.7689L65.7697 100.096Z" fill="#414E52"/>
<path d="M101.803 21.005C102.414 25.0101 104.658 39.7972 105.084 44.6351C105.573 50.2486 105.484 55.7859 105.484 55.7859C91.5998 65.7096 85.0836 75.4173 84.6068 76.4535C84.2126 77.3117 83.6532 83.6818 83.6532 83.6818C83.6532 83.6818 73.8439 90.0582 70.3537 87.7632L43.6021 71.8826C43.316 71.6728 43.0744 71.3994 42.8901 71.0561C40.5315 66.6124 43.9327 53.2811 44.9435 48.1825C45.9543 43.0839 52.0891 22.2256 55.4585 17.8327C56.5138 16.4595 58.8088 14.5841 61.4789 12.804C64.1108 11.0558 71.5044 6.27508 74.1045 4.73026C74.6131 4.43146 75.5222 4.49504 75.9163 4.73026L100.818 19.5047C101.276 19.8035 101.695 20.2803 101.803 21.005Z" fill="#FFAA00"/>
<path d="M105.084 44.6339C104.664 39.796 102.42 25.0089 101.803 21.0038C101.752 20.6541 101.619 20.3617 101.454 20.1138C100.055 20.9974 91.2438 26.5537 88.1415 28.6199C85.4714 30.3999 83.17 32.2753 82.1211 33.6485C78.7517 38.0414 72.6169 58.8998 71.6061 63.9983C70.5953 69.0969 67.1941 82.4282 69.5527 86.8719C69.6735 87.1008 69.8324 87.3297 70.0168 87.5585L70.3537 87.762C73.8439 90.057 83.6532 83.6806 83.6532 83.6806C83.6532 83.6806 84.2126 77.3042 84.6068 76.4523C85.0836 75.4161 91.5935 65.7084 105.484 55.7847C105.484 55.7847 105.58 50.2474 105.084 44.6339ZM99.7817 28.4546L99.2286 25.6256L101.53 24.2651C101.759 24.1316 101.956 24.138 102.083 24.2651C101.988 24.2651 101.873 24.2905 101.759 24.3605L99.4575 25.7209L100.011 28.5499L99.7817 28.4609V28.4546ZM103.463 47.4502L101.46 48.639L101.371 52.3772L101.129 52.1928L101.238 48.55L103.24 47.3676C103.469 47.2341 103.666 47.2468 103.793 47.3676C103.698 47.3676 103.583 47.393 103.469 47.4629L103.463 47.4502Z" fill="#EF9F01"/>
<path d="M61.4789 12.8042C58.8088 14.5779 56.5075 16.4597 55.4585 17.8328C52.0828 22.2257 45.9543 43.0841 44.9435 48.1827C43.9327 53.2812 40.5315 66.6125 42.8901 71.0563C43.0744 71.4059 43.316 71.6793 43.6021 71.8827L70.3537 87.7633L70.0167 87.5599C69.8324 87.3247 69.6735 87.0958 69.5527 86.8733C67.1941 82.4295 70.5953 69.0982 71.6061 63.9997C72.6169 58.9011 78.7517 38.0427 82.1211 33.6498C83.1764 32.2767 85.4714 30.4012 88.1415 28.6212L61.4789 12.8042Z" fill="url(#paint2_linear_1062_22904)"/>
<path d="M105.083 44.6354C104.753 40.8782 103.329 31.1324 102.42 25.0803C102.375 25.2519 102.305 25.4236 102.203 25.5761L100.709 27.6041C101.421 32.7154 102.261 39.4605 102.337 43.2241C102.369 44.7689 102.331 46.3836 102.248 47.9475L103.233 47.369C103.462 47.2355 103.659 47.2482 103.786 47.369C104.009 47.3754 104.168 47.5597 104.168 47.8776C104.168 48.1383 104.066 48.4307 103.907 48.6786L102.013 51.3551C101.708 54.9469 101.301 57.6679 101.301 57.6679C89.8575 66.7016 84.3393 74.9407 83.7481 76.2185C83.6082 76.5237 83.2713 77.2802 82.7564 82.4106C82.7182 82.792 82.483 83.1544 82.2859 83.2688C77.4035 86.1423 71.8027 88.2466 70.4931 85.7799C68.6304 82.277 70.8682 71.8892 72.0697 66.3011C72.2859 65.3094 72.4702 64.4448 72.6101 63.7264C73.7608 57.9285 79.7875 38.1382 82.6483 34.4128C83.3158 33.5419 85.1276 31.8826 88.1919 29.8419C90.5822 28.2526 96.4627 24.4573 99.6096 22.5373C99.8448 22.3911 99.9529 22.442 99.9847 22.6581C100.08 23.3002 100.201 24.0885 100.328 24.9849L101.517 24.2792C101.746 24.1457 101.943 24.1521 102.07 24.2792C102.159 24.2792 102.235 24.311 102.292 24.3683C102.083 22.9569 101.905 21.7872 101.784 21.0243C101.733 20.6746 101.599 20.3822 101.434 20.1343C100.036 21.0179 91.2243 26.5742 88.1219 28.6404C85.4519 30.4204 83.1505 32.2958 82.1016 33.669C78.7322 38.0619 72.5974 58.9203 71.5866 64.0188C70.5757 69.1174 67.1746 82.4487 69.5331 86.8925C69.6539 87.1213 69.8129 87.3502 69.9972 87.579L70.3342 87.7825C73.8243 90.0775 83.6337 83.7011 83.6337 83.7011C83.6337 83.7011 84.1931 77.3247 84.5873 76.4728C85.0641 75.4366 91.574 65.729 105.465 55.8052C105.465 55.8052 105.56 50.268 105.064 44.6544L105.083 44.6354Z" fill="#495255"/>
<path d="M74.2632 65.9832L100.621 48.6468C100.621 48.6468 100.824 44.9214 100.621 42.2958C100.417 39.6639 98.6371 27.2417 98.6371 27.2417C98.6371 27.2417 86.2404 35.0612 85.1787 35.8114C84.117 36.5615 82.8456 37.5406 81.0401 42.3467C79.082 47.5724 75.2104 59.6004 74.2568 65.9832H74.2632Z" fill="#141C1E"/>
<path d="M75.1025 64.6862C76.3486 58.0174 79.8642 47.2417 81.6188 42.5691C83.3925 37.8392 84.6322 36.9619 85.5349 36.3262C86.4122 35.7032 95.4269 30.007 98.1732 28.2715C98.5928 31.2149 99.8516 40.1787 100.017 42.3402C100.182 44.4572 100.074 47.3371 100.03 48.2907L75.1025 64.6862Z" fill="#303E42"/>
<path d="M90.7417 60.8838C90.2331 58.7414 88.5865 58.4744 83.8376 62.1807C79.0823 65.8806 74.6767 70.3117 73.2018 73.0835C72.5407 74.3295 72.2609 76.3384 71.9367 78.4618C71.5426 81.0556 71.3073 83.6112 72.5852 83.8846C75.4904 84.5076 80.6526 81.4561 80.6526 81.4561C80.6526 81.4561 81.3201 75.3975 83.6532 72.079C87.1116 67.1585 91.441 63.8527 90.7417 60.8838Z" fill="#141C1E"/>
<path d="M73.4494 83.3437C73.1824 83.3437 72.9345 83.3182 72.712 83.2737C72.3178 83.1911 71.9682 82.3011 72.5403 78.563L72.5976 78.2069C72.89 76.2807 73.1697 74.4625 73.7419 73.3817C75.1214 70.7816 79.33 66.4777 84.206 62.676C86.5328 60.8642 88.192 59.9487 89.1584 59.9487C89.5144 59.9487 89.9149 60.0314 90.1501 61.0295C90.5506 62.7269 88.8087 64.7803 86.5964 67.3868C85.5156 68.6646 84.2823 70.1077 83.1571 71.7098C81.0464 74.7168 80.2581 79.7327 80.0865 81.0614C79.1329 81.589 75.8016 83.3437 73.4494 83.3437Z" fill="#303E42"/>
<path d="M55.6804 21.876C52.2602 29.1742 47.6893 44.9403 46.8247 49.2824C46.6657 50.0834 46.4496 51.0815 46.2017 52.2194L68.9227 65.6588C69.1834 64.4509 69.4122 63.3893 69.5775 62.5501C70.4294 58.2398 74.9494 42.6644 78.3633 35.2963L55.6804 21.876Z" fill="#141C1E"/>
<path d="M46.8945 51.9012C47.1043 50.9349 47.2823 50.1021 47.4222 49.4028C48.2677 45.1434 52.578 30.2482 55.9473 22.7593L77.5749 35.5566C74.1801 43.1472 69.8254 58.1759 68.9798 62.4289C68.8527 63.0647 68.6938 63.8212 68.5031 64.6921L46.8945 51.9076V51.9012Z" fill="#303E42"/>
<path opacity="0.7" d="M47.4222 49.4033C47.365 49.6894 47.3014 50.0009 47.2314 50.3251L73.4236 33.0968L55.9473 22.7534C52.5779 30.2487 48.2677 45.1375 47.4222 49.3969V49.4033Z" fill="#C5D0D3"/>
<path opacity="0.7" d="M53.8563 53.0397H53.8436C53.8436 53.0397 53.8436 53.0397 53.8563 53.0397L57.3528 52.3277L60.0229 51.3868L60.7031 46.1993L63.7801 44.2539C63.0299 42.9316 61.2372 43.1923 57.1748 46.3582C54.2759 48.6214 51.5041 51.1516 49.4443 53.4085L56.2785 57.4517C56.501 57.0258 56.7362 56.6253 56.9968 56.2565C57.2702 55.8687 57.5563 55.4873 57.836 55.1122C56.0877 54.1777 54.028 53.0906 53.8627 53.0397H53.8563Z" fill="#C5D0D3"/>
<path d="M68.9798 62.4293C69.1388 61.641 69.4121 60.4839 69.7809 59.0726L49.946 47.5913L46.8945 51.9079L68.503 64.6925C68.6874 63.8215 68.8527 63.065 68.9798 62.4293Z" fill="#39464A"/>
<path opacity="0.2" d="M55.9473 22.7598C52.578 30.255 48.2677 45.1439 47.4222 49.4033C47.2823 50.1026 47.1043 50.9354 46.8945 51.9017L50.2766 53.9043C53.9194 48.4306 61.5036 37.8393 69.8762 30.9989L55.9473 22.7534V22.7598Z" fill="white"/>
<path d="M74.1998 68.3978C74.2253 68.8428 74.5622 68.9954 74.95 68.7347L77.8426 66.8084C78.2304 66.5542 78.5292 65.9756 78.5037 65.5306L78.4529 64.6088C78.4274 64.1638 78.0905 64.0112 77.7027 64.2655L74.8101 66.1854C74.4223 66.4461 74.1235 67.0182 74.149 67.4633L74.1998 68.3851V68.3978Z" fill="#565F62"/>
<path style="mix-blend-mode:multiply" opacity="0.5" d="M74.5877 68.6084C74.4987 68.6084 74.4479 68.5321 74.4415 68.3796L74.3907 67.4578C74.3716 67.1081 74.6259 66.6122 74.9374 66.4088L77.83 64.4889C77.9126 64.4317 77.9889 64.4062 78.0525 64.4062C78.1415 64.4062 78.1923 64.4825 78.1987 64.6351L78.2495 65.5569C78.2686 65.9066 78.0143 66.4024 77.7028 66.6059L74.8102 68.5258C74.7276 68.583 74.6513 68.6084 74.5877 68.6084Z" fill="url(#paint3_linear_1062_22904)"/>
<path d="M103.227 48.519C103.227 48.6907 103.335 48.7669 103.468 48.6843C103.602 48.608 103.71 48.3982 103.71 48.2266C103.71 48.0549 103.602 47.9786 103.468 48.0613C103.335 48.1376 103.227 48.341 103.227 48.519Z" fill="#636C6F"/>
<path d="M101.688 25.1562C101.688 25.3279 101.797 25.4041 101.93 25.3215C102.064 25.2389 102.172 25.0354 102.172 24.8638C102.172 24.6921 102.064 24.6158 101.93 24.6985C101.797 24.7811 101.688 24.9846 101.688 25.1562Z" fill="#636C6F"/>
<path d="M103.145 56.1671L104.728 55.2325V50.6616L103.145 51.5961V56.1671Z" fill="#3D4649"/>
<path d="M103.348 52.002L104.537 51.3027V51.0293L103.348 51.7286V52.002Z" fill="#172023"/>
<path d="M103.348 52.4473L104.537 51.748V51.4746L103.348 52.1803V52.4473Z" fill="#172023"/>
<path d="M103.348 52.8989L104.537 52.1933V51.9199L103.348 52.6256V52.8989Z" fill="#172023"/>
<path d="M103.348 53.3438L104.537 52.6381V52.3711L103.348 53.0704V53.3438Z" fill="#172023"/>
<path d="M103.348 53.7891L104.537 53.0898V52.8164L103.348 53.5221V53.7891Z" fill="#172023"/>
<path d="M103.348 54.2407L104.537 53.5351V53.2617L103.348 53.9674V54.2407Z" fill="#172023"/>
<path d="M103.348 54.6856L104.537 53.9799V53.7129L103.348 54.4122V54.6856Z" fill="#172023"/>
<path d="M103.348 55.1309L104.537 54.4316V54.1582L103.348 54.8575V55.1309Z" fill="#172023"/>
<path d="M103.348 55.5762L104.537 54.8769V54.6035L103.348 55.3092V55.5762Z" fill="#172023"/>
<path d="M69.6539 71.7872C69.1517 73.777 68.7829 75.5062 68.5477 78.0809C67.912 78.17 64.816 78.081 64.1548 78.1382C63.1059 78.2208 63.6208 76.3136 63.7289 75.5444C63.8433 74.7751 69.781 71.0815 69.781 71.0815C69.7365 71.1388 69.6666 71.7173 69.6539 71.7872Z" fill="#2E383B"/>
<path d="M63.7287 75.5431C63.8432 74.7738 69.7809 71.0802 69.7809 71.0802L67.5749 69.6943C67.5749 69.6943 61.6372 73.3879 61.5291 74.1572C61.4274 74.831 61.0269 76.3759 61.6308 76.6937L63.7669 78.0351C63.271 77.6283 63.6397 76.1852 63.7351 75.5431H63.7287Z" fill="url(#paint4_linear_1062_22904)"/>
<path d="M58.8403 80.2033L61.0463 81.5892V78.2389L58.8403 76.853V80.2033Z" fill="#151F22"/>
<path d="M61.0463 78.2392L63.5066 76.7834L61.307 75.3911L58.8403 76.8533L61.0463 78.2392Z" fill="#5B686C"/>
<path d="M61.0464 81.5903L63.5067 80.1345V76.7842L61.0464 78.24V81.5903Z" fill="#2E383B"/>
<path d="M60.9121 79.7586C60.9121 80.3943 60.4798 80.6486 59.9395 80.3308C59.4055 80.0129 58.9668 79.2437 58.9668 78.6079C58.9668 77.9722 59.3991 77.7179 59.9395 78.0358C60.4735 78.3536 60.9121 79.1229 60.9121 79.7586Z" fill="#D4DBDF"/>
<path d="M45.6489 58.3092C45.1466 60.299 44.7779 62.0282 44.5427 64.6029C43.907 64.6919 40.8046 64.6029 40.1498 64.6601C39.1008 64.7428 39.6094 62.8356 39.7238 62.0663C39.8383 61.2971 45.776 57.6035 45.776 57.6035C45.7315 57.6607 45.6616 58.2392 45.6489 58.3092Z" fill="#2E383B"/>
<path d="M39.7303 62.0665C39.8447 61.2973 45.7824 57.6037 45.7824 57.6037L43.5765 56.2178C43.5765 56.2178 37.6387 59.9114 37.5243 60.6806C37.4289 61.3545 37.0221 62.8993 37.626 63.2172L39.7621 64.5586C39.2662 64.1517 39.6349 62.7149 39.7303 62.0665Z" fill="url(#paint5_linear_1062_22904)"/>
<path d="M34.8408 66.7268L37.0405 68.1127V64.7687L34.8408 63.3765V66.7268Z" fill="#151F22"/>
<path d="M37.0405 64.7685L39.5071 63.3063L37.3011 61.9204L34.8408 63.3762L37.0405 64.7685Z" fill="#5B686C"/>
<path d="M37.0405 68.1123L39.5072 66.6565V63.3062L37.0405 64.7683V68.1123Z" fill="#2E383B"/>
<path d="M36.9141 66.282C36.9141 66.9178 36.4818 67.1721 35.9414 66.8542C35.4074 66.5363 34.9688 65.7671 34.9688 65.1314C34.9688 64.4956 35.401 64.2413 35.9414 64.5592C36.4754 64.8771 36.9141 65.6463 36.9141 66.282Z" fill="#D4DBDF"/>
<path d="M35.2227 82.0974L37.7147 80.6288L39.3994 78.4737L44.2183 75.6256V74.2525L41.8216 73.9219L39.3994 75.3586L37.7084 74.1825L35.2227 75.6574V82.0974Z" fill="#2E383B"/>
<path d="M37.7083 74.1837L39.3993 75.3598L41.8214 73.923L44.2182 74.2536L43.646 73.8276L41.2493 73.4971L38.8271 74.9275L37.1425 73.7577L34.6504 75.2326V81.6726L35.2226 82.0985V75.6586L37.7083 74.1837Z" fill="#758286"/>
<path d="M34.6504 76.5996V83.0396L35.2226 83.4719V77.0256L34.6504 76.5996Z" fill="#414E52"/>
<path d="M32.5021 4.12572C33.4684 3.43913 36.5263 1.27129 37.6515 0.603771C38.3254 0.20326 38.8785 0.527483 38.8785 1.32851C38.8785 1.77352 38.7068 2.25667 38.4462 2.68897C36.7488 5.51162 34.9496 8.86193 32.7691 10.1525C32.0316 10.5911 31.4595 10.216 31.4595 9.37051V5.96935C31.504 5.42262 31.9935 4.49445 32.4957 4.13208L32.5021 4.12572Z" fill="#2E383B"/>
<path d="M58.4402 13.6175L38.3193 1.18255C38.2239 1.12533 38.0841 1.13169 37.9378 1.22069C37.639 1.39869 37.3975 1.82463 37.3975 2.18064C37.3975 2.35865 37.461 2.4858 37.5564 2.54301L57.6709 14.9716C57.7663 15.0288 57.9062 15.0161 58.0524 14.9334C58.3512 14.7554 58.5928 14.3295 58.5928 13.9735C58.5928 13.7955 58.5355 13.6683 58.4338 13.6175H58.4402Z" fill="url(#paint6_linear_1062_22904)"/>
<path d="M31.4657 9.35797V5.9568C31.5102 5.41007 31.9997 4.48191 32.502 4.11954C33.4683 3.43295 36.5261 1.2651 37.6514 0.597586C37.982 0.400509 38.2871 0.381437 38.5096 0.508584L38.001 0.120787C37.7785 -0.0508602 37.4479 -0.0445029 37.0792 0.171646C35.954 0.839164 32.8898 3.00701 31.9298 3.6936C31.4276 4.05597 30.9381 4.97778 30.8936 5.53086V8.93203C30.8936 9.32618 31.0143 9.61226 31.2178 9.76483L31.7582 10.1653C31.5738 10.0064 31.4657 9.72669 31.4657 9.35797Z" fill="url(#paint7_linear_1062_22904)"/>
<path d="M32.9156 5.44182L38.3575 2.21866L35.7446 0.673828L30.2964 3.89063L32.9156 5.44182Z" fill="#758286"/>
<path d="M32.915 94.6292L38.3569 91.406V2.21924L32.915 5.4424V94.6292Z" fill="#2E383B"/>
<path d="M32.9156 94.6286V5.44181L30.2964 3.89062V93.0774L32.9156 94.6286Z" fill="#414E52"/>
<path d="M51.5352 71.7615V73.3445L36.4238 64.457V62.874L51.5352 71.7615Z" fill="#414E52"/>
<path d="M51.9611 71.5506L51.5352 71.7604L36.4238 62.8729L36.8561 62.6631L51.9611 71.5506Z" fill="#758286"/>
<path d="M51.5352 51.0355V52.6184L36.4238 43.7373V42.1479L51.5352 51.0355Z" fill="#414E52"/>
<path d="M51.9611 50.8275L51.5352 51.0373L36.4238 42.1497L36.8561 41.9399L51.9611 50.8275Z" fill="#758286"/>
<path d="M44.3009 27.9141L44.9429 27.539L42.3237 25.9878L41.6816 26.3692L44.3009 27.9141Z" fill="#758286"/>
<path d="M44.3009 94.5841V27.9149L41.6816 26.3701V93.0329L44.3009 94.5841Z" fill="#414E52"/>
<path d="M44.9429 27.5405L44.3008 27.9156V94.5848L44.9429 94.2033V27.5405Z" fill="#2E383B"/>
<path d="M51.9239 98.8114L48.6626 100.534L33.5513 91.6467L36.8126 89.9238L51.9239 98.8114Z" fill="#687579"/>
<path d="M46.9902 100.534V102.123L31.8789 93.2358V91.6465L46.9902 100.534Z" fill="#414E52"/>
<path d="M48.0901 99.8865L46.9902 100.535L31.8789 91.6475L32.9787 90.999L48.0901 99.8865Z" fill="#758286"/>
<path d="M48.0896 101.469L46.9897 102.124V100.535L48.0896 99.8862V101.469Z" fill="#2E383B"/>
<path d="M51.9239 89.5936L48.6626 91.3101L33.5513 82.4289L36.8126 80.6997L51.9239 89.5936Z" fill="#687579"/>
<path d="M46.9902 91.3109V92.9002L31.8789 84.0127V82.4297L46.9902 91.3109Z" fill="#414E52"/>
<path d="M48.0901 90.661L46.9902 91.3094L31.8789 82.4282L32.9787 81.7734L48.0901 90.661Z" fill="#758286"/>
<path d="M48.0896 92.25L46.9897 92.8984V91.3091L48.0896 90.6606V92.25Z" fill="#2E383B"/>
<path d="M47.2638 89.8485L48.2874 89.2446L44.6065 87.0513L43.6147 87.6298L47.2638 89.8485Z" fill="#758286"/>
<path d="M47.2639 89.8608L43.6212 87.6357V101.317C43.6212 101.52 43.5131 101.717 43.3351 101.825L27.0413 112.194L17.7278 117.909C17.4735 118.106 17.5053 118.221 17.7278 118.354L19.8194 119.626C20.0037 119.734 20.3089 119.81 20.614 119.645L30.1246 114.025L46.9778 104.05C47.1558 103.942 47.2639 103.745 47.2639 103.542V89.8608Z" fill="url(#paint8_linear_1062_22904)"/>
<path d="M48.2869 89.2568L47.2634 89.8608V103.542C47.2634 103.745 47.1553 103.942 46.9773 104.05L30.1241 114.025L20.6135 119.645C20.3084 119.816 20.0032 119.74 19.8189 119.626L17.7273 118.354C17.6129 118.284 17.5493 118.221 17.5493 118.144V118.405C17.5493 118.481 17.6129 118.545 17.7273 118.615L19.8189 119.886C20.0032 119.994 20.3084 120.071 20.6135 119.899L30.1241 115.017L47.416 104.82C47.8991 104.533 48.2869 103.841 48.2869 103.275V89.2441V89.2568Z" fill="#2E383B"/>
<path d="M33.7546 81.7992L34.7781 81.1952L31.0972 79.002L30.1055 79.5805L33.7546 81.7992Z" fill="#758286"/>
<path d="M33.7541 81.8056L30.1114 79.5806V93.2615C30.1114 93.4649 30.0097 93.662 29.8253 93.7701L13.5315 104.139L4.21806 109.854C3.96377 110.051 3.99555 110.166 4.21806 110.299L6.30962 111.571C6.49398 111.679 6.79913 111.761 7.10428 111.583L16.6148 105.963L33.4681 95.9888C33.6461 95.8807 33.7541 95.6836 33.7541 95.4802V81.7993V81.8056Z" fill="url(#paint9_linear_1062_22904)"/>
<path d="M34.7777 81.2021L33.7541 81.8061V95.487C33.7541 95.6905 33.6461 95.8875 33.4681 95.9956L16.6148 105.97L7.10427 111.59C6.79911 111.762 6.49396 111.685 6.3096 111.577L4.21804 110.306C4.10361 110.236 4.04004 110.172 4.04004 110.096V110.357C4.04004 110.433 4.10361 110.497 4.21804 110.567L6.3096 111.838C6.49396 111.946 6.79911 112.029 7.10427 111.857L16.6148 106.975L33.9067 96.7776C34.3899 96.4915 34.7777 95.7985 34.7777 95.2327V81.2021Z" fill="#2E383B"/>
<path d="M50.7027 15.8612L56.1446 12.6444L53.5317 11.0933L48.0898 14.3164L50.7027 15.8612Z" fill="#758286"/>
<path d="M50.7031 105.048L56.145 101.825V12.6445L50.7031 15.8613V105.048Z" fill="#2E383B"/>
<path d="M50.7027 105.048V15.8607L48.0898 14.3159V103.496L50.7027 105.048Z" fill="#414E52"/>
<path d="M52.6357 93.0075L55.1278 91.5326L56.8125 89.3839L61.6313 86.5358V85.1626L59.2346 84.832L56.8125 86.2624L55.1278 85.0927L52.6357 86.5676V93.0075Z" fill="#2E383B"/>
<path d="M55.1277 85.0929L56.8124 86.2626L59.2345 84.8322L61.6312 85.1628L61.0591 84.7305L58.6687 84.3999L56.2402 85.8367L54.5555 84.6669L52.0635 86.1355V92.5818L52.6356 93.0077V86.5677L55.1277 85.0929Z" fill="#758286"/>
<path d="M52.0635 86.1357V92.5821L52.6356 93.008V86.568L52.0635 86.1357Z" fill="#414E52"/>
<path d="M54.4474 70.1666L52.4067 71.3745V64.2225L54.4474 63.0146V70.1666Z" fill="#D4DBDF"/>
<path d="M53.1564 16.3386C54.1227 15.652 57.1805 13.4778 58.3058 12.8103C58.9797 12.4098 59.5328 12.734 59.5328 13.535C59.5328 13.9737 59.3611 14.4632 59.1005 14.8955C57.4031 17.7182 55.6039 21.0685 53.4234 22.359C52.6859 22.7977 52.1138 22.4226 52.1138 21.5771V18.1759C52.1583 17.6292 52.6478 16.701 53.15 16.3386H53.1564Z" fill="#2E383B"/>
<path d="M80.0423 99.0592L97.9318 88.4742L99.7119 84.876L79.1841 96.9485L80.0423 99.0592Z" fill="#DE9403"/>
<path d="M103.373 74.7422L85.541 85.2953L85.6109 85.4225L103.367 74.9138L104.289 75.4606C104.314 75.4224 104.346 75.3843 104.378 75.3398L103.367 74.7422H103.373Z" fill="#C78501"/>
<path d="M111.257 58.6655C111.066 58.3858 110.589 58.3413 109.776 58.6337C110.004 58.6464 110.163 58.7291 110.252 58.8626C110.443 59.1423 110.621 63.6178 105.039 69.2758C99.4576 74.9402 90.0996 80.6173 90.0996 80.6173C90.0996 80.6173 100.462 74.7431 106.044 69.0851C111.625 63.4271 111.447 58.9516 111.257 58.6718V58.6655Z" fill="#FFAA00"/>
<path d="M104.352 62.4797C107.734 59.7779 109.832 58.6399 110.926 58.4683C110.067 58.2712 107.855 59.2629 103.831 62.4797C99.1073 66.256 91.167 75.0164 91.167 75.0164C91.167 75.0164 99.6222 66.256 104.346 62.4797H104.352Z" fill="#DE9403"/>
<path d="M104.918 62.0665C105.98 61.2655 106.927 60.6107 107.753 60.1275C109.483 59.104 110.176 59.0913 110.354 59.193C110.385 59.6889 110.392 63.3125 105.554 68.214C104.581 69.1994 103.45 70.1975 102.248 71.1765L104.918 62.0665Z" fill="#FFAA00"/>
<path d="M105.172 62.2833C106.234 61.4823 107.181 60.8275 108.007 60.3443C109.737 59.3208 110.43 59.3081 110.608 59.4098C110.639 59.9056 110.646 63.5293 105.808 68.4308C104.835 69.4162 103.703 70.4207 102.502 71.3933L105.172 62.2833Z" fill="#EF9F01"/>
<path d="M109.876 61.8121C109.915 61.6913 109.953 61.5705 109.985 61.4561L104.835 64.5012L104.733 64.8572L109.876 61.8121Z" fill="#C78501"/>
<path d="M109.101 63.6115C109.177 63.4716 109.247 63.3318 109.31 63.1919L104.358 66.1226L104.256 66.4786L109.101 63.6115Z" fill="#C78501"/>
<path d="M105.211 63.2301L110.227 60.2612C110.24 60.1404 110.246 60.0387 110.252 59.9561L105.313 62.8804L105.211 63.2364V63.2301Z" fill="#C78501"/>
<path d="M110.099 61.0117C110.124 60.8909 110.149 60.7829 110.169 60.6812L105.076 63.6945L104.975 64.0505L110.105 61.0181L110.099 61.0117Z" fill="#C78501"/>
<path d="M109.553 62.6759C109.61 62.5424 109.661 62.4152 109.712 62.2881L104.607 65.3078L104.505 65.6638L109.559 62.6759H109.553Z" fill="#C78501"/>
<path d="M106.66 67.0688C106.838 66.8717 107.004 66.6746 107.163 66.4775L103.653 68.5564L103.552 68.9124L106.66 67.0688Z" fill="#C78501"/>
<path d="M105.173 68.6212C105.351 68.4496 105.522 68.2779 105.688 68.1126C105.758 68.0427 105.821 67.9728 105.891 67.9028L103.412 69.3714L103.31 69.7274L105.173 68.6276V68.6212Z" fill="#C78501"/>
<path d="M107.716 65.7723C107.843 65.6006 107.97 65.429 108.085 65.2573L103.889 67.743L103.787 68.099L107.716 65.7723Z" fill="#C78501"/>
<path d="M108.503 64.6413C108.605 64.4824 108.7 64.3298 108.783 64.1836L104.123 66.9427L104.021 67.2987L108.503 64.6477V64.6413Z" fill="#C78501"/>
<path d="M75.5725 91.5334L71.2432 91.0503L73.589 96.5875L79.1898 99.9187L76.2082 92.0738C76.1129 91.8259 75.8077 91.5716 75.5725 91.5462V91.5334Z" fill="#C78501"/>
<path d="M73.4684 91.4748L66.844 87.5205C65.4963 86.7322 63.6336 86.853 61.5865 88.0673C57.4606 90.5085 54.123 96.4399 54.123 101.322C54.123 103.776 54.9686 105.499 56.3354 106.287L62.9597 110.242C64.3075 111.024 66.1638 110.903 68.2109 109.688C72.3368 107.247 75.6744 101.316 75.6744 96.4335C75.6744 93.9859 74.8352 92.2631 73.4684 91.4684V91.4748Z" fill="#2E373A"/>
<path d="M75.6682 96.4402C75.6682 101.323 72.3242 107.254 68.2047 109.695C66.1576 110.909 64.3013 111.03 62.9536 110.248C61.5867 109.454 60.7412 107.737 60.7412 105.277C60.7412 100.401 64.0852 94.4631 68.2047 92.0282C70.2581 90.814 72.1145 90.6932 73.4622 91.4815C74.8227 92.2761 75.6682 93.9926 75.6682 96.4465V96.4402Z" fill="#B8BFC3"/>
<path d="M75.6932 96.4273C75.6932 101.322 72.3429 107.273 68.2043 109.714C64.072 112.162 60.7153 110.178 60.7153 105.283C60.7153 100.388 64.0656 94.4438 68.2043 91.9962C72.3365 89.5487 75.6932 91.5322 75.6932 96.4273Z" fill="#555E61"/>
<path d="M73.9706 97.4454C73.9706 101.215 71.3896 105.793 68.2046 107.674C65.0195 109.556 62.4385 108.03 62.4385 104.26C62.4385 100.491 65.0195 95.9133 68.2046 94.0315C71.3896 92.1498 73.9706 93.6755 73.9706 97.4391V97.4454Z" fill="#3B4447"/>
<path d="M73.1312 97.9399C73.1312 101.157 70.9252 105.073 68.2043 106.688C65.4833 108.296 63.2773 106.993 63.2773 103.77C63.2773 100.546 65.4833 96.6367 68.2043 95.0219C70.9252 93.4135 73.1312 94.7167 73.1312 97.9399Z" fill="#2E373A"/>
<path d="M72.1779 98.2152C72.1779 100.987 70.2771 104.356 67.9376 105.742C65.5981 107.128 63.6973 106.003 63.6973 103.231C63.6973 100.459 65.5981 97.09 67.9376 95.7041C70.2771 94.3182 72.1779 95.4435 72.1779 98.2152Z" fill="#EF9F01"/>
<path d="M72.1779 98.2152C72.1779 100.987 70.2771 104.356 67.9376 105.742C65.5981 107.128 63.6973 106.003 63.6973 103.231C63.6973 100.459 65.5981 97.09 67.9376 95.7041C70.2771 94.3182 72.1779 95.4435 72.1779 98.2152Z" fill="#EF9F01"/>
<path d="M69.3991 99.4022C69.3991 100.591 68.5853 102.034 67.5809 102.625C66.5764 103.217 65.769 102.74 65.769 101.551C65.769 100.362 66.5828 98.919 67.5809 98.3278C68.5853 97.7366 69.3991 98.2134 69.3991 99.4022Z" fill="#AEB5B9"/>
<path d="M69.59 99.7471C69.59 100.822 68.8525 102.137 67.9434 102.671C67.0343 103.212 66.2969 102.773 66.2969 101.699C66.2969 100.624 67.0343 99.3085 67.9434 98.7745C68.8525 98.2341 69.59 98.6727 69.59 99.7471Z" fill="#D4DBDF"/>
<path d="M71.0014 99.0027C71.0014 99.3142 70.7917 99.6893 70.5247 99.8483C70.264 100.001 70.0479 99.88 70.0479 99.5685C70.0479 99.257 70.2576 98.8819 70.5247 98.723C70.7853 98.5704 71.0014 98.6912 71.0014 99.0027Z" fill="#414E52"/>
<path d="M65.2993 102.149C65.2993 102.461 65.0895 102.836 64.8225 102.995C64.5619 103.147 64.3457 103.027 64.3457 102.715C64.3457 102.404 64.5555 102.028 64.8225 101.87C65.0832 101.717 65.2993 101.838 65.2993 102.149Z" fill="#414E52"/>
<path d="M66.7681 104.045C66.7681 104.356 66.5583 104.731 66.2913 104.89C66.0306 105.049 65.8145 104.922 65.8145 104.611C65.8145 104.299 66.0242 103.924 66.2913 103.765C66.5519 103.612 66.7681 103.733 66.7681 104.045Z" fill="#414E52"/>
<path d="M69.1577 102.918C69.1577 103.23 68.9479 103.605 68.6809 103.764C68.4203 103.916 68.2041 103.796 68.2041 103.484C68.2041 103.173 68.4139 102.797 68.6809 102.639C68.9416 102.486 69.1577 102.607 69.1577 102.918Z" fill="#414E52"/>
<path d="M69.8764 96.6502C69.8764 96.9617 69.6667 97.3368 69.3997 97.4957C69.139 97.6483 68.9229 97.5275 68.9229 97.216C68.9229 96.9045 69.139 96.5294 69.3997 96.3705C69.6603 96.2179 69.8764 96.3387 69.8764 96.6502Z" fill="#414E52"/>
<path d="M66.9014 97.9085C66.9014 98.22 66.6916 98.5951 66.4246 98.754C66.1639 98.9066 65.9478 98.7858 65.9478 98.4743C65.9478 98.1628 66.1575 97.7877 66.4246 97.6288C66.6852 97.4762 66.9014 97.597 66.9014 97.9085Z" fill="#414E52"/>
<path d="M70.8364 95.3467C71.3132 95.8743 71.5865 96.6944 71.5865 97.7497C71.5865 100.522 69.6857 103.891 67.3462 105.277C66.2273 105.938 65.2101 106.021 64.4536 105.633C65.2165 106.491 66.4943 106.593 67.9438 105.735C70.2833 104.349 72.1841 100.979 72.1841 98.2075C72.1841 96.7644 71.6628 95.7726 70.8364 95.3467Z" fill="#FFAA00"/>
<path d="M68.4715 91.8442L68.2999 93.9803L68.1091 94.1011L67.9375 92.1621C68.0265 92.1049 68.1091 92.054 68.2045 92.0032C68.2935 91.9523 68.3825 91.9015 68.4715 91.8506V91.8442Z" fill="#3B4447"/>
<path d="M68.4715 109.55C68.3825 109.607 68.2935 109.664 68.2045 109.715C68.1155 109.766 68.0265 109.817 67.9375 109.868L68.1028 107.738L68.2999 107.624L68.4715 109.556V109.55Z" fill="#3B4447"/>
<path d="M62.445 104.151V104.38L60.7285 105.594C60.7285 105.492 60.7285 105.391 60.7285 105.282C60.7285 105.174 60.7285 105.073 60.7285 104.965L62.445 104.145V104.151Z" fill="#3B4447"/>
<path d="M75.694 96.4282C75.694 96.5363 75.694 96.638 75.694 96.7461L73.9775 97.5662V97.3373L75.694 96.123C75.694 96.2248 75.694 96.3265 75.694 96.4346V96.4282Z" fill="#3B4447"/>
<path d="M65.4075 96.5481L65.2359 96.7642L64.2314 95.6899C64.3777 95.4864 64.5302 95.2957 64.6892 95.105L65.4012 96.5417L65.4075 96.5481Z" fill="#3B4447"/>
<path d="M72.1712 106.015C72.025 106.219 71.8724 106.409 71.7198 106.6L71.0015 105.163L71.1668 104.947L72.1712 106.015Z" fill="#3B4447"/>
<path d="M63.2652 107.286L61.8666 109.307C61.7713 109.187 61.6823 109.06 61.5996 108.92L63.1762 107.146L63.2716 107.286H63.2652Z" fill="#3B4447"/>
<path d="M74.8155 92.7852L73.2389 94.5653L73.1436 94.4254L74.5549 92.4038C74.6439 92.5246 74.7329 92.6517 74.8219 92.7916L74.8155 92.7852Z" fill="#3B4447"/>
<path d="M63.2648 100.273L63.1694 100.528L61.5928 100.61C61.6754 100.375 61.7644 100.14 61.8598 99.9111L63.2648 100.273Z" fill="#3B4447"/>
<path d="M74.8155 101.101C74.7329 101.336 74.6439 101.572 74.5485 101.8L73.1436 101.444L73.2389 101.184L74.8092 101.095L74.8155 101.101Z" fill="#3B4447"/>
<path d="M65.407 108.475L64.695 110.757C64.5361 110.757 64.3835 110.738 64.2373 110.712L65.2418 108.456L65.4134 108.475H65.407Z" fill="#3B4447"/>
<path d="M72.1776 90.9981L71.1731 93.255L71.0015 93.2422L71.7198 90.9536C71.8788 90.9536 72.0313 90.9727 72.1776 90.9981Z" fill="#3B4447"/>
<path d="M60.7222 105.284C60.7222 105.182 60.7222 105.074 60.7222 104.972L58.1348 103.44C58.1348 103.567 58.1284 103.694 58.1284 103.821C58.1284 103.904 58.1284 103.987 58.1284 104.069L60.7222 105.601C60.7222 105.493 60.7158 105.392 60.7158 105.277L60.7222 105.284Z" fill="#212A2D"/>
<path d="M65.0576 87.0254L67.6641 88.5639C67.8358 88.5766 68.0074 88.5957 68.1727 88.6274L65.5281 87.0635C65.3755 87.0381 65.2166 87.0254 65.0576 87.019V87.0254Z" fill="#212A2D"/>
<path d="M54.1172 101.062C54.1172 101.145 54.1172 101.234 54.1172 101.317C54.1172 101.444 54.1172 101.571 54.1235 101.698L56.5648 103.141C56.5648 103.046 56.5584 102.951 56.5584 102.849C56.5584 102.734 56.5584 102.62 56.5648 102.512L54.1172 101.062Z" fill="#212A2D"/>
<path d="M57.7024 97.4695L55.2294 96.0073C55.1404 96.2362 55.0514 96.4651 54.9688 96.6939L57.4354 98.1561C57.518 97.9272 57.607 97.6984 57.696 97.4695H57.7024Z" fill="#212A2D"/>
<path d="M57.6069 91.7733L60.0927 93.2482C60.2389 93.0511 60.3915 92.8604 60.544 92.6761L58.052 91.2012C57.8994 91.3855 57.7468 91.5826 57.6006 91.7797L57.6069 91.7733Z" fill="#212A2D"/>
<path d="M57.4225 106.465L55.064 105.073C55.1593 105.219 55.261 105.353 55.3691 105.48L57.6832 106.847C57.5942 106.726 57.5052 106.599 57.4289 106.465H57.4225Z" fill="#212A2D"/>
<path d="M64.0212 89.5997C64.1356 89.5361 64.2437 89.4726 64.3581 89.409L61.8406 87.9214C61.7516 87.9722 61.669 88.0167 61.58 88.0676C61.491 88.1185 61.4083 88.1757 61.3193 88.2329L63.8368 89.7205C63.9004 89.6824 63.964 89.6379 64.0275 89.5997H64.0212Z" fill="#212A2D"/>
<path d="M61.8539 99.9242L59.2919 98.4111C59.1965 98.64 59.1075 98.8689 59.0249 99.0977L61.5933 100.617C61.6759 100.388 61.7649 100.159 61.8539 99.9305V99.9242Z" fill="#212A2D"/>
<path d="M65.5984 90.5731C65.5475 90.6049 65.4967 90.6366 65.4395 90.6684L67.9506 92.156C68.0332 92.1052 68.1222 92.048 68.2049 91.9971C68.2939 91.9463 68.3829 91.8954 68.4719 91.8445L65.9671 90.3633C65.8463 90.4269 65.7192 90.4968 65.592 90.5731H65.5984Z" fill="#212A2D"/>
<path d="M58.9609 107.376C59.0372 107.503 59.1135 107.63 59.2025 107.745L61.8789 109.328C61.7836 109.207 61.6946 109.08 61.6119 108.94L58.9673 107.376H58.9609Z" fill="#212A2D"/>
<path d="M69.3169 89.5488L71.6945 90.9538C71.8535 90.9538 72.0124 90.9729 72.165 90.9983L69.87 89.6378C69.692 89.5933 69.5076 89.5679 69.3233 89.5488H69.3169Z" fill="#212A2D"/>
<path d="M61.6885 94.1889L64.2314 95.6955C64.3776 95.4985 64.5302 95.3077 64.6828 95.117L62.1399 93.6167C61.9873 93.8011 61.8347 93.9918 61.6821 94.1889H61.6885Z" fill="#212A2D"/>
<path d="M79.19 99.9107L80.1245 98.9507L77.143 91.1058C76.9713 90.6481 76.5136 90.2666 76.0813 90.2221L70.436 89.5864C70.0228 89.5419 69.3489 89.7199 68.8721 90.006L63.7227 93.0511V94.2272L68.8721 91.1821C69.1709 91.0041 69.6731 90.8706 69.9274 90.9024L75.5727 91.5381C75.8079 91.5635 76.1131 91.8242 76.2084 92.0657L79.19 99.9107Z" fill="#EF9F01"/>
<path d="M72.3946 88.2597C71.6 88.2597 70.9007 88.1199 70.3603 87.7575L65.9292 85.1256L62.331 84.7187C61.9178 84.6742 61.2439 84.8522 60.7671 85.1383L55.6177 88.1835V89.3596L63.7296 94.2229V93.0468L68.879 90.0016C69.3622 89.7156 70.0361 89.5376 70.4429 89.5821L76.0882 90.2178C76.1899 90.2305 76.298 90.2623 76.3997 90.3068L72.935 88.2279C72.7506 88.2407 72.5726 88.2534 72.401 88.2597H72.3946Z" fill="url(#paint10_linear_1062_22904)"/>
<path d="M63.7223 93.0464L55.6104 88.1895V89.3656L63.7223 94.2289V93.0464Z" fill="#DE9403"/>
<path d="M52.1205 21.5767V18.1756C52.165 17.6288 52.6545 16.7007 53.1567 16.3383C54.1231 15.6517 57.1809 13.4775 58.3062 12.81C58.6367 12.6129 58.9419 12.5938 59.1644 12.721L58.6558 12.3332C58.4333 12.1615 58.1027 12.1679 57.734 12.384C56.6088 13.0516 53.5445 15.2194 52.5846 15.906C52.0824 16.2684 51.5928 17.1902 51.5483 17.7433V21.1444C51.5483 21.5386 51.6691 21.8247 51.8726 21.9772L52.4129 22.3777C52.2286 22.2188 52.1205 21.9391 52.1205 21.5704V21.5767Z" fill="url(#paint11_linear_1062_22904)"/>
<path d="M58.7327 13.2803C58.8217 13.4011 58.8726 13.5664 58.8726 13.7761C58.8726 14.3992 58.4466 15.1493 57.9253 15.4608C57.6647 15.6134 57.4295 15.6325 57.2578 15.5308C57.4231 15.7533 57.7219 15.7978 58.0652 15.5943C58.5865 15.2828 59.0124 14.5263 59.0124 13.9096C59.0124 13.5981 58.9044 13.382 58.7327 13.2803Z" fill="#758286"/>
<path d="M57.1871 15.1686C57.1871 14.552 57.6131 13.7955 58.1344 13.4839C58.484 13.2742 58.7892 13.325 58.9545 13.5666C58.8209 13.2106 58.4777 13.1025 58.0644 13.3441C57.5431 13.6556 57.1172 14.4121 57.1172 15.0288C57.1172 15.2322 57.168 15.3911 57.2443 15.5056C57.2062 15.4102 57.1871 15.2958 57.1871 15.1623V15.1686Z" fill="#151F22"/>
<defs>
<linearGradient id="paint0_linear_1062_22904" x1="38.8524" y1="71.8187" x2="39.6089" y2="70.5663" gradientUnits="userSpaceOnUse">
<stop stop-color="#FFC655"/>
<stop offset="1" stop-color="#FFB41F"/>
</linearGradient>
<linearGradient id="paint1_linear_1062_22904" x1="96.8764" y1="42.1932" x2="72.9348" y2="88.7415" gradientUnits="userSpaceOnUse">
<stop stop-color="#F0A103"/>
<stop offset="0.85" stop-color="#FFBB34"/>
</linearGradient>
<linearGradient id="paint2_linear_1062_22904" x1="77.69" y1="28.1063" x2="73.9646" y2="34.3174" gradientUnits="userSpaceOnUse">
<stop stop-color="#FFB521"/>
<stop offset="1" stop-color="#E0A01F"/>
</linearGradient>
<linearGradient id="paint3_linear_1062_22904" x1="76.6666" y1="67.1971" x2="75.8147" y2="65.487" gradientUnits="userSpaceOnUse">
<stop stop-color="white"/>
<stop offset="1"/>
</linearGradient>
<linearGradient id="paint4_linear_1062_22904" x1="64.4535" y1="75.2061" x2="64.0657" y2="76.0517" gradientUnits="userSpaceOnUse">
<stop stop-color="#5B686C"/>
<stop offset="1" stop-color="#313A3D"/>
</linearGradient>
<linearGradient id="paint5_linear_1062_22904" x1="40.455" y1="61.7296" x2="40.0672" y2="62.5751" gradientUnits="userSpaceOnUse">
<stop stop-color="#5B686C"/>
<stop offset="1" stop-color="#313A3D"/>
</linearGradient>
<linearGradient id="paint6_linear_1062_22904" x1="47.4929" y1="8.95119" x2="48.5228" y2="7.17114" gradientUnits="userSpaceOnUse">
<stop offset="0.2" stop-color="#485255"/>
<stop offset="1" stop-color="#83969C"/>
</linearGradient>
<linearGradient id="paint7_linear_1062_22904" x1="32.4447" y1="6.68789" x2="33.6018" y2="4.70441" gradientUnits="userSpaceOnUse">
<stop stop-color="#485255"/>
<stop offset="1" stop-color="#5B686C"/>
</linearGradient>
<linearGradient id="paint8_linear_1062_22904" x1="39.0248" y1="98.831" x2="38.7578" y2="99.3205" gradientUnits="userSpaceOnUse">
<stop stop-color="#485255"/>
<stop offset="1" stop-color="#5B686C"/>
</linearGradient>
<linearGradient id="paint9_linear_1062_22904" x1="25.5151" y1="90.7822" x2="25.2481" y2="91.2653" gradientUnits="userSpaceOnUse">
<stop stop-color="#485255"/>
<stop offset="1" stop-color="#5B686C"/>
</linearGradient>
<linearGradient id="paint10_linear_1062_22904" x1="66.476" y1="88.425" x2="67.1371" y2="87.268" gradientUnits="userSpaceOnUse">
<stop stop-color="#FFAC07"/>
<stop offset="1" stop-color="#ED9F03"/>
</linearGradient>
<linearGradient id="paint11_linear_1062_22904" x1="53.0932" y1="18.9067" x2="54.2566" y2="16.9232" gradientUnits="userSpaceOnUse">
<stop stop-color="#485255"/>
<stop offset="1" stop-color="#5B686C"/>
</linearGradient>
</defs>
</svg>
