<svg width="120" height="120" viewBox="0 0 120 120" fill="none" xmlns="http://www.w3.org/2000/svg">
<path d="M114.628 49.5448C113.556 47.53 112.24 45.678 108.19 46.8719L112.783 54.8633L114.499 55.9419C114.499 55.9419 115.7 51.5664 114.628 49.5448Z" fill="#091215"/>
<path d="M58.4716 86.7737C58.4852 86.8415 60.968 88.2118 60.968 88.2118L61.9653 84.2365C61.9653 84.2365 63.5662 80.9124 61.4158 79.4607C59.2653 78.0022 56.1515 77.724 55.8802 77.8868C55.6088 78.0497 58.4784 86.7737 58.4784 86.7737H58.4716Z" fill="#091215"/>
<path d="M58.675 79.875L53.7635 77.1208C52.6103 76.4628 51.0228 76.5645 49.2726 77.5753C45.7586 79.6037 42.9026 84.5423 42.9026 88.6058C42.9026 90.6478 43.6217 92.0792 44.7885 92.744L49.7 95.4982C50.8532 96.1495 52.4339 96.0477 54.1841 95.0369C57.7049 93.0085 60.5541 88.0699 60.5541 84.0064C60.5541 81.9645 59.835 80.5331 58.675 79.875Z" fill="#2E373A"/>
<path d="M60.5543 84.0067C60.5543 88.0702 57.705 93.0089 54.1842 95.0372C52.434 96.048 50.8534 96.1498 49.7001 95.4985C48.5333 94.8405 47.8142 93.4023 47.8142 91.3604C47.8142 87.2969 50.6702 82.3583 54.1842 80.3299C55.9345 79.3191 57.5219 79.2173 58.6751 79.8754C59.8352 80.5334 60.5543 81.9716 60.5543 84.0067Z" fill="#555E61"/>
<path d="M60.2079 84.4002C60.2079 88.1856 57.5486 92.7918 54.272 94.6845C52.6439 95.6274 51.165 95.7224 50.0932 95.1119C49.0078 94.4945 48.3362 93.1581 48.3362 91.2587C48.3362 87.4733 50.9954 82.867 54.272 80.9744C55.9069 80.0314 57.3858 79.9364 58.4577 80.5538C59.5431 81.1711 60.2079 82.5007 60.2079 84.407V84.4002Z" fill="#2E373A"/>
<path d="M59.5434 84.4676C59.5434 87.7782 57.2233 91.801 54.3537 93.4494C51.491 95.1047 49.1709 93.7615 49.1709 90.4578C49.1709 87.154 51.491 83.1312 54.3537 81.476C57.2165 79.8207 59.5434 81.1639 59.5434 84.4676Z" fill="url(#paint0_linear_43_29496)"/>
<path d="M53.4043 91.8897C55.8194 90.4922 57.7867 87.0935 57.7867 84.2986C57.7867 82.5687 57.0337 81.4765 55.8872 81.2255C55.4055 81.3205 54.8968 81.5172 54.3608 81.8225C51.6744 83.376 49.4968 87.1478 49.4968 90.248C49.4968 90.7636 49.5579 91.2249 49.6664 91.6319C50.4398 92.6359 51.8169 92.7988 53.3975 91.8897H53.4043Z" fill="#091215"/>
<path d="M56.4769 85.7494C56.4769 87.4318 55.2965 89.4738 53.8448 90.315C52.3863 91.1562 51.2126 90.471 51.2126 88.7954C51.2126 87.1198 52.393 85.0711 53.8448 84.2299C55.2965 83.3887 56.4769 84.0671 56.4769 85.7494Z" fill="#86898B"/>
<path d="M56.1789 85.919C56.1789 87.4114 55.1342 89.2227 53.8453 89.9689C52.5564 90.7152 51.5049 90.1114 51.5049 88.619C51.5049 87.1265 52.5496 85.3152 53.8453 84.569C55.1342 83.8228 56.1789 84.4265 56.1789 85.919Z" fill="url(#paint1_linear_43_29496)"/>
<path d="M57.0065 81.2047C57.712 81.7542 58.1394 82.7446 58.1394 84.0946C58.1394 87.1134 56.016 90.7902 53.4042 92.2962C52.1424 93.0221 51.0028 93.1171 50.1548 92.6761C50.996 93.8633 52.563 94.0872 54.3608 93.0492C57.0472 91.4958 59.2248 87.7239 59.2248 84.6237C59.2248 82.6496 58.3429 81.4285 57.0065 81.1911V81.2047Z" fill="url(#paint2_linear_43_29496)"/>
<path d="M58.7901 84.5359L55.9477 85.8248C55.9477 85.8248 55.9409 85.7637 55.9341 85.7298L58.417 82.3311C58.3017 82.0733 58.1593 81.8562 57.9897 81.6595L55.4661 84.7869C55.4186 84.7462 55.3711 84.7122 55.3168 84.6851L56.2326 81.1779C55.9545 81.205 55.6628 81.266 55.3643 81.3678L54.3332 84.624C54.2246 84.658 54.1161 84.6987 54.0008 84.7529L53.3359 82.5346C53.0307 82.7856 52.7322 83.0638 52.454 83.369L52.9086 85.6213C52.7932 85.7569 52.6779 85.8994 52.5694 86.0554L50.8734 85.5263C50.6563 85.9062 50.4596 86.3064 50.29 86.7067L51.8842 87.4529C51.8367 87.6089 51.796 87.765 51.7689 87.921L49.5777 89.1149C49.5166 89.4948 49.4895 89.8747 49.4895 90.2411L51.8096 89.1896C51.8367 89.271 51.8706 89.3524 51.9113 89.4202L49.8694 92.2084C49.9915 92.4662 50.1408 92.6968 50.3104 92.8935L52.644 89.9968C52.6779 90.0036 52.7186 90.0104 52.7593 90.0104L51.8842 93.3548C52.1623 93.3413 52.454 93.2938 52.7593 93.2056L53.8719 89.6984C53.8719 89.6984 53.8854 89.6848 53.899 89.6848L54.652 92.2084C54.9641 91.9709 55.2693 91.7132 55.561 91.4214L55.0048 88.6808L57.1892 89.3592C57.4198 88.9861 57.6301 88.5994 57.8133 88.2059L55.7442 87.2358L58.6545 85.6484C58.7223 85.2685 58.7698 84.8954 58.7834 84.5223L58.7901 84.5359Z" fill="url(#paint3_linear_43_29496)"/>
<path d="M55.7579 86.1768C55.7579 87.3979 54.8963 88.8903 53.838 89.5009C52.7798 90.1114 51.9182 89.6162 51.9182 88.3951C51.9182 87.174 52.7798 85.6816 53.838 85.071C54.8963 84.4605 55.7579 84.9557 55.7579 86.1768Z" fill="url(#paint4_linear_43_29496)"/>
<path d="M52.3796 86.3602L51.05 85.9464C50.9482 86.1364 50.8465 86.3331 50.7583 86.5298L52.0065 87.1132C52.1083 86.8554 52.2372 86.5977 52.3796 86.3534V86.3602Z" fill="url(#paint5_linear_43_29496)"/>
<path d="M53.6958 84.9359L53.1667 83.1653C53.0581 83.267 52.9496 83.3756 52.8411 83.4841L53.2142 85.3158C53.3702 85.1733 53.533 85.0444 53.6958 84.9359Z" fill="url(#paint6_linear_43_29496)"/>
<path d="M51.7219 88.5114C51.7219 88.4571 51.7219 88.4028 51.7286 88.3486L49.9106 89.339C49.897 89.4543 49.8834 89.5697 49.8699 89.685L51.7354 88.837C51.7219 88.7353 51.7151 88.6267 51.7151 88.5114H51.7219Z" fill="url(#paint7_linear_43_29496)"/>
<path d="M54.9919 84.57L55.7652 81.6191C55.7313 81.6259 55.6906 81.6394 55.6499 81.6462L54.7273 84.5565C54.8155 84.5565 54.9037 84.5565 54.9919 84.57Z" fill="url(#paint8_linear_43_29496)"/>
<path d="M55.8255 85.289L58.0099 82.2974C58.0099 82.2974 57.9896 82.2635 57.976 82.2431L55.7102 85.0584C55.7577 85.1262 55.7916 85.2076 55.8255 85.289Z" fill="url(#paint9_linear_43_29496)"/>
<path d="M52.1357 89.7186L50.2905 92.2422C50.2905 92.2422 50.3177 92.2896 50.3312 92.3168L52.3121 89.861C52.2443 89.8203 52.19 89.7728 52.1357 89.7186Z" fill="url(#paint10_linear_43_29496)"/>
<path d="M55.1948 88.382L57.0332 88.9519C57.1418 88.7619 57.2503 88.572 57.3453 88.382L55.6222 87.5748C55.5069 87.8529 55.3644 88.1243 55.1948 88.382Z" fill="url(#paint11_linear_43_29496)"/>
<path d="M55.9545 86.2042C55.9409 86.3942 55.9206 86.5841 55.8799 86.7741L58.3492 85.4241C58.3696 85.3155 58.3831 85.207 58.3967 85.0984L55.9613 86.2042H55.9545Z" fill="url(#paint12_linear_43_29496)"/>
<path d="M54.2112 89.4806L54.8489 91.6175C54.9642 91.5225 55.0727 91.4208 55.1881 91.3122L54.72 89.0057C54.5572 89.1821 54.3876 89.3449 54.2112 89.4806Z" fill="url(#paint13_linear_43_29496)"/>
<path d="M53.1327 90.0027L52.3594 92.9537C52.4001 92.9469 52.4476 92.9333 52.4883 92.9266L53.4448 89.9213C53.3362 89.962 53.2345 89.9892 53.1327 90.0027Z" fill="url(#paint14_linear_43_29496)"/>
<path d="M55.1477 86.4151C55.1477 87.3784 54.4693 88.5452 53.6417 89.0268C52.8073 89.5085 52.1289 89.115 52.1289 88.1585C52.1289 87.202 52.8073 86.0284 53.6417 85.5467C54.4761 85.0651 55.1477 85.4585 55.1477 86.4151Z" fill="url(#paint15_linear_43_29496)"/>
<path d="M54.6318 86.8289C54.6318 87.3377 54.2791 87.955 53.8381 88.206C53.3972 88.457 53.0444 88.2535 53.0444 87.7515C53.0444 87.2495 53.404 86.6254 53.8381 86.3744C54.2791 86.1234 54.6318 86.3269 54.6318 86.8357V86.8289Z" fill="url(#paint16_linear_43_29496)"/>
<path d="M111.616 49.0152L106.704 46.2609C105.551 45.6029 103.964 45.7047 102.22 46.7154C98.6993 48.7438 95.8501 53.6892 95.8501 57.746C95.8501 59.7879 96.576 61.2193 97.736 61.8841L102.648 64.6383C103.801 65.2896 105.381 65.1878 107.132 64.177C110.652 62.1487 113.502 57.21 113.502 53.1465C113.502 51.1046 112.783 49.6732 111.616 49.0152Z" fill="#2E373A"/>
<path d="M113.502 53.1469C113.502 57.2104 110.646 62.1491 107.132 64.1774C105.382 65.1882 103.801 65.29 102.648 64.6387C101.481 63.9807 100.762 62.5493 100.762 60.5006C100.762 56.4371 103.611 51.4985 107.132 49.4701C108.882 48.4593 110.47 48.3575 111.623 49.0156C112.783 49.6804 113.509 51.1118 113.509 53.1469H113.502Z" fill="#555E61"/>
<path d="M113.156 53.5471C113.156 57.3324 110.497 61.9387 107.221 63.8313C105.592 64.7743 104.114 64.8693 103.042 64.2587C101.956 63.6414 101.285 62.3118 101.285 60.4055C101.285 56.6201 103.944 52.0139 107.221 50.1212C108.849 49.1783 110.328 49.0833 111.406 49.6938C112.492 50.3112 113.163 51.6408 113.163 53.5471H113.156Z" fill="#2E373A"/>
<path d="M112.491 53.6078C112.491 56.9184 110.171 60.9412 107.308 62.5896C104.446 64.2449 102.119 62.9017 102.119 59.598C102.119 56.2942 104.439 52.2646 107.302 50.6162C110.164 48.9609 112.491 50.3041 112.491 53.6078Z" fill="url(#paint17_linear_43_29496)"/>
<path d="M106.352 61.0299C108.774 59.6324 110.734 56.2337 110.734 53.4388C110.734 51.7089 109.981 50.6167 108.835 50.3657C108.353 50.4607 107.845 50.6574 107.309 50.9627C104.622 52.5094 102.445 56.2812 102.445 59.3814C102.445 59.897 102.506 60.3583 102.614 60.7653C103.388 61.7694 104.765 61.9322 106.345 61.0231L106.352 61.0299Z" fill="#091215"/>
<path d="M109.418 54.8908C109.418 56.5732 108.238 58.6151 106.786 59.4563C105.327 60.2975 104.154 59.6123 104.154 57.9367C104.154 56.2611 105.334 54.2124 106.786 53.378C108.238 52.5368 109.418 53.2152 109.418 54.8976V54.8908Z" fill="#86898B"/>
<path d="M109.127 55.0671C109.127 56.5595 108.082 58.3708 106.786 59.117C105.498 59.8632 104.446 59.2595 104.446 57.767C104.446 56.2746 105.491 54.4633 106.786 53.7171C108.075 52.9709 109.127 53.5746 109.127 55.0671Z" fill="url(#paint18_linear_43_29496)"/>
<path d="M109.954 50.3448C110.66 50.8943 111.087 51.8847 111.087 53.2347C111.087 56.2535 108.971 59.9304 106.352 61.4364C105.09 62.1623 103.951 62.2572 103.103 61.8163C103.944 63.0102 105.511 63.2273 107.315 62.1894C110.002 60.6359 112.179 56.8709 112.179 53.7639C112.179 51.7898 111.297 50.5687 109.961 50.3312L109.954 50.3448Z" fill="url(#paint19_linear_43_29496)"/>
<path d="M111.738 53.6759L108.895 54.9648C108.895 54.9648 108.889 54.9037 108.882 54.8766L111.365 51.4779C111.249 51.2201 111.107 51.003 110.937 50.8063L108.421 53.9336C108.373 53.8929 108.326 53.8658 108.271 53.8319L109.187 50.3246C108.909 50.3518 108.617 50.4128 108.319 50.5146L107.288 53.7708C107.179 53.8048 107.071 53.8455 106.955 53.8997L106.29 51.6814C105.985 51.9324 105.687 52.2106 105.402 52.5158L105.863 54.7681C105.741 54.9037 105.632 55.0462 105.524 55.2022L103.828 54.6731C103.611 55.053 103.414 55.4532 103.238 55.8535L104.832 56.5997C104.784 56.7557 104.751 56.9118 104.717 57.0678L102.525 58.2617C102.464 58.6416 102.437 59.0215 102.437 59.3879L104.757 58.3364C104.784 58.4178 104.818 58.4924 104.852 58.567L102.817 61.3552C102.939 61.6129 103.089 61.8436 103.258 62.0403L105.592 59.1436C105.626 59.1504 105.666 59.1572 105.707 59.1572L104.832 62.5016C105.11 62.4881 105.402 62.4406 105.707 62.3524L106.82 58.8451C106.82 58.8451 106.833 58.8316 106.847 58.8248L107.6 61.3484C107.912 61.1109 108.217 60.8532 108.509 60.5615L107.953 57.8208L110.13 58.4992C110.361 58.1261 110.571 57.7394 110.754 57.3459L108.685 56.3758L111.595 54.7884C111.663 54.4085 111.711 54.0354 111.724 53.6623L111.738 53.6759Z" fill="url(#paint20_linear_43_29496)"/>
<path d="M108.706 55.3249C108.706 56.5528 107.844 58.0385 106.786 58.649C105.728 59.2596 104.866 58.7643 104.866 57.5432C104.866 56.3221 105.728 54.8297 106.786 54.2192C107.844 53.6086 108.706 54.1038 108.706 55.3249Z" fill="url(#paint21_linear_43_29496)"/>
<path d="M105.327 55.5004L103.998 55.0865C103.889 55.2765 103.794 55.4732 103.706 55.6767L104.954 56.2602C105.056 56.0024 105.178 55.7446 105.327 55.5004Z" fill="url(#paint22_linear_43_29496)"/>
<path d="M106.637 54.0761L106.108 52.3055C105.999 52.4072 105.891 52.5158 105.782 52.6243L106.155 54.456C106.311 54.3135 106.467 54.1846 106.637 54.0761Z" fill="url(#paint23_linear_43_29496)"/>
<path d="M104.67 57.6516C104.67 57.5973 104.67 57.543 104.67 57.4888L102.852 58.4792C102.838 58.5945 102.824 58.7099 102.818 58.8252L104.683 57.9772C104.67 57.8754 104.663 57.7669 104.663 57.6516H104.67Z" fill="url(#paint24_linear_43_29496)"/>
<path d="M107.939 53.7102L108.713 50.7592C108.672 50.766 108.638 50.7796 108.597 50.7864L107.675 53.6966C107.77 53.6966 107.851 53.6966 107.939 53.7102Z" fill="url(#paint25_linear_43_29496)"/>
<path d="M108.767 54.4292L110.951 51.4376C110.951 51.4376 110.931 51.4037 110.917 51.3833L108.651 54.1986C108.699 54.2664 108.733 54.3478 108.767 54.4292Z" fill="url(#paint26_linear_43_29496)"/>
<path d="M105.077 58.8654L103.232 61.3889C103.232 61.3889 103.259 61.4364 103.272 61.4636L105.253 59.0078C105.192 58.9671 105.131 58.9196 105.077 58.8654Z" fill="url(#paint27_linear_43_29496)"/>
<path d="M108.143 57.5222L109.981 58.0921C110.09 57.9021 110.198 57.7122 110.293 57.5222L108.57 56.715C108.455 56.9931 108.312 57.2645 108.143 57.5222Z" fill="url(#paint28_linear_43_29496)"/>
<path d="M108.896 55.3443C108.889 55.5343 108.862 55.7242 108.821 55.9142L111.29 54.571C111.311 54.4557 111.324 54.3471 111.338 54.2386L108.896 55.3443Z" fill="url(#paint29_linear_43_29496)"/>
<path d="M107.159 58.6208L107.797 60.7577C107.906 60.6627 108.021 60.561 108.136 60.4524L107.668 58.1459C107.505 58.3223 107.336 58.4851 107.159 58.6208Z" fill="url(#paint30_linear_43_29496)"/>
<path d="M106.08 59.1442L105.307 62.0952C105.348 62.0884 105.395 62.0748 105.436 62.068L106.393 59.0628C106.284 59.1035 106.182 59.1306 106.08 59.1442Z" fill="url(#paint31_linear_43_29496)"/>
<path d="M108.095 55.5619C108.095 56.5252 107.417 57.692 106.589 58.1736C105.755 58.6553 105.083 58.2618 105.083 57.3053C105.083 56.3488 105.762 55.1752 106.589 54.6935C107.424 54.2119 108.095 54.6053 108.095 55.5619Z" fill="url(#paint32_linear_43_29496)"/>
<path d="M107.58 55.9692C107.58 56.478 107.22 57.0885 106.786 57.3463C106.345 57.5973 105.992 57.3938 105.992 56.885C105.992 56.3762 106.345 55.7657 106.786 55.5079C107.22 55.2569 107.58 55.4604 107.58 55.9692Z" fill="url(#paint33_linear_43_29496)"/>
<path d="M47.5566 95.2205L47.1428 96.4416C47.1428 96.4416 39.7416 100.03 34.5587 99.5622C29.3759 99.0941 24.4983 97.5202 19.4104 95.017L19.1662 94.8203C19.1662 94.8203 12.111 91.3266 10.1301 89.3729H9.87914C9.87914 89.3729 5.89024 86.4151 4.41137 83.4031C2.93249 80.3911 2.85787 79.2378 2.90536 77.2366C2.95284 75.2286 3.20385 72.0469 3.9365 70.4392C4.66237 68.8314 7.00958 66.491 7.00958 66.491C7.00958 66.491 8.27816 63.4925 12.1382 59.7071C15.9982 55.9218 22.1715 52.964 23.3722 52.3331C24.5729 51.7022 34.457 46.2887 34.457 46.2887C34.457 46.2887 40.7795 41.6011 42.584 40.5496C44.3885 39.4981 53.5671 34.4034 53.5671 34.4034C53.5671 34.4034 57.7052 31.5949 58.3293 30.8691C58.9534 30.1432 61.6398 27.355 62.7659 26.7309C63.8921 26.1068 70.1875 22.5656 74.2781 20.6865C78.3688 18.8074 85.1322 17.4031 85.1322 17.4031C85.1322 17.4031 88.3207 17.9323 89.2975 18.3054C89.2975 18.3054 88.7209 19.0313 89.6231 19.2823C90.5254 19.5333 91.5769 19.1534 91.5769 19.1534C91.5769 19.1534 93.7341 19.8046 94.7382 19.9335C95.7422 20.0624 98.1504 20.3338 102.811 23.1151C107.471 25.8965 110.009 28.1284 110.911 29.5598L112.932 31.5814C112.932 31.5814 112.871 32.1715 112.932 32.5447C112.993 32.9178 114.703 33.5758 114.703 33.5758L115.381 34.2542V34.9054L117.186 36.4861C117.186 36.4861 117.539 37.1848 117.362 37.9921C117.186 38.7926 117.661 41.3297 117.661 41.3297C117.661 41.3297 117.362 45.0134 117.308 45.6442C117.26 46.2684 117.261 47.1977 117.261 47.1977C117.261 47.1977 116.881 48.3035 116.962 48.7512C117.037 49.2058 117.138 49.3007 117.138 49.3007V52.0821L114.506 55.9421C114.506 55.9421 114.133 55.3655 114.133 54.1647C114.133 52.964 114.432 49.9045 113.353 48.6224C112.274 47.3402 109.791 46.8925 106.108 49.6467C102.424 52.4077 99.8939 58.3911 99.7853 60.1006C99.6632 62.1697 99.7107 66.4978 99.7107 66.4978C99.7107 66.4978 94.6703 69.157 92.9947 70.0593C91.3123 70.9615 75.3703 80.1875 75.3703 80.1875C75.3703 80.1875 65.8661 85.3297 64.5094 86.1031C63.1526 86.8832 60.975 88.206 60.975 88.206V86.0759C60.975 86.0759 61.5788 83.5455 61.4499 82.1888C61.3278 80.832 60.2491 79.482 58.9941 79.0072C57.7391 78.5323 53.9537 79.1835 51.1656 82.745C48.4927 86.1641 47.2852 88.9116 47.3056 91.4216C47.3327 93.9248 47.5634 95.2137 47.5634 95.2137L47.5566 95.2205Z" fill="#E1E8EC"/>
<g style="mix-blend-mode:multiply" opacity="0.3">
<path d="M60.9681 88.2125C60.9681 88.2125 61.1309 88.1176 61.3887 87.9547L61.3684 86.1231C61.4498 85.7568 61.9653 83.4706 61.8432 82.1546C61.7076 80.6825 60.5407 79.1697 59.1297 78.6338C58.8448 78.5252 58.4785 78.4709 58.0579 78.4709C56.1855 78.4709 53.1667 79.5224 50.8466 82.5005C48.1331 85.9739 46.8781 88.8095 46.9052 91.4213C46.9256 93.565 47.0952 94.8268 47.1494 95.1795L46.7085 96.6381C46.9866 96.516 47.1427 96.4345 47.1427 96.4345L47.5565 95.2135C47.5565 95.2135 47.3258 93.9245 47.2987 91.4213C47.2716 88.9113 48.4859 86.1638 51.1587 82.7448C53.9401 79.1832 57.7322 78.532 58.9872 79.0069C60.2422 79.4817 61.3209 80.8385 61.443 82.1885C61.5651 83.5453 60.9681 86.0756 60.9681 86.0756V88.2058V88.2125Z" fill="black"/>
</g>
<path style="mix-blend-mode:multiply" opacity="0.15" d="M5.19107 72.4056C5.4692 74.4679 7.26014 77.4867 8.75936 79.047C10.2586 80.6141 10.7945 75.0038 12.2937 71.9986C13.793 68.9934 25.1152 55.1136 27.727 52.5154C30.332 49.924 33.9817 46.5524 33.9817 46.5524C31.9804 47.6514 24.43 51.7828 23.3853 52.3323C22.1846 52.9564 16.0113 55.9209 12.1513 59.7063C8.29128 63.4917 7.0227 66.4901 7.0227 66.4901C7.0227 66.4901 4.91293 70.3433 5.19785 72.4056H5.19107Z" fill="url(#paint34_radial_43_29496)"/>
<path style="mix-blend-mode:multiply" opacity="0.2" d="M34.5717 46.2072L29.0022 50.7455L39.9717 50.4742L97.4918 20.5575C96.135 20.103 95.2599 19.9944 94.7444 19.9334C94.0049 19.8452 92.6482 19.4653 91.9766 19.2753C87.1804 20.4218 70.6278 24.8177 53.5665 34.4033C53.5665 34.4033 44.3879 39.4912 42.5834 40.5494C40.9214 41.5195 35.4129 45.5898 34.5717 46.2072Z" fill="url(#paint35_linear_43_29496)"/>
<g style="mix-blend-mode:multiply" opacity="0.2">
<path d="M48.377 86.2049C47.5765 86.7815 46.2876 87.6498 45.0869 88.1857C43.1603 89.0473 36.234 92.7513 29.4705 91.6116C22.7002 90.4719 14.8717 87.9144 9.24786 83.1114C5.26575 79.7195 3.74617 75.6356 3.19668 73.5394C3.02708 74.8284 2.93889 76.1851 2.91854 77.2298C2.87105 79.2379 2.94568 80.3911 4.42455 83.3963C5.90343 86.4084 9.89232 89.3661 9.89232 89.3661H10.1433C12.1242 91.3199 19.1794 94.8135 19.1794 94.8135L19.4236 95.0103C24.5047 97.5203 29.3891 99.0874 34.5719 99.5554C39.0085 99.9557 45.0597 97.3846 46.715 96.6316L47.1559 95.1731C47.1017 94.8203 46.9321 93.5585 46.9117 91.4148C46.8982 89.7935 47.373 88.084 48.3838 86.1913L48.377 86.2049ZM9.65489 87.643C9.03756 88.4096 5.84916 84.7124 4.87907 83.2675C3.13562 80.6828 2.91854 77.2298 3.29165 76.8567C3.41376 76.7346 3.55622 76.7618 3.70547 76.8906C3.55622 77.915 3.93612 80.7371 5.41499 82.935C6.24262 84.1629 8.67123 87.0257 9.75665 87.3717C9.74308 87.4734 9.70916 87.5684 9.64811 87.6362L9.65489 87.643ZM10.374 89.2033L11.3101 88.6131C11.3101 88.6131 12.3006 89.4543 13.8948 90.3566C15.489 91.2656 17.2324 92.1746 17.5716 92.4663C17.904 92.758 18.7588 94.2301 18.7588 94.2301C14.4782 92.3714 10.374 89.1965 10.374 89.1965V89.2033ZM30.7458 97.5406C28.3851 97.6085 23.1751 95.6819 22.1982 95.2816C21.2281 94.8814 18.4807 93.7078 18.8809 92.5681C19.1251 91.8897 20.6854 91.8083 22.205 91.8694C21.2688 91.9236 20.5158 92.1136 20.3598 92.5681C19.9595 93.7078 22.707 94.8814 23.6771 95.2816C24.5929 95.6615 29.5247 97.3236 32.2315 97.2829C31.8448 97.4321 31.3564 97.5271 30.7391 97.5474L30.7458 97.5406ZM40.7045 97.9884C40.7791 97.7238 40.9284 97.1811 41.1183 96.5163C41.7967 96.3331 43.3909 95.9871 46.4097 95.7633C45.1615 96.3399 43.0178 97.2625 40.7045 97.9816V97.9884Z" fill="black"/>
</g>
<g style="mix-blend-mode:multiply" opacity="0.2">
<path d="M117.342 38.127C117.342 38.127 113.258 41.9463 108.781 45.2296C104.303 48.513 94.426 55.4257 89.8537 58.3699C85.2814 61.3073 66.5173 74.1695 66.5173 74.1695C66.5173 74.1695 61.8161 76.8966 59.3943 78.7554C60.6832 79.3659 61.7144 80.7837 61.8433 82.1608C61.9654 83.4769 61.4566 85.7631 61.3684 86.1294L61.3887 87.961C62.0875 87.5336 63.5189 86.6789 64.5025 86.109C65.8593 85.3289 75.3634 80.1935 75.3634 80.1935C75.3634 80.1935 91.3122 70.9675 92.9878 70.0653C94.3785 69.319 98.0757 67.3653 99.3036 66.7208C99.2968 65.1402 99.29 61.6262 99.385 60.0862C99.4935 58.2478 102.126 52.1288 105.864 49.3339C107.736 47.9296 109.452 47.2173 110.965 47.2173C111.379 47.2173 111.772 47.2716 112.132 47.3869C112.797 46.8442 115.375 44.6734 117.613 41.9259C117.64 41.5596 117.661 41.3289 117.661 41.3289C117.661 41.3289 117.233 39.0428 117.335 38.127H117.342ZM64.3261 84.5759C64.3261 84.5759 84.2978 71.8155 87.7372 69.7057C90.3896 68.0776 93.3813 65.0588 94.6227 63.7495C95.9931 64.2108 97.1667 65.71 97.1667 65.71L64.3261 84.5691V84.5759Z" fill="black"/>
</g>
<g style="mix-blend-mode:multiply" opacity="0.2">
<path d="M94.5273 63.8585C94.5273 63.8585 94.5951 63.7839 94.6223 63.7568C94.6358 63.7568 94.6426 63.7635 94.6562 63.7703C94.1542 63.5939 93.6318 63.5532 93.123 63.7771C91.2507 64.6115 64.1628 81.6186 64.1628 81.6186V81.7475C64.4749 81.5575 91.2575 64.7336 93.123 63.906C93.5843 63.7025 94.066 63.7161 94.5273 63.8517V63.8585Z" fill="black"/>
</g>
<g style="mix-blend-mode:multiply" opacity="0.3">
<path d="M117.26 47.0003C116.534 47.7601 115.232 49.1101 114.336 49.9038C114.608 51.0977 114.567 52.5156 114.533 53.4924C114.526 53.7502 114.519 53.9741 114.519 54.1573C114.519 54.3947 114.628 55.0866 114.723 55.609L117.131 52.0814V49.3C117.131 49.3 117.029 49.1983 116.955 48.7505C116.88 48.3028 117.253 47.197 117.253 47.197C117.253 47.197 117.253 47.1224 117.253 47.0071L117.26 47.0003Z" fill="black"/>
</g>
<g style="mix-blend-mode:multiply" opacity="0.3">
<path d="M113.346 48.6218C114.425 49.904 114.126 52.9567 114.126 54.1642C114.126 55.3718 114.499 55.9416 114.499 55.9416L114.723 55.6092C114.628 55.0868 114.52 54.3949 114.52 54.1575C114.52 53.9743 114.52 53.7504 114.533 53.4926C114.581 52.0205 114.655 49.558 113.645 48.3641C113.02 47.6246 112.064 47.2176 110.958 47.2176C109.445 47.2176 107.736 47.9299 105.857 49.3341C102.126 52.1291 99.4935 58.2481 99.3781 60.0865C99.2832 61.6265 99.2899 65.1337 99.2967 66.7211C99.5477 66.5854 99.697 66.5108 99.697 66.5108C99.697 66.5108 99.6495 62.1895 99.7716 60.1137C99.8733 58.4041 102.404 52.414 106.094 49.6598C109.778 46.8988 112.261 47.3533 113.339 48.6354L113.346 48.6218Z" fill="black"/>
</g>
<g style="mix-blend-mode:multiply" opacity="0.2">
<path d="M112.24 47.4206C112.803 47.6105 113.285 47.9294 113.651 48.3635C113.984 48.757 114.194 49.2861 114.33 49.8696C114.866 49.2929 116.358 47.6241 117.281 46.0028C117.287 45.8739 117.294 45.7518 117.308 45.6364C117.342 45.1955 117.504 43.2146 117.593 42.0953C115.415 44.7342 112.959 46.8236 112.233 47.4206H112.24Z" fill="black"/>
</g>
<g style="mix-blend-mode:multiply" opacity="0.3">
<path d="M88.4763 19.2417C88.6798 19.4452 89.1343 19.357 89.5006 19.2417C88.7883 18.9567 89.3039 18.3055 89.3039 18.3055C89.3039 18.3055 88.1167 18.8753 88.4763 19.2417Z" fill="black"/>
</g>
<g style="mix-blend-mode:multiply" opacity="0.3">
<path d="M84.5827 17.9187C84.8201 18.1561 86.1633 17.9594 86.1633 17.9594C86.1633 17.9594 86.2243 17.7898 86.2922 17.6067C85.6342 17.4845 85.1389 17.4031 85.1389 17.4031C85.1389 17.4031 84.3452 17.6813 84.5827 17.9187Z" fill="black"/>
</g>
<path style="mix-blend-mode:multiply" opacity="0.2" d="M117.287 36.7573C117.233 36.5877 117.185 36.4859 117.185 36.4859L115.381 34.9053V34.254L114.703 33.5757C114.703 33.5757 113.346 33.0533 113.007 32.6734H111.657L92.5398 45.7052C92.5398 45.7052 95.6536 44.5519 96.5355 46.7838C96.7458 47.3129 96.8068 47.8217 96.7526 48.3237C105.782 41.9808 115.211 37.6731 117.287 36.7505V36.7573Z" fill="url(#paint36_linear_43_29496)"/>
<path style="mix-blend-mode:multiply" opacity="0.2" d="M96.7597 48.3236C94.7178 49.3751 93.5713 50.2909 91.9364 51.3085C89.9962 52.5092 73.1113 64.5437 73.1113 64.5437C73.1113 64.5437 61.0835 75.079 56.3145 77.7722C53.7502 79.2172 49.646 80.9606 45.8945 83.2332C42.1431 85.499 38.4391 89.3658 31.4924 89.5625C31.4924 89.5625 35.6102 90.1256 39.3685 88.8367C43.1199 87.5477 49.2593 84.7189 49.2593 84.7189H49.2661C49.7274 84.0066 50.2497 83.2739 50.8467 82.5073C53.1668 79.536 56.1856 78.4777 58.0579 78.4777C58.2343 78.4777 58.3971 78.4913 58.5532 78.5117L65.1335 74.9908C65.9611 74.4888 66.5174 74.17 66.5174 74.17C66.5174 74.17 85.2815 61.3079 89.8538 58.3705C94.4261 55.4331 104.303 48.5135 108.781 45.2302C113.258 41.9468 117.342 38.1275 117.342 38.1275C117.342 38.08 117.355 38.0257 117.362 37.985C117.471 37.4898 117.376 37.0285 117.288 36.7504C115.212 37.6662 105.782 41.9807 96.7529 48.3236H96.7597Z" fill="url(#paint37_linear_43_29496)"/>
<path style="mix-blend-mode:multiply" opacity="0.1" d="M31.2548 82.5621C31.2548 82.5621 45.3448 69.7067 61.5582 70.826L61.8634 72.115C61.8634 72.115 40.3587 85.8047 32.0145 88.4233C30.6035 88.8643 23.5687 89.373 31.2548 82.5689V82.5621Z" fill="url(#paint38_radial_43_29496)"/>
<g style="mix-blend-mode:multiply" opacity="0.3">
<path d="M113.889 35.4004C114.093 35.6786 115.422 35.4615 115.917 35.3733L115.388 34.912V34.2607C115.388 34.2607 113.645 35.0612 113.896 35.4072L113.889 35.4004Z" fill="black"/>
</g>
<g style="mix-blend-mode:multiply" opacity="0.3">
<path d="M111.657 32.6805C111.657 32.9654 113.278 32.9315 113.278 32.9315L113.299 32.9111C113.095 32.7822 112.946 32.6533 112.932 32.5516C112.871 32.1785 112.932 31.5883 112.932 31.5883C112.932 31.5883 111.657 32.3955 111.657 32.6805Z" fill="black"/>
</g>
<path style="mix-blend-mode:multiply" opacity="0.3" d="M42.5362 92.154C42.1156 93.1308 41.5254 95.0982 41.1184 96.5228C41.7968 96.3396 43.391 95.9936 46.4098 95.7697C46.4234 95.763 46.4369 95.7562 46.4505 95.7494L46.8711 88.1922C45.494 89.0266 43.235 90.5258 42.5362 92.154Z" fill="url(#paint39_linear_43_29496)"/>
<g style="mix-blend-mode:multiply" opacity="0.2">
<path d="M64.3193 26.8325C63.8852 26.629 63.295 26.6425 62.6234 26.8189C61.4226 27.5855 58.933 30.1701 58.336 30.8689C57.7051 31.5947 53.5737 34.4032 53.5737 34.4032C57.3116 32.3002 61.0224 30.455 64.5975 28.8269C64.6857 28.4674 64.9638 27.131 64.3261 26.8257L64.3193 26.8325Z" fill="black"/>
</g>
<path d="M53.5669 34.4025C53.5669 34.4025 53.5126 34.4296 53.4109 34.4907C53.5126 34.4364 53.5669 34.4025 53.5669 34.4025Z" stroke="#FF0000" stroke-width="0.5" stroke-miterlimit="10"/>
<path style="mix-blend-mode:multiply" opacity="0.2" d="M64.3191 26.8327C64.9567 27.1379 64.6786 28.4744 64.5904 28.8339C64.3462 28.9424 64.1155 29.0713 63.8917 29.2138L89.2632 18.2918C88.2457 17.9187 85.1387 17.4031 85.1387 17.4031C85.1387 17.4031 78.3684 18.8074 74.2845 20.6865C70.2006 22.5656 63.9052 26.1 62.7723 26.7309C62.7249 26.758 62.6774 26.7852 62.6299 26.8191C63.3015 26.6359 63.8917 26.6224 64.3191 26.8327Z" fill="url(#paint40_linear_43_29496)"/>
<path d="M104.344 31.1677C102.533 29.7567 99.3782 27.423 96.3458 25.7678C93.8154 24.3907 91.536 23.3256 89.9961 22.654C87.0926 23.2713 82.6221 24.3025 79.0741 25.4964C75.031 26.86 69.7735 29.1326 67.1414 30.279C67.3991 30.4893 67.7655 30.7132 68.2743 30.9506C71.0353 32.2599 73.24 33.5149 75.6958 35.0548C78.1515 36.588 80.7362 38.2704 83.1444 39.6882C83.1716 39.7018 83.1987 39.7221 83.2258 39.7357C85.5595 39.3287 91.3325 38.1686 96.8139 35.7875C100.409 34.2272 102.851 32.4634 104.337 31.1609L104.344 31.1677Z" fill="#141C1E"/>
<path d="M54.7402 70.8187C55.7171 70.8459 57.4809 70.7645 58.5731 69.8215C59.672 68.8718 61.9582 65.0389 63.4506 61.5249C64.9431 58.0109 66.0421 55.1006 65.9946 54.0016C65.9471 52.9094 64.5496 52.1361 61.3884 50.5622C58.2271 48.9951 56.8568 48.1743 53.9668 46.4037C51.0769 44.6331 47.1694 41.9467 46.1722 41.2005C45.175 40.4543 44.0285 40.1558 42.0409 41.499C40.0464 42.8422 34.8703 46.6819 33.7714 47.5027C32.6724 48.3235 28.4393 52.0614 28.0187 52.5092C27.5981 52.9569 26.472 54.8021 27.2724 56.4167C28.0662 58.038 30.2641 61.0975 35.0467 64.4352C39.8293 67.7728 48.2956 69.8147 50.541 70.3167C52.7797 70.812 53.6344 70.7848 54.7538 70.812L54.7402 70.8187Z" fill="#141C1E"/>
<path d="M58.1119 69.3122C59.1227 68.5118 61.5445 65.0113 63.0912 61.3684C63.7289 59.8759 65.6623 55.3308 65.6012 54.0215C65.5605 53.1667 64.2377 52.4205 61.2189 50.9213C58.0304 49.3406 56.633 48.4994 53.7634 46.7424C50.9142 44.999 47.0203 42.3329 45.9349 41.5121C45.4261 41.1254 44.9783 40.9558 44.4831 40.9558C43.8522 40.9558 43.1264 41.2407 42.2648 41.8241C40.2975 43.147 35.1486 46.9595 34.0089 47.8143C32.9506 48.608 29.172 51.8574 28.7378 52.3187C28.4801 52.5901 27.822 54.5778 28.5547 56.0702C29.0024 56.9792 31.0647 59.9777 36.39 63.6884C41.0844 66.965 48.3431 68.7492 50.7582 69.2851C50.7582 69.2851 56.2667 70.7776 58.1119 69.3122Z" fill="#303E42"/>
<path d="M61.6127 62.6989C61.0768 61.0776 59.0823 59.1374 57.1625 58.3641C56.6266 58.147 56.1517 58.0452 55.7583 58.0452C54.7475 58.0452 54.2794 58.7236 54.6661 59.8904C55.202 61.5118 57.1964 63.4519 59.1163 64.2253C59.6522 64.4424 60.127 64.5441 60.5205 64.5441C61.5313 64.5441 61.9994 63.8658 61.6127 62.6989ZM60.8936 63.6351C60.8597 63.6826 60.7308 63.7301 60.5137 63.7301C60.2966 63.7301 59.9507 63.6826 59.4147 63.4655C57.7188 62.7803 55.8939 61.0233 55.4258 59.6259C55.2902 59.2188 55.3309 59.0017 55.3716 58.9475C55.4055 58.9 55.5344 58.8525 55.7447 58.8525C55.9482 58.8525 56.3077 58.9 56.8437 59.1171C58.5396 59.8022 60.3645 61.5593 60.8326 62.9567C60.9682 63.3638 60.9275 63.5808 60.8868 63.6351H60.8936Z" fill="#3D4B4F"/>
<path d="M61.5581 69.7061C61.5581 69.7061 65.7437 59.8017 66.6324 57.6512C67.5279 55.5007 69.3392 51.6272 72.4937 49.5581C75.6481 47.4958 79.7184 45.5421 82.7033 44.9858C85.6882 44.4295 90.8507 43.6222 91.2442 44.9858C91.6376 46.3493 88.7613 50.1483 87.0857 51.7628C85.4101 53.3842 79.0808 58.0107 76.0348 60.2155C72.9957 62.4202 61.5581 69.6993 61.5581 69.6993V69.7061Z" fill="#141C1E"/>
<path opacity="0.7" d="M44.4832 40.9692C43.8523 40.9692 43.1264 41.2541 42.2649 41.8375C40.2976 43.1604 35.1486 46.9729 34.009 47.8276C33.8258 47.9633 33.5544 48.1804 33.2356 48.4382L45.3854 41.1795C45.087 41.0302 44.7885 40.9624 44.4764 40.9624L44.4832 40.9692Z" fill="#C5D0D3"/>
<path d="M46.0031 57.2779C42.6858 54.3202 36.1258 50.4127 33.7854 50.4737C32.2929 50.5076 30.1289 51.5591 28.7585 52.3122C28.7585 52.3122 28.7585 52.3189 28.7518 52.3257C28.494 52.5971 27.8359 54.5847 28.5686 56.0772C29.0163 56.9862 31.0786 59.9847 36.4039 63.6954C41.0983 66.972 48.357 68.7562 50.7721 69.2921C50.7721 69.2921 56.2806 70.7845 58.1258 69.3192C58.7499 68.824 59.9167 67.2976 61.0767 65.3371C56.4095 61.796 46.0098 57.2847 46.0098 57.2847L46.0031 57.2779Z" fill="#39464A"/>
<path d="M54.1164 59.5917C54.1164 59.5917 51.0434 61.3284 50.8534 62.4341C50.6635 63.5467 52.4001 65.1884 53.9604 65.6361C55.5275 66.0906 60.1473 64.6728 60.1473 64.6728C60.1473 64.6728 61.1241 61.6337 57.7119 60.0802C55.1137 58.893 54.1097 59.5917 54.1097 59.5917H54.1164Z" fill="#3D4B4F"/>
<path d="M80.7365 45.9218C78.2875 46.729 75.3433 48.174 72.7112 49.8971C70.4725 51.3624 68.607 53.9538 66.9992 57.807C66.6668 58.6007 65.8799 60.4799 65.0183 62.5218L66.5582 66.029C69.9976 63.8107 74.1561 61.0972 75.7978 59.9032C78.7624 57.7528 81.2249 55.9279 83.0905 54.5033C82.4392 50.9621 81.2588 47.4074 80.7365 45.9218Z" fill="#303E42"/>
<path d="M90.858 45.1005C90.7969 44.8834 90.2407 44.6392 88.8703 44.6392C87.5 44.6392 85.4241 44.8902 82.7784 45.3854C82.385 45.4601 81.9644 45.5618 81.5234 45.6839C82.0594 47.2171 83.1651 50.5819 83.8028 53.9602C85.2749 52.8205 86.2993 51.9793 86.808 51.4841C88.6261 49.7271 91.1633 46.1656 90.858 45.1005Z" fill="#303E42"/>
<path opacity="0.2" d="M53.7634 46.749C50.9142 45.0056 47.0203 42.3395 45.9349 41.5187C45.4261 41.132 44.9783 40.9624 44.4831 40.9624C43.8522 40.9624 43.1264 41.2473 42.2648 41.8307C40.2975 43.1536 35.1486 46.9661 34.0089 47.8209C32.9506 48.6146 29.172 51.864 28.7378 52.3253C28.4801 52.5967 27.822 54.5843 28.5547 56.0768C28.7853 56.5381 29.4298 57.5489 30.7255 58.9192C35.5352 55.4391 44.4085 50.1477 56.0564 48.1397C55.3644 47.7259 54.6317 47.2849 53.7634 46.749Z" fill="white"/>
<path d="M96.0199 35.3595C99.4321 33.8806 101.691 32.1914 103.007 31.0043C101.169 29.6136 98.5367 27.7412 96.0199 26.3641C93.6252 25.0548 91.4408 24.0305 89.9212 23.3589C87.3705 23.8812 82.8592 24.8852 79.3452 26.0724C75.5802 27.3478 70.8925 29.3422 68.5996 30.3462C71.1503 31.5605 73.3144 32.7545 76.0618 34.4708C76.7877 34.9253 77.5271 35.3934 78.2734 35.8615C79.949 36.9266 81.6788 38.0188 83.3137 38.9821C85.0029 38.7039 90.6742 37.666 96.0267 35.3459L96.0199 35.3595Z" fill="#303E42"/>
<path d="M67.148 30.279C69.7869 29.1258 75.0376 26.86 79.0807 25.4964C82.6287 24.2957 87.0925 23.2646 90.0027 22.654C88.7477 22.1045 87.9811 21.806 87.9811 21.806C87.9811 21.806 81.3398 23.5088 77.5205 24.6213C73.6944 25.7407 68.8711 27.7215 67.8671 28.2778C67.0462 28.7323 66.0083 29.3564 67.1548 30.2858L67.148 30.279Z" fill="#586770"/>
<path d="M104.344 31.1669C102.858 32.4694 100.416 34.2332 96.8204 35.7935C91.3391 38.1679 85.5593 39.3347 83.2324 39.7417C84.25 40.3319 85.0776 40.6711 88.0082 40.4201C91.9564 40.0809 96.773 37.6319 99.5068 36.5126C102.241 35.3933 105.87 32.3812 105.87 32.3812C105.87 32.3812 105.293 31.8996 104.351 31.1669H104.344Z" fill="#586770"/>
<path opacity="0.2" d="M100.429 29.1251C99.0455 28.1618 97.5123 27.1782 96.0199 26.3641C93.6252 25.0548 91.4408 24.0305 89.9212 23.3589C87.3705 23.8812 82.8592 24.8852 79.3452 26.0724C75.5802 27.3478 70.8925 29.3422 68.5996 30.3462C70.187 31.0992 71.632 31.8523 73.1583 32.7274C77.4254 30.8347 86.3326 28.0601 100.429 29.1251Z" fill="white"/>
<path d="M100.667 34.6L101.399 35.2037C101.508 35.1359 101.61 35.0748 101.718 35.007L100.667 34.1454C99.839 34.6339 98.9164 35.1359 97.8853 35.6175L98.238 35.9025C99.1267 35.4751 99.934 35.0341 100.667 34.6Z" fill="#3F4E57"/>
<path style="mix-blend-mode:multiply" opacity="0.2" d="M98.2453 35.9023L98.9169 36.445C99.0797 36.3771 99.2425 36.3093 99.3918 36.2483C100.029 35.9905 100.721 35.6174 101.4 35.2103L100.667 34.6066C99.9413 35.0407 99.1272 35.4749 98.2385 35.9091L98.2453 35.9023Z" fill="url(#paint41_linear_43_29496)"/>
<path d="M103.686 32.5368L104.425 33.1474C104.527 33.0728 104.622 32.9981 104.71 32.9303L103.686 32.0891C103.021 32.6183 102.207 33.2017 101.237 33.8122L101.556 34.0632C102.39 33.5273 103.096 33.0117 103.686 32.5436V32.5368Z" fill="#3F4E57"/>
<path style="mix-blend-mode:multiply" opacity="0.2" d="M101.549 34.0567L102.288 34.6469C103.089 34.1245 103.835 33.5886 104.418 33.1409L103.679 32.5303C103.089 32.9984 102.376 33.514 101.549 34.0499V34.0567Z" fill="url(#paint42_linear_43_29496)"/>
<path d="M89.4872 39.0772L90.0502 39.7827C90.152 39.7556 90.2537 39.7352 90.3555 39.7081L89.4804 38.6159C88.2118 38.9619 87.045 39.24 86.0342 39.4639L86.258 39.8709C87.2214 39.6538 88.3136 39.3893 89.4872 39.0704V39.0772Z" fill="#3F4E57"/>
<path style="mix-blend-mode:multiply" opacity="0.2" d="M86.2646 39.8773L86.4478 40.2165C86.8888 40.2165 87.3908 40.1826 87.981 40.1351C88.6526 40.0741 89.3445 39.9519 90.0568 39.7891L89.4938 39.0836C88.3201 39.4025 87.228 39.667 86.2646 39.8841V39.8773Z" fill="url(#paint43_linear_43_29496)"/>
<path d="M96.9359 36.506C97.0444 36.4585 97.153 36.411 97.2615 36.3635L97.8992 36.8859C98.0213 36.8316 98.1434 36.7773 98.2587 36.7298L97.2615 35.909C97.153 35.9565 97.0444 36.004 96.9359 36.0515C95.9861 36.4585 95.0364 36.8316 94.0867 37.1776L94.3784 37.5236C95.2263 37.2115 96.0811 36.8723 96.9291 36.506H96.9359Z" fill="#3F4E57"/>
<path style="mix-blend-mode:multiply" opacity="0.2" d="M96.9362 36.5059C96.0882 36.8723 95.2335 37.2114 94.3855 37.5235L94.9214 38.1612C95.8644 37.7745 96.7598 37.3878 97.5671 37.0283C97.6824 36.9808 97.7842 36.9333 97.8995 36.8858L97.2618 36.3635C97.1533 36.411 97.0448 36.4584 96.9362 36.5059Z" fill="url(#paint44_linear_43_29496)"/>
<path d="M93.4758 37.8422L94.0118 38.5138C94.1067 38.4798 94.2017 38.4459 94.2899 38.4052L93.4758 37.3876C92.3294 37.7879 91.2032 38.1339 90.1382 38.4391L90.4435 38.8055C91.4203 38.5205 92.4379 38.2017 93.4758 37.8422Z" fill="#3F4E57"/>
<path style="mix-blend-mode:multiply" opacity="0.2" d="M90.4436 38.8054L91.0541 39.5245C92.0446 39.2464 93.0486 38.8868 94.0119 38.5137L93.476 37.8421C92.438 38.2016 91.4205 38.5205 90.4436 38.8054Z" fill="url(#paint45_linear_43_29496)"/>
<path d="M87.0109 22.6461L87.4383 22.9242C87.6079 22.8835 87.7843 22.8428 87.9471 22.8089L87.167 22.3069C86.3258 22.524 84.9554 22.8835 83.4426 23.2838L83.7615 23.5008C85.0843 23.1481 86.2579 22.8428 87.0109 22.6461Z" fill="#3F4E57"/>
<path style="mix-blend-mode:multiply" opacity="0.2" d="M83.762 23.5008L84.1012 23.7315C85.2476 23.433 86.3737 23.1684 87.4388 22.9242L87.0114 22.6461C86.2584 22.8428 85.0848 23.1481 83.762 23.5008Z" fill="url(#paint46_linear_43_29496)"/>
<path d="M82.6763 23.7868L83.029 24.0175C83.1919 23.9768 83.3547 23.9293 83.5175 23.8886L82.8323 23.4476C81.5366 23.7936 80.1798 24.1667 78.9587 24.5059L79.264 24.7162C80.3562 24.4109 81.5434 24.0921 82.6695 23.7868H82.6763Z" fill="#3F4E57"/>
<path style="mix-blend-mode:multiply" opacity="0.2" d="M79.271 24.7163L79.678 25.0012C80.7499 24.6552 81.8828 24.3296 83.0292 24.0175L82.6765 23.7869C81.5436 24.0921 80.3632 24.411 79.271 24.7163Z" fill="url(#paint47_linear_43_29496)"/>
<path d="M73.8773 26.4051L74.766 26.785C74.9356 26.7172 75.0984 26.6493 75.268 26.5883L74.0333 26.0591C72.8665 26.4797 71.7404 26.9071 70.7771 27.3006L71.0959 27.4566C71.9439 27.1174 72.8937 26.7579 73.8705 26.4051H73.8773Z" fill="#3F4E57"/>
<path style="mix-blend-mode:multiply" opacity="0.2" d="M71.103 27.4565L72.0256 27.8906C72.9075 27.5311 73.8369 27.1512 74.7731 26.7849L73.8844 26.405C72.9075 26.7577 71.9578 27.1173 71.1098 27.4565H71.103Z" fill="url(#paint48_linear_43_29496)"/>
<path d="M78.3617 24.6746C78.0972 24.7492 77.8326 24.8238 77.5884 24.8984C76.6454 25.1766 75.6482 25.5022 74.6646 25.8414L75.0173 26.011C75.8314 25.7328 76.6522 25.4683 77.4256 25.2444C77.6698 25.1698 77.9276 25.1019 78.1921 25.0205L78.6806 25.3326C78.7823 25.2987 78.8841 25.2648 78.9791 25.2308C79.0333 25.2105 79.0808 25.1969 79.1351 25.1766L78.355 24.6746H78.3617Z" fill="#3F4E57"/>
<path style="mix-blend-mode:multiply" opacity="0.2" d="M75.0244 26.0108L75.8113 26.3839C76.795 26.004 77.7719 25.6513 78.6945 25.3324L78.206 25.0204C77.9415 25.095 77.6837 25.1696 77.4395 25.2443C76.6593 25.4749 75.8453 25.7327 75.0312 26.0108H75.0244Z" fill="url(#paint49_linear_43_29496)"/>
<path d="M67.8403 28.8673C68.1591 28.6909 68.9596 28.3314 70.0315 27.8904L71.0219 28.311C71.1847 28.2432 71.3475 28.1753 71.5103 28.1075L70.1943 27.5444C69.1224 27.9854 68.3219 28.3517 68.0031 28.5281C67.8335 28.6231 67.6164 28.7452 67.4197 28.8808C67.4875 28.908 67.5621 28.9487 67.6435 28.9826C67.7114 28.9419 67.7792 28.908 67.8403 28.8673Z" fill="#3F4E57"/>
<path style="mix-blend-mode:multiply" opacity="0.2" d="M67.8403 28.8671C67.7792 28.9011 67.7114 28.9418 67.6436 28.9825C67.8946 29.1046 68.2066 29.2538 68.4847 29.3895C69.2038 29.0774 70.0722 28.7111 71.0219 28.3109L70.0315 27.8903C68.9596 28.3312 68.1591 28.6908 67.8403 28.8671Z" fill="url(#paint50_linear_43_29496)"/>
<g style="mix-blend-mode:multiply" opacity="0.2">
<path d="M33.0186 87.9753C31.8925 87.9753 31.4312 87.7176 31.2548 87.5683C31.1463 87.4733 31.0852 87.3444 31.0852 87.1884C31.0852 86.6728 31.689 85.9673 31.906 85.7706L32.2113 85.4992C33.2628 84.5495 34.5789 83.3691 37.557 81.5443C39.1715 80.5606 40.4333 80.0993 41.5255 80.0993C42.2785 80.0993 42.8687 80.3164 43.4454 80.5267L43.5878 80.581C44.2051 80.8048 44.5511 81.1304 44.619 81.5646C44.7207 82.148 44.2798 82.8535 43.3436 83.6066L43.1876 83.7354C41.6748 84.9565 39.6057 86.6389 36.4377 87.4598C35.0945 87.8125 33.9412 87.9889 33.005 87.9889L33.0186 87.9753Z" fill="black"/>
</g>
<path d="M32.0214 85.8926C31.7229 86.164 30.9767 87.1002 31.3634 87.4326C31.75 87.765 33.1611 88.1245 36.4037 87.2766C39.6464 86.4286 41.7358 84.6783 43.2486 83.4505C44.7614 82.2294 44.8903 81.205 43.5336 80.7166C42.1768 80.2281 40.9421 79.6583 37.6452 81.6731C34.3822 83.6743 33.1204 84.8954 32.0146 85.8859L32.0214 85.8926Z" fill="#E3E3E4"/>
<path d="M31.6213 87.5879C32.2318 87.8525 33.6632 87.9949 36.4039 87.2826C39.0225 86.5974 40.888 85.3221 42.3058 84.2095C38.0931 84.0332 32.9984 86.7806 31.6145 87.5879H31.6213Z" fill="#D6D6D7"/>
<path d="M37.9232 82.6364L39.7345 81.5917C39.938 81.4764 40.2162 81.4967 40.5282 81.6731C41.1523 82.0326 41.6543 82.9077 41.6543 83.62C41.6543 83.9796 41.5254 84.2374 41.3219 84.3527L39.5106 85.3974C39.3071 85.5127 39.029 85.4924 38.7169 85.316C38.0928 84.9565 37.5908 84.0881 37.5908 83.369C37.5908 83.0095 37.7197 82.7585 37.9232 82.6364Z" fill="url(#paint51_linear_43_29496)"/>
<path d="M37.5908 83.3686C37.5908 84.0877 38.0928 84.9628 38.7169 85.3156C39.029 85.4919 39.3071 85.5123 39.5106 85.397C39.7142 85.2816 39.8431 85.0239 39.8431 84.6643C39.8431 83.9452 39.3411 83.0701 38.7169 82.7106C38.4117 82.5342 38.1267 82.5138 37.9232 82.6292C37.7197 82.7445 37.5908 83.0023 37.5908 83.3618V83.3686Z" fill="white"/>
<path d="M41.0779 81.89L41.6138 81.5644C41.7495 81.483 41.9394 81.4965 42.1497 81.6186C42.5703 81.8629 42.9095 82.4463 42.9095 82.9347C42.9095 83.1789 42.8213 83.3485 42.6856 83.4299L42.1497 83.7556C42.014 83.8302 41.8241 83.8234 41.6138 83.7013C41.1932 83.4571 40.854 82.8737 40.854 82.3852C40.854 82.141 40.9422 81.9714 41.0779 81.89Z" fill="url(#paint52_linear_43_29496)"/>
<path d="M40.854 82.3853C40.854 82.867 41.1932 83.4572 41.6138 83.7014C41.8241 83.8235 42.014 83.8371 42.1497 83.7557C42.2922 83.6743 42.3736 83.5047 42.3736 83.2604C42.3736 82.7788 42.0344 82.1886 41.6138 81.9444C41.4035 81.8223 41.2135 81.8155 41.0779 81.8901C40.9422 81.9715 40.854 82.1411 40.854 82.3853Z" fill="#F09041"/>
<path d="M32.0214 85.8926C31.7229 86.164 30.9767 87.1002 31.3634 87.4326C31.75 87.765 33.1611 88.1245 36.4037 87.2766C39.6464 86.4286 41.7358 84.6783 43.2486 83.4505C44.7614 82.2294 44.8903 81.205 43.5336 80.7166C42.1768 80.2281 40.9421 79.6583 37.6452 81.6731C34.3822 83.6743 33.1204 84.8954 32.0146 85.8859L32.0214 85.8926Z" fill="url(#paint53_linear_43_29496)"/>
<g style="mix-blend-mode:multiply" opacity="0.2">
<path d="M7.42987 73.3217C7.25349 73.3217 7.10424 73.2335 6.97535 73.091C6.29018 72.3109 6.48691 69.6177 6.51405 69.3192C6.86681 66.7889 8.3389 64.6723 9.5125 62.9696C9.61426 62.8271 9.70923 62.6846 9.80421 62.549C10.3876 61.701 10.9303 61.5246 11.2831 61.5246C12.0225 61.5246 12.6534 62.264 12.8909 63.4105C13.2233 64.9911 12.009 66.9042 11.1203 68.2949L10.9846 68.512C10.7743 68.8444 10.5165 69.326 10.2452 69.828C9.36326 71.4629 8.35925 73.3217 7.46378 73.3217H7.43665H7.42987Z" fill="black"/>
</g>
<path d="M6.68396 69.333C6.68396 69.333 6.3719 73.1116 7.43696 73.1523C8.50203 73.1998 9.99447 69.7536 10.8357 68.424C11.6769 67.0876 13.054 65.0457 12.7216 63.4447C12.3892 61.8437 11.1681 60.8668 9.94698 62.6442C8.72589 64.4216 7.05707 66.6466 6.68396 69.333Z" fill="#E3E3E4"/>
<path d="M10.8356 68.424C11.6768 67.0876 13.0539 65.0457 12.7215 63.4447C12.3891 61.8437 11.168 60.8668 9.94689 62.6442C9.70267 63.0037 9.43131 63.3836 9.16674 63.7771C9.71623 64.9439 10.3811 67.8406 7.64038 73.1184C8.68509 72.7792 10.0419 69.6655 10.8356 68.4172V68.424Z" fill="#D6D6D7"/>
<path d="M10.4626 63.5259L10.9986 63.1935C11.1342 63.1188 11.3242 63.1256 11.5345 63.2477C11.9551 63.4919 12.2943 64.0754 12.2943 64.5638C12.2943 64.808 12.2061 64.9776 12.0704 65.059L11.5345 65.3846C11.3988 65.466 11.2089 65.4525 10.9986 65.3304C10.578 65.0861 10.2388 64.5027 10.2388 64.0143C10.2388 63.7701 10.327 63.6005 10.4626 63.5191V63.5259Z" fill="url(#paint54_linear_43_29496)"/>
<path d="M10.2388 64.0215C10.2388 64.5032 10.578 65.0934 10.9986 65.3376C11.2089 65.4597 11.3988 65.4732 11.5345 65.3918C11.6769 65.3104 11.7583 65.1408 11.7583 64.8966C11.7583 64.415 11.4192 63.8248 10.9986 63.5806C10.7883 63.4584 10.5983 63.4449 10.4626 63.5263C10.327 63.6077 10.2388 63.7773 10.2388 64.0215Z" fill="#F09041"/>
<path d="M12.7691 63.9121C12.6131 63.885 12.4706 63.9121 12.3553 63.9732L8.84803 65.9948C8.64452 66.1101 8.51562 66.3679 8.51562 66.7274C8.51562 67.4465 9.01763 68.3216 9.64174 68.6812C9.9538 68.8575 10.2319 68.8779 10.4355 68.7626L10.7475 68.5794C10.7814 68.5251 10.8086 68.4776 10.8425 68.4234C11.6091 67.2159 12.803 65.4317 12.7759 63.9121H12.7691Z" fill="url(#paint55_linear_43_29496)"/>
<path d="M8.51562 66.7214C8.51562 67.4404 9.01763 68.3156 9.64174 68.6751C9.9538 68.8515 10.2319 68.8718 10.4355 68.7565C10.639 68.6412 10.7679 68.3834 10.7679 68.0239C10.7679 67.3048 10.2659 66.4364 9.64174 66.0769C9.32969 65.9005 9.05155 65.8802 8.84803 65.9955C8.64452 66.1108 8.51562 66.3686 8.51562 66.7281V66.7214Z" fill="white"/>
<path d="M6.68396 69.3335C6.68396 69.3335 6.3719 73.1121 7.43696 73.1528C8.50203 73.2003 9.99447 69.7541 10.8357 68.4244C11.6769 67.088 13.054 65.0461 12.7216 63.4451C12.3892 61.8441 11.1681 60.8672 9.94698 62.6446C8.72589 64.422 7.05707 66.6471 6.68396 69.3335Z" fill="url(#paint56_linear_43_29496)"/>
<path d="M113.949 35.556C114.228 36.1055 117.063 36.4515 117.131 36.4718C117.199 36.4922 117.307 36.716 117.355 36.967C117.382 37.1163 117.375 37.6183 117.368 37.9846C117.579 37.8218 117.701 37.5233 117.701 37.1231C117.701 36.2208 117.07 35.1286 116.29 34.6741C115.903 34.4502 115.55 34.4299 115.293 34.5723L113.882 35.3864C113.895 35.4339 113.916 35.4881 113.943 35.5424L113.949 35.556Z" fill="#CA2A3A"/>
<path d="M112.708 33.5138C113.38 33.5138 114.35 33.4663 114.757 33.4459C114.499 32.9236 114.099 32.4555 113.651 32.1977C113.265 31.9738 112.912 31.9535 112.654 32.0959L111.657 32.6726C111.548 33.1814 111.989 33.5138 112.708 33.5138Z" fill="#CA2A3A"/>
<path d="M89.1479 19.5395C89.9687 19.6006 90.7217 19.5124 91.5765 19.241C91.3594 18.9561 91.1016 18.7187 90.8303 18.5559C90.4436 18.332 90.0908 18.3116 89.833 18.4541L88.4695 19.241C88.5373 19.3767 88.7069 19.5056 89.1479 19.5395Z" fill="#CA2A3A"/>
<path d="M85.668 18.2779C86.5499 18.2779 87.269 18.1625 87.7642 17.9726C87.5335 17.647 87.2486 17.3688 86.9433 17.1925C86.5567 16.9686 86.2039 16.9482 85.9461 17.0907L84.5554 17.898C84.6979 18.0676 85.0099 18.2779 85.6748 18.2779H85.668Z" fill="#CA2A3A"/>
<path d="M63.6342 77.6912C63.6342 77.9083 63.4849 78.1661 63.295 78.2747C63.1118 78.3832 62.9558 78.295 62.9558 78.0779C62.9558 77.8608 63.1051 77.6031 63.295 77.4945C63.4849 77.386 63.6342 77.4742 63.6342 77.6912Z" fill="#E57811"/>
<path d="M63.7629 77.7522C63.7629 77.9693 63.6136 78.2271 63.4237 78.3356C63.2405 78.4442 63.0845 78.356 63.0845 78.1389C63.0845 77.9218 63.2337 77.664 63.4237 77.5555C63.6136 77.4469 63.7629 77.5351 63.7629 77.7522Z" fill="#FE912A"/>
<path d="M4.65527 83.8437C6.28339 86.6929 9.88561 89.3657 9.88561 89.3657H10.1366C10.1366 89.3657 6.73791 86.4012 4.65527 83.8437Z" fill="#2E383B"/>
<path d="M62.1757 27.4355C61.5313 27.8426 58.9738 30.7189 57.7527 32.1164C59.9642 30.9699 62.1554 29.9184 64.2923 28.9416C64.333 28.677 64.4619 27.7883 64.2787 27.4423C64.0617 27.0285 63.0305 26.9064 62.1757 27.4423V27.4355Z" fill="url(#paint57_linear_43_29496)"/>
<path d="M93.0625 46.1121C93.0625 46.1121 94.2564 45.6712 95.1383 45.9222C96.0202 46.1732 96.6783 47.1704 96.2916 48.6561C95.9049 50.1349 93.829 52.3872 93.829 52.3872C93.829 52.3872 93.5034 52.0955 93.5577 51.9055C93.612 51.7156 93.768 48.5204 93.5373 47.6113C93.3067 46.7091 92.9132 46.2546 93.0557 46.1121H93.0625Z" fill="url(#paint58_linear_43_29496)"/>
<path d="M47.5562 95.2196C47.5562 95.2196 43.4249 97.3226 39.2325 98.4148C35.0401 99.507 31.8449 98.598 29.206 98.0281C25.2781 97.1869 20.3395 95.0432 18.9895 94.3242L19.2066 94.8533L19.4169 95.0229C24.498 97.5329 29.3823 99.1 34.5652 99.5681C39.748 100.036 47.1492 96.4475 47.1492 96.4475L47.563 95.2264L47.5562 95.2196Z" fill="#2E383B"/>
<path d="M33.5273 95.5323C33.4256 94.8268 31.6346 92.5474 24.783 92.0658C24.2267 92.025 23.2295 91.9165 22.2119 91.869C21.2757 91.9233 20.5227 92.1132 20.3667 92.5678C19.9664 93.7074 22.7139 94.881 23.684 95.2813C24.5998 95.6612 29.5317 97.3232 32.2384 97.2825C33.3374 96.8687 33.602 96.0546 33.5273 95.5323Z" fill="url(#paint59_linear_43_29496)"/>
<path d="M27.1367 92.3235C27.0621 92.3913 27.0078 92.4727 26.9739 92.5609C26.5737 93.7006 28.8327 94.5689 30.5219 95.0438C30.9357 95.1591 32.1025 95.3152 33.5135 95.4576C33.3371 94.786 31.8786 93.0697 27.1367 92.3235Z" fill="#2E383B"/>
<path d="M4.70968 78.4098C4.39084 77.8196 4.02451 77.1413 3.70567 76.8903C3.55642 77.9146 3.93632 80.7367 5.4152 82.9347C6.24282 84.1625 8.67144 87.0253 9.75685 87.3713C9.89931 86.3741 8.16265 84.0676 7.53854 83.0975C6.85337 82.0256 5.17776 79.2782 4.70968 78.4098Z" fill="url(#paint60_linear_43_29496)"/>
<path d="M64.8419 64.6044C64.8419 64.6044 64.0481 65.0861 64.0278 65.2625C64.0074 65.4389 64.0617 65.9341 64.3263 65.9612C64.5976 65.9883 65.2557 66.0765 65.2557 66.0765C65.2557 66.0765 64.4755 66.5446 64.5569 66.7753C64.6316 67.0059 64.5705 67.2841 64.9029 67.2773C65.2285 67.2705 66.3614 67.2773 67.1959 67.5147C68.037 67.7454 70.5199 68.1863 71.9581 67.8743C73.3963 67.5622 73.4234 67.0466 73.4234 66.7074C73.4234 66.3682 73.5387 65.9341 72.4126 65.3642C71.2865 64.7944 68.4916 63.9939 67.976 64.211C67.4604 64.4281 67.5079 64.9708 66.5039 64.8826C65.4931 64.7944 64.8486 64.5977 64.8486 64.5977L64.8419 64.6044Z" fill="#E1E8EC"/>
<g style="mix-blend-mode:multiply" opacity="0.3">
<path d="M71.9579 67.8812C73.3961 67.5692 73.4232 67.0536 73.4232 66.7144C73.4232 66.5787 73.4436 66.4227 73.3893 66.2531C72.7923 66.9654 71.8087 66.789 70.4587 66.6126C68.9595 66.4227 67.7384 65.9885 66.809 65.7036C66.1238 65.4933 64.7196 65.3237 64.0344 65.2491C64.0344 65.2491 64.0344 65.2559 64.0344 65.2627C64.014 65.439 64.0683 65.9343 64.3329 65.9614C64.6042 65.9885 65.2623 66.0767 65.2623 66.0767C65.2623 66.0767 66.0085 66.1785 66.463 66.3074C66.9175 66.4363 66.8225 66.6669 66.6326 66.7619C66.4766 66.8365 65.113 66.789 64.5635 66.7687C64.6381 66.9993 64.5771 67.2775 64.9095 67.2707C65.2351 67.2639 66.368 67.2707 67.2024 67.5081C68.0436 67.7388 70.5265 68.1797 71.9647 67.8676L71.9579 67.8812Z" fill="black"/>
</g>
<path d="M32.374 47.4344C33.6086 46.756 34.4566 46.2947 34.4566 46.2947C34.4566 46.2947 34.4566 46.2947 34.477 46.2811L33.2423 44.9176C33.2423 44.9176 33.2423 43.1131 32.5096 42.0955C31.777 41.0847 31.0918 40.6709 30.9697 40.6709C30.8476 40.6709 29.7283 41.4443 29.7283 42.299C29.7283 43.1538 29.9521 44.5309 30.2778 45.0193C30.5152 45.3789 31.7431 46.7492 32.3672 47.4412L32.374 47.4344Z" fill="#E1E8EC"/>
<g style="mix-blend-mode:multiply" opacity="0.3">
<path d="M32.9645 47.1087C33.1477 47.0069 33.3173 46.912 33.4801 46.8306C32.761 46.0708 31.6281 44.8904 30.9768 44.2527C30.1764 43.4793 29.8439 42.6314 29.81 41.9191C29.7693 42.0412 29.7422 42.1633 29.7422 42.2922C29.7422 43.1469 29.9661 44.5241 30.2917 45.0125C30.5291 45.372 31.757 46.7424 32.3811 47.4343C32.4625 47.3868 32.5371 47.3461 32.6118 47.3054L31.6077 46.1318C31.6077 46.1318 30.9158 45.4399 31.099 45.2364C31.2211 45.1007 32.2793 46.2946 32.9713 47.1087H32.9645Z" fill="black"/>
</g>
<g style="mix-blend-mode:multiply" opacity="0.2">
<path d="M65.1871 83.4834V80.9531L64.4477 75.336C64.4477 75.336 64.3052 72.8396 63.5929 72.0187C62.8738 71.1979 61.4289 70.2685 61.4153 70.2617L61.4696 70.1735C61.4696 70.1735 62.9416 71.1165 63.6743 71.9509C64.407 72.7921 64.5494 75.2207 64.5562 75.3225L65.2956 80.9395V83.3003C66.4625 82.588 80.4236 74.0403 82.2959 72.6429C84.2293 71.1979 84.6771 68.8846 84.6771 68.8643L84.7788 68.8846C84.7788 68.8846 84.3243 71.259 82.357 72.7243C80.41 74.1828 65.4245 83.341 65.2685 83.4359L65.1939 83.4834H65.1871Z" fill="black"/>
</g>
<g style="mix-blend-mode:multiply" opacity="0.2">
<path d="M85.7562 68.3478L85.6612 68.3275C85.668 68.2868 86.6177 64.0672 86.9841 62.0117L87.0315 61.7472C87.364 59.8748 87.5268 58.9319 87.0587 57.5819C86.577 56.1912 83.7278 54.4138 83.7007 54.3935L83.755 54.3053C83.8703 54.3799 86.6584 56.1234 87.1537 57.5412C87.6285 58.9183 87.4589 59.8613 87.1265 61.754L87.079 62.0185C86.7195 64.074 85.7698 68.2936 85.7562 68.3411V68.3478Z" fill="black"/>
</g>
<g style="mix-blend-mode:multiply" opacity="0.2">
<path d="M23.8396 84.9697C23.0391 84.9697 22.0623 84.8204 20.909 84.3931C16.5199 82.7853 13.5418 80.0718 12.7345 79.278C11.4388 78.0027 11.8865 76.2525 13.0398 73.8442C14.8239 70.0995 22.9374 59.0215 27.4147 55.9891L27.469 56.0705C23.0052 59.0961 14.9053 70.1538 13.128 73.8849C11.778 76.7205 11.6898 78.1112 12.8023 79.2034C13.6096 79.9903 16.5741 82.6971 20.9429 84.2981C24.8572 85.7295 26.6753 83.9928 26.6888 83.9725L32.0074 80.6212L50.7104 70.2691L50.7579 70.3573L32.0616 80.7094L26.7499 84.0471C26.7499 84.0471 25.8002 84.9629 23.8328 84.9629L23.8396 84.9697Z" fill="black"/>
</g>
<g style="mix-blend-mode:multiply" opacity="0.2">
<path d="M110.809 29.4034C109.805 30.0411 106.969 31.8252 105.701 32.4493L105.748 32.5375C107.024 31.9134 109.866 30.1225 110.87 29.4848C110.85 29.4577 110.836 29.4305 110.816 29.4034H110.809Z" fill="black"/>
</g>
<g style="mix-blend-mode:multiply" opacity="0.2">
<path d="M94.3921 19.8784C93.2796 20.2854 90.5999 21.2216 87.7507 21.805L87.7711 21.8999C90.7695 21.2826 93.5916 20.2786 94.5888 19.9055C94.5278 19.8987 94.4599 19.8851 94.3921 19.8716V19.8784Z" fill="black"/>
</g>
<g style="mix-blend-mode:multiply" opacity="0.2">
<path d="M49.3608 84.5625C48.0041 85.207 44.7411 86.7333 42.5227 87.5813C42.3124 87.6627 42.1021 87.7441 41.8918 87.8255C39.2665 88.8431 37.0007 89.725 32.2181 89.5826C27.0963 89.4333 19.9597 87.1879 14.4512 83.9927C9.14626 80.9128 4.68928 74.2646 5.2252 71.5511L5.17772 71.5308C4.62823 74.2714 9.06486 80.9739 14.397 84.0741C19.9122 87.2828 27.0759 89.5351 32.2113 89.6775C32.5437 89.6843 32.8626 89.6911 33.1746 89.6911C37.3263 89.6911 39.47 88.8635 41.919 87.9137C42.1225 87.8323 42.3328 87.7509 42.5431 87.6695C44.6868 86.8487 47.8074 85.3969 49.2387 84.7185C49.2727 84.6643 49.3066 84.61 49.3405 84.5557L49.3608 84.5625Z" fill="black"/>
</g>
<g style="mix-blend-mode:multiply" opacity="0.2">
<path d="M85.0173 57.6175C84.7527 57.6175 84.5492 57.5497 84.4 57.414C84.2779 57.3055 84.2168 57.1562 84.2168 56.9866C84.2168 56.3015 85.1665 55.3789 85.2072 55.3382C85.2344 55.3178 85.8381 54.8022 86.4351 54.8022C86.6861 54.8022 86.9032 54.8972 87.0728 55.0872C87.7512 55.8334 86.8693 56.9731 86.8557 56.9866C86.8557 56.9866 85.8042 57.6175 85.0173 57.6175ZM86.4419 54.8565C85.8653 54.8565 85.2547 55.3721 85.2479 55.3789C85.2412 55.3857 84.2643 56.3218 84.2711 56.9866C84.2711 57.1427 84.3253 57.2716 84.4339 57.3733C84.5696 57.5022 84.7663 57.5633 85.0173 57.5633C85.7635 57.5633 86.754 56.9934 86.8286 56.9459C86.8828 56.8781 87.6766 55.813 87.0457 55.1143C86.8828 54.9379 86.6793 54.8497 86.4419 54.8497V54.8565Z" fill="black"/>
</g>
<g style="mix-blend-mode:multiply" opacity="0.2">
<path d="M18.698 92.5335C14.1054 90.4033 11.1544 88.3546 9.4856 87.0114C9.47203 86.9979 9.34314 86.9097 9.20068 86.9097C9.07178 86.9097 8.8547 86.9775 8.86148 87.4592L8.88183 88.7074C8.8954 89.3383 9.45846 89.7182 9.47203 89.7317C11.1137 91.0478 14.0172 93.049 18.481 95.1385C18.4945 95.1385 18.7048 95.2538 18.9151 95.2538C19.1797 95.2538 19.3289 95.0842 19.3222 94.7925L19.3018 93.4289C19.2882 92.8727 18.8948 92.6013 18.698 92.5403V92.5335Z" fill="black"/>
</g>
<path d="M18.6163 92.7504C13.9897 90.6 11.0184 88.5445 9.34278 87.1945C9.32921 87.1877 9.25459 87.1402 9.20032 87.1402C9.09856 87.1402 9.09178 87.3573 9.09856 87.4523L9.11892 88.7005C9.1257 89.2093 9.60057 89.5281 9.60735 89.5281C11.249 90.8374 14.139 92.8318 18.5824 94.9145C18.5824 94.9145 18.7587 95.0027 18.908 95.0027C18.9962 95.0027 19.0912 94.9891 19.0844 94.772L19.064 93.4085C19.0572 92.8861 18.6231 92.7436 18.6163 92.7436V92.7504Z" fill="white"/>
<defs>
<linearGradient id="paint0_linear_43_29496" x1="52.8817" y1="92.4794" x2="56.4432" y2="80.3973" gradientUnits="userSpaceOnUse">
<stop stop-color="#F3F5F7"/>
<stop offset="1" stop-color="#999D9E"/>
</linearGradient>
<linearGradient id="paint1_linear_43_29496" x1="51.5049" y1="87.269" x2="56.1789" y2="87.269" gradientUnits="userSpaceOnUse">
<stop stop-color="#D0D2D4"/>
<stop offset="1" stop-color="#86898B"/>
</linearGradient>
<linearGradient id="paint2_linear_43_29496" x1="53.0854" y1="92.9136" x2="58.2411" y2="82.3511" gradientUnits="userSpaceOnUse">
<stop stop-color="#D0D2D4"/>
<stop offset="1" stop-color="#86898B"/>
</linearGradient>
<linearGradient id="paint3_linear_43_29496" x1="49.4963" y1="87.2697" x2="58.7901" y2="87.2697" gradientUnits="userSpaceOnUse">
<stop stop-color="#D0D2D4"/>
<stop offset="1" stop-color="#86898B"/>
</linearGradient>
<linearGradient id="paint4_linear_43_29496" x1="55.941" y1="87.2893" x2="51.4569" y2="87.2893" gradientUnits="userSpaceOnUse">
<stop stop-color="#D0D2D4"/>
<stop offset="1" stop-color="#86898B"/>
</linearGradient>
<linearGradient id="paint5_linear_43_29496" x1="56.3414" y1="80.0987" x2="47.5224" y2="91.889" gradientUnits="userSpaceOnUse">
<stop stop-color="#D0D2D4"/>
<stop offset="1" stop-color="#86898B"/>
</linearGradient>
<linearGradient id="paint6_linear_43_29496" x1="56.3483" y1="80.0922" x2="47.5158" y2="91.8893" gradientUnits="userSpaceOnUse">
<stop stop-color="#D0D2D4"/>
<stop offset="1" stop-color="#86898B"/>
</linearGradient>
<linearGradient id="paint7_linear_43_29496" x1="57.1218" y1="80.676" x2="48.296" y2="92.4731" gradientUnits="userSpaceOnUse">
<stop stop-color="#D0D2D4"/>
<stop offset="1" stop-color="#86898B"/>
</linearGradient>
<linearGradient id="paint8_linear_43_29496" x1="57.1356" y1="80.6829" x2="48.3098" y2="92.48" gradientUnits="userSpaceOnUse">
<stop stop-color="#D0D2D4"/>
<stop offset="1" stop-color="#86898B"/>
</linearGradient>
<linearGradient id="paint9_linear_43_29496" x1="58.4102" y1="81.6326" x2="49.5776" y2="93.4364" gradientUnits="userSpaceOnUse">
<stop stop-color="#D0D2D4"/>
<stop offset="1" stop-color="#86898B"/>
</linearGradient>
<linearGradient id="paint10_linear_43_29496" x1="58.3565" y1="81.5983" x2="49.5307" y2="93.3954" gradientUnits="userSpaceOnUse">
<stop stop-color="#D0D2D4"/>
<stop offset="1" stop-color="#86898B"/>
</linearGradient>
<linearGradient id="paint11_linear_43_29496" x1="60.2556" y1="83.016" x2="51.423" y2="94.8199" gradientUnits="userSpaceOnUse">
<stop stop-color="#D0D2D4"/>
<stop offset="1" stop-color="#86898B"/>
</linearGradient>
<linearGradient id="paint12_linear_43_29496" x1="59.611" y1="82.5274" x2="50.7784" y2="94.3312" gradientUnits="userSpaceOnUse">
<stop stop-color="#D0D2D4"/>
<stop offset="1" stop-color="#86898B"/>
</linearGradient>
<linearGradient id="paint13_linear_43_29496" x1="60.2352" y1="82.9953" x2="51.4026" y2="94.7991" gradientUnits="userSpaceOnUse">
<stop stop-color="#D0D2D4"/>
<stop offset="1" stop-color="#86898B"/>
</linearGradient>
<linearGradient id="paint14_linear_43_29496" x1="59.5367" y1="82.4727" x2="50.7041" y2="94.2765" gradientUnits="userSpaceOnUse">
<stop stop-color="#D0D2D4"/>
<stop offset="1" stop-color="#86898B"/>
</linearGradient>
<linearGradient id="paint15_linear_43_29496" x1="52.5902" y1="86.9442" x2="55.012" y2="87.7379" gradientUnits="userSpaceOnUse">
<stop stop-color="#D0D2D4"/>
<stop offset="1" stop-color="#86898B"/>
</linearGradient>
<linearGradient id="paint16_linear_43_29496" x1="55.3034" y1="87.9889" x2="52.6985" y2="86.7407" gradientUnits="userSpaceOnUse">
<stop stop-color="#D0D2D4"/>
<stop offset="1" stop-color="#86898B"/>
</linearGradient>
<linearGradient id="paint17_linear_43_29496" x1="105.829" y1="61.6263" x2="109.384" y2="49.5375" gradientUnits="userSpaceOnUse">
<stop stop-color="#F3F5F7"/>
<stop offset="1" stop-color="#999D9E"/>
</linearGradient>
<linearGradient id="paint18_linear_43_29496" x1="104.446" y1="56.4103" x2="109.127" y2="56.4103" gradientUnits="userSpaceOnUse">
<stop stop-color="#D0D2D4"/>
<stop offset="1" stop-color="#86898B"/>
</linearGradient>
<linearGradient id="paint19_linear_43_29496" x1="106.026" y1="62.0537" x2="111.182" y2="51.4981" gradientUnits="userSpaceOnUse">
<stop stop-color="#D0D2D4"/>
<stop offset="1" stop-color="#86898B"/>
</linearGradient>
<linearGradient id="paint20_linear_43_29496" x1="102.444" y1="56.4097" x2="111.738" y2="56.4097" gradientUnits="userSpaceOnUse">
<stop stop-color="#D0D2D4"/>
<stop offset="1" stop-color="#86898B"/>
</linearGradient>
<linearGradient id="paint21_linear_43_29496" x1="108.882" y1="56.4307" x2="104.405" y2="56.4307" gradientUnits="userSpaceOnUse">
<stop stop-color="#D0D2D4"/>
<stop offset="1" stop-color="#86898B"/>
</linearGradient>
<linearGradient id="paint22_linear_43_29496" x1="109.296" y1="49.2321" x2="100.463" y2="61.036" gradientUnits="userSpaceOnUse">
<stop stop-color="#D0D2D4"/>
<stop offset="1" stop-color="#86898B"/>
</linearGradient>
<linearGradient id="paint23_linear_43_29496" x1="109.296" y1="49.2324" x2="100.457" y2="61.0363" gradientUnits="userSpaceOnUse">
<stop stop-color="#D0D2D4"/>
<stop offset="1" stop-color="#86898B"/>
</linearGradient>
<linearGradient id="paint24_linear_43_29496" x1="110.07" y1="49.8162" x2="101.244" y2="61.6133" gradientUnits="userSpaceOnUse">
<stop stop-color="#D0D2D4"/>
<stop offset="1" stop-color="#86898B"/>
</linearGradient>
<linearGradient id="paint25_linear_43_29496" x1="110.083" y1="49.823" x2="101.257" y2="61.6201" gradientUnits="userSpaceOnUse">
<stop stop-color="#D0D2D4"/>
<stop offset="1" stop-color="#86898B"/>
</linearGradient>
<linearGradient id="paint26_linear_43_29496" x1="111.358" y1="50.7795" x2="102.526" y2="62.5766" gradientUnits="userSpaceOnUse">
<stop stop-color="#D0D2D4"/>
<stop offset="1" stop-color="#86898B"/>
</linearGradient>
<linearGradient id="paint27_linear_43_29496" x1="111.304" y1="50.7383" x2="102.472" y2="62.5354" gradientUnits="userSpaceOnUse">
<stop stop-color="#D0D2D4"/>
<stop offset="1" stop-color="#86898B"/>
</linearGradient>
<linearGradient id="paint28_linear_43_29496" x1="113.203" y1="52.1562" x2="104.371" y2="63.9601" gradientUnits="userSpaceOnUse">
<stop stop-color="#D0D2D4"/>
<stop offset="1" stop-color="#86898B"/>
</linearGradient>
<linearGradient id="paint29_linear_43_29496" x1="112.552" y1="51.6743" x2="103.726" y2="63.4714" gradientUnits="userSpaceOnUse">
<stop stop-color="#D0D2D4"/>
<stop offset="1" stop-color="#86898B"/>
</linearGradient>
<linearGradient id="paint30_linear_43_29496" x1="113.183" y1="52.1422" x2="104.351" y2="63.9393" gradientUnits="userSpaceOnUse">
<stop stop-color="#D0D2D4"/>
<stop offset="1" stop-color="#86898B"/>
</linearGradient>
<linearGradient id="paint31_linear_43_29496" x1="112.484" y1="51.6209" x2="103.652" y2="63.4181" gradientUnits="userSpaceOnUse">
<stop stop-color="#D0D2D4"/>
<stop offset="1" stop-color="#86898B"/>
</linearGradient>
<linearGradient id="paint32_linear_43_29496" x1="105.538" y1="56.091" x2="107.96" y2="56.8779" gradientUnits="userSpaceOnUse">
<stop stop-color="#D0D2D4"/>
<stop offset="1" stop-color="#86898B"/>
</linearGradient>
<linearGradient id="paint33_linear_43_29496" x1="108.251" y1="57.136" x2="105.646" y2="55.881" gradientUnits="userSpaceOnUse">
<stop stop-color="#D0D2D4"/>
<stop offset="1" stop-color="#86898B"/>
</linearGradient>
<radialGradient id="paint34_radial_43_29496" cx="0" cy="0" r="1" gradientUnits="userSpaceOnUse" gradientTransform="translate(71.191 101.474) scale(71.0336 71.0336)">
<stop offset="0.95" stop-color="white"/>
<stop offset="1"/>
</radialGradient>
<linearGradient id="paint35_linear_43_29496" x1="62.053" y1="33.3247" x2="60.3639" y2="30.0074" gradientUnits="userSpaceOnUse">
<stop stop-color="white"/>
<stop offset="1"/>
</linearGradient>
<linearGradient id="paint36_linear_43_29496" x1="104.249" y1="40.2442" x2="102.152" y2="37.2932" gradientUnits="userSpaceOnUse">
<stop stop-color="white"/>
<stop offset="1"/>
</linearGradient>
<linearGradient id="paint37_linear_43_29496" x1="75.3567" y1="64.537" x2="77.1273" y2="67.0605" gradientUnits="userSpaceOnUse">
<stop stop-color="white"/>
<stop offset="1"/>
</linearGradient>
<radialGradient id="paint38_radial_43_29496" cx="0" cy="0" r="1" gradientUnits="userSpaceOnUse" gradientTransform="translate(80.9871 144.39) scale(78.835)">
<stop offset="0.96" stop-color="white"/>
<stop offset="1"/>
</radialGradient>
<linearGradient id="paint39_linear_43_29496" x1="45.8535" y1="92.154" x2="41.6068" y2="92.6153" gradientUnits="userSpaceOnUse">
<stop stop-color="white"/>
<stop offset="1"/>
</linearGradient>
<linearGradient id="paint40_linear_43_29496" x1="76.1636" y1="22.993" x2="74.9697" y2="20.578" gradientUnits="userSpaceOnUse">
<stop stop-color="white"/>
<stop offset="1"/>
</linearGradient>
<linearGradient id="paint41_linear_43_29496" x1="98.2453" y1="35.5224" x2="101.407" y2="35.5224" gradientUnits="userSpaceOnUse">
<stop stop-color="#E9E9E9"/>
<stop offset="1" stop-color="#586770"/>
</linearGradient>
<linearGradient id="paint42_linear_43_29496" x1="102.695" y1="33.2969" x2="103.292" y2="33.921" gradientUnits="userSpaceOnUse">
<stop stop-color="#E9E9E9"/>
<stop offset="1" stop-color="#586770"/>
</linearGradient>
<linearGradient id="paint43_linear_43_29496" x1="86.2646" y1="39.6399" x2="90.0568" y2="39.6399" gradientUnits="userSpaceOnUse">
<stop stop-color="#E9E9E9"/>
<stop offset="1" stop-color="#586770"/>
</linearGradient>
<linearGradient id="paint44_linear_43_29496" x1="94.3787" y1="37.2589" x2="97.8927" y2="37.2589" gradientUnits="userSpaceOnUse">
<stop stop-color="#E9E9E9"/>
<stop offset="1" stop-color="#586770"/>
</linearGradient>
<linearGradient id="paint45_linear_43_29496" x1="90.4436" y1="38.6833" x2="94.0119" y2="38.6833" gradientUnits="userSpaceOnUse">
<stop stop-color="#E9E9E9"/>
<stop offset="1" stop-color="#586770"/>
</linearGradient>
<linearGradient id="paint46_linear_43_29496" x1="83.762" y1="23.1888" x2="87.432" y2="23.1888" gradientUnits="userSpaceOnUse">
<stop stop-color="#E9E9E9"/>
<stop offset="1" stop-color="#586770"/>
</linearGradient>
<linearGradient id="paint47_linear_43_29496" x1="79.271" y1="24.3974" x2="83.0292" y2="24.3974" gradientUnits="userSpaceOnUse">
<stop stop-color="#E9E9E9"/>
<stop offset="1" stop-color="#586770"/>
</linearGradient>
<linearGradient id="paint48_linear_43_29496" x1="71.103" y1="27.1512" x2="74.7663" y2="27.1512" gradientUnits="userSpaceOnUse">
<stop stop-color="#E9E9E9"/>
<stop offset="1" stop-color="#586770"/>
</linearGradient>
<linearGradient id="paint49_linear_43_29496" x1="75.0244" y1="25.6988" x2="78.6945" y2="25.6988" gradientUnits="userSpaceOnUse">
<stop stop-color="#E9E9E9"/>
<stop offset="1" stop-color="#586770"/>
</linearGradient>
<linearGradient id="paint50_linear_43_29496" x1="67.6436" y1="28.6365" x2="71.0219" y2="28.6365" gradientUnits="userSpaceOnUse">
<stop stop-color="#E9E9E9"/>
<stop offset="1" stop-color="#586770"/>
</linearGradient>
<linearGradient id="paint51_linear_43_29496" x1="37.5908" y1="83.4912" x2="41.6543" y2="83.4912" gradientUnits="userSpaceOnUse">
<stop stop-color="#FAFFFF"/>
<stop offset="1" stop-color="#D4D7D9"/>
</linearGradient>
<linearGradient id="paint52_linear_43_29496" x1="40.854" y1="82.6566" x2="42.9027" y2="82.6566" gradientUnits="userSpaceOnUse">
<stop stop-color="#FAFFFF"/>
<stop offset="1" stop-color="#D4D7D9"/>
</linearGradient>
<linearGradient id="paint53_linear_43_29496" x1="36.8108" y1="82.9688" x2="39.1783" y2="86.1369" gradientUnits="userSpaceOnUse">
<stop stop-color="white"/>
<stop offset="1" stop-color="white"/>
</linearGradient>
<linearGradient id="paint54_linear_43_29496" x1="10.2388" y1="64.2924" x2="12.2875" y2="64.2924" gradientUnits="userSpaceOnUse">
<stop stop-color="#FAFFFF"/>
<stop offset="1" stop-color="#D4D7D9"/>
</linearGradient>
<linearGradient id="paint55_linear_43_29496" x1="8.51562" y1="66.3611" x2="12.7691" y2="66.3611" gradientUnits="userSpaceOnUse">
<stop stop-color="#FAFFFF"/>
<stop offset="1" stop-color="#D4D7D9"/>
</linearGradient>
<linearGradient id="paint56_linear_43_29496" x1="11.7379" y1="67.7935" x2="6.26336" y2="66.932" gradientUnits="userSpaceOnUse">
<stop stop-color="white"/>
<stop offset="1" stop-color="white"/>
</linearGradient>
<linearGradient id="paint57_linear_43_29496" x1="64.2584" y1="28.582" x2="57.0879" y2="30.4815" gradientUnits="userSpaceOnUse">
<stop stop-color="#394142"/>
<stop offset="1" stop-color="#7A8B8F"/>
</linearGradient>
<linearGradient id="paint58_linear_43_29496" x1="96.3866" y1="48.3033" x2="91.7125" y2="49.8093" gradientUnits="userSpaceOnUse">
<stop stop-color="#394142"/>
<stop offset="1" stop-color="#7A8B8F"/>
</linearGradient>
<linearGradient id="paint59_linear_43_29496" x1="26.9674" y1="92.215" x2="26.9199" y2="95.0574" gradientUnits="userSpaceOnUse">
<stop stop-color="#394142"/>
<stop offset="0.51" stop-color="#7A8B8F"/>
<stop offset="1" stop-color="#515B5E"/>
</linearGradient>
<linearGradient id="paint60_linear_43_29496" x1="5.74082" y1="78.2674" x2="6.76518" y2="82.8736" gradientUnits="userSpaceOnUse">
<stop stop-color="#394142"/>
<stop offset="0.51" stop-color="#7A8B8F"/>
<stop offset="1" stop-color="#515B5E"/>
</linearGradient>
</defs>
</svg>
