<svg width="120" height="120" viewBox="0 0 120 120" fill="none" xmlns="http://www.w3.org/2000/svg">
<g clip-path="url(#clip0_43_31919)">
<path d="M77.5076 77.2023L58.0388 87.3227V84.9603L77.5076 74.838V77.2023Z" fill="#404B4D"/>
<path d="M76.404 74.016L56.937 84.1383L58.039 84.9602L77.5078 74.8379L76.404 74.016Z" fill="#677274"/>
<path d="M58.1936 87.2895L39.3422 98.5156L39.2058 96.1569L58.0554 84.929L58.1936 87.2895Z" fill="#404B4D"/>
<path d="M57.8437 84.1051L38.9922 95.3312L39.2059 96.1568L58.0556 84.9288L57.8437 84.1051Z" fill="#677274"/>
<path d="M109.223 68.5154L110.313 67.887L82.5734 51.8698L81.4844 52.5L109.223 68.5154Z" fill="#677274"/>
<path d="M109.223 69.7095L110.312 69.0792V67.887L109.223 68.5153V69.7095Z" fill="#404B4D"/>
<path d="M109.223 69.7096V68.5155L81.4844 52.5V53.6941L109.223 69.7096Z" fill="#273234"/>
<path d="M80.2571 63.3816C80.2571 63.6819 80.0415 63.8072 79.7798 63.6635L73.8498 60.3779C73.5882 60.2323 73.3726 59.8692 73.3726 59.5689V54.8127C73.3726 54.5123 73.5863 54.387 73.8498 54.5326L79.7798 57.8183C80.0415 57.9638 80.2571 58.3269 80.2571 58.6272V63.3834V63.3816Z" fill="#0E191B"/>
<path d="M70.7744 54.1198L80.5834 59.7826L79.6012 56.8692L73.8961 53.2537L70.7744 54.1198Z" fill="#0E191B"/>
<path d="M77.9353 57.3483L74.8008 55.6677C73.8462 55.1241 72.5305 55.207 71.0766 56.0455C68.1576 57.7316 65.7915 61.8281 65.7915 65.1985C65.7915 66.8938 66.3904 68.0824 67.3579 68.6297L70.4924 70.3103C71.4469 70.8521 72.7627 70.7673 74.2129 69.9307C77.1319 68.2464 79.498 64.1481 79.498 60.7777C79.498 59.086 78.9009 57.8975 77.9372 57.3483H77.9353Z" fill="#2E373A"/>
<path d="M79.496 60.7757C79.496 64.1461 77.1299 68.2444 74.211 69.9287C72.7607 70.7653 71.4468 70.8501 70.4904 70.3083C69.523 69.761 68.9241 68.5724 68.9241 66.8771C68.9241 63.5067 71.2902 59.4084 74.2091 57.7241C75.6631 56.8856 76.9769 56.8027 77.9333 57.3463C78.8971 57.8954 79.4942 59.0822 79.4942 60.7757H79.496Z" fill="#555E61"/>
<path d="M79.1717 61.1686C79.1717 64.2386 77.0156 67.9739 74.3547 69.5108C71.6956 71.0458 69.5396 69.8019 69.5396 66.73C69.5396 63.6581 71.6956 59.9247 74.3547 58.3897C77.0138 56.8528 79.1717 58.0985 79.1717 61.1704V61.1686Z" fill="#3B4447"/>
<path d="M77.5925 61.9923C77.5925 64.0562 76.1441 66.5661 74.3548 67.598C72.5673 68.63 71.1189 67.7934 71.1189 65.7276C71.1189 63.6637 72.5673 61.1539 74.3548 60.1219C76.1441 59.09 77.5925 59.9266 77.5925 61.9905V61.9923Z" fill="url(#paint0_linear_43_31919)"/>
<path d="M77.2995 62.1618C77.2995 64.0395 75.9819 66.3227 74.3548 67.2607C72.7294 68.1986 71.4119 67.4376 71.4119 65.5617C71.4119 63.6839 72.7294 61.4007 74.3548 60.4627C75.9819 59.5229 77.2995 60.2858 77.2995 62.1618Z" fill="url(#paint1_linear_43_31919)"/>
<path d="M75.7646 60.0628C75.3463 60.0406 74.8672 60.1678 74.3567 60.4626C72.7314 61.4006 71.4138 63.6838 71.4138 65.5616C71.4138 66.1568 71.5465 66.6396 71.7805 66.9915C72.1988 67.0136 72.678 66.8865 73.1884 66.5917C74.8156 65.6537 76.1313 63.3705 76.1313 61.4927C76.1313 60.8975 75.9986 60.4147 75.7646 60.0628Z" fill="url(#paint2_linear_43_31919)"/>
<path d="M75.3831 60.083C75.0625 60.1291 74.7179 60.2544 74.3567 60.4626C72.7314 61.4006 71.4138 63.6838 71.4138 65.5616C71.4138 65.9836 71.482 66.3503 71.6036 66.6525C72.0496 66.7667 72.5969 66.6709 73.1884 66.33C74.6884 65.4639 75.9046 63.3576 75.9046 61.6236C75.9046 60.9344 75.7093 60.411 75.3831 60.0812V60.083Z" fill="url(#paint3_linear_43_31919)"/>
<path d="M71.4119 65.5614C71.4119 65.7162 71.4211 65.8599 71.4377 66C71.738 65.9871 72.0734 65.8839 72.4254 65.6812C73.7374 64.9257 74.7989 63.0847 74.7989 61.5718C74.7989 61.0761 74.6846 60.6781 74.4838 60.3925C74.4414 60.4146 74.399 60.4385 74.3548 60.4625C72.7294 61.4004 71.4119 63.6836 71.4119 65.5614Z" fill="url(#paint4_linear_43_31919)"/>
<path d="M74.2829 62.7641C74.2829 63.4681 73.7891 64.3231 73.181 64.6751C72.571 65.027 72.0771 64.7414 72.0771 64.0375C72.0771 63.3335 72.5692 62.4785 73.181 62.1265C73.7891 61.7746 74.2829 62.0602 74.2829 62.7641Z" fill="url(#paint5_linear_43_31919)"/>
<path d="M66.982 71.8969C66.982 72.1954 66.7682 72.3226 66.5065 72.177L60.5765 68.8913C60.3148 68.7458 60.1011 68.3827 60.1011 68.0824V63.3262C60.1011 63.0277 60.3148 62.9005 60.5765 63.0461L66.5065 66.3317C66.7682 66.4773 66.982 66.8403 66.982 67.1389V71.895V71.8969Z" fill="#0E191B"/>
<path d="M60.7568 62.6556L57.6223 60.975C56.6659 60.4314 55.352 60.5143 53.8981 61.3527C50.981 63.037 48.613 67.1353 48.613 70.5057C48.613 72.2011 49.2119 73.3897 50.1794 73.937L53.3139 75.6176C54.2703 76.1575 55.5824 76.0746 57.0326 75.238C59.9516 73.5518 62.3177 69.4535 62.3177 66.085C62.3177 64.3933 61.7206 63.2047 60.7568 62.6556Z" fill="#2E373A"/>
<path d="M62.3179 66.0849C62.3179 69.4553 59.9518 73.5536 57.0328 75.2379C55.5826 76.0745 54.2687 76.1593 53.3142 75.6175C52.3467 75.0702 51.7478 73.8816 51.7478 72.1863C51.7478 68.814 54.1139 64.7176 57.0328 63.0314C58.4849 62.193 59.8007 62.1101 60.7571 62.6537C61.7208 63.2028 62.3179 64.3896 62.3179 66.0831V66.0849Z" fill="#555E61"/>
<path d="M61.9936 66.4773C61.9936 69.5492 59.8375 73.2827 57.1784 74.8177C54.5193 76.3527 52.3633 75.1088 52.3633 72.037C52.3633 68.9651 54.5193 65.2316 57.1784 63.6966C59.8375 62.1597 61.9936 63.4055 61.9936 66.4755V66.4773Z" fill="#3B4447"/>
<path d="M57.6943 61.6751L67.5034 67.3379L66.5193 64.4226L60.816 60.809L57.6943 61.6751Z" fill="#0E191B"/>
<path d="M78.9321 55.4539H78.9358L78.9008 55.4337C78.8455 55.4005 78.7884 55.3673 78.7313 55.336L72.4456 51.7131C71.2847 51.1603 69.7386 51.3059 68.0414 52.2844C64.4314 54.3685 61.5051 59.438 61.5051 63.6045C61.5051 63.68 61.507 63.7519 61.5088 63.8238L67.6655 67.3784L68.5721 66.8551C68.5721 66.7814 68.5666 66.7095 68.5666 66.6358C68.5666 63.0461 71.0875 58.6788 74.1962 56.8839C77.305 55.0891 79.8259 56.543 79.8259 60.1345C79.8259 60.2101 79.824 60.2857 79.8203 60.3594L80.727 59.836C80.7288 59.7605 80.7325 59.6849 80.7325 59.6112C80.7325 57.5952 80.047 56.1597 78.9303 55.4502L78.9321 55.4539Z" fill="url(#paint6_linear_43_31919)"/>
<path d="M68.5721 66.8572C68.5721 66.7835 68.5665 66.7116 68.5665 66.6379C68.5665 63.0482 71.0875 58.6808 74.1962 56.886C77.3049 55.0911 79.8258 56.5451 79.8258 60.1366C79.8258 60.2122 79.824 60.2877 79.8203 60.3614L80.7269 59.8381C80.7288 59.7625 80.7325 59.687 80.7325 59.6133C80.7325 55.445 77.8062 53.7551 74.1962 55.8393C70.5862 57.9235 67.6599 62.9911 67.6599 67.1594C67.6599 67.2349 67.6636 67.3068 67.6654 67.3805L68.5721 66.8572Z" fill="#404B4D"/>
<path d="M64.8552 64.9036L61.7207 63.223C60.7661 62.6794 59.4486 62.7623 57.9965 63.6008C55.0775 65.2869 52.7114 69.3852 52.7114 72.7538C52.7114 74.4491 53.3103 75.6377 54.2759 76.1869L57.4105 77.8675C58.365 78.4074 59.6789 78.3245 61.1292 77.4878C64.0481 75.8036 66.4142 71.7053 66.4142 68.3348C66.4142 66.6432 65.8172 65.4546 64.8534 64.9055L64.8552 64.9036Z" fill="#2E373A"/>
<path d="M66.416 68.3311C66.416 71.7015 64.0499 75.7998 61.131 77.4841C59.6807 78.3226 58.3668 78.4055 57.4123 77.8637C56.4448 77.3164 55.8459 76.1278 55.8459 74.4325C55.8459 71.0621 58.2121 66.9638 61.131 65.2795C62.5831 64.441 63.8988 64.3581 64.8552 64.9017C65.819 65.4509 66.416 66.6376 66.416 68.3311Z" fill="#555E61"/>
<path d="M66.0919 68.7238C66.0919 71.7938 63.9359 75.5291 61.2768 77.066C58.6177 78.601 56.4617 77.3571 56.4617 74.2852C56.4617 71.2134 58.6177 67.4799 61.2768 65.9449C63.9359 64.4099 66.0919 65.6537 66.0919 68.7256V68.7238Z" fill="#3B4447"/>
<path d="M64.5124 69.5476C64.5124 71.6115 63.064 74.1214 61.2747 75.1533C59.4872 76.1853 58.037 75.3486 58.0388 73.2847C58.0388 71.2209 59.4872 68.7092 61.2747 67.6791C63.0622 66.6471 64.5124 67.4837 64.5124 69.5476Z" fill="url(#paint7_linear_43_31919)"/>
<path d="M64.2195 69.7171C64.2195 71.5948 62.902 73.878 61.2748 74.816C59.6495 75.7539 58.3301 74.9947 58.3301 73.117C58.3301 71.2392 59.6477 68.956 61.2748 68.018C62.9001 67.0782 64.2195 67.8411 64.2195 69.7171Z" fill="url(#paint8_linear_43_31919)"/>
<path d="M62.6844 67.6181C62.2661 67.5959 61.787 67.7231 61.2765 68.0179C59.6512 68.9559 58.3318 71.2391 58.3318 73.1169C58.3318 73.7121 58.4645 74.1949 58.6985 74.5468C59.1168 74.5671 59.5959 74.4418 60.1064 74.147C61.7317 73.209 63.0511 70.9258 63.0511 69.048C63.0511 68.4528 62.9184 67.97 62.6844 67.6181Z" fill="url(#paint9_linear_43_31919)"/>
<path d="M62.3029 67.6365C61.9823 67.6844 61.6377 67.8079 61.2765 68.0161C59.6512 68.9541 58.3318 71.2372 58.3318 73.115C58.3318 73.537 58.4 73.9037 58.5216 74.2059C58.9675 74.3183 59.5148 74.2244 60.1064 73.8834C61.6082 73.0173 62.8244 70.9111 62.8244 69.177C62.8244 68.4878 62.6291 67.9645 62.3048 67.6365H62.3029Z" fill="url(#paint10_linear_43_31919)"/>
<path d="M58.3318 73.1168C58.3318 73.2716 58.3428 73.4154 58.3594 73.5536C58.6598 73.5388 58.9952 73.4393 59.3471 73.2348C60.6574 72.4792 61.7206 70.6383 61.7206 69.1254C61.7206 68.6297 61.6045 68.2335 61.4055 67.946C61.3631 67.9682 61.3207 67.9921 61.2765 68.0179C59.6512 68.9559 58.3318 71.2391 58.3318 73.1168Z" fill="url(#paint11_linear_43_31919)"/>
<path d="M61.2031 70.3197C61.2031 71.0236 60.7092 71.8786 60.1011 72.2306C59.4912 72.5826 58.9973 72.2988 58.9973 71.593C58.9973 70.8872 59.4912 70.0359 60.1011 69.6839C60.7092 69.3319 61.2031 69.6176 61.2031 70.3215V70.3197Z" fill="url(#paint12_linear_43_31919)"/>
<path d="M65.8523 63.0092H65.856L65.821 62.989C65.7657 62.9539 65.7086 62.9226 65.6514 62.8913L59.3658 59.2684C58.203 58.7156 56.6588 58.8612 54.9616 59.8397C51.3516 61.9238 48.4253 66.9914 48.4253 71.1598C48.4253 71.2353 48.4271 71.3072 48.429 71.3791L54.5856 74.9337L55.4904 74.4104C55.4904 74.3385 55.4868 74.2648 55.4868 74.1911C55.4868 70.6014 58.0077 66.2341 61.1164 64.4392C64.2251 62.6444 66.746 64.1001 66.746 67.6898C66.746 67.7636 66.7424 67.841 66.7405 67.9147L67.6453 67.3913C67.6472 67.3158 67.6508 67.2402 67.6508 67.1665C67.6508 65.1505 66.9635 63.715 65.8486 63.0055L65.8523 63.0092Z" fill="url(#paint13_linear_43_31919)"/>
<path d="M55.4922 74.4125C55.4922 74.3406 55.4886 74.2669 55.4886 74.1932C55.4886 70.6035 58.0095 66.2361 61.1182 64.4413C64.2269 62.6464 66.7478 64.1022 66.7478 67.6919C66.7478 67.7656 66.7442 67.843 66.7423 67.9167L67.6471 67.3934C67.649 67.3178 67.6526 67.2423 67.6526 67.1686C67.6526 63.0003 64.7263 61.3104 61.1164 63.3946C57.5064 65.4788 54.5801 70.5464 54.5801 74.7147C54.5801 74.7884 54.5838 74.8621 54.5856 74.934L55.4904 74.4106L55.4922 74.4125Z" fill="#404B4D"/>
<path d="M87.3112 53.5652L79.4407 49.021L78.5691 49.5241L86.4395 54.0665L87.3112 53.5652Z" fill="#677274"/>
<path d="M86.4395 54.0662L78.5691 49.5238V53.8598L86.4395 58.4041V54.0662Z" fill="#273234"/>
<path d="M32.5904 88.5408L91.4206 54.5713L90.197 53.8636L31.365 87.8331L32.5904 88.5408Z" fill="#677274"/>
<path d="M31.365 87.8368L90.197 53.8691V51.0073L31.365 84.975V87.8368Z" fill="#404B4D"/>
<path d="M94.6731 56.1468L88.9697 52.8538V54.8532L94.6731 58.1462V56.1468Z" fill="#273234"/>
<path d="M93.0827 57.107L87.3794 53.8121V55.8134L93.0827 59.1064V57.107Z" fill="#273234"/>
<path d="M53.2367 79.7193L47.5333 76.4281L46.3079 77.1339L52.0094 80.4269L53.2367 79.7193Z" fill="#677274"/>
<path d="M52.0094 80.4269L46.3079 77.1339V79.1352L52.0094 82.4282V80.4269Z" fill="#273234"/>
<path d="M65.8061 72.6524L60.1028 69.3594L58.8755 70.067L64.5788 73.36L65.8061 72.6524Z" fill="#677274"/>
<path d="M64.5788 73.36L58.8755 70.067V72.0683L64.5788 75.3594V73.36Z" fill="#273234"/>
<path d="M79.4813 64.9294L73.7779 61.6364L72.5525 62.344L78.2558 65.637L79.4813 64.9294Z" fill="#677274"/>
<path d="M78.2558 65.637L72.5525 62.344V64.3434L78.2558 67.6364V65.637Z" fill="#273234"/>
<path d="M86.5779 54.0075C86.495 53.9688 86.3844 53.9799 86.2628 54.0481L79.3782 58.0229C79.1184 58.1722 78.9065 58.5389 78.9065 58.8392V61.8466C78.9065 62.0217 78.9802 62.1359 79.0926 62.1728L84.9876 65.5156C84.9028 65.4658 84.8494 65.3608 84.8494 65.2115V62.2041C84.8494 61.9038 85.0613 61.537 85.3212 61.3859L92.2039 57.4129C92.3292 57.3411 92.4416 57.3337 92.5245 57.3761L86.5742 54.0075H86.5779Z" fill="url(#paint14_linear_43_31919)"/>
<path d="M95.8985 55.4391L90.1952 52.1443L88.9697 52.8537L94.6731 56.1468L95.8985 55.4391Z" fill="#677274"/>
<path d="M40.7667 88.1592L99.5969 54.1915L98.3733 53.4839L39.5413 87.4515L40.7667 88.1592Z" fill="#677274"/>
<path d="M40.7668 89.7182L99.597 55.7505V54.1915L40.7668 88.1592V89.7182Z" fill="#404B4D"/>
<path d="M98.9816 56.1063L40.7668 89.7183V94.6477L68.7216 78.5088L72.4937 78.2379L91.4207 67.3085L92.4619 66.8975L98.9816 63.1328V56.1063Z" fill="#404B4D"/>
<path d="M98.9816 56.1063L40.7668 89.7183V90.8811L98.9816 57.2691V56.1063Z" fill="#273234"/>
<path d="M30.7533 82.3528L89.5853 48.3851L88.3599 47.6775L29.5278 81.6451L30.7533 82.3528Z" fill="#677274"/>
<path d="M31.365 84.9751L90.197 51.0074L88.9697 50.2998L30.1377 84.2674L31.365 84.9751Z" fill="#677274"/>
<path d="M30.7532 83.9116L89.5852 49.944V48.385L30.7532 82.3527V83.9116Z" fill="#404B4D"/>
<path d="M94.3082 56.3976L88.6067 53.1064L87.3794 53.8122L93.0827 57.1071L94.3082 56.3976Z" fill="#677274"/>
<path d="M101.405 75.7429C101.405 76.0433 101.191 76.1686 100.929 76.023L94.9994 72.7374C94.7377 72.5918 94.5239 72.2288 94.5239 71.9284V67.1723C94.5239 66.8737 94.7377 66.7466 95.0012 66.8922L100.931 70.1778C101.193 70.3234 101.408 70.6864 101.408 70.9849V75.7411L101.405 75.7429Z" fill="#0E191B"/>
<path d="M91.9236 66.4791L101.733 72.1438L100.749 69.2304L95.0452 65.6149L91.9236 66.4791Z" fill="#0E191B"/>
<path d="M99.0828 69.7095L95.9482 68.0289C94.9937 67.4853 93.6761 67.5682 92.224 68.4067C89.3051 70.091 86.939 74.1893 86.939 77.5597C86.939 79.255 87.5379 80.4436 88.5053 80.9928L91.6399 82.6715C92.5962 83.2115 93.9083 83.1285 95.3585 82.2919C98.2775 80.6076 100.644 76.5093 100.644 73.1389C100.644 71.4454 100.047 70.2587 99.0809 69.7114L99.0828 69.7095Z" fill="#2E373A"/>
<path d="M100.645 73.137C100.645 76.5074 98.2792 80.6057 95.3602 82.29C93.91 83.1266 92.5961 83.2114 91.6415 82.6696C90.6741 82.1223 90.0752 80.9337 90.0752 79.2384C90.0752 75.868 92.4413 71.7697 95.3602 70.0854C96.8123 69.2469 98.1281 69.164 99.0826 69.7076C100.046 70.2568 100.645 71.4435 100.645 73.1352V73.137Z" fill="#555E61"/>
<path d="M100.321 73.5298C100.321 76.6017 98.1633 80.3352 95.5061 81.8702C92.847 83.4052 90.6909 82.1613 90.6909 79.0895C90.6909 76.0176 92.847 72.2841 95.5061 70.7473C98.1652 69.2122 100.321 70.4561 100.321 73.528V73.5298Z" fill="#3B4447"/>
<path d="M98.7418 74.3532C98.7418 76.4171 97.2934 78.9269 95.5041 79.9589C93.7148 80.9908 92.2664 80.1542 92.2664 78.0903C92.2664 76.0264 93.7148 73.5147 95.5041 72.4828C97.2916 71.4508 98.7418 72.2874 98.7418 74.3513V74.3532Z" fill="url(#paint15_linear_43_31919)"/>
<path d="M98.4488 74.5229C98.4488 76.4007 97.1312 78.682 95.5059 79.6218C93.8806 80.5598 92.5611 79.7987 92.563 77.9228C92.563 76.045 93.8806 73.7618 95.5059 72.8239C97.1312 71.8859 98.4488 72.647 98.4488 74.5229Z" fill="url(#paint16_linear_43_31919)"/>
<path d="M96.9138 72.4241C96.4954 72.402 96.0163 72.5291 95.5059 72.824C93.8806 73.7619 92.5611 76.0451 92.563 77.9229C92.563 78.5181 92.6957 79.0009 92.9279 79.3529C93.3462 79.375 93.8271 79.2478 94.3357 78.953C95.9629 78.015 97.2805 75.7318 97.2805 73.8541C97.2805 73.2589 97.1478 72.776 96.9156 72.4241H96.9138Z" fill="url(#paint17_linear_43_31919)"/>
<path d="M96.5323 72.4425C96.2135 72.4904 95.8671 72.6139 95.5059 72.8221C93.8806 73.7601 92.5611 76.0433 92.563 77.921C92.563 78.3449 92.6293 78.7097 92.7528 79.0138C93.2006 79.1262 93.746 79.0322 94.3376 78.6913C95.8394 77.8252 97.0556 75.7189 97.0556 73.9849C97.0556 73.2957 96.8603 72.7724 96.5341 72.4443L96.5323 72.4425Z" fill="url(#paint18_linear_43_31919)"/>
<path d="M92.5613 77.9209C92.5613 78.0739 92.5705 78.2213 92.5889 78.3595C92.8893 78.3447 93.2247 78.2434 93.5785 78.0407C94.8887 77.2833 95.9501 75.4442 95.9501 73.9313C95.9501 73.4356 95.834 73.0376 95.635 72.752C95.5926 72.7741 95.5502 72.798 95.506 72.822C93.8807 73.7599 92.5613 76.0431 92.5631 77.9209H92.5613Z" fill="url(#paint19_linear_43_31919)"/>
<path d="M95.4323 75.1253C95.4323 75.8293 94.9385 76.6843 94.3304 77.0363C93.7204 77.3882 93.2266 77.1026 93.2266 76.3987C93.2266 75.6947 93.7204 74.8397 94.3304 74.4877C94.9385 74.1358 95.4323 74.4214 95.4323 75.1253Z" fill="url(#paint20_linear_43_31919)"/>
<path d="M88.1314 84.2583C88.1314 84.5569 87.9176 84.684 87.6559 84.5384L81.7259 81.2528C81.4642 81.1072 81.2505 80.7442 81.2505 80.4438V75.6877C81.2505 75.3873 81.4661 75.262 81.7278 75.4057L87.6578 78.6914C87.9194 78.8369 88.135 79.2 88.135 79.4985V84.2547L88.1314 84.2583Z" fill="#0E191B"/>
<path d="M81.9064 75.0169L78.7718 73.3363C77.8173 72.7927 76.5015 72.8756 75.0476 73.7141C72.1305 75.3983 69.7644 79.4967 69.7644 82.8671C69.7644 84.5624 70.3633 85.751 71.3308 86.2983L74.4653 87.9789C75.4198 88.5188 76.7337 88.4359 78.184 87.5993C81.1029 85.915 83.469 81.8167 83.469 78.4463C83.469 76.7546 82.872 75.566 81.9082 75.0169H81.9064Z" fill="#2E373A"/>
<path d="M83.4673 78.4461C83.4673 81.8165 81.1012 85.9148 78.1823 87.5991C76.732 88.4376 75.4181 88.5205 74.4636 87.9787C73.4961 87.4314 72.8972 86.2428 72.8972 84.5475C72.8972 81.1771 75.2633 77.0788 78.1823 75.3945C79.6344 74.556 80.9501 74.4731 81.9065 75.0167C82.8703 75.5659 83.4673 76.7526 83.4673 78.4461Z" fill="#555E61"/>
<path d="M83.1429 78.8385C83.1429 81.9104 80.9868 85.6439 78.3259 87.1807C75.6668 88.7158 73.5107 87.4719 73.5107 84.4C73.5107 81.3281 75.6668 77.5947 78.3259 76.0578C80.985 74.5228 83.1429 75.7667 83.1429 78.8385Z" fill="#3B4447"/>
<path d="M78.8438 74.0344L88.6528 79.6991L87.6687 76.7838L81.9654 73.1702L78.8438 74.0344Z" fill="#0E191B"/>
<path d="M100.08 67.8152H100.083L100.048 67.7949C99.9931 67.7617 99.936 67.7285 99.8788 67.6972L93.5932 64.0743C92.4322 63.5215 90.8862 63.6671 89.1908 64.6474C85.5808 66.7316 82.6545 71.7992 82.6545 75.9675C82.6545 76.0413 82.6582 76.115 82.6582 76.1868L88.8131 79.7415L89.7197 79.2182C89.7179 79.1445 89.7142 79.0726 89.7142 78.997C89.7142 75.4073 92.2351 71.0418 95.3438 69.2451C98.4525 67.4503 100.973 68.9061 100.973 72.4958C100.973 72.5713 100.97 72.645 100.968 72.7206L101.875 72.1972C101.875 72.1217 101.88 72.0461 101.88 71.9724C101.88 69.9564 101.193 68.5228 100.078 67.8115L100.08 67.8152Z" fill="url(#paint21_linear_43_31919)"/>
<path d="M89.7217 79.2182C89.7199 79.1444 89.7162 79.0726 89.7162 78.997C89.7162 75.4073 92.2371 71.0418 95.3459 69.2451C98.4546 67.4503 100.975 68.9061 100.975 72.4958C100.975 72.5713 100.972 72.645 100.97 72.7206L101.877 72.1972C101.877 72.1217 101.882 72.0461 101.882 71.9724C101.882 67.8041 98.9558 66.1143 95.3459 68.1984C91.7359 70.2826 88.8096 75.3502 88.8096 79.5185C88.8096 79.5941 88.8133 79.6641 88.8151 79.7378L89.7217 79.2145V79.2182Z" fill="#404B4D"/>
<path d="M86.0027 77.265L82.8682 75.5844C81.9136 75.0389 80.5979 75.1237 79.1439 75.9622C76.2268 77.6465 73.8589 81.7448 73.8589 85.1152C73.8589 86.8105 74.4578 87.9991 75.4252 88.5482L78.5598 90.2288C79.5143 90.7688 80.8282 90.6858 82.2803 89.8492C85.1974 88.1631 87.5635 84.0666 87.5635 80.6962C87.5635 79.0027 86.9665 77.816 86.0027 77.2668V77.265Z" fill="#2E373A"/>
<path d="M87.5654 80.6923C87.5654 84.0627 85.1993 88.161 82.2822 89.8453C80.8302 90.6819 79.5181 90.7667 78.5617 90.2249C77.5943 89.6776 76.9954 88.489 76.9954 86.7937C76.9954 83.4233 79.3615 79.325 82.2804 77.6407C83.7325 76.8022 85.0482 76.7193 86.0046 77.2629C86.9684 77.8121 87.5654 78.9988 87.5654 80.6923Z" fill="#555E61"/>
<path d="M87.2411 81.0851C87.2411 84.1552 85.0851 87.8905 82.426 89.4255C79.7669 90.9605 77.6108 89.7166 77.6108 86.6447C77.6108 83.5729 79.7669 79.8394 82.426 78.3044C85.0851 76.7694 87.2411 78.0132 87.2411 81.0851Z" fill="#3B4447"/>
<path d="M85.662 81.9088C85.662 83.9727 84.2136 86.4826 82.4243 87.5164C80.6368 88.5483 79.1865 87.7117 79.1865 85.6478C79.1865 83.5821 80.6349 81.0722 82.4243 80.0403C84.2117 79.0083 85.662 79.8449 85.662 81.9088Z" fill="url(#paint22_linear_43_31919)"/>
<path d="M85.3689 82.0783C85.3689 83.9561 84.0514 86.2393 82.426 87.1773C80.8007 88.1152 79.4813 87.3542 79.4832 85.4782C79.4832 83.6005 80.8007 81.3173 82.426 80.3793C84.0532 79.4395 85.3689 80.2006 85.3689 82.0783Z" fill="url(#paint23_linear_43_31919)"/>
<path d="M83.8339 79.9775C83.4156 79.9554 82.9365 80.0826 82.426 80.3774C80.8007 81.3154 79.4813 83.5986 79.4832 85.4764C79.4832 86.0716 79.6158 86.5544 79.848 86.9063C80.2663 86.9285 80.7473 86.8013 81.2559 86.5065C82.8812 85.5685 84.1988 83.2853 84.1988 81.4075C84.1988 80.8123 84.0661 80.3295 83.8339 79.9775Z" fill="url(#paint24_linear_43_31919)"/>
<path d="M83.4508 79.9978C83.132 80.0457 82.7855 80.1692 82.4243 80.3793C80.799 81.3172 79.4796 83.6004 79.4814 85.4782C79.4814 85.902 79.5496 86.2669 79.6713 86.5691C80.1172 86.6833 80.6627 86.5875 81.256 86.2466C82.756 85.3805 83.9741 83.2724 83.9741 81.5402C83.9741 80.851 83.7788 80.3277 83.4526 79.9978H83.4508Z" fill="url(#paint25_linear_43_31919)"/>
<path d="M79.4814 85.4762C79.4814 85.6292 79.4907 85.7766 79.5072 85.9148C79.8076 85.9 80.143 85.7987 80.4968 85.596C81.807 84.8405 82.8684 82.9995 82.8684 81.4866C82.8684 80.9909 82.7542 80.5929 82.5533 80.3073C82.511 80.3294 82.4667 80.3533 82.4243 80.3791C80.799 81.3171 79.4796 83.6003 79.4814 85.478V85.4762Z" fill="url(#paint26_linear_43_31919)"/>
<path d="M82.3523 82.6807C82.3523 83.3846 81.8584 84.2396 81.2503 84.5916C80.6403 84.9436 80.1465 84.658 80.1465 83.954C80.1465 83.2501 80.6403 82.3969 81.2503 82.0431C81.8584 81.6911 82.3523 81.9767 82.3523 82.6788V82.6807Z" fill="url(#paint27_linear_43_31919)"/>
<path d="M86.9996 75.3705H87.0033L86.9701 75.3502C86.9149 75.317 86.8577 75.2838 86.8006 75.2525L80.515 71.6296C79.3522 71.0768 77.8079 71.2224 76.1107 72.2027C72.5008 74.2869 69.5745 79.3545 69.5745 83.5228C69.5745 83.5966 69.5781 83.6703 69.58 83.744L75.7367 87.2987L76.6433 86.7753C76.6415 86.7016 76.6378 86.6297 76.6378 86.556C76.6378 82.9645 79.1587 78.599 82.2674 76.8041C85.3762 75.0093 87.8971 76.4651 87.8971 80.0548C87.8971 80.1285 87.8952 80.204 87.8915 80.2796L88.7982 79.7562C88.7982 79.6807 88.8037 79.6051 88.8037 79.5314C88.8037 77.5154 88.1163 76.0799 87.0015 75.3705H86.9996Z" fill="url(#paint28_linear_43_31919)"/>
<path d="M76.6417 86.7738C76.6398 86.7001 76.6361 86.6282 76.6361 86.5545C76.6361 82.963 79.157 78.5975 82.2658 76.8026C85.3745 75.0078 87.8954 76.4635 87.8954 80.0532C87.8954 80.127 87.8936 80.2025 87.8899 80.2781L88.7965 79.7547C88.7965 79.6792 88.8021 79.6036 88.8021 79.5299C88.8021 75.3616 85.8757 73.6718 82.2658 75.7559C78.6558 77.8401 75.7295 82.9077 75.7295 87.076C75.7295 87.1516 75.7332 87.2234 75.735 87.2953L76.6417 86.772V86.7738Z" fill="#404B4D"/>
<path d="M105.016 64.4005L97.146 59.8562L96.2744 60.3593L104.145 64.9035L105.016 64.4005Z" fill="#677274"/>
<path d="M104.213 64.9036L96.3428 60.3594V64.6972L104.213 69.2396V64.9036Z" fill="#273234"/>
<path d="M105.085 68.7365V64.4005L104.213 64.9036V69.2396L105.085 68.7365Z" fill="#404B4D"/>
<path d="M64.144 80.9985C63.3535 80.5415 62.0727 80.5415 61.284 80.9985C60.8897 81.227 60.6907 81.5255 60.6907 81.8241V87.0538C60.6907 87.3524 60.8897 87.6509 61.284 87.8794C62.0727 88.3346 63.3535 88.3346 64.144 87.8794C64.5384 87.6509 64.7355 87.3524 64.7355 87.0538V81.8241C64.7355 81.5255 64.5384 81.227 64.144 80.9985Z" fill="#333E40"/>
<path d="M64.144 80.9985C64.9346 81.4537 64.9346 82.1945 64.144 82.6496C63.3535 83.1066 62.0728 83.1066 61.2841 82.6496C60.4935 82.1945 60.4935 81.4537 61.2841 80.9985C62.0728 80.5415 63.3535 80.5415 64.144 80.9985Z" fill="#5A6567"/>
<path d="M60.7995 82.6051C60.0108 82.1481 58.7301 82.1481 57.9396 82.6051C57.5434 82.8336 57.3462 83.1321 57.3462 83.4306V88.6586C57.3462 88.9571 57.5434 89.2556 57.9396 89.4841C58.7283 89.9393 60.009 89.9393 60.7995 89.4841C61.1939 89.2556 61.3929 88.9571 61.3929 88.6586V83.4306C61.3929 83.1321 61.1957 82.8336 60.7995 82.6051Z" fill="#333E40"/>
<path d="M60.7993 82.6051C61.5899 83.0602 61.5899 83.801 60.7993 84.2562C60.0106 84.7132 58.7299 84.7132 57.9393 84.2562C57.1488 83.801 57.1488 83.0621 57.9393 82.6051C58.728 82.1481 60.0088 82.1481 60.7993 82.6051Z" fill="#5A6567"/>
<path d="M61.9567 87.1533L56.4505 83.9745C56.3013 83.8879 56.1686 83.8953 56.082 83.9708L44.7324 90.4979C44.6403 90.544 44.5813 90.6527 44.5813 90.8093V95.947C44.5813 96.2455 44.7932 96.614 45.053 96.7633L50.5592 99.9421C50.6901 100.018 50.808 100.023 50.8928 99.9752L62.2829 93.415C62.2829 93.415 62.2921 93.4095 62.2976 93.4058L62.305 93.4021C62.3824 93.3487 62.4303 93.2492 62.4303 93.1073V87.9678C62.4303 87.6693 62.2184 87.3007 61.9586 87.1515L61.9567 87.1533Z" fill="url(#paint29_linear_43_31919)"/>
<path d="M50.5592 99.9437C50.819 100.093 51.031 99.9714 51.031 99.671V94.5334C51.031 94.233 50.819 93.8663 50.5592 93.717L45.053 90.5382C44.7932 90.389 44.5813 90.5106 44.5813 90.811V95.9486C44.5813 96.2471 44.7932 96.6157 45.053 96.7649L50.5592 99.9437Z" fill="#9AA3A9"/>
<g style="mix-blend-mode:multiply" opacity="0.2">
<path d="M59.8302 88.3399L54.324 85.1611C54.1748 85.0745 54.0421 85.08 53.9573 85.1574H53.9555L53.5114 85.4652C53.5114 85.4652 53.5077 85.4689 53.5059 85.4689C53.5906 85.4228 53.7049 85.4302 53.832 85.5039L59.3382 88.6826C59.598 88.8319 59.8099 89.2005 59.8099 89.499V94.6366L59.6717 94.9407L60.1564 94.5998C60.1564 94.5998 60.1656 94.5942 60.1711 94.5924L60.1785 94.5887C60.2559 94.5353 60.3038 94.4358 60.3038 94.2939V89.1544C60.3038 88.854 60.0919 88.4873 59.8321 88.3381L59.8302 88.3399Z" fill="black"/>
</g>
<path d="M60.1288 88.1467L54.6226 84.9679C54.4734 84.8813 54.3407 84.8868 54.2559 84.9642L53.81 85.2719C53.81 85.2719 53.8081 85.2738 53.8044 85.2756C53.8892 85.2296 54.0053 85.2388 54.1306 85.3106L59.6368 88.4894C59.8948 88.6387 60.1085 89.0072 60.1085 89.3058V94.4434L59.9703 94.7474L60.455 94.4084C60.455 94.4084 60.4642 94.4028 60.4697 94.3991L60.4771 94.3955C60.5545 94.342 60.6024 94.2407 60.6024 94.1006V88.9612C60.6024 88.6626 60.3905 88.2941 60.1306 88.1448L60.1288 88.1467Z" fill="url(#paint30_linear_43_31919)"/>
<g style="mix-blend-mode:multiply" opacity="0.2">
<path d="M53.4506 91.9995L47.9444 88.8207C47.7951 88.7341 47.6625 88.7415 47.5777 88.817L47.1317 89.1248C47.1299 89.1248 47.1281 89.1285 47.1262 89.1303C47.211 89.0842 47.3252 89.0916 47.4524 89.1653L52.9586 92.3441C53.2184 92.4952 53.4303 92.8619 53.4303 93.1604V98.2999L53.2921 98.6039L53.7768 98.263C53.7768 98.263 53.786 98.2575 53.7915 98.2557L53.7989 98.252C53.8763 98.1985 53.9242 98.0972 53.9242 97.9571V92.8195C53.9242 92.521 53.7123 92.1524 53.4524 92.0032L53.4506 91.9995Z" fill="black"/>
</g>
<path d="M53.7492 91.8062L48.243 88.6275C48.0937 88.5409 47.961 88.5482 47.8744 88.6238L47.4303 88.9315C47.4285 88.9315 47.4266 88.9352 47.4248 88.9352C47.5096 88.8892 47.6238 88.8965 47.751 88.9702L53.2571 92.149C53.517 92.3001 53.7289 92.6668 53.7289 92.9653V98.103L53.5907 98.407L54.0753 98.0661C54.0753 98.0661 54.0845 98.0606 54.0901 98.0587L54.0974 98.0551C54.1748 98.0016 54.2228 97.9021 54.2228 97.7602V92.6226C54.2228 92.3222 54.0108 91.9555 53.751 91.8062H53.7492Z" fill="url(#paint31_linear_43_31919)"/>
<path d="M57.6667 90.7503L58.507 92.6207V93.2583L59.2147 92.851V92.5083L58.3043 90.3817L57.6667 90.7503Z" fill="#8897A0"/>
<path d="M80.2995 81.8331V81.3355L79.7154 80.9983L55.0776 95.2484V96.7834L55.5383 97.0635L80.1742 82.8116V82.4098L80.0729 82.3435V81.9657L80.2995 81.8331Z" fill="#8897A0"/>
<g style="mix-blend-mode:multiply" opacity="0.2">
<path d="M55.6636 96.0851L55.4351 95.9745V96.5937L80.0728 82.3436V81.9658L55.6636 96.0851Z" fill="#8897A0"/>
</g>
<g style="mix-blend-mode:overlay" opacity="0.5">
<path d="M79.7154 80.9983L55.0776 95.2484L55.6636 95.5874L80.2995 81.3355L79.7154 80.9983Z" fill="white"/>
</g>
<g style="mix-blend-mode:overlay" opacity="0.2">
<path d="M80.1742 82.4101L55.5383 96.6602L55.4351 96.5938L80.0728 82.3438L80.1742 82.4101Z" fill="white"/>
</g>
<path d="M80.2995 84.6232V84.1257L79.7154 83.7866L55.0776 98.0385V99.5736L55.5383 99.8537L80.1742 85.6017V85.1982L80.0729 85.1318V84.7559L80.2995 84.6232Z" fill="#8897A0"/>
<g style="mix-blend-mode:multiply" opacity="0.2">
<path d="M55.6636 98.8751L55.4351 98.7645V99.3837L80.0728 85.1318V84.7559L55.6636 98.8751Z" fill="#8897A0"/>
</g>
<g style="mix-blend-mode:overlay" opacity="0.5">
<path d="M79.7154 83.7866L55.0776 98.0385L55.6636 98.3776L80.2995 84.1257L79.7154 83.7866Z" fill="white"/>
</g>
<g style="mix-blend-mode:overlay" opacity="0.2">
<path d="M80.1742 85.1979L55.5383 99.448L55.4351 99.3835L80.0728 85.1316L80.1742 85.1979Z" fill="white"/>
</g>
<path d="M75.0144 80.7107L75.8565 82.5793V83.2169L76.5623 82.8115V82.4706L75.652 80.3422L75.0144 80.7107Z" fill="#8897A0"/>
<g style="mix-blend-mode:multiply" opacity="0.5">
<path d="M75.0144 80.7108L75.8565 82.5793V83.2169L76.2085 83.0142V82.5793L75.3295 80.5265L75.0144 80.7108Z" fill="#8897A0"/>
</g>
<g style="mix-blend-mode:multiply" opacity="0.5">
<path d="M57.6667 90.7502L58.507 92.6206V93.2582L58.8609 93.0536V92.6206L57.9837 90.5677L57.6667 90.7502Z" fill="#8897A0"/>
</g>
<path d="M90.6522 4.00037L21.5486 43.898V78.7981L50.8964 95.652L120 55.7562V20.8543L90.6522 4.00037Z" fill="#E1E8EC"/>
<path d="M119.335 21.2377L89.9114 4.42798L22.3962 43.4098L51.6685 60.2195V90.9107L119.348 51.8386V21.2303L119.335 21.2377Z" fill="#E1E8EC"/>
<g style="mix-blend-mode:multiply" opacity="0.1">
<path d="M119.348 21.2304V56.1323L120 55.7564V20.8545L119.348 21.2304Z" fill="black"/>
</g>
<g style="mix-blend-mode:multiply" opacity="0.1">
<path d="M51.6685 91.797V95.2061L119.348 56.1321V52.7249L51.6685 91.797Z" fill="black"/>
</g>
<g style="mix-blend-mode:multiply" opacity="0.1">
<path d="M51.6685 60.2192V90.9104L119.348 51.8383L119.335 21.2374L51.6685 60.2192Z" fill="black"/>
</g>
<g style="mix-blend-mode:multiply" opacity="0.2">
<path d="M21.5486 43.8979V78.798L50.8964 95.6519L50.8946 60.6652L21.5486 43.8979Z" fill="black"/>
</g>
<g style="mix-blend-mode:multiply" opacity="0.1">
<path d="M50.8964 95.652L51.6685 95.2061V60.2194L50.8945 60.6653L50.8964 95.652Z" fill="black"/>
</g>
<g style="mix-blend-mode:multiply" opacity="0.2">
<path d="M51.6685 93.5272V94.2293L119.348 55.1553V54.4532L51.6685 93.5272Z" fill="black"/>
</g>
<g style="mix-blend-mode:multiply" opacity="0.1">
<path d="M51.6685 90.4427V90.9108L119.348 51.8387V51.3688L51.6685 90.4427Z" fill="black"/>
</g>
<g style="mix-blend-mode:multiply" opacity="0.1">
<path d="M51.438 60.376V95.3406L51.6683 95.2061V60.2194L51.438 60.376Z" fill="black"/>
</g>
<g style="mix-blend-mode:multiply" opacity="0.1">
<path d="M119.348 21.2304V56.1323L119.517 56.0346V21.1327L119.348 21.2304Z" fill="black"/>
</g>
<path d="M55.4682 91.8561L54.6685 92.3186V91.8192L55.4682 91.3567V91.8561Z" fill="#0A1316"/>
<path d="M55.4682 88.786L54.6685 89.2467V87.673L55.4682 87.2104V88.786Z" fill="url(#paint32_linear_43_31919)"/>
<path d="M55.3927 91.7415L54.7625 92.1064V87.9859L55.3927 87.6229V91.7415Z" fill="url(#paint33_linear_43_31919)"/>
<path d="M55.3927 91.7418L54.7625 92.1066V90.461L55.3927 90.098V91.7418Z" fill="#232C2F"/>
<path d="M55.3927 89.6814L54.7625 90.0463V89.1931L55.3927 88.8301V89.6814Z" fill="#555E61"/>
<path d="M62.2202 87.9586L61.4204 88.4212V87.9218L62.2202 87.4592V87.9586Z" fill="#0A1316"/>
<path d="M62.2202 84.8886L61.4204 85.3492V83.7755L62.2202 83.313V84.8886Z" fill="url(#paint34_linear_43_31919)"/>
<path d="M62.1427 87.8444L61.5125 88.2074V84.0888L62.1427 83.7258V87.8444Z" fill="url(#paint35_linear_43_31919)"/>
<path d="M62.1427 87.8443L61.5125 88.2073V86.5654L62.1427 86.2006V87.8443Z" fill="#232C2F"/>
<path d="M62.1427 85.7858L61.5125 86.1488V85.2956L62.1427 84.9326V85.7858Z" fill="#555E61"/>
<path d="M68.9702 84.061L68.1704 84.5217V84.0242L68.9702 83.5616V84.061Z" fill="#0A1316"/>
<path d="M68.9702 80.9891L68.1704 81.4517V79.8779L68.9702 79.4154V80.9891Z" fill="url(#paint36_linear_43_31919)"/>
<path d="M68.8946 83.9468L68.2644 84.3117V80.1913L68.8946 79.8282V83.9468Z" fill="url(#paint37_linear_43_31919)"/>
<path d="M68.8946 83.9467L68.2644 84.3116V82.666L68.8946 82.303V83.9467Z" fill="#232C2F"/>
<path d="M68.8946 81.8864L68.2644 82.2513V81.3981L68.8946 81.035V81.8864Z" fill="#555E61"/>
<path d="M75.7223 80.1636L74.9207 80.6261V80.1267L75.7223 79.6642V80.1636Z" fill="#0A1316"/>
<path d="M75.7223 77.0917L74.9207 77.5542V75.9805L75.7223 75.5179V77.0917Z" fill="url(#paint38_linear_43_31919)"/>
<path d="M75.6446 80.0494L75.0144 80.4142V76.2938L75.6446 75.9308V80.0494Z" fill="url(#paint39_linear_43_31919)"/>
<path d="M75.6446 80.0493L75.0144 80.4141V78.7704L75.6446 78.4055V80.0493Z" fill="#232C2F"/>
<path d="M75.6446 77.9911L75.0144 78.3542V77.501L75.6446 77.1379V77.9911Z" fill="#555E61"/>
<path d="M82.4721 76.266L81.6724 76.7267V76.2291L82.4721 75.7666V76.266Z" fill="#0A1316"/>
<path d="M82.4721 73.1959L81.6724 73.6566V72.0829L82.4721 71.6204V73.1959Z" fill="url(#paint40_linear_43_31919)"/>
<path d="M82.3965 76.1518L81.7644 76.5167V72.3962L82.3965 72.0314V76.1518Z" fill="url(#paint41_linear_43_31919)"/>
<path d="M82.3965 76.1518L81.7644 76.5167V74.8711L82.3965 74.5081V76.1518Z" fill="#232C2F"/>
<path d="M82.3965 74.0917L81.7644 74.4566V73.6034L82.3965 73.2404V74.0917Z" fill="#555E61"/>
<path d="M89.2221 72.3689L88.4224 72.8296V72.332L89.2221 71.8695V72.3689Z" fill="#0A1316"/>
<path d="M89.2221 69.2988L88.4224 69.7595V68.1858L89.2221 67.7233V69.2988Z" fill="url(#paint42_linear_43_31919)"/>
<path d="M89.1466 72.2543L88.5164 72.6192V68.4988L89.1466 68.1357V72.2543Z" fill="url(#paint43_linear_43_31919)"/>
<path d="M89.1466 72.2546L88.5164 72.6195V70.9739L89.1466 70.6108V72.2546Z" fill="#232C2F"/>
<path d="M89.1466 70.1943L88.5164 70.5591V69.7059L89.1466 69.3429V70.1943Z" fill="#555E61"/>
<path d="M95.9741 68.4713L95.1743 68.932V68.4345L95.9741 67.9719V68.4713Z" fill="#0A1316"/>
<path d="M95.9741 65.4012L95.1743 65.8619V64.2882L95.9741 63.8257V65.4012Z" fill="url(#paint44_linear_43_31919)"/>
<path d="M95.8967 68.3572L95.2683 68.7203V64.6017L95.8967 64.2368V68.3572Z" fill="url(#paint45_linear_43_31919)"/>
<path d="M95.8967 68.3571L95.2683 68.7201V67.0764L95.8967 66.7134V68.3571Z" fill="#232C2F"/>
<path d="M95.8968 66.2967L95.2684 66.6615L95.2666 65.8083L95.8968 65.4453V66.2967Z" fill="#555E61"/>
<path d="M102.724 64.5739L101.924 65.0345V64.537L102.724 64.0745V64.5739Z" fill="#0A1316"/>
<path d="M102.724 61.5038L101.924 61.9645V60.3908L102.724 59.9282V61.5038Z" fill="url(#paint46_linear_43_31919)"/>
<path d="M102.649 64.4596L102.018 64.8227V60.7041L102.649 60.3411V64.4596Z" fill="url(#paint47_linear_43_31919)"/>
<path d="M102.649 64.4595L102.018 64.8226V63.1788L102.649 62.8158V64.4595Z" fill="#232C2F"/>
<path d="M102.649 62.3992L102.018 62.7641V61.9109L102.649 61.5479V62.3992Z" fill="#555E61"/>
<path d="M109.476 60.6763L108.674 61.137V60.6394L109.476 60.1769V60.6763Z" fill="#0A1316"/>
<path d="M109.476 57.6045L108.674 58.067V56.4933L109.476 56.0308V57.6045Z" fill="url(#paint48_linear_43_31919)"/>
<path d="M109.399 60.5621L108.768 60.9269V56.8065L109.399 56.4435V60.5621Z" fill="url(#paint49_linear_43_31919)"/>
<path d="M109.399 60.5621L108.768 60.927V59.2814L109.399 58.9183V60.5621Z" fill="#232C2F"/>
<path d="M109.399 58.5021L108.768 58.867V58.0138L109.399 57.6489V58.5021Z" fill="#555E61"/>
<path d="M116.226 56.7788L115.426 57.2395V56.7419L116.226 56.2794V56.7788Z" fill="#0A1316"/>
<path d="M116.226 53.7069L115.426 54.1694V52.5957L116.226 52.1332V53.7069Z" fill="url(#paint50_linear_43_31919)"/>
<path d="M116.15 56.6646L115.52 57.0276V52.909L116.15 52.546V56.6646Z" fill="url(#paint51_linear_43_31919)"/>
<path d="M116.15 56.6645L115.52 57.0275V55.3838L116.15 55.0208V56.6645Z" fill="#232C2F"/>
<path d="M116.15 54.6045L115.52 54.9694V54.1162L116.15 53.7513V54.6045Z" fill="#555E61"/>
<path d="M31.5712 113.118L29.6897 112.032L25.5398 114.43L27.4213 115.515L31.5712 113.118Z" fill="#404B4D"/>
<path d="M31.5713 112.794V113.118L27.4214 115.515V115.191L31.5713 112.794Z" fill="#273234"/>
<path d="M46.8055 103.924L46.3411 104.72L44.5813 103.924L33.6316 108.091L34.0075 100.438L40.6728 97.3215L45.9486 97.9554L46.8055 103.924Z" fill="#0E191B"/>
<path d="M45.7644 107.158C45.7644 107.457 45.5507 107.584 45.2872 107.438L39.3572 104.152C39.0955 104.007 38.8799 103.644 38.8799 103.345V93.7169C38.8799 93.4184 39.0955 93.2913 39.3572 93.4368L45.2872 96.7225C45.5488 96.8681 45.7626 97.2311 45.7626 97.5315V107.16L45.7644 107.158Z" fill="#0E191B"/>
<path d="M43.3337 101.623L40.4553 99.9088C39.4915 99.3615 38.1647 99.4444 36.7016 100.288C33.7587 101.987 31.3723 106.121 31.3723 109.519C31.3723 111.229 31.9749 112.427 32.9497 112.98L35.8281 114.691C36.79 115.237 38.115 115.152 39.5781 114.308C42.521 112.609 44.9056 108.478 44.9056 105.08C44.9056 103.373 44.303 102.175 43.3318 101.623H43.3337Z" fill="#2E373A"/>
<path d="M44.9074 105.08C44.9074 108.478 42.5229 112.611 39.58 114.308C38.1168 115.152 36.7919 115.237 35.83 114.692C34.8552 114.139 34.2507 112.941 34.2507 111.233C34.2507 107.835 36.6353 103.701 39.58 102.002C41.045 101.156 42.3699 101.074 43.3337 101.621C44.3067 102.174 44.9074 103.371 44.9074 105.078V105.08Z" fill="#555E61"/>
<path d="M44.5812 105.476C44.5812 108.573 42.4068 112.338 39.7256 113.886C37.0443 115.436 34.8699 114.179 34.8699 111.083C34.8699 107.987 37.0443 104.221 39.7256 102.673C42.4086 101.125 44.5812 102.38 44.5812 105.476Z" fill="#3B4447"/>
<path d="M43.0442 106.178C43.0442 108.292 41.5589 110.862 39.7272 111.92C37.8974 112.978 36.4121 112.121 36.4121 110.007C36.4121 107.893 37.8974 105.321 39.7272 104.265C41.5589 103.207 43.0442 104.064 43.0442 106.18V106.178Z" fill="url(#paint52_linear_43_31919)"/>
<path d="M42.3754 106.309C42.3754 108.124 41.1002 110.331 39.5283 111.238C37.9565 112.145 36.6831 111.409 36.6831 109.594C36.6831 107.779 37.9565 105.572 39.5283 104.665C41.1021 103.756 42.3754 104.494 42.3754 106.309Z" fill="url(#paint53_linear_43_31919)"/>
<path d="M39.7273 104.521C39.567 104.613 39.4103 104.724 39.2556 104.84C39.344 104.777 39.4343 104.72 39.5264 104.667C41.1002 103.758 42.3735 104.495 42.3735 106.311C42.3735 108.126 41.0983 110.333 39.5264 111.24C37.9546 112.147 36.6812 111.411 36.6812 109.596C36.6812 109.379 36.6996 109.158 36.7347 108.931C36.672 109.252 36.6333 109.57 36.6333 109.878C36.6333 111.85 38.0191 112.65 39.7255 111.664C41.4337 110.678 42.8195 108.279 42.8195 106.307C42.8195 104.335 41.4355 103.535 39.7255 104.521H39.7273Z" fill="url(#paint54_linear_43_31919)"/>
<path d="M42.1966 106.384C42.1966 108.116 40.9804 110.223 39.4804 111.089C37.9804 111.955 36.7642 111.253 36.7642 109.52C36.7642 107.788 37.9804 105.682 39.4804 104.816C40.9804 103.95 42.1966 104.652 42.1966 106.384Z" fill="url(#paint55_linear_43_31919)"/>
<path d="M41.6808 107.26C41.6808 108.443 40.8515 109.88 39.827 110.473C38.8024 111.065 37.9731 110.586 37.9731 109.403C37.9731 108.22 38.8024 106.78 39.827 106.189C40.8515 105.597 41.6808 106.076 41.6808 107.26Z" fill="url(#paint56_linear_43_31919)"/>
<path d="M39.7217 105.544C39.7733 105.763 39.6978 105.968 39.5503 106.003C39.4048 106.038 39.2426 105.889 39.191 105.671C39.1394 105.452 39.215 105.247 39.3624 105.212C39.5098 105.179 39.6701 105.327 39.7217 105.544Z" fill="url(#paint57_linear_43_31919)"/>
<path d="M37.3982 108.575C37.6212 108.606 37.7833 108.752 37.7631 108.901C37.7428 109.052 37.5438 109.146 37.3226 109.115C37.0997 109.084 36.9375 108.938 36.9578 108.789C36.978 108.64 37.1752 108.544 37.3982 108.575Z" fill="url(#paint58_linear_43_31919)"/>
<path d="M37.5105 110.3C37.7132 110.206 37.916 110.208 37.962 110.308C38.0081 110.405 37.8791 110.562 37.6764 110.658C37.4718 110.752 37.271 110.75 37.2249 110.65C37.1788 110.553 37.3078 110.396 37.5105 110.3Z" fill="url(#paint59_linear_43_31919)"/>
<path d="M38.5112 111.006C38.5959 110.864 38.7231 110.787 38.7986 110.833C38.8742 110.877 38.8668 111.028 38.7821 111.168C38.6973 111.308 38.5683 111.387 38.4927 111.343C38.419 111.297 38.4264 111.148 38.5112 111.006Z" fill="url(#paint60_linear_43_31919)"/>
<path d="M38.373 106.729C38.561 106.854 38.6365 107.066 38.5462 107.204C38.4541 107.342 38.2293 107.352 38.0413 107.228C37.8534 107.103 37.7778 106.891 37.8681 106.753C37.9602 106.615 38.1869 106.605 38.373 106.729Z" fill="url(#paint61_linear_43_31919)"/>
<path d="M41.1425 105.207C41.1351 105.431 41.0245 105.61 40.8956 105.606C40.7647 105.603 40.6652 105.417 40.6744 105.192C40.6818 104.967 40.7924 104.788 40.9213 104.794C41.0503 104.798 41.1517 104.984 41.1443 105.207H41.1425Z" fill="url(#paint62_linear_43_31919)"/>
<path d="M41.9681 106.506C41.8428 106.589 41.6972 106.593 41.6456 106.515C41.594 106.436 41.653 106.305 41.7783 106.222C41.9054 106.139 42.0492 106.136 42.1008 106.213C42.1524 106.29 42.0916 106.421 41.9663 106.506H41.9681Z" fill="url(#paint63_linear_43_31919)"/>
<path d="M41.7396 108.024C41.6843 108.013 41.6567 107.938 41.6732 107.857C41.6917 107.776 41.7488 107.72 41.8041 107.733C41.8594 107.746 41.887 107.822 41.8704 107.901C41.852 107.982 41.793 108.037 41.7396 108.024Z" fill="url(#paint64_linear_43_31919)"/>
<path d="M39.9798 110.728C39.93 110.744 39.8729 110.704 39.8508 110.637C39.8287 110.571 39.8526 110.505 39.9024 110.488C39.9521 110.472 40.0093 110.512 40.0314 110.578C40.0535 110.645 40.0314 110.711 39.9798 110.728Z" fill="url(#paint65_linear_43_31919)"/>
<path d="M41.2273 109.303C41.196 109.346 41.1444 109.36 41.1076 109.335C41.0707 109.309 41.067 109.254 41.0983 109.211C41.1278 109.169 41.1831 109.154 41.2181 109.18C41.2531 109.204 41.2587 109.261 41.2273 109.303Z" fill="url(#paint66_linear_43_31919)"/>
<path d="M41.0377 107.851C41.0377 108.55 40.5494 109.397 39.9449 109.746C39.3405 110.094 38.8503 109.812 38.8503 109.114C38.8503 108.415 39.3405 107.569 39.9449 107.221C40.5475 106.871 41.0377 107.155 41.0377 107.851Z" fill="url(#paint67_linear_43_31919)"/>
<path d="M41.1443 107.958C41.1443 108.634 40.6689 109.458 40.0829 109.795C39.4969 110.134 39.0215 109.86 39.0215 109.182C39.0215 108.504 39.4969 107.682 40.0829 107.343C40.6689 107.003 41.1443 107.278 41.1443 107.956V107.958Z" fill="url(#paint68_linear_43_31919)"/>
<path d="M27.4213 115.515L25.5398 114.43V110.729L26.8905 111.511L27.4213 115.191V115.515Z" fill="#2E373A"/>
<path d="M31.5714 113.118L29.6899 112.032V108.332L31.0407 109.113L31.5714 112.793V113.118Z" fill="#2E373A"/>
<path d="M3.92256 78.6563C3.92256 78.9548 3.71064 79.0783 3.45081 78.929L1.59699 77.8584C1.33716 77.7091 1.12524 77.3405 1.12524 77.042V69.3817C1.12524 69.0813 1.33716 68.9597 1.59699 69.1089L3.45265 70.1796C3.71064 70.3288 3.9244 70.6974 3.9244 70.9959V78.6563H3.92256Z" fill="#5A6567"/>
<path d="M3.67367 78.8551C3.67367 79.1537 3.46175 79.2771 3.20192 79.126L1.34626 78.0554C1.08643 77.9061 0.874512 77.5376 0.874512 77.239V69.5787C0.874512 69.2801 1.08643 69.1567 1.34626 69.3078L3.20008 70.3784C3.45991 70.5277 3.67183 70.8962 3.67183 71.1948V78.8551H3.67367Z" fill="#404B4D"/>
<path d="M47.6753 104.136C47.6753 104.136 47.4873 99.2013 47.3897 98.3812C47.2902 97.563 47.1722 96.9605 46.9953 96.8517C46.8166 96.743 45.1489 95.7756 45.1489 95.7756L44.9222 95.2135L46.8055 94.0047L45.722 92.6152L45.0622 91.9555V90.2362L45.44 90.0483C45.44 90.0483 44.6403 77.3793 44.5223 75.754C44.4044 74.1286 43.5807 72.0813 42.803 71.3977C42.0254 70.714 36.2096 67.1354 32.5831 64.8982C28.9565 62.6611 22.8348 59.2704 21.5154 58.5868C20.1979 57.9031 19.9141 58.209 19.3723 58.5868C18.8305 58.9627 5.07983 67.7969 4.53805 68.3958C4.36483 68.5893 4.16029 68.886 3.95206 69.2619C3.8765 69.1218 3.80279 68.9339 3.76409 68.6999C3.76409 68.6999 2.70819 68.768 2.03374 69.3301C2.03374 69.3301 1.89737 71.6243 1.9545 72.2638C1.9932 72.6968 2.06875 73.2036 2.5792 73.7877C2.12588 76.6993 1.3814 82.3547 1.3814 82.3547L1.24688 86.0919C0.568742 86.4217 0.143064 87.6785 0.104366 88.0083C0.0656682 88.3363 -0.107552 90.3118 0.104366 91.2995C0.318127 92.2872 1.69098 93.3505 1.69098 93.3505C0.935452 93.5643 1.11051 95.4789 1.01285 96.7762C0.915182 98.0735 0.935452 99.5643 1.80708 100.436C2.67871 101.308 5.71742 103.611 5.71742 103.611C5.40784 104.403 6.27762 105.12 6.27762 105.12C6.27762 105.12 16.8459 111.489 17.137 111.489C17.4282 111.489 18.6094 111.12 18.6094 111.12C18.6094 111.12 21.9964 112.9 23.6807 113.442C25.365 113.984 26.876 113.055 26.876 113.055V111.782L29.9811 110.179V109.764L31.6267 108.848L32.5204 109.383L33.8951 108.664C33.8951 108.664 34.8036 104.906 35.6052 102.632C36.4068 100.359 37.9271 98.9636 39.1931 98.0993C40.459 97.235 42.6851 96.0022 42.8933 95.9525C43.1016 95.9046 43.3577 95.8087 43.8055 95.7922L44.7508 97.587L45.2797 98.1159C45.2797 98.1159 45.9044 99.3984 46.1605 101.433C46.4167 103.467 46.3374 104.72 46.3374 104.72L47.6735 104.136H47.6753Z" fill="#E1E8EC"/>
<g style="mix-blend-mode:multiply" opacity="0.15">
<path d="M44.5203 75.7559C44.4374 74.6171 44.008 73.27 43.4883 72.3302L26.3801 82.5059C26.3801 82.5059 26.288 84.6712 25.468 85.8985C24.6479 87.1276 21.8562 85.6478 20.4815 84.8794C20.3119 84.7854 20.0134 84.6104 19.6135 84.3745L8.01148 82.6773L1.48994 81.5366C1.42176 82.0452 1.38122 82.3567 1.38122 82.3567L1.24669 86.0938V87.4832C1.24669 87.6896 2.03355 88.8027 2.15333 88.9206C1.70001 88.7805 0.614627 88.7197 0.352954 88.74C0.244231 88.7474 0.155779 88.4617 0.0931249 88.1282C0.0396847 88.6626 -0.0893087 90.3948 0.106024 91.3014C0.319785 92.2892 1.69264 93.3524 1.69264 93.3524C1.69264 93.3524 1.99854 94.3789 3.74364 95.6799C3.64044 95.3002 3.58332 95.022 3.58332 95.022C3.74917 95.2689 3.94634 95.4993 4.1859 95.6817C5.33394 96.5588 9.87635 99.3101 11.5938 100.373C13.3094 101.435 18.2112 104.274 18.8525 104.595C19.0533 104.695 19.2468 104.778 19.4311 104.833L20.8519 105.769C20.8353 105.791 20.8187 105.81 20.8021 105.83H20.8039C20.8039 105.83 21.9114 106.56 24.1541 107C24.8949 107.146 25.6909 106.917 26.4999 106.631L26.8777 107.87C26.8777 107.87 25.7628 108.312 24.928 108.312C23.9366 108.312 21.0693 107.321 19.0975 106.296C18.1927 106.108 17.2695 105.524 16.8604 105.303C16.151 104.916 8.52377 100.32 7.44206 99.675C6.41749 99.0632 5.30446 98.3058 4.6945 97.7474C4.6945 97.7474 3.38799 96.8758 2.40026 95.9434C1.64842 95.2339 1.22642 94.7529 1.15824 94.2775C1.12323 94.4802 1.10112 94.7069 1.08822 94.9427C1.24669 95.0883 1.39964 95.2357 1.39964 95.2357L2.0741 97.2554L4.00531 99.4225C4.00531 99.4225 4.53418 99.9256 4.55445 100.112C4.57472 100.298 4.69635 100.871 4.45126 100.821C4.20617 100.771 2.89228 99.5404 2.21046 98.9397C1.51574 98.3279 1.1822 97.9815 0.99055 97.2112C0.933425 98.3979 1.03293 99.6676 1.81058 100.443C2.68221 101.315 5.72092 103.618 5.72092 103.618C5.41134 104.411 6.28112 105.128 6.28112 105.128C6.28112 105.128 16.8494 111.496 17.1405 111.496C17.4317 111.496 18.6129 111.128 18.6129 111.128C18.6129 111.128 21.9999 112.908 23.6842 113.45C25.3685 113.991 26.8795 113.063 26.8795 113.063V111.789L29.9846 110.186V109.771L31.6302 108.856L32.1332 108.555V107.767L26.8795 110.568V108.857L30.6314 106.847C30.9226 105.098 31.4827 102.926 31.4827 102.926L34.597 101.088C34.8439 100.707 36.0749 98.6006 36.0749 98.6006L27.4711 103.373V102.006L45.0621 91.9593V90.24L45.4398 90.0521C45.4398 90.0521 44.6401 77.3831 44.5221 75.7577L44.5203 75.7559ZM19.3832 102.988C19.0846 103.401 18.3954 103.482 17.8887 103.272C17.3838 103.062 12.9869 100.335 11.7283 99.5939C10.4697 98.8531 6.69206 96.6805 5.72829 96.076C4.76637 95.4716 4.19696 93.9403 4.19696 93.9403L4.39598 93.4814C4.89352 93.8316 5.42608 94.1872 5.8794 94.4489C7.15091 95.1805 17.159 101.238 18.8819 102.161C19.0699 102.262 19.245 102.352 19.4071 102.437C19.4532 102.677 19.4587 102.881 19.3795 102.992L19.3832 102.988ZM20.1903 100.888C20.1903 100.888 19.3371 101.691 18.4839 101.228C17.6307 100.766 5.16809 93.2124 4.97645 93.1074C4.7848 93.0023 3.53172 91.6811 3.53172 90.861C3.53172 90.6952 3.62754 90.5496 3.77865 90.4224C4.5305 90.9513 5.32473 91.4728 5.64906 91.6811C6.27375 92.0809 14.9937 97.4102 17.5054 98.8181C18.7308 99.5054 19.842 100.058 20.6602 100.445L20.1885 100.888H20.1903ZM4.08271 102.013C3.50961 101.567 1.3978 100.169 1.23748 99.2069C1.13981 98.6227 1.11033 98.2837 1.10112 98.1215L1.16377 98.1528C1.23748 98.2984 1.37937 98.5288 1.62078 98.7665C1.65395 99.089 1.77557 99.5533 2.1607 99.933C2.72828 100.491 4.10666 101.833 4.49364 102.209C4.42546 102.225 4.302 102.187 4.08086 102.013H4.08271ZM18.5042 107.617C18.4341 107.89 18.2941 108.412 18.1264 108.88C18.0029 109.224 17.8629 109.541 17.7265 109.711C17.4022 110.109 16.9765 109.878 16.1694 109.46C15.3623 109.042 8.0815 104.615 7.41627 104.199C6.74919 103.782 6.25717 103.652 5.9052 102.773C5.76515 102.421 5.64721 101.89 5.55323 101.352L5.9181 101.597L18.1264 108.88L18.0011 108.806C18.1467 108.378 18.2665 107.932 18.3291 107.687C18.4489 107.214 18.2278 107.048 17.5607 106.687C16.8936 106.325 11.3727 102.99 10.0754 102.222C8.77807 101.453 5.66564 99.5165 5.66564 99.5165C5.52375 99.4428 5.3708 99.3396 5.25655 99.2972C5.28419 99.0779 5.57903 99.3138 5.8407 99.4483C5.8407 99.4483 8.95313 101.385 10.2486 102.153C11.5459 102.922 17.0668 106.257 17.7339 106.618C18.401 106.98 18.6239 107.147 18.5023 107.619L18.5042 107.617ZM23.0116 112.829C22.4882 112.696 20.3543 111.686 19.8715 111.463C19.6154 111.345 19.385 111.26 19.2579 111.093C19.374 111.155 19.5269 111.224 19.7314 111.297C20.8224 111.693 23.0097 112.451 23.9182 112.552C23.7616 112.805 23.428 112.932 23.0134 112.827L23.0116 112.829ZM24.0417 111.587C23.3746 111.45 21.4931 110.739 20.4575 110.269C19.4219 109.799 19.1565 109.712 19.1399 109.396C19.1233 109.079 19.584 108.308 19.584 108.308L20.8426 108.985L23.3064 109.965C23.3064 109.965 25.0884 111.067 25.0331 111.251C24.9778 111.435 24.7106 111.723 24.0417 111.587ZM23.2677 102.498C23.2677 102.364 23.0853 102.071 22.8291 101.752C22.573 101.433 22.1565 100.928 22.1565 100.928C22.1565 100.928 23.9108 101.413 24.7438 101.424C25.5767 101.435 26.8777 100.928 26.8777 100.928C26.8777 100.928 27.4084 101.475 27.4434 101.597C27.4545 101.641 27.4618 101.706 27.4655 101.772C25.6817 102.804 23.2677 102.498 23.2677 102.498ZM40.9914 87.1773C40.3225 87.6546 24.8156 97.1025 24.8156 97.1025L25.0884 96.041C25.0884 96.041 38.535 87.603 40.1787 86.5342C41.8206 85.4654 41.9017 84.2381 41.9017 84.2381L41.4539 75.9144L42.156 75.4869C42.156 75.4869 42.6665 81.4648 42.8895 83.5047C43.1124 85.5465 41.6603 86.6982 40.9896 87.1773H40.9914Z" fill="black"/>
</g>
<g style="mix-blend-mode:multiply" opacity="0.15">
<path d="M47.6753 104.136C47.6753 104.136 47.4873 99.2011 47.3896 98.381C47.3122 97.7397 47.2238 97.2311 47.1022 96.9897C46.5678 97.3491 45.2981 98.147 45.2981 98.147C45.3921 98.3479 45.9302 99.5733 46.1642 101.431C46.4203 103.465 46.3411 104.718 46.3411 104.718L47.6771 104.134L47.6753 104.136Z" fill="black"/>
</g>
<g style="mix-blend-mode:multiply" opacity="0.15">
<path d="M45.7292 96.7872L45.1487 95.7774L44.922 95.2154L46.8053 94.0065L45.7218 92.6171L45.825 92.7479C45.825 92.7479 39.5485 96.4353 38.3397 97.2479C37.129 98.0606 35.7395 99.5846 34.4625 102.094C33.1855 104.604 32.5239 109.386 32.5239 109.386L33.8986 108.668C33.8986 108.668 34.8071 104.91 35.6087 102.636C36.4103 100.362 37.9306 98.9672 39.1966 98.103C40.4625 97.2387 42.6886 96.0059 42.8968 95.9562C43.1051 95.9082 43.3612 95.8124 43.809 95.7958L44.7543 97.5907C44.7543 97.5907 45.3256 97.1926 45.6223 97.0636C45.919 96.9347 45.7292 96.7891 45.7292 96.7891V96.7872Z" fill="black"/>
</g>
<path style="mix-blend-mode:multiply" opacity="0.3" d="M36.0751 98.5985C36.0751 98.5985 34.8423 100.705 34.5972 101.086L31.4829 102.924C31.4829 102.924 30.9227 105.096 30.6316 106.845L32.1334 107.763V108.551L31.6304 108.852L32.5241 109.386C32.5241 109.386 33.1838 104.604 34.4627 102.094C35.7397 99.5844 37.1292 98.0605 38.3399 97.2478L36.077 98.5985H36.0751Z" fill="url(#paint69_linear_43_31919)"/>
<path style="mix-blend-mode:multiply" opacity="0.3" d="M42.8914 83.5044C42.6685 81.4627 42.158 75.4866 42.158 75.4866L41.4559 75.9141L41.9037 84.2379C41.9037 84.2379 41.8245 85.467 40.1807 86.5339C38.537 87.6027 25.0904 96.0408 25.0904 96.0408L24.8176 97.1022C24.8176 97.1022 40.3245 87.6562 40.9934 87.1771C41.6623 86.6979 43.1163 85.5462 42.8933 83.5044H42.8914Z" fill="url(#paint70_linear_43_31919)"/>
<path style="mix-blend-mode:multiply" opacity="0.2" d="M23.2679 102.498C23.2679 102.498 23.2237 102.765 23.0874 103.091C22.951 103.417 22.6046 104.125 22.3926 104.446C22.1936 104.746 21.9522 105.092 21.2114 104.936C21.3533 105.039 21.5229 105.151 21.7292 105.284C22.4682 105.763 24.158 106.139 25.2839 106.049C26.408 105.959 27.4713 105.362 27.4713 105.362V102.004C27.4713 102.004 27.4731 101.888 27.4658 101.774C25.682 102.806 23.2679 102.5 23.2679 102.5V102.498Z" fill="url(#paint71_linear_43_31919)"/>
<path style="mix-blend-mode:multiply" opacity="0.3" d="M22.1143 101.186C22.1143 101.186 22.8974 102.085 23.0062 102.234C23.1149 102.384 23.1149 102.568 23.0062 102.854C22.8974 103.139 22.2672 104.407 22.1032 104.564C21.9392 104.72 21.5375 104.918 20.8833 104.339C20.8833 104.339 21.4914 102.988 21.7439 102.41C21.9963 101.831 22.1161 101.188 22.1161 101.188L22.1143 101.186Z" fill="url(#paint72_linear_43_31919)"/>
<g style="mix-blend-mode:multiply" opacity="0.15">
<path d="M22.8292 101.752C22.573 101.433 22.1566 100.928 22.1566 100.928L22.046 101.103L21.9115 101.582C21.7733 102.105 21.2315 103.29 21.2315 103.29C21.1559 103.465 21.0841 103.628 21.0233 103.753C21.0233 103.753 20.9109 104.04 20.686 104.357C20.6971 104.39 20.71 104.422 20.7266 104.453C20.7303 104.462 20.7358 104.471 20.7413 104.481C20.7561 104.507 20.7708 104.53 20.7892 104.554C20.7984 104.565 20.8077 104.578 20.8169 104.589C20.8353 104.612 20.8537 104.634 20.874 104.656C20.8887 104.671 20.9035 104.685 20.9201 104.702C20.933 104.715 20.9496 104.728 20.9643 104.741C21.003 104.776 21.0472 104.811 21.0933 104.847C21.0988 104.851 21.1043 104.855 21.1099 104.86C21.1412 104.884 21.1744 104.91 21.2094 104.934C21.952 105.091 22.1916 104.746 22.3906 104.444C22.6007 104.123 22.9489 103.416 23.0853 103.089C23.2217 102.763 23.2659 102.496 23.2659 102.496C23.2659 102.362 23.0835 102.069 22.8273 101.75L22.8292 101.752ZM23.0061 102.852C22.8974 103.137 22.2671 104.405 22.1031 104.562C21.9391 104.718 21.5374 104.916 20.8832 104.337C20.8832 104.337 21.4913 102.986 21.7438 102.408C21.9962 101.829 22.116 101.186 22.116 101.186C22.116 101.186 22.8992 102.085 23.0079 102.234C23.1166 102.384 23.1166 102.568 23.0079 102.854L23.0061 102.852Z" fill="black"/>
</g>
<path style="mix-blend-mode:multiply" opacity="0.3" d="M26.8778 107.868L26.5 106.629C25.6911 106.915 24.895 107.143 24.1542 106.998C21.9134 106.557 20.8041 105.828 20.8041 105.828H20.8022C20.371 106.36 19.7389 106.427 19.0977 106.294C21.0694 107.319 23.9368 108.31 24.9282 108.31C25.7629 108.31 26.8778 107.868 26.8778 107.868Z" fill="url(#paint73_linear_43_31919)"/>
<path style="mix-blend-mode:multiply" opacity="0.3" d="M27.4711 105.063V105.362C27.4711 105.362 27.0602 105.592 26.4797 105.787L26.5 106.629L26.8778 107.868V108.855L30.6296 106.845C30.9208 105.096 31.481 102.924 31.481 102.924L27.4693 105.065L27.4711 105.063Z" fill="url(#paint74_linear_43_31919)"/>
<path style="mix-blend-mode:multiply" opacity="0.3" d="M19.7298 111.299C20.8207 111.695 23.008 112.453 23.9165 112.554C23.9571 112.489 23.9884 112.416 24.0031 112.336C24.0732 111.946 23.6088 111.719 22.6008 111.375C22.0996 111.203 20.4945 110.507 19.9085 110.258C19.3225 110.007 19.2746 110.258 19.2359 110.376C19.118 110.733 19.1456 110.945 19.2562 111.094C19.3723 111.157 19.5252 111.225 19.7298 111.299Z" fill="url(#paint75_linear_43_31919)"/>
<path style="mix-blend-mode:multiply" opacity="0.4" d="M4.49555 102.207C4.10673 101.829 2.72834 100.487 2.16262 99.9309C1.77564 99.5513 1.65586 99.0888 1.62269 98.7645C1.38128 98.5268 1.23939 98.2964 1.16568 98.1508L1.10303 98.1195C1.11224 98.2817 1.14357 98.6207 1.23939 99.2049C1.39971 100.167 3.51152 101.565 4.08462 102.011C4.30391 102.183 4.42737 102.221 4.4974 102.207H4.49555Z" fill="url(#paint76_linear_43_31919)"/>
<path style="mix-blend-mode:multiply" opacity="0.4" d="M2.20868 98.9304C2.88866 99.5312 4.20439 100.762 4.44948 100.812C4.69457 100.862 4.57294 100.289 4.55267 100.102C4.5324 99.9163 4.00353 99.4132 4.00353 99.4132L2.07231 97.2461L1.39786 95.2265C1.39786 95.2265 1.24491 95.0809 1.08644 94.9335C1.04774 95.5379 1.05695 96.2142 1.01457 96.7744C1.00351 96.9144 0.996141 97.0563 0.98877 97.2001C1.18042 97.9703 1.51396 98.3149 2.20868 98.9286V98.9304Z" fill="url(#paint77_linear_43_31919)"/>
<g style="mix-blend-mode:multiply" opacity="0.3">
<path d="M2.16078 99.9304C2.72835 100.489 4.10674 101.83 4.49372 102.206C4.60244 102.18 4.57296 102.011 4.57296 102.011C4.57296 102.011 4.62087 101.244 4.19887 100.97C3.77688 100.695 2.22896 99.2983 1.73694 98.8727C1.69456 98.8358 1.6577 98.7989 1.62085 98.7621C1.65402 99.0846 1.77564 99.5489 2.16078 99.9286V99.9304Z" fill="url(#paint78_linear_43_31919)"/>
<path d="M1.16375 98.1503C1.11768 98.0563 1.09741 97.9973 1.09741 97.9973C1.09741 97.9973 1.09741 98.036 1.1011 98.1208L1.16375 98.1521V98.1503Z" fill="url(#paint79_linear_43_31919)"/>
</g>
<g style="mix-blend-mode:multiply" opacity="0.15">
<path d="M26.8779 100.825L45.0623 90.3541V90.238L26.8779 100.709V100.825Z" fill="black"/>
</g>
<g style="mix-blend-mode:multiply" opacity="0.15">
<path d="M0.297805 89.1857C0.283063 88.7932 0.318076 88.7305 0.318076 88.7305C0.224095 88.6845 0.148542 88.4246 0.0914159 88.1261C0.0379758 88.6605 -0.0910176 90.3945 0.104315 91.2993C0.318076 92.2871 1.69093 93.3503 1.69093 93.3503C1.73516 93.3761 1.77939 93.4038 1.82361 93.4296C1.11968 92.7164 0.872747 92.053 0.716112 91.4965C0.544736 90.8921 0.31439 89.5764 0.297805 89.1838V89.1857Z" fill="black"/>
</g>
<path style="mix-blend-mode:multiply" opacity="0.3" d="M0.460012 89.0533C0.460012 89.0533 0.39183 88.8838 0.670087 88.8893C0.950187 88.893 1.7868 88.9759 1.91395 89.0035C2.04295 89.0312 2.06506 89.1731 2.11481 89.3279C2.16457 89.4827 2.23828 89.936 2.29172 90.2419C2.347 90.5478 2.76347 93.5202 2.76347 93.5202C2.76347 93.5202 2.11113 93.2677 1.60805 92.7886C1.10314 92.3095 0.845149 91.5079 0.684829 90.6528C0.524509 89.7978 0.482125 89.3094 0.458169 89.0533H0.460012Z" fill="url(#paint80_linear_43_31919)"/>
<path style="mix-blend-mode:multiply" opacity="0.2" d="M1.15638 94.2716C1.22457 94.747 1.6484 95.2299 2.39841 95.9375C3.38613 96.8699 4.69265 97.7415 4.69265 97.7415C4.65948 97.7121 4.62815 97.6826 4.59866 97.6531C4.22827 97.2956 3.91868 96.3337 3.74178 95.6758C1.99668 94.3748 1.69078 93.3484 1.69078 93.3484C1.39041 93.4332 1.23747 93.7907 1.15454 94.2698L1.15638 94.2716Z" fill="url(#paint81_linear_43_31919)"/>
<g style="mix-blend-mode:multiply" opacity="0.15">
<path d="M27.2318 85.6459C27.2152 85.7454 27.2023 85.8486 27.1968 85.9573C27.206 85.8504 27.217 85.7472 27.2318 85.6459Z" fill="black"/>
<path d="M44.1006 73.76L28.4445 83.2373C28.4445 83.2373 27.4696 83.9155 27.2319 85.6477C27.4346 84.4609 28.4445 83.7883 28.4445 83.7883L44.2425 74.2262C44.1982 74.0696 44.1503 73.9148 44.1006 73.7619V73.76Z" fill="black"/>
</g>
<path d="M6.05088 104.409C6.17435 104.298 6.32177 104.011 6.72533 104.278C7.13074 104.543 15.0712 109.27 15.3402 109.441C15.6093 109.613 16.0884 110.116 16.3224 110.473C16.5546 110.829 16.949 111.148 17.2309 111.1C17.5147 111.05 17.8704 110.825 17.8704 110.825L16.8716 110.302C16.8716 110.302 16.4828 109.826 16.1161 109.434C15.0988 108.885 8.07055 104.611 7.41637 104.202C6.96305 103.919 6.59081 103.767 6.2886 103.425C5.96611 103.39 5.71918 103.615 5.71918 103.615C5.62152 103.861 5.63994 104.101 5.71181 104.313C5.84265 104.398 5.99007 104.468 6.05088 104.412V104.409Z" fill="#2E383B"/>
<g style="mix-blend-mode:multiply" opacity="0.15">
<path d="M23.2918 83.2906C19.7629 81.6579 6.98147 73.6916 5.16635 72.3298C3.71057 71.2371 2.72284 70.8464 2.03365 69.3317C2.03365 69.3317 1.89729 71.6259 1.95441 72.2653C1.99311 72.6984 2.06866 73.2052 2.57911 73.7893C2.57911 73.7893 3.48943 74.5117 6.30518 76.2715C9.12092 78.0313 19.1068 84.1125 20.4816 84.8809C21.8581 85.6493 24.6499 87.1291 25.4681 85.8999C25.9177 85.2255 26.148 84.2673 26.266 83.5412C25.6321 83.7734 24.6093 83.9005 23.2918 83.2906Z" fill="black"/>
</g>
<path style="mix-blend-mode:multiply" opacity="0.1" d="M5.82244 67.4652C5.10008 67.9591 4.62833 68.2963 4.53619 68.3995C4.36297 68.593 4.15843 68.8897 3.9502 69.2656C4.22661 70.1446 7.62282 72.3375 8.65293 73.0856L18.9964 79.3695C20.1315 80.0144 21.7937 81.0777 23.8373 81.8277C25.8809 82.5759 26.3803 82.5077 26.3803 82.5077L29.0855 80.8989L5.82244 67.4671V67.4652Z" fill="url(#paint82_linear_43_31919)"/>
<path opacity="0.5" d="M22.6062 59.1746L9.01587 67.8706C9.05825 67.8964 9.10064 67.9222 9.14486 67.948L22.7408 59.2483C22.6947 59.2225 22.6505 59.1985 22.6062 59.1746Z" fill="white"/>
<g style="mix-blend-mode:multiply" opacity="0.15">
<path d="M23.2422 59.5229L9.62598 68.2355C9.66652 68.2595 9.71259 68.2871 9.75497 68.3129L23.3767 59.5985C23.3306 59.5745 23.2864 59.5487 23.2422 59.5248V59.5229Z" fill="black"/>
</g>
<g style="mix-blend-mode:multiply" opacity="0.15">
<path d="M25.9676 61.041L12.239 69.8236C12.2814 69.8494 12.3256 69.8752 12.368 69.901L26.1021 61.1147C26.0579 61.0889 26.0137 61.065 25.9676 61.041Z" fill="black"/>
</g>
<path opacity="0.5" d="M11.7578 69.5382L25.4735 60.763C25.433 60.7409 25.3924 60.7169 25.3519 60.6948L11.6399 69.4682C11.6786 69.4922 11.7173 69.5143 11.7578 69.5382Z" fill="white"/>
<path opacity="0.5" d="M39.3182 69.0848L25.3538 77.4971C25.3961 77.5228 25.4385 77.5486 25.4809 77.5744L39.4435 69.1641C39.403 69.1383 39.3606 69.1125 39.3182 69.0867V69.0848Z" fill="white"/>
<g style="mix-blend-mode:multiply" opacity="0.15">
<path d="M26.0689 77.9319L40.0205 69.5289C39.9781 69.5031 39.9375 69.4773 39.897 69.4497L25.9436 77.8545C25.986 77.8803 26.0284 77.9061 26.0708 77.9319H26.0689Z" fill="black"/>
</g>
<path opacity="0.5" d="M36.6039 67.386L22.5952 75.824C22.6376 75.8498 22.68 75.8756 22.7224 75.9014L36.731 67.4652C36.6887 67.4394 36.6481 67.4136 36.6057 67.3878L36.6039 67.386Z" fill="white"/>
<g style="mix-blend-mode:multiply" opacity="0.15">
<path d="M23.3083 76.2606L37.258 67.8576C37.2175 67.8318 37.1769 67.806 37.1346 67.7783L23.1812 76.1832C23.2235 76.209 23.2659 76.2348 23.3083 76.2606Z" fill="black"/>
</g>
<g style="mix-blend-mode:multiply" opacity="0.4">
<path d="M26.9255 100.931L26.8297 100.927L27.0232 95.7399L26.6233 95.0581V95.0415C26.638 94.9475 27.8469 85.5918 27.8819 85.1643C27.9169 84.7091 28.2173 83.9573 28.525 83.5555L28.6024 83.6127C28.3039 84.0033 28.0127 84.7312 27.9777 85.1716C27.9446 85.5955 26.7984 94.4647 26.7246 95.0378L27.1227 95.7141V95.7288L26.9273 100.931H26.9255Z" fill="black"/>
</g>
<g style="mix-blend-mode:multiply" opacity="0.4">
<path d="M23.0429 97.0942L22.1069 100.919L22.2 100.942L23.136 97.117L23.0429 97.0942Z" fill="black"/>
</g>
<g style="mix-blend-mode:multiply" opacity="0.4">
<path d="M2.19213 89.2559L1.96362 84.5255L2.05945 84.5219L2.28795 89.2522L2.19213 89.2559Z" fill="black"/>
</g>
<g style="mix-blend-mode:multiply" opacity="0.3">
<path d="M29.8539 82.3628L29.5259 80.6159C29.5259 80.6159 29.255 80.0483 28.7537 79.7442C28.6505 79.6816 28.3133 79.4623 27.801 79.1306C25.6892 77.7596 20.5258 74.7153 17.2844 72.8486C13.2672 70.536 7.97843 67.3609 7.92315 67.3296C7.91578 67.3259 7.10128 66.8854 6.81934 66.8339L6.83592 66.7399C7.13261 66.7933 7.93605 67.2264 7.97106 67.2448C8.02635 67.2761 13.3372 70.4641 17.3323 72.7639C20.5774 74.6324 25.7408 77.6785 27.8545 79.0495C28.3649 79.3812 28.7021 79.5987 28.8035 79.6613C29.3342 79.9838 29.6051 80.5643 29.618 80.5882L29.9497 82.3462L29.8557 82.3647L29.8539 82.3628Z" fill="black"/>
</g>
<g style="mix-blend-mode:multiply" opacity="0.4">
<path d="M38.688 88.7252L38.7856 93.8518L38.8815 93.7965L38.7838 88.7142L38.325 87.7357L37.9969 78.2897L37.9011 78.2934L38.2291 87.7486L38.688 88.7252Z" fill="black"/>
</g>
<g style="mix-blend-mode:multiply" opacity="0.4">
<path d="M39.2409 98.0698L39.2243 96.7007L38.443 95.748V94.1669L38.3472 94.2222V95.7811L39.1285 96.7338L39.1469 98.1343C39.1635 98.1233 39.1801 98.1104 39.1967 98.0993C39.2114 98.0901 39.228 98.0791 39.2428 98.068L39.2409 98.0698Z" fill="black"/>
</g>
<path d="M20.4834 83.8234C19.1069 83.0549 9.12092 76.9756 6.30702 75.2158C3.49128 73.456 2.58096 72.7336 2.58096 72.7336C2.30454 72.4166 2.09078 72.0555 1.94336 71.7219C1.94336 71.9467 1.9452 72.1384 1.95626 72.2655C1.99496 72.6986 2.07051 73.2053 2.58096 73.7895C2.58096 73.7895 3.49128 74.5119 6.30702 76.2717C9.12276 78.0315 19.1087 84.1127 20.4834 84.8811C21.8599 85.6495 24.6517 87.1293 25.4699 85.9001C25.6413 85.644 25.7795 85.3455 25.8919 85.0359C25.0737 86.2632 21.8581 84.5936 20.4816 83.8252L20.4834 83.8234Z" fill="#404B4D"/>
<path d="M30.3534 106.992L31.8755 107.899V108.201L26.8779 110.894V108.855L30.3534 106.992Z" fill="#404B4D"/>
<path d="M26.8779 110.497V110.894L31.8755 108.201V107.899L26.8779 110.497Z" fill="#273234"/>
<path d="M38.3234 95.6447L35.4155 97.3216V96.0464L38.3234 94.3695V95.6447Z" fill="#404B4D"/>
<path d="M17.5075 98.8178C14.9958 97.4099 6.27399 92.0807 5.65113 91.6808C5.02644 91.2809 2.67507 89.7293 2.21069 89.1857L2.4005 89.9044L3.5338 90.8607L4.84032 91.3306C4.92693 91.9056 5.69352 92.6353 5.69352 92.6353C5.69352 92.6353 17.4264 99.6157 18.2427 100.102C19.0609 100.591 19.4092 100.102 19.4092 100.102L20.1924 100.885L21.9154 101.582L22.0573 101.073C22.0573 101.073 20.0192 100.224 17.5075 98.816V98.8178Z" fill="#2E383B"/>
<path d="M18.8841 102.159C17.1611 101.236 7.15308 95.1785 5.88158 94.4469C4.61007 93.7153 2.71387 92.2356 2.71387 92.2356L2.81522 92.8511C2.96817 93.0059 4.19913 93.9402 4.19913 93.9402L5.59411 94.4082C5.68072 94.8284 6.12482 95.5065 6.45836 95.6797C6.7919 95.8511 16.6802 101.766 17.3952 102.148C18.112 102.529 18.5801 102.185 18.5801 102.185L19.3817 102.988L21.0236 103.753C21.0844 103.626 21.1562 103.465 21.2318 103.29C21.2318 103.29 20.6053 103.08 18.8823 102.157L18.8841 102.159Z" fill="#2E383B"/>
<path d="M20.4523 104.65C20.069 105.058 19.494 104.914 18.8527 104.593C18.2115 104.273 13.3097 101.433 11.5941 100.371C9.98905 99.3782 5.91102 96.9052 4.44971 95.8733C4.54922 96.2216 4.84037 97.1061 5.30106 97.517C5.88153 98.0349 7.34653 98.9728 8.60329 99.7283C9.86006 100.484 15.1377 103.635 16.0997 104.184C17.0634 104.733 18.7901 105.8 19.4811 105.911C20.174 106.023 20.7784 106.045 20.8816 105.697C20.9848 105.347 21.0235 104.798 21.0235 104.798C21.0235 104.798 20.819 104.564 20.6863 104.357C20.6181 104.455 20.5389 104.555 20.4486 104.649L20.4523 104.65Z" fill="#2E383B"/>
<path d="M5.91821 101.597C6.02509 102.052 6.29598 103.062 6.59451 103.29C6.78431 103.434 15.2887 108.525 16.0221 109.003C16.4607 109.288 17.3526 109.756 17.7967 109.611C17.9109 109.432 18.0233 109.165 18.1265 108.879L5.91821 101.597Z" fill="#2E383B"/>
<path d="M26.1204 84.2749C25.9841 84.8388 25.7777 85.4358 25.4699 85.9002C24.6499 87.1293 21.8581 85.6496 20.4834 84.8811C19.1069 84.1127 9.12094 78.0316 6.30704 76.2718C3.4913 74.5119 2.58098 73.7896 2.58098 73.7896C2.12766 76.7011 1.38318 82.3566 1.38318 82.3566L1.34448 83.4585C1.55271 84.074 1.90284 84.7116 2.48884 85.1557C3.99253 86.2927 9.47844 89.6189 12.4213 91.4082C15.3624 93.1975 20.8151 96.3745 22.4349 96.9254C24.0565 97.4783 25.1935 97.3603 25.446 96.2897C25.6966 95.219 26.6604 87.6471 26.9128 86.0918C27.1247 84.7779 26.7212 84.5642 26.1241 84.2749H26.1204Z" fill="#141C1E"/>
<path d="M25.8938 85.0341C25.7795 85.3437 25.6413 85.6422 25.4699 85.8983C24.6499 87.1275 21.8581 85.6477 20.4834 84.8793C19.1069 84.1109 9.12095 78.0298 6.30705 76.2699C4.55643 75.1772 3.54291 74.4843 3.02693 74.1157C2.86661 75.1458 2.26587 79.0525 2.15346 80.2632C2.02631 81.6618 1.72963 82.3179 2.72656 83.0808C3.7235 83.8437 9.33839 87.2141 12.4121 89.0145C15.484 90.8167 21.1007 94.1429 22.4773 94.7362C23.8557 95.3296 25.1272 96.028 25.4552 93.7301C25.7832 91.4303 26.4835 86.6355 26.5461 85.8965C26.5867 85.4192 26.36 85.2147 25.8938 85.0323V85.0341Z" fill="#303E42"/>
<path d="M26.0761 89.3905C20.9035 86.232 8.82415 79.1226 8.1884 78.7154C7.45314 78.2455 5.36529 79.6847 4.07167 80.5379C3.25717 81.0759 2.69881 82.1005 2.39844 82.7879C2.48689 82.8855 2.59377 82.9832 2.72461 83.0827C3.72154 83.8456 9.33644 87.216 12.4102 89.0164C15.4821 90.8186 21.0988 94.1448 22.4753 94.7382C23.8537 95.3316 25.1252 96.03 25.4532 93.732C25.6117 92.6208 25.8568 90.9274 26.0761 89.3905Z" fill="#39464A"/>
<path d="M36.9135 80.3001V87.4666C36.9135 87.4666 36.8196 88.4783 35.6973 89.1693C34.5751 89.8622 28.9989 93.4372 28.9989 93.4372C28.9989 93.4372 27.8766 94.2038 27.9319 92.9323C27.989 91.6608 28.5492 85.9298 28.5677 85.5188C28.5861 85.1097 29.0744 84.4353 30.0087 83.9119C30.9448 83.3886 35.3048 80.7866 35.7913 80.5065C36.2778 80.2264 36.9135 79.9076 36.9135 80.3001Z" fill="#141C1E"/>
<path d="M35.3251 88.9721C36.4474 88.2792 36.5413 87.2694 36.5413 87.2694V80.1489C36.3202 80.2134 36.0364 80.3645 35.7913 80.5064C35.3048 80.7865 30.9449 83.3885 30.0087 83.9118C29.0745 84.437 28.5861 85.1096 28.5677 85.5187C28.5493 85.9278 27.9872 91.6588 27.932 92.9322C27.9209 93.1828 27.9559 93.3542 28.0186 93.4666C28.3079 93.4555 28.6248 93.2381 28.6248 93.2381C28.6248 93.2381 34.201 89.6631 35.3233 88.9721H35.3251Z" fill="#303E42"/>
<path d="M23.8391 86.5654C21.3017 85.1243 20.5369 86.0347 19.6542 86.9468C18.7715 87.8572 18.7439 89.5046 21.1542 90.4739C23.5646 91.4432 29.1629 89.5875 23.8391 86.5654Z" fill="#3D4B4F"/>
<path opacity="0.7" d="M6.30522 76.2717C5.67131 75.8755 5.13506 75.5328 4.68359 75.2379C4.44034 76.7416 4.00729 79.6642 4.33346 79.679C4.6928 79.6956 7.36665 78.0924 8.31751 77.5137C7.48827 77.0033 6.78986 76.5721 6.30522 76.2699V76.2717Z" fill="#C5D0D3"/>
<path opacity="0.2" d="M6.30534 76.2716C4.55472 75.1789 3.5412 74.486 3.02522 74.1174C2.8649 75.1475 2.26416 79.0542 2.15175 80.2649C2.0246 81.6635 1.72792 82.3196 2.72485 83.0825C3.06761 83.3441 3.95213 83.9136 5.0928 84.6212C6.39564 83.018 8.45769 80.9062 11.2458 79.3122C9.16899 78.0444 7.29306 76.8908 6.3035 76.2735L6.30534 76.2716Z" fill="white"/>
<path d="M14.43 106.637C14.3673 106.637 14.3028 106.616 14.2365 106.578L8.95881 103.415C8.75795 103.296 8.60132 103.019 8.60132 102.787V102.037C8.60132 101.816 8.73768 101.716 8.87036 101.716C8.93302 101.716 8.99751 101.737 9.06201 101.775L14.3397 104.938C14.5405 105.057 14.6953 105.334 14.6953 105.566V106.316C14.6953 106.537 14.559 106.637 14.4263 106.637H14.43Z" fill="#939A9E"/>
<path d="M14.5977 106.316C14.5977 106.513 14.4595 106.591 14.29 106.489L9.01233 103.327C8.8428 103.226 8.70459 102.982 8.70459 102.785V102.035C8.70459 101.838 8.8428 101.761 9.01233 101.86L14.29 105.022C14.4595 105.124 14.5977 105.367 14.5977 105.564V106.314V106.316Z" fill="#DEE5E9"/>
<g style="mix-blend-mode:multiply" opacity="0.2">
<path d="M25.5878 86.42C25.9747 85.8395 26.1996 85.0508 26.3304 84.3782C26.2641 84.3432 26.194 84.3082 26.1203 84.2732C25.984 84.837 25.7776 85.4341 25.4698 85.8985C24.6498 87.1276 21.858 85.6479 20.4833 84.8794C19.1068 84.111 9.12084 78.0299 6.30694 76.27C3.4912 74.5102 2.58087 73.7878 2.58087 73.7878C2.56429 73.8874 2.54954 73.9924 2.53296 74.0993C2.58271 74.1675 2.638 74.2375 2.70065 74.3093C2.70065 74.3093 3.61098 75.0317 6.42672 76.7915C9.24246 78.5514 19.2284 84.6325 20.6049 85.4009C21.9815 86.1694 24.7714 87.6473 25.5914 86.42H25.5878Z" fill="black"/>
</g>
<path d="M2.16081 99.9308C2.37457 100.141 2.70627 100.465 3.05455 100.806C3.20566 100.683 3.34755 100.493 3.43785 100.362C2.84448 99.8571 2.1129 99.2029 1.77383 98.9062L1.65405 98.98C1.71486 99.2748 1.85491 99.6286 2.16081 99.929V99.9308Z" fill="white"/>
<path d="M23.9145 112.554C23.9551 112.489 23.9901 112.417 24.003 112.336C24.073 111.946 23.6086 111.719 22.6006 111.374C22.4108 111.31 22.0589 111.168 21.6663 111.004C21.5631 111.201 21.3697 111.603 21.3733 111.868C22.3371 112.187 23.3598 112.489 23.9145 112.552V112.554Z" fill="white"/>
<path d="M26.7026 109.093C26.7026 109.181 26.6344 109.281 26.5497 109.314L25.8605 109.574C25.7757 109.605 25.7075 109.557 25.7075 109.467V109.226C25.7075 109.135 25.7757 109.036 25.8605 109.005L26.5497 108.745C26.6344 108.713 26.7026 108.761 26.7026 108.85V109.091V109.093Z" fill="#F09041"/>
<path d="M47.5242 103.729C47.526 103.819 47.4615 103.92 47.3786 103.954L46.6968 104.236C46.6138 104.269 46.5438 104.224 46.5401 104.134L46.5328 103.893C46.5309 103.802 46.5954 103.701 46.6783 103.668L47.3583 103.386C47.4412 103.351 47.5113 103.397 47.5149 103.487L47.5223 103.729H47.5242Z" fill="#F09041"/>
<path d="M19.868 107.702C19.7114 108.013 19.1493 109.113 19.4571 109.414C19.7648 109.714 20.9792 110.226 21.8361 110.586C22.6911 110.945 24.1635 111.441 24.5044 111.467C24.8472 111.492 25.0609 111.382 25.0941 111.023C25.1291 110.663 25.1033 109.517 25.0941 109.362C25.0849 109.207 24.8121 109.08 24.4178 108.986C24.0253 108.892 22.048 108.223 21.3809 107.925C20.7138 107.624 20.0025 107.433 19.8662 107.702H19.868Z" fill="url(#paint83_linear_43_31919)"/>
<path d="M22.1031 109.425C22.1031 109.926 21.7512 110.129 21.3163 109.878C20.8832 109.628 20.5312 109.018 20.5312 108.516C20.5312 108.015 20.8832 107.812 21.3163 108.063C21.7512 108.314 22.1031 108.924 22.1031 109.425Z" fill="white"/>
<path d="M24.1985 108.924C23.8668 108.824 23.2937 108.634 22.7354 108.439C22.6506 108.561 22.6008 108.728 22.6008 108.94C22.6008 109.583 23.0523 110.365 23.607 110.685C24.1635 111.006 24.6131 110.746 24.6131 110.103C24.6131 109.716 24.4491 109.281 24.1967 108.924H24.1985Z" fill="white"/>
<path d="M1.39795 95.2283C1.39795 95.2283 1.42743 96.9936 1.44955 97.2479C1.46982 97.5022 1.56011 97.9629 1.89181 98.2357C2.22351 98.5084 3.96492 100.128 4.24502 100.309C4.52696 100.491 4.64858 100.5 4.52696 99.9771C4.40534 99.4537 3.86357 97.7142 3.43052 97.2C2.99931 96.6859 1.39795 95.2283 1.39795 95.2283Z" fill="url(#paint84_linear_43_31919)"/>
<path d="M2.01148 97.4488C2.56799 97.7713 3.01763 97.5096 3.01763 96.8683C3.01763 96.8315 3.0121 96.7928 3.00841 96.7559C2.3745 96.122 1.396 95.2301 1.396 95.2301C1.396 95.2301 1.41442 96.3136 1.43285 96.9052C1.59686 97.1318 1.79403 97.3272 2.00964 97.4506L2.01148 97.4488Z" fill="white"/>
<path d="M3.43051 97.2017C3.43051 97.2017 3.42499 97.1943 3.42314 97.1925C3.10803 97.128 2.87769 97.3326 2.87769 97.738C2.87769 98.2392 3.22965 98.8491 3.66455 99.0998C3.91332 99.2435 4.13076 99.2343 4.27634 99.109C4.04784 98.405 3.71614 97.5389 3.43236 97.2017H3.43051Z" fill="white"/>
<path d="M19.8683 107.703C19.7116 108.014 19.1496 109.114 19.4573 109.415C19.7651 109.715 20.9794 110.227 21.8363 110.587C22.6914 110.946 24.1637 111.442 24.5046 111.467C24.8474 111.493 25.0612 111.383 25.0943 111.023C25.1293 110.664 25.1035 109.518 25.0943 109.363C25.0851 109.208 24.8124 109.081 24.418 108.987C24.0255 108.893 22.0482 108.224 21.3812 107.926C20.7141 107.625 20.0028 107.434 19.8664 107.703H19.8683Z" fill="url(#paint85_linear_43_31919)"/>
<path d="M25.0959 109.362C25.0867 109.207 24.814 109.08 24.4196 108.986C24.0271 108.892 22.0498 108.223 21.3828 107.925C20.7157 107.624 20.0044 107.433 19.868 107.702C19.7114 108.013 19.1493 109.113 19.4571 109.414C19.7648 109.714 20.9792 110.226 21.8361 110.586C22.6911 110.945 24.1635 111.441 24.5044 111.467C24.8472 111.492 25.0609 111.382 25.0941 111.023C25.1291 110.663 25.1033 109.517 25.0941 109.362H25.0959ZM25.0406 111.017C25.013 111.293 24.8766 111.417 24.5947 111.417C24.5671 111.417 24.5394 111.417 24.5081 111.413C24.1672 111.387 22.6782 110.881 21.8563 110.536C21.0879 110.214 19.8017 109.674 19.4939 109.375C19.3686 109.253 19.3391 108.872 19.9067 107.742C19.9472 107.661 20.0339 107.628 20.1739 107.628C20.4356 107.628 20.8686 107.753 21.3588 107.975C22.0333 108.277 24.029 108.949 24.4049 109.04C24.7956 109.132 25.0333 109.255 25.0406 109.366C25.0499 109.541 25.0738 110.665 25.0406 111.017Z" fill="#2E383B"/>
<path d="M1.39844 95.2277C1.39844 95.2277 1.42792 96.993 1.45003 97.2473C1.47031 97.5016 1.5606 97.9623 1.8923 98.2351C2.224 98.5078 3.96541 100.128 4.24551 100.308C4.52745 100.491 4.64907 100.5 4.52745 99.9765C4.40583 99.4531 3.86405 97.7136 3.43101 97.1994C2.9998 96.6853 1.39844 95.2277 1.39844 95.2277Z" fill="url(#paint86_linear_43_31919)"/>
<path d="M4.27805 100.276C3.99611 100.095 2.25654 98.4752 1.923 98.2006C1.59131 97.9279 1.50101 97.4672 1.48074 97.2129C1.46231 96.9863 1.43836 95.5766 1.43283 95.2596C1.41256 95.2412 1.39966 95.2283 1.39966 95.2283C1.39966 95.2283 1.42914 96.9936 1.45126 97.2479C1.47153 97.5022 1.56182 97.9629 1.89352 98.2357C2.22522 98.5084 3.96663 100.128 4.24673 100.309C4.41258 100.414 4.5213 100.462 4.55815 100.379C4.50471 100.405 4.40889 100.359 4.2799 100.274L4.27805 100.276Z" fill="#2E383B"/>
<path d="M30.7715 96.8223C30.6481 96.8223 30.5172 96.7836 30.3864 96.7081L28.8532 95.8235C28.7611 95.7701 28.7297 95.6522 28.7832 95.5619C28.8366 95.4697 28.9546 95.4384 29.0448 95.4918L30.578 96.3764C30.6867 96.439 30.7844 96.4556 30.8434 96.4206C30.9042 96.3856 30.9374 96.2934 30.9374 96.1681V85.6294C30.9374 85.2848 30.6849 84.8462 30.3845 84.673L28.8495 83.7884C28.7574 83.735 28.7261 83.6171 28.7795 83.5249C28.8329 83.4328 28.9509 83.4015 29.0412 83.4549L30.5762 84.3413C30.9926 84.5827 31.3207 85.1484 31.3207 85.6312V96.17C31.3207 96.4372 31.2156 96.6509 31.0332 96.756C30.954 96.802 30.8637 96.8242 30.7678 96.8242L30.7715 96.8223Z" fill="#404B4D"/>
<path d="M33.5485 95.5082C33.5485 95.8086 33.3366 95.9302 33.0768 95.7809L31.2211 94.7103C30.9613 94.561 30.7512 94.1925 30.7512 93.894V86.2336C30.7512 85.9332 30.9631 85.8116 31.223 85.9609L33.0768 87.0315C33.3366 87.1808 33.5485 87.5475 33.5485 87.8478V95.5082Z" fill="#5A6567"/>
<path d="M33.3 95.7073C33.3 96.0077 33.0881 96.1293 32.8283 95.9801L30.9744 94.9094C30.7146 94.7583 30.5027 94.3916 30.5027 94.0931V86.4327C30.5027 86.1342 30.7146 86.0107 30.9744 86.16L32.8283 87.2306C33.0881 87.3799 33.3 87.7485 33.3 88.047V95.7073Z" fill="#404B4D"/>
</g>
<defs>
<linearGradient id="paint0_linear_43_31919" x1="74.176" y1="59.9856" x2="74.5612" y2="68.2669" gradientUnits="userSpaceOnUse">
<stop stop-color="#F3F5F7"/>
<stop offset="1" stop-color="#999D9E"/>
</linearGradient>
<linearGradient id="paint1_linear_43_31919" x1="72.5654" y1="66.765" x2="76.6932" y2="60.0739" gradientUnits="userSpaceOnUse">
<stop stop-color="#F3F5F7"/>
<stop offset="1" stop-color="#999D9E"/>
</linearGradient>
<linearGradient id="paint2_linear_43_31919" x1="71.412" y1="63.5271" x2="76.1313" y2="63.5271" gradientUnits="userSpaceOnUse">
<stop stop-color="#C3C5C7"/>
<stop offset="1" stop-color="#696D6E"/>
</linearGradient>
<linearGradient id="paint3_linear_43_31919" x1="71.412" y1="63.3908" x2="75.9046" y2="63.3908" gradientUnits="userSpaceOnUse">
<stop stop-color="#F3F5F7"/>
<stop offset="1" stop-color="#999D9E"/>
</linearGradient>
<linearGradient id="paint4_linear_43_31919" x1="71.4119" y1="63.1953" x2="74.8007" y2="63.1953" gradientUnits="userSpaceOnUse">
<stop stop-color="#C1C3C5"/>
<stop offset="1" stop-color="#676B6C"/>
</linearGradient>
<linearGradient id="paint5_linear_43_31919" x1="73.7098" y1="61.3176" x2="72.2061" y2="67.2384" gradientUnits="userSpaceOnUse">
<stop stop-color="#F3F5F7"/>
<stop offset="1" stop-color="#999D9E"/>
</linearGradient>
<linearGradient id="paint6_linear_43_31919" x1="67.8479" y1="67.0339" x2="74.7804" y2="52.9773" gradientUnits="userSpaceOnUse">
<stop stop-color="#222829"/>
<stop offset="0.52" stop-color="#5B6B6E"/>
<stop offset="1" stop-color="#404B4D"/>
</linearGradient>
<linearGradient id="paint7_linear_43_31919" x1="61.096" y1="67.5409" x2="61.4811" y2="75.8204" gradientUnits="userSpaceOnUse">
<stop stop-color="#F3F5F7"/>
<stop offset="1" stop-color="#999D9E"/>
</linearGradient>
<linearGradient id="paint8_linear_43_31919" x1="59.4855" y1="74.3203" x2="63.6133" y2="67.6292" gradientUnits="userSpaceOnUse">
<stop stop-color="#F3F5F7"/>
<stop offset="1" stop-color="#999D9E"/>
</linearGradient>
<linearGradient id="paint9_linear_43_31919" x1="58.3318" y1="71.0824" x2="63.0511" y2="71.0824" gradientUnits="userSpaceOnUse">
<stop stop-color="#C3C5C7"/>
<stop offset="1" stop-color="#696D6E"/>
</linearGradient>
<linearGradient id="paint10_linear_43_31919" x1="58.3318" y1="70.9461" x2="62.8226" y2="70.9461" gradientUnits="userSpaceOnUse">
<stop stop-color="#F3F5F7"/>
<stop offset="1" stop-color="#999D9E"/>
</linearGradient>
<linearGradient id="paint11_linear_43_31919" x1="58.3318" y1="70.7507" x2="61.7206" y2="70.7507" gradientUnits="userSpaceOnUse">
<stop stop-color="#C1C3C5"/>
<stop offset="1" stop-color="#676B6C"/>
</linearGradient>
<linearGradient id="paint12_linear_43_31919" x1="60.6282" y1="68.8712" x2="59.1245" y2="74.7939" gradientUnits="userSpaceOnUse">
<stop stop-color="#F3F5F7"/>
<stop offset="1" stop-color="#999D9E"/>
</linearGradient>
<linearGradient id="paint13_linear_43_31919" x1="54.7662" y1="74.5873" x2="61.7006" y2="60.5307" gradientUnits="userSpaceOnUse">
<stop stop-color="#222829"/>
<stop offset="0.52" stop-color="#5B6B6E"/>
<stop offset="1" stop-color="#404B4D"/>
</linearGradient>
<linearGradient id="paint14_linear_43_31919" x1="87.3353" y1="54.6875" x2="82.6197" y2="64.3823" gradientUnits="userSpaceOnUse">
<stop stop-color="#B8BFC3"/>
<stop offset="0.13" stop-color="#C7CED1"/>
<stop offset="0.46" stop-color="#EAF1F2"/>
<stop offset="0.63" stop-color="#F8FFFF"/>
<stop offset="0.72" stop-color="#EBF2F6"/>
<stop offset="0.9" stop-color="#B8BFC3"/>
<stop offset="1" stop-color="#89939A"/>
</linearGradient>
<linearGradient id="paint15_linear_43_31919" x1="95.3253" y1="72.3464" x2="95.7105" y2="80.6259" gradientUnits="userSpaceOnUse">
<stop stop-color="#F3F5F7"/>
<stop offset="1" stop-color="#999D9E"/>
</linearGradient>
<linearGradient id="paint16_linear_43_31919" x1="93.7147" y1="79.1261" x2="97.8407" y2="72.435" gradientUnits="userSpaceOnUse">
<stop stop-color="#F3F5F7"/>
<stop offset="1" stop-color="#999D9E"/>
</linearGradient>
<linearGradient id="paint17_linear_43_31919" x1="92.5611" y1="75.8885" x2="97.2786" y2="75.8885" gradientUnits="userSpaceOnUse">
<stop stop-color="#C3C5C7"/>
<stop offset="1" stop-color="#696D6E"/>
</linearGradient>
<linearGradient id="paint18_linear_43_31919" x1="92.5611" y1="75.7503" x2="97.0538" y2="75.7503" gradientUnits="userSpaceOnUse">
<stop stop-color="#F3F5F7"/>
<stop offset="1" stop-color="#999D9E"/>
</linearGradient>
<linearGradient id="paint19_linear_43_31919" x1="92.5613" y1="75.5566" x2="95.9501" y2="75.5566" gradientUnits="userSpaceOnUse">
<stop stop-color="#C1C3C5"/>
<stop offset="1" stop-color="#676B6C"/>
</linearGradient>
<linearGradient id="paint20_linear_43_31919" x1="94.8574" y1="73.6769" x2="93.3537" y2="79.5996" gradientUnits="userSpaceOnUse">
<stop stop-color="#F3F5F7"/>
<stop offset="1" stop-color="#999D9E"/>
</linearGradient>
<linearGradient id="paint21_linear_43_31919" x1="88.9955" y1="79.3951" x2="95.9298" y2="65.3366" gradientUnits="userSpaceOnUse">
<stop stop-color="#222829"/>
<stop offset="0.52" stop-color="#5B6B6E"/>
<stop offset="1" stop-color="#404B4D"/>
</linearGradient>
<linearGradient id="paint22_linear_43_31919" x1="82.2455" y1="79.9021" x2="82.6306" y2="88.1816" gradientUnits="userSpaceOnUse">
<stop stop-color="#F3F5F7"/>
<stop offset="1" stop-color="#999D9E"/>
</linearGradient>
<linearGradient id="paint23_linear_43_31919" x1="80.6349" y1="86.6816" x2="84.7608" y2="79.9905" gradientUnits="userSpaceOnUse">
<stop stop-color="#F3F5F7"/>
<stop offset="1" stop-color="#999D9E"/>
</linearGradient>
<linearGradient id="paint24_linear_43_31919" x1="79.4813" y1="83.4438" x2="84.1988" y2="83.4438" gradientUnits="userSpaceOnUse">
<stop stop-color="#C3C5C7"/>
<stop offset="1" stop-color="#696D6E"/>
</linearGradient>
<linearGradient id="paint25_linear_43_31919" x1="79.4814" y1="83.3056" x2="83.9723" y2="83.3056" gradientUnits="userSpaceOnUse">
<stop stop-color="#F3F5F7"/>
<stop offset="1" stop-color="#999D9E"/>
</linearGradient>
<linearGradient id="paint26_linear_43_31919" x1="79.4814" y1="83.1101" x2="82.8684" y2="83.1101" gradientUnits="userSpaceOnUse">
<stop stop-color="#C1C3C5"/>
<stop offset="1" stop-color="#676B6C"/>
</linearGradient>
<linearGradient id="paint27_linear_43_31919" x1="81.7773" y1="81.2323" x2="80.2736" y2="87.1549" gradientUnits="userSpaceOnUse">
<stop stop-color="#F3F5F7"/>
<stop offset="1" stop-color="#999D9E"/>
</linearGradient>
<linearGradient id="paint28_linear_43_31919" x1="75.9154" y1="86.9504" x2="82.8497" y2="72.8919" gradientUnits="userSpaceOnUse">
<stop stop-color="#222829"/>
<stop offset="0.52" stop-color="#5B6B6E"/>
<stop offset="1" stop-color="#404B4D"/>
</linearGradient>
<linearGradient id="paint29_linear_43_31919" x1="50.9591" y1="87.5495" x2="56.082" y2="96.4224" gradientUnits="userSpaceOnUse">
<stop offset="0.44" stop-color="#BAC1C5"/>
<stop offset="0.52" stop-color="#DDE4E8"/>
<stop offset="0.56" stop-color="#EBF2F6"/>
<stop offset="0.84" stop-color="#B8BFC3"/>
<stop offset="1" stop-color="#89939A"/>
</linearGradient>
<linearGradient id="paint30_linear_43_31919" x1="55.5772" y1="84.1939" x2="61.2455" y2="94.0122" gradientUnits="userSpaceOnUse">
<stop offset="0.44" stop-color="#D2D9DD"/>
<stop offset="0.52" stop-color="#F1F3F4"/>
<stop offset="0.56" stop-color="white"/>
<stop offset="0.84" stop-color="#D2D9DD"/>
<stop offset="1" stop-color="#A3ADB4"/>
</linearGradient>
<linearGradient id="paint31_linear_43_31919" x1="49.1975" y1="87.8535" x2="54.8659" y2="97.6718" gradientUnits="userSpaceOnUse">
<stop offset="0.44" stop-color="#D2D9DD"/>
<stop offset="0.52" stop-color="#F1F3F4"/>
<stop offset="0.56" stop-color="white"/>
<stop offset="0.84" stop-color="#D2D9DD"/>
<stop offset="1" stop-color="#A3ADB4"/>
</linearGradient>
<linearGradient id="paint32_linear_43_31919" x1="92.9267" y1="66.1256" x2="93.6257" y2="67.3363" gradientUnits="userSpaceOnUse">
<stop stop-color="#C5C5C5"/>
<stop offset="1" stop-color="#939393"/>
</linearGradient>
<linearGradient id="paint33_linear_43_31919" x1="93.1285" y1="66.4567" x2="95.0339" y2="69.757" gradientUnits="userSpaceOnUse">
<stop stop-color="#485154"/>
<stop offset="1" stop-color="#2F383B"/>
</linearGradient>
<linearGradient id="paint34_linear_43_31919" x1="99.6776" y1="62.2282" x2="100.377" y2="63.4389" gradientUnits="userSpaceOnUse">
<stop stop-color="#C5C5C5"/>
<stop offset="1" stop-color="#939393"/>
</linearGradient>
<linearGradient id="paint35_linear_43_31919" x1="99.8794" y1="62.5597" x2="101.785" y2="65.8599" gradientUnits="userSpaceOnUse">
<stop stop-color="#485154"/>
<stop offset="1" stop-color="#2F383B"/>
</linearGradient>
<linearGradient id="paint36_linear_43_31919" x1="106.428" y1="58.3306" x2="107.128" y2="59.5427" gradientUnits="userSpaceOnUse">
<stop stop-color="#C5C5C5"/>
<stop offset="1" stop-color="#939393"/>
</linearGradient>
<linearGradient id="paint37_linear_43_31919" x1="106.63" y1="58.6634" x2="108.536" y2="61.9637" gradientUnits="userSpaceOnUse">
<stop stop-color="#485154"/>
<stop offset="1" stop-color="#2F383B"/>
</linearGradient>
<linearGradient id="paint38_linear_43_31919" x1="113.179" y1="54.4332" x2="113.878" y2="55.6439" gradientUnits="userSpaceOnUse">
<stop stop-color="#C5C5C5"/>
<stop offset="1" stop-color="#939393"/>
</linearGradient>
<linearGradient id="paint39_linear_43_31919" x1="113.383" y1="54.765" x2="115.288" y2="58.0653" gradientUnits="userSpaceOnUse">
<stop stop-color="#485154"/>
<stop offset="1" stop-color="#2F383B"/>
</linearGradient>
<linearGradient id="paint40_linear_43_31919" x1="119.931" y1="50.536" x2="120.63" y2="51.7467" gradientUnits="userSpaceOnUse">
<stop stop-color="#C5C5C5"/>
<stop offset="1" stop-color="#939393"/>
</linearGradient>
<linearGradient id="paint41_linear_43_31919" x1="120.133" y1="50.8675" x2="122.039" y2="54.1678" gradientUnits="userSpaceOnUse">
<stop stop-color="#485154"/>
<stop offset="1" stop-color="#2F383B"/>
</linearGradient>
<linearGradient id="paint42_linear_43_31919" x1="126.682" y1="46.6389" x2="127.381" y2="47.8496" gradientUnits="userSpaceOnUse">
<stop stop-color="#C5C5C5"/>
<stop offset="1" stop-color="#939393"/>
</linearGradient>
<linearGradient id="paint43_linear_43_31919" x1="126.884" y1="46.97" x2="128.79" y2="50.2703" gradientUnits="userSpaceOnUse">
<stop stop-color="#485154"/>
<stop offset="1" stop-color="#2F383B"/>
</linearGradient>
<linearGradient id="paint44_linear_43_31919" x1="133.433" y1="42.7413" x2="134.132" y2="43.952" gradientUnits="userSpaceOnUse">
<stop stop-color="#C5C5C5"/>
<stop offset="1" stop-color="#939393"/>
</linearGradient>
<linearGradient id="paint45_linear_43_31919" x1="133.637" y1="43.072" x2="135.542" y2="46.3723" gradientUnits="userSpaceOnUse">
<stop stop-color="#485154"/>
<stop offset="1" stop-color="#2F383B"/>
</linearGradient>
<linearGradient id="paint46_linear_43_31919" x1="140.183" y1="38.8439" x2="140.882" y2="40.0546" gradientUnits="userSpaceOnUse">
<stop stop-color="#C5C5C5"/>
<stop offset="1" stop-color="#939393"/>
</linearGradient>
<linearGradient id="paint47_linear_43_31919" x1="140.387" y1="39.1744" x2="142.293" y2="42.4747" gradientUnits="userSpaceOnUse">
<stop stop-color="#485154"/>
<stop offset="1" stop-color="#2F383B"/>
</linearGradient>
<linearGradient id="paint48_linear_43_31919" x1="146.936" y1="34.9455" x2="147.635" y2="36.1562" gradientUnits="userSpaceOnUse">
<stop stop-color="#C5C5C5"/>
<stop offset="1" stop-color="#939393"/>
</linearGradient>
<linearGradient id="paint49_linear_43_31919" x1="147.137" y1="35.2768" x2="149.042" y2="38.5771" gradientUnits="userSpaceOnUse">
<stop stop-color="#485154"/>
<stop offset="1" stop-color="#2F383B"/>
</linearGradient>
<linearGradient id="paint50_linear_43_31919" x1="153.686" y1="31.0479" x2="154.385" y2="32.2586" gradientUnits="userSpaceOnUse">
<stop stop-color="#C5C5C5"/>
<stop offset="1" stop-color="#939393"/>
</linearGradient>
<linearGradient id="paint51_linear_43_31919" x1="153.889" y1="31.3784" x2="155.795" y2="34.6787" gradientUnits="userSpaceOnUse">
<stop stop-color="#485154"/>
<stop offset="1" stop-color="#2F383B"/>
</linearGradient>
<linearGradient id="paint52_linear_43_31919" x1="40.3888" y1="103.679" x2="38.8151" y2="114.199" gradientUnits="userSpaceOnUse">
<stop stop-color="#F3F5F7"/>
<stop offset="1" stop-color="#999D9E"/>
</linearGradient>
<linearGradient id="paint53_linear_43_31919" x1="38.7415" y1="112.83" x2="39.567" y2="107.713" gradientUnits="userSpaceOnUse">
<stop stop-color="#E6E8EA"/>
<stop offset="1" stop-color="#8C9091"/>
</linearGradient>
<linearGradient id="paint54_linear_43_31919" x1="38.8465" y1="110.424" x2="41.3121" y2="104.337" gradientUnits="userSpaceOnUse">
<stop stop-color="#F3F5F7"/>
<stop offset="1" stop-color="#999D9E"/>
</linearGradient>
<linearGradient id="paint55_linear_43_31919" x1="40.1512" y1="104.473" x2="38.5424" y2="112.815" gradientUnits="userSpaceOnUse">
<stop stop-color="#F3F5F7"/>
<stop offset="1" stop-color="#999D9E"/>
</linearGradient>
<linearGradient id="paint56_linear_43_31919" x1="39.8435" y1="106.172" x2="39.7883" y2="112.793" gradientUnits="userSpaceOnUse">
<stop stop-color="#F3F5F7"/>
<stop offset="1" stop-color="#999D9E"/>
</linearGradient>
<linearGradient id="paint57_linear_43_31919" x1="39.1744" y1="105.607" x2="39.7365" y2="105.607" gradientUnits="userSpaceOnUse">
<stop stop-color="#8F9193"/>
<stop offset="1" stop-color="#35393A"/>
</linearGradient>
<linearGradient id="paint58_linear_43_31919" x1="36.9559" y1="108.846" x2="37.7649" y2="108.846" gradientUnits="userSpaceOnUse">
<stop stop-color="#8F9193"/>
<stop offset="1" stop-color="#35393A"/>
</linearGradient>
<linearGradient id="paint59_linear_43_31919" x1="37.2157" y1="110.479" x2="37.9712" y2="110.479" gradientUnits="userSpaceOnUse">
<stop stop-color="#8F9193"/>
<stop offset="1" stop-color="#35393A"/>
</linearGradient>
<linearGradient id="paint60_linear_43_31919" x1="38.443" y1="111.087" x2="38.8502" y2="111.087" gradientUnits="userSpaceOnUse">
<stop stop-color="#8F9193"/>
<stop offset="1" stop-color="#35393A"/>
</linearGradient>
<linearGradient id="paint61_linear_43_31919" x1="37.8312" y1="106.978" x2="38.5849" y2="106.978" gradientUnits="userSpaceOnUse">
<stop stop-color="#8F9193"/>
<stop offset="1" stop-color="#35393A"/>
</linearGradient>
<linearGradient id="paint62_linear_43_31919" x1="40.6726" y1="105.201" x2="41.1425" y2="105.201" gradientUnits="userSpaceOnUse">
<stop stop-color="#8F9193"/>
<stop offset="1" stop-color="#35393A"/>
</linearGradient>
<linearGradient id="paint63_linear_43_31919" x1="41.6272" y1="106.362" x2="42.1211" y2="106.362" gradientUnits="userSpaceOnUse">
<stop stop-color="#8F9193"/>
<stop offset="1" stop-color="#35393A"/>
</linearGradient>
<linearGradient id="paint64_linear_43_31919" x1="41.6677" y1="107.877" x2="41.8759" y2="107.877" gradientUnits="userSpaceOnUse">
<stop stop-color="#8F9193"/>
<stop offset="1" stop-color="#35393A"/>
</linearGradient>
<linearGradient id="paint65_linear_43_31919" x1="39.8434" y1="110.608" x2="40.0406" y2="110.608" gradientUnits="userSpaceOnUse">
<stop stop-color="#8F9193"/>
<stop offset="1" stop-color="#35393A"/>
</linearGradient>
<linearGradient id="paint66_linear_43_31919" x1="41.0781" y1="109.257" x2="41.2476" y2="109.257" gradientUnits="userSpaceOnUse">
<stop stop-color="#8F9193"/>
<stop offset="1" stop-color="#35393A"/>
</linearGradient>
<linearGradient id="paint67_linear_43_31919" x1="41.0119" y1="108.041" x2="38.8301" y2="108.946" gradientUnits="userSpaceOnUse">
<stop stop-color="#F3F5F7"/>
<stop offset="1" stop-color="#999D9E"/>
</linearGradient>
<linearGradient id="paint68_linear_43_31919" x1="40.3077" y1="107.425" x2="39.4564" y2="111.752" gradientUnits="userSpaceOnUse">
<stop stop-color="#F3F5F7"/>
<stop offset="1" stop-color="#999D9E"/>
</linearGradient>
<linearGradient id="paint69_linear_43_31919" x1="34.4314" y1="101.831" x2="31.7686" y2="111.564" gradientUnits="userSpaceOnUse">
<stop stop-color="white"/>
<stop offset="1"/>
</linearGradient>
<linearGradient id="paint70_linear_43_31919" x1="36.0198" y1="85.2422" x2="37.8847" y2="80.5579" gradientUnits="userSpaceOnUse">
<stop stop-color="white"/>
<stop offset="1"/>
</linearGradient>
<linearGradient id="paint71_linear_43_31919" x1="24.3699" y1="102.592" x2="24.322" y2="106.847" gradientUnits="userSpaceOnUse">
<stop stop-color="white"/>
<stop offset="0.11" stop-color="#FAFAFA"/>
<stop offset="0.23" stop-color="#ECECEC"/>
<stop offset="0.36" stop-color="#D5D5D5"/>
<stop offset="0.5" stop-color="#B4B4B4"/>
<stop offset="0.64" stop-color="#8A8A8A"/>
<stop offset="0.79" stop-color="#575757"/>
<stop offset="0.93" stop-color="#1C1C1C"/>
<stop offset="1"/>
</linearGradient>
<linearGradient id="paint72_linear_43_31919" x1="20.6456" y1="102.43" x2="23.2365" y2="103.593" gradientUnits="userSpaceOnUse">
<stop stop-color="white"/>
<stop offset="1"/>
</linearGradient>
<linearGradient id="paint73_linear_43_31919" x1="24.5338" y1="107.197" x2="14.3249" y2="103.364" gradientUnits="userSpaceOnUse">
<stop stop-color="white"/>
<stop offset="1"/>
</linearGradient>
<linearGradient id="paint74_linear_43_31919" x1="29.5848" y1="107.293" x2="28.1364" y2="102.269" gradientUnits="userSpaceOnUse">
<stop stop-color="white"/>
<stop offset="1"/>
</linearGradient>
<linearGradient id="paint75_linear_43_31919" x1="19.1604" y1="111.352" x2="24.0105" y2="111.352" gradientUnits="userSpaceOnUse">
<stop stop-color="white"/>
<stop offset="1"/>
</linearGradient>
<linearGradient id="paint76_linear_43_31919" x1="2.5109" y1="99.3965" x2="1.95438" y2="97.3253" gradientUnits="userSpaceOnUse">
<stop stop-color="white"/>
<stop offset="1"/>
</linearGradient>
<linearGradient id="paint77_linear_43_31919" x1="2.16629" y1="97.3438" x2="1.54897" y2="95.9525" gradientUnits="userSpaceOnUse">
<stop stop-color="white"/>
<stop offset="1"/>
</linearGradient>
<linearGradient id="paint78_linear_43_31919" x1="4.72591" y1="101.836" x2="2.05021" y2="99.6687" gradientUnits="userSpaceOnUse">
<stop stop-color="white"/>
<stop offset="1"/>
</linearGradient>
<linearGradient id="paint79_linear_43_31919" x1="5.14044" y1="101.331" x2="2.46291" y2="99.1619" gradientUnits="userSpaceOnUse">
<stop stop-color="white"/>
<stop offset="1"/>
</linearGradient>
<linearGradient id="paint80_linear_43_31919" x1="3.78436" y1="91.2628" x2="0.751168" y2="91.178" gradientUnits="userSpaceOnUse">
<stop stop-color="white"/>
<stop offset="1"/>
</linearGradient>
<linearGradient id="paint81_linear_43_31919" x1="1.15638" y1="95.5468" x2="4.69449" y2="95.5468" gradientUnits="userSpaceOnUse">
<stop stop-color="white"/>
<stop offset="0.11" stop-color="#FAFAFA"/>
<stop offset="0.23" stop-color="#ECECEC"/>
<stop offset="0.36" stop-color="#D5D5D5"/>
<stop offset="0.5" stop-color="#B4B4B4"/>
<stop offset="0.64" stop-color="#8A8A8A"/>
<stop offset="0.79" stop-color="#575757"/>
<stop offset="0.93" stop-color="#1C1C1C"/>
<stop offset="1"/>
</linearGradient>
<linearGradient id="paint82_linear_43_31919" x1="16.6302" y1="74.8934" x2="14.9883" y2="77.5322" gradientUnits="userSpaceOnUse">
<stop stop-color="white"/>
<stop offset="1"/>
</linearGradient>
<linearGradient id="paint83_linear_43_31919" x1="19.3668" y1="109.523" x2="25.1125" y2="109.523" gradientUnits="userSpaceOnUse">
<stop stop-color="white"/>
<stop offset="1" stop-color="#969696"/>
</linearGradient>
<linearGradient id="paint84_linear_43_31919" x1="1.39795" y1="97.8247" x2="4.57303" y2="97.8247" gradientUnits="userSpaceOnUse">
<stop stop-color="white"/>
<stop offset="1" stop-color="#969696"/>
</linearGradient>
<linearGradient id="paint85_linear_43_31919" x1="19.367" y1="109.523" x2="25.1128" y2="109.523" gradientUnits="userSpaceOnUse">
<stop stop-color="white"/>
<stop offset="1" stop-color="white"/>
</linearGradient>
<linearGradient id="paint86_linear_43_31919" x1="1.39844" y1="97.8241" x2="4.57352" y2="97.8241" gradientUnits="userSpaceOnUse">
<stop stop-color="white"/>
<stop offset="1" stop-color="white"/>
</linearGradient>
<clipPath id="clip0_43_31919">
<rect width="120" height="120" fill="white" transform="translate(0 0.000366211)"/>
</clipPath>
</defs>
</svg>
