<svg width="120" height="120" viewBox="0 0 120 120" fill="none" xmlns="http://www.w3.org/2000/svg">
<path d="M0.345113 65.4378C0.345113 65.4378 0.485715 65.3164 0.69502 65.4378C0.904325 65.5592 2.18412 66.2655 2.25921 66.3421C2.33431 66.4172 2.49249 66.4524 2.49249 66.8614V70.8861C2.49249 71.0938 2.43017 71.3127 2.28158 71.3463C2.13299 71.3798 1.65686 71.4869 1.55621 71.5109C1.45555 71.5332 1.32453 71.53 1.19991 71.4581C1.07688 71.3862 0.319549 70.95 0.218891 70.8925C0.118233 70.835 0 70.6736 0 70.4356V66.1728C0 66.1137 0.0319549 65.898 0.119831 65.7686C0.207707 65.6391 0.341918 65.441 0.341918 65.441L0.345113 65.4378Z" fill="#E1E8EC"/>
<g style="mix-blend-mode:multiply" opacity="0.1">
<path d="M0.222065 70.8894C0.121407 70.8319 0.00317383 70.6705 0.00317383 70.4325V66.1697C0.00317383 66.1457 0.00796707 66.0962 0.020749 66.0371C0.0622905 66.0099 0.110223 66.0035 0.16934 66.0371C0.455336 66.2032 1.25581 66.657 1.38043 66.7305C1.50665 66.8024 1.65205 66.8839 1.65205 67.2561V71.1514C1.65205 71.2825 1.65365 71.4071 1.60252 71.4982C1.58494 71.5014 1.56897 71.5061 1.55938 71.5077C1.45872 71.5301 1.32771 71.5269 1.20308 71.455C1.08006 71.3831 0.322723 70.9469 0.222065 70.8894Z" fill="black"/>
</g>
<path d="M2.15707 62.4516C0.249357 63.5525 0.415523 65.8453 0.415523 65.8453L0.982723 66.1504L1.7784 65.6903C1.7784 64.7891 2.37596 64.3338 2.37596 64.3338L4.76619 62.9533L6.04439 62.8447C6.04439 62.8447 6.53649 62.2823 6.53649 61.5697V59.5645C6.53649 59.5645 4.06638 61.3492 2.15866 62.4516H2.15707Z" fill="#3B4345"/>
<path d="M5.84929 60.9529C4.90342 61.4994 3.69872 62.1944 2.7225 62.7584C0.814787 63.8593 0.980952 66.152 0.980952 66.152L1.77663 65.6919C1.77663 64.7907 2.37419 64.3354 2.37419 64.3354L4.76442 62.9549L6.04262 62.8463C6.04262 62.8463 6.53472 62.2839 6.53472 61.5713V59.5661C6.53472 60.6494 5.85089 60.9529 5.85089 60.9529H5.84929Z" fill="#151D1F"/>
<path d="M57.4471 93.5484L56.8991 94.3297L54.4514 92.9828L51.3645 87.5872L57.7731 87.6559L57.4471 93.5484Z" fill="#212A2D"/>
<path d="M107.515 64.6326L106.967 65.4139L104.52 64.067L101.433 58.6714L107.841 58.7401L107.515 64.6326Z" fill="#212A2D"/>
<path fill-rule="evenodd" clip-rule="evenodd" d="M104.985 60.6588L101.36 58.6312C100.554 58.2813 99.4965 58.398 98.343 59.0642C95.8105 60.5262 93.759 64.0812 93.759 67.0034C93.759 68.5181 94.315 69.5646 95.2066 70.0152L98.434 71.8222C99.2713 72.3863 100.471 72.3511 101.805 71.5826C104.336 70.1222 106.388 66.5657 106.388 63.6594C106.388 62.1623 105.849 61.1237 104.985 60.6604V60.6588Z" fill="#2E373A"/>
<path fill-rule="evenodd" clip-rule="evenodd" d="M101.807 71.5811C99.2745 73.043 97.2246 71.8575 97.2246 68.9496C97.2246 66.0417 99.2761 62.4724 101.807 61.012C104.338 59.5501 106.389 60.7356 106.389 63.6579C106.389 66.5802 104.338 70.1192 101.807 71.5811Z" fill="#555E61"/>
<path fill-rule="evenodd" clip-rule="evenodd" d="M101.807 71.1783C99.4679 72.5284 97.573 71.434 97.573 68.7465C97.573 66.0463 99.4679 62.763 101.807 61.4129C104.146 60.0628 106.041 61.1572 106.041 63.8574C106.041 66.5576 104.146 69.8282 101.807 71.1783Z" fill="#2E373A"/>
<path d="M105.253 64.6231C105.253 66.617 103.854 69.0392 102.126 70.0362C100.401 71.0332 99.0012 70.2248 99.0012 68.2308C99.0012 66.2368 100.401 63.8146 102.126 62.8176C103.854 61.8206 105.253 62.6291 105.253 64.6215V64.6231Z" fill="url(#paint0_linear_43_30557)"/>
<path d="M102.126 62.8191C101.895 62.9533 101.668 63.1147 101.45 63.2968C101.527 63.2441 101.604 63.193 101.684 63.1483C103.154 62.3014 104.342 62.9885 104.342 64.6821C104.342 66.3757 103.152 68.44 101.684 69.2884C100.225 70.1304 99.0426 69.4578 99.0267 67.7865C99.0123 67.9367 99.0027 68.0853 99.0027 68.2307C99.0027 70.2247 100.402 71.0331 102.128 70.0361C103.855 69.0391 105.255 66.6154 105.255 64.623C105.255 62.6306 103.855 61.8221 102.128 62.8191H102.126Z" fill="url(#paint1_linear_43_30557)"/>
<path d="M102.344 62.7057C103.716 62.2056 104.756 62.9901 104.756 64.6581C104.756 66.5371 103.437 68.8234 101.809 69.7629C100.743 70.3796 99.8114 70.2598 99.2937 69.5792C99.7906 70.5282 100.871 70.7631 102.127 70.0377C103.854 69.0407 105.253 66.6169 105.253 64.6246C105.253 62.6322 103.969 61.8988 102.344 62.7073V62.7057Z" fill="url(#paint2_linear_43_30557)"/>
<path d="M103.024 64.9951C103.024 66.0576 102.278 67.3486 101.36 67.879C100.441 68.4111 99.6931 67.9797 99.6931 66.9188C99.6931 65.8579 100.439 64.5653 101.36 64.0348C102.278 63.5044 103.024 63.9342 103.024 64.9967V64.9951Z" fill="url(#paint3_linear_43_30557)"/>
<path d="M102.145 65.6696C102.145 66.0243 101.896 66.4557 101.589 66.633C101.284 66.8104 101.033 66.6666 101.033 66.3119C101.033 65.9572 101.283 65.5258 101.589 65.3484C101.896 65.1711 102.145 65.3149 102.145 65.6696Z" fill="#2E373A"/>
<path d="M101.139 65.2956C101.139 65.4458 101.034 65.628 100.904 65.7031C100.775 65.7781 100.669 65.7174 100.669 65.5672C100.669 65.4171 100.773 65.2349 100.904 65.1598C101.034 65.0847 101.139 65.1454 101.139 65.2956Z" fill="#343433"/>
<path d="M102.34 64.5814C102.34 64.7316 102.235 64.9137 102.106 64.9888C101.976 65.0639 101.872 65.0032 101.872 64.8546C101.872 64.706 101.978 64.5222 102.106 64.4472C102.235 64.3721 102.34 64.4328 102.34 64.5814Z" fill="#343433"/>
<path d="M102.74 65.711C102.74 65.8612 102.636 66.0433 102.507 66.1184C102.377 66.1935 102.272 66.1328 102.272 65.9826C102.272 65.8324 102.377 65.6518 102.507 65.5768C102.636 65.5017 102.74 65.5624 102.74 65.7126V65.711Z" fill="#343433"/>
<path d="M101.783 67.0835C101.783 67.2337 101.677 67.4158 101.548 67.4893C101.417 67.5644 101.313 67.5037 101.313 67.3535C101.313 67.2033 101.417 67.0212 101.548 66.9461C101.677 66.871 101.783 66.9317 101.783 67.0819V67.0835Z" fill="#343433"/>
<path d="M100.824 66.8134C100.824 66.9636 100.719 67.1458 100.589 67.2209C100.458 67.2944 100.354 67.2352 100.354 67.0851C100.354 66.9349 100.458 66.7543 100.589 66.6792C100.719 66.6041 100.824 66.6648 100.824 66.815V66.8134Z" fill="#343433"/>
<path fill-rule="evenodd" clip-rule="evenodd" d="M54.8907 89.5047L51.2654 87.4772C50.4585 87.1273 49.404 87.2439 48.2473 87.9102C45.7148 89.3721 43.6633 92.9271 43.6633 95.8478C43.6633 97.3625 44.2209 98.409 45.1125 98.8595L48.3383 100.668C49.1756 101.232 50.3755 101.197 51.7096 100.429C54.242 98.9666 56.2935 95.4116 56.2935 92.5053C56.2935 91.0082 55.7551 89.9697 54.8907 89.5047Z" fill="#2E373A"/>
<path fill-rule="evenodd" clip-rule="evenodd" d="M51.7095 100.427C49.1787 101.887 47.1272 100.703 47.1272 97.7952C47.1272 94.8873 49.1787 91.3179 51.7095 89.856C54.242 88.3941 56.2935 89.5796 56.2935 92.5019C56.2935 95.4242 54.242 98.9632 51.7095 100.425V100.427Z" fill="#555E61"/>
<path fill-rule="evenodd" clip-rule="evenodd" d="M51.7094 100.024C49.3703 101.374 47.4753 100.28 47.4753 97.5925C47.4753 94.8923 49.3703 91.6089 51.7094 90.2572C54.0485 88.9071 55.945 90.0016 55.945 92.7018C55.945 95.402 54.0485 98.6726 51.7094 100.023V100.024Z" fill="#2E373A"/>
<path d="M55.1559 93.4701C55.1559 95.4625 53.7563 97.8863 52.0307 98.8833C50.3051 99.8803 48.9055 99.0718 48.9055 97.0778C48.9055 95.0838 50.3051 92.6617 52.0307 91.6647C53.7579 90.6677 55.1559 91.4761 55.1559 93.4701Z" fill="url(#paint4_linear_43_30557)"/>
<path d="M52.0307 91.6647C51.7974 91.7989 51.5738 91.9602 51.3533 92.1424C51.43 92.0897 51.5082 92.0401 51.5865 91.9938C53.0549 91.147 54.2452 91.834 54.2452 93.5276C54.2452 95.2212 53.0565 97.2855 51.5865 98.1339C50.1278 98.976 48.9455 98.3033 48.9295 96.6321C48.9151 96.7822 48.9055 96.9308 48.9055 97.0762C48.9055 99.0702 50.3051 99.8771 52.0307 98.8817C53.7579 97.8847 55.1559 95.4609 55.1559 93.4685C55.1559 91.4761 53.7563 90.6677 52.0307 91.6631V91.6647Z" fill="url(#paint5_linear_43_30557)"/>
<path d="M52.248 91.5515C53.6188 91.0514 54.659 91.8359 54.659 93.504C54.659 95.3829 53.3392 97.6693 51.7111 98.6088C50.6454 99.2255 49.714 99.1073 49.1963 98.425C49.6916 99.3741 50.7733 99.6089 52.0291 98.8836C53.7563 97.8866 55.1543 95.4628 55.1543 93.4704C55.1543 91.478 53.8713 90.7446 52.2464 91.5515H52.248Z" fill="url(#paint6_linear_43_30557)"/>
<path d="M53.8424 94.4751C53.8424 95.5376 53.0947 96.827 52.176 97.359C51.2557 97.8895 50.5095 97.4597 50.5095 96.3972C50.5095 95.3347 51.2557 94.0437 52.176 93.5132C53.0947 92.9828 53.8424 93.4126 53.8424 94.4751Z" fill="url(#paint7_linear_43_30557)"/>
<path d="M52.9638 95.1495C52.9638 95.5042 52.713 95.9356 52.4078 96.113C52.1011 96.2903 51.8518 96.1465 51.8518 95.7918C51.8518 95.4371 52.1011 95.0057 52.4078 94.8284C52.7146 94.651 52.9638 94.7948 52.9638 95.1495Z" fill="#2E373A"/>
<path d="M51.957 94.7771C51.957 94.9273 51.8532 95.1095 51.7222 95.183C51.5928 95.2581 51.4873 95.1973 51.4873 95.0472C51.4873 94.897 51.5928 94.7148 51.7222 94.6413C51.8532 94.5662 51.957 94.6269 51.957 94.7771Z" fill="#343433"/>
<path d="M53.157 94.0613C53.157 94.2115 53.0515 94.392 52.9221 94.4687C52.7927 94.5438 52.6873 94.4831 52.6873 94.3329C52.6873 94.1827 52.7927 94.0006 52.9221 93.9271C53.0515 93.852 53.157 93.9111 53.157 94.0613Z" fill="#343433"/>
<path d="M53.5581 95.1909C53.5581 95.3411 53.4527 95.5233 53.3232 95.5984C53.1938 95.6735 53.0884 95.6127 53.0884 95.4626C53.0884 95.3124 53.1938 95.1318 53.3232 95.0567C53.4527 94.9816 53.5581 95.0424 53.5581 95.1925V95.1909Z" fill="#343433"/>
<path d="M52.5994 96.565C52.5994 96.7152 52.4939 96.8957 52.3645 96.9708C52.2351 97.0459 52.1296 96.9852 52.1296 96.835C52.1296 96.6848 52.2351 96.5043 52.3645 96.4292C52.4939 96.3541 52.5994 96.4148 52.5994 96.565Z" fill="#343433"/>
<path d="M51.6423 96.2934C51.6423 96.442 51.5353 96.6242 51.4075 96.6992C51.2765 96.7743 51.1726 96.7136 51.1726 96.5634C51.1726 96.4132 51.2781 96.2311 51.4075 96.156C51.5353 96.0825 51.6423 96.1416 51.6423 96.2918V96.2934Z" fill="#343433"/>
<path d="M52.2767 92.5965C52.3757 92.8122 52.3102 93.0534 52.1313 93.1333C51.9539 93.2132 51.7286 93.1045 51.6312 92.8888C51.5321 92.6716 51.5976 92.4319 51.7766 92.352C51.9555 92.2705 52.1792 92.3792 52.2767 92.5965Z" fill="#343433"/>
<path d="M53.5453 92.5597C53.566 92.7961 53.4686 92.9974 53.3328 93.007C53.1953 93.0182 53.0691 92.8361 53.0515 92.5996C53.0324 92.3631 53.1266 92.1618 53.264 92.1506C53.3999 92.1395 53.5277 92.3216 53.5453 92.5597Z" fill="#343433"/>
<path d="M50.8291 93.6429C51.0304 93.7691 51.0975 94.0231 50.9809 94.2101C50.8642 94.3986 50.6054 94.4465 50.4041 94.3219C50.2028 94.1957 50.1357 93.9416 50.2523 93.7547C50.3705 93.5678 50.6278 93.5166 50.8291 93.6429Z" fill="#343433"/>
<path d="M49.8624 95.4388C50.0989 95.458 50.2779 95.6338 50.2603 95.8335C50.2459 96.0332 50.0398 96.1786 49.8033 96.161C49.5669 96.1418 49.3879 95.9645 49.4055 95.7648C49.4215 95.5651 49.626 95.4197 49.8624 95.4388Z" fill="#343433"/>
<path d="M49.7858 97.0605C50.0143 96.995 50.2364 97.0733 50.2843 97.2362C50.3307 97.3992 50.1853 97.5845 49.9568 97.6501C49.7283 97.7156 49.5046 97.6373 49.4583 97.4743C49.4104 97.3113 49.5573 97.126 49.7842 97.0605H49.7858Z" fill="#343433"/>
<path d="M50.8739 97.9775C51.0209 97.8529 51.1775 97.7986 51.227 97.8561C51.275 97.9136 51.1967 98.0606 51.0497 98.1836C50.9027 98.3082 50.7461 98.3642 50.6966 98.3066C50.6471 98.2491 50.7269 98.1021 50.8723 97.9775H50.8739Z" fill="#343433"/>
<path d="M4.06623 94.1541L27.379 107.614C28.2274 108.104 31.3334 109.085 33.1133 108.056L46.536 100.307V98.1405C46.536 94.8331 48.8575 90.8132 51.7206 89.1611C54.5838 87.5091 56.9053 88.848 56.9053 92.1553V94.3219L96.6046 71.4022V69.2356C96.6046 65.9299 98.9261 61.9084 101.789 60.2563C104.652 58.6026 106.974 59.9431 106.974 63.2489V65.4154L119.815 58.0019V42.6827C119.815 42.6827 119.31 26.0709 119.31 24.561C119.31 24.1057 118.818 23.2141 117.883 22.6661C117.883 22.6661 117.883 22.6661 117.882 22.6661C117.855 22.6469 117.826 22.6277 117.795 22.6086L92.6933 8.1154C92.5686 8.04351 92.3705 8.00037 92.1676 8.00037C91.9647 8.00037 91.7666 8.04351 91.642 8.1154L6.53954 57.2493C5.55373 57.8309 5.29969 58.6362 5.29969 58.6362L3.14753 83.847L2.96858 84.157V87.3701C2.96858 88.5796 2.95899 91.5785 3.04527 92.2512C3.04527 92.2512 3.31849 93.7227 4.06623 94.1557V94.1541Z" fill="#E1E8EC"/>
<path opacity="0.1" d="M119.813 58.0018V42.6826C119.813 42.6826 119.308 26.0708 119.308 24.5609C119.308 24.5306 119.305 24.4954 119.3 24.4619C119.272 24.6152 119.158 24.7638 118.955 24.8805L32.987 74.5129C32.987 74.5129 31.5219 75.3597 17.8947 67.2671C5.92913 60.5502 5.24689 58.9524 5.30281 58.6281C5.30122 58.6345 5.29962 58.6361 5.29962 58.6361L3.73542 76.9542L13.6894 76.4909L29.7755 94.3761C29.7755 94.3761 32.3495 96.6017 32.2552 97.3559C32.1609 98.11 30.8987 99.8356 29.9816 99.8148C29.0645 99.7956 26.7749 99.6998 16.6516 93.9575C6.52829 88.2168 2.96851 84.1553 2.96851 84.1553V85.3216C3.7562 86.5311 7.20733 91.0624 16.7794 96.589C26.3979 102.141 29.8362 101.563 30.6015 101.264L31.8094 100.724L30.6015 103.857C29.8362 104.383 26.3979 104.947 16.7794 99.3946C7.22331 93.8776 3.54369 89.3655 2.96851 87.926C2.96851 89.3224 2.9701 91.6663 3.0452 92.2495C3.0452 92.2495 3.31841 93.721 4.06616 94.154L27.3789 107.613C28.2273 108.104 31.3333 109.085 33.1132 108.056L46.5359 100.307V98.1404C46.5359 94.833 48.8574 90.8131 51.7206 89.161C54.5837 87.509 56.9053 88.8479 56.9053 92.1552V94.3218L96.6045 71.4021V69.2355C96.6045 65.9298 98.926 61.9083 101.789 60.2562C104.652 58.6025 106.974 59.943 106.974 63.2488V65.4153L119.815 58.0018H119.813ZM109.911 50.6777L118.005 46.0043V46.3238L109.911 50.9972V50.6777ZM109.911 51.1874L118.005 46.514V46.8335L109.911 51.5069V51.1874ZM109.911 51.6971L118.005 47.0236V47.3432L109.911 52.0166V51.6971ZM109.911 52.2067L118.005 47.5333V47.8529L109.911 52.5263V52.2067ZM109.911 52.7164L118.005 48.043V48.3626L109.911 53.036V52.7164ZM109.911 53.2245L118.005 48.5511V48.8706L109.911 53.544V53.2245ZM109.911 53.7342L118.005 49.0608V49.3803L109.911 54.0537V53.7342ZM109.911 54.2439L118.005 49.5705V49.89L109.911 54.5634V54.2439ZM109.911 54.7535L118.005 50.0801V50.3997L109.911 55.0731V54.7535ZM109.911 55.2632L118.005 50.5898V50.9094L109.911 55.5828V55.2632ZM109.911 55.7729L118.005 51.1011V51.4206L109.911 56.0941V55.7745V55.7729ZM109.911 56.281L118.005 51.6076V51.9271L109.911 56.6005V56.281ZM109.911 56.7907L118.005 52.1173V52.4368L109.911 57.1102V56.7907ZM109.911 57.3004L118.005 52.6269V52.9465L109.911 57.6199V57.3004ZM109.911 57.81L118.005 53.1366V53.4562L109.911 58.1296V57.81ZM109.911 58.3197L118.005 53.6463V53.9659L109.911 58.6393V58.3197ZM109.911 58.8294L118.005 54.156V54.4755L109.911 59.1489V58.8294Z" fill="black"/>
<path opacity="0.05" d="M117.882 22.666C117.882 22.666 117.882 22.666 117.88 22.666C118.353 22.9967 118.126 23.1916 117.794 23.4169L32.7682 72.5061C32.2585 72.4869 29.4721 72.0028 18.2319 65.3274L18.2175 65.3194C10.2512 60.8473 7.45031 58.7239 6.4677 57.8004C6.4677 57.8004 6.13856 57.4809 6.5396 57.2492C5.7599 57.7093 5.43875 58.3069 5.33809 58.537L5.34288 58.553C5.34288 58.553 5.3333 58.5593 5.32211 58.5737C5.31253 58.5993 5.30454 58.6169 5.30134 58.6264C5.24542 58.9508 5.92766 60.5501 17.8932 67.2655C31.5204 75.3581 32.9855 74.5113 32.9855 74.5113L118.955 24.8804C119.158 24.7638 119.273 24.6152 119.301 24.4618C119.238 23.9857 118.751 23.1772 117.882 22.6676V22.666Z" fill="black"/>
<path opacity="0.15" d="M109.911 50.9973L118.006 46.3239V46.5012L109.911 51.1746V50.9973Z" fill="black"/>
<path opacity="0.15" d="M109.911 51.5071L118.006 46.8337V47.0111L109.911 51.6845V51.5071Z" fill="black"/>
<path opacity="0.15" d="M109.911 52.0167L118.006 47.3433V47.5207L109.911 52.1941V52.0167Z" fill="black"/>
<path opacity="0.15" d="M109.911 52.5263L118.006 47.8529V48.0303L109.911 52.7037V52.5263Z" fill="black"/>
<path opacity="0.15" d="M109.911 53.036L118.006 48.3625V48.5399L109.911 53.2133V53.036Z" fill="black"/>
<path opacity="0.15" d="M109.911 53.5442L118.006 48.8724V49.0498L109.911 53.7216V53.5442Z" fill="black"/>
<path opacity="0.15" d="M109.911 54.0539L118.006 49.3805V49.5594L109.911 54.2313V54.0539Z" fill="black"/>
<path opacity="0.15" d="M109.911 54.5635L118.006 49.8901V50.0674L109.911 54.7408V54.5635Z" fill="black"/>
<path opacity="0.15" d="M109.911 55.0731L118.006 50.3997V50.577L109.911 55.2504V55.0731Z" fill="black"/>
<path opacity="0.15" d="M109.911 55.583L118.006 50.9095V51.0869L109.911 55.7603V55.583Z" fill="black"/>
<path opacity="0.15" d="M109.911 56.0925L118.006 51.4191V51.5965L109.911 56.2699V56.0925Z" fill="black"/>
<path opacity="0.15" d="M109.911 56.6006L118.006 51.9288V52.1061L109.911 56.7779V56.6006Z" fill="black"/>
<path opacity="0.15" d="M109.911 57.1105L118.006 52.4387V52.616L109.911 57.2878V57.1105Z" fill="black"/>
<path opacity="0.15" d="M109.911 57.6201L118.006 52.9482V53.1256L109.911 57.7974V57.6201Z" fill="black"/>
<path opacity="0.15" d="M109.911 58.1297L118.006 53.4563V53.6336L109.911 58.3071V58.1297Z" fill="black"/>
<path opacity="0.15" d="M109.911 58.6393L118.006 53.9659V54.1432L109.911 58.8166V58.6393Z" fill="black"/>
<path opacity="0.15" d="M109.911 59.1492L118.006 54.4758V54.6531L109.911 59.3265V59.1492Z" fill="black"/>
<g style="mix-blend-mode:multiply" opacity="0.3">
<path d="M61.4191 91.7144V76.5007H61.3616V91.748L61.4191 91.7144Z" fill="black"/>
</g>
<g style="mix-blend-mode:multiply" opacity="0.3">
<path d="M43.037 102.319V87.1048H42.9795V102.352L43.037 102.319Z" fill="black"/>
</g>
<g style="mix-blend-mode:multiply" opacity="0.3">
<path d="M80.8349 80.5045V67.5595H80.7773V80.538L80.8349 80.5045Z" fill="black"/>
</g>
<g style="mix-blend-mode:multiply" opacity="0.3">
<path d="M33.2188 104.508C32.7746 104.524 27.2336 104.731 23.9966 105.663L24.0669 105.703C27.2975 104.787 32.7666 104.581 33.2188 104.565V107.996L33.2763 107.962V92.3296H33.2188V104.506V104.508Z" fill="black"/>
</g>
<g style="mix-blend-mode:color-burn" opacity="0.3">
<path d="M108.148 47.2169H108.089V64.7698L108.148 64.7362V47.2169Z" fill="black"/>
</g>
<path d="M4.92572 63.0219L4.92413 63.0427C4.91454 63.4261 6.15759 65.5224 17.8962 72.1115C31.5234 80.2041 32.9886 79.3589 32.9886 79.3589L118.955 29.7232C119.158 29.6066 119.273 29.458 119.3 29.3046C119.305 29.3398 119.308 29.3733 119.308 29.4037C119.308 29.4484 119.35 29.4964 119.428 29.5459C119.36 27.039 119.308 25.0402 119.308 24.5609C119.308 24.5306 119.305 24.4954 119.3 24.4619C119.272 24.6152 119.158 24.7638 118.955 24.8805L32.987 74.5129C32.987 74.5129 31.5218 75.3597 17.8946 67.2671C5.92911 60.5502 5.24687 58.9524 5.30279 58.6281C5.30119 58.6345 5.2996 58.6361 5.2996 58.6361L4.92572 63.0219Z" fill="#2E3638"/>
<path d="M46.2341 100.481V98.3148C46.2341 94.8221 48.6947 90.5593 51.7208 88.813C54.7453 87.0666 57.2075 88.487 57.2075 91.9797V94.1462L56.9055 94.3204V92.1538C56.9055 88.8481 54.584 87.5076 51.7208 89.1597C48.8576 90.8133 46.5361 94.8333 46.5361 98.139V100.306L46.2341 100.48V100.481Z" fill="#3B4447"/>
<path d="M101.788 59.9065C104.814 58.1602 107.274 59.5806 107.274 63.0733V65.2398L106.972 65.414V63.2474C106.972 59.9417 104.651 58.6012 101.788 60.2548C98.9245 61.9085 96.603 65.9284 96.603 69.2342V71.4007L96.301 71.5749V69.4083C96.301 65.9157 98.7616 61.6529 101.788 59.9065Z" fill="#3B4447"/>
<path d="M49.2584 51.9528L38.4065 58.2176L31.6848 54.3367V53.942L42.5367 47.6772L49.2584 51.5582V51.9528Z" fill="#151D1F"/>
<path d="M49.2584 51.5582L38.4065 57.8229L31.6848 53.942L42.5367 47.6772L49.2584 51.5582Z" fill="#485052"/>
<path d="M116.135 31.3578L34.9267 78.2421V78.2373L32.987 79.3573C32.987 79.3573 31.5219 80.2041 17.8947 72.1099C6.16243 65.524 4.91459 63.4278 4.92257 63.0427L3.14588 83.847L3.10913 83.9109C5.7534 87.2742 16.7779 93.6667 16.7779 93.6667C16.7779 93.6667 24.8992 98.3354 28.8728 99.4618C29.6237 99.6759 31.0042 99.8005 32.2552 97.3559L96.6045 60.2051L105.47 50.9622L116.137 44.8044V31.3562L116.135 31.3578Z" fill="#141C1E"/>
<path d="M109.206 46.4022C109.096 46.4661 109.005 46.4133 109.005 46.2855V36.1702C109.005 36.0424 109.094 35.8858 109.206 35.8219L115.345 32.2781C115.455 32.2142 115.546 32.2653 115.546 32.3931V42.5084C115.546 42.6363 115.455 42.7928 115.345 42.8567L109.206 46.4006V46.4022Z" fill="#303E42"/>
<path d="M51.6473 82.2012C51.5706 82.1533 51.4172 82.1661 51.307 82.23L44.1635 86.3554C44.0532 86.4193 43.9622 86.3666 43.9622 86.2387V73.7236C43.9622 73.5958 44.0532 73.4392 44.1635 73.3753L60.4541 63.9693C60.5644 63.9054 60.6554 63.9581 60.6554 64.086V80.2648C60.6554 80.3926 60.5644 80.5492 60.4541 80.6131L54.7438 83.9092C54.6335 83.9731 54.4801 83.9859 54.4034 83.938L51.6473 82.2012Z" fill="#303E42"/>
<path d="M71.0791 61.1878L62.3857 66.2064V63.0859C62.3857 62.9581 62.4768 62.8016 62.5871 62.7376L71.0791 57.8358V61.1878Z" fill="#303E42"/>
<path d="M71.4353 60.9816V57.6295L80.1798 52.5822C80.29 52.5183 80.3811 52.5711 80.3811 52.6989V55.8177L71.4353 60.9816Z" fill="#303E42"/>
<path d="M80.3812 56.3896V68.876C80.3812 69.0039 80.2901 69.1604 80.1799 69.2244L62.5871 79.3812C62.4768 79.4451 62.3857 79.3924 62.3857 79.2662V66.7798L80.3812 56.3896Z" fill="#303E42"/>
<path d="M101.097 43.857L95.2769 47.217V44.0982C95.2769 43.9704 95.3679 43.8138 95.4782 43.7499L101.097 40.5049V43.857Z" fill="#303E42"/>
<path d="M101.454 43.6509V40.2988L107.073 37.0538C107.183 36.9899 107.274 37.0426 107.274 37.1704V40.2908L101.454 43.6509Z" fill="#303E42"/>
<path d="M107.274 40.8628V47.2857C107.274 47.4136 107.183 47.5701 107.073 47.634L95.4782 54.3286C95.3679 54.3925 95.2769 54.3398 95.2769 54.212V47.7906L107.274 40.8644V40.8628Z" fill="#303E42"/>
<path d="M58.6646 90.9026L59.8756 90.2028V89.6611L58.6646 90.3609V90.9026Z" fill="#FE732C"/>
<path d="M78.2449 79.5986L79.456 78.9003V78.3571L78.2449 79.0569V79.5986Z" fill="#FE732C"/>
<path d="M110.086 61.2167L111.298 60.5169V59.9752L110.086 60.6734V61.2167Z" fill="#FE732C"/>
<path d="M44.593 93.4815L46.1316 92.5932V91.6138L44.593 92.5021V93.4815Z" fill="#FE732C"/>
<path d="M116.135 44.806L119.812 42.7098V42.6826C119.812 42.6826 119.569 34.7083 119.42 29.3063L116.135 31.3578V44.806Z" fill="#141C1E"/>
<g style="mix-blend-mode:multiply" opacity="0.3">
<path d="M7.41684 94.1556C6.41025 92.796 4.8876 91.1279 2.9751 90.1948C2.9751 90.2156 2.9751 90.238 2.9751 90.2587C4.86523 91.1886 6.37191 92.8407 7.3689 94.1892C8.23648 95.3587 8.85161 96.4708 9.17755 97.1051L9.27022 97.1578C8.95547 96.5363 8.32276 95.3779 7.41684 94.154V94.1556Z" fill="black"/>
</g>
<path d="M28.3281 73.6916C26.0018 72.6179 22.5842 70.8189 17.5657 67.8375C13.247 65.4121 10.363 63.6402 8.43774 62.3284V65.5016C10.2783 66.8293 13.2901 68.7705 18.216 71.5362L18.2303 71.5442C22.9165 74.3275 26.1312 76.0339 28.3265 77.0788V73.69L28.3281 73.6916Z" fill="#485052"/>
<path d="M33.4983 80.1018C33.4983 79.974 33.4072 79.9213 33.297 79.9852L32.9886 80.1929C32.9886 80.1929 31.5235 81.0381 17.8963 72.9455C6.16403 66.3612 4.84589 64.2426 4.85547 63.8575L3.27051 82.3179C6.26948 85.7435 16.7795 91.8692 16.7795 91.8692C16.7795 91.8692 24.9008 96.5379 28.8744 97.6643C29.6254 97.8768 32.0475 97.046 33.2986 94.6014C33.4088 94.5375 33.4999 94.3809 33.4999 94.2531V80.1002L33.4983 80.1018Z" fill="#303E42"/>
<path opacity="0.7" d="M5.29977 64.5845C4.94348 64.1851 4.85081 63.9598 4.854 63.8575L3.36011 81.2506L4.91791 79.4947L5.29977 79.442V64.5829V64.5845Z" fill="#C5D0D3"/>
<path opacity="0.1" d="M18.6952 73.4185C18.4331 73.2635 18.1679 73.1069 17.8963 72.9455C6.16403 66.3612 4.84589 64.2426 4.85547 63.8575L3.27051 82.3179C4.63818 83.8805 7.56845 86.0039 10.3517 87.8525C12.1716 83.5402 14.835 78.4993 18.6968 73.4185H18.6952Z" fill="white"/>
<g style="mix-blend-mode:multiply" opacity="0.3">
<path d="M94.8342 72.4233L94.8917 72.3897V59.9752H94.8342V72.4233Z" fill="black"/>
</g>
<path opacity="0.7" d="M7.08911 66.168V69.0679L12.0293 69.5073C9.73658 68.0885 8.1628 66.9973 7.08911 66.168Z" fill="#C5D0D3"/>
<path opacity="0.7" d="M7.08911 69.5455V79.6209L9.27004 79.7407L13.5153 81.6085C13.6079 81.535 13.6814 81.3992 13.6814 81.2857V73.3897L7.08911 72.8049V72.3271L13.6814 72.9119V70.5121C13.4274 70.3603 13.1813 70.2117 12.9417 70.0663L7.08911 69.5471V69.5455Z" fill="#C5D0D3"/>
<path d="M16.7779 99.1838C26.3964 104.736 29.8347 104.158 30.6 103.859L31.8079 100.726L30.6 101.266C29.8347 101.564 26.3964 102.143 16.7779 96.5906C7.15948 91.0384 3.72113 86.4897 2.95581 85.3057V87.8989C3.72113 89.0812 7.15948 93.63 16.7779 99.1838Z" fill="#414E52"/>
<path opacity="0.1" d="M11.3696 98.3721L20.7021 103.76L19.7306 101.469L12.4289 97.2521L11.3696 98.3721Z" fill="black"/>
<path d="M28.3169 102.171C28.3169 102.517 28.5661 102.942 28.8745 103.119C29.1829 103.296 29.4321 103.16 29.4321 102.815C29.4321 102.47 29.1829 102.045 28.8745 101.868C28.5661 101.691 28.3169 101.826 28.3169 102.171Z" fill="#EEF5F9"/>
<path d="M27.2017 106.171C27.2017 106.516 27.4509 106.941 27.7593 107.118C28.0676 107.296 28.3169 107.16 28.3169 106.815C28.3169 106.47 28.0676 106.045 27.7593 105.867C27.4509 105.69 27.2017 105.826 27.2017 106.171Z" fill="#414E52"/>
<path d="M27.304 106.23C27.304 106.513 27.5085 106.858 27.7593 107.003C28.0102 107.147 28.2147 107.037 28.2147 106.756C28.2147 106.474 28.0102 106.128 27.7593 105.982C27.5069 105.837 27.304 105.949 27.304 106.23Z" fill="#EEF5F9"/>
<path d="M5.30762 93.6382C5.30762 93.9833 5.55687 94.4083 5.86523 94.5856C6.1736 94.763 6.42284 94.6272 6.42284 94.282C6.42284 93.9369 6.1736 93.5119 5.86523 93.3346C5.55687 93.1572 5.30762 93.293 5.30762 93.6382Z" fill="#414E52"/>
<path d="M5.41162 93.697C5.41162 93.9798 5.61454 94.325 5.86698 94.4704C6.11783 94.6158 6.32234 94.5039 6.32234 94.2227C6.32234 93.9415 6.11783 93.5948 5.86698 93.4494C5.61613 93.304 5.41162 93.4158 5.41162 93.697Z" fill="#EEF5F9"/>
<path d="M26.5273 102.028C26.5273 102.505 26.8725 103.092 27.2975 103.338C27.7225 103.584 28.0676 103.395 28.0676 102.918C28.0676 102.44 27.7225 101.854 27.2975 101.608C26.8725 101.361 26.5273 101.55 26.5273 102.028Z" fill="#EEF5F9"/>
<path d="M25.8179 101.378C25.8179 101.472 25.885 101.587 25.9665 101.635C26.0479 101.683 26.115 101.644 26.115 101.55C26.115 101.454 26.0479 101.339 25.9665 101.293C25.885 101.245 25.8179 101.283 25.8179 101.379V101.378Z" fill="#EEF5F9"/>
<path d="M25.2764 101.213C25.2764 101.307 25.3435 101.424 25.425 101.47C25.5064 101.518 25.5735 101.48 25.5735 101.384C25.5735 101.288 25.5064 101.173 25.425 101.127C25.3435 101.079 25.2764 101.117 25.2764 101.213Z" fill="#EEF5F9"/>
<path d="M24.7603 101.036C24.7603 101.13 24.8274 101.247 24.9088 101.293C24.9903 101.341 25.0574 101.301 25.0574 101.207C25.0574 101.112 24.9903 100.996 24.9088 100.949C24.8274 100.901 24.7603 100.94 24.7603 101.036Z" fill="#EEF5F9"/>
<path d="M24.2153 100.828C24.2153 100.922 24.2824 101.039 24.3639 101.085C24.4454 101.133 24.5125 101.095 24.5125 100.999C24.5125 100.903 24.4454 100.789 24.3639 100.742C24.2824 100.694 24.2153 100.734 24.2153 100.828Z" fill="#EEF5F9"/>
<path d="M23.7329 100.639C23.7329 100.734 23.8 100.849 23.8815 100.897C23.963 100.945 24.0301 100.906 24.0301 100.81C24.0301 100.714 23.963 100.601 23.8815 100.553C23.8 100.505 23.7329 100.545 23.7329 100.639Z" fill="#EEF5F9"/>
<path d="M29.675 102.034C29.675 102.229 29.8125 102.469 29.9818 102.566C30.1512 102.664 30.2886 102.584 30.2886 102.389C30.2886 102.194 30.1512 101.956 29.9818 101.857C29.8125 101.759 29.675 101.839 29.675 102.034Z" fill="#EEF5F9"/>
<path d="M4.9978 88.6435C4.9978 88.9886 4.74855 89.1245 4.44018 88.9471C4.13182 88.7698 3.88257 88.3448 3.88257 87.9996C3.88257 87.6545 4.13182 87.5171 4.44018 87.6961C4.74855 87.8734 4.9978 88.2984 4.9978 88.6435Z" fill="#EEF5F9"/>
<path d="M6.63394 90.4376C6.63394 90.9137 6.29042 91.1006 5.86702 90.8562C5.44361 90.6117 5.1001 90.027 5.1001 89.5524C5.1001 89.0779 5.44361 88.8894 5.86702 89.1338C6.29042 89.3783 6.63394 89.963 6.63394 90.4376Z" fill="#EEF5F9"/>
<path d="M7.38629 90.7909C7.38629 90.8852 7.31919 90.9235 7.2377 90.8772C7.15622 90.8293 7.08911 90.7142 7.08911 90.62C7.08911 90.5257 7.15622 90.4874 7.2377 90.5337C7.31919 90.5816 7.38629 90.6967 7.38629 90.7909Z" fill="#EEF5F9"/>
<path d="M7.92804 91.2525C7.92804 91.3467 7.86093 91.3867 7.77945 91.3387C7.69796 91.2908 7.63086 91.1758 7.63086 91.0815C7.63086 90.9872 7.69796 90.9489 7.77945 90.9952C7.86093 91.0432 7.92804 91.1582 7.92804 91.2525Z" fill="#EEF5F9"/>
<path d="M8.44415 91.6713C8.44415 91.7656 8.37705 91.8039 8.29556 91.7576C8.21408 91.7096 8.14697 91.5946 8.14697 91.5003C8.14697 91.4061 8.21408 91.3677 8.29556 91.4141C8.37705 91.462 8.44415 91.577 8.44415 91.6713Z" fill="#EEF5F9"/>
<path d="M8.98908 92.0929C8.98908 92.1872 8.92197 92.2271 8.84049 92.1792C8.759 92.1312 8.69189 92.0162 8.69189 91.9219C8.69189 91.8277 8.759 91.7877 8.84049 91.8357C8.92197 91.8836 8.98908 91.9986 8.98908 92.0929Z" fill="#EEF5F9"/>
<path d="M9.4715 92.4605C9.4715 92.5547 9.40439 92.5931 9.32291 92.5468C9.23982 92.4988 9.17432 92.3838 9.17432 92.2895C9.17432 92.1953 9.24142 92.1569 9.32291 92.2032C9.40439 92.2496 9.4715 92.3662 9.4715 92.4605Z" fill="#EEF5F9"/>
<path d="M3.88258 87.1448C3.88258 87.3397 3.74517 87.4196 3.57581 87.3221C3.40645 87.2247 3.26904 86.9866 3.26904 86.7901C3.26904 86.5952 3.40645 86.5153 3.57581 86.6127C3.74517 86.7102 3.88258 86.9483 3.88258 87.1448Z" fill="#EEF5F9"/>
<path d="M18.6089 102.803C18.553 102.803 18.4939 102.787 18.4364 102.753L13.5169 99.9108C13.3412 99.8085 13.2021 99.5689 13.2021 99.366V98.4792C13.2021 98.3019 13.3092 98.1788 13.4626 98.1788C13.5185 98.1788 13.5776 98.1964 13.6351 98.23L18.5562 101.072C18.732 101.175 18.871 101.413 18.871 101.617V102.504C18.871 102.68 18.7639 102.803 18.6105 102.803H18.6089Z" fill="#758286"/>
<path d="M18.7513 102.504C18.7513 102.665 18.6363 102.732 18.4957 102.651L13.5746 99.8085C13.434 99.727 13.3206 99.5289 13.3206 99.3659V98.4791C13.3206 98.3162 13.4356 98.2506 13.5746 98.3321L18.4957 101.175C18.6347 101.256 18.7513 101.454 18.7513 101.617V102.504Z" fill="white"/>
<path d="M81.1897 52.3907C81.1897 52.2102 81.3175 51.9881 81.4741 51.897L94.181 44.5617C94.3376 44.4707 94.4654 44.5458 94.4654 44.7263V60.7102C94.4654 60.8907 94.3376 61.1144 94.181 61.2039L81.4741 68.5391C81.3175 68.6302 81.1897 68.5551 81.1897 68.3746V52.3907Z" fill="#303E42"/>
<path d="M34.3228 89.3576L42.2236 84.8679V87.3412C42.2236 87.469 42.1325 87.6256 42.0223 87.6895L37.2562 90.4153L35.7959 92.887L34.3228 93.6907V89.3576Z" fill="#303E42"/>
<path d="M42.222 75.1616L34.3228 79.6257V88.784L42.222 84.2943V75.1616Z" fill="#303E42"/>
<path d="M82.4868 24.1135L87.8521 27.2115L91.1738 25.2927V25.0977L85.8101 21.9997L82.4868 23.9186V24.1135Z" fill="#151D1F"/>
<path d="M82.4868 23.9186L87.8521 27.0166L91.1738 25.0977L85.8101 21.9997L82.4868 23.9186Z" fill="#485052"/>
<path d="M76.9795 27.2803L82.3447 30.3768L85.668 28.4595V28.2645L80.3028 25.1665L76.9795 27.0854V27.2803Z" fill="#151D1F"/>
<path d="M76.9795 27.0854L82.3447 30.1818L85.668 28.2645L80.3028 25.1665L76.9795 27.0854Z" fill="#485052"/>
<path d="M71.4722 30.4455L76.8374 33.5436L80.1607 31.6247V31.4298L74.7955 28.3317L71.4722 30.2506V30.4455Z" fill="#151D1F"/>
<path d="M71.4722 30.2506L76.8374 33.3487L80.1607 31.4298L74.7955 28.3317L71.4722 30.2506Z" fill="#485052"/>
<path d="M65.9663 33.6123L71.3299 36.7087L74.6533 34.7914V34.5965L69.2896 31.4985L65.9663 33.4174V33.6123Z" fill="#151D1F"/>
<path d="M65.9663 33.4174L71.3299 36.5138L74.6533 34.5965L69.2896 31.4985L65.9663 33.4174Z" fill="#485052"/>
<path opacity="0.05" d="M100.74 27.1125L72.5186 43.4079L55.3284 33.4827L54.5647 35.3473L72.5186 45.7135L101.503 28.9771L100.74 27.1125Z" fill="black"/>
<path opacity="0.05" d="M55.3284 33.4828L54.5647 35.3474L72.5186 45.7136V43.4081L55.3284 33.4828Z" fill="black"/>
<g style="mix-blend-mode:screen" opacity="0.5">
<path d="M83.5494 17.3121L100.632 27.175L100.74 27.1126L83.5494 17.1874L55.3284 33.4829L55.4354 33.5452L83.5494 17.3121Z" fill="#E1E8EC"/>
</g>
<path d="M14.9006 67.8327L14.2663 67.4669L14.1912 67.51L14.2663 67.6394L14.9006 68.0053L14.9757 67.9622L14.9006 67.8327Z" fill="#FFA100"/>
<path d="M14.9006 66.8694L14.2663 66.5035L14.1912 66.5467L14.2663 66.6761L14.9006 67.042L14.9757 66.9988L14.9006 66.8694Z" fill="#FFA100"/>
<path d="M14.9006 68.7964L14.2663 68.4289L14.1912 68.4736L14.2663 68.603L14.9006 68.9689L14.9757 68.9258L14.9006 68.7964Z" fill="#FFA100"/>
<path opacity="0.4" d="M14.1671 66.5609L14.092 66.6041V67.3358L14.1671 67.4652L14.2406 67.4221V66.6903L14.1671 66.5609Z" fill="#FFA100"/>
<path d="M15.0011 67.0418L14.926 67.0849V67.8183L15.0011 67.9477L15.0746 67.9046V67.1712L15.0011 67.0418Z" fill="#FFA100"/>
<path opacity="0.4" d="M14.1671 67.5246L14.092 67.5677V68.2995L14.1671 68.4289L14.2406 68.3858V67.654L14.1671 67.5246Z" fill="#FFA100"/>
<path d="M15.0011 68.0054L14.926 68.0486V68.7803L15.0011 68.9114L15.0746 68.8666V68.1348L15.0011 68.0054Z" fill="#FFA100"/>
<path d="M13.696 67.1362L13.0617 66.7703L12.9866 66.8135L13.0617 66.9429L13.696 67.3088L13.7711 67.2656L13.696 67.1362Z" fill="#FFA100"/>
<path d="M13.696 66.1729L13.0617 65.807L12.9866 65.8501L13.0617 65.9796L13.696 66.3455L13.7711 66.3023L13.696 66.1729Z" fill="#FFA100"/>
<path d="M13.696 68.0995L13.0617 67.7336L12.9866 67.7768L13.0617 67.9062L13.696 68.2721L13.7695 68.2289L13.696 68.0995Z" fill="#FFA100"/>
<path opacity="0.4" d="M12.9611 65.8644L12.886 65.9075V66.6409L12.9611 66.7703L13.0362 66.7272V65.9938L12.9611 65.8644Z" fill="#FFA100"/>
<path d="M13.7949 66.3469L13.7214 66.39V67.1218L13.7949 67.2512L13.87 67.2081V66.4763L13.7949 66.3469Z" fill="#FFA100"/>
<path d="M12.9611 66.8278L12.886 66.8709V67.6043L12.9611 67.7337L13.0362 67.6905V66.9572L12.9611 66.8278Z" fill="#FFA100"/>
<path opacity="0.4" d="M13.7949 67.3105L13.7214 67.3536V68.0854L13.7949 68.2148L13.87 68.1717V67.4399L13.7949 67.3105Z" fill="#FFA100"/>
<path d="M16.1868 68.4304L15.9312 68.2834V67.9686L16.1868 68.1156V68.4304Z" fill="#FFA100"/>
<path d="M20.2212 70.7599L16.7812 68.7739V68.4608L20.2212 70.4452V70.7599Z" fill="#FFA100"/>
<path d="M22.9962 72.3625L20.9048 71.1546V70.8414L22.9962 72.0477V72.3625Z" fill="#FFA100"/>
<path d="M16.1868 69.2645L15.9312 69.1175V68.8043L16.1868 68.9513V69.2645Z" fill="#FFA100"/>
<path d="M19.4495 71.1482L16.7812 69.608V69.2949L19.4495 70.8351V71.1482Z" fill="#FFA100"/>
<path d="M22.9962 73.1963L20.0068 71.4708V71.156L22.9962 72.8832V73.1963Z" fill="#FFA100"/>
<path d="M34.5433 81.2012C34.5433 81.2012 34.6839 81.0798 34.8932 81.2012C35.1025 81.3226 36.3823 82.0288 36.459 82.1039C36.5341 82.1806 36.6923 82.2142 36.6923 82.6232V86.6479C36.6923 86.8556 36.63 87.0729 36.4814 87.1081C36.3328 87.1416 35.8567 87.2487 35.756 87.2726C35.6554 87.295 35.5244 87.2902 35.4013 87.2199C35.2783 87.1496 34.521 86.7118 34.4203 86.6543C34.3197 86.5968 34.2014 86.4338 34.2014 86.1973V81.9346C34.2014 81.8754 34.2334 81.6597 34.3212 81.5303C34.4091 81.4009 34.5433 81.2028 34.5433 81.2028V81.2012Z" fill="#E1E8EC"/>
<g style="mix-blend-mode:multiply" opacity="0.1">
<path d="M34.4203 86.6528C34.3197 86.5953 34.2014 86.4323 34.2014 86.1958V81.933C34.2014 81.9091 34.2078 81.8595 34.219 81.8004C34.2605 81.7733 34.3085 81.7669 34.3676 81.8004C34.6552 81.9666 35.4525 82.4203 35.5787 82.4938C35.7049 82.5673 35.8503 82.6472 35.8503 83.0195V86.9148C35.8503 87.0458 35.8535 87.1704 35.8008 87.2615C35.7832 87.2663 35.7672 87.2695 35.7576 87.2711C35.657 87.2935 35.5259 87.2887 35.4029 87.2184C35.2799 87.1481 34.5226 86.7103 34.4219 86.6528H34.4203Z" fill="black"/>
</g>
<path d="M35.0801 78.6847L34.6024 78.4083L33.9265 78.8125V80.9375L35.7911 82.0144L36.4669 81.6101V81.0845C36.4669 80.2009 35.847 79.1256 35.0817 78.6847H35.0801Z" fill="#3B4345"/>
<path d="M35.7896 81.4886C35.7896 80.6051 35.1697 79.5298 34.4028 79.0888L33.925 78.8124V80.9374L35.7896 82.0143V81.4886Z" fill="#151D1F"/>
<defs>
<linearGradient id="paint0_linear_43_30557" x1="99.0012" y1="66.4269" x2="105.253" y2="66.4269" gradientUnits="userSpaceOnUse">
<stop stop-color="#B7B9BB"/>
<stop offset="1" stop-color="#6D7072"/>
</linearGradient>
<linearGradient id="paint1_linear_43_30557" x1="99.0011" y1="66.4268" x2="105.253" y2="66.4268" gradientUnits="userSpaceOnUse">
<stop stop-color="#D0D2D4"/>
<stop offset="1" stop-color="#86898B"/>
</linearGradient>
<linearGradient id="paint2_linear_43_30557" x1="99.2937" y1="66.4284" x2="0.163099" y2="66.4284" gradientUnits="userSpaceOnUse">
<stop stop-color="#D0D2D4"/>
<stop offset="1" stop-color="#86898B"/>
</linearGradient>
<linearGradient id="paint3_linear_43_30557" x1="99.6931" y1="65.9569" x2="103.024" y2="65.9569" gradientUnits="userSpaceOnUse">
<stop stop-color="#D0D2D4"/>
<stop offset="1" stop-color="#86898B"/>
</linearGradient>
<linearGradient id="paint4_linear_43_30557" x1="51.259" y1="98.094" x2="53.0037" y2="91.7142" gradientUnits="userSpaceOnUse">
<stop stop-color="#E6E8EB"/>
<stop offset="1" stop-color="#717475"/>
</linearGradient>
<linearGradient id="paint5_linear_43_30557" x1="48.9039" y1="95.274" x2="55.1559" y2="95.274" gradientUnits="userSpaceOnUse">
<stop stop-color="#E6E8EB"/>
<stop offset="1" stop-color="#717475"/>
</linearGradient>
<linearGradient id="paint6_linear_43_30557" x1="49.1979" y1="95.2743" x2="55.1559" y2="95.2743" gradientUnits="userSpaceOnUse">
<stop stop-color="#E6E8EB"/>
<stop offset="1" stop-color="#717475"/>
</linearGradient>
<linearGradient id="paint7_linear_43_30557" x1="50.5095" y1="95.4369" x2="53.8424" y2="95.4369" gradientUnits="userSpaceOnUse">
<stop stop-color="#D0D2D4"/>
<stop offset="1" stop-color="#86898B"/>
</linearGradient>
</defs>
</svg>
