<svg width="120" height="120" viewBox="0 0 120 120" fill="none" xmlns="http://www.w3.org/2000/svg">
<path d="M89.4294 51.8975C90.2109 53.0879 90.2434 55.1262 89.3643 57.3766C88.0618 60.7358 85.2126 63.3123 82.9332 63.2145C83.3077 63.6058 83.8124 63.8667 84.4148 63.9157C86.6453 64.1113 89.5108 61.5675 90.8133 58.2409C92.0344 55.0773 91.4157 52.3377 89.4294 51.8975Z" fill="#2E373A"/>
<path d="M89.8531 52.0598C90.6346 53.2665 90.6671 55.3049 89.788 57.5389C88.4855 60.8982 85.6363 63.4747 83.3569 63.3768C83.7314 63.7682 84.2361 64.0291 84.8222 64.078C87.0527 64.2737 89.9182 61.7298 91.2207 58.4032C92.4418 55.2397 91.8231 52.5001 89.8368 52.0598H89.8531Z" fill="url(#paint0_linear_43_26567)"/>
<path d="M89.1368 57.1153C88.8763 57.0338 88.5507 56.4467 88.2413 56.0553C87.8669 55.3052 87.297 54.229 87.1179 53.8702C86.9226 53.4788 87.1179 52.158 88.2088 51.9297C87.7366 52.0112 87.2319 52.2069 86.7109 52.5167C85.848 53.0059 85.0502 53.7398 84.3664 54.604C85.5061 53.2342 86.0597 54.7345 85.9457 55.6314C85.8968 56.039 85.4898 56.9848 85.213 57.7349C84.6758 58.909 83.9105 60.6213 83.6501 61.192C83.3733 61.7791 82.3638 62.7738 82.1196 61.6486C82.2173 62.1541 82.3964 62.6107 82.6569 62.9695C83.0802 63.5728 83.6826 63.899 84.3827 63.9642C83.2756 63.8174 84.3664 61.7301 85.0502 61.0126C85.3596 60.6865 86.0922 60.3277 86.6783 59.969C87.5901 59.545 88.9251 58.909 89.381 58.6971C89.8369 58.4851 90.6509 58.8112 89.8206 60.181C90.1951 59.5939 90.5207 58.9417 90.7812 58.2731C91.2045 57.1642 91.4161 56.1206 91.3999 55.1911C91.3673 56.7076 89.7229 57.2947 89.1531 57.1153H89.1368Z" fill="#D0D2D4"/>
<path d="M83.6497 61.1908C83.9102 60.6201 84.6754 58.9079 85.2127 57.7338C85.4895 56.9837 85.8965 56.0379 85.9453 55.6302C86.0268 54.9127 85.7011 53.8364 85.001 54.081C85.1801 54.4072 85.2453 54.8801 85.2127 55.2551C85.1639 55.6628 84.7568 56.6086 84.4801 57.3587C83.9428 58.5328 83.1776 60.245 82.9171 60.8158C82.7868 61.1093 82.4612 61.5007 82.1519 61.6964C82.4286 62.74 83.3892 61.7779 83.666 61.1908H83.6497Z" fill="url(#paint1_linear_43_26567)"/>
<path d="M89.1369 57.114C89.723 57.2933 91.3511 56.7063 91.3837 55.1897L90.6348 54.831C90.6022 56.0866 89.4788 56.7063 88.7625 56.7715C88.8927 56.9346 89.0229 57.065 89.1369 57.114Z" fill="#EAECEE"/>
<path d="M84.9197 53.9522C85.3755 53.4793 85.8477 53.0553 86.3687 52.7128C86.4827 52.2236 86.8083 51.7018 87.4595 51.5551C86.9874 51.6366 86.4827 51.8323 85.9617 52.1421C85.0988 52.6313 84.301 53.3651 83.6172 54.2294C84.2196 53.5119 84.6592 53.5771 84.9197 53.9522Z" fill="#0080FF"/>
<path d="M82.6564 62.9688C82.4122 62.6101 82.2331 62.1861 82.1354 61.6969C81.8098 61.8762 81.5004 61.8436 81.3865 61.2729C81.4842 61.7784 81.6633 62.235 81.9237 62.5938C82.2494 63.0667 82.689 63.3602 83.1937 63.5069C82.9983 63.3602 82.8192 63.1808 82.6727 62.9688H82.6564Z" fill="#0080FF"/>
<path d="M89.8363 60.1312H89.8521V60.0995L89.8363 60.1312Z" fill="#0080FF"/>
<path d="M89.8527 60.0982L89.9992 59.821C90.4551 58.81 89.8201 58.5327 89.3968 58.6958C89.4457 58.9404 89.3643 59.3155 89.0549 59.8373L89.8364 60.1308C89.8364 60.1308 89.8364 60.1145 89.8527 60.0982Z" fill="#9D9FA1"/>
<path d="M86.5154 60.0336C87.4271 59.6096 88.8762 58.9247 89.3483 58.6964C89.8042 58.4844 90.6182 58.8106 89.7879 60.1803C90.0158 59.8053 90.2275 59.4139 90.4229 59.0225C90.4229 58.6149 90.2763 58.2398 89.8205 58.2887C88.8762 58.4029 87.7853 59.2182 86.5805 59.6096C86.0432 59.789 85.6199 59.8868 85.2943 59.9357C85.4246 60.0662 85.6037 60.1477 85.8153 60.164C86.027 60.1803 86.2549 60.1314 86.4991 60.0336H86.5154Z" fill="url(#paint2_linear_43_26567)"/>
<path d="M88.1599 55.9573C88.0134 55.7942 87.8343 55.6964 87.6063 55.6801C87.6389 55.7616 87.6552 55.8431 87.704 55.9084C88.4041 57.3434 88.7134 57.7673 89.9996 57.376C90.6183 57.1803 91.0742 56.6095 91.351 56.1366C91.3998 55.8105 91.4161 55.5007 91.4161 55.2072C91.3835 56.7237 89.7391 57.3107 89.1693 57.1314C88.8762 57.0335 88.5181 56.3486 88.1924 55.9736L88.1599 55.9573Z" fill="url(#paint3_linear_43_26567)"/>
<path d="M88.3065 56.1858C87.932 55.4357 87.3133 54.2779 87.1179 53.8702C86.9226 53.4788 87.1179 52.158 88.2088 51.9297C87.9157 51.9786 87.6064 52.0765 87.297 52.2232C87.004 52.6146 86.7272 53.1364 86.7923 53.6582C86.9389 54.7345 87.6227 55.3541 87.9971 56.4793C88.1599 56.9848 88.2576 57.4251 88.3227 57.7839C88.4041 57.4903 88.453 57.2131 88.453 56.9359C88.453 56.6424 88.4042 56.4141 88.3065 56.2184V56.1858Z" fill="url(#paint4_linear_43_26567)"/>
<path d="M85.1476 57.9302C85.1476 57.9302 85.1476 57.9302 85.1476 57.9628C85.0337 58.289 84.9848 58.6151 84.9685 58.9249C85.0337 58.8271 85.0825 58.7129 85.1313 58.5825C86.1571 56.3647 86.4664 55.582 86.0757 54.3427C85.8966 53.7556 85.4244 53.723 85.0499 53.8209C84.8057 54.0655 84.5778 54.3264 84.3499 54.6199C85.4895 53.2501 86.0431 54.7504 85.9291 55.6472C85.8803 56.0875 85.3918 57.1801 85.1313 57.9465L85.1476 57.9302Z" fill="url(#paint5_linear_43_26567)"/>
<path d="M85.3106 57.5396C84.7733 58.6974 83.9429 60.5727 83.6662 61.176C83.3894 61.7631 82.38 62.7578 82.1357 61.6326C82.2009 61.9425 82.2823 62.236 82.4125 62.5132C82.7219 62.5132 83.1289 62.3828 83.5196 61.812C84.3174 60.6216 84.7244 59.1866 85.5548 57.6701C85.913 56.9852 86.2549 56.447 86.4991 56.0394C86.2711 56.2024 86.0595 56.4144 85.8478 56.659C85.6362 56.9199 85.4571 57.2135 85.3106 57.5233V57.5396Z" fill="url(#paint6_linear_43_26567)"/>
<path d="M86.8243 59.854C86.8243 59.854 86.8242 59.854 86.8405 59.854C87.0847 59.6909 87.3452 59.4626 87.5732 59.1691C87.4918 59.2017 87.4104 59.2343 87.3127 59.2669C85.5869 60.0496 84.9682 60.4084 84.0727 62.0391C83.6332 62.8218 83.6494 63.4252 83.7471 63.8002C83.9425 63.8818 84.1704 63.9307 84.3821 63.947C83.275 63.8002 84.3658 61.7129 85.0496 60.9954C85.3915 60.6367 86.2381 60.2453 86.8243 59.8377V59.854Z" fill="url(#paint7_linear_43_26567)"/>
<path d="M88.4523 56.9025C88.4523 55.7936 87.6708 55.337 86.7102 55.8915C85.7496 56.4459 84.9681 57.7994 84.9681 58.9083C84.9681 60.0171 85.7496 60.4737 86.7102 59.9193C87.6708 59.3649 88.4523 58.0114 88.4523 56.9025Z" fill="url(#paint8_linear_43_26567)"/>
<path d="M88.2898 57.0004C88.2898 55.9894 87.5897 55.5817 86.7105 56.0872C85.8313 56.5927 85.1312 57.8157 85.1312 58.8268C85.1312 59.8378 85.8313 60.2455 86.7105 59.7399C87.5897 59.2344 88.2898 58.0114 88.2898 57.0004Z" fill="#D0D2D4"/>
<path d="M87.5732 57.4242C87.5732 56.8698 87.1825 56.6415 86.7103 56.9187C86.2382 57.1959 85.8474 57.8645 85.8474 58.4189C85.8474 58.9733 86.2382 59.2016 86.7103 58.9244C87.1825 58.6472 87.5732 57.9786 87.5732 57.4242Z" fill="url(#paint9_linear_43_26567)"/>
<path d="M87.6224 48.8801C83.0962 51.4892 79.433 57.8489 79.433 63.0671C79.433 68.2853 83.0962 70.4052 87.6224 67.7961C92.1322 65.187 95.7955 58.8273 95.7955 53.6091C95.7955 48.3909 92.1322 46.271 87.6224 48.8801ZM87.6224 65.2196C84.3336 67.1112 81.6798 65.5784 81.6798 61.7789C81.6798 57.9794 84.3336 53.3645 87.6224 51.4729C90.9112 49.5813 93.565 51.1142 93.565 54.9137C93.565 58.7132 90.9112 63.328 87.6224 65.2196Z" fill="#2E373A"/>
<path d="M87.6219 51.4732C84.3331 53.3648 81.6793 57.9796 81.6793 61.7791C81.6793 65.5786 84.3331 67.1115 87.6219 65.2199C90.9107 63.3283 93.5645 58.6971 93.5645 54.9139C93.5645 51.1307 90.9107 49.5816 87.6219 51.4732ZM87.6219 64.323C84.7727 65.97 82.4608 64.6328 82.4608 61.3388C82.4608 58.0448 84.7727 54.0333 87.6219 52.3863C90.4711 50.7393 92.783 52.0765 92.783 55.3705C92.783 58.6645 90.4711 62.676 87.6219 64.323Z" fill="#D0D2D4"/>
<path d="M87.1828 52.0761C84.3336 53.7231 82.0217 57.7346 82.0217 61.0286C82.0217 64.3226 84.3336 65.6597 87.1828 64.0127C90.032 62.3657 92.3439 58.3542 92.3439 55.0602C92.3439 51.7662 90.032 50.4291 87.1828 52.0761ZM84.8546 64.0943C82.6241 63.8986 81.8589 61.0286 83.1451 57.6857C84.4313 54.3427 87.2968 51.8152 89.5436 52.0108C91.7741 52.2065 92.5556 55.0765 91.2531 58.4195C89.9669 61.7624 87.1014 64.29 84.8546 64.0943Z" fill="#D0D2D4"/>
<path d="M87.6224 48.8801C83.0962 51.4892 79.433 57.8489 79.433 63.0671C79.433 68.2853 83.0962 70.4052 87.6224 67.7961C92.1322 65.187 95.7955 58.8273 95.7955 53.6091C95.7955 48.3909 92.1322 46.271 87.6224 48.8801ZM87.6224 67.0134C83.487 69.4105 80.1331 67.47 80.1331 62.6758C80.1331 57.8815 83.487 52.0763 87.6224 49.6792C91.7578 47.282 95.1117 49.2226 95.1117 54.0168C95.1117 58.811 91.7578 64.6163 87.6224 67.0134Z" fill="#555E61"/>
<path d="M79.433 63.0829C79.433 57.8647 83.0963 51.505 87.6224 48.8959C90.032 47.5098 92.1974 47.4609 93.6953 48.5045C91.3508 46.4172 90.0483 46.0259 88.3713 45.6345C86.9549 45.3084 84.936 45.7487 83.0311 46.8412C78.505 49.4503 74.858 55.81 74.858 61.0282C74.858 63.3601 75.6232 65.0397 76.8118 66.0345C77.577 66.6704 79.661 68.5294 83.0474 68.9371C83.4219 68.986 83.715 68.9697 83.9266 68.9371C81.2728 68.9045 79.4493 66.7683 79.4493 63.0829H79.433Z" fill="url(#paint10_linear_43_26567)"/>
<path d="M89.5919 51.8477C87.2962 51.6358 84.3494 54.2612 83.0143 57.6856C81.6793 61.1101 82.477 64.0616 84.7727 64.2736C87.0683 64.4856 90.0152 61.8602 91.3502 58.4357C92.6853 55.0113 91.8875 52.0597 89.5919 51.8477ZM84.8541 64.0942C82.6236 63.8985 81.8583 61.0285 83.1446 57.6856C84.4308 54.3427 87.2962 51.8151 89.543 52.0108C91.7735 52.2065 92.555 55.0765 91.2525 58.4194C89.9663 61.7623 87.1009 64.2899 84.8541 64.0942Z" fill="url(#paint11_linear_43_26567)"/>
<path d="M89.3643 51.3746C91.1227 51.3093 92.36 52.6628 92.36 55.0599C92.36 58.3539 90.0481 62.3654 87.1989 64.0124C84.9684 65.3007 83.0798 64.7625 82.3472 62.9035C82.9333 65.3007 85.0824 66.0997 87.6222 64.6158C90.618 62.8709 93.0601 58.6474 93.0601 55.1741C93.0601 52.4019 91.5134 50.9506 89.3643 51.3582V51.3746Z" fill="url(#paint12_linear_43_26567)"/>
<path d="M87.1011 51.4236C87.3128 51.5704 88.9734 54.7502 88.7129 56.3646C88.4362 57.9953 79.5304 64.2571 79.5304 64.2571V55.3373L87.1011 51.4073V51.4236Z" fill="#222B2E"/>
<path d="M91.7576 57.3111C91.7576 57.3111 89.7713 54.066 87.1826 55.9087C84.5939 57.7514 81.354 61.3878 80.0027 62.9533C78.6513 64.5187 75.7044 67.4051 73.3274 67.9921L71.9761 70.2099C71.9761 70.2099 77.414 69.1499 79.8724 67.8454C82.3471 66.5408 88.1921 62.4152 89.9016 60.5725C91.6274 58.7461 91.7413 57.2948 91.7413 57.2948L91.7576 57.3111Z" fill="url(#paint13_linear_43_26567)"/>
<path d="M88.7134 57.2614C88.3226 57.2614 86.5317 57.8321 84.3663 60.0498C82.1847 62.2676 77.6748 66.8172 77.6748 66.8172C77.6748 66.8172 78.8796 66.7683 81.68 64.4038C84.4803 62.0393 88.7297 57.2614 88.7297 57.2614H88.7134Z" fill="url(#paint14_linear_43_26567)"/>
<path d="M93.8903 53.218C93.4018 53.0549 93.0111 53.1038 92.7506 53.3321L80.8165 63.4098L83.7471 66.8995L95.7626 56.7566C96.0231 56.5283 96.1208 56.1369 96.0231 55.6477C95.8277 54.6367 94.8671 53.5604 93.8903 53.2343V53.218Z" fill="url(#paint15_linear_43_26567)"/>
<path d="M81.9237 63.3119C81.3539 63.1162 80.898 63.2304 80.6701 63.5565L78.4884 66.9647C78.6187 66.8505 78.8303 66.8179 79.0908 66.8994C79.6118 67.0788 80.1002 67.6496 80.2142 68.1714C80.2793 68.4486 80.2142 68.6606 80.0514 68.7747L83.6169 66.9484C83.9914 66.769 84.1542 66.3287 84.0403 65.7253C83.8449 64.7143 82.8843 63.638 81.9074 63.3119H81.9237Z" fill="url(#paint16_linear_43_26567)"/>
<path d="M57.8278 54.3757C57.8278 54.3757 56.8021 58.1915 56.4928 59.2515C56.1672 60.3114 54.6693 62.5781 54.6693 62.5781C54.6693 62.5781 55.174 67.0462 55.3206 67.4212C55.4671 67.7963 59.0326 69.9977 59.8304 70.1934C60.6282 70.3891 66.8801 70.6826 66.8801 70.6826C66.8801 70.6826 67.8407 70.0466 69.2083 69.1335C72.6925 64.2903 76.9093 54.8649 76.9093 54.8649L71.9598 52.158L57.8767 53.8539C57.8767 53.8539 57.7139 54.18 57.4534 54.7181L57.8278 54.392V54.3757Z" fill="url(#paint17_linear_43_26567)"/>
<path d="M68.9147 62.2344C66.7982 63.8325 60.3346 69.7519 60.3346 69.7519V70.2574C62.0604 70.4368 66.8633 70.6651 66.8633 70.6651C66.8633 70.6651 67.8239 70.0291 69.1915 69.1159C70.4614 67.3548 71.8128 65.0066 73.0339 62.7073C72.2524 62.0876 70.5266 61.0114 68.8985 62.2344H68.9147Z" fill="url(#paint18_linear_43_26567)"/>
<path d="M80.5239 64.5026C80.4425 64.095 79.8238 63.1492 79.7749 63.0024C79.7261 62.8556 79.5307 62.3175 79.026 62.611C78.5213 62.9209 66.864 70.6667 66.864 70.6667C66.864 70.6667 60.6121 70.3731 59.8143 70.1774C59.0165 69.9818 55.451 67.7803 55.3044 67.4053C55.1579 67.0302 54.6532 62.5621 54.6532 62.5621C54.6532 62.5621 56.1673 60.2955 56.4767 59.2355C56.8023 58.1756 57.8117 54.3597 57.8117 54.3597L50.4852 60.6379C50.4852 60.6379 44.7543 73.3899 47.5384 78.0863C50.3224 82.7827 54.9625 82.8153 58.87 81.152C62.7775 79.4887 75.7535 71.8244 77.5281 70.4057C79.3028 68.987 80.9472 66.5084 80.5239 64.47V64.5026Z" fill="url(#paint19_linear_43_26567)"/>
<path d="M55.321 67.4213C55.4675 67.7964 59.0331 69.9978 59.8309 70.1935C60.6286 70.3892 66.8806 70.6827 66.8806 70.6827C66.8806 70.6827 78.5379 62.9206 79.0426 62.6271C79.5473 62.3172 79.7264 62.8554 79.7915 63.0184C79.8403 63.1326 80.166 63.6544 80.3776 64.0947C81.2242 62.0726 82.6895 58.4036 82.4616 57.6372C82.1685 56.5609 76.3399 58.0122 74.5815 59.9527C72.8232 61.8933 67.1899 70.0793 67.1899 70.0793L60.1728 69.8836L55.207 66.8179C55.2559 67.1441 55.3047 67.3724 55.321 67.4539V67.4213Z" fill="#2F383B"/>
<path d="M81.0288 65.5773C80.9799 64.55 79.7263 62.9193 79.7263 62.9193C81.7777 66.2459 78.6191 69.0344 76.4049 70.1922C74.1907 71.35 58.7888 79.2751 55.2558 80.8569C51.7228 82.4387 49.3294 75.8833 49.3294 75.8833L46.9036 77.3183C47.1966 78.4598 51.967 83.1562 53.8393 83.1073C55.7116 83.0583 70.9019 74.5298 75.5257 72.4262C80.1333 70.3226 81.0776 66.6047 81.0288 65.5773Z" fill="url(#paint20_linear_43_26567)"/>
<path d="M35.5719 82.9446C36.3534 84.1513 36.386 86.1733 35.5068 88.4237C34.2043 91.7829 31.3714 94.3594 29.092 94.2616C29.4665 94.6529 29.9712 94.9139 30.5573 94.9628C32.8041 95.1585 35.6533 92.6146 36.9558 89.288C38.1769 86.1244 37.5582 83.3849 35.5719 82.9446Z" fill="#2E373A"/>
<path d="M35.9951 83.1083C36.7766 84.315 36.8091 86.3534 35.9299 88.5874C34.6274 91.9466 31.7783 94.5231 29.4989 94.4416C29.8734 94.8329 30.3781 95.0775 30.9805 95.1428C33.211 95.3385 36.0765 92.7946 37.379 89.468C38.6 86.3044 37.9814 83.5649 35.9951 83.1246V83.1083Z" fill="url(#paint21_linear_43_26567)"/>
<path d="M35.2788 88.1639C35.0183 88.0824 34.6926 87.4953 34.3833 87.104C34.0088 86.3539 33.439 85.2776 33.2599 84.9189C33.0645 84.5275 33.2599 83.2066 34.3507 82.9783C33.8786 83.0599 33.3739 83.2556 32.8529 83.5654C31.99 84.0546 31.1922 84.7884 30.5084 85.6527C31.6481 84.2829 32.2016 85.7831 32.0877 86.68C32.0388 87.0877 31.6318 88.0335 31.355 88.7836C30.8177 89.9577 30.0525 91.6699 29.792 92.2407C29.5152 92.8277 28.5058 93.8224 28.2616 92.6972C28.3593 93.2028 28.5384 93.6594 28.7989 94.0181C29.2222 94.6215 29.8246 94.9476 30.5247 95.0128C29.4176 94.8661 30.5084 92.7788 31.1922 92.0613C31.5015 91.7351 32.2342 91.3764 32.8203 91.0176C33.732 90.5937 35.0671 89.9577 35.523 89.7457C35.9788 89.5337 36.7929 89.8598 35.9626 91.2459C36.337 90.6589 36.6626 90.0066 36.9231 89.338C37.3465 88.2292 37.5581 87.1855 37.5418 86.256C37.5093 87.7726 35.8649 88.3596 35.295 88.1802L35.2788 88.1639Z" fill="#D0D2D4"/>
<path d="M29.7917 92.2231C30.0522 91.6524 30.8174 89.9402 31.3547 88.7661C31.6314 88.016 32.0385 87.0702 32.0873 86.6625C32.1687 85.945 31.8431 84.8687 31.143 85.1133C31.3221 85.4395 31.3872 85.9124 31.3547 86.2874C31.3058 86.6951 30.8988 87.6409 30.622 88.391C30.0847 89.5651 29.3195 91.2773 29.059 91.8481C28.9288 92.1416 28.6032 92.533 28.2938 92.7123C28.5706 93.756 29.5312 92.7939 29.808 92.2068L29.7917 92.2231Z" fill="url(#paint22_linear_43_26567)"/>
<path d="M35.2789 88.1624C35.865 88.3418 37.4931 87.7548 37.5257 86.2382L36.7767 85.8795C36.7442 87.1351 35.6208 87.7548 34.9044 87.82C35.0347 87.9831 35.1649 88.1135 35.2789 88.1624Z" fill="#EAECEE"/>
<path d="M31.0619 84.9993C31.5178 84.5264 31.9899 84.1025 32.5109 83.76C32.6249 83.2708 32.9505 82.749 33.6017 82.6022C33.1296 82.6838 32.6249 82.8795 32.1039 83.1893C31.241 83.6785 30.4432 84.4123 29.7594 85.2766C30.3618 84.5591 30.8014 84.6243 31.0619 84.9993Z" fill="#0080FF"/>
<path d="M28.7984 93.9999C28.5542 93.6411 28.3751 93.2171 28.2774 92.7279C27.9518 92.9073 27.6424 92.8747 27.5284 92.304C27.6261 92.8095 27.8052 93.2661 28.0657 93.6248C28.3913 94.0977 28.8309 94.3912 29.3356 94.538C29.1403 94.3912 28.9612 94.2119 28.8146 93.9999H28.7984Z" fill="#0080FF"/>
<path d="M36.011 91.1302L36.1576 90.853C36.6134 89.8257 35.9785 89.5648 35.5552 89.7115C35.604 89.9561 35.5226 90.3312 35.2133 90.853L35.9948 91.1465C35.9948 91.1465 35.9948 91.1302 36.011 91.1139V91.1302Z" fill="#9D9FA1"/>
<path d="M32.6574 91.0657C33.5691 90.6418 35.0181 89.9569 35.4903 89.7286C35.9461 89.5166 36.7602 89.8427 35.9299 91.2288C36.1578 90.8537 36.3695 90.4624 36.5648 90.071C36.5648 89.6633 36.4183 89.2883 35.9624 89.3372C35.0181 89.4513 33.9273 90.2667 32.7225 90.6581C32.1852 90.8374 31.7619 90.9353 31.4363 90.9842C31.5665 91.1147 31.7456 91.1962 31.941 91.2125C32.1526 91.2288 32.3806 91.1799 32.6248 91.082L32.6574 91.0657Z" fill="url(#paint23_linear_43_26567)"/>
<path d="M34.302 87.0057C34.1554 86.8426 33.9763 86.7448 33.7484 86.7285C33.781 86.81 33.7973 86.8915 33.8461 86.9568C34.5462 88.3918 34.8555 88.8157 36.1417 88.4244C36.7604 88.2287 37.2163 87.6579 37.4931 87.185C37.5419 86.8589 37.5582 86.5491 37.5582 86.2556C37.5256 87.7721 35.8812 88.3591 35.3114 88.1798C35.0183 88.0819 34.6602 87.397 34.3345 87.022L34.302 87.0057Z" fill="url(#paint24_linear_43_26567)"/>
<path d="M34.4484 87.2344C34.074 86.4843 33.4553 85.3102 33.2599 84.9189C33.0645 84.5275 33.2599 83.2066 34.3507 82.9783C34.0577 83.0273 33.7483 83.1251 33.439 83.2719C33.1459 83.6632 32.8692 84.185 32.9343 84.7069C33.0808 85.7831 33.7646 86.4028 34.1391 87.528C34.3019 88.0335 34.3996 88.4738 34.4647 88.8325C34.5461 88.539 34.595 88.2618 34.595 87.9846C34.595 87.7073 34.5461 87.4627 34.4484 87.2671V87.2344Z" fill="url(#paint25_linear_43_26567)"/>
<path d="M31.2902 88.9789C31.2902 88.9789 31.2902 88.9789 31.2902 89.0115C31.1762 89.3377 31.1273 89.6638 31.1111 89.9736C31.1599 89.8758 31.225 89.7616 31.2739 89.6312C32.2996 87.4134 32.6089 86.6307 32.2182 85.3914C32.0391 84.8043 31.5669 84.7717 31.2088 84.8696C30.9645 85.1142 30.7366 85.3751 30.5087 85.6686C31.6483 84.2988 32.2019 85.7991 32.0879 86.6959C32.0391 87.1362 31.5507 88.2288 31.2902 88.9952V88.9789Z" fill="url(#paint26_linear_43_26567)"/>
<path d="M31.4525 88.5709C30.9152 89.7287 30.0849 91.604 29.8081 92.2074C29.5314 92.7944 28.5219 93.7891 28.2777 92.6639C28.3428 92.9738 28.4242 93.2673 28.5545 93.5445C28.8638 93.5445 29.2709 93.4141 29.6616 92.8433C30.4594 91.6529 30.8664 90.2179 31.6967 88.7014C32.0549 88.0165 32.3968 87.4784 32.641 87.0707C32.4131 87.2337 32.2015 87.4457 31.9898 87.6903C31.7781 87.9676 31.5991 88.2448 31.4525 88.5546V88.5709Z" fill="url(#paint27_linear_43_26567)"/>
<path d="M32.9663 90.9039C32.9663 90.9039 32.9663 90.9039 32.9826 90.9039C33.2268 90.7408 33.4873 90.5125 33.7153 90.219C33.6339 90.2516 33.5525 90.2842 33.4548 90.3168C31.729 91.0996 31.1103 91.4583 30.2148 93.089C29.7752 93.8717 29.7915 94.4751 29.8892 94.8502C30.0846 94.9317 30.3125 94.9643 30.5242 94.9969C29.4171 94.8502 30.5079 92.7629 31.1917 92.0454C31.5336 91.6866 32.3802 91.2952 32.9663 90.8876V90.9039Z" fill="url(#paint28_linear_43_26567)"/>
<path d="M34.5943 87.9523C34.5943 86.8434 33.8128 86.3868 32.8522 86.9412C31.8916 87.4957 31.1101 88.8491 31.1101 89.958C31.1101 91.0669 31.8916 91.5235 32.8522 90.969C33.8128 90.4146 34.5943 89.0611 34.5943 87.9523Z" fill="url(#paint29_linear_43_26567)"/>
<path d="M34.4325 88.0488C34.4325 87.0378 33.7324 86.6301 32.8532 87.1356C31.974 87.6411 31.2739 88.8641 31.2739 89.8752C31.2739 90.8862 31.974 91.2939 32.8532 90.7884C33.7324 90.2828 34.4325 89.0598 34.4325 88.0488Z" fill="#D0D2D4"/>
<path d="M33.7152 88.4565C33.7152 87.9021 33.3244 87.6738 32.8523 87.951C32.3801 88.2282 31.9894 88.8968 31.9894 89.4513C31.9894 90.0057 32.3801 90.234 32.8523 89.9568C33.3244 89.6796 33.7152 89.011 33.7152 88.4565Z" fill="url(#paint30_linear_43_26567)"/>
<path d="M33.7642 79.9285C29.238 82.5376 25.5911 88.8973 25.5911 94.1155C25.5911 99.3337 29.2543 101.454 33.7642 98.8445C38.2903 96.2354 41.9373 89.8757 41.9373 84.6575C41.9373 79.4393 38.274 77.3194 33.7642 79.9285ZM33.7642 96.268C30.4754 98.1596 27.8216 96.6268 27.8216 92.8273C27.8216 89.0278 30.4754 84.4129 33.7642 82.5213C37.053 80.6297 39.7068 82.1626 39.7068 85.9621C39.7068 89.7616 37.053 94.3764 33.7642 96.268Z" fill="#2E373A"/>
<path d="M33.7639 82.5205C30.4751 84.4121 27.8213 89.027 27.8213 92.8265C27.8213 96.626 30.4751 98.1588 33.7639 96.2672C37.0527 94.3756 39.7065 89.7608 39.7065 85.9613C39.7065 82.1618 37.0527 80.6289 33.7639 82.5205ZM33.7639 95.3541C30.9147 97.0011 28.6028 95.6639 28.6028 92.3699C28.6028 89.0759 30.9147 85.0644 33.7639 83.4174C36.6131 81.7704 38.925 83.1076 38.925 86.4016C38.925 89.6956 36.6131 93.7071 33.7639 95.3541Z" fill="#D0D2D4"/>
<path d="M33.3417 83.1245C30.4925 84.7715 28.1805 88.783 28.1805 92.077C28.1805 95.371 30.4925 96.7082 33.3417 95.0612C36.1908 93.4142 38.5028 89.4027 38.5028 86.1087C38.5028 82.8147 36.1908 81.4775 33.3417 83.1245ZM30.9972 95.1264C28.7667 94.9307 27.9852 92.0607 29.2877 88.7178C30.5739 85.3749 33.4393 82.8473 35.6861 83.043C37.9166 83.2387 38.6981 86.1087 37.3956 89.4516C36.1094 92.7945 33.244 95.3221 30.9972 95.1264Z" fill="#D0D2D4"/>
<path d="M33.7642 79.9285C29.238 82.5376 25.5911 88.8973 25.5911 94.1155C25.5911 99.3337 29.2543 101.454 33.7642 98.8445C38.2903 96.2354 41.9373 89.8757 41.9373 84.6575C41.9373 79.4393 38.274 77.3194 33.7642 79.9285ZM33.7642 98.0455C29.6288 100.443 26.2749 98.5021 26.2749 93.7079C26.2749 88.9136 29.6288 83.1084 33.7642 80.7112C37.8996 78.3141 41.2535 80.2547 41.2535 85.0489C41.2535 89.8431 37.8996 95.6484 33.7642 98.0455Z" fill="#555E61"/>
<path d="M25.5913 94.1155C25.5913 88.8973 29.2545 82.5376 33.7644 79.9285C36.174 78.5424 38.3394 78.4935 39.8372 79.5371C37.4928 77.4498 36.1903 77.0585 34.5133 76.6671C33.0969 76.341 31.078 76.7812 29.1731 77.8738C24.6632 80.4829 21 86.8426 21 92.0608C21 94.3927 21.7652 96.0723 22.9537 97.067C23.7189 97.703 25.8029 99.562 29.1894 99.9697C29.5639 100.019 29.8569 100.002 30.0686 99.9697C27.4148 99.9371 25.5913 97.8009 25.5913 94.1155Z" fill="url(#paint31_linear_43_26567)"/>
<path d="M35.7341 82.8801C33.4384 82.6681 30.4916 85.2935 29.1565 88.718C27.8215 92.1424 28.6192 95.094 30.9149 95.306C33.2105 95.5179 36.1574 92.8925 37.4924 89.4681C38.8275 86.0436 38.0297 83.0921 35.7341 82.8801ZM30.9963 95.1266C28.7658 94.9309 27.9843 92.0609 29.2868 88.718C30.573 85.3751 33.4384 82.8475 35.6852 83.0432C37.9158 83.2388 38.6972 86.1089 37.3948 89.4518C36.1085 92.7947 33.2431 95.3223 30.9963 95.1266Z" fill="url(#paint32_linear_43_26567)"/>
<path d="M35.5061 82.423C37.2645 82.3578 38.5018 83.7113 38.5018 86.1084C38.5018 89.4024 36.1899 93.4139 33.3407 95.0609C31.1102 96.3491 29.2216 95.811 28.5052 93.952C29.0914 96.3491 31.2242 97.1482 33.7803 95.6642C36.776 93.9194 39.2182 89.6959 39.2182 86.2225C39.2182 83.4503 37.6715 81.999 35.5224 82.4067L35.5061 82.423Z" fill="url(#paint33_linear_43_26567)"/>
<path d="M37.5418 88.1462C37.5418 86.1731 36.1579 85.3577 34.4484 86.3524C32.7389 87.3472 31.355 89.7443 31.355 91.7337C31.355 93.7232 32.7389 94.5222 34.4484 93.5275C36.1579 92.5328 37.5418 90.1356 37.5418 88.1625V88.1462Z" fill="url(#paint34_linear_43_26567)"/>
<path d="M37.2489 88.3093C37.2489 86.5156 35.9952 85.7817 34.4322 86.6786C32.8855 87.5755 31.6156 89.7606 31.6156 91.5544C31.6156 93.3481 32.8692 94.082 34.4322 93.1851C35.9789 92.2882 37.2489 90.1031 37.2489 88.3093Z" fill="#D0D2D4"/>
<path d="M36.3533 88.8314C36.3533 87.6084 35.4904 87.1029 34.4322 87.7226C33.3739 88.3422 32.511 89.8262 32.511 91.0492C32.511 92.2722 33.3739 92.7614 34.4322 92.158C35.4904 91.5384 36.3533 90.0545 36.3533 88.8314Z" fill="url(#paint35_linear_43_26567)"/>
<path d="M36.174 88.93C36.174 87.8212 35.3925 87.3646 34.4319 87.919C33.4713 88.4734 32.6898 89.8269 32.6898 90.9358C32.6898 92.0447 33.4713 92.5013 34.4319 91.9468C35.3925 91.3924 36.174 90.0389 36.174 88.93Z" fill="#D0D2D4"/>
<path d="M81.0285 65.5787C81.2239 69.1663 75.2813 71.7754 72.6275 73.1614C69.9736 74.5475 59.0002 80.6463 54.8811 82.1629C50.7782 83.6957 48.2709 76.4391 48.2709 76.4391L43.7936 75.8358L41.7748 80.206C41.7748 80.206 45.2101 82.6195 46.4637 83.1087C47.7174 83.6142 49.8176 84.0545 52.3249 84.0055C54.8485 83.9566 58.235 82.6847 60.2376 81.7552C62.2238 80.8257 71.325 75.8521 73.1322 75.053C74.9557 74.2703 78.2444 72.3461 79.8888 69.6065C81.5332 66.867 80.996 65.5787 80.996 65.5787H81.0285Z" fill="#AEBFC8"/>
<g style="mix-blend-mode:multiply" opacity="0.2">
<path d="M73.1644 75.0519C74.8576 74.3181 77.8208 72.6222 79.5466 70.1761C76.5346 73.0462 69.4686 76.3402 65.8216 78.2481C61.6374 80.4495 56.4763 83.2054 53.855 83.5152C51.2338 83.825 45.4051 78.6557 45.4051 78.6557L45.2749 77.5632L43.0607 77.449L41.807 80.1723C41.807 80.1723 45.2423 82.5857 46.496 83.0749C47.7496 83.5804 49.8499 84.0207 52.3572 83.9718C54.8807 83.9229 58.2672 82.6509 60.2698 81.7214C62.2561 80.7919 71.3572 75.8183 73.1644 75.0193V75.0519Z" fill="black"/>
</g>
<path style="mix-blend-mode:multiply" opacity="0.4" d="M73.1644 75.0519C74.8576 74.3181 77.8208 72.6222 79.5466 70.1761C76.5346 73.0462 69.4686 76.3402 65.8216 78.2481C61.6374 80.4495 56.4763 83.2054 53.855 83.5152C51.2338 83.825 45.4051 78.6557 45.4051 78.6557L45.2749 77.5632L43.0607 77.449L41.807 80.1723C41.807 80.1723 45.2423 82.5857 46.496 83.0749C47.7496 83.5804 49.8499 84.0207 52.3572 83.9718C54.8807 83.9229 58.2672 82.6509 60.2698 81.7214C62.2561 80.7919 71.3572 75.8183 73.1644 75.0193V75.0519Z" fill="url(#paint36_linear_43_26567)"/>
<path d="M52.8783 48.244L50.5013 49.4507C50.5013 49.4507 54.0505 53.2828 54.3599 53.7557C54.6529 54.2449 41.7095 47.5265 41.7095 47.5265L43.6469 46.8416L46.3007 45.6675L52.8946 48.244H52.8783Z" fill="url(#paint37_linear_43_26567)"/>
<path d="M75.2487 53.8696C75.2487 53.8696 63.6402 55.6634 61.9796 55.7775C60.3189 55.8917 56.9487 54.4077 55.7602 53.5109C54.5717 52.614 55.4346 47.4936 56.3789 45.7977C57.3069 44.1018 64.1124 36.4375 65.2683 35.4917C66.4243 34.5622 77.0233 28.6917 79.612 28.0721C82.2007 27.4524 83.7148 28.121 84.9848 28.6265C86.271 29.1483 91.8391 32.3445 89.8528 37.8562C87.8828 43.368 75.2487 53.8533 75.2487 53.8533V53.8696Z" fill="url(#paint38_linear_43_26567)"/>
<path d="M68.622 49.1889C74.8414 48.2105 79.5141 46.2373 79.5141 46.2373C79.5141 46.2373 80.0514 41.9812 74.8414 38.8829C70.9177 36.551 68.329 35.6542 65.4961 35.3117C65.3821 35.3769 65.3007 35.4422 65.2356 35.4911C64.0796 36.4206 57.2904 44.1011 56.3461 45.7971C56.1507 46.1558 55.9391 46.6939 55.7762 47.2973C58.3161 49.0421 64.0145 49.9064 68.622 49.1889Z" fill="url(#paint39_linear_43_26567)"/>
<path d="M89.8532 37.8732C91.8395 32.3615 86.2551 29.149 84.9852 28.6435C84.3176 28.3663 83.585 28.0565 82.6733 27.926C84.5944 28.5457 86.4016 29.5567 87.1994 31.2526C89.2834 35.7207 85.5387 39.7159 83.4873 41.95C81.4359 44.184 80.2799 45.4886 79.1403 46.7768C77.9843 48.0814 74.321 51.8156 71.9766 52.7941C69.7135 53.7399 60.5147 55.9576 55.207 51.9624C55.2722 52.6962 55.435 53.267 55.7606 53.5279C56.9491 54.4248 60.3356 55.9087 61.98 55.7945C63.6406 55.6804 75.2491 53.8866 75.2491 53.8866C75.2491 53.8866 87.8669 43.4013 89.8532 37.8895V37.8732Z" fill="url(#paint40_linear_43_26567)"/>
<path d="M90.2432 45.8143C90.2432 45.8143 92.2946 42.4714 94.1181 43.8575C95.9416 45.2599 99.0024 46.6949 99.5234 46.1567C100.044 45.6186 99.5071 45.2599 98.5791 44.575C97.6511 43.9064 95.4531 42.6834 95.4531 42.6834L93.0272 39.0632L90.2594 45.8143H90.2432Z" fill="#333E40"/>
<path d="M93.467 41.835C93.467 42.5525 93.1251 43.1232 92.718 43.1232C92.311 43.1232 91.9691 42.5525 91.9691 41.835C91.9691 41.1175 92.311 40.5468 92.718 40.5468C93.1251 40.5468 93.467 41.1338 93.467 41.835Z" fill="#D77728"/>
<path d="M68.9154 62.2352C68.9154 62.2352 74.5161 54.2448 75.4279 53.0707C76.3396 51.8966 86.8409 42.6017 88.8598 37.3672C90.8786 32.1327 86.2874 29.3768 84.9849 28.6267C84.9849 28.6267 89.9506 27.1101 93.2719 29.8497C96.6096 32.5893 93.3371 39.8295 93.2719 40.0252C93.2068 40.2209 87.2479 53.299 87.2479 53.299C87.2479 53.299 85.0663 56.4952 82.0705 58.2074C79.0748 59.9196 68.4758 65.3988 68.4758 65.3988L68.9154 62.2352Z" fill="#E1E8EC"/>
<path d="M62.5168 44.8855C62.4029 44.2821 58.6419 41.4936 56.6068 40.3358C54.5879 39.1781 51.3317 37.1886 48.1243 35.5742C44.917 33.9761 44.1029 34.5143 44.1029 34.5143L57.4697 48.2284L60.1072 47.837C60.1072 47.837 60.5143 47.9023 61.5237 47.5109C62.5168 47.1195 62.6145 45.4725 62.5005 44.8692L62.5168 44.8855Z" fill="#333E40"/>
<path d="M57.4861 48.244L60.1236 47.8526C60.1236 47.8526 60.5307 47.9179 61.5401 47.5265C62.5332 47.1351 62.6309 45.4881 62.517 44.8848C62.517 44.8358 62.4681 44.7706 62.4193 44.6891C61.9471 44.4771 61.1982 44.2325 60.4493 44.2162C59.1793 44.2162 57.0465 46.7111 57.0139 46.8905C56.9977 46.9557 56.9 47.2004 56.786 47.4939L57.5024 48.2277L57.4861 48.244Z" fill="#1A2527"/>
<path d="M56.5097 42.439C56.5097 42.439 58.5285 42.1618 57.6168 41.5421C56.705 40.9224 51.9835 38.2481 51.9835 38.2481L52.1789 40.6778L56.5259 42.439H56.5097Z" fill="url(#paint41_linear_43_26567)"/>
<path d="M37.9649 35.1332L37.916 35.5735C40.0163 36.1443 41.156 37.8076 41.156 37.8076L42.0351 37.0901C40.3582 35.7692 37.9649 35.1332 37.9649 35.1332Z" fill="#333E40"/>
<path d="M45.112 35.2314L40.9277 32.8995C40.8137 32.8016 40.6347 32.8016 40.4393 32.9158C40.0974 33.1115 39.8043 33.6007 39.8043 34.0083C39.8043 34.204 39.8694 34.3508 39.9834 34.416L44.1839 36.7642C44.2979 36.8457 44.4607 36.8457 44.6561 36.7316C44.998 36.5359 45.2911 36.0467 45.2911 35.639C45.2911 35.4433 45.2259 35.2966 45.112 35.2314Z" fill="url(#paint42_linear_43_26567)"/>
<path d="M60.5305 44.2333V44.8856C60.5305 44.8856 58.0069 47.3969 58.0069 47.7882C58.0069 47.7882 59.2443 47.7882 60.1723 47.511V47.7882C60.1723 47.7882 58.8698 48.4568 57.4371 48.5547C56.0043 48.6525 47.3102 48.5873 44.6076 46.9729C40.928 44.7715 40.4722 38.4444 40.4722 38.4444C40.4722 38.4444 41.9537 35.4928 44.1191 34.4981L46.4148 35.9657L55.0275 41.2329L60.5305 44.2007V44.2333Z" fill="#E1E8EC"/>
<path style="mix-blend-mode:multiply" opacity="0.2" d="M57.1115 48.5706C57.2743 47.266 60.0095 44.6406 60.4654 44.2003L60.5305 44.2329L55.0275 41.2651L46.4148 35.998L44.1191 34.5303C41.9537 35.5251 40.4722 38.4766 40.4722 38.4766C40.4722 38.4766 40.928 44.8037 44.6076 47.0051C47.1474 48.5217 54.9786 48.6521 57.0952 48.5869L57.1115 48.5706Z" fill="url(#paint43_linear_43_26567)"/>
<g style="mix-blend-mode:multiply" opacity="0.2">
<path d="M60.465 44.2001C59.9928 44.6404 57.2576 47.2658 57.1111 48.5703C57.2413 48.5703 57.3553 48.5703 57.453 48.5703C58.8857 48.4888 60.1882 47.8039 60.1882 47.8039V47.5267C59.2602 47.8039 58.0228 47.8039 58.0228 47.8039C58.0228 47.3962 60.5464 44.9013 60.5464 44.9013V44.249L60.4813 44.2164L60.465 44.2001Z" fill="black"/>
</g>
<path d="M58.349 44.7702C58.1048 45.4224 57.1442 45.6671 56.1836 45.3083C55.223 44.9495 54.6369 44.1342 54.8811 43.4819C55.1253 42.8296 56.0859 42.585 57.0465 42.9438C58.0071 43.3025 58.5932 44.1179 58.349 44.7702Z" fill="#4D585A"/>
<path d="M44.2815 37.1057C43.6791 37.6275 42.8813 37.7091 42.5069 37.2688C42.1161 36.8285 42.2952 36.0458 42.8813 35.5076C43.4837 34.9858 44.2815 34.9043 44.6723 35.3446C45.063 35.7849 44.8839 36.5676 44.2815 37.1057Z" fill="#4D585A"/>
<path d="M44.0702 36.8453C43.6632 37.2041 43.1259 37.253 42.8654 36.9595C42.6049 36.6659 42.7188 36.1278 43.1259 35.7691C43.5329 35.4103 44.0702 35.3614 44.3307 35.6549C44.5912 35.9484 44.4772 36.4866 44.0702 36.8453Z" fill="#333E40"/>
<path d="M57.5835 44.4942C57.4532 44.8529 56.8997 44.9997 56.3624 44.804C55.8251 44.6083 55.4995 44.1517 55.6297 43.7767C55.76 43.4179 56.3135 43.2711 56.8508 43.4668C57.3881 43.6625 57.7137 44.1191 57.5835 44.4942Z" fill="#333E40"/>
<path d="M60.7094 39.1451C60.7094 39.1451 59.5535 39.8789 59.1953 40.2703C58.8371 40.6616 55.7762 43.5806 55.7762 43.5806L57.616 44.559C57.616 44.559 57.73 43.6947 58.0068 43.124C58.2998 42.5532 60.4164 40.3029 60.9374 40.3029L61.7188 39.7484L60.6931 39.1451H60.7094Z" fill="#333E40"/>
<path d="M40.6349 26.2303L39.9022 27.4859L40.814 28.7252C40.814 28.7252 41.8885 31.8236 42.149 32.9487C42.4095 34.0576 42.7189 36.5363 42.7189 36.5363L44.4609 35.9166C44.4609 35.9166 43.7771 34.9382 43.5003 34.0087C43.2398 33.0792 41.8397 28.4969 41.8397 28.4969L41.742 27.0782L40.6349 26.2303Z" fill="#333E40"/>
<path d="M51.2668 36.6011C48.2711 34.7421 46.4151 35.9977 46.4151 35.9977C46.4151 35.9977 42.2308 44.4936 44.9009 46.4994C47.5548 48.5051 55.0441 41.2812 55.0441 41.2812C55.0441 41.2812 54.4579 38.5905 51.2831 36.6174L51.2668 36.6011Z" fill="url(#paint44_linear_43_26567)"/>
<path d="M60.71 39.2106C60.71 39.2106 63.201 36.8461 64.7802 36.6341C66.3595 36.4221 69.5018 36.9276 69.4692 39.2106C69.4366 41.4773 66.5874 41.0533 65.0082 41.0533C63.4289 41.0533 60.9379 40.2869 60.9379 40.2869C60.9379 40.2869 60.71 39.814 60.71 39.2106Z" fill="url(#paint45_linear_43_26567)"/>
<path d="M39.4298 20.0167C39.2182 19.9188 38.0948 22.6421 38.1436 23.6531C38.1925 24.6641 39.1693 26.5394 39.902 27.4852C39.902 27.4852 40.8463 26.8167 41.7906 27.0939C41.7906 27.0939 42.5395 26.2948 42.5558 26.0502C42.5558 25.8219 41.9209 21.1092 39.4298 20.0004V20.0167Z" fill="url(#paint46_linear_43_26567)"/>
<path d="M62.0933 45.5209C62.0933 46.1732 61.6374 46.9722 61.0676 47.2984C60.4977 47.6245 60.0419 47.3636 60.0419 46.7113C60.0419 46.059 60.4977 45.2763 61.0676 44.9339C61.6374 44.6077 62.0933 44.8686 62.0933 45.5209Z" fill="url(#paint47_linear_43_26567)"/>
<path d="M62.3047 45.6176C62.3047 46.2699 61.8488 47.0689 61.279 47.395C60.7092 47.7212 60.2533 47.4603 60.2533 46.808C60.2533 46.1557 60.7092 45.3567 61.279 45.0305C61.8488 44.7044 62.3047 44.9653 62.3047 45.6176Z" fill="#333E40"/>
<path d="M65.9524 47.8037L61.7682 45.4719C61.6542 45.374 61.4751 45.374 61.2797 45.4882C60.9378 45.6838 60.6448 46.1894 60.6448 46.5807C60.6448 46.7764 60.7099 46.9232 60.8239 46.9884L65.0244 49.3366C65.1384 49.4181 65.3012 49.4181 65.4965 49.304C65.8384 49.1083 66.1315 48.6028 66.1315 48.2114C66.1315 48.0157 66.0664 47.869 65.9524 47.8037Z" fill="url(#paint48_linear_43_26567)"/>
<path d="M66.1311 48.2105C66.1311 48.6181 65.8544 49.1073 65.4962 49.303C65.1543 49.4987 64.8612 49.3356 64.8612 48.9443C64.8612 48.5529 65.138 48.0474 65.4962 47.8517C65.8381 47.656 66.1311 47.8191 66.1311 48.2105Z" fill="#333E40"/>
<path d="M58.4949 47.0707L58.0065 47.8046C58.0065 47.8046 61.1487 48.6199 62.614 50.4626L62.9722 50.0386C62.9722 50.0386 60.8068 47.6578 58.4786 47.0707H58.4949Z" fill="#333E40"/>
<path d="M63.3959 50.3795C63.3959 50.6404 63.1843 50.8687 62.9075 50.8687C62.6307 50.8687 62.4191 50.6567 62.4191 50.3795C62.4191 50.1023 62.6307 49.8903 62.9075 49.8903C63.1843 49.8903 63.3959 50.1023 63.3959 50.3795Z" fill="url(#paint49_radial_43_26567)"/>
<path d="M38.3068 35.2962C38.3068 35.5571 38.0952 35.7854 37.8184 35.7854C37.5416 35.7854 37.33 35.5734 37.33 35.2962C37.33 35.019 37.5416 34.807 37.8184 34.807C38.0952 34.807 38.3068 35.019 38.3068 35.2962Z" fill="url(#paint50_radial_43_26567)"/>
<path style="mix-blend-mode:multiply" opacity="0.1" d="M87.2479 53.2989C87.2479 53.2989 89.0226 49.3852 90.6507 45.814C88.1434 48.9286 84.0568 53.7555 79.2865 57.3919C76.5024 59.5118 68.4758 65.3986 68.4758 65.3986C68.4758 65.3986 79.0911 59.9195 82.0705 58.2073C85.0663 56.4951 87.2479 53.2989 87.2479 53.2989Z" fill="url(#paint51_linear_43_26567)"/>
<path style="mix-blend-mode:multiply" opacity="0.2" d="M83.9423 44.3464C80.2953 48.4394 75.9808 52.3368 75.4272 53.0706C74.5155 54.2447 68.9148 62.2351 68.9148 62.2351C68.9148 62.2351 80.5721 53.5924 85.5866 48.5699C86.3681 47.7871 87.0845 47.0207 87.7683 46.2706L83.9423 44.3464Z" fill="url(#paint52_linear_43_26567)"/>
<g style="mix-blend-mode:multiply" opacity="0.1">
<path d="M85.5873 48.5699C80.5564 53.6087 68.9154 62.2351 68.9154 62.2351L68.4758 65.3986C68.4758 65.3986 76.5024 59.5118 79.2865 57.3919C84.0568 53.7555 88.1434 48.9286 90.6507 45.814C92.002 42.8462 93.2394 40.1066 93.2719 40.0251C93.3045 39.9272 94.0697 38.215 94.493 36.1603C92.6695 40.1881 90.0157 44.1344 85.5873 48.5699Z" fill="black"/>
</g>
<path d="M54.1805 53.4464C53.4315 52.7289 48.8891 50.3807 48.8891 50.3807C48.8891 50.3807 44.1025 49.0272 43.6303 46.8421L42.4581 46.1083C42.4581 46.1083 40.602 44.8363 38.9251 46.6138C37.2319 48.4075 29.2215 60.3605 29.1239 60.3605C29.0262 60.3605 27.6748 66.2962 31.2892 69.8185C29.9705 70.7806 23.8976 75.5585 23.3604 81.3964C23.3604 81.3964 24.5 83.4185 27.4469 83.3206C30.3938 83.2228 31.6149 82.065 32.5103 81.4779C33.4221 80.8909 36.0596 79.7005 36.369 80.9235C36.6783 82.1465 38.9576 82.6357 40.4392 81.9998C41.6929 81.4779 44.0211 78.7873 44.7212 77.9557C45.1119 78.4286 45.2422 78.7058 45.2422 78.7058C45.2422 78.7058 47.6355 78.5916 51.0871 74.7269L49.8823 67.6986L53.7409 57.1643C53.7409 57.1643 54.8806 54.1802 54.1316 53.4627L54.1805 53.4464Z" fill="#E1E8EC"/>
<g style="mix-blend-mode:multiply" opacity="0.2">
<path d="M42.2959 74.4821C42.2959 74.4821 42.2959 74.4821 42.2796 74.4658C42.2145 74.4658 42.1331 74.4658 42.068 74.4658C42.1494 74.4658 42.2308 74.4658 42.3122 74.4821H42.2959Z" fill="black"/>
</g>
<g style="mix-blend-mode:multiply" opacity="0.2">
<path d="M40.6023 74.5625C34.0736 75.4594 28.8473 81.8354 27.7891 83.2867C30.508 83.1073 31.664 82.0311 32.5269 81.4603C33.4386 80.8733 36.0761 79.6829 36.3855 80.9059C36.6948 82.1289 38.9742 82.6181 40.4558 81.9821C41.7094 81.4603 44.0376 78.7697 44.7377 77.938C44.119 77.1879 42.8816 75.9649 40.5697 74.5625H40.6023Z" fill="black"/>
</g>
<path d="M37.9647 90.0547L37.8996 89.8101C38.9905 89.5329 39.6905 89.1089 39.6905 88.7176C39.6905 88.5219 39.4626 88.0001 37.46 87.5435C35.4249 87.0869 34.448 84.5919 34.5783 80.1401C34.5783 80.0097 34.5783 79.8629 34.5783 79.8466H34.6597L34.8062 79.7651C34.8225 79.814 34.8225 79.8466 34.8062 80.1564C34.6434 85.5214 36.1738 87.0053 37.4926 87.2989C39.1044 87.6576 39.9185 88.1305 39.9185 88.7176C39.9185 89.2557 39.2021 89.7449 37.9485 90.0547H37.9647Z" fill="black"/>
<g style="mix-blend-mode:multiply" opacity="0.2">
<path d="M47.4572 74.465C48.7434 74.0736 49.9644 72.6549 50.6157 71.7744L49.9156 67.6813C49.9156 67.6813 45.829 70.0132 40.1469 70.796C35.9464 71.383 31.3389 69.8502 31.3389 69.8502L31.9901 70.7307C31.9901 70.7307 36.4349 72.1331 40.2446 74.3509C42.4751 74.4487 46.0733 74.889 47.4734 74.465H47.4572Z" fill="black"/>
</g>
<path d="M37.0208 62.7898C35.8648 62.7898 34.9042 62.7246 34.8879 62.7083H34.8391L34.8065 62.6594C33.6343 60.621 34.253 58.8436 34.2855 58.762C34.8228 57.7999 38.079 52.5654 38.1116 52.5165L38.307 52.598C38.307 52.598 38.2581 53.3155 40.3584 54.6038C42.5726 55.9572 44.9659 56.9846 44.9822 57.0009L45.1287 57.0661L40.1793 62.5289H40.1467C39.3978 62.7246 38.3558 62.8061 37.0208 62.8061V62.7898Z" fill="#414E52"/>
<path d="M34.904 62.5948C34.904 62.5948 38.2416 62.8557 40.1302 62.3991L44.9657 57.0667C44.9657 57.0667 42.5724 56.0231 40.3256 54.6696C38.0951 53.2999 38.2253 52.566 38.2253 52.566C38.2253 52.566 34.9528 57.8332 34.3993 58.8116C34.3993 58.8116 33.748 60.6053 34.9203 62.6111L34.904 62.5948Z" fill="url(#paint53_linear_43_26567)"/>
<path style="mix-blend-mode:multiply" opacity="0.2" d="M47.4568 74.4643C46.0729 74.8883 42.4748 74.448 40.228 74.3502C40.3094 74.3991 40.3908 74.448 40.4885 74.4969C44.3471 76.7962 45.2914 78.6878 45.2914 78.6878C45.2914 78.6878 47.6848 78.5737 51.1364 74.7089L50.6317 71.7737C49.9804 72.6543 48.7593 74.073 47.4731 74.4643H47.4568Z" fill="url(#paint54_linear_43_26567)"/>
<path d="M53.8396 56.9847C53.2534 57.3434 52.3091 58.1099 51.5439 59.6264C50.3066 62.0235 47.5551 68.9213 47.5551 68.9213C47.5551 68.9213 47.1969 74.6614 50.9904 74.8571C51.0392 74.8081 51.0718 74.7592 51.1206 74.7103L49.9158 67.682L53.7744 57.1477C53.7744 57.1477 53.7907 57.0825 53.8396 56.9847Z" fill="url(#paint55_linear_43_26567)"/>
<path d="M49.9319 67.6652L47.5712 68.9045C47.5712 68.9045 47.213 74.6446 51.0065 74.8403C51.0553 74.7913 51.0879 74.7424 51.1367 74.6935L49.9319 67.6652Z" fill="url(#paint56_linear_43_26567)"/>
<path d="M43.5009 57.506C43.5009 58.1909 43.0125 58.7616 42.4264 58.7616C41.8402 58.7616 41.3518 58.2072 41.3518 57.506C41.3518 56.8048 41.8402 56.2504 42.4264 56.2504C43.0125 56.2504 43.5009 56.8048 43.5009 57.506Z" fill="url(#paint57_linear_43_26567)"/>
<path d="M43.1261 57.5062C43.1261 57.9628 42.8005 58.3216 42.4097 58.3216C42.019 58.3216 41.6934 57.9465 41.6934 57.5062C41.6934 57.0659 42.019 56.6746 42.4097 56.6746C42.8005 56.6746 43.1261 57.0496 43.1261 57.5062Z" fill="white"/>
<path d="M39.3978 55.0112C39.3978 55.6961 38.9093 56.2668 38.3232 56.2668C37.7371 56.2668 37.2487 55.7124 37.2487 55.0112C37.2487 54.31 37.7371 53.7556 38.3232 53.7556C38.9093 53.7556 39.3978 54.31 39.3978 55.0112Z" fill="url(#paint58_linear_43_26567)"/>
<path d="M39.0229 55.0116C39.0229 55.4682 38.6973 55.827 38.3066 55.827C37.9158 55.827 37.5902 55.4519 37.5902 55.0116C37.5902 54.5714 37.9158 54.18 38.3066 54.18C38.6973 54.18 39.0229 54.555 39.0229 55.0116Z" fill="white"/>
<path d="M40.4722 59.2196C40.4722 60.9155 39.2836 62.3016 37.8021 62.3016C36.3205 62.3016 35.132 60.9155 35.132 59.2196C35.132 57.5237 36.3205 56.1376 37.8021 56.1376C39.2836 56.1376 40.4722 57.5237 40.4722 59.2196Z" fill="url(#paint59_linear_43_26567)"/>
<path d="M39.5602 59.2192C39.5602 60.3443 38.7787 61.2575 37.8018 61.2575C36.8249 61.2575 36.0435 60.3443 36.0435 59.2192C36.0435 58.094 36.8249 57.1808 37.8018 57.1808C38.7787 57.1808 39.5602 58.094 39.5602 59.2192Z" fill="white"/>
<path style="mix-blend-mode:screen" opacity="0.7" d="M34.904 62.5948C34.904 62.5948 38.2416 62.8557 40.1302 62.3991L44.9657 57.0667C44.9657 57.0667 42.5724 56.0231 40.3256 54.6696C38.0951 53.2999 38.2253 52.566 38.2253 52.566C38.2253 52.566 34.9528 57.8332 34.3993 58.8116C34.3993 58.8116 33.748 60.6053 34.9203 62.6111L34.904 62.5948Z" fill="url(#paint60_linear_43_26567)"/>
<path style="mix-blend-mode:screen" opacity="0.7" d="M38.209 52.566C38.209 52.566 35.8808 56.3003 34.8225 58.0615C36.5971 58.1756 39.8045 58.4691 42.9793 59.2519L44.9494 57.0831C44.9494 57.0831 42.556 56.0394 40.3092 54.6859C38.0787 53.3162 38.209 52.5823 38.209 52.5823V52.566Z" fill="url(#paint61_linear_43_26567)"/>
<path style="mix-blend-mode:multiply" opacity="0.2" d="M45.5848 48.9783C44.6405 48.4075 43.8102 47.69 43.6311 46.8421L42.4588 46.1083C42.4588 46.1083 40.6028 44.8363 38.9258 46.6138C37.2326 48.4075 29.2223 60.3605 29.1246 60.3605C29.0269 60.3605 27.6593 66.3451 31.3226 69.8511C31.3226 69.8511 33.4879 64.9427 34.8881 62.6109C36.1418 60.5073 42.8496 51.832 45.5685 48.9783H45.5848Z" fill="url(#paint62_linear_43_26567)"/>
<path d="M29.8407 63.3605C29.743 61.4852 29.9547 59.7566 30.0686 59.0228C29.4988 59.8382 29.1406 60.36 29.1243 60.36C29.0592 60.36 28.5219 62.6267 28.9778 65.1705L29.8407 63.3442V63.3605Z" fill="#D77728"/>
<path d="M40.6355 69.1993L40.1145 70.781C43.273 70.5201 45.8454 69.6559 47.555 68.9057C47.555 68.9057 47.848 68.1882 48.2713 67.1446C45.4221 68.2698 42.8497 68.8894 40.6355 69.1993Z" fill="#D77728"/>
<path d="M36.5159 90.5757L34.6761 89.5973C34.6761 89.5973 34.5133 89.5647 34.4156 89.6299C34.2039 89.7441 34.0411 90.0376 34.0411 90.2822C34.0411 90.4127 34.09 90.4942 34.1551 90.5268L35.9949 91.5052C35.9949 91.5052 36.1577 91.5379 36.2554 91.4726C36.467 91.3585 36.6298 91.0649 36.6298 90.8203C36.6298 90.6899 36.581 90.6084 36.5159 90.5757Z" fill="url(#paint63_linear_43_26567)"/>
<path d="M36.9069 92.9406C36.858 93.0873 36.4184 93.0547 35.9463 92.8917C35.4579 92.7123 35.116 92.4677 35.1648 92.3209L35.7184 90.4782V90.0053L38.9583 81.2811V80.5962L39.8049 78.248L42.2796 79.1449L41.4656 81.4442L40.9772 82.0312L37.7861 90.6413L37.493 91.1957L36.9069 92.9243V92.9406Z" fill="url(#paint64_linear_43_26567)"/>
<path d="M42.3281 79.1459C42.263 79.3579 41.628 79.309 40.9442 79.0644C40.2604 78.8198 39.7557 78.4447 39.8208 78.249C39.9022 78.037 40.5209 78.086 41.2047 78.3306C41.9048 78.5752 42.3933 78.9502 42.3281 79.1459Z" fill="#DEE5E9"/>
<g style="mix-blend-mode:multiply" opacity="0.2">
<path d="M42.0523 79.8482L41.9871 80.0112C41.9871 80.0112 41.8243 80.0439 41.7266 80.0439C41.6941 80.0439 41.6615 80.0439 41.629 80.0439C41.3359 80.0439 40.9777 79.946 40.6033 79.8156C40.2288 79.6851 39.9032 79.522 39.6589 79.3427C39.5938 79.2937 39.5287 79.2448 39.4799 79.1796L39.5287 79.0491C39.5287 79.0491 39.6427 79.1633 39.7404 79.2448C39.9683 79.4079 40.2939 79.571 40.6521 79.7014C41.0103 79.8319 41.3522 79.9134 41.6452 79.9297C41.8732 79.9297 42.0034 79.9134 42.0523 79.8645V79.8482Z" fill="black"/>
</g>
<g style="mix-blend-mode:multiply" opacity="0.2">
<path d="M41.7422 80.6783L41.6933 80.825C41.6933 80.825 41.5468 80.8577 41.4654 80.8577C41.4328 80.8577 41.4003 80.8577 41.3677 80.8577C41.0746 80.8413 40.7165 80.7598 40.342 80.6293C39.9675 80.4989 39.6419 80.3358 39.3977 80.1565C39.3163 80.0912 39.2512 80.026 39.186 79.9771L39.2349 79.8466C39.2349 79.8466 39.3488 79.9771 39.4628 80.0586C39.6907 80.2217 40.0001 80.3847 40.3746 80.5152C40.7327 80.6457 41.0909 80.7272 41.3677 80.7435C41.5631 80.7435 41.677 80.7435 41.7422 80.6946V80.6783Z" fill="black"/>
</g>
<g style="mix-blend-mode:multiply" opacity="0.2">
<path d="M38.1121 89.8092L38.0633 89.9397C38.0633 89.9397 38.047 89.9397 38.0307 89.9397C37.9981 89.9397 37.9656 89.9397 37.933 89.9397C37.6562 89.9397 37.3143 89.8419 36.9724 89.7277C36.6305 89.5972 36.3212 89.4505 36.0932 89.2874C36.0607 89.2711 36.0281 89.2385 36.0118 89.2222L36.0607 89.0917C36.0607 89.0917 36.1258 89.157 36.1747 89.1733C36.3863 89.32 36.6794 89.4831 37.0213 89.5972C37.3632 89.7114 37.6888 89.7929 37.9493 89.8092C38.0144 89.8092 38.0633 89.8092 38.1121 89.8092Z" fill="black"/>
</g>
<g style="mix-blend-mode:multiply" opacity="0.2">
<path d="M38.356 89.1243L38.3072 89.2547C38.3072 89.2547 38.2746 89.2547 38.2583 89.2547C38.2258 89.2547 38.1932 89.2547 38.1606 89.2547C37.8838 89.2547 37.5419 89.1569 37.2 89.0428C36.8581 88.9123 36.5488 88.7655 36.3209 88.6025C36.2883 88.5862 36.272 88.5699 36.2557 88.5535L36.3046 88.4231C36.3046 88.4231 36.3697 88.472 36.4023 88.5046C36.6139 88.6514 36.907 88.8145 37.2489 88.9286C37.5908 89.0428 37.9164 89.1243 38.1769 89.1406C38.242 89.1406 38.3072 89.1406 38.356 89.1406V89.1243Z" fill="black"/>
</g>
<g style="mix-blend-mode:multiply" opacity="0.2">
<path d="M38.9585 81.3136C39.4632 81.6235 40.8308 81.9985 40.8308 81.9985L40.9936 82.0474L41.4658 81.493C40.3424 81.3625 38.9911 80.6124 38.9911 80.6124V81.2973L38.9585 81.3136Z" fill="black"/>
</g>
<g style="mix-blend-mode:multiply" opacity="0.2">
<path d="M35.718 90.0071V90.5289C35.718 90.5289 35.9785 91.0018 37.4927 91.2138L37.7043 90.8224C37.281 90.7898 36.3204 90.6594 35.718 90.0071Z" fill="black"/>
</g>
<path d="M37.6072 91.4567L37.2327 91.2447C37.2327 91.2447 37.135 91.2284 37.0699 91.261C36.9397 91.3425 36.8257 91.5219 36.8257 91.6687C36.8257 91.7502 36.8582 91.7991 36.8908 91.8154L37.2653 92.0274C37.2653 92.0274 37.363 92.0437 37.4281 92.0111C37.5583 91.9296 37.656 91.7502 37.656 91.6034C37.656 91.5219 37.6235 91.473 37.5909 91.4567H37.6072Z" fill="url(#paint65_linear_43_26567)"/>
<path d="M37.6714 91.604C37.6714 91.7508 37.5738 91.9301 37.4435 92.0117C37.3784 92.0443 37.3133 92.0606 37.2807 92.028C37.2319 91.9954 37.2156 91.9464 37.2156 91.8812C37.2156 91.7344 37.3133 91.5551 37.4435 91.4735C37.5086 91.4409 37.5738 91.4246 37.6063 91.4572C37.6552 91.4735 37.6714 91.5388 37.6714 91.604Z" fill="#B8BFC3"/>
<g style="mix-blend-mode:multiply" opacity="0.2">
<path d="M51.039 74.1881C50.3715 75.0361 49.1341 76.3733 47.7503 76.6668C46.7571 76.8788 45.3569 76.6994 44.1033 76.4059L43.1427 76.3406C43.1427 76.3406 44.3312 77.3354 44.7545 77.9224C45.1453 78.3953 45.2755 78.6725 45.2755 78.6725C45.2755 78.6725 47.6688 78.5584 51.1204 74.6936L51.039 74.1718V74.1881Z" fill="black"/>
</g>
<path d="M41.4655 75.1022L40.2607 78.3636C40.2607 78.3636 40.4887 78.7061 41.026 78.8691C41.2702 78.9344 41.5958 79.0485 41.954 78.967L42.8494 76.097C41.9703 75.4284 41.5307 75.1512 41.4655 75.1022Z" fill="url(#paint66_linear_43_26567)"/>
<path d="M98.5631 44.592C97.6351 43.9235 95.4371 42.7004 95.4371 42.7004C95.6488 43.0266 97.7002 45.8314 99.6702 45.9292C99.8493 45.5052 99.3446 45.1628 98.5631 44.592Z" fill="#5A6567"/>
<path d="M98.1074 53.0383C97.9934 52.5001 97.505 51.9294 96.984 51.7663C96.7886 51.7011 96.6258 51.7011 96.5118 51.7663L93.1742 53.1524C93.3858 53.1035 93.6463 53.1361 93.9231 53.2176C94.9 53.5438 95.8443 54.6363 96.0559 55.6311C96.1373 56.0061 96.0885 56.316 95.9583 56.5443L97.9283 53.6905C98.1236 53.5764 98.2051 53.3481 98.1562 53.022L98.1074 53.0383Z" fill="url(#paint67_linear_43_26567)"/>
<defs>
<linearGradient id="paint0_linear_43_26567" x1="86.8248" y1="62.056" x2="90.7428" y2="52.8796" gradientUnits="userSpaceOnUse">
<stop stop-color="#EFF2F5"/>
<stop offset="1" stop-color="#86898B"/>
</linearGradient>
<linearGradient id="paint1_linear_43_26567" x1="83.552" y1="60.5223" x2="84.8747" y2="55.5171" gradientUnits="userSpaceOnUse">
<stop stop-color="#EFF2F5"/>
<stop offset="1" stop-color="#86898B"/>
</linearGradient>
<linearGradient id="paint2_linear_43_26567" x1="20.1576" y1="99.8484" x2="18.9152" y2="97.7" gradientUnits="userSpaceOnUse">
<stop stop-color="#EFF2F5"/>
<stop offset="1" stop-color="#86898B"/>
</linearGradient>
<linearGradient id="paint3_linear_43_26567" x1="22.2042" y1="96.1917" x2="18.282" y2="94.325" gradientUnits="userSpaceOnUse">
<stop stop-color="#EFF2F5"/>
<stop offset="1" stop-color="#86898B"/>
</linearGradient>
<linearGradient id="paint4_linear_43_26567" x1="17.7934" y1="96.3672" x2="15.4365" y2="92.2914" gradientUnits="userSpaceOnUse">
<stop stop-color="#EFF2F5"/>
<stop offset="1" stop-color="#86898B"/>
</linearGradient>
<linearGradient id="paint5_linear_43_26567" x1="15.2965" y1="97.3845" x2="12.6699" y2="92.8422" gradientUnits="userSpaceOnUse">
<stop stop-color="#EFF2F5"/>
<stop offset="1" stop-color="#86898B"/>
</linearGradient>
<linearGradient id="paint6_linear_43_26567" x1="14.2031" y1="101.13" x2="14.2294" y2="97.5689" gradientUnits="userSpaceOnUse">
<stop stop-color="#EFF2F5"/>
<stop offset="1" stop-color="#86898B"/>
</linearGradient>
<linearGradient id="paint7_linear_43_26567" x1="18.1064" y1="101.476" x2="16.5801" y2="98.8369" gradientUnits="userSpaceOnUse">
<stop stop-color="#EFF2F5"/>
<stop offset="1" stop-color="#86898B"/>
</linearGradient>
<linearGradient id="paint8_linear_43_26567" x1="16.3096" y1="95.8808" x2="18.2122" y2="99.1709" gradientUnits="userSpaceOnUse">
<stop stop-color="#EFF2F5"/>
<stop offset="1" stop-color="#86898B"/>
</linearGradient>
<linearGradient id="paint9_linear_43_26567" x1="16.6923" y1="96.5441" x2="17.9275" y2="98.6803" gradientUnits="userSpaceOnUse">
<stop stop-color="#EFF2F5"/>
<stop offset="1" stop-color="#86898B"/>
</linearGradient>
<linearGradient id="paint10_linear_43_26567" x1="86.3036" y1="48.3088" x2="78.8591" y2="67.2331" gradientUnits="userSpaceOnUse">
<stop stop-color="#555E61"/>
<stop offset="1" stop-color="#222B2E"/>
</linearGradient>
<linearGradient id="paint11_linear_43_26567" x1="20.0892" y1="101.329" x2="15.4038" y2="93.2268" gradientUnits="userSpaceOnUse">
<stop stop-color="#EFF2F5"/>
<stop offset="1" stop-color="#86898B"/>
</linearGradient>
<linearGradient id="paint12_linear_43_26567" x1="87.7036" y1="64.2896" x2="87.7036" y2="53.3151" gradientUnits="userSpaceOnUse">
<stop stop-color="#EFF2F5"/>
<stop offset="1" stop-color="#86898B"/>
</linearGradient>
<linearGradient id="paint13_linear_43_26567" x1="259.739" y1="-39.451" x2="265.036" y2="-33.747" gradientUnits="userSpaceOnUse">
<stop stop-color="#485154"/>
<stop offset="1" stop-color="#151E21"/>
</linearGradient>
<linearGradient id="paint14_linear_43_26567" x1="263.171" y1="-38.815" x2="260.564" y2="-41.0239" gradientUnits="userSpaceOnUse">
<stop stop-color="#485154"/>
<stop offset="1" stop-color="#151E21"/>
</linearGradient>
<linearGradient id="paint15_linear_43_26567" x1="87.348" y1="58.0725" x2="90.2302" y2="61.3141" gradientUnits="userSpaceOnUse">
<stop stop-color="#9EA5A9"/>
<stop offset="0.02" stop-color="#A9B0B4"/>
<stop offset="0.06" stop-color="#C0C7CB"/>
<stop offset="0.11" stop-color="#D1D8DC"/>
<stop offset="0.16" stop-color="#DAE1E5"/>
<stop offset="0.22" stop-color="#DEE5E9"/>
<stop offset="0.4" stop-color="#DAE1E5"/>
<stop offset="0.54" stop-color="#D0D7DB"/>
<stop offset="0.67" stop-color="#BFC6CA"/>
<stop offset="0.8" stop-color="#A7AEB2"/>
<stop offset="0.84" stop-color="#9EA5A9"/>
<stop offset="1" stop-color="#6F7980"/>
</linearGradient>
<linearGradient id="paint16_linear_43_26567" x1="79.7522" y1="64.3262" x2="82.7689" y2="67.7402" gradientUnits="userSpaceOnUse">
<stop stop-color="#858C90"/>
<stop offset="0.02" stop-color="#90979B"/>
<stop offset="0.06" stop-color="#A7AEB2"/>
<stop offset="0.11" stop-color="#B8BFC3"/>
<stop offset="0.16" stop-color="#C1C8CC"/>
<stop offset="0.22" stop-color="#C5CCD0"/>
<stop offset="0.4" stop-color="#C1C8CC"/>
<stop offset="0.54" stop-color="#B7BEC2"/>
<stop offset="0.67" stop-color="#A6ADB1"/>
<stop offset="0.8" stop-color="#8E9599"/>
<stop offset="0.84" stop-color="#858C90"/>
<stop offset="1" stop-color="#566067"/>
</linearGradient>
<linearGradient id="paint17_linear_43_26567" x1="61.7516" y1="72.6557" x2="67.2381" y2="53.7281" gradientUnits="userSpaceOnUse">
<stop stop-color="#485154"/>
<stop offset="1" stop-color="#151E21"/>
</linearGradient>
<linearGradient id="paint18_linear_43_26567" x1="64.8445" y1="72.6056" x2="67.8163" y2="62.3674" gradientUnits="userSpaceOnUse">
<stop stop-color="#485154"/>
<stop offset="1" stop-color="#151E21"/>
</linearGradient>
<linearGradient id="paint19_linear_43_26567" x1="63.0217" y1="70.7156" x2="50.8663" y2="63.6714" gradientUnits="userSpaceOnUse">
<stop stop-color="#485154"/>
<stop offset="1" stop-color="#151E21"/>
</linearGradient>
<linearGradient id="paint20_linear_43_26567" x1="65.2361" y1="72.2795" x2="55.036" y2="66.3578" gradientUnits="userSpaceOnUse">
<stop stop-color="#3B4447"/>
<stop offset="1" stop-color="#081114"/>
</linearGradient>
<linearGradient id="paint21_linear_43_26567" x1="32.9668" y1="93.0881" x2="36.8847" y2="83.9281" gradientUnits="userSpaceOnUse">
<stop stop-color="#EFF2F5"/>
<stop offset="1" stop-color="#86898B"/>
</linearGradient>
<linearGradient id="paint22_linear_43_26567" x1="29.7103" y1="91.5709" x2="31.033" y2="86.5494" gradientUnits="userSpaceOnUse">
<stop stop-color="#EFF2F5"/>
<stop offset="1" stop-color="#86898B"/>
</linearGradient>
<linearGradient id="paint23_linear_43_26567" x1="-33.7324" y1="130.913" x2="-34.9819" y2="128.752" gradientUnits="userSpaceOnUse">
<stop stop-color="#EFF2F5"/>
<stop offset="1" stop-color="#86898B"/>
</linearGradient>
<linearGradient id="paint24_linear_43_26567" x1="-31.6997" y1="127.264" x2="-35.6074" y2="125.392" gradientUnits="userSpaceOnUse">
<stop stop-color="#EFF2F5"/>
<stop offset="1" stop-color="#86898B"/>
</linearGradient>
<linearGradient id="paint25_linear_43_26567" x1="-36.0966" y1="127.432" x2="-38.4606" y2="123.344" gradientUnits="userSpaceOnUse">
<stop stop-color="#EFF2F5"/>
<stop offset="1" stop-color="#86898B"/>
</linearGradient>
<linearGradient id="paint26_linear_43_26567" x1="-38.5928" y1="128.449" x2="-41.2195" y2="123.907" gradientUnits="userSpaceOnUse">
<stop stop-color="#EFF2F5"/>
<stop offset="1" stop-color="#86898B"/>
</linearGradient>
<linearGradient id="paint27_linear_43_26567" x1="-39.7081" y1="132.19" x2="-39.674" y2="128.64" gradientUnits="userSpaceOnUse">
<stop stop-color="#EFF2F5"/>
<stop offset="1" stop-color="#86898B"/>
</linearGradient>
<linearGradient id="paint28_linear_43_26567" x1="-35.7976" y1="132.55" x2="-37.3239" y2="129.911" gradientUnits="userSpaceOnUse">
<stop stop-color="#EFF2F5"/>
<stop offset="1" stop-color="#86898B"/>
</linearGradient>
<linearGradient id="paint29_linear_43_26567" x1="-37.5875" y1="126.934" x2="-35.6778" y2="130.237" gradientUnits="userSpaceOnUse">
<stop stop-color="#EFF2F5"/>
<stop offset="1" stop-color="#86898B"/>
</linearGradient>
<linearGradient id="paint30_linear_43_26567" x1="-37.1978" y1="127.609" x2="-35.9626" y2="129.745" gradientUnits="userSpaceOnUse">
<stop stop-color="#EFF2F5"/>
<stop offset="1" stop-color="#86898B"/>
</linearGradient>
<linearGradient id="paint31_linear_43_26567" x1="32.4456" y1="79.3414" x2="25.001" y2="98.282" gradientUnits="userSpaceOnUse">
<stop stop-color="#555E61"/>
<stop offset="1" stop-color="#222B2E"/>
</linearGradient>
<linearGradient id="paint32_linear_43_26567" x1="-33.8146" y1="132.402" x2="-38.5" y2="124.3" gradientUnits="userSpaceOnUse">
<stop stop-color="#EFF2F5"/>
<stop offset="1" stop-color="#86898B"/>
</linearGradient>
<linearGradient id="paint33_linear_43_26567" x1="33.8454" y1="95.3218" x2="33.8454" y2="84.3472" gradientUnits="userSpaceOnUse">
<stop stop-color="#EFF2F5"/>
<stop offset="1" stop-color="#86898B"/>
</linearGradient>
<linearGradient id="paint34_linear_43_26567" x1="-35.8589" y1="126.277" x2="-32.4726" y2="132.133" gradientUnits="userSpaceOnUse">
<stop stop-color="#EFF2F5"/>
<stop offset="1" stop-color="#86898B"/>
</linearGradient>
<linearGradient id="paint35_linear_43_26567" x1="-35.271" y1="127.297" x2="-33.1697" y2="130.931" gradientUnits="userSpaceOnUse">
<stop stop-color="#EFF2F5"/>
<stop offset="1" stop-color="#86898B"/>
</linearGradient>
<linearGradient id="paint36_linear_43_26567" x1="61.67" y1="75.8999" x2="49.9545" y2="69.0997" gradientUnits="userSpaceOnUse">
<stop stop-color="white"/>
<stop offset="1"/>
</linearGradient>
<linearGradient id="paint37_linear_43_26567" x1="46.5124" y1="52.9078" x2="49.6942" y2="48.1671" gradientUnits="userSpaceOnUse">
<stop stop-color="#485154"/>
<stop offset="1" stop-color="#151E21"/>
</linearGradient>
<linearGradient id="paint38_linear_43_26567" x1="103.057" y1="23.8649" x2="49.6227" y2="57.6415" gradientUnits="userSpaceOnUse">
<stop stop-color="#485154"/>
<stop offset="1" stop-color="#151E21"/>
</linearGradient>
<linearGradient id="paint39_linear_43_26567" x1="57.9416" y1="54.5376" x2="79.2365" y2="34.4322" gradientUnits="userSpaceOnUse">
<stop stop-color="#485154"/>
<stop offset="1" stop-color="#151E21"/>
</linearGradient>
<linearGradient id="paint40_linear_43_26567" x1="55.1908" y1="41.8521" x2="90.2765" y2="41.8521" gradientUnits="userSpaceOnUse">
<stop stop-color="#3B4447"/>
<stop offset="1" stop-color="#081114"/>
</linearGradient>
<linearGradient id="paint41_linear_43_26567" x1="51.9835" y1="40.3517" x2="57.861" y2="40.3517" gradientUnits="userSpaceOnUse">
<stop stop-color="#F9FCFF"/>
<stop offset="1" stop-color="#76797A"/>
</linearGradient>
<linearGradient id="paint42_linear_43_26567" x1="42.7675" y1="34.4323" x2="41.9841" y2="35.85" gradientUnits="userSpaceOnUse">
<stop stop-color="#626B6E"/>
<stop offset="1" stop-color="#2F383B"/>
</linearGradient>
<linearGradient id="paint43_linear_43_26567" x1="50.3222" y1="41.4934" x2="45.4768" y2="48.0904" gradientUnits="userSpaceOnUse">
<stop stop-color="white"/>
<stop offset="1"/>
</linearGradient>
<linearGradient id="paint44_linear_43_26567" x1="47.0012" y1="40.0908" x2="51.2742" y2="44.7804" gradientUnits="userSpaceOnUse">
<stop stop-color="#626B6E"/>
<stop offset="1" stop-color="#2F383B"/>
</linearGradient>
<linearGradient id="paint45_linear_43_26567" x1="65.1547" y1="36.683" x2="65.0077" y2="41.9991" gradientUnits="userSpaceOnUse">
<stop stop-color="#626B6E"/>
<stop offset="1" stop-color="#2F383B"/>
</linearGradient>
<linearGradient id="paint46_linear_43_26567" x1="41.7092" y1="22.9519" x2="36.805" y2="25.6197" gradientUnits="userSpaceOnUse">
<stop stop-color="#626B6E"/>
<stop offset="1" stop-color="#2F383B"/>
</linearGradient>
<linearGradient id="paint47_linear_43_26567" x1="61.5723" y1="45.3578" x2="60.0874" y2="47.606" gradientUnits="userSpaceOnUse">
<stop stop-color="#626B6E"/>
<stop offset="1" stop-color="#2F383B"/>
</linearGradient>
<linearGradient id="paint48_linear_43_26567" x1="63.6079" y1="47.021" x2="62.8082" y2="48.4386" gradientUnits="userSpaceOnUse">
<stop stop-color="#626B6E"/>
<stop offset="1" stop-color="#2F383B"/>
</linearGradient>
<radialGradient id="paint49_radial_43_26567" cx="0" cy="0" r="1" gradientUnits="userSpaceOnUse" gradientTransform="translate(63.054 50.2653) scale(0.634963 0.63597)">
<stop stop-color="#555E61"/>
<stop offset="1" stop-color="#222B2E"/>
</radialGradient>
<radialGradient id="paint50_radial_43_26567" cx="0" cy="0" r="1" gradientUnits="userSpaceOnUse" gradientTransform="translate(37.9812 35.1984) scale(0.634963 0.63597)">
<stop stop-color="#555E61"/>
<stop offset="1" stop-color="#222B2E"/>
</radialGradient>
<linearGradient id="paint51_linear_43_26567" x1="80.8169" y1="57.0658" x2="83.1004" y2="59.7202" gradientUnits="userSpaceOnUse">
<stop stop-color="white"/>
<stop offset="1"/>
</linearGradient>
<linearGradient id="paint52_linear_43_26567" x1="82.77" y1="48.4231" x2="66.8711" y2="64.1341" gradientUnits="userSpaceOnUse">
<stop stop-color="white"/>
<stop offset="1"/>
</linearGradient>
<linearGradient id="paint53_linear_43_26567" x1="34.383" y1="55.697" x2="42.549" y2="61.7671" gradientUnits="userSpaceOnUse">
<stop stop-color="#4B4B4B"/>
<stop offset="0.03" stop-color="#616161"/>
<stop offset="0.05" stop-color="#727272"/>
<stop offset="0.08" stop-color="#7E7E7E"/>
<stop offset="0.13" stop-color="#858585"/>
<stop offset="0.25" stop-color="#878787"/>
<stop offset="0.36" stop-color="#D3D3D3"/>
<stop offset="0.72" stop-color="#D3D3D3"/>
<stop offset="0.97" stop-color="#5E5E5E"/>
</linearGradient>
<linearGradient id="paint54_linear_43_26567" x1="46.0078" y1="74.66" x2="47.3303" y2="78.3603" gradientUnits="userSpaceOnUse">
<stop stop-color="white"/>
<stop offset="1"/>
</linearGradient>
<linearGradient id="paint55_linear_43_26567" x1="54.1163" y1="56.3813" x2="47.4381" y2="77.9168" gradientUnits="userSpaceOnUse">
<stop stop-color="#E9E9E9"/>
<stop offset="1" stop-color="#B7B7B7"/>
</linearGradient>
<linearGradient id="paint56_linear_43_26567" x1="50.3878" y1="76.846" x2="48.3302" y2="67.161" gradientUnits="userSpaceOnUse">
<stop stop-color="#C2C2C2"/>
<stop offset="1" stop-color="#909090"/>
</linearGradient>
<linearGradient id="paint57_linear_43_26567" x1="43.0776" y1="56.1851" x2="41.7229" y2="58.8577" gradientUnits="userSpaceOnUse">
<stop stop-color="#4B4B4B"/>
<stop offset="0.03" stop-color="#616161"/>
<stop offset="0.05" stop-color="#727272"/>
<stop offset="0.08" stop-color="#7E7E7E"/>
<stop offset="0.13" stop-color="#858585"/>
<stop offset="0.25" stop-color="#878787"/>
<stop offset="0.36" stop-color="#D3D3D3"/>
<stop offset="0.72" stop-color="#D3D3D3"/>
<stop offset="0.97" stop-color="#5E5E5E"/>
</linearGradient>
<linearGradient id="paint58_linear_43_26567" x1="38.9907" y1="53.6903" x2="37.636" y2="56.3466" gradientUnits="userSpaceOnUse">
<stop stop-color="#4B4B4B"/>
<stop offset="0.03" stop-color="#616161"/>
<stop offset="0.05" stop-color="#727272"/>
<stop offset="0.08" stop-color="#7E7E7E"/>
<stop offset="0.13" stop-color="#858585"/>
<stop offset="0.25" stop-color="#878787"/>
<stop offset="0.36" stop-color="#D3D3D3"/>
<stop offset="0.72" stop-color="#D3D3D3"/>
<stop offset="0.97" stop-color="#5E5E5E"/>
</linearGradient>
<linearGradient id="paint59_linear_43_26567" x1="39.4627" y1="55.9582" x2="36.1167" y2="62.5256" gradientUnits="userSpaceOnUse">
<stop stop-color="#4B4B4B"/>
<stop offset="0.03" stop-color="#616161"/>
<stop offset="0.05" stop-color="#727272"/>
<stop offset="0.08" stop-color="#7E7E7E"/>
<stop offset="0.13" stop-color="#858585"/>
<stop offset="0.25" stop-color="#878787"/>
<stop offset="0.36" stop-color="#D3D3D3"/>
<stop offset="0.72" stop-color="#D3D3D3"/>
<stop offset="0.97" stop-color="#5E5E5E"/>
</linearGradient>
<linearGradient id="paint60_linear_43_26567" x1="36.9391" y1="57.3766" x2="40.3136" y2="60.1435" gradientUnits="userSpaceOnUse">
<stop stop-color="white"/>
<stop offset="1"/>
</linearGradient>
<linearGradient id="paint61_linear_43_26567" x1="40.5697" y1="56.3656" x2="38.4481" y2="60.1459" gradientUnits="userSpaceOnUse">
<stop stop-color="white"/>
<stop offset="1"/>
</linearGradient>
<linearGradient id="paint62_linear_43_26567" x1="40.6679" y1="60.8171" x2="31.996" y2="54.0793" gradientUnits="userSpaceOnUse">
<stop stop-color="white"/>
<stop offset="1"/>
</linearGradient>
<linearGradient id="paint63_linear_43_26567" x1="35.6041" y1="90.0702" x2="35.0492" y2="91.0316" gradientUnits="userSpaceOnUse">
<stop stop-color="#9EA5A9"/>
<stop offset="0.02" stop-color="#A9B0B4"/>
<stop offset="0.06" stop-color="#C0C7CB"/>
<stop offset="0.11" stop-color="#D1D8DC"/>
<stop offset="0.16" stop-color="#DAE1E5"/>
<stop offset="0.22" stop-color="#DEE5E9"/>
<stop offset="0.4" stop-color="#DAE1E5"/>
<stop offset="0.54" stop-color="#D0D7DB"/>
<stop offset="0.67" stop-color="#BFC6CA"/>
<stop offset="0.8" stop-color="#A7AEB2"/>
<stop offset="0.84" stop-color="#9EA5A9"/>
<stop offset="1" stop-color="#6F7980"/>
</linearGradient>
<linearGradient id="paint64_linear_43_26567" x1="37.4279" y1="85.4068" x2="39.4964" y2="86.1711" gradientUnits="userSpaceOnUse">
<stop stop-color="#9EA5A9"/>
<stop offset="0.02" stop-color="#A9B0B4"/>
<stop offset="0.06" stop-color="#C0C7CB"/>
<stop offset="0.11" stop-color="#D1D8DC"/>
<stop offset="0.16" stop-color="#DAE1E5"/>
<stop offset="0.22" stop-color="#DEE5E9"/>
<stop offset="0.4" stop-color="#DAE1E5"/>
<stop offset="0.54" stop-color="#D0D7DB"/>
<stop offset="0.67" stop-color="#BFC6CA"/>
<stop offset="0.8" stop-color="#A7AEB2"/>
<stop offset="0.84" stop-color="#9EA5A9"/>
<stop offset="1" stop-color="#6F7980"/>
</linearGradient>
<linearGradient id="paint65_linear_43_26567" x1="37.4118" y1="91.3425" x2="37.0854" y2="91.9128" gradientUnits="userSpaceOnUse">
<stop stop-color="#9EA5A9"/>
<stop offset="0.02" stop-color="#A9B0B4"/>
<stop offset="0.06" stop-color="#C0C7CB"/>
<stop offset="0.11" stop-color="#D1D8DC"/>
<stop offset="0.16" stop-color="#DAE1E5"/>
<stop offset="0.22" stop-color="#DEE5E9"/>
<stop offset="0.4" stop-color="#DAE1E5"/>
<stop offset="0.54" stop-color="#D0D7DB"/>
<stop offset="0.67" stop-color="#BFC6CA"/>
<stop offset="0.8" stop-color="#A7AEB2"/>
<stop offset="0.84" stop-color="#9EA5A9"/>
<stop offset="1" stop-color="#6F7980"/>
</linearGradient>
<linearGradient id="paint66_linear_43_26567" x1="40.8469" y1="76.8634" x2="42.4103" y2="77.3674" gradientUnits="userSpaceOnUse">
<stop stop-color="#485154"/>
<stop offset="0.4" stop-color="#778B91"/>
<stop offset="1" stop-color="#151E21"/>
</linearGradient>
<linearGradient id="paint67_linear_43_26567" x1="94.5867" y1="51.8571" x2="97.4946" y2="55.1435" gradientUnits="userSpaceOnUse">
<stop stop-color="#858C90"/>
<stop offset="0.02" stop-color="#90979B"/>
<stop offset="0.06" stop-color="#A7AEB2"/>
<stop offset="0.11" stop-color="#B8BFC3"/>
<stop offset="0.16" stop-color="#C1C8CC"/>
<stop offset="0.22" stop-color="#C5CCD0"/>
<stop offset="0.4" stop-color="#C1C8CC"/>
<stop offset="0.54" stop-color="#B7BEC2"/>
<stop offset="0.67" stop-color="#A6ADB1"/>
<stop offset="0.8" stop-color="#8E9599"/>
<stop offset="0.84" stop-color="#858C90"/>
<stop offset="1" stop-color="#566067"/>
</linearGradient>
</defs>
</svg>
