<svg width="120" height="120" viewBox="0 0 120 120" fill="none" xmlns="http://www.w3.org/2000/svg">
<path d="M66.3319 75.3839C65.6796 74.9341 63.37 73.6062 61.6592 72.6425L60.8145 72.8459L65.0595 83.4261L67.1766 84.2399L67.3477 77.5042C67.3477 77.5042 67.4119 76.1335 66.3319 75.3839Z" fill="#273234"/>
<path d="M83.4831 34.5949L85.8355 33.2028C87.1186 32.4639 88.3804 32.0891 89.5886 32.0891C90.5189 32.0891 91.3529 32.3033 92.0694 32.7102L84.0391 28.4696C83.2906 28.0305 82.4245 27.7949 81.4515 27.7949C80.2432 27.7949 78.9815 28.1697 77.6983 28.9086L75.3459 30.3007C71.8494 32.3247 68.8127 36.7795 67.9466 41.1379L67.4761 47.0812L75.656 51.8359L76.073 45.4428C76.9391 41.0844 79.9759 36.6296 83.4724 34.6056L83.4831 34.5949Z" fill="url(#paint0_linear_43_32206)"/>
<path d="M89.5884 32.0889C88.3802 32.0889 87.1184 32.4637 85.8353 33.2026L83.4829 34.5947C79.9864 36.6186 76.9496 41.0734 76.0835 45.4319L75.6665 51.8249L76.5861 51.9534L77.4736 51.5037L78.4466 46.1065C79.1951 42.3156 81.8362 38.3213 84.9692 36.5008L87.343 35.1087C90.8395 33.0848 93.6624 34.7232 93.6731 38.7711C93.6731 39.6813 93.6089 40.7736 93.5341 41.6838L94.8172 40.8914C94.8707 40.0882 94.9134 39.2208 94.9134 38.4498C94.9134 34.6589 92.7642 32.0996 89.5884 32.0996V32.0889Z" fill="url(#paint1_linear_43_32206)"/>
<path d="M90.166 32.6995C89.0111 32.6995 87.8029 33.0636 86.5732 33.7703L84.2101 35.1625C80.7884 37.1436 77.8052 41.5127 76.9604 45.7855L76.5862 51.9322L77.463 51.5467L78.3077 50.9042L93.47 42.2944L95.0739 41.3735C95.1381 40.5275 95.1915 39.5744 95.1808 38.7391C95.1808 35.1196 93.1599 32.6995 90.1553 32.6995H90.166Z" fill="#404B4D"/>
<path d="M63.9902 44.7468L66.3426 43.3547C67.6257 42.6158 68.8875 42.241 70.0957 42.241C71.026 42.241 71.86 42.4551 72.5764 42.8621L64.5462 38.6214C63.7977 38.1824 62.9316 37.9468 61.9586 37.9468C60.7503 37.9468 59.4885 38.3216 58.2054 39.0605L55.853 40.4526C52.3565 42.4765 49.3197 46.9313 48.4536 51.2898L47.9832 57.2331L56.1631 61.977L56.5801 55.5947C57.4462 51.2362 60.483 46.7814 63.9795 44.7575L63.9902 44.7468Z" fill="url(#paint2_linear_43_32206)"/>
<path d="M70.0958 42.2407C68.8875 42.2407 67.6257 42.6155 66.3426 43.3544L63.9902 44.7466C60.4937 46.7705 57.457 51.2146 56.5908 55.5837L56.1738 61.9661L57.0934 62.0946L57.9809 61.6448L58.9539 56.2477C59.7024 52.4568 62.3328 48.4518 65.4765 46.642L67.8503 45.2499C71.3468 43.2259 74.1697 44.8643 74.1804 48.9122C74.1804 49.8225 74.1162 50.9147 74.0414 51.825L75.3245 51.0325C75.378 50.2294 75.4207 49.362 75.4207 48.591C75.4207 44.7894 73.2715 42.2407 70.0958 42.2407Z" fill="url(#paint3_linear_43_32206)"/>
<path d="M70.6733 42.8621C69.5185 42.8621 68.3102 43.2262 67.0805 43.9329L64.7174 45.3251C61.2957 47.3062 58.3125 51.6753 57.4678 55.9481L57.0935 62.0948L57.981 61.7093L58.8257 61.0668L73.988 52.457L75.5919 51.5361C75.6561 50.6901 75.7096 49.737 75.6989 48.9017C75.6989 45.2822 73.6779 42.8621 70.6733 42.8621Z" fill="#404B4D"/>
<path d="M97.0841 37.2074L51.8645 63.4864V59.31L97.0841 33.0203V37.2074Z" fill="#404B4D"/>
<path d="M104.933 38.6533L98.6132 34.9159C98.2818 34.7232 97.822 34.7553 97.3194 35.0444C96.3036 35.6334 95.491 37.0577 95.491 38.2249C95.491 38.8139 95.6941 39.2208 96.0363 39.4136L102.356 43.1509C102.687 43.3329 103.147 43.3115 103.65 43.0224C104.665 42.4334 105.478 41.0092 105.478 39.8419C105.478 39.2529 105.275 38.846 104.933 38.6533Z" fill="url(#paint4_linear_43_32206)"/>
<path d="M78.9278 54.556L72.6084 50.8186C72.2769 50.6259 71.8171 50.658 71.3145 50.9471C70.2987 51.5361 69.4861 52.9604 69.4861 54.1276C69.4861 54.7166 69.6892 55.1342 70.0314 55.3163L76.3508 59.0536C76.6823 59.2357 77.1421 59.2142 77.6446 58.9251C78.6604 58.3361 79.4731 56.9119 79.4731 55.7446C79.4731 55.1556 79.2699 54.7487 78.9278 54.556Z" fill="url(#paint5_linear_43_32206)"/>
<path d="M102.142 42.0907L100.238 43.1937L90.54 37.4325L92.4433 36.3295L102.142 42.0907Z" fill="#5A6567"/>
<path d="M100.238 43.1938V45.1642L90.54 39.3922V37.4325L100.238 43.1938Z" fill="#333E40"/>
<path d="M99.1587 47.638L97.2447 48.7517L87.5464 42.9797L89.4604 41.8767L99.1587 47.638Z" fill="#5A6567"/>
<path d="M97.2447 48.7518V49.6406L87.5464 43.8794V42.9799L97.2447 48.7518Z" fill="#333E40"/>
<path d="M70.1277 63.7544L68.2244 64.8574L58.5261 59.0854L60.4294 57.9824L70.1277 63.7544Z" fill="#5A6567"/>
<path d="M68.2244 64.8574V65.7569L58.5261 59.985V59.0854L68.2244 64.8574Z" fill="#333E40"/>
<path d="M75.0461 57.9929L73.1321 59.0959L63.4338 53.3239L65.3478 52.2209L75.0461 57.9929Z" fill="#5A6567"/>
<path d="M73.1321 59.0959V61.0556L63.4338 55.2944V53.324L73.1321 59.0959Z" fill="#333E40"/>
<path d="M92.1869 47.7878L79.4305 55.2303L69.7322 49.4583L82.4886 42.0265L92.1869 47.7878Z" fill="#5A6567"/>
<path d="M79.4305 55.2305V57.1902L69.7322 51.4289V49.4585L79.4305 55.2305Z" fill="#333E40"/>
<path d="M69.0477 54.5235C68.1816 54.0202 66.7808 54.0202 65.9147 54.5235C65.4763 54.7698 65.2625 55.1017 65.2625 55.4337V61.1736C65.2625 61.5055 65.4763 61.8268 65.9147 62.0838C66.7808 62.5871 68.1816 62.5871 69.0477 62.0838C69.4861 61.8375 69.6999 61.5055 69.6999 61.1736V55.4337C69.6999 55.1017 69.4861 54.7805 69.0477 54.5235Z" fill="#333E40"/>
<path d="M69.0477 54.5235C69.9138 55.0268 69.9138 55.8299 69.0477 56.3332C68.1816 56.8366 66.7808 56.8366 65.9147 56.3332C65.0486 55.8299 65.0486 55.0268 65.9147 54.5235C66.7808 54.0202 68.1816 54.0202 69.0477 54.5235Z" fill="#5A6567"/>
<path d="M108.226 39.039L63.0062 65.318L61.3381 64.3543L106.568 38.0752L108.226 39.039Z" fill="#5A6567"/>
<path d="M108.226 45.5923L63.0063 71.8713V65.3176L108.226 39.0386V45.5923Z" fill="#404B4D"/>
<path d="M97.0842 33.0206L51.8647 59.3104L50.2073 58.3466L95.4269 32.0675L97.0842 33.0206Z" fill="#5A6567"/>
<path d="M119.55 53.2704L116.556 52.0925L112.129 46.4383C112.129 46.4383 114.011 44.8855 116.181 45.8493C118.363 46.8131 119.379 50.8181 119.379 50.8181L119.55 53.2704Z" fill="#0E191B"/>
<path d="M116.021 48.0553L110.375 44.6714C109.113 43.9539 107.37 44.061 105.446 45.1747C101.586 47.4021 98.4526 52.8314 98.4526 57.2969C98.4526 59.5457 99.2439 61.1199 100.527 61.8374L106.173 65.2213C107.435 65.9388 109.177 65.821 111.091 64.718C114.952 62.4906 118.085 57.0613 118.085 52.5958C118.085 50.3577 117.293 48.7835 116.021 48.0553Z" fill="#2E373A"/>
<path d="M118.085 52.5957C118.085 57.0613 114.952 62.4905 111.092 64.7179C109.178 65.8316 107.435 65.9387 106.173 65.2213C104.89 64.4931 104.099 62.9189 104.099 60.6701C104.099 56.2046 107.232 50.7753 111.092 48.5479C113.016 47.4342 114.749 47.3271 116.021 48.0446C117.293 48.7727 118.085 50.3469 118.085 52.585V52.5957Z" fill="#555E61"/>
<path d="M117.657 53.1209C117.657 57.1902 114.802 62.1376 111.284 64.1722C107.766 66.2069 104.911 64.5577 104.911 60.4884C104.911 56.4191 107.766 51.4717 111.284 49.4371C114.802 47.4025 117.657 49.0516 117.657 53.1209Z" fill="#3B4447"/>
<path d="M115.572 54.202C115.572 56.9328 113.658 60.2631 111.295 61.6339C108.932 63.0046 107.018 61.8909 107.018 59.1602C107.018 56.4294 108.932 53.099 111.295 51.7283C113.658 50.3576 115.572 51.4713 115.572 54.202Z" fill="url(#paint6_linear_43_32206)"/>
<path d="M115.176 54.4273C115.176 56.9117 113.433 59.9423 111.284 61.1845C109.135 62.4267 107.392 61.4201 107.392 58.9357C107.392 56.4513 109.135 53.4207 111.284 52.1785C113.433 50.9363 115.176 51.9429 115.176 54.4273Z" fill="url(#paint7_linear_43_32206)"/>
<path d="M113.155 51.6537C112.599 51.6216 111.968 51.7929 111.295 52.1784C109.146 53.4206 107.403 56.4405 107.403 58.9356C107.403 59.728 107.574 60.3598 107.884 60.831C108.44 60.8632 109.071 60.6918 109.744 60.3063C111.894 59.0641 113.636 56.0443 113.636 53.5491C113.636 52.7567 113.465 52.1249 113.155 51.6537Z" fill="url(#paint8_linear_43_32206)"/>
<path d="M112.642 51.6753C112.215 51.7395 111.765 51.9002 111.284 52.1786C109.135 53.4208 107.392 56.4406 107.392 58.9358C107.392 59.4926 107.478 59.9745 107.649 60.3814C108.237 60.5314 108.964 60.4029 109.744 59.9531C111.733 58.8073 113.337 56.0123 113.337 53.7206C113.337 52.8104 113.081 52.1143 112.653 51.6753H112.642Z" fill="url(#paint9_linear_43_32206)"/>
<path d="M107.392 58.9355C107.392 59.1389 107.402 59.3317 107.424 59.5137C107.819 59.4923 108.269 59.3638 108.728 59.0854C110.461 58.0895 111.861 55.6479 111.861 53.6454C111.861 52.9921 111.712 52.4674 111.444 52.0819C111.391 52.114 111.327 52.1462 111.273 52.1783C109.124 53.4205 107.381 56.4403 107.381 58.9355H107.392Z" fill="url(#paint10_linear_43_32206)"/>
<path d="M111.188 55.2306C111.188 56.1622 110.535 57.2973 109.734 57.7578C108.932 58.229 108.279 57.8435 108.279 56.9118C108.279 55.9802 108.932 54.8451 109.734 54.3846C110.535 53.9134 111.188 54.2989 111.188 55.2306Z" fill="url(#paint11_linear_43_32206)"/>
<path d="M108.29 46.7275L110.643 45.3354C111.926 44.5965 113.188 44.2217 114.396 44.2217C115.326 44.2217 116.16 44.4358 116.876 44.8428L108.846 40.6021C108.098 40.1631 107.232 39.9275 106.259 39.9275C105.05 39.9275 103.789 40.3023 102.505 41.0412L100.153 42.4333C96.6565 44.4573 93.6198 48.9014 92.7537 53.2705L92.2832 59.2138L100.463 63.9577L100.88 57.5647C101.746 53.2062 104.783 48.7514 108.28 46.7275H108.29Z" fill="url(#paint12_linear_43_32206)"/>
<path d="M114.406 44.2219C113.198 44.2219 111.936 44.5967 110.653 45.3356L108.301 46.7278C104.804 48.7517 101.768 53.1958 100.901 57.5649L100.484 63.958L101.404 64.0865L102.291 63.6367L103.264 58.2396C104.013 54.4487 106.643 50.4437 109.787 48.6339L112.161 47.2418C115.657 45.2178 118.48 46.8563 118.491 50.9041C118.491 51.8144 118.427 52.9067 118.352 53.8169L119.635 53.0244C119.689 52.2213 119.731 51.3539 119.731 50.5829C119.731 46.792 117.582 44.2326 114.406 44.2326V44.2219Z" fill="url(#paint13_linear_43_32206)"/>
<path d="M114.973 44.8427C113.818 44.8427 112.61 45.2067 111.38 45.9135L109.017 47.3056C105.596 49.2867 102.612 53.6559 101.768 57.9286L101.393 64.0754L102.27 63.6899L103.115 63.0474L103.254 58.2285C104.002 54.4376 106.633 50.4326 109.776 48.6228L112.15 47.2307C115.647 45.2067 118.47 46.8452 118.48 50.893C118.48 52.0389 118.384 53.4417 118.288 54.4483L119.892 53.5274C119.956 52.6814 120.009 51.7283 119.999 50.893C119.999 47.2735 117.967 44.8534 114.973 44.8534V44.8427Z" fill="#404B4D"/>
<path d="M99.4901 64.9218L96.4961 63.7438L92.0693 58.0896C92.0693 58.0896 93.9513 56.5369 96.1219 57.5007C98.3032 58.4644 99.319 62.4695 99.319 62.4695L99.4901 64.9218Z" fill="#0E191B"/>
<path d="M95.9612 59.7068L90.3155 56.3229C89.0537 55.6054 87.3108 55.7125 85.3861 56.8262C81.526 59.0536 78.3931 64.4829 78.3931 68.9484C78.3931 71.1972 79.1843 72.7714 80.4675 73.4996L86.1132 76.8728C87.375 77.5903 89.1179 77.4832 91.0319 76.3695C94.892 74.1421 98.0249 68.7128 98.0249 64.2473C98.0249 62.0092 97.2337 60.435 95.9612 59.7068Z" fill="#2E373A"/>
<path d="M98.0249 64.2471C98.0249 68.7126 94.8919 74.1419 91.0319 76.3693C89.1179 77.483 87.3749 77.5901 86.1132 76.8726C84.8301 76.1444 84.0388 74.5703 84.0388 72.3214C84.0388 67.8559 87.1718 62.4266 91.0319 60.1992C92.9566 59.0855 94.6888 58.9784 95.9612 59.6959C97.2337 60.4241 98.0249 61.9983 98.0249 64.2364V64.2471Z" fill="#555E61"/>
<path d="M97.5976 64.7718C97.5976 68.8411 94.7426 73.7885 91.2247 75.8231C87.7068 77.8577 84.8518 76.2086 84.8518 72.1393C84.8518 68.07 87.7068 63.1226 91.2247 61.088C94.7426 59.0533 97.5976 60.7025 97.5976 64.7718Z" fill="#3B4447"/>
<path d="M95.5124 65.8641C95.5124 68.5949 93.5984 71.9253 91.2246 73.296C88.8615 74.6667 86.9475 73.553 86.9475 70.8223C86.9475 68.0916 88.8615 64.7612 91.2246 63.3904C93.5877 62.0197 95.5124 63.1334 95.5124 65.8641Z" fill="url(#paint14_linear_43_32206)"/>
<path d="M95.1168 66.0888C95.1168 68.5732 93.3739 71.6038 91.2247 72.846C89.0754 74.0882 87.3325 73.0816 87.3325 70.5972C87.3325 68.1128 89.0754 65.0822 91.2247 63.84C93.3739 62.5978 95.1168 63.6044 95.1168 66.0888Z" fill="url(#paint15_linear_43_32206)"/>
<path d="M93.0852 63.3045C92.5292 63.2723 91.8983 63.4437 91.2247 63.8292C89.0754 65.0714 87.3325 68.1019 87.3325 70.5864C87.3325 71.3788 87.5036 72.0106 87.8137 72.4818C88.3697 72.5139 89.0006 72.3426 89.6742 71.9571C91.8235 70.7149 93.5664 67.6843 93.5664 65.1999C93.5664 64.4075 93.3953 63.7756 93.0852 63.3045Z" fill="url(#paint16_linear_43_32206)"/>
<path d="M92.5826 63.3262C92.1549 63.3904 91.7058 63.5511 91.2247 63.8295C89.0754 65.0717 87.3325 68.1022 87.3325 70.5866C87.3325 71.1435 87.4181 71.6361 87.5784 72.0323C88.1665 72.1822 88.8937 72.0537 89.6742 71.604C91.6631 70.4581 93.267 67.6632 93.267 65.3715C93.267 64.4613 93.0104 63.7652 92.5826 63.3262Z" fill="url(#paint17_linear_43_32206)"/>
<path d="M87.3325 70.5867C87.3325 70.7902 87.3432 70.983 87.3645 71.165C87.7602 71.1436 88.2093 71.0151 88.6691 70.7474C90.4013 69.7408 91.802 67.3099 91.802 65.3074C91.802 64.6541 91.6523 64.1294 91.385 63.7439C91.3315 63.776 91.2674 63.8081 91.2139 63.8403C89.0647 65.0825 87.3218 68.113 87.3218 70.5974L87.3325 70.5867Z" fill="url(#paint18_linear_43_32206)"/>
<path d="M91.1283 66.8815C91.1283 67.8132 90.4761 68.9483 89.6634 69.4088C88.8615 69.8799 88.2092 69.4944 88.2092 68.5628C88.2092 67.6311 88.8615 66.496 89.6634 66.0355C90.4654 65.5751 91.1283 65.9499 91.1283 66.8815Z" fill="url(#paint19_linear_43_32206)"/>
<path d="M88.2307 58.3789L90.5831 56.9867C91.8662 56.2478 93.1279 55.873 94.3362 55.873C95.2665 55.873 96.1005 56.0872 96.8169 56.4941L88.7867 52.2535C88.0382 51.8144 87.1721 51.5789 86.199 51.5789C84.9908 51.5789 83.729 51.9537 82.4459 52.6926L80.0935 54.0847C76.597 56.1086 73.5602 60.5527 72.6941 64.9219L72.2236 70.8545L80.4036 75.6091L80.8206 69.2267C81.6867 64.8683 84.7234 60.4135 88.22 58.3896L88.2307 58.3789Z" fill="url(#paint20_linear_43_32206)"/>
<path d="M94.3468 55.8728C93.1385 55.8728 91.8767 56.2476 90.5936 56.9865L88.2412 58.3786C84.7447 60.4026 81.7079 64.8467 80.8418 69.2158L80.4248 75.5982L81.3444 75.7267L82.2319 75.2769L83.2049 69.8797C83.9534 66.0889 86.5945 62.0945 89.7275 60.2741L92.1013 58.8819C95.5978 56.858 98.4207 58.4964 98.4314 62.5443C98.4314 63.4545 98.3672 64.5468 98.2924 65.4571L99.5755 64.6646C99.629 63.8615 99.6717 62.9941 99.6717 62.223C99.6717 58.4322 97.5225 55.8728 94.3468 55.8728Z" fill="url(#paint21_linear_43_32206)"/>
<path d="M94.9133 56.4941C93.7585 56.4941 92.5502 56.8582 91.3205 57.565L88.9574 58.9571C85.5357 60.9382 82.5525 65.3074 81.7077 69.5801L81.3335 75.7269L82.221 75.3414L83.0657 74.6989L83.194 69.88C83.9425 66.0891 86.5836 62.0948 89.7166 60.2743L92.0904 58.8822C95.5869 56.8582 98.4098 58.4967 98.4205 62.5445C98.4205 63.6797 98.3136 65.0932 98.228 66.0998L99.8319 65.1789C99.8961 64.3329 99.9495 63.3798 99.9389 62.5445C99.9389 58.925 97.9072 56.5049 94.9133 56.5049V56.4941Z" fill="#404B4D"/>
<path d="M60.3438 69.8479L72.6297 62.4054L80.6172 67.0422C80.6172 67.0422 81.6972 67.6419 81.7399 69.0662C81.7827 70.5011 81.7399 75.7056 81.7399 75.7056L67.1657 84.2189L67.3368 77.4832C67.3368 77.4832 67.401 76.1125 66.321 75.3629C65.241 74.6133 59.7129 71.5292 59.7129 71.5292L60.3438 69.8372V69.8479Z" fill="url(#paint22_linear_43_32206)"/>
<path d="M85.4504 45.2389L87.0543 46.2991C87.0543 46.2991 85.7819 47.6698 84.8089 48.9762C83.8358 50.2827 82.8735 51.5356 79.6977 51.9532C76.522 52.3602 75.2923 51.3429 73.0789 50.0685C70.8655 48.7942 68.3848 47.2629 68.1603 46.5561C67.9357 45.8493 68.0961 44.1895 69.946 43.3114C71.7958 42.4225 75.4634 41.5873 78.8958 41.5016L80.2217 42.4332L76.8962 46.449C76.8962 46.449 75.2175 46.8024 75.8377 47.2629C76.4578 47.7233 77.3346 47.0594 77.3346 47.0594L85.4504 45.2496V45.2389Z" fill="#5A6567"/>
<path d="M75.8377 47.2413C76.2119 47.5197 76.6717 47.3912 76.9818 47.2413L80.2217 43.3327V42.401L76.8963 46.4168C76.8963 46.4168 75.2175 46.7701 75.8377 47.2306V47.2413Z" fill="#343F41"/>
<path d="M84.8087 48.9655C83.8357 50.272 82.8733 51.5249 79.6976 51.9425C76.5218 52.3495 75.2922 51.3321 73.0788 50.0578C70.8654 48.7835 68.3847 47.2521 68.1601 46.5454C68.1494 46.5132 68.1387 46.4704 68.128 46.4276C68.0532 46.8452 68.0746 47.22 68.1601 47.477C68.3847 48.1838 70.8761 49.7044 73.0788 50.9895C75.2815 52.2745 76.5218 53.2811 79.6976 52.8742C82.8733 52.4673 83.8464 51.2036 84.8087 49.8972C85.7817 48.5907 87.0542 47.2307 87.0542 47.2307V46.2991C87.0542 46.2991 85.7817 47.6698 84.8087 48.9762V48.9655Z" fill="#343F41"/>
<path d="M57.4889 89.1338L53.9069 87.2812L49.6084 82.216C49.6084 82.216 54.4201 80.7703 55.7567 82.216C57.0933 83.6617 57.4889 89.1338 57.4889 89.1338Z" fill="#0E191B"/>
<path d="M53.8855 84.0582L48.2398 80.6849C46.978 79.9675 45.2351 80.0745 43.3104 81.1882C39.4504 83.4264 36.3174 88.8449 36.3174 93.3104C36.3174 95.5593 37.1086 97.1334 38.3918 97.8616L44.0375 101.235C45.2993 101.952 47.0422 101.845 48.9562 100.732C52.8163 98.5042 55.9492 93.0749 55.9492 88.6093C55.9492 86.3712 55.158 84.7971 53.8855 84.0689V84.0582Z" fill="#2E373A"/>
<path d="M55.949 88.5986C55.949 93.0641 52.816 98.4934 48.9559 100.721C47.0419 101.834 45.299 101.942 44.0373 101.224C42.7542 100.496 41.9629 98.9217 41.9629 96.6836C41.9629 92.2181 45.0959 86.7888 48.9559 84.5614C50.8806 83.4477 52.6129 83.3406 53.8853 84.0581C55.1577 84.7863 55.949 86.3605 55.949 88.5986Z" fill="#555E61"/>
<path d="M55.5214 89.1232C55.5214 93.1925 52.6664 98.1399 49.1485 100.175C45.6306 102.209 42.7756 100.56 42.7756 96.4908C42.7756 92.4215 45.6306 87.4741 49.1485 85.4394C52.6664 83.4048 55.5214 85.0539 55.5214 89.1232Z" fill="#3B4447"/>
<path d="M53.4258 90.205C53.4258 92.9357 51.5118 96.2661 49.1487 97.6368C46.7856 99.0075 44.8716 97.8938 44.8716 95.1631C44.8716 92.4324 46.7856 89.102 49.1487 87.7313C51.5118 86.3606 53.4258 87.4743 53.4258 90.205Z" fill="url(#paint23_linear_43_32206)"/>
<path d="M52.5702 90.376C52.5702 92.7212 50.9235 95.5804 48.8919 96.7476C46.8603 97.9149 45.2136 96.9725 45.2136 94.6166C45.2136 92.2607 46.8603 89.4122 48.8919 88.2449C50.9235 87.067 52.5702 88.02 52.5702 90.3652V90.376Z" fill="url(#paint24_linear_43_32206)"/>
<path d="M49.1488 88.0632C48.9349 88.181 48.7425 88.3309 48.5393 88.4701C48.6569 88.3951 48.7745 88.3202 48.8922 88.2452C50.9238 87.0673 52.5705 88.0203 52.5705 90.3655C52.5705 92.7107 50.9238 95.5699 48.8922 96.7372C46.8605 97.9044 45.2139 96.9621 45.2139 94.6062C45.2139 94.3277 45.2352 94.0386 45.2887 93.7495C45.2032 94.1671 45.1604 94.574 45.1604 94.9702C45.1604 97.5189 46.9461 98.5577 49.1595 97.2833C51.3622 96.009 53.1586 92.9035 53.1586 90.3548C53.1586 87.8062 51.3729 86.7674 49.1595 88.0417L49.1488 88.0632Z" fill="url(#paint25_linear_43_32206)"/>
<path d="M52.335 90.4725C52.335 92.7106 50.7632 95.4306 48.8278 96.555C46.8924 97.6794 45.3206 96.7692 45.3206 94.5311C45.3206 92.293 46.8924 89.5623 48.8278 88.4486C50.7632 87.3242 52.335 88.2344 52.335 90.4725Z" fill="url(#paint26_linear_43_32206)"/>
<path d="M51.6722 91.6077C51.6722 93.139 50.6029 95.0023 49.277 95.7627C47.9511 96.523 46.8818 95.9019 46.8818 94.3812C46.8818 92.8606 47.9511 90.9866 49.277 90.2263C50.6029 89.466 51.6722 90.0764 51.6722 91.6077Z" fill="url(#paint27_linear_43_32206)"/>
<path d="M49.1377 89.3907C49.2019 89.6692 49.1056 89.9369 48.9132 89.9797C48.7207 90.0225 48.5175 89.8298 48.4534 89.5514C48.3892 89.2729 48.4855 89.0052 48.6779 88.9624C48.8704 88.9195 49.0736 89.1123 49.1484 89.3907H49.1377Z" fill="url(#paint28_linear_43_32206)"/>
<path d="M46.1439 93.3101C46.4326 93.3529 46.6357 93.5349 46.6144 93.7384C46.5823 93.9312 46.3363 94.0597 46.0476 94.0168C45.7589 93.974 45.5451 93.792 45.5772 93.5992C45.6092 93.4064 45.8552 93.2779 46.1439 93.3208V93.3101Z" fill="url(#paint29_linear_43_32206)"/>
<path d="M46.2831 95.5377C46.5504 95.4199 46.807 95.4199 46.8712 95.5377C46.9247 95.6662 46.7643 95.8697 46.4969 95.9874C46.2403 96.116 45.973 96.1052 45.9195 95.9874C45.8554 95.8589 46.0265 95.6555 46.2831 95.5377Z" fill="url(#paint30_linear_43_32206)"/>
<path d="M47.5769 96.4588C47.6838 96.2768 47.8549 96.1804 47.9511 96.234C48.0473 96.2875 48.0366 96.491 47.9297 96.673C47.8228 96.8551 47.6517 96.9515 47.5555 96.8979C47.4592 96.8444 47.4699 96.6409 47.5769 96.4696V96.4588Z" fill="url(#paint31_linear_43_32206)"/>
<path d="M47.3947 90.9223C47.6406 91.0829 47.7369 91.3613 47.6192 91.5327C47.5016 91.7147 47.2129 91.7254 46.967 91.5648C46.7317 91.4042 46.6248 91.1257 46.7424 90.9544C46.8601 90.7723 47.1488 90.7616 47.3947 90.9223Z" fill="url(#paint32_linear_43_32206)"/>
<path d="M50.9771 88.9519C50.9771 89.2411 50.8274 89.4767 50.6563 89.4659C50.4852 89.4659 50.3569 89.2196 50.3676 88.9305C50.3676 88.6414 50.5173 88.4058 50.6883 88.4165C50.8594 88.4165 50.9877 88.6628 50.9771 88.9519Z" fill="url(#paint33_linear_43_32206)"/>
<path d="M52.0464 90.6332C51.886 90.7403 51.6935 90.751 51.6294 90.6439C51.5652 90.5475 51.6294 90.3762 51.8005 90.2691C51.9609 90.162 52.1533 90.1513 52.2175 90.2584C52.2816 90.3548 52.2068 90.5261 52.0464 90.6332Z" fill="url(#paint34_linear_43_32206)"/>
<path d="M51.7471 92.593C51.6722 92.5823 51.6401 92.4752 51.6615 92.3788C51.6829 92.2717 51.7578 92.2075 51.8326 92.2182C51.9075 92.2289 51.9395 92.336 51.9182 92.4324C51.8968 92.5395 51.8219 92.6144 51.7471 92.593Z" fill="url(#paint35_linear_43_32206)"/>
<path d="M49.4801 96.0948C49.4159 96.1162 49.341 96.0627 49.309 95.977C49.2769 95.8914 49.309 95.8057 49.3731 95.7843C49.4373 95.7628 49.5121 95.8164 49.5442 95.9021C49.5763 95.9877 49.5442 96.0734 49.4801 96.0948Z" fill="url(#paint36_linear_43_32206)"/>
<path d="M51.0839 94.2528C51.0411 94.3063 50.9769 94.3277 50.9342 94.2956C50.8914 94.2635 50.8807 94.1885 50.9235 94.135C50.9662 94.0814 51.0304 94.06 51.0732 94.0921C51.1159 94.1242 51.1266 94.1992 51.0839 94.2528Z" fill="url(#paint37_linear_43_32206)"/>
<path d="M50.8378 92.3787C50.8378 93.2782 50.2069 94.3812 49.4263 94.831C48.6458 95.2807 48.0149 94.9166 48.0149 94.0171C48.0149 93.1176 48.6458 92.0146 49.4263 91.5648C50.2069 91.1151 50.8378 91.4792 50.8378 92.3787Z" fill="url(#paint38_linear_43_32206)"/>
<path d="M50.9768 92.5069C50.9768 93.385 50.3674 94.4452 49.6082 94.8842C48.849 95.3233 48.2395 94.9699 48.2395 94.0918C48.2395 93.2137 48.849 92.1535 49.6082 91.7145C50.3674 91.2754 50.9768 91.6288 50.9768 92.5069Z" fill="url(#paint39_linear_43_32206)"/>
<path d="M58.3765 87.8916L58.0878 88.7269L56.3556 83.0085L50.3677 79.2176L52.3244 78.1039C52.3244 78.1039 57.8847 79.7959 58.2589 81.5092C58.6332 83.2226 58.3658 87.8916 58.3658 87.8916H58.3765Z" fill="#273234"/>
<path d="M46.4647 82.3876L48.8171 80.9955C50.1003 80.2566 51.362 79.8818 52.5703 79.8818C53.5006 79.8818 54.3346 80.096 55.051 80.5029L47.0208 76.2623C46.2723 75.8232 45.4062 75.5876 44.4331 75.5876C43.2248 75.5876 41.9631 75.9624 40.68 76.7013L38.3169 78.0935C34.8203 80.1174 31.7836 84.5615 30.9175 88.9306L29.4954 96.8229L37.7822 100.228L39.044 93.2248C39.9101 88.8664 42.9468 84.4116 46.4433 82.3876H46.4647Z" fill="url(#paint40_linear_43_32206)"/>
<path d="M52.5704 79.871C51.3621 79.871 50.1004 80.2458 48.8172 80.9847L46.4648 82.3768C42.9683 84.4007 39.9316 88.8448 39.0655 93.214L37.8037 100.217L38.7233 100.346L40.4555 99.2858L41.4285 93.8886C42.177 90.0977 44.8181 86.0927 47.9511 84.2829L50.3249 82.8801C53.8214 80.8562 56.6443 82.4946 56.655 86.5425C56.655 87.4527 56.5908 88.545 56.516 89.4552L57.7991 88.6628C57.8526 87.8596 57.8954 86.9922 57.8954 86.2212C57.8954 82.4303 55.7461 79.871 52.5704 79.871Z" fill="url(#paint41_linear_43_32206)"/>
<path d="M53.137 80.4918C51.9821 80.4918 50.7739 80.8559 49.5442 81.5627L47.1811 82.9548C43.7594 84.9359 40.7762 89.305 39.9314 93.5778L38.7231 100.335L40.4447 99.339V99.3069L41.4284 93.8669C42.1769 90.076 44.818 86.071 47.951 84.2612L50.3248 82.8584C53.8213 80.8345 56.6442 82.4729 56.6549 86.5208C56.6549 87.6666 56.5586 89.0694 56.4624 90.076L58.0663 89.1551C58.1305 88.3091 58.1732 87.356 58.1732 86.5208C58.1732 82.9012 56.1416 80.4811 53.1476 80.4811L53.137 80.4918Z" fill="#404B4D"/>
<path d="M66.0539 75.6519C64.9739 74.9023 59.4458 71.8182 59.4458 71.8182L60.0766 70.1262L51.0947 75.3735L50.4639 77.0654C50.4639 77.0654 55.992 80.1602 57.072 80.8991C58.1519 81.6487 58.0878 83.0195 58.0878 83.0195L57.9167 88.8343L66.8986 83.587L67.0697 77.7722C67.0697 77.7722 67.1338 76.4015 66.0539 75.6519Z" fill="url(#paint42_linear_43_32206)"/>
<path d="M59.0394 82.4301L59.018 83.0941L66.1714 78.9605L66.1928 78.4037C66.1928 78.4037 66.257 77.033 65.177 76.2834C64.9525 76.1227 64.5354 75.8657 64.0115 75.5552L56.8901 79.5923C57.3927 79.8922 57.799 80.1385 58.0236 80.2991C59.1035 81.0487 59.0394 82.4194 59.0394 82.4194V82.4301Z" fill="#404B4D"/>
<path d="M58.9967 84.0476L58.9111 87.5708L66.0218 83.4158L66.1501 79.9248L58.9967 84.0476Z" fill="#273234"/>
<path d="M65.177 76.3052C64.9524 76.1446 64.5354 75.8876 64.0115 75.577V77.6866L66.1714 78.9717L66.1928 78.4148C66.1928 78.4148 66.2569 77.0441 65.177 76.2945V76.3052Z" fill="#273234"/>
<path d="M64.1933 81.0492L58.9967 84.0476L58.9111 87.5708L66.0218 83.4158L64.1933 82.3235V81.0492Z" fill="#333E40"/>
<path d="M58.5583 80.8345C59.0823 81.5627 59.0502 82.4301 59.0502 82.4301L59.0288 83.094L66.1823 78.9605L64.0223 77.6754L58.5583 80.8238V80.8345Z" fill="#5A6567"/>
<path d="M64.1933 82.3232L58.9646 85.4073L58.9111 87.5705L66.0218 83.4155L64.1933 82.3232Z" fill="#5A6567"/>
<g style="mix-blend-mode:multiply" opacity="0.2">
<path d="M65.7866 72.375C64.0436 71.3791 62.258 70.3724 62.258 70.3724L59.7559 70.9721L51.0947 75.3734L50.4639 77.0654C50.4639 77.0654 52.0571 77.9542 53.7038 78.8965L65.7866 72.3857V72.375Z" fill="black"/>
</g>
<path d="M40.0276 88.1059C41.4818 85.5144 43.4921 83.2013 45.7162 81.9056L48.0793 80.5135L62.739 72.2035L64.1397 71.9037V44.1897L63.4126 43.4615C63.4126 43.4615 62.5144 36.3723 60.9533 34.9695C59.4029 33.5667 49.4372 32.8171 43.4921 28.9084C37.5469 24.989 32.9918 20.9733 31.174 17.0004C31.174 17.0004 28.1266 20.8019 27.2819 21.6801C26.4372 22.5582 21.0373 30.1292 21.0373 30.1292C21.0373 30.1292 20.2888 30.836 19.8504 31.5749C19.412 32.3138 18.2679 34.4234 18.2679 34.4234C18.2679 34.4234 10.8365 39.7027 9.41432 40.7415C7.99219 41.7802 4.0038 45.1749 3.59747 46.3742C3.59747 46.3742 1.43754 48.3125 1.08468 49.0514C0.731821 49.7903 0.731821 51.5679 0.731821 51.5679L1.72625 52.4353L1.27715 61.859C1.27715 61.859 0.560737 62.3516 0.507274 63.2939C0.45381 64.2363 0.507274 69.5157 0.507274 69.5157C0.507274 69.5157 -0.0380558 70.0404 0.0154078 70.7793C0.0688715 71.5396 0.0154078 76.155 0.0154078 76.155C0.0154078 76.155 -0.0059776 76.9475 0.881519 77.5686L2.44266 86.596L17.2307 96.5658L27.2819 100.635L33.7189 93.2461V92.5821L38.3596 89.9585C39.1294 89.5194 39.7282 88.6413 40.0169 88.1166L40.0276 88.1059Z" fill="#E1E8EC"/>
<g style="mix-blend-mode:multiply" opacity="0.15">
<path d="M54.8478 47.5204C51.1267 49.3837 44.9356 53.1638 41.4177 55.4127C37.8891 57.6508 32.8742 61.8914 31.6766 65.875C31.3238 67.0423 30.8854 68.4558 30.4363 69.8586L33.7617 70.0086L54.2811 60.2316C54.2811 60.2316 54.2811 62.0627 52.998 63.5084C51.7255 64.9541 48.2718 67.8775 44.8287 70.3512C41.3856 72.825 34.0183 78.2114 32.9277 79.0039C31.837 79.7963 30.308 80.7279 28.1587 80.578C26.0095 80.4281 23.2615 78.7897 20.2782 77.2155C17.2949 75.6413 2.67794 66.3462 2.67794 66.3462C2.67794 66.3462 1.07403 65.1254 0.496618 63.5941C0.46454 65.029 0.496618 69.5267 0.496618 69.5267C0.496618 69.5267 0.475233 69.5481 0.443155 69.5802C0.496618 69.9336 0.774629 71.6577 1.68351 72.3966C1.68351 72.3966 0.443154 71.5399 0.00475233 70.5226C0.00475233 70.6083 -0.00594041 70.6939 0.00475233 70.7796C0.0689087 71.5399 0.0154451 76.1553 0.0154451 76.1553C0.0154451 76.1553 -0.00594036 76.9478 0.881557 77.5689L2.4427 86.5963L17.2308 96.5661L27.2819 100.635L33.7189 93.2464V92.5824L38.3596 89.9588C39.1295 89.5198 39.7283 88.6417 40.017 88.1169C41.4712 85.5254 43.4814 83.2124 45.7055 81.9166L48.0686 80.5245L62.7283 72.2146L64.1291 71.9147V44.2007C64.1291 44.2007 61.0175 44.4363 54.8371 47.5418L54.8478 47.5204ZM0.421769 76.4231C0.282763 75.909 0.646316 75.7591 0.646316 75.7591L1.61936 76.1553C1.61936 76.1553 1.56589 77.269 2.48547 78.4898C2.48547 78.4898 0.550082 76.9371 0.421769 76.4231ZM29.2173 93.7604C29.2173 93.7604 27.2819 93.5034 25.1541 92.3147C25.1968 92.3147 27.3995 92.7002 29.2173 92.7324V93.7604ZM33.4196 87.3994C31.9974 88.1812 29.4739 88.481 29.4739 88.481C29.4739 88.481 27.5813 87.9028 25.1113 86.8212C25.1113 86.8212 28.5651 87.785 30.1262 87.5065C31.6873 87.2388 33.4089 86.3179 33.4089 86.3179V87.3994H33.4196ZM32.3717 83.3623C32.3717 83.3623 31.42 83.8977 31.2489 83.6942C31.0778 83.4908 31.5056 82.3342 31.5056 82.3342L56.9543 65.8322C56.9543 65.8322 57.7241 66.3783 57.4354 66.8602C57.136 67.3421 55.8315 68.1131 55.8315 68.1131L32.3824 83.3516L32.3717 83.3623ZM57.4996 73.4782C57.4996 73.8101 57.2644 74.2278 56.9757 74.3884L41.3856 83.4372C41.1718 83.5657 40.99 83.5443 40.9045 83.4051C40.99 83.4051 41.0862 83.3837 41.1932 83.3194L56.7832 74.2706C57.0719 74.0993 57.3071 73.6924 57.3071 73.3604V68.5629C57.3071 68.4558 57.2857 68.3809 57.243 68.3166C57.3927 68.3166 57.4996 68.4451 57.4996 68.67V73.4675V73.4782Z" fill="black"/>
</g>
<g style="mix-blend-mode:multiply" opacity="0.15">
<path d="M57.2321 65.1571L31.6978 81.8626L31.5054 82.3231L56.9541 65.8318L57.2321 65.1571Z" fill="black"/>
</g>
<g style="mix-blend-mode:multiply" opacity="0.07">
<path d="M56.9543 65.8317L31.5056 82.3337C31.5056 82.3337 31.0672 83.4903 31.249 83.6937C31.4308 83.8972 32.3717 83.3617 32.3717 83.3617L55.8209 68.1233C55.8209 68.1233 57.1361 67.3523 57.4248 66.8704C57.7242 66.3885 56.9436 65.8424 56.9436 65.8424L56.9543 65.8317Z" fill="black"/>
</g>
<g style="mix-blend-mode:multiply" opacity="0.15">
<path d="M40.9043 83.3407C40.9043 83.0623 41.022 82.5804 41.1503 82.2805L43.075 78.0292C43.214 77.7294 43.5561 77.3224 43.8342 77.1404L57.029 68.5092C57.2321 68.3807 57.4032 68.4021 57.4781 68.552C57.4353 68.3057 57.2215 68.2308 56.9862 68.3914L43.7914 77.0119C43.5134 77.1939 43.1712 77.5901 43.0322 77.9007L41.1075 82.152C40.9685 82.4519 40.8616 82.9338 40.8616 83.2122C40.8616 83.2872 40.883 83.3514 40.915 83.3942C40.915 83.3728 40.915 83.3514 40.915 83.3193L40.9043 83.3407Z" fill="black"/>
</g>
<g style="mix-blend-mode:multiply" opacity="0.15">
<path d="M25.1221 86.8207V87.0563C27.4531 88.0629 29.2174 88.5983 29.2174 88.5983V93.7599C29.2174 93.7599 27.2499 93.5029 25.1221 92.2928V92.7212L29.4847 94.2311V88.4805C29.4847 88.4805 27.5921 87.9023 25.1221 86.8207Z" fill="black"/>
</g>
<path style="mix-blend-mode:multiply" opacity="0.1" d="M14.6218 56.612C20.1179 59.7924 27.6991 64.108 28.779 64.6649C29.8697 65.211 30.7144 65.0504 31.0031 64.9326C31.1635 64.8683 31.7623 64.6327 32.2435 64.4507C34.0398 60.9168 38.2956 57.3937 41.4071 55.4233C41.482 55.3805 41.5461 55.3269 41.621 55.2841L11.0184 38.0538C11.0184 38.0538 3.70456 45.4535 3.00953 46.4923C2.3145 47.531 2.23965 48.3127 2.48559 48.7839C2.73152 49.2444 9.12577 53.4315 14.6218 56.612Z" fill="url(#paint43_linear_43_32206)"/>
<g style="mix-blend-mode:multiply" opacity="0.15">
<path d="M60.9533 34.959C60.8678 34.8733 60.7502 34.7983 60.6005 34.7234C58.2481 36.1476 52.7413 39.6815 50.2392 43.0547C48.0151 46.0532 46.5181 49.3728 45.791 51.1505C47.1276 51.0327 48.507 50.2724 49.2875 49.7905C50.3568 49.1265 53.6395 46.8777 56.9115 45.5606C59.5846 44.4897 62.4503 43.7187 63.434 43.4831L63.4019 43.451C63.4019 43.451 62.5038 36.3618 60.9426 34.959H60.9533Z" fill="black"/>
</g>
<path style="mix-blend-mode:multiply" opacity="0.1" d="M45.8016 51.1611C46.518 49.3835 48.0257 46.0638 50.2498 43.0654C50.3888 42.8833 50.5385 42.6906 50.6882 42.5085L23.3576 26.906C22.1065 28.6408 21.0372 30.1293 21.0372 30.1293C21.0372 30.1293 20.2887 30.8361 19.8503 31.575C19.4119 32.3139 18.2678 34.4235 18.2678 34.4235C18.2678 34.4235 18.225 34.4556 18.1609 34.4985C18.4496 35.3016 18.9842 35.987 19.444 36.1476C20.246 36.4153 25.6565 39.2103 30.6393 42.1016C35.6221 45.0037 42.6793 50.3044 44.3474 50.9791C44.8072 51.1611 45.2991 51.204 45.8016 51.1611Z" fill="url(#paint44_linear_43_32206)"/>
<path style="mix-blend-mode:screen" opacity="0.2" d="M43.4389 50.4865C41.2362 52.1356 33.516 57.9504 31.9976 59.471C29.9339 61.5271 29.1213 64.0115 29.1106 64.0329L29.3138 64.0972C29.3138 64.0972 30.1264 61.6342 32.1473 59.6209C33.6764 58.0896 41.5462 52.1784 43.642 50.6042C43.5779 50.5614 43.5137 50.5293 43.4389 50.4865Z" fill="url(#paint45_linear_43_32206)"/>
<path style="mix-blend-mode:multiply" opacity="0.2" d="M41.6531 49.3408C39.8353 50.7008 31.5592 56.9118 29.9766 58.4967C27.9129 60.5528 27.1003 63.0372 27.0896 63.0586L27.2928 63.1229C27.2928 63.1229 28.1054 60.6706 30.1263 58.6467C31.7196 57.0618 40.1561 50.7222 41.8349 49.4693C41.7707 49.4265 41.7066 49.3837 41.6424 49.3408H41.6531Z" fill="url(#paint46_linear_43_32206)"/>
<path style="mix-blend-mode:screen" opacity="0.2" d="M39.8566 48.1306C38.103 49.4371 29.7412 55.7231 28.148 57.3079C26.0843 59.364 25.2717 61.8484 25.261 61.8698L25.4641 61.9341C25.4641 61.9341 26.2768 59.4711 28.2977 57.4579C29.8909 55.8623 38.4237 49.4585 40.0383 48.2591C39.9742 48.2163 39.91 48.1734 39.8566 48.1306Z" fill="url(#paint47_linear_43_32206)"/>
<path style="mix-blend-mode:multiply" opacity="0.2" d="M38.4879 47.188C37.44 47.9697 28.2335 54.8554 26.5548 56.5259C24.4911 58.582 23.6784 61.0664 23.6677 61.0878L23.8709 61.1521C23.8709 61.1521 24.6835 58.6998 26.7045 56.6758C28.4046 54.9732 37.9746 47.8305 38.6696 47.3057C38.6055 47.2629 38.5413 47.2201 38.4772 47.1772L38.4879 47.188Z" fill="url(#paint48_linear_43_32206)"/>
<path style="mix-blend-mode:screen" opacity="0.2" d="M23.6462 38.2249C22.8228 38.846 13.3811 45.903 11.681 47.5949C9.61729 49.651 8.80464 52.1354 8.79395 52.1568L8.99711 52.2211C8.99711 52.2211 9.80976 49.7688 11.8307 47.7449C13.5843 45.9886 23.7317 38.4283 23.8386 38.3534L23.8065 38.2998C23.8065 38.2998 23.7103 38.2463 23.6568 38.2249H23.6462Z" fill="url(#paint49_linear_43_32206)"/>
<path style="mix-blend-mode:multiply" opacity="0.2" d="M22.2349 37.4857C20.8234 38.5352 12.034 45.1317 10.398 46.7594C8.33433 48.8155 7.52168 51.2999 7.51099 51.3213L7.71415 51.3856C7.71415 51.3856 8.5268 48.9333 10.5477 46.9093C12.2051 45.2495 21.3581 38.4067 22.4487 37.5928C22.3739 37.55 22.3097 37.5178 22.2349 37.4857Z" fill="url(#paint50_linear_43_32206)"/>
<path style="mix-blend-mode:multiply" opacity="0.2" d="M18.8453 35.6869C17.3911 36.7791 8.65511 43.3221 7.01912 44.9499C4.95542 47.0059 4.14277 49.4903 4.13208 49.5117L4.33524 49.576C4.33524 49.576 5.14789 47.1237 7.16882 45.0998C8.79411 43.4721 17.6049 36.8755 18.9843 35.8368C18.9308 35.7832 18.8881 35.7404 18.8346 35.6761L18.8453 35.6869Z" fill="url(#paint51_linear_43_32206)"/>
<path style="mix-blend-mode:screen" opacity="0.2" d="M20.2675 36.5011C18.9309 37.497 10.0559 44.1471 8.40926 45.7855C6.34556 47.8415 5.53291 50.326 5.52222 50.3474L5.72538 50.4116C5.72538 50.4116 6.53803 47.9593 8.55895 45.9354C10.227 44.2648 19.519 37.3149 20.4814 36.5974C20.4065 36.5653 20.3317 36.5225 20.2568 36.4904L20.2675 36.5011Z" fill="url(#paint52_linear_43_32206)"/>
<path d="M38.3704 89.9477L33.7297 92.5713V93.2353L33.3127 93.7172L32.7781 100.721L37.6647 97.9364C37.6647 97.9364 38.0175 91.5754 39.8139 88.4913C39.4824 88.9946 38.9906 89.6157 38.3811 89.9584L38.3704 89.9477Z" fill="#273234"/>
<path d="M37.654 97.9259L39.397 99.0075L34.3714 102.092C34.3714 102.092 33.7726 102.402 33.3556 102.199C32.9385 101.995 33.131 100.432 33.131 100.432L37.654 97.9259Z" fill="#5A6567"/>
<path d="M34.3712 102.091C34.3712 102.091 33.7724 102.402 33.3554 102.198C33.1629 102.102 33.0988 101.727 33.0881 101.342C32.9384 101.545 32.4679 102.252 32.7032 102.573C33.2913 103.376 34.3712 102.948 34.3712 102.948L39.3968 99.8638V99.0071L34.3712 102.091Z" fill="#404B4D"/>
<path d="M38.0066 92.1218L39.8885 93.4069L34.2321 96.7051C34.2321 96.7051 33.8257 96.7266 33.6012 96.5552C33.366 96.3946 33.4301 94.6491 33.4301 94.6491L38.0066 92.1325V92.1218Z" fill="#5A6567"/>
<path d="M34.243 96.6941C34.243 96.6941 33.8367 96.7156 33.6121 96.5442C33.5266 96.48 33.4838 96.1908 33.4518 95.8482H33.4304C33.4304 95.8482 33.3769 97.5937 33.6015 97.765C33.8367 97.9256 34.2323 97.9149 34.2323 97.9149L39.8888 94.6167V93.3959L34.2323 96.6941H34.243Z" fill="#404B4D"/>
<path d="M22.9515 77.8685C21.0482 76.9047 14.0337 72.6106 11.2429 71.0043C8.49489 69.4194 4.29265 66.4959 3.30892 65.7784C3.16991 65.9498 3.00952 66.2068 3.00952 66.5495C3.00952 67.1813 3.58693 70.758 3.58693 70.758L24.6195 82.3983L24.7051 80.4921C24.7051 80.4921 24.7051 79.5819 25.2718 78.9929C24.4592 78.6288 23.6786 78.2219 22.9622 77.8578L22.9515 77.8685Z" fill="#485255"/>
<path d="M20.289 77.2154C17.573 75.7804 5.16945 67.9203 3.00952 66.5496C3.00952 67.1814 3.28753 70.7795 3.28753 70.7795L24.6088 82.4091L24.6944 80.503C24.6944 80.503 24.6944 80.0639 24.8869 79.6034C23.4647 78.9609 21.9143 78.0828 20.289 77.2261V77.2154Z" fill="#2E383B"/>
<path d="M34.3712 93.91L33.6334 93.1711C32.6069 93.6637 30.8426 94.0385 29.506 93.9957C28.1801 93.9529 26.1485 93.0105 25.1861 92.55C24.2345 92.0895 24.1062 91.9825 24.1062 91.9825L9.24325 83.2014L4.44221 79.9566L3.55472 79.6247L1.00985 77.5258C0.550059 77.8899 0.571444 78.4788 0.571444 78.4788V84.3793C0.571444 86.6281 0.924304 87.6562 1.74764 88.3094C2.58168 88.9519 9.27533 93.3103 11.6598 94.7667C14.0443 96.2124 23.5501 101.588 24.6194 102.134C25.678 102.68 27.2712 103.505 29.0569 103.644C30.8426 103.773 33.3233 102.241 33.3233 102.241L33.5265 98.2149L33.6975 96.6193L34.1252 96.116L34.3712 93.9314V93.91Z" fill="#404B4D"/>
<path d="M33.1204 98.5363L33.2487 96.0305L32.7996 95.3023C32.7996 95.3023 31.2278 96.1911 29.3993 96.1376C27.5602 96.0841 24.1919 94.3492 24.1919 94.3492L24.1492 97.1763L33.1311 98.5363H33.1204Z" fill="#273234"/>
<path d="M24.2665 100.485V99.3824C24.2665 99.3824 24.1488 99.0076 24.6407 99.2217C25.1326 99.4466 27.8592 100.485 27.8592 100.485C27.8592 100.485 28.2228 100.635 28.2442 101.074C28.2655 101.513 28.2442 102.359 28.2442 102.359C28.2442 102.359 28.1693 102.798 27.6347 102.595C27.1 102.392 24.6407 101.31 24.6407 101.31C24.6407 101.31 24.2665 101.16 24.2665 100.496V100.485Z" fill="#5A6567"/>
<path d="M2.67786 88.1169C2.67786 88.1169 3.29803 88.5773 3.27665 87.9991C3.25526 87.303 3.27665 86.864 3.27665 86.864C3.27665 86.864 3.31942 86.5213 2.89171 86.2C2.464 85.8788 0.870784 84.5723 0.870784 84.5723C0.870784 84.5723 0.614158 84.401 0.635543 84.9043C0.656929 85.4076 0.731778 86.6069 1.00979 86.8961C1.2878 87.1959 2.45331 87.9348 2.67786 88.1062V88.1169Z" fill="#5A6567"/>
<path d="M32.7885 98.3648L29.0995 98.0007L21.7215 95.0879L5.68242 85.1289L0.571289 81.9912V83.2655C1.2984 83.9616 2.68845 84.9682 2.92369 85.1181C3.22309 85.3109 3.72565 85.675 3.62941 85.9106C3.53318 86.1462 3.72565 86.7137 4.11058 87.035C4.49552 87.3563 9.67081 90.6117 11.6383 91.8753C13.6057 93.1389 21.7001 97.7437 22.6411 98.1827C23.5821 98.6218 23.7318 98.0756 23.7318 98.0756C24.3199 98.3648 27.2497 99.714 28.8322 99.8104C30.4147 99.9068 33.1307 98.5254 33.1307 98.5254L32.7885 98.3541V98.3648Z" fill="#5A6567"/>
<path d="M29.506 93.9957C28.1801 93.9529 26.1485 93.0105 25.1861 92.55C24.2345 92.0895 24.1062 91.9825 24.1062 91.9825L9.24325 83.2014L4.44221 79.9566L3.55472 79.6247L1.00985 77.5258C0.550059 77.8899 0.571444 78.4788 0.571444 78.4788V79.0143C1.60864 80.2993 3.8755 81.7557 3.8755 81.7557L24.2131 93.8458C24.2131 93.8458 26.7152 95.2593 29.1104 95.5913C31.4948 95.9125 34.3819 93.91 34.3819 93.91L33.6441 93.1711C32.6176 93.6637 30.8533 94.0385 29.5167 93.9957H29.506Z" fill="#5A6567"/>
<path d="M3.70426 85.0002L4.09989 84.8931V82.5801C4.09989 82.5801 1.30909 80.3205 1.12731 80.1599C0.998998 80.0528 0.73168 79.6887 0.571289 79.4531V82.4623L3.71495 85.0002H3.70426Z" fill="#C9C9CA"/>
<path d="M0.753418 82.3767V79.9994C0.871038 80.1386 0.95658 80.2457 1.01004 80.2885C1.18113 80.4384 3.49076 82.3018 3.92916 82.6551V84.7433L3.75808 84.7969L0.764111 82.3767H0.753418Z" fill="url(#paint53_linear_43_32206)"/>
<path d="M3.76841 83.5011C3.76841 84.0044 3.41555 84.2078 2.98785 83.9508C2.56014 83.7045 2.20728 83.0941 2.20728 82.5908C2.20728 82.0875 2.56014 81.8948 2.98785 82.1411C3.41555 82.3874 3.76841 82.9978 3.76841 83.5011Z" fill="white"/>
<path d="M2.20738 82.2164C2.20738 82.7197 1.85452 82.9232 1.42681 82.6662C0.999101 82.4199 0.64624 81.8095 0.64624 81.3062C0.64624 80.8029 0.999101 80.6101 1.42681 80.8564C1.85452 81.1027 2.20738 81.7131 2.20738 82.2164Z" fill="white"/>
<path opacity="0.7" d="M0.560791 79.4531V80.1492C1.59799 81.1772 3.70446 82.7621 3.70446 82.7621V85.0109L4.10009 84.9038V82.5908C4.10009 82.5908 1.30928 80.3312 1.12751 80.1706C0.999193 80.0635 0.731875 79.6994 0.571484 79.4638L0.560791 79.4531Z" fill="white"/>
<path d="M0.560791 80.1378V82.4616L3.70446 84.9995V82.7507C3.70446 82.7507 1.59799 81.1658 0.560791 80.1378Z" fill="url(#paint54_linear_43_32206)"/>
<path d="M24.2025 94.0493L12.5367 87.3778L4.24986 82.1948V85.3003C4.24986 85.3003 4.02532 86.0071 5.04113 86.7567C6.49534 87.8276 11.6492 91.0295 13.7343 92.2717C15.8087 93.5139 20.5884 96.266 22.7376 97.3583C23.1974 97.5832 23.9673 97.9259 24.0421 97.0263C24.117 96.1268 24.1918 94.0493 24.1918 94.0493H24.2025Z" fill="#2E383B"/>
<path d="M24.5873 83.1265L3.50122 70.6724L3.76854 79.4428L8.99729 83.2336L9.10421 84.1117L19.0271 90.0551L19.6793 89.5732L22.1494 90.6012L24.2772 91.7684L24.5873 83.1265Z" fill="#2E383B"/>
<path d="M12.451 75.5552C7.86384 72.7602 3.8006 69.9438 3.18042 69.5155L3.22319 70.8113C3.96099 71.3253 7.96007 74.0881 12.451 76.8188C17.1558 79.678 22.9513 82.7835 24.3734 83.5439L24.5766 83.4154L24.6087 82.398C23.8067 81.9697 17.498 78.6179 12.451 75.5445V75.5552Z" fill="#E1E8EC"/>
<path d="M12.4509 81.3272C8.18448 78.7357 4.37787 76.1228 3.36206 75.416L3.40483 76.7118C4.4848 77.4614 8.24864 80.0422 12.4509 82.5908C16.9632 85.3322 22.4807 88.3093 24.1701 89.2088L24.3733 89.1017L24.4054 88.063C23.0581 87.3455 17.1985 84.2078 12.4509 81.3165V81.3272Z" fill="#E1E8EC"/>
<path d="M12.4512 78.2646C8.03507 75.5875 4.11084 72.8782 3.26611 72.2892L3.30888 73.5849C4.23915 74.2275 8.10992 76.8939 12.4512 79.5282C17.0491 82.3232 22.6734 85.3538 24.2666 86.1997L24.4805 86.0712L24.5126 85.0646C23.4005 84.4756 17.3378 81.2309 12.4512 78.2646Z" fill="#E1E8EC"/>
<path d="M12.451 84.1224C8.30226 81.6059 4.58118 79.0572 3.44775 78.2755L3.49052 79.5713C4.66673 80.3851 8.35572 82.9017 12.451 85.3861C16.9099 88.0954 22.3418 91.0295 24.1168 91.9719L24.2772 91.8862L24.32 90.8047C22.8123 90.0015 17.1024 86.9388 12.4617 84.1117L12.451 84.1224Z" fill="#E1E8EC"/>
<path d="M12.4512 86.7029C8.39864 84.2399 4.76311 81.7555 3.53345 80.9095L3.57622 82.1089L3.5976 82.2267C4.88073 83.1155 8.4628 85.5571 12.4512 87.9773C16.7604 90.5902 21.9677 93.4173 23.9138 94.456L24.1918 94.3596L24.2239 93.353C22.5879 92.4856 17.0063 89.4765 12.4512 86.7029Z" fill="#E1E8EC"/>
<path d="M12.4513 89.4656C8.77301 87.2275 5.42618 84.968 3.9292 83.9399V85.2143C5.42618 86.2423 8.77301 88.4911 12.4513 90.7292C16.6322 93.2672 21.6791 96.0086 23.7428 97.1223L24.0957 97.0045L24.1278 96.0514C22.3849 95.1198 16.9209 92.1749 12.4513 89.4549V89.4656Z" fill="#E1E8EC"/>
<g style="mix-blend-mode:multiply" opacity="0.2">
<path d="M23.7207 96.4689C21.6463 95.3552 16.6207 92.6245 12.4398 90.0865C8.76153 87.8484 5.41471 85.5889 3.91772 84.5715V85.2141C5.41471 86.2421 8.76153 88.4909 12.4398 90.729C16.5993 93.2563 21.6035 95.9763 23.6993 97.1007L23.7207 96.4689Z" fill="black"/>
<path d="M23.9134 93.8025C21.9673 92.7637 16.76 89.9366 12.4508 87.3237C8.41964 84.8714 4.7948 82.4085 3.55444 81.5518L3.57583 82.1086L3.59721 82.2264C4.88034 83.1152 8.46241 85.5568 12.4508 87.977C16.76 90.5899 21.9673 93.417 23.9134 94.4557V93.8132V93.8025Z" fill="#E1E8EC"/>
<path d="M24.1057 91.3392C22.3414 90.3968 16.9095 87.4626 12.4399 84.7533C8.31251 82.2475 4.61282 79.7203 3.45801 78.9171L3.47939 79.5811C4.65559 80.3949 8.34459 82.9114 12.4399 85.3959C16.8988 88.1051 22.3307 91.0393 24.1057 91.9817V91.3285V91.3392Z" fill="black"/>
<path d="M24.1697 88.566C22.4803 87.6665 16.9628 84.6895 12.4505 81.9481C8.21617 79.378 4.43094 76.7758 3.38306 76.0476L3.40444 76.7115C4.48441 77.4612 8.24825 80.0419 12.4505 82.5906C16.9628 85.332 22.4803 88.309 24.1697 89.2086V88.566Z" fill="black"/>
<path d="M24.2555 85.5569C22.673 84.7216 17.0379 81.6804 12.44 78.8961C8.06671 76.2404 4.16386 73.5525 3.27637 72.9314L3.29775 73.5953C4.22802 74.2379 8.09879 76.9043 12.44 79.5386C17.0379 82.3336 22.6623 85.3642 24.2555 86.2101V85.5569Z" fill="black"/>
<path d="M24.373 82.901C22.9616 82.1514 17.1661 79.0352 12.4506 76.176C7.90622 73.4131 3.88575 70.6289 3.20142 70.1577L3.2228 70.8217C3.9606 71.3357 7.95968 74.0985 12.4506 76.8292C17.1554 79.6884 22.9509 82.7939 24.373 83.5543V82.9117V82.901Z" fill="black"/>
</g>
<path d="M32.7461 95.4949L33.131 96.041L32.9599 98.3648C32.9599 98.3648 31.0352 99.2751 29.3993 99.2751C27.7633 99.2751 24.085 97.3154 24.085 97.3154L24.1491 95.088L24.4485 94.6061C24.4485 94.6061 27.5173 96.3302 29.442 96.3088C31.3667 96.2873 32.7461 95.4949 32.7461 95.4949Z" fill="#C9C9CA"/>
<path d="M29.6235 96.9298L29.677 96.4801C31.1633 96.4158 32.2967 95.9232 32.6817 95.7305L32.9383 96.0839L32.7779 98.2363C32.393 98.4076 30.9387 99.0073 29.6235 99.0716V96.9298Z" fill="#F09041"/>
<path d="M29.2601 99.0822C27.7845 98.9965 24.844 97.508 24.2666 97.2082L24.3201 95.1414L24.5018 94.8416C25.1327 95.1842 27.5813 96.4372 29.3029 96.48L29.2494 96.9083V99.0822H29.2601Z" fill="url(#paint55_linear_43_32206)"/>
<path d="M26.3194 97.0586C26.3194 97.5619 25.9666 97.7547 25.5389 97.5084C25.1112 97.2621 24.7583 96.6517 24.7583 96.1484C24.7583 95.6451 25.1112 95.4416 25.5389 95.6986C25.9666 95.9449 26.3194 96.5553 26.3194 97.0586Z" fill="white"/>
<path d="M28.6615 98.0222C28.6615 98.6219 28.2338 98.8682 27.7205 98.5683C27.1966 98.2685 26.7795 97.5296 26.7795 96.9299C26.7795 96.3302 27.2072 96.0839 27.7205 96.3838C28.2444 96.6836 28.6615 97.4225 28.6615 98.0222Z" fill="white"/>
<path opacity="0.7" d="M33.1201 96.041L32.7351 95.4949C32.7351 95.4949 31.3558 96.2873 29.4311 96.3088C27.5064 96.3302 24.4376 94.6061 24.4376 94.6061L24.1382 95.088C24.1382 95.088 27.5171 96.9406 29.4311 96.9191C31.3558 96.8977 33.1094 96.041 33.1094 96.041H33.1201Z" fill="white"/>
<path d="M29.3991 99.2744C31.035 99.2744 32.9597 98.3641 32.9597 98.3641L33.1308 96.0404C33.1308 96.0404 31.3665 96.9078 29.4525 96.9185C27.5278 96.9399 24.1596 95.0873 24.1596 95.0873L24.0955 97.3147C24.0955 97.3147 27.7738 99.2744 29.4097 99.2744H29.3991Z" fill="url(#paint56_linear_43_32206)"/>
<path d="M18.0541 96.951C18.0541 97.0474 17.9793 97.0902 17.8938 97.0367C17.8938 97.0367 14.4186 95.0341 13.2638 94.3488C12.1518 93.6848 8.85839 91.6074 8.85839 91.6074C8.77285 91.5538 8.698 91.436 8.698 91.3289V90.7721C8.698 90.6757 8.77285 90.6329 8.85839 90.6864C8.85839 90.6864 12.2373 92.8067 13.3707 93.4921C14.4935 94.1667 17.8831 96.1157 17.8831 96.1157C17.9686 96.1692 18.0435 96.287 18.0435 96.3941V96.951H18.0541Z" fill="#5A6567"/>
<path d="M17.8937 96.116C17.8937 96.116 14.4934 94.1671 13.3814 93.4924C12.4725 92.9463 10.1201 91.4685 9.22192 90.9116V91.19C9.22192 91.2864 9.29677 91.4149 9.38232 91.4685C9.38232 91.4685 12.6757 93.546 13.7877 94.2099C14.7073 94.7667 17.1452 96.1696 18.0648 96.705V96.4052C18.0648 96.3088 17.99 96.1803 17.9044 96.1267L17.8937 96.116Z" fill="#263133"/>
<path d="M28.2337 101.074C28.2123 100.635 27.8488 100.485 27.8488 100.485C27.8488 100.485 25.6888 99.6605 24.8655 99.3285V100.217C24.8655 100.881 25.2397 101.031 25.2397 101.031C25.2397 101.031 27.6884 102.113 28.223 102.316C28.223 102.145 28.2444 101.449 28.223 101.074H28.2337Z" fill="#273234"/>
<path d="M28.2337 101.074C28.2123 100.635 27.8487 100.485 27.8487 100.485C27.8487 100.485 25.9133 99.7464 25.0151 99.3823V100.164C25.0151 100.839 25.3894 100.978 25.3894 100.978C25.3894 100.978 27.5172 101.91 28.2337 102.209C28.2337 101.942 28.2443 101.396 28.2337 101.074Z" fill="#DEE5E9"/>
<path d="M1.50174 86.6174C1.77975 86.9173 2.94526 87.6562 3.1698 87.8275C3.1698 87.8275 3.21257 87.8596 3.28742 87.9025C3.27673 87.2707 3.28742 86.8637 3.28742 86.8637C3.28742 86.8637 3.33019 86.5211 2.90249 86.1998C2.5817 85.9642 1.60866 85.1718 1.13818 84.7863C1.17026 85.3538 1.2558 86.3497 1.50174 86.6174Z" fill="#273234"/>
<path d="M2.90235 86.1998C2.61364 85.9856 1.76892 85.3002 1.26636 84.8933C1.29844 85.4716 1.39467 86.3283 1.61922 86.5746C1.88654 86.8637 3.01997 87.5919 3.2659 87.7739C3.2659 87.2171 3.2659 86.8637 3.2659 86.8637C3.2659 86.8637 3.30867 86.521 2.88096 86.1998H2.90235Z" fill="#DEE5E9"/>
<path d="M16.6748 97.883C16.5999 97.883 16.5251 97.8616 16.4502 97.8081L10.1736 94.0493C9.93837 93.9101 9.75659 93.5781 9.75659 93.2997V92.4109C9.75659 92.1432 9.91698 92.0254 10.0774 92.0254C10.1522 92.0254 10.2271 92.0468 10.3019 92.1004L16.5786 95.8591C16.8138 95.9983 17.0063 96.3303 17.0063 96.6087V97.4975C17.0063 97.7652 16.8459 97.883 16.6855 97.883H16.6748Z" fill="#939A9E"/>
<path d="M16.8778 97.5082C16.8778 97.7438 16.7174 97.8402 16.5142 97.7117L10.2376 93.9422C10.0344 93.8244 9.87402 93.5353 9.87402 93.2997V92.4109C9.87402 92.1753 10.0344 92.0896 10.2376 92.2074L16.5142 95.9662C16.7174 96.084 16.8778 96.3731 16.8778 96.6087V97.4975V97.5082Z" fill="#DEE5E9"/>
<g style="mix-blend-mode:multiply" opacity="0.2">
<path d="M47.4218 67.2954L47.3149 67.2997L47.8471 80.7285L47.9539 80.7242L47.4218 67.2954Z" fill="black"/>
</g>
<g style="mix-blend-mode:multiply" opacity="0.2">
<path d="M33.6655 78.6936H33.5586V86.1361H33.6655V78.6936Z" fill="black"/>
</g>
<g style="mix-blend-mode:multiply" opacity="0.2">
<path d="M58.8789 73.7455H58.772V63.3581L57.5851 51.2466L34.1787 64.7288L34.1252 64.6325L57.6706 51.0646L57.6813 51.1502L58.8789 63.3581V73.7455Z" fill="black"/>
</g>
<path d="M46.347 58.6355C42.8932 60.6059 39.2043 62.7048 38.2847 63.1974C36.6487 64.0862 33.7617 65.8317 33.7617 65.8317C33.7617 65.8317 32.1791 67.2667 31.2382 67.6522C30.2972 68.0377 26.8435 66.8812 19.968 63.2295C13.0926 59.5779 3.77922 53.0242 3.77922 53.0242L1.71552 52.4352L1.26643 61.8588C1.26643 61.8588 1.24504 61.8802 1.20227 61.9016C0.667635 63.6257 2.35709 65.0928 3.24458 65.7353C4.15347 66.3993 8.44125 69.387 11.2214 70.9933C14.0122 72.5996 21.0266 76.8831 22.9299 77.8576C24.8332 78.8213 27.2605 80.1278 29.1959 79.935C31.1312 79.7423 33.0987 78.2752 33.0987 78.2752C33.0987 78.2752 43.7594 70.7256 46.1331 69.0229L46.3256 58.6248L46.347 58.6355Z" fill="#141C1E"/>
<path d="M34.3926 77.0116C37.3224 74.9341 43.8556 70.3079 45.8552 68.8837L46.1011 59.1388C42.765 61.0449 39.3112 63.0046 38.4344 63.4758C37.4614 64.0005 36.0393 64.8358 35.0448 65.4248L34.3926 77.0116Z" fill="#303E42"/>
<path d="M33.1949 66.721C32.6389 67.1707 31.9118 67.7169 31.3557 67.9418C31.2061 68.006 31.0136 68.0381 30.789 68.0381C29.2065 68.0381 25.4106 66.4747 19.829 63.5084C13.2529 60.0173 4.3459 53.7956 3.65087 53.3137L1.72618 52.457L1.27708 61.8807C1.27708 61.8807 1.2557 61.8914 1.22362 61.9235C0.806604 63.4013 2.50675 64.8363 3.43702 65.5109C4.38867 66.207 8.62299 69.1518 11.3924 70.7474C12.4403 71.3471 14.0763 72.3216 15.8085 73.3603C18.6635 75.063 21.9034 77.0013 23.0903 77.601L23.379 77.7509C25.0577 78.6076 27.1321 79.6678 28.8323 79.6678C28.9606 79.6678 29.0782 79.6678 29.1958 79.6463C30.4041 79.5285 31.6551 78.8646 32.3609 78.4255L33.1949 66.721Z" fill="#303E42"/>
<path d="M17.1774 65.1142C12.6437 62.694 6.30294 59.3636 6.30294 59.3636C6.30294 59.3636 3.46936 60.9699 2.60325 61.741C2.06861 62.2122 1.6409 62.8547 1.38428 63.283C1.82268 64.2254 2.8171 65.0392 3.44798 65.4997C4.39963 66.1958 8.63395 69.1407 11.4034 70.7362C12.4513 71.3359 14.0872 72.3104 15.8195 73.3492C18.6744 75.0518 21.9143 76.9901 23.1012 77.5898L23.3899 77.7397C24.6303 78.3715 26.1059 79.1211 27.4639 79.4638C27.7953 79.5174 28.1161 79.5816 28.4262 79.6352C28.5652 79.6459 28.7042 79.6566 28.8325 79.6566C28.9608 79.6566 29.0785 79.6566 29.1961 79.6352C30.4044 79.5174 31.6554 78.8534 32.3611 78.4144L32.6178 74.8055C29.7307 72.4068 21.1979 67.2559 17.1774 65.1142Z" fill="#39464A"/>
<path d="M25.0365 69.6977C24.9296 69.6013 22.3312 72.5355 23.1546 73.3279C23.9779 74.1203 28.5651 77.0224 29.3457 77.0117C30.1369 77.0117 32.4145 75.7802 32.4893 74.7093C32.4893 74.7093 32.5214 72.7711 30.4043 71.2933C27.282 69.1194 25.0365 69.6977 25.0365 69.6977Z" fill="#3D4B4F"/>
<path d="M52.9765 54.8557C52.9765 54.8557 49.7794 56.6869 46.347 58.6466L46.1545 69.0447C46.1545 69.0447 46.1759 69.034 46.1759 69.0233C48.4962 67.3634 53.2759 63.5511 53.9923 61.6343C54.7087 59.7281 54.0779 55.6053 53.9923 55.027C53.9068 54.4488 52.9658 54.8664 52.9658 54.8664L52.9765 54.8557Z" fill="#404B4D"/>
<path d="M53.4362 54.9414C53.5431 56.28 53.6607 59.4818 53.0619 61.0774C52.4418 62.7373 49.0094 66.0034 46.6035 67.9203V67.9417C49.0842 66.0677 52.7839 62.9622 53.4041 61.3023C54.0564 59.5675 53.5859 56.0015 53.4362 54.9307V54.9414Z" fill="#5A6567"/>
<path opacity="0.7" d="M5.29767 54.4377L5.19074 58.7105C5.19074 58.7105 5.11589 59.5244 5.59706 59.1174C6.00339 58.764 7.99223 57.0828 8.53756 56.6223C7.25444 55.7763 6.1317 55.016 5.28697 54.4377H5.29767Z" fill="#C5D0D3"/>
<path opacity="0.7" d="M1.72619 52.4458L1.2771 61.8694L2.54954 60.8093C2.54954 60.8093 2.84893 60.4023 2.84893 60.156C2.84893 59.9526 3.00932 54.8124 3.06279 53.0455L1.72619 52.4458Z" fill="#C5D0D3"/>
<path d="M2.94534 57.1577C2.94534 57.1577 1.06342 56.4831 1.10619 55.2516C1.14896 54.0201 1.10619 51.193 1.10619 51.193L3.10573 51.9747L2.94534 57.1684V57.1577Z" fill="#404B4D"/>
<path opacity="0.2" d="M3.65087 53.3025L1.72618 52.4458L1.27708 61.8694C1.27708 61.8694 1.2557 61.8801 1.22362 61.9123C0.806604 63.3901 2.50675 64.825 3.43702 65.4997C3.64018 65.6496 3.99304 65.8959 4.44213 66.2171C6.46306 62.437 8.82616 59.6206 10.4835 57.8965C6.89077 55.5727 4.02512 53.5702 3.64018 53.3025H3.65087Z" fill="white"/>
<g style="mix-blend-mode:multiply" opacity="0.2">
<path d="M31.3558 67.9418C31.2061 68.006 31.0136 68.0381 30.7891 68.0381C30.4362 68.0381 29.9871 67.9632 29.4311 67.8133C29.3776 67.8025 29.3242 67.7811 29.2707 67.7704C27.2819 67.2029 24.074 65.7572 19.829 63.5084C13.253 60.0173 4.34594 53.7956 3.65091 53.3137L1.72622 52.457L1.70483 52.9818L1.72622 53.0032C1.72622 53.0032 10.0024 58.4753 14.0443 60.9704C18.0861 63.4655 27.8807 68.67 28.287 68.852C28.6826 69.0448 29.816 69.6551 31.313 69.0448C32.0936 68.7235 32.7031 68.338 33.1201 67.8775L33.2056 66.7317C32.6496 67.1814 31.9225 67.7276 31.3665 67.9525L31.3558 67.9418Z" fill="black"/>
</g>
<path d="M31.3987 67.0631C31.3987 67.0631 30.3187 67.7163 28.8431 67.0631C27.3782 66.4099 19.0058 61.773 14.2475 58.9888C9.91694 56.4615 2.68865 51.7176 0.838811 49.9828C0.721191 50.7431 0.721191 51.5784 0.721191 51.5784L1.71562 52.4458C1.71562 52.4458 9.99179 57.9179 14.0336 60.413C18.0755 62.9081 27.87 68.1126 28.2764 68.2946C28.6827 68.4767 29.8054 69.0978 31.3024 68.4767C32.7994 67.8556 33.6869 66.9882 33.7617 65.8316L31.3987 67.0631Z" fill="#404B4D"/>
<path d="M35.6863 71.3468V77.5257C35.6863 77.5257 35.8039 77.8362 36.7449 78.0076C37.6858 78.1789 39.2363 78.4359 39.9206 77.8791C40.6049 77.3115 40.6049 76.1764 40.6049 75.0841C40.6049 73.9918 40.5622 72.1178 40.1772 71.668C39.7923 71.2076 37.611 70.6614 37.087 70.5972C36.5631 70.5329 35.7718 70.7257 35.697 71.3468H35.6863Z" fill="#5A6567"/>
<path d="M33.922 70.8545C33.922 70.8545 33.7937 70.4155 33.922 70.2655C34.061 70.1156 34.5743 69.6873 34.8309 69.7408C35.0875 69.7944 37.0229 70.5333 37.1726 70.5868C37.3223 70.6403 37.2902 70.9509 37.055 71.1329C36.8197 71.315 36.4776 71.4114 35.6863 71.3471C34.8951 71.2829 33.922 70.8545 33.922 70.8545Z" fill="#5A6567"/>
<path d="M34.4675 77.0227L33.6121 77.6652L33.9221 78.1364C33.9221 78.1364 35.0021 78.3077 35.5581 78.3077C36.1142 78.3077 36.6274 77.7723 36.6274 77.7723L34.4675 77.0227Z" fill="#5A6567"/>
<path d="M35.5581 78.3073C35.9538 78.3073 36.3387 78.0182 36.5205 77.8683C36.0179 78.061 33.6121 77.6648 33.6121 77.6648L33.9221 78.136C33.9221 78.136 35.0021 78.3073 35.5581 78.3073Z" fill="#404B4D"/>
<path d="M37.2582 70.7042C36.9588 70.9291 36.5418 71.079 36.0393 70.9719C35.5795 70.8755 34.3177 70.4365 33.9114 70.2972C33.7938 70.4579 33.9114 70.8648 33.9114 70.8648C33.9114 70.8648 34.8844 71.2931 35.6757 71.3574C36.467 71.4217 36.7984 71.3253 37.0444 71.1432C37.2155 71.0147 37.2689 70.822 37.2475 70.7042H37.2582Z" fill="#404B4D"/>
<path d="M40.6052 75.0949C40.6052 74.1097 40.5732 72.4713 40.2738 71.8394C39.8781 72.1072 39.0655 72.4498 38.2528 72.3856C37.5257 72.332 36.3174 71.9251 35.6973 71.7109V77.5365C35.6973 77.5365 35.8149 77.847 36.7558 78.0183C37.6968 78.1897 39.2473 78.4467 39.9316 77.8898C40.6159 77.3223 40.6159 76.1872 40.6159 75.0949H40.6052Z" fill="#404B4D"/>
<path d="M47.3628 75.1161V78.1145L43.7166 80.0849C43.7166 80.0849 44.0694 77.6968 44.8072 76.9044C45.545 76.1227 47.3628 75.1053 47.3628 75.1053V75.1161Z" fill="#404B4D"/>
<path d="M46.6892 76.1012V78.4892L47.3628 78.1251V75.6729C47.2452 75.7371 46.9886 75.8977 46.6892 76.1012Z" fill="#273234"/>
<path d="M45.9835 76.605C45.8124 76.7335 45.6627 76.8727 45.5451 77.0012C45.096 77.4724 44.7859 79.0037 44.679 79.582L45.8765 78.9288L45.9835 76.605Z" fill="#273234"/>
<path style="mix-blend-mode:multiply" opacity="0.3" d="M29.2174 92.7425V88.6089C29.2174 88.6089 27.4531 88.0735 25.1221 87.0669V92.3034C25.1221 92.3034 25.1435 92.3141 25.1648 92.3248C25.2076 92.3248 27.4103 92.7104 29.2281 92.7425H29.2174Z" fill="url(#paint57_linear_43_32206)"/>
<path d="M1.70482 72.6745L1.61928 76.1655L0.64624 75.7693V71.7535C0.64624 71.7535 0.95633 72.1176 1.70482 72.6852V72.6745Z" fill="#2E383B"/>
<g style="mix-blend-mode:multiply" opacity="0.15">
<path d="M0.646463 75.7589V71.7431L0.272217 71.2612L0.389837 76.2836C0.347066 75.8874 0.63577 75.7696 0.63577 75.7696L0.646463 75.7589Z" fill="black"/>
</g>
<defs>
<linearGradient id="paint0_linear_43_32206" x1="75.2176" y1="51.6645" x2="83.0551" y2="27.3841" gradientUnits="userSpaceOnUse">
<stop stop-color="#222829"/>
<stop offset="0.52" stop-color="#5B6B6E"/>
<stop offset="1" stop-color="#404B4D"/>
</linearGradient>
<linearGradient id="paint1_linear_43_32206" x1="90.2728" y1="34.6268" x2="78.9039" y2="52.2164" gradientUnits="userSpaceOnUse">
<stop offset="0.14" stop-color="#5B6B6E"/>
<stop offset="1" stop-color="#404B4D"/>
</linearGradient>
<linearGradient id="paint2_linear_43_32206" x1="55.7247" y1="61.8271" x2="63.5622" y2="37.5359" gradientUnits="userSpaceOnUse">
<stop stop-color="#222829"/>
<stop offset="0.52" stop-color="#5B6B6E"/>
<stop offset="1" stop-color="#404B4D"/>
</linearGradient>
<linearGradient id="paint3_linear_43_32206" x1="70.7801" y1="44.7787" x2="59.4112" y2="62.3683" gradientUnits="userSpaceOnUse">
<stop offset="0.14" stop-color="#5B6B6E"/>
<stop offset="1" stop-color="#404B4D"/>
</linearGradient>
<linearGradient id="paint4_linear_43_32206" x1="101.757" y1="36.8221" x2="99.2064" y2="41.2308" gradientUnits="userSpaceOnUse">
<stop stop-color="#5B6B6E"/>
<stop offset="1" stop-color="#404B4D"/>
</linearGradient>
<linearGradient id="paint5_linear_43_32206" x1="75.752" y1="52.7248" x2="73.2015" y2="57.1335" gradientUnits="userSpaceOnUse">
<stop stop-color="#425255"/>
<stop offset="1" stop-color="#273234"/>
</linearGradient>
<linearGradient id="paint6_linear_43_32206" x1="111.049" y1="51.5463" x2="111.564" y2="62.5226" gradientUnits="userSpaceOnUse">
<stop stop-color="#F3F5F7"/>
<stop offset="1" stop-color="#999D9E"/>
</linearGradient>
<linearGradient id="paint7_linear_43_32206" x1="108.921" y1="60.5313" x2="114.386" y2="51.6718" gradientUnits="userSpaceOnUse">
<stop stop-color="#F3F5F7"/>
<stop offset="1" stop-color="#999D9E"/>
</linearGradient>
<linearGradient id="paint8_linear_43_32206" x1="107.392" y1="56.237" x2="113.636" y2="56.237" gradientUnits="userSpaceOnUse">
<stop stop-color="#C3C5C7"/>
<stop offset="1" stop-color="#696D6E"/>
</linearGradient>
<linearGradient id="paint9_linear_43_32206" x1="107.392" y1="56.0551" x2="113.337" y2="56.0551" gradientUnits="userSpaceOnUse">
<stop stop-color="#F3F5F7"/>
<stop offset="1" stop-color="#999D9E"/>
</linearGradient>
<linearGradient id="paint10_linear_43_32206" x1="107.392" y1="55.7978" x2="111.872" y2="55.7978" gradientUnits="userSpaceOnUse">
<stop stop-color="#C1C3C5"/>
<stop offset="1" stop-color="#676B6C"/>
</linearGradient>
<linearGradient id="paint11_linear_43_32206" x1="110.429" y1="53.3137" x2="108.434" y2="61.1618" gradientUnits="userSpaceOnUse">
<stop stop-color="#F3F5F7"/>
<stop offset="1" stop-color="#999D9E"/>
</linearGradient>
<linearGradient id="paint12_linear_43_32206" x1="96.9345" y1="61.9017" x2="109.623" y2="39.9438" gradientUnits="userSpaceOnUse">
<stop stop-color="#222829"/>
<stop offset="0.52" stop-color="#5B6B6E"/>
<stop offset="1" stop-color="#404B4D"/>
</linearGradient>
<linearGradient id="paint13_linear_43_32206" x1="115.08" y1="46.7599" x2="103.711" y2="64.3495" gradientUnits="userSpaceOnUse">
<stop offset="0.14" stop-color="#5B6B6E"/>
<stop offset="1" stop-color="#404B4D"/>
</linearGradient>
<linearGradient id="paint14_linear_43_32206" x1="90.9894" y1="63.1977" x2="91.5041" y2="74.174" gradientUnits="userSpaceOnUse">
<stop stop-color="#F3F5F7"/>
<stop offset="1" stop-color="#999D9E"/>
</linearGradient>
<linearGradient id="paint15_linear_43_32206" x1="88.8616" y1="72.1821" x2="94.3267" y2="63.3226" gradientUnits="userSpaceOnUse">
<stop stop-color="#F3F5F7"/>
<stop offset="1" stop-color="#999D9E"/>
</linearGradient>
<linearGradient id="paint16_linear_43_32206" x1="87.3325" y1="67.8985" x2="93.5771" y2="67.8985" gradientUnits="userSpaceOnUse">
<stop stop-color="#C3C5C7"/>
<stop offset="1" stop-color="#696D6E"/>
</linearGradient>
<linearGradient id="paint17_linear_43_32206" x1="87.3325" y1="67.7167" x2="93.2777" y2="67.7167" gradientUnits="userSpaceOnUse">
<stop stop-color="#F3F5F7"/>
<stop offset="1" stop-color="#999D9E"/>
</linearGradient>
<linearGradient id="paint18_linear_43_32206" x1="87.3325" y1="67.4598" x2="91.8127" y2="67.4598" gradientUnits="userSpaceOnUse">
<stop stop-color="#C1C3C5"/>
<stop offset="1" stop-color="#676B6C"/>
</linearGradient>
<linearGradient id="paint19_linear_43_32206" x1="90.3692" y1="64.9647" x2="88.3747" y2="72.8127" gradientUnits="userSpaceOnUse">
<stop stop-color="#F3F5F7"/>
<stop offset="1" stop-color="#999D9E"/>
</linearGradient>
<linearGradient id="paint20_linear_43_32206" x1="76.875" y1="73.553" x2="89.5635" y2="51.5952" gradientUnits="userSpaceOnUse">
<stop stop-color="#222829"/>
<stop offset="0.52" stop-color="#5B6B6E"/>
<stop offset="1" stop-color="#404B4D"/>
</linearGradient>
<linearGradient id="paint21_linear_43_32206" x1="95.0204" y1="58.4215" x2="83.6515" y2="76.0111" gradientUnits="userSpaceOnUse">
<stop offset="0.14" stop-color="#5B6B6E"/>
<stop offset="1" stop-color="#404B4D"/>
</linearGradient>
<linearGradient id="paint22_linear_43_32206" x1="71.9561" y1="72.2467" x2="72.9419" y2="73.8409" gradientUnits="userSpaceOnUse">
<stop stop-color="#5A6567"/>
<stop offset="1" stop-color="#404B4D"/>
</linearGradient>
<linearGradient id="paint23_linear_43_32206" x1="50.0041" y1="86.9817" x2="47.9666" y2="100.581" gradientUnits="userSpaceOnUse">
<stop stop-color="#F3F5F7"/>
<stop offset="1" stop-color="#999D9E"/>
</linearGradient>
<linearGradient id="paint24_linear_43_32206" x1="47.8761" y1="98.8144" x2="48.9485" y2="92.1969" gradientUnits="userSpaceOnUse">
<stop stop-color="#E6E8EA"/>
<stop offset="1" stop-color="#8C9091"/>
</linearGradient>
<linearGradient id="paint25_linear_43_32206" x1="48.0154" y1="95.6984" x2="51.1992" y2="87.8309" gradientUnits="userSpaceOnUse">
<stop stop-color="#F3F5F7"/>
<stop offset="1" stop-color="#999D9E"/>
</linearGradient>
<linearGradient id="paint26_linear_43_32206" x1="49.6939" y1="88.0095" x2="47.6135" y2="98.792" gradientUnits="userSpaceOnUse">
<stop stop-color="#F3F5F7"/>
<stop offset="1" stop-color="#999D9E"/>
</linearGradient>
<linearGradient id="paint27_linear_43_32206" x1="49.2984" y1="90.2049" x2="49.2233" y2="98.7718" gradientUnits="userSpaceOnUse">
<stop stop-color="#F3F5F7"/>
<stop offset="1" stop-color="#999D9E"/>
</linearGradient>
<linearGradient id="paint28_linear_43_32206" x1="48.432" y1="89.4764" x2="49.1591" y2="89.4764" gradientUnits="userSpaceOnUse">
<stop stop-color="#8F9193"/>
<stop offset="1" stop-color="#35393A"/>
</linearGradient>
<linearGradient id="paint29_linear_43_32206" x1="45.5665" y1="93.6634" x2="46.6144" y2="93.6634" gradientUnits="userSpaceOnUse">
<stop stop-color="#8F9193"/>
<stop offset="1" stop-color="#35393A"/>
</linearGradient>
<linearGradient id="paint30_linear_43_32206" x1="45.9088" y1="95.7733" x2="46.8819" y2="95.7733" gradientUnits="userSpaceOnUse">
<stop stop-color="#8F9193"/>
<stop offset="1" stop-color="#35393A"/>
</linearGradient>
<linearGradient id="paint31_linear_43_32206" x1="47.4913" y1="96.5552" x2="48.0153" y2="96.5552" gradientUnits="userSpaceOnUse">
<stop stop-color="#8F9193"/>
<stop offset="1" stop-color="#35393A"/>
</linearGradient>
<linearGradient id="paint32_linear_43_32206" x1="46.6997" y1="91.2435" x2="47.6727" y2="91.2435" gradientUnits="userSpaceOnUse">
<stop stop-color="#8F9193"/>
<stop offset="1" stop-color="#35393A"/>
</linearGradient>
<linearGradient id="paint33_linear_43_32206" x1="50.3676" y1="88.9412" x2="50.9771" y2="88.9412" gradientUnits="userSpaceOnUse">
<stop stop-color="#8F9193"/>
<stop offset="1" stop-color="#35393A"/>
</linearGradient>
<linearGradient id="paint34_linear_43_32206" x1="51.5973" y1="90.4511" x2="52.2389" y2="90.4511" gradientUnits="userSpaceOnUse">
<stop stop-color="#8F9193"/>
<stop offset="1" stop-color="#35393A"/>
</linearGradient>
<linearGradient id="paint35_linear_43_32206" x1="51.6508" y1="92.411" x2="51.9182" y2="92.411" gradientUnits="userSpaceOnUse">
<stop stop-color="#8F9193"/>
<stop offset="1" stop-color="#35393A"/>
</linearGradient>
<linearGradient id="paint36_linear_43_32206" x1="49.2983" y1="95.9342" x2="49.5549" y2="95.9342" gradientUnits="userSpaceOnUse">
<stop stop-color="#8F9193"/>
<stop offset="1" stop-color="#35393A"/>
</linearGradient>
<linearGradient id="paint37_linear_43_32206" x1="50.8914" y1="94.1885" x2="51.1159" y2="94.1885" gradientUnits="userSpaceOnUse">
<stop stop-color="#8F9193"/>
<stop offset="1" stop-color="#35393A"/>
</linearGradient>
<linearGradient id="paint38_linear_43_32206" x1="50.8057" y1="92.6143" x2="47.9923" y2="93.7892" gradientUnits="userSpaceOnUse">
<stop stop-color="#F3F5F7"/>
<stop offset="1" stop-color="#999D9E"/>
</linearGradient>
<linearGradient id="paint39_linear_43_32206" x1="49.8969" y1="91.8215" x2="48.7924" y2="97.4216" gradientUnits="userSpaceOnUse">
<stop stop-color="#F3F5F7"/>
<stop offset="1" stop-color="#999D9E"/>
</linearGradient>
<linearGradient id="paint40_linear_43_32206" x1="37.9319" y1="100.26" x2="46.0375" y2="75.1556" gradientUnits="userSpaceOnUse">
<stop stop-color="#222829"/>
<stop offset="0.52" stop-color="#5B6B6E"/>
<stop offset="1" stop-color="#404B4D"/>
</linearGradient>
<linearGradient id="paint41_linear_43_32206" x1="53.1906" y1="82.5053" x2="41.3824" y2="100.78" gradientUnits="userSpaceOnUse">
<stop offset="0.14" stop-color="#5B6B6E"/>
<stop offset="1" stop-color="#404B4D"/>
</linearGradient>
<linearGradient id="paint42_linear_43_32206" x1="59.9697" y1="79.1643" x2="60.8912" y2="80.5231" gradientUnits="userSpaceOnUse">
<stop stop-color="#5A6567"/>
<stop offset="1" stop-color="#404B4D"/>
</linearGradient>
<linearGradient id="paint43_linear_43_32206" x1="20.0217" y1="54.7808" x2="17.9856" y2="58.2263" gradientUnits="userSpaceOnUse">
<stop stop-color="white"/>
<stop offset="1"/>
</linearGradient>
<linearGradient id="paint44_linear_43_32206" x1="36.1461" y1="36.0405" x2="31.9563" y2="42.7385" gradientUnits="userSpaceOnUse">
<stop stop-color="white"/>
<stop offset="1"/>
</linearGradient>
<linearGradient id="paint45_linear_43_32206" x1="35.7401" y1="58.4216" x2="30.7992" y2="67.8392" gradientUnits="userSpaceOnUse">
<stop stop-color="white"/>
<stop offset="1"/>
</linearGradient>
<linearGradient id="paint46_linear_43_32206" x1="29.7628" y1="64.8791" x2="33.9533" y2="57.1205" gradientUnits="userSpaceOnUse">
<stop stop-color="white"/>
<stop offset="1"/>
</linearGradient>
<linearGradient id="paint47_linear_43_32206" x1="31.8905" y1="56.4084" x2="26.9496" y2="65.826" gradientUnits="userSpaceOnUse">
<stop stop-color="white"/>
<stop offset="1"/>
</linearGradient>
<linearGradient id="paint48_linear_43_32206" x1="26.3516" y1="63.0368" x2="30.5314" y2="55.2782" gradientUnits="userSpaceOnUse">
<stop stop-color="white"/>
<stop offset="1"/>
</linearGradient>
<linearGradient id="paint49_linear_43_32206" x1="15.0492" y1="47.5628" x2="10.0976" y2="56.9804" gradientUnits="userSpaceOnUse">
<stop stop-color="white"/>
<stop offset="1"/>
</linearGradient>
<linearGradient id="paint50_linear_43_32206" x1="9.73507" y1="54.0627" x2="13.9256" y2="46.3149" gradientUnits="userSpaceOnUse">
<stop stop-color="white"/>
<stop offset="1"/>
</linearGradient>
<linearGradient id="paint51_linear_43_32206" x1="6.34548" y1="52.2317" x2="10.536" y2="44.4732" gradientUnits="userSpaceOnUse">
<stop stop-color="white"/>
<stop offset="1"/>
</linearGradient>
<linearGradient id="paint52_linear_43_32206" x1="11.724" y1="45.8176" x2="6.78313" y2="55.2352" gradientUnits="userSpaceOnUse">
<stop stop-color="white"/>
<stop offset="1"/>
</linearGradient>
<linearGradient id="paint53_linear_43_32206" x1="5.75762" y1="84.3364" x2="-0.159568" y2="81.0777" gradientUnits="userSpaceOnUse">
<stop stop-color="white"/>
<stop offset="1" stop-color="#969696"/>
</linearGradient>
<linearGradient id="paint54_linear_43_32206" x1="0.624948" y1="81.1444" x2="4.37278" y2="84.7584" gradientUnits="userSpaceOnUse">
<stop stop-color="white"/>
<stop offset="1" stop-color="white"/>
</linearGradient>
<linearGradient id="paint55_linear_43_32206" x1="24.2666" y1="96.9619" x2="29.3136" y2="96.9619" gradientUnits="userSpaceOnUse">
<stop stop-color="white"/>
<stop offset="1" stop-color="#969696"/>
</linearGradient>
<linearGradient id="paint56_linear_43_32206" x1="24.0848" y1="97.1755" x2="33.1201" y2="97.1755" gradientUnits="userSpaceOnUse">
<stop stop-color="white"/>
<stop offset="1" stop-color="white"/>
</linearGradient>
<linearGradient id="paint57_linear_43_32206" x1="25.1221" y1="89.894" x2="29.2174" y2="89.894" gradientUnits="userSpaceOnUse">
<stop stop-color="white"/>
<stop offset="1"/>
</linearGradient>
</defs>
</svg>
