<svg width="120" height="120" viewBox="0 0 120 120" fill="none" xmlns="http://www.w3.org/2000/svg">
<path d="M33.0732 86.3469V88.9344L37.8999 89.9378L39.5369 86.9383L33.0732 86.3469Z" fill="#212A2D"/>
<path d="M108.229 46.9737L101.185 50.1422L106.202 53.3212L109.381 50.1422L108.229 46.9737Z" fill="#212A2D"/>
<path d="M53.1084 78.109L48.2817 80.9078L51.6614 83.3053L59.139 86.6533L59.8888 77.8027L53.1084 78.109Z" fill="#212A2D"/>
<path d="M54.3441 83.9918L49.1372 80.9923C47.7748 80.1897 45.8843 80.3058 43.8037 81.5098C39.653 83.9073 36.2944 89.7267 36.2944 94.5216C36.2944 96.9191 37.1394 98.5984 38.4912 99.3905L43.9199 102.506C43.9199 102.506 43.9199 102.506 43.9304 102.506H43.9515V102.517C45.314 103.288 47.1728 103.161 49.2323 101.978C53.383 99.5806 56.7415 93.7612 56.7415 88.9663C56.7415 86.4526 55.8121 84.7205 54.3335 83.9918H54.3441Z" fill="#2E373A"/>
<path d="M56.7524 88.9664C56.7524 93.7613 53.3938 99.5807 49.2431 101.978C45.0925 104.376 41.7339 102.432 41.7339 97.6374C41.7339 92.8425 45.0925 87.0231 49.2431 84.6256C53.3938 82.2282 56.7524 84.1715 56.7524 88.9664Z" fill="#555E61"/>
<path d="M56.3085 89.7265C56.3085 93.9934 53.309 99.1897 49.6125 101.323C45.916 103.457 42.9165 101.724 42.9165 97.4576C42.9165 93.1907 45.916 87.9945 49.6125 85.861C53.309 83.7276 56.3085 85.4597 56.3085 89.7265Z" fill="#2E373A"/>
<path d="M53.6791 91.1631C53.6791 93.8879 51.7675 97.2043 49.4017 98.5667C47.0359 99.9291 45.1243 98.8202 45.1243 96.0953C45.1243 93.3704 47.0359 90.0541 49.4017 88.6917C51.7675 87.3292 53.6791 88.4382 53.6791 91.1631Z" fill="url(#paint0_linear_43_28598)"/>
<path d="M51.3658 91.3636C51.3658 93.1802 50.0879 95.3981 48.5142 96.3064C46.9405 97.2147 45.6626 96.4754 45.6626 94.6588C45.6626 92.8422 46.9405 90.6243 48.5142 89.716C50.0879 88.8077 51.3658 89.547 51.3658 91.3636Z" fill="#414E52"/>
<path d="M50.9326 91.2689C50.9326 93.0115 49.6652 95.1344 48.1127 96.0004C46.5495 96.877 45.2927 96.1694 45.2927 94.4268C45.2927 92.6841 46.5601 90.5612 48.1127 89.6952C49.6758 88.8186 50.9326 89.5262 50.9326 91.2689Z" fill="url(#paint1_linear_43_28598)"/>
<path d="M49.4014 88.7022C49.243 88.7867 49.0951 88.8923 48.9472 88.9874C49 88.9557 49.0528 88.924 49.1057 88.8923C51.218 87.6672 52.9395 88.66 52.9395 91.1102C52.9395 93.5605 51.2285 96.5283 49.1057 97.7534C46.9934 98.9786 45.2718 97.9858 45.2718 95.5461C45.2718 94.9758 45.3669 94.3843 45.5359 93.7929C45.2824 94.5744 45.1345 95.3665 45.1345 96.1164C45.1345 98.8413 47.0462 99.9502 49.4119 98.5878C51.7777 97.2254 53.6894 93.909 53.6894 91.1842C53.6894 88.4593 51.7777 87.3503 49.4119 88.7128L49.4014 88.7022Z" fill="url(#paint2_linear_43_28598)"/>
<path d="M48.6407 90.4554C47.3733 91.1842 46.3489 92.9585 46.3489 94.416C46.3489 95.8735 47.3733 96.4649 48.6407 95.7362C49.9081 95.0074 50.9326 93.2331 50.9326 91.7756C50.9326 90.3181 49.9081 89.7267 48.6407 90.4554Z" fill="url(#paint3_linear_43_28598)"/>
<path d="M50.8908 91.9446C50.8908 93.2965 49.9402 94.9441 48.7679 95.62C47.5956 96.2959 46.645 95.7467 46.645 94.3948C46.645 93.043 47.5956 91.3954 48.7679 90.7194C49.9402 90.0435 50.8908 90.5927 50.8908 91.9446Z" fill="url(#paint4_linear_43_28598)"/>
<path d="M46.7185 92.5781L45.9792 93.1061L45.5779 94.2468L46.3383 93.7187C46.4122 93.3385 46.539 92.9477 46.708 92.5781H46.7185Z" fill="#C3C5C7"/>
<path d="M45.5783 94.2468L45.9796 93.1061H45.779C45.6205 93.4864 45.4938 93.8666 45.3882 94.2468H45.5783Z" fill="#AAACAE"/>
<path d="M45.9797 93.1061L46.719 92.5781L46.1276 92.3563C46.0008 92.5992 45.8847 92.8527 45.7791 93.1061H45.9797Z" fill="#DDDFE1"/>
<path d="M46.3384 94.9332L45.5569 97.3307L45.9582 98.0383L46.7398 95.7042C46.5497 95.5247 46.4124 95.2606 46.3384 94.9332Z" fill="#C3C5C7"/>
<path d="M45.3353 97.5105C45.4303 97.7957 45.5571 98.0386 45.7049 98.2498L45.9478 98.0281L45.5465 97.3204L45.3247 97.5105H45.3353Z" fill="#B6B8BA"/>
<path d="M45.5571 95.113L45.198 96.919C45.2297 97.1303 45.2825 97.3309 45.3459 97.5105L45.5676 97.3204L46.3492 94.9229L45.5676 95.113H45.5571Z" fill="#DDDFE1"/>
<path d="M48.0178 99.1054C48.3135 99.0526 48.6198 98.9575 48.9472 98.8097V98.4611L48.0601 98.6935L48.0284 99.1054H48.0178Z" fill="#C3C5C7"/>
<path d="M47.5848 96.0531L48.0389 98.6829L48.9261 98.4506L48.5248 95.7996C48.1868 95.9792 47.8594 96.0637 47.5742 96.0531H47.5848Z" fill="#D0D2D4"/>
<path d="M47.0884 96.2957L47.5848 96.0528L48.0495 98.6721L48.0178 99.1051L47.4792 98.2707L47.0884 96.2957Z" fill="#C4C6C8"/>
<path d="M50.3943 93.793C50.1937 94.1944 49.9402 94.564 49.655 94.8914L51.5667 96.2116L52.3165 95.1449L50.4049 93.793H50.3943Z" fill="#D0D2D4"/>
<path d="M52.3058 95.155L51.5559 96.2217L51.7566 96.3907C52.0206 96.0421 52.253 95.6725 52.4748 95.2923L52.3058 95.155Z" fill="#C3C5C7"/>
<path d="M50.8799 91.2579C50.9116 91.4163 50.9327 91.5853 50.9327 91.7754C50.9327 91.9444 50.9221 92.1133 50.8904 92.2823L53.4675 91.7331V90.7509L50.8799 91.2579Z" fill="#C3C5C7"/>
<path d="M53.6473 90.582L53.4678 90.751V91.7332L53.6579 91.6065C53.6684 91.4586 53.679 91.3002 53.679 91.1524C53.679 90.9517 53.679 90.751 53.6473 90.5715V90.582Z" fill="#B6B8BA"/>
<path d="M50.8586 90.7509L52.897 90.4869L53.6574 90.5819L53.4673 90.7509L50.8798 91.2579L50.8586 90.7509Z" fill="#DDDFE1"/>
<path d="M50.3945 90.3922L52.2533 88.7023L51.5668 88.4489L49.6763 90.1493C49.9509 90.1493 50.1938 90.2337 50.3945 90.3922Z" fill="#9D9FA1"/>
<path d="M52.4115 88.3852C52.1897 88.2584 51.9362 88.174 51.6722 88.1317L51.5771 88.438L52.2636 88.6915L52.4115 88.3746V88.3852Z" fill="#C3C5C7"/>
<path d="M49.6759 90.1492L49.4858 89.3888L51.1018 88.3749L51.6615 88.1425L51.577 88.4488L49.6759 90.1492Z" fill="#B6B8BA"/>
<path d="M49.4015 88.3115C46.8561 89.7795 44.7966 93.3493 44.7966 96.296C44.7966 99.2427 46.8561 100.426 49.4015 98.9575C51.9468 97.4894 54.0063 93.9196 54.0063 90.973C54.0063 88.0263 51.9468 86.8434 49.4015 88.3115ZM49.4015 98.5667C47.0357 99.9292 45.124 98.8202 45.124 96.0953C45.124 93.3704 47.0357 90.0541 49.4015 88.6917C51.7672 87.3293 53.6789 88.4382 53.6789 91.1631C53.6789 93.888 51.7672 97.2043 49.4015 98.5667Z" fill="url(#paint5_linear_43_28598)"/>
<path d="M48.5669 90.4133L48.9682 89.2621L48.0705 90.012L47.7114 91.0998C47.9755 90.8252 48.2712 90.5823 48.5775 90.4027L48.5669 90.4133Z" fill="#9D9FA1"/>
<path d="M48.0706 90.0225L48.9684 89.2726L48.9472 88.998C48.6304 89.2198 48.3135 89.4839 48.0178 89.769L48.0706 90.0225Z" fill="#C3C5C7"/>
<path d="M47.2047 90.6668L47.701 91.1104L48.0601 90.0225L48.0073 89.769C47.7222 90.0436 47.4476 90.3499 47.1941 90.6668H47.2047Z" fill="#909294"/>
<path d="M107.427 53.3845L102.22 50.385C100.857 49.5824 98.9668 49.6985 96.8862 50.9025C92.7355 53.3 89.377 59.1194 89.377 63.9143C89.377 66.3118 90.2219 67.9911 91.5738 68.7832L96.9918 71.8989C96.9918 71.8989 96.9918 71.8989 97.0024 71.8989H97.0235V71.9094C98.3754 72.6804 100.245 72.5537 102.304 71.3708C106.455 68.9733 109.813 63.1539 109.813 58.359C109.813 55.8453 108.884 54.1133 107.405 53.3845H107.427Z" fill="#2E373A"/>
<path d="M109.824 58.3483C109.824 63.1432 106.466 68.9626 102.315 71.3601C98.1642 73.7576 94.8057 71.8143 94.8057 67.0193C94.8057 62.2244 98.1642 56.405 102.315 54.0075C106.466 51.6101 109.824 53.5534 109.824 58.3483Z" fill="#555E61"/>
<path d="M109.38 59.109C109.38 63.3758 106.381 68.5721 102.684 70.7055C98.9875 72.839 95.988 71.1069 95.988 66.84C95.988 62.5732 98.9875 57.3769 102.684 55.2435C106.381 53.11 109.38 54.8421 109.38 59.109Z" fill="#2E373A"/>
<path d="M106.751 60.5558C106.751 63.2806 104.839 66.5969 102.473 67.9594C100.107 69.3218 98.1958 68.2129 98.1958 65.488C98.1958 62.7631 100.107 59.4468 102.473 58.0844C104.839 56.7219 106.751 57.8309 106.751 60.5558Z" fill="url(#paint6_linear_43_28598)"/>
<path d="M104.448 60.7564C104.448 62.573 103.17 64.7909 101.597 65.6992C100.023 66.6075 98.7451 65.8681 98.7451 64.0516C98.7451 62.235 100.023 60.0171 101.597 59.1088C103.17 58.2005 104.448 58.9398 104.448 60.7564Z" fill="#414E52"/>
<path d="M104.004 60.6611C104.004 62.4037 102.737 64.5266 101.184 65.3926C99.6213 66.2692 98.3645 65.5616 98.3645 63.819C98.3645 62.0763 99.6319 59.9535 101.184 59.0874C102.748 58.2108 104.004 58.9184 104.004 60.6611Z" fill="url(#paint7_linear_43_28598)"/>
<path d="M102.473 58.0841C102.314 58.1686 102.167 58.2742 102.019 58.3693C102.072 58.3376 102.124 58.3059 102.177 58.2742C104.289 57.0491 106.011 58.0419 106.011 60.4921C106.011 62.9424 104.3 65.9102 102.177 67.1353C100.065 68.3605 98.3434 67.3677 98.3434 64.928C98.3434 64.3577 98.4384 63.7662 98.6074 63.1748C98.3539 63.9563 98.2061 64.7484 98.2061 65.4983C98.2061 68.2232 100.118 69.3321 102.483 67.9697C104.849 66.6073 106.761 63.2909 106.761 60.5661C106.761 57.8412 104.849 56.7322 102.483 58.0947L102.473 58.0841Z" fill="url(#paint8_linear_43_28598)"/>
<path d="M101.713 59.8481C100.445 60.5769 99.4207 62.3512 99.4207 63.8087C99.4207 65.2662 100.445 65.8576 101.713 65.1289C102.98 64.4001 104.004 62.6258 104.004 61.1683C104.004 59.7108 102.98 59.1194 101.713 59.8481Z" fill="url(#paint9_linear_43_28598)"/>
<path d="M103.962 61.3265C103.962 62.6784 103.012 64.3259 101.839 65.0019C100.667 65.6778 99.7166 65.1286 99.7166 63.7767C99.7166 62.4249 100.667 60.7773 101.839 60.1013C103.012 59.4254 103.962 59.9746 103.962 61.3265Z" fill="url(#paint10_linear_43_28598)"/>
<path d="M99.7905 61.9708L99.0617 62.4988L98.6604 63.6395L99.4208 63.1114C99.4948 62.7312 99.6215 62.3404 99.7905 61.9708Z" fill="#C3C5C7"/>
<path d="M98.6603 63.6395L99.0617 62.4988H98.861C98.7026 62.8791 98.5758 63.2593 98.4702 63.6395H98.6603Z" fill="#AAACAE"/>
<path d="M99.0511 62.4989L99.7798 61.9708L99.1884 61.749C99.0616 61.9919 98.9455 62.2454 98.8398 62.4989H99.0405H99.0511Z" fill="#DDDFE1"/>
<path d="M99.41 64.326L98.6284 66.7235L99.0298 67.4311L99.8113 65.097C99.6212 64.9174 99.4839 64.6534 99.41 64.326Z" fill="#C3C5C7"/>
<path d="M98.407 66.9032C98.5021 67.1884 98.6288 67.4313 98.7767 67.6425L99.0196 67.4208L98.6183 66.7131L98.3965 66.9032H98.407Z" fill="#B6B8BA"/>
<path d="M98.6286 64.5058L98.2695 66.3118C98.3012 66.523 98.354 66.7237 98.4174 66.9032L98.6392 66.7131L99.4207 64.3157L98.6392 64.5058H98.6286Z" fill="#DDDFE1"/>
<path d="M101.089 68.4981C101.385 68.4453 101.691 68.3503 102.019 68.2024V67.8539L101.132 68.0862L101.1 68.4981H101.089Z" fill="#C3C5C7"/>
<path d="M100.667 65.4458L101.121 68.0756L102.009 67.8433L101.607 65.1923C101.269 65.3719 100.942 65.4564 100.657 65.4458H100.667Z" fill="#D0D2D4"/>
<path d="M100.16 65.6779L100.667 65.4456L101.121 68.0648L101.09 68.4978L100.561 67.6635L100.16 65.6779Z" fill="#C4C6C8"/>
<path d="M103.466 63.1857C103.265 63.5871 103.012 63.9567 102.727 64.2841L104.638 65.6043L105.388 64.5376L103.477 63.1857H103.466Z" fill="#D0D2D4"/>
<path d="M105.378 64.5477L104.628 65.6144L104.828 65.7834C105.092 65.4349 105.325 65.0652 105.547 64.685L105.378 64.5477Z" fill="#C3C5C7"/>
<path d="M103.951 60.6506C103.983 60.8091 104.004 60.978 104.004 61.1681C104.004 61.3371 103.994 61.5061 103.962 61.6751L106.539 61.1259V60.1437L103.951 60.6506Z" fill="#C3C5C7"/>
<path d="M106.719 59.9747L106.539 60.1437V61.1259L106.729 60.9992C106.74 60.8513 106.751 60.6929 106.751 60.5451C106.751 60.3444 106.751 60.1437 106.719 59.9642V59.9747Z" fill="#B6B8BA"/>
<path d="M103.93 60.1437L105.969 59.8796L106.729 59.9747L106.539 60.1437L103.952 60.6506L103.93 60.1437Z" fill="#DDDFE1"/>
<path d="M103.476 59.7849L105.335 58.095L104.649 57.8416L102.758 59.542C103.033 59.542 103.276 59.6264 103.476 59.7849Z" fill="#9D9FA1"/>
<path d="M105.483 57.7779C105.261 57.6512 105.008 57.5667 104.744 57.5244L104.649 57.8307L105.335 58.0842L105.483 57.7673V57.7779Z" fill="#C3C5C7"/>
<path d="M102.758 59.5419L102.558 58.7815L104.174 57.7676L104.744 57.5352L104.649 57.8415L102.758 59.5419Z" fill="#B6B8BA"/>
<path d="M102.473 57.7042C99.9279 59.1723 97.8684 62.7421 97.8684 65.6887C97.8684 68.6354 99.9279 69.8183 102.473 68.3502C105.019 66.8822 107.078 63.3124 107.078 60.3657C107.078 57.4191 105.019 56.2362 102.473 57.7042ZM102.473 67.9595C100.107 69.3219 98.1958 68.2129 98.1958 65.4881C98.1958 62.7632 100.107 59.4469 102.473 58.0845C104.839 56.722 106.751 57.831 106.751 60.5558C106.751 63.2807 104.839 66.597 102.473 67.9595Z" fill="url(#paint11_linear_43_28598)"/>
<path d="M101.638 59.8061L102.04 58.6548L101.142 59.4047L100.783 60.4926C101.047 60.218 101.343 59.975 101.649 59.7955L101.638 59.8061Z" fill="#9D9FA1"/>
<path d="M101.142 59.4153L102.04 58.6654L102.019 58.3908C101.691 58.6126 101.385 58.8766 101.089 59.1618L101.142 59.4153Z" fill="#C3C5C7"/>
<path d="M100.276 60.0595L100.773 60.5031L101.132 59.4152L101.079 59.1617C100.794 59.4363 100.519 59.7426 100.266 60.0595H100.276Z" fill="#909294"/>
<path d="M114.566 46.0653C114.176 45.759 112.982 45.0514 112.982 45.0514L112.929 36.919L112.771 36.7606L112.655 35.7678C112.655 35.7678 112.644 35.5777 112.158 35.2503C111.672 34.9229 82.0474 17.1373 82.0474 17.1373C82.0474 17.1373 81.551 16.7254 80.4421 17.3063C79.3331 17.8871 72.7533 21.7315 72.7533 21.7315L69.2257 19.6826C69.2257 19.6826 68.497 19.408 67.7577 19.5453C67.0184 19.6826 33.6017 38.799 33.6017 38.799L26.6311 49.4872L22.66 53.1415L21.7728 52.4339L7.50421 64.5585C7.50421 64.5585 6.99726 64.5268 6.55367 66.4279C6.11009 68.3184 5.97279 69.1211 6.17346 69.4379C6.37413 69.7548 8.16959 71.9621 8.16959 71.9621C8.16959 71.9621 7.93723 72.3423 8.56036 72.9232C9.36304 73.6625 10.9367 74.9722 13.0807 76.5247V79.2496L26.1981 86.9172L26.2509 86.273L28.0781 85.2908C31.0142 86.6638 33.0737 87.477 33.0737 87.477L33.5912 87.2341C33.5912 87.2341 38.6185 88.7021 39.2627 88.6599L42.2094 87.5509C42.2094 87.5509 42.9698 87.8255 43.1705 87.477C43.3711 87.1285 43.8358 85.4703 44.8498 84.6148C45.8637 83.7593 49.444 81.4358 50.7325 80.7176C52.021 79.9995 54.5452 78.8166 55.0522 79.4714C55.5591 80.1156 59.1289 86.6849 59.1289 86.6849C59.1289 86.6849 60.4386 86.9172 61.03 86.6004C61.6214 86.2836 89.1236 70.399 89.1236 70.399C89.1236 70.399 90.6445 69.364 89.3243 68.1705L93.6968 63.9565C93.6968 63.9565 96.3372 57.3872 96.654 56.4684C97.2138 54.8736 98.5234 53.659 100.541 52.4339C102.547 51.2193 106.666 48.674 107.469 48.9803L107.627 49.7618L108.853 50.5751L111.366 54.4089L115.02 50.047V46.7412C115.02 46.7412 114.947 46.4032 114.556 46.097L114.566 46.0653Z" fill="#D4DBDF"/>
<g style="mix-blend-mode:multiply" opacity="0.2">
<path d="M114.566 46.0651C114.175 45.7588 112.982 45.0512 112.982 45.0512L112.939 38.3129L96.6008 47.8183L96.5058 47.6599L112.929 38.1017V36.9188L112.834 36.8237L97.0761 45.368L93.6013 37.5419C93.6013 37.5419 65.7189 53.7222 63.4693 55.0952C61.2197 56.4682 61.1986 57.8623 61.1986 57.8623L59.8467 67.7584L58.9067 68.6984L58.009 69.3321V71.5394L54.7772 78.3516L54.566 78.2566L55.9812 75.331L55.4109 71.4127L39.0194 84.245L38.7976 88.5646C39.0194 88.6069 39.1778 88.628 39.2623 88.6174L42.209 87.5085C42.209 87.5085 42.9694 87.7831 43.1701 87.4345C43.3707 87.086 43.8355 85.4278 44.8494 84.5724C45.8633 83.7169 49.4436 81.3933 50.7321 80.6752C52.0206 79.957 54.5448 78.7741 55.0518 79.4289C55.5587 80.0732 59.1285 86.6424 59.1285 86.6424C59.1285 86.6424 60.4382 86.8748 61.0296 86.5579C61.6211 86.2411 89.1233 70.3566 89.1233 70.3566C89.1233 70.3566 90.6441 69.3215 89.3239 68.1281L93.6964 63.914C93.6964 63.914 96.3368 57.3448 96.6536 56.4259C97.2134 54.8311 98.523 53.6165 100.54 52.3914C102.547 51.1768 106.666 48.6315 107.469 48.9378L107.627 49.7193L108.852 50.5326L111.366 54.3664L115.02 50.0045V46.6988C115.02 46.6988 114.946 46.3608 114.555 46.0545L114.566 46.0651ZM76.7557 60.9674V62.4354C76.7557 62.7417 76.5339 63.1219 76.2699 63.2803L73.45 64.9174C73.1859 65.0758 72.9641 64.9491 72.9641 64.6428V63.1747C72.9641 62.8684 73.1859 62.4882 73.45 62.3298L76.2699 60.6928C76.5339 60.5343 76.7557 60.6611 76.7557 60.9674ZM61.5577 66.2481L62.5716 57.8306C62.6138 57.4609 62.8884 57.0385 63.2158 56.8484L74.1893 50.4375C74.3054 50.3742 74.4216 50.3425 74.5378 50.3425C74.8335 50.3425 75.0659 50.5537 75.1292 50.8706L76.4494 57.725C76.5234 58.1158 76.3121 58.5805 75.9742 58.7811L62.3498 66.7551C62.2336 66.8185 62.128 66.8501 62.0224 66.8501C61.8957 66.8501 61.7689 66.7973 61.6844 66.7023C61.6105 66.6283 61.5366 66.4805 61.5682 66.2376L61.5577 66.2481ZM77.0831 69.1631L61.5471 78.0348V76.5984L77.0831 67.7267V69.1631ZM79.3539 55.9295L78.0125 49.0962C77.9386 48.7054 78.1498 48.2407 78.4878 48.0401L89.5246 41.5975C89.6408 41.5342 89.7675 41.4919 89.8837 41.4919C90.1688 41.4919 90.4223 41.682 90.5279 41.9672L92.7247 48.2302C92.862 48.6209 92.693 49.0962 92.334 49.3074L80.2938 56.352C80.1777 56.4153 80.0615 56.447 79.9453 56.447C79.6496 56.447 79.4172 56.2358 79.3539 55.919V55.9295ZM90.792 61.2103L79.903 67.4521V66.0158L91.5207 59.2458L90.792 61.2103ZM94.1083 52.2964C94.1083 52.6026 93.8865 52.9829 93.6225 53.1413L90.8025 54.7783C90.5385 54.9367 90.3167 54.81 90.3167 54.5037V53.0357C90.3167 52.7294 90.5385 52.3492 90.8025 52.1907L93.6225 50.5537C93.8865 50.3953 94.1083 50.522 94.1083 50.8283V52.2964Z" fill="black"/>
</g>
<path d="M94.3936 21.5308L99.6004 18.5313C100.963 17.7287 102.853 17.8448 104.934 19.0488C109.085 21.4463 112.443 27.2657 112.443 32.0606C112.443 34.4581 111.598 36.1374 110.246 36.9295L104.818 40.0452C104.818 40.0452 104.818 40.0452 104.807 40.0452H104.786V40.0557C103.424 40.8267 101.565 40.7 99.5053 39.5171C95.3547 37.1196 91.9961 31.3002 91.9961 26.5053C91.9961 23.9916 92.9255 22.2596 94.4041 21.5308H94.3936Z" fill="#2E373A"/>
<path d="M91.9858 26.5054C91.9858 31.3004 95.3444 37.1197 99.4951 39.5172C103.646 41.9147 107.004 39.9714 107.004 35.1764C107.004 30.3815 103.646 24.5621 99.4951 22.1646C95.3444 19.7672 91.9858 21.7105 91.9858 26.5054Z" fill="#555E61"/>
<path d="M92.4292 27.2655C92.4292 31.5324 95.4287 36.7287 99.1252 38.8621C102.822 40.9955 105.821 39.2634 105.821 34.9966C105.821 30.7297 102.822 25.5335 99.1252 23.4C95.4287 21.2666 92.4292 22.9987 92.4292 27.2655Z" fill="#2E373A"/>
<path d="M95.0696 28.7129C95.0696 31.4377 96.9812 34.7541 99.347 36.1165C101.713 37.4789 103.624 36.37 103.624 33.6451C103.624 30.9202 101.713 27.6039 99.347 26.2415C96.9812 24.879 95.0696 25.988 95.0696 28.7129Z" fill="url(#paint12_linear_43_28598)"/>
<path d="M97.3718 28.9026C97.3718 30.7192 98.6498 32.9371 100.223 33.8454C101.797 34.7537 103.075 34.0144 103.075 32.1978C103.075 30.3812 101.797 28.1633 100.223 27.255C98.6498 26.3467 97.3718 27.086 97.3718 28.9026Z" fill="#414E52"/>
<path d="M97.8152 28.8079C97.8152 30.5505 99.0826 32.6734 100.635 33.5394C102.198 34.416 103.455 33.7084 103.455 31.9658C103.455 30.2231 102.188 28.1002 100.635 27.2342C99.072 26.3576 97.8152 27.0652 97.8152 28.8079Z" fill="url(#paint13_linear_43_28598)"/>
<path d="M99.3366 26.2412C99.495 26.3257 99.6429 26.4313 99.7907 26.5264C99.7379 26.4947 99.6851 26.463 99.6323 26.4313C97.52 25.2062 95.7985 26.199 95.7985 28.6492C95.7985 31.0995 97.5094 34.0673 99.6323 35.2924C101.745 36.5176 103.466 35.5248 103.466 33.0851C103.466 32.5148 103.371 31.9233 103.202 31.3319C103.456 32.1134 103.603 32.9055 103.603 33.6554C103.603 36.3803 101.692 37.4892 99.326 36.1268C96.9602 34.7644 95.0486 31.448 95.0486 28.7232C95.0486 25.9983 96.9602 24.8893 99.326 26.2518L99.3366 26.2412Z" fill="url(#paint14_linear_43_28598)"/>
<path d="M100.097 28.0053C101.364 28.734 102.389 30.5084 102.389 31.9659C102.389 33.4234 101.364 34.0148 100.097 33.2861C98.8294 32.5573 97.8049 30.783 97.8049 29.3255C97.8049 27.868 98.8294 27.2766 100.097 28.0053Z" fill="url(#paint15_linear_43_28598)"/>
<path d="M97.8472 29.4836C97.8472 30.8355 98.7977 32.4831 99.97 33.159C101.142 33.8349 102.093 33.2857 102.093 31.9339C102.093 30.582 101.142 28.9344 99.97 28.2584C98.7977 27.5825 97.8472 28.1317 97.8472 29.4836Z" fill="url(#paint16_linear_43_28598)"/>
<path d="M102.03 30.1176L102.769 30.6456L103.17 31.7863L102.41 31.2582C102.336 30.878 102.209 30.4872 102.04 30.1176H102.03Z" fill="#C3C5C7"/>
<path d="M103.16 31.7966L102.758 30.6559H102.959C103.117 31.0362 103.244 31.4164 103.35 31.7966H103.16Z" fill="#AAACAE"/>
<path d="M102.759 30.6457L102.019 30.1176L102.611 29.8958C102.737 30.1387 102.854 30.3922 102.959 30.6457H102.759Z" fill="#DDDFE1"/>
<path d="M102.41 32.4728L103.191 34.8702L102.79 35.5779L102.008 33.2438C102.198 33.0642 102.336 32.8002 102.41 32.4728Z" fill="#C3C5C7"/>
<path d="M103.403 35.0603C103.308 35.3455 103.181 35.5884 103.033 35.7997L102.79 35.5779L103.192 34.8702L103.413 35.0603H103.403Z" fill="#B6B8BA"/>
<path d="M103.191 32.6629L103.55 34.4689C103.519 34.6801 103.466 34.8808 103.403 35.0604L103.181 34.8702L102.399 32.4728L103.181 32.6629H103.191Z" fill="#DDDFE1"/>
<path d="M100.731 36.6444C100.435 36.5916 100.129 36.4966 99.8013 36.3487V36.0002L100.688 36.2325L100.72 36.6444H100.731Z" fill="#C3C5C7"/>
<path d="M101.153 33.603L100.699 36.2328L99.8115 36.0004L100.213 33.3495C100.551 33.529 100.878 33.6135 101.163 33.603H101.153Z" fill="#D0D2D4"/>
<path d="M101.65 33.835L101.153 33.6027L100.699 36.2114L100.731 36.6444L101.259 35.8206L101.65 33.835Z" fill="#C4C6C8"/>
<path d="M98.354 31.3423C98.5547 31.7437 98.8082 32.1133 99.1039 32.4407L97.1923 33.7609L96.4424 32.6942L98.354 31.3423Z" fill="#D0D2D4"/>
<path d="M96.4422 32.6945L97.192 33.7612L96.9914 33.9302C96.7273 33.5817 96.495 33.212 96.2732 32.8318L96.4422 32.6945Z" fill="#C3C5C7"/>
<path d="M97.8578 28.8077C97.8261 28.9662 97.805 29.1351 97.805 29.3252C97.805 29.4942 97.8156 29.6632 97.8473 29.8322L95.2703 29.283V28.3008L97.8578 28.8077Z" fill="#C3C5C7"/>
<path d="M95.1013 28.1318L95.2808 28.3008V29.283L95.0907 29.1563C95.0801 29.0084 95.0696 28.85 95.0696 28.7022C95.0696 28.5015 95.0801 28.3008 95.1013 28.1213V28.1318Z" fill="#B6B8BA"/>
<path d="M97.8892 28.3008L95.8508 28.0367L95.0798 28.1318L95.2699 28.3008L97.8575 28.8077L97.8892 28.3008Z" fill="#DDDFE1"/>
<path d="M98.3434 27.9415L96.4846 26.2516L97.1711 25.9982L99.0616 27.6986C98.787 27.6986 98.5441 27.7831 98.3434 27.9415Z" fill="#9D9FA1"/>
<path d="M96.3367 25.935C96.5585 25.8083 96.8119 25.7238 97.076 25.6815L97.171 25.9878L96.4845 26.2413L96.3367 25.9244V25.935Z" fill="#C3C5C7"/>
<path d="M99.0617 27.6882L99.2624 26.9278L97.6465 25.9139L97.0762 25.6815L97.1712 25.9878L99.0617 27.6882Z" fill="#B6B8BA"/>
<path d="M94.7314 28.5225C94.7314 31.4586 96.7909 35.0284 99.3363 36.507C101.882 37.975 103.941 36.7816 103.941 33.8455C103.941 30.9094 101.882 27.3396 99.3363 25.861C96.7909 24.3929 94.7314 25.5864 94.7314 28.5225ZM95.0694 28.7126C95.0694 25.9877 96.981 24.8787 99.3468 26.2412C101.713 27.6036 103.624 30.9199 103.624 33.6448C103.624 36.3697 101.713 37.4786 99.3468 36.1162C96.981 34.7538 95.0694 31.4374 95.0694 28.7126Z" fill="url(#paint17_linear_43_28598)"/>
<path d="M100.181 27.9626L99.78 26.8114L100.678 27.5613L101.037 28.6491C100.773 28.3745 100.477 28.1316 100.171 27.952L100.181 27.9626Z" fill="#9D9FA1"/>
<path d="M100.678 27.5615L99.78 26.8116L99.8011 26.537C100.129 26.7588 100.435 27.0229 100.731 27.308L100.678 27.5615Z" fill="#C3C5C7"/>
<path d="M101.544 28.2161L101.047 28.6597L100.688 27.5718L100.741 27.3184C101.026 27.593 101.301 27.8992 101.554 28.2161H101.544Z" fill="#909294"/>
<path d="M95.5342 28.9766C95.5342 26.5475 97.2451 25.5652 99.3469 26.7798C101.449 27.9944 103.16 30.9516 103.16 33.3808C103.16 35.8099 101.459 36.7921 99.3469 35.5776C97.2451 34.363 95.5342 31.4058 95.5342 28.9766Z" fill="#414E52"/>
<g style="mix-blend-mode:multiply" opacity="0.3">
<path d="M77.0831 68.0544L61.5471 76.9261V76.5987L77.0831 67.727V68.0544Z" fill="black"/>
</g>
<g style="mix-blend-mode:multiply" opacity="0.3">
<path d="M91.5208 59.2355L79.8926 66.0054V66.3328L91.3201 59.7741L91.5208 59.2355Z" fill="black"/>
</g>
<g style="mix-blend-mode:multiply" opacity="0.1">
<path d="M94.8371 52.2436C94.4675 53.3208 92.2707 59.6155 91.9327 60.4287C91.5736 61.3265 89.6514 63.5338 88.6692 64.5794C87.687 65.625 85.1311 67.3148 85.1311 67.3148C85.1311 67.3148 62.4978 80.728 61.2092 81.3828C59.9207 82.0376 60.0264 81.1188 60.0264 81.1188L59.5511 69.1737L59.0125 68.7195L59.5088 81.1082C59.5088 81.2455 59.5088 81.5729 59.7412 81.8369C59.8679 81.9742 60.0792 81.9954 60.4383 81.9531C60.7234 81.9109 61.0508 81.8053 61.4416 81.6152C62.7301 80.9603 84.4657 68.1492 85.3951 67.6C85.5007 67.5261 87.9193 65.8468 88.9332 64.7695C88.9649 64.7378 91.7004 61.7172 92.2073 60.4604C92.5558 59.6049 94.816 52.9829 95.1223 52.1168L94.8266 52.2436H94.8371Z" fill="black"/>
</g>
<g style="mix-blend-mode:multiply" opacity="0.1">
<path d="M51.7038 70.9166C51.7038 70.9166 46.5075 72.184 34.5308 81.9851L35.0272 82.4181C35.0272 82.4181 42.5786 75.3419 53.4887 71.2229L51.7038 70.9272V70.9166Z" fill="black"/>
</g>
<g style="mix-blend-mode:multiply" opacity="0.1">
<path d="M22.2686 52.814L21.8461 52.4866L9.38354 67.1037L9.56309 67.2833L9.67927 67.0087L22.2686 52.814Z" fill="black"/>
</g>
<g style="mix-blend-mode:screen" opacity="0.2">
<path d="M87.0005 34.5215L86.747 34.3737C86.8737 34.6166 86.7681 34.9017 86.4301 35.0918L60.7445 49.9202C60.2587 50.2054 59.456 50.2054 58.9702 49.9202L40.8149 39.4326C40.5403 39.2742 40.4242 39.0524 40.4558 38.8517L40.2446 38.9679C39.7482 39.2531 39.7482 39.7283 40.2446 40.0135L58.854 50.7651C59.3504 51.0503 60.1742 51.0503 60.6706 50.7651L86.9899 35.5671C87.4863 35.2819 87.4863 34.8067 86.9899 34.5215H87.0005Z" fill="white"/>
</g>
<g style="mix-blend-mode:multiply" opacity="0.05">
<path d="M86.8735 33.7715L68.2641 23.0198C67.7677 22.7347 66.9439 22.7347 66.4475 23.0198L40.1282 38.2179C39.6424 38.503 39.4206 39.3902 40.0965 39.8972C39.7691 39.612 39.8325 39.2212 40.2655 38.9677L66.5848 23.7697C67.0812 23.4845 67.905 23.4845 68.4014 23.7697L87.0108 34.5213C87.4122 34.7537 87.4861 35.1022 87.2537 35.3768C87.7501 35.0917 87.3805 34.0566 86.8841 33.7715H86.8735Z" fill="black"/>
</g>
<g style="mix-blend-mode:screen" opacity="0.5">
<path d="M67.1344 24.8156C67.1344 24.8156 67.071 24.7839 67.0287 24.7734C67.1132 24.9001 67.0604 25.0585 66.8598 25.1642L53.246 33.0219C53.0347 33.1487 52.7179 33.1698 52.4961 33.0959C52.5172 33.1275 52.5595 33.1592 52.6017 33.1909C52.8129 33.3176 53.2037 33.2965 53.4466 33.1592L67.0604 25.3015C67.3139 25.1536 67.335 24.9424 67.1238 24.8156H67.1344Z" fill="white"/>
</g>
<g style="mix-blend-mode:multiply" opacity="0.2">
<path d="M52.6756 32.7048L66.2894 24.8471C66.5007 24.7203 66.8175 24.6992 67.0393 24.7731C67.0182 24.7415 66.9865 24.7098 66.9337 24.6781C66.7225 24.5514 66.3317 24.5725 66.0888 24.7098L52.475 32.5675C52.2215 32.7154 52.2004 32.9266 52.4116 33.0534C52.4433 33.0745 52.475 33.0851 52.5172 33.0956C52.4327 32.9689 52.4855 32.8105 52.6862 32.7048H52.6756Z" fill="black"/>
</g>
<g style="mix-blend-mode:screen" opacity="0.5">
<path d="M70.6195 26.8114C70.6195 26.8114 70.5561 26.7797 70.5139 26.7692C70.5983 26.8959 70.5455 27.0543 70.3449 27.1599L56.7311 35.0177C56.5198 35.1445 56.203 35.1656 55.9812 35.0916C56.0023 35.1233 56.034 35.155 56.0868 35.1867C56.298 35.3134 56.6888 35.2923 56.9317 35.155L70.5455 27.2972C70.799 27.1494 70.8201 26.9381 70.6089 26.8114H70.6195Z" fill="white"/>
</g>
<g style="mix-blend-mode:multiply" opacity="0.2">
<path d="M56.1607 34.7011L69.7745 26.8434C69.9858 26.7166 70.3026 26.6955 70.5244 26.7694C70.5033 26.7377 70.461 26.7061 70.4188 26.6744C70.2076 26.5476 69.8168 26.5688 69.5739 26.7061L55.9601 34.5638C55.7066 34.7117 55.6855 34.9229 55.8967 35.0497C55.9284 35.0708 55.9601 35.0813 56.0023 35.0919C55.9178 34.9652 55.9706 34.8067 56.1713 34.7011H56.1607Z" fill="black"/>
</g>
<g style="mix-blend-mode:screen" opacity="0.5">
<path d="M74.1051 28.8076C74.1051 28.8076 74.0417 28.7759 73.9994 28.7654C74.0839 28.8921 74.0311 29.0505 73.8305 29.1562L60.2167 37.0139C60.0054 37.1407 59.6886 37.1618 59.4668 37.0879C59.4879 37.1195 59.5196 37.1512 59.5724 37.1829C59.7836 37.3097 60.1744 37.2885 60.4173 37.1512L74.0311 29.2935C74.2846 29.1456 74.3057 28.9344 74.0945 28.8076H74.1051Z" fill="white"/>
</g>
<g style="mix-blend-mode:multiply" opacity="0.2">
<path d="M59.6459 36.6974L73.2597 28.8396C73.4709 28.7129 73.7877 28.6918 74.0095 28.7657C73.9884 28.734 73.9567 28.7023 73.9039 28.6706C73.6927 28.5439 73.3019 28.565 73.059 28.7023L59.4452 36.5601C59.1917 36.708 59.1706 36.9192 59.3818 37.0459C59.4135 37.0671 59.4452 37.0776 59.4874 37.0882C59.4029 36.9614 59.4557 36.803 59.6564 36.6974H59.6459Z" fill="black"/>
</g>
<g style="mix-blend-mode:screen" opacity="0.5">
<path d="M77.6004 30.8039C77.6004 30.8039 77.5371 30.7722 77.4948 30.7617C77.5793 30.8884 77.5265 31.0468 77.3258 31.1524L63.712 39.0102C63.5008 39.1369 63.184 39.1581 62.9622 39.0841C62.9833 39.1158 63.015 39.1475 63.0678 39.1792C63.279 39.3059 63.6698 39.2848 63.9127 39.1475L77.5265 31.2897C77.78 31.1419 77.8011 30.9306 77.5899 30.8039H77.6004Z" fill="white"/>
</g>
<g style="mix-blend-mode:multiply" opacity="0.2">
<path d="M63.1314 38.6931L76.7453 30.8354C76.9565 30.7086 77.2733 30.6875 77.4951 30.7614C77.474 30.7297 77.4423 30.6981 77.3895 30.6664C77.1783 30.5396 76.7875 30.5608 76.5446 30.6981L62.9308 38.5558C62.6773 38.7037 62.6562 38.9149 62.8674 39.0417C62.8991 39.0628 62.9308 39.0733 62.973 39.0839C62.8885 38.9572 62.9413 38.7987 63.142 38.6931H63.1314Z" fill="black"/>
</g>
<g style="mix-blend-mode:screen" opacity="0.5">
<path d="M81.086 32.8002C81.086 32.8002 81.0227 32.7685 80.9804 32.7579C81.0649 32.8847 81.0121 33.0431 80.8114 33.1487L67.1976 41.0065C66.9864 41.1332 66.6695 41.1543 66.4478 41.0804C66.4689 41.1121 66.5111 41.1438 66.5534 41.1755C66.7646 41.3022 67.1554 41.2811 67.3983 41.1438L81.0121 33.286C81.2656 33.1381 81.2867 32.9269 81.0755 32.8002H81.086Z" fill="white"/>
</g>
<g style="mix-blend-mode:multiply" opacity="0.2">
<path d="M66.6273 40.6894L80.2411 32.8316C80.4523 32.7049 80.7692 32.6838 80.991 32.7577C80.9698 32.726 80.9382 32.6943 80.8854 32.6626C80.6741 32.5359 80.2833 32.557 80.0404 32.6943L66.4266 40.5521C66.1732 40.7 66.152 40.9112 66.3633 41.0379C66.3949 41.0591 66.4266 41.0696 66.4689 41.0802C66.3844 40.9534 66.4372 40.795 66.6379 40.6894H66.6273Z" fill="black"/>
</g>
<g style="mix-blend-mode:screen" opacity="0.5">
<path d="M84.5711 34.796C84.5711 34.796 84.5078 34.7643 84.4655 34.7537C84.55 34.8805 84.4972 35.0389 84.2965 35.1445L70.6827 43.0023C70.4715 43.129 70.1547 43.1501 69.9329 43.0762C69.954 43.1079 69.9962 43.1396 70.0385 43.1713C70.2497 43.298 70.6405 43.2769 70.8834 43.1396L84.4972 35.2818C84.7507 35.1339 84.7718 34.9227 84.5606 34.796H84.5711Z" fill="white"/>
</g>
<g style="mix-blend-mode:multiply" opacity="0.2">
<path d="M70.1124 42.6857L83.7262 34.8279C83.9374 34.7012 84.2543 34.68 84.4761 34.754C84.4549 34.7223 84.4127 34.6906 84.3705 34.6589C84.1592 34.5322 83.7684 34.5533 83.5255 34.6906L69.9117 42.5484C69.6583 42.6962 69.6371 42.9075 69.8484 43.0342C69.8801 43.0553 69.9117 43.0659 69.954 43.0765C69.8695 42.9497 69.9223 42.7913 70.123 42.6857H70.1124Z" fill="black"/>
</g>
<g style="mix-blend-mode:multiply" opacity="0.2">
<path d="M51.6827 70.9587C51.6827 70.9587 46.7293 68.8675 37.488 63.1749C27.8664 57.2499 22.6807 53.2154 22.6279 53.1731L22.6807 53.0992C22.6807 53.0992 27.9087 57.1654 37.5302 63.0904C46.7716 68.783 51.6616 70.8531 51.7144 70.8742L51.6827 70.9587Z" fill="black"/>
</g>
<g style="mix-blend-mode:multiply" opacity="0.3">
<path d="M29.8416 52.6347L26.0606 54.8737C26.0078 54.8315 25.955 54.7998 25.8916 54.7575L29.6726 52.5185C29.7254 52.5607 29.7782 52.603 29.8416 52.6347Z" fill="black"/>
<path d="M30.2215 52.8986L26.4405 55.1377C26.3877 55.0954 26.3349 55.0638 26.2715 55.0215L30.0525 52.7825C30.1053 52.8247 30.1581 52.8564 30.2215 52.8986Z" fill="black"/>
<path d="M30.6018 53.173L26.8313 55.412C26.7785 55.3698 26.7152 55.3381 26.6624 55.2959L30.4328 53.0568C30.4856 53.0991 30.5384 53.1413 30.6018 53.173Z" fill="black"/>
<path d="M30.9717 53.437L27.2012 55.6761C27.1484 55.6338 27.085 55.6021 27.0322 55.5599L30.8027 53.3209C30.8555 53.3631 30.9083 53.3948 30.9717 53.437Z" fill="black"/>
<path d="M31.3518 53.7011L27.5813 55.9401C27.5285 55.8979 27.4652 55.8662 27.4124 55.8239L31.1828 53.5849C31.2356 53.6271 31.299 53.6588 31.3518 53.7011Z" fill="black"/>
<path d="M31.7427 53.9651L27.9722 56.2042C27.9194 56.1619 27.856 56.1302 27.8032 56.088L31.5737 53.8489C31.6265 53.8912 31.6899 53.9229 31.7427 53.9651Z" fill="black"/>
<path d="M32.1228 54.2292L28.3523 56.4682C28.2995 56.4259 28.2362 56.3943 28.1833 56.352L31.9538 54.113C32.0066 54.1552 32.0594 54.1869 32.1228 54.2292Z" fill="black"/>
<path d="M32.5027 54.4932L28.7322 56.7322C28.6794 56.69 28.616 56.6583 28.5632 56.6161L32.3337 54.377C32.3865 54.4087 32.4499 54.4509 32.5027 54.4932Z" fill="black"/>
<path d="M32.894 54.7572L29.1341 56.9963C29.0813 56.954 29.0179 56.9223 28.9651 56.8801L32.725 54.6411C32.7778 54.6727 32.8412 54.715 32.894 54.7572Z" fill="black"/>
<path d="M33.2741 55.0213L29.5142 57.2603C29.4614 57.2181 29.398 57.1864 29.3452 57.1441L33.1157 54.9051C33.1685 54.9473 33.2213 54.979 33.2847 55.0213H33.2741Z" fill="black"/>
<path d="M33.665 55.2853L29.9051 57.5243C29.8523 57.4927 29.7889 57.4504 29.7361 57.4082L33.496 55.1691C33.5488 55.2008 33.6122 55.2431 33.665 55.2853Z" fill="black"/>
<path d="M34.0554 55.5493L30.2954 57.7884C30.2426 57.7461 30.1793 57.7145 30.1265 57.6722L33.8864 55.4332C33.9392 55.4649 34.0025 55.5071 34.0554 55.5493Z" fill="black"/>
<path d="M34.4462 55.8134L30.6863 58.0524C30.6335 58.0102 30.5701 57.9785 30.5173 57.9362L34.2772 55.6972C34.33 55.7289 34.3934 55.7711 34.4462 55.8134Z" fill="black"/>
<path d="M34.8371 56.0671L31.0772 58.3061C31.0244 58.2745 30.961 58.2322 30.9082 58.19L34.6681 55.9509C34.7209 55.9826 34.7843 56.0249 34.8371 56.0671Z" fill="black"/>
<path d="M35.228 56.3311L31.4681 58.5702C31.4152 58.5279 31.3519 58.4963 31.2991 58.454L35.059 56.215C35.1118 56.2467 35.1752 56.2889 35.228 56.3311Z" fill="black"/>
<path d="M35.6188 56.5849L31.8589 58.8239C31.8061 58.7922 31.7427 58.75 31.6899 58.7077L35.4498 56.4687C35.5027 56.5109 35.566 56.5426 35.6188 56.5849Z" fill="black"/>
<path d="M36.0092 56.8489L32.2493 59.0879C32.1965 59.0563 32.1331 59.014 32.0803 58.9718L35.8402 56.7327C35.893 56.7644 35.9564 56.8067 36.0092 56.8489Z" fill="black"/>
<path d="M36.4111 57.1021L32.6512 59.3412C32.5984 59.3095 32.535 59.2672 32.4822 59.225L36.2421 56.986C36.2949 57.0282 36.3583 57.0599 36.4111 57.1021Z" fill="black"/>
<path d="M36.8014 57.3662L33.0415 59.6052C32.9887 59.5735 32.9254 59.5313 32.8726 59.489L36.6219 57.25C36.6747 57.2817 36.7381 57.3239 36.7909 57.3662H36.8014Z" fill="black"/>
<path d="M37.203 57.6199L33.4537 59.8589C33.4008 59.8273 33.3375 59.785 33.2847 59.7428L37.0446 57.5037C37.0974 57.5354 37.1607 57.5777 37.2136 57.6199H37.203Z" fill="black"/>
<path d="M44.0997 61.8863L40.3292 64.157C40.2658 64.1254 40.213 64.0831 40.1497 64.0514L43.9201 61.7913C43.9835 61.8229 44.0363 61.8652 44.0997 61.8969V61.8863Z" fill="black"/>
<path d="M44.522 62.1294L40.7516 64.4001C40.6882 64.3685 40.6354 64.3262 40.572 64.2945L44.3425 62.0238C44.4059 62.0555 44.4692 62.0977 44.522 62.1294Z" fill="black"/>
<path d="M44.9445 62.3723L41.1634 64.6431C41.1001 64.6114 41.0473 64.5691 40.9839 64.5374L44.7649 62.2667C44.8283 62.2984 44.8916 62.3407 44.9445 62.3723Z" fill="black"/>
<path d="M45.3668 62.6153L41.5858 64.8965C41.5224 64.8649 41.4591 64.8226 41.4062 64.7909L45.1873 62.5096C45.2506 62.5413 45.314 62.573 45.3668 62.6153Z" fill="black"/>
<path d="M45.7895 62.8581L41.9979 65.1394C41.9345 65.1077 41.8817 65.0655 41.8184 65.0338L45.6099 62.7525C45.6733 62.7842 45.7367 62.8264 45.8001 62.8581H45.7895Z" fill="black"/>
<path d="M46.2122 63.0907L42.41 65.3826C42.3466 65.3509 42.2938 65.3192 42.2305 65.277L46.0221 62.9851C46.0854 63.0168 46.1488 63.059 46.2016 63.0907H46.2122Z" fill="black"/>
<path d="M46.6451 63.3333L42.8324 65.6357C42.769 65.6041 42.7056 65.5618 42.6528 65.5301L46.455 63.2383C46.5183 63.27 46.5817 63.3122 46.6345 63.3439L46.6451 63.3333Z" fill="black"/>
<path d="M47.078 63.5656L43.2653 65.868C43.2019 65.8364 43.1386 65.7941 43.0752 65.7624L46.8879 63.46C46.9513 63.4917 47.0146 63.5234 47.078 63.5656Z" fill="black"/>
<path d="M47.5004 63.798L43.6771 66.111C43.6137 66.0793 43.5609 66.037 43.4976 66.0054L47.3208 63.7029C47.3842 63.7346 47.4476 63.7663 47.5109 63.8086L47.5004 63.798Z" fill="black"/>
<path d="M47.9333 64.0303L44.0995 66.3433C44.0361 66.3116 43.9727 66.2693 43.9199 66.2377L47.7538 63.9247C47.8171 63.9564 47.8805 63.9881 47.9439 64.0303H47.9333Z" fill="black"/>
<path d="M48.3773 64.2732L44.5329 66.5968C44.4695 66.5651 44.4061 66.5228 44.3428 66.4911L48.1872 64.1676C48.2505 64.1993 48.3139 64.231 48.3773 64.2732Z" fill="black"/>
<path d="M48.8099 64.5055L44.9549 66.8396C44.8916 66.8079 44.8282 66.7762 44.7754 66.734L48.6303 64.4105C48.6937 64.4421 48.7571 64.4738 48.8205 64.5161L48.8099 64.5055Z" fill="black"/>
<path d="M49.2534 64.7278L45.3879 67.0725C45.3245 67.0408 45.2611 67.0091 45.1978 66.9669L49.0633 64.6328C49.1266 64.6644 49.19 64.6961 49.2534 64.7278Z" fill="black"/>
<path d="M49.697 64.9601L45.821 67.3048C45.7576 67.2731 45.6942 67.2414 45.6309 67.1991L49.5069 64.8545C49.5703 64.8862 49.6337 64.9179 49.697 64.9495V64.9601Z" fill="black"/>
<path d="M50.1405 65.1818L46.2433 67.5371C46.18 67.5054 46.1166 67.4737 46.0532 67.4315L49.9399 65.0762C50.0032 65.1079 50.0666 65.1396 50.13 65.1713L50.1405 65.1818Z" fill="black"/>
<path d="M50.5947 65.4139L46.6869 67.7797C46.6236 67.748 46.5602 67.7163 46.4968 67.6741L50.394 65.3083C50.4574 65.34 50.5208 65.3717 50.5841 65.4033L50.5947 65.4139Z" fill="black"/>
<path d="M51.0489 65.6357L47.12 68.012C47.0567 67.9804 46.9933 67.9487 46.9299 67.9064L50.8483 65.5301C50.9116 65.5618 50.9856 65.5935 51.0489 65.6251V65.6357Z" fill="black"/>
<path d="M51.4926 65.8574L47.5531 68.2444C47.4898 68.2127 47.4264 68.181 47.363 68.1387L51.2919 65.7518C51.3553 65.7835 51.4292 65.8152 51.4926 65.8469V65.8574Z" fill="black"/>
<path d="M51.9573 66.0794L47.9967 68.4875C47.9334 68.4558 47.87 68.4241 47.8066 68.3818L51.7566 65.9844C51.82 66.0161 51.8939 66.0477 51.9573 66.0794Z" fill="black"/>
<path d="M52.4115 66.3012L48.4299 68.7198C48.3665 68.6881 48.3031 68.6564 48.2397 68.6142L52.2109 66.2062C52.2742 66.2379 52.3482 66.2695 52.4115 66.3012Z" fill="black"/>
</g>
<path d="M34.1613 87.3713C33.8128 87.2657 33.591 87.2023 33.591 87.2023L33.0734 87.4452C33.0734 87.4452 31.0034 86.632 28.0778 85.259L26.2507 86.2412L26.1979 86.8854L13.0805 79.2178V76.4929C11.3167 75.215 9.93315 74.0954 9.05655 73.335L8.31724 73.5779L5.93034 69.9342L5.07485 70.3567L4.96924 70.6946V72.6696L6.75414 77.2428L7.5885 78.3517V80.1894L10.1233 82.6608L29.9578 94.1095L32.2391 94.627L33.8339 93.8666V92.6837L38.0162 92.1979L39.009 91.8071V89.7371L34.1507 88.4802V87.3396L34.1613 87.3713Z" fill="#2B3436"/>
<path d="M31.521 88.9346V94.49L32.2497 94.6484L33.8445 93.888V92.7157L34.7739 92.5995L34.6366 88.6283L34.1614 88.5122V87.3715L31.521 88.9346Z" fill="#404B4D"/>
<path d="M39.0193 91.8286V89.7585C38.0793 90.3922 37.5196 90.2972 37.5196 90.2972L32.1121 89.0615V92.7052L33.8441 93.0854V92.7052L38.0265 92.2194L39.0193 91.8286Z" fill="url(#paint18_linear_43_28598)"/>
<path d="M109.148 49.1385L107.479 48.9484L107.638 49.73L108.863 50.5432L111.377 54.377L115.031 50.0151V46.7094C115.031 46.7094 114.957 46.3714 114.566 46.0651C114.175 45.7588 112.982 45.0512 112.982 45.0512V46.4136L109.148 49.1385Z" fill="#5A6567"/>
<path d="M108.863 50.5542L111.376 54.388L115.031 50.0261V46.7203C115.031 46.7203 115.009 46.6358 114.935 46.5091L108.81 50.533L108.863 50.5647V50.5542Z" fill="#404B4D"/>
<path d="M109.043 49.8672L108.884 49.1068L107.479 48.9484L107.638 49.7405L108.821 50.522L109.043 49.8672Z" fill="#343F41"/>
<path d="M55.3266 78.542C54.8196 77.8343 53.9008 78.1195 52.8446 78.542C51.7885 78.9644 50.0881 79.7354 48.282 80.9077C46.476 82.0801 44.2053 83.6221 43.4343 84.6465C42.6633 85.671 42.2197 87.5192 42.2197 87.5192C42.2197 87.5192 42.9802 87.7938 43.1808 87.4453C43.3815 87.0968 43.8462 85.4386 44.8601 84.5832C45.874 83.7277 49.4544 81.4041 50.7429 80.6859C52.0314 79.9678 54.5556 78.7849 55.0625 79.4397C55.5695 80.0839 59.1393 86.6532 59.1393 86.6532L59.2238 85.1535C59.2238 85.1535 55.823 79.2496 55.3266 78.542Z" fill="url(#paint19_linear_43_28598)"/>
<path d="M33.4534 88.2482L32.1121 89.0615L37.5196 90.2972C37.5196 90.2972 38.0793 90.3922 39.0193 89.7585L34.161 88.5017L33.4534 88.2482Z" fill="#5A6567"/>
<path d="M32.9678 90.0116C32.9678 89.8638 33.084 89.7687 33.2213 89.8004L37.0129 90.5925C37.1502 90.6242 37.2664 90.7615 37.2664 90.9094V91.617C37.2664 91.7648 37.1502 91.881 37.0023 91.881L33.2213 91.9866C33.0735 91.9866 32.9573 91.881 32.9573 91.7332V90.0116H32.9678Z" fill="url(#paint20_linear_43_28598)"/>
<path d="M37.0129 90.5929L34.626 90.0965V90.9625C34.626 91.1104 34.7422 91.216 34.89 91.216L37.2769 91.1526V90.9097C37.2769 90.7619 37.1607 90.6246 37.0234 90.5929H37.0129Z" fill="#1E2729"/>
<path d="M8.3802 73.5674L7.27124 74.2856C7.27124 74.2856 7.64089 75.0354 8.83435 75.912C10.0278 76.7886 11.3163 77.5596 11.3163 77.5596L13.0801 76.5035C11.3163 75.2255 9.93274 74.106 9.05614 73.3456L8.3802 73.5674Z" fill="#5A6567"/>
<path d="M25.8174 89.1351C25.8174 89.1351 26.092 89.452 26.1131 88.7232C26.1342 87.9945 26.1554 86.8644 26.1554 86.8644L13.0802 79.2178L11.4749 80.4641C11.4749 80.4641 16.5655 83.5058 18.5511 84.7521C20.5366 85.9983 25.8174 89.1351 25.8174 89.1351Z" fill="#5A6567"/>
<path d="M33.0732 87.4455C33.0732 87.4455 31.0032 86.6322 28.0776 85.2592L26.2505 86.2414V86.2837C26.2505 86.3576 26.3139 86.5266 26.7258 86.7695C27.2855 87.0969 31.1405 88.9346 31.5101 88.9346L34.1611 87.3715C33.8125 87.2659 33.5907 87.2025 33.5907 87.2025L33.0732 87.4455Z" fill="#5A6567"/>
<path d="M8.14837 73.3245L5.94102 69.9553L5.08553 70.3778L4.99048 70.6629C5.09609 70.8425 6.9338 74.0638 6.9338 74.0638L8.13781 73.3245H8.14837Z" fill="#5A6567"/>
<path d="M30.1372 92.1662C29.5458 91.8916 7.58838 78.6475 7.58838 78.6475V80.2106L10.1231 82.682L29.9577 94.1307L32.239 94.6482L33.8338 93.8877V92.7048H32.1017C32.1017 92.7048 30.7287 92.4303 30.1267 92.1557L30.1372 92.1662Z" fill="#ACAFB1"/>
<path d="M13.0805 76.5037L11.3062 77.5598L11.4751 80.4748L13.0805 79.218V76.5037Z" fill="#404B4D"/>
<path d="M7.20837 77.8659L7.27174 74.2855L8.37014 73.5779V73.5673L8.31733 73.5884L8.14835 73.3244L6.94434 74.0637V77.5068L7.20837 77.8659Z" fill="#404B4D"/>
<path d="M6.94394 77.5068V74.0637L4.99005 70.6629L4.97949 70.7157V72.6907L6.76439 77.2744L6.94394 77.5068Z" fill="#2B3436"/>
<path d="M5.29646 72.7859C5.26478 72.7015 5.24365 72.5642 5.24365 72.4797V71.772C5.24365 71.6875 5.27534 71.677 5.31758 71.7509L6.60609 73.99C6.64834 74.0639 6.68002 74.2012 6.68002 74.2857V76.1656C6.68002 76.2501 6.6589 76.2607 6.62721 76.1762L5.29646 72.7859Z" fill="url(#paint21_linear_43_28598)"/>
<path d="M30.676 90.6668C30.676 91.4695 30.1162 91.7969 29.4192 91.3955C28.7221 90.9942 28.1624 90.012 28.1624 89.2093C28.1624 88.4066 28.7221 88.0792 29.4192 88.4806C30.1162 88.8819 30.676 89.8641 30.676 90.6668Z" fill="url(#paint22_linear_43_28598)"/>
<path d="M29.4083 88.4804C29.1865 88.3537 28.9647 88.3009 28.7852 88.3114C28.764 88.417 28.7429 88.5227 28.7429 88.6494C28.7429 89.4521 29.3027 90.4343 29.9997 90.8356C30.2215 90.9624 30.4433 91.0152 30.6229 91.0046C30.644 90.899 30.6651 90.7934 30.6651 90.6667C30.6651 89.864 30.1054 88.8818 29.4083 88.4804Z" fill="white"/>
<path d="M9.89103 78.2146C9.89103 78.9328 9.38407 79.2285 8.76094 78.8694C8.13781 78.5103 7.63086 77.6337 7.63086 76.905C7.63086 76.1868 8.13781 75.8911 8.76094 76.2502C9.38407 76.6092 9.89103 77.4859 9.89103 78.2146Z" fill="url(#paint23_linear_43_28598)"/>
<path d="M8.76063 76.2503C8.55997 76.1341 8.36986 76.0813 8.20087 76.1024C8.17975 76.1975 8.16919 76.2925 8.16919 76.4087C8.16919 77.1269 8.67614 78.014 9.29927 78.3731C9.49994 78.4893 9.69005 78.5421 9.85903 78.521C9.88016 78.4259 9.89072 78.3309 9.89072 78.2147C9.89072 77.4965 9.38376 76.6093 8.76063 76.2503Z" fill="white"/>
<path d="M31.521 92.5781V94.4791L32.2497 94.6481L33.8445 93.8877V92.7048H32.1124C32.1124 92.7048 31.859 92.652 31.521 92.5781Z" fill="#86898B"/>
<path d="M67.8207 19.5348L67.3982 19.8305C67.3982 19.8305 74.2632 23.3581 79.3644 26.3787C84.6135 29.4943 92.7987 34.8807 92.7987 34.8807L92.4184 37.0986C92.8092 37.3521 93.3584 38.6511 93.3584 38.6511L96.6325 46.4772L112.939 36.9085L112.781 36.7501L112.665 35.7573C112.665 35.7573 112.665 35.6939 112.57 35.5777C112.454 35.7678 112.264 35.9791 111.915 36.1797C110.954 36.7289 97.752 44.2593 97.752 44.2593C97.752 44.2593 98.2695 43.6045 98.4702 42.8335L95.5552 36.2009C95.5552 36.2009 95.1011 35.2292 94.3829 34.7751C93.6647 34.3209 83.3038 27.7833 80.1882 25.8611C77.062 23.9389 72.7634 21.721 72.7634 21.721L69.2359 19.6721C69.2359 19.6721 68.5388 19.408 67.8207 19.5242V19.5348Z" fill="url(#paint24_linear_43_28598)"/>
<path d="M111.915 36.2008C112.253 36.0002 112.454 35.7889 112.57 35.5988C112.591 35.6305 112.612 35.6516 112.623 35.6727C112.57 35.5883 112.443 35.4404 112.169 35.2503C111.683 34.9229 82.0578 17.1373 82.0578 17.1373C82.0578 17.1373 81.5614 16.7254 80.4525 17.3063C79.3435 17.8871 72.7637 21.7315 72.7637 21.7315C72.7637 21.7315 77.0622 23.9495 80.1884 25.8717C83.3146 27.7938 93.6755 34.3314 94.3831 34.7856C95.1013 35.2397 95.5554 36.2114 95.5554 36.2114L98.4704 42.844C98.2803 43.6256 97.7522 44.2698 97.7522 44.2698C97.7522 44.2698 110.954 36.7395 111.915 36.1903V36.2008Z" fill="url(#paint25_linear_43_28598)"/>
<path d="M112.612 35.6727C112.612 35.6727 112.633 35.7149 112.644 35.7255C112.644 35.7149 112.633 35.6938 112.612 35.6727Z" fill="url(#paint26_linear_43_28598)"/>
<path d="M112.665 35.8206L112.655 35.7784L112.665 35.8206Z" fill="url(#paint27_linear_43_28598)"/>
<path d="M112.644 35.7361C112.644 35.7361 112.644 35.7573 112.654 35.7678C112.654 35.7678 112.654 35.7467 112.644 35.7361Z" fill="url(#paint28_linear_43_28598)"/>
<path d="M67.293 44.9459C67.5465 44.7981 67.5465 44.5657 67.293 44.4179L50.7325 34.8491C50.4791 34.7013 50.0777 34.7013 49.8242 34.8491L43.0226 38.778C42.7692 38.9259 42.7692 39.1582 43.0226 39.3061L59.5831 48.8748C59.8366 49.0227 60.2379 49.0227 60.4914 48.8748L67.293 44.9459Z" fill="#141C1E"/>
<path d="M60.0474 48.7163C59.9206 48.7163 59.8045 48.6846 59.72 48.6424L43.1595 39.0736C43.1595 39.0736 43.1173 39.0525 43.1067 39.0419C43.1067 39.0419 43.1278 39.0208 43.1595 39.0103L49.9611 35.0814C50.0456 35.0391 50.1618 35.0074 50.2885 35.0074C50.4153 35.0074 50.5314 35.0391 50.6159 35.0814L67.1764 44.6501C67.1764 44.6501 67.2186 44.6712 67.2292 44.6818C67.2292 44.6818 67.2081 44.7029 67.1764 44.7135L60.3748 48.6424C60.2903 48.6846 60.1741 48.7163 60.0474 48.7163Z" fill="#303E42"/>
<path opacity="0.7" d="M50.5948 35.0917C50.5103 35.0494 50.3942 35.0178 50.2674 35.0178C50.1407 35.0178 50.0245 35.0494 49.94 35.0917L47.796 36.3274L47.4897 38.0172L51.5348 35.6409L50.5843 35.0917H50.5948Z" fill="#C5D0D3"/>
<path opacity="0.7" d="M45.05 37.9224L43.1595 39.0103C43.1595 39.0103 43.1173 39.0314 43.1067 39.0419C43.1067 39.0419 43.1278 39.0631 43.1595 39.0736L44.1312 39.6334L44.8282 39.2954L45.05 37.9119V37.9224Z" fill="#C5D0D3"/>
<path opacity="0.2" d="M58.7801 39.8127L50.5949 35.0917C50.5104 35.0494 50.3943 35.0178 50.2675 35.0178C50.1408 35.0178 50.0246 35.0494 49.9401 35.0917L43.1385 39.0206C43.1385 39.0206 43.0963 39.0417 43.0857 39.0523C43.0857 39.0523 43.1068 39.0734 43.1385 39.0839L51.63 43.9845L58.759 39.8127H58.7801Z" fill="white"/>
<path d="M18.1818 67.8323C17.9389 67.6844 17.9178 67.4098 18.1395 67.2303L24.3708 62.1396C24.5926 61.9601 24.9834 61.9284 25.2263 62.0763L37.6889 69.4693C37.9318 69.6172 37.9635 69.8918 37.7417 70.0819L31.5421 75.4049C31.3203 75.595 30.9401 75.6267 30.6972 75.4683L18.1818 67.8429V67.8323Z" fill="#5A6567"/>
<path d="M25.0467 62.3828C25.0467 62.3828 24.9305 62.3405 24.8672 62.3405C24.7721 62.3405 24.6665 62.3722 24.6137 62.4144C24.6137 62.4144 18.3824 67.5157 18.3718 67.5157C18.3718 67.5157 19.0266 67.917 20.03 68.519L26.557 63.2699C25.6382 62.7313 25.0573 62.3828 25.0573 62.3828H25.0467Z" fill="#2B3436"/>
<path d="M30.8873 75.141C30.8873 75.141 30.9929 75.1832 31.0563 75.1832C31.1513 75.1832 31.2464 75.1515 31.2992 75.1093L37.5094 69.7757C37.5094 69.7757 36.8862 69.4061 35.9251 68.8358L29.4087 74.2433C30.3064 74.7925 30.8767 75.141 30.8767 75.141H30.8873Z" fill="#2B3436"/>
<path d="M24.8566 62.8795C24.7615 62.8795 24.6559 62.9111 24.6031 62.9534C24.6031 62.9534 20.0828 66.6499 18.7415 67.7483C19.0266 67.9279 19.4702 68.1919 20.0194 68.5299L26.1556 63.5871C25.4586 63.1752 25.0361 62.9217 25.0361 62.9217C24.9939 62.89 24.9199 62.8795 24.8566 62.8795Z" fill="#4D585A"/>
<path d="M29.7888 74.4757C30.4753 74.8876 30.8872 75.1516 30.8872 75.1516C30.9295 75.1727 30.9928 75.1938 31.0562 75.1938C31.1513 75.1938 31.2463 75.1622 31.2991 75.1199C31.2991 75.1199 35.8089 71.2438 37.1396 70.1032C36.865 69.9342 36.4426 69.6913 35.9251 69.385L29.7888 74.4862V74.4757Z" fill="#4D585A"/>
<path d="M29.0495 74.0219L35.6821 68.6883C33.2847 67.273 29.1234 64.8017 26.7788 63.4075L20.3679 68.7305C22.7654 70.188 26.726 72.6066 29.0495 74.0219Z" fill="#2B3436"/>
<path d="M23.3459 66.2588L22.5854 66.8925C25.0991 68.3817 28.426 70.3567 31.4149 72.131L32.1753 71.5184C29.2392 69.7758 25.9123 67.8113 23.3459 66.2694V66.2588Z" fill="#4D585A"/>
<path d="M22.3217 67.1041L21.519 67.7694C24.0644 69.2797 27.3807 71.2442 30.3274 72.9868L31.13 72.3426C28.2045 70.5999 24.8987 68.6566 22.3217 67.1041Z" fill="#4D585A"/>
<path d="M26.5465 63.5973L25.6277 64.3577C28.1836 65.8786 31.5421 67.8641 34.5099 69.6279L35.4288 68.8886C32.461 67.1248 29.113 65.1498 26.5465 63.5973Z" fill="#4D585A"/>
<path d="M21.2759 67.9802L20.4944 68.635C23.0503 70.1559 26.356 72.1098 29.2816 73.8419L30.0631 73.2082C27.1693 71.4867 23.8741 69.5433 21.2759 67.9802Z" fill="#4D585A"/>
<path d="M24.3708 65.4141L23.5999 66.0584C26.1029 67.5476 29.4509 69.5226 32.4398 71.3075L33.2108 70.6843C30.2853 68.9417 26.9479 66.9772 24.3708 65.4247V65.4141Z" fill="#4D585A"/>
<path d="M25.3739 64.5797L24.624 65.2028C27.1482 66.7026 30.4962 68.6881 33.4851 70.4625L34.235 69.8605C31.32 68.1284 27.9826 66.1639 25.3739 64.5903V64.5797Z" fill="#4D585A"/>
<path d="M53.4888 71.0962L57.6394 69.5964L57.7767 71.2968L55.8334 73.6626L55.3793 71.2757L53.4888 71.0962Z" fill="#2B3436"/>
<path d="M54.7245 71.2124L57.2698 70.3252L57.6394 69.5964L53.4888 71.0962L54.7245 71.2124Z" fill="#4D585A"/>
<path d="M107.638 49.7405L106.951 52.571L111.387 54.377L108.916 50.4481L107.638 49.7405Z" fill="#343F41"/>
<path d="M39.104 83.5373C38.6498 83.3895 35.0272 82.4073 35.0272 82.4073L34.5414 81.8053C34.5414 81.8053 28.4157 79.0381 21.5402 74.8241C14.6752 70.5995 10.5139 67.9591 9.67958 66.998L9.58452 67.1459L7.47222 64.5477C7.34548 64.59 6.93358 64.8329 6.56393 66.4066C6.12034 68.2971 5.98304 69.0997 6.18371 69.4166C6.38438 69.7334 8.17984 71.9408 8.17984 71.9408C8.17984 71.9408 7.94749 72.321 8.57062 72.9019C9.37329 73.6412 10.947 74.9508 13.0909 76.5034V79.2282L26.2084 86.8959L26.2612 86.2517L28.0883 85.2694C31.0244 86.6424 33.0839 87.4557 33.0839 87.4557L33.6014 87.2128C33.6014 87.2128 38.6287 88.6808 39.273 88.6386L39.5581 83.9915C39.5581 83.9915 39.5581 83.6958 39.104 83.5373Z" fill="#929597"/>
<path d="M9.02507 67.917L6.93389 65.3083L6.89164 65.3295C6.78603 65.5935 6.66985 65.942 6.55367 66.4067C6.11009 68.2973 5.97279 69.0999 6.17346 69.4168C6.37413 69.7336 8.16959 71.941 8.16959 71.941C8.16959 71.941 8.5498 68.2867 9.02507 67.917Z" fill="#85888A"/>
<path d="M7.76779 67.8644C7.9579 68.1073 8.06352 68.5509 7.98958 68.8571L7.78892 69.7443C7.72555 70.0506 7.50375 70.0928 7.31365 69.8605L6.76445 69.1846C6.57434 68.9416 6.46873 68.4981 6.53209 68.2023L6.73276 67.2624C6.79613 66.9561 7.00736 66.9138 7.19747 67.1567L7.74667 67.8644H7.76779Z" fill="url(#paint29_linear_43_28598)"/>
<path d="M7.82101 67.8328C8.00056 68.0546 8.09561 68.477 8.03224 68.7516L7.8527 69.586C7.78933 69.8711 7.58866 69.9134 7.40911 69.6916L6.90216 69.0685C6.72262 68.8467 6.617 68.4348 6.68037 68.1496L6.87048 67.2836C6.93385 66.9984 7.12395 66.9562 7.3035 67.1885L7.82101 67.8433V67.8328Z" fill="#F4872A"/>
<path d="M7.82076 67.8326L7.30325 67.1777C7.16595 67.0088 7.02865 66.9876 6.93359 67.1144C7.00752 67.1144 7.08145 67.1566 7.16595 67.2517L7.68346 67.9065C7.86301 68.1283 7.95806 68.5507 7.89469 68.8253L7.71515 69.6597C7.70458 69.7336 7.6729 69.7864 7.64122 69.8287C7.73627 69.8287 7.82076 69.7442 7.85245 69.5858L8.03199 68.7514C8.09536 68.4662 8.00031 68.0543 7.82076 67.8326Z" fill="#CE6104"/>
<path d="M37.6885 86.7798C37.6885 87.0755 37.4562 87.2551 37.1604 87.1812L35.365 86.6848C35.0798 86.6003 34.8369 86.294 34.8369 85.9983V85.2378C34.8369 84.9421 35.0693 84.7626 35.365 84.8365L37.1604 85.3329C37.4456 85.4174 37.6885 85.7237 37.6885 86.0194V86.7798Z" fill="url(#paint30_linear_43_28598)"/>
<path d="M37.7733 86.5792C37.7733 86.8644 37.541 87.0439 37.2664 86.9594L35.5343 86.4736C35.2597 86.3997 35.0273 86.0934 35.0273 85.8082V85.0689C35.0273 84.7838 35.2491 84.6042 35.5343 84.6887L37.2664 85.1745C37.541 85.2485 37.7733 85.5548 37.7733 85.8399V86.5792Z" fill="#F4872A"/>
<path d="M37.2662 85.1747L35.5341 84.6889C35.3546 84.6361 35.1856 84.6889 35.1011 84.8262C35.1856 84.784 35.2806 84.784 35.3968 84.8051L37.1289 85.2909C37.4035 85.3649 37.6358 85.6711 37.6358 85.9563V86.6956C37.6358 86.7907 37.6042 86.8751 37.5619 86.9385C37.6886 86.8751 37.7731 86.7484 37.7731 86.5689V85.8296C37.7731 85.5444 37.5408 85.2381 37.2662 85.1642V85.1747Z" fill="#CE6104"/>
<path d="M11.8234 70.2725C12.0557 70.4415 12.2247 70.8112 12.193 71.0963L11.8339 74.4021C11.8022 74.6872 11.591 74.7823 11.3587 74.6133L9.33084 73.0925C9.10905 72.9129 8.95062 72.5327 8.98231 72.2475L9.33084 69.0368C9.36252 68.7517 9.57375 68.6566 9.80611 68.8256L11.8339 70.2831L11.8234 70.2725Z" fill="url(#paint31_linear_43_28598)"/>
<path d="M11.8237 70.2723L10.0916 69.0261L9.78529 71.8565C9.7536 72.1417 9.91203 72.5219 10.1338 72.7015L11.8765 74.0005L12.1933 71.0961C12.225 70.811 12.056 70.4413 11.8237 70.2723Z" fill="#86898B"/>
<path d="M32.1334 82.2382C32.3975 82.3544 32.5876 82.6924 32.5559 82.9776L32.239 85.9031C32.2074 86.1883 31.9644 86.3256 31.7004 86.2094L28.6692 84.8364C28.4052 84.7202 28.2151 84.3822 28.2574 84.0971L28.5953 81.0554C28.627 80.7702 28.8594 80.6435 29.1234 80.7702L32.144 82.2277L32.1334 82.2382Z" fill="url(#paint32_linear_43_28598)"/>
<path d="M32.1332 82.2383L29.3872 80.9181L29.0703 83.7697C29.0387 84.0549 29.2288 84.3928 29.4823 84.509L32.2388 85.7553L32.5451 82.9776C32.5768 82.6924 32.3867 82.3545 32.1226 82.2383H32.1332Z" fill="#86898B"/>
<path d="M16.4178 73.4197C16.6608 73.5781 16.8192 73.9372 16.7769 74.2224L16.4495 78.109C16.4284 78.3942 16.2172 78.4998 15.9743 78.352L15.4145 77.9823C15.1716 77.8239 14.992 77.4648 15.0132 77.1691L15.3511 73.2719C15.4039 72.9867 15.6363 72.8916 15.8792 73.0501L16.4284 73.4197H16.4178Z" fill="url(#paint33_linear_43_28598)"/>
<path d="M16.4178 73.4197C16.6608 73.5781 16.8192 73.9372 16.7769 74.2224L16.4495 78.109C16.4284 78.3942 16.2172 78.4998 15.9743 78.352L15.4145 77.9823C15.1716 77.8239 14.992 77.4648 15.0132 77.1691L15.3511 73.2719C15.4039 72.9867 15.6363 72.8916 15.8792 73.0501L16.4284 73.4197H16.4178Z" fill="url(#paint34_linear_43_28598)"/>
<path d="M14.2844 71.9833C14.5273 72.1417 14.6752 72.5113 14.6224 72.7965L14.2738 76.6937C14.2527 76.9789 14.0415 77.0845 13.7986 76.9261L13.2283 76.5458C12.9853 76.3874 12.8164 76.0178 12.8375 75.7326L13.1966 71.846C13.2494 71.5608 13.4923 71.4657 13.7246 71.6242L14.2738 72.0044L14.2844 71.9833Z" fill="url(#paint35_linear_43_28598)"/>
<path d="M14.2844 71.9833C14.5273 72.1417 14.6752 72.5113 14.6224 72.7965L14.2738 76.6937C14.2527 76.9789 14.0415 77.0845 13.7986 76.9261L13.2283 76.5458C12.9853 76.3874 12.8164 76.0178 12.8375 75.7326L13.1966 71.846C13.2494 71.5608 13.4923 71.4657 13.7246 71.6242L14.2738 72.0044L14.2844 71.9833Z" fill="url(#paint36_linear_43_28598)"/>
<path d="M25.036 78.6158C25.2895 78.7531 25.4584 79.1016 25.4162 79.3867L25.0993 83.1572C25.0782 83.4424 24.8564 83.5691 24.603 83.4318L24.0854 83.1572C23.832 83.0199 23.6419 82.6714 23.663 82.3862L23.9693 78.5735C24.0115 78.2884 24.2544 78.1722 24.4973 78.3095L25.0254 78.6052L25.036 78.6158Z" fill="url(#paint37_linear_43_28598)"/>
<path d="M25.036 78.6158C25.2895 78.7531 25.4584 79.1016 25.4162 79.3867L25.0993 83.1572C25.0782 83.4424 24.8564 83.5691 24.603 83.4318L24.0854 83.1572C23.832 83.0199 23.6419 82.6714 23.663 82.3862L23.9693 78.5735C24.0115 78.2884 24.2544 78.1722 24.4973 78.3095L25.0254 78.6052L25.036 78.6158Z" fill="url(#paint38_linear_43_28598)"/>
<path d="M22.8605 77.3908C23.114 77.5387 23.283 77.8872 23.2407 78.1723L22.9344 81.9956C22.9133 82.2808 22.6915 82.4075 22.438 82.2597L21.8994 81.9534C21.6459 81.8161 21.4558 81.457 21.4769 81.1718L21.7832 77.3274C21.8255 77.0423 22.0578 76.9261 22.3113 77.0739L22.8499 77.3802L22.8605 77.3908Z" fill="url(#paint39_linear_43_28598)"/>
<path d="M22.8605 77.3908C23.114 77.5387 23.283 77.8872 23.2407 78.1723L22.9344 81.9956C22.9133 82.2808 22.6915 82.4075 22.438 82.2597L21.8994 81.9534C21.6459 81.8161 21.4558 81.457 21.4769 81.1718L21.7832 77.3274C21.8255 77.0423 22.0578 76.9261 22.3113 77.0739L22.8499 77.3802L22.8605 77.3908Z" fill="url(#paint40_linear_43_28598)"/>
<path d="M21.0543 76.3344C21.1071 76.3661 21.1176 76.6301 21.0859 76.9153L20.7691 80.7703C20.748 81.0554 20.5262 81.1716 20.2833 81.0237L19.7341 80.6963C19.4911 80.5485 19.301 80.1894 19.3222 79.9042L19.639 76.0387C19.6813 75.7535 19.9136 75.6479 20.1671 75.7958C20.1671 75.7958 20.579 76.0493 21.0014 76.3027L21.0543 76.3344Z" fill="url(#paint41_linear_43_28598)"/>
<path d="M21.0543 76.3344C21.1071 76.3661 21.1176 76.6301 21.0859 76.9153L20.7691 80.7703C20.748 81.0554 20.5262 81.1716 20.2833 81.0237L19.7341 80.6963C19.4911 80.5485 19.301 80.1894 19.3222 79.9042L19.639 76.0387C19.6813 75.7535 19.9136 75.6479 20.1671 75.7958C20.1671 75.7958 20.579 76.0493 21.0014 76.3027L21.0543 76.3344Z" fill="url(#paint42_linear_43_28598)"/>
<path d="M18.551 74.8034C18.7939 74.9618 18.9629 75.3209 18.9206 75.6061L18.6038 79.4716C18.5827 79.7567 18.3714 79.8729 18.1285 79.7145L17.5793 79.366C17.3364 79.2075 17.1569 78.8485 17.1674 78.5633L17.4948 74.6872C17.5371 74.402 17.7694 74.2964 18.0124 74.4549L18.5616 74.8034H18.551Z" fill="url(#paint43_linear_43_28598)"/>
<path d="M18.551 74.8034C18.7939 74.9618 18.9629 75.3209 18.9206 75.6061L18.6038 79.4716C18.5827 79.7567 18.3714 79.8729 18.1285 79.7145L17.5793 79.366C17.3364 79.2075 17.1569 78.8485 17.1674 78.5633L17.4948 74.6872C17.5371 74.402 17.7694 74.2964 18.0124 74.4549L18.5616 74.8034H18.551Z" fill="url(#paint44_linear_43_28598)"/>
<path d="M27.2116 79.7988C27.465 79.9361 27.634 80.2741 27.5918 80.5592L27.2749 84.2558C27.2538 84.5409 27.0215 84.6782 26.768 84.5409L26.2505 84.2874C25.997 84.1607 25.7963 83.8122 25.8174 83.527L26.1343 79.7777C26.1765 79.4925 26.4195 79.3763 26.6729 79.5136L27.201 79.7988H27.2116Z" fill="url(#paint45_linear_43_28598)"/>
<path d="M27.2116 79.7988C27.465 79.9361 27.634 80.2741 27.5918 80.5592L27.2749 84.2558C27.2538 84.5409 27.0215 84.6782 26.768 84.5409L26.2505 84.2874C25.997 84.1607 25.7963 83.8122 25.8174 83.527L26.1343 79.7777C26.1765 79.4925 26.4195 79.3763 26.6729 79.5136L27.201 79.7988H27.2116Z" fill="url(#paint46_linear_43_28598)"/>
<path d="M16.4177 73.4195L15.9001 73.0815L15.5727 76.7358C15.5516 77.021 15.7312 77.3906 15.9741 77.5491L16.4599 77.8659L16.7662 74.2327C16.8084 73.9476 16.65 73.5885 16.4071 73.4301L16.4177 73.4195Z" fill="#86898B"/>
<path d="M14.3056 76.4296L14.633 72.7965C14.6858 72.5113 14.5274 72.1522 14.2951 71.9832L13.767 71.6241L13.429 75.2784C13.4079 75.5636 13.5769 75.9332 13.8198 76.0917L14.3056 76.4191V76.4296Z" fill="#86898B"/>
<path d="M25.036 78.616L24.529 78.3308L24.2333 81.9429C24.2122 82.228 24.4023 82.5765 24.6558 82.7138L25.1099 82.9568L25.4056 79.3764C25.4479 79.0912 25.2789 78.7427 25.0254 78.6054L25.036 78.616Z" fill="#86898B"/>
<path d="M22.8602 77.3909L22.3532 77.0952L22.0575 80.7389C22.0364 81.0241 22.2265 81.3832 22.48 81.5205L22.9447 81.7845L23.2404 78.1725C23.2826 77.8873 23.1137 77.5388 22.8602 77.3909Z" fill="#86898B"/>
<path d="M21.0014 76.3032C20.6423 76.0919 20.3043 75.8807 20.1987 75.8173L19.903 79.461C19.8818 79.7462 20.072 80.1053 20.3149 80.2532L20.7901 80.5278L21.0859 76.9052C21.1281 76.62 21.1175 76.356 21.0542 76.3243L21.0014 76.2926V76.3032Z" fill="#86898B"/>
<path d="M18.5513 74.8034L18.0443 74.476L17.738 78.1302C17.7169 78.4154 17.8964 78.7745 18.1499 78.9329L18.6252 79.2286L18.9209 75.606C18.9632 75.3209 18.7942 74.9618 18.5513 74.8034Z" fill="#86898B"/>
<path d="M27.2117 79.7988L26.7048 79.5242L26.4091 83.0834C26.3879 83.3686 26.5781 83.7171 26.8421 83.8438L27.2962 84.0762L27.6025 80.5592C27.6448 80.274 27.4758 79.9361 27.2223 79.7988H27.2117Z" fill="#86898B"/>
<path d="M27.2117 79.7988L26.7048 79.5242L26.4091 83.0834C26.3879 83.3686 26.5781 83.7171 26.8421 83.8438L27.2962 84.0762L27.6025 80.5592C27.6448 80.274 27.4758 79.9361 27.2223 79.7988H27.2117Z" fill="#86898B"/>
<path d="M16.7664 74.2224L16.6291 75.87C16.3228 75.6693 16.0059 75.4581 15.7102 75.2574L15.9003 73.0712L16.4178 73.4091C16.6607 73.5676 16.8192 73.9266 16.7769 74.2118L16.7664 74.2224Z" fill="#414E52"/>
<path d="M14.6331 72.7965L14.4853 74.4335C14.1684 74.2223 13.8621 74.011 13.5664 73.7998L13.7671 71.6241L14.2952 71.9832C14.5381 72.1417 14.6859 72.5113 14.6331 72.7965Z" fill="#414E52"/>
<path d="M25.4163 79.387L25.279 81.0346C24.9727 80.8656 24.6665 80.6966 24.3496 80.517L24.5292 78.3308L25.0361 78.616C25.2896 78.7533 25.4586 79.1018 25.4163 79.387Z" fill="#414E52"/>
<path d="M23.2408 78.1725L23.1035 79.8201C22.7972 79.6511 22.4909 79.4716 22.1741 79.2814L22.3536 77.0952L22.8606 77.3804C23.114 77.5282 23.283 77.8768 23.2408 78.1619V78.1725Z" fill="#414E52"/>
<path d="M21.0753 76.9157L20.938 78.5633C20.864 78.5211 20.7901 78.4683 20.7056 78.426C20.4733 78.2887 20.2409 78.1514 20.0085 78.0036L20.1881 75.8173C20.2937 75.8807 20.6317 76.0919 20.9908 76.3032L21.0436 76.3348C21.0964 76.3665 21.1069 76.6306 21.0647 76.9157H21.0753Z" fill="#414E52"/>
<path d="M18.9207 75.5955L18.7834 77.2431C18.4771 77.053 18.1708 76.8523 17.854 76.6622L18.0335 74.476L18.5405 74.8034C18.7834 74.9618 18.9524 75.3103 18.9102 75.5955H18.9207Z" fill="#414E52"/>
<path d="M27.6026 80.57L27.4653 82.207C27.159 82.0486 26.8527 81.8796 26.5359 81.7106L26.7154 79.535L27.2224 79.8096C27.4759 79.9469 27.6448 80.2848 27.6026 80.57Z" fill="#414E52"/>
<path d="M32.2071 84.2134C32.2071 85.1006 31.584 85.4597 30.813 85.0161C30.042 84.5725 29.4294 83.4952 29.4294 82.6081C29.4294 81.7209 30.0526 81.3618 30.813 81.8054C31.584 82.249 32.1966 83.3263 32.2071 84.2134Z" fill="white"/>
<path d="M11.4541 70.114C10.6831 69.6704 10.0706 70.0295 10.0706 70.9167C10.0706 71.8038 10.6937 72.8811 11.4541 73.3247C11.6231 73.4197 11.7815 73.4831 11.9399 73.5042L12.204 71.1068C12.2145 70.9906 12.204 70.8639 12.1512 70.7371C11.9505 70.4836 11.7076 70.2724 11.4541 70.1246V70.114Z" fill="white"/>
<path d="M39.1039 83.5378C39.1039 83.5378 38.9772 83.4955 38.8821 83.4744L38.8293 83.7596L38.4702 88.5123C38.8504 88.5968 39.1462 88.6496 39.2729 88.639L39.5581 83.9919C39.5581 83.9919 39.558 83.6962 39.1039 83.5378Z" fill="#ACAFB1"/>
<path d="M39.1039 83.5376C38.6497 83.3898 35.0271 82.4076 35.0271 82.4076L34.5413 81.8055C34.5413 81.8055 28.4156 79.0384 21.5401 74.8244C14.6751 70.5998 10.5138 67.9594 9.67947 66.9983L9.59498 67.125V67.2201L9.02466 67.9171C9.02466 67.9171 15.256 72.5748 20.9909 75.965C26.4829 79.218 30.3801 81.1824 33.6858 82.6082L34.235 83.1574L38.7976 84.3614C38.7976 84.3614 39.1778 84.2136 39.5158 83.9178C39.4841 83.8228 39.389 83.6432 39.0827 83.5482L39.1039 83.5376Z" fill="#C6C9CB"/>
<path d="M34.5412 81.8159L33.6963 82.608L34.2455 83.1572L35.027 82.4179L34.5412 81.8159Z" fill="#ACAFB1"/>
<path d="M33.5908 87.2129L34.2456 83.1572L33.6964 82.608L33.0732 87.4452L33.5908 87.2129Z" fill="#ACAFB1"/>
<path d="M9.02466 67.9169L9.58442 67.2198V67.1247L7.47211 64.5477C7.38762 64.5794 7.16583 64.6956 6.91235 65.2765L9.02466 67.9169Z" fill="#B9BCBE"/>
<path d="M45.6519 47.4171C40.6669 44.386 33.4217 39.4115 33.4217 39.4115L27.4016 50.1631C27.4016 50.1631 33.1788 54.7151 41.3111 59.6157C49.4435 64.5162 56.731 67.7586 56.731 67.7586L59.403 54.9053C59.403 54.9053 50.637 50.4377 45.6519 47.4066V47.4171Z" fill="#141C1E"/>
<path d="M58.6216 56.0671L56.541 66.1111C56.4354 66.6391 55.9601 66.8398 55.4109 66.5863C52.855 65.3718 47.4053 62.6997 41.5859 59.1827C35.3335 55.4122 30.4329 51.8108 28.553 50.4061C28.1833 50.1315 28.2467 49.7302 28.4262 49.4239L33.2528 40.8057C33.5274 40.2987 33.9077 40.4043 34.2668 40.6367C36.5164 42.1575 41.6176 45.59 45.3775 47.8713C49.2852 50.2477 55.5588 53.5429 58.0724 54.8314C58.5371 55.0637 58.7589 55.4123 58.6216 56.0671Z" fill="#303E42"/>
<path d="M79.1851 55.5071C79.2379 55.7922 79.4914 55.8979 79.7343 55.7606L91.7744 48.716C92.0279 48.5682 92.1441 48.2302 92.049 47.9556L89.8523 41.6926C89.7572 41.418 89.472 41.3124 89.2291 41.4603L78.1923 47.9028C77.9389 48.0507 77.7804 48.3992 77.8438 48.6843L79.1851 55.5177V55.5071Z" fill="#141C1E"/>
<path d="M79.5229 55.6657C79.4278 55.6657 79.3645 55.6024 79.3434 55.4756L78.002 48.6423C77.9598 48.4311 78.0865 48.1459 78.2766 48.0298L89.3134 41.5872C89.3134 41.5872 89.419 41.545 89.4613 41.545C89.5775 41.545 89.662 41.6189 89.7042 41.7351L91.901 47.9981C91.9749 48.1987 91.8799 48.4628 91.6898 48.5684L79.6496 55.6129C79.6496 55.6129 79.5546 55.6552 79.5123 55.6552L79.5229 55.6657Z" fill="#303E42"/>
<path d="M74.4534 50.6596C74.4005 50.3744 74.1471 50.2688 73.9042 50.4061L62.9307 56.8169C62.6773 56.9648 62.4449 57.3133 62.4132 57.5985L61.3993 66.016C61.3676 66.3012 61.5366 66.4174 61.7901 66.2695L75.4145 58.2955C75.6679 58.1477 75.8264 57.7992 75.763 57.514L74.4428 50.6596H74.4534Z" fill="#141C1E"/>
<path d="M61.5894 66.1744H61.5682C61.5577 66.1638 61.5471 66.1216 61.5471 66.0371L62.561 57.6196C62.5927 57.3872 62.7934 57.0704 63.0046 56.9542L73.978 50.5433C73.978 50.5433 74.0731 50.5011 74.1153 50.5011C74.2104 50.5011 74.2738 50.5645 74.2949 50.6912L75.6151 57.5456C75.6573 57.7569 75.5306 58.0526 75.3405 58.1582L61.7161 66.1322C61.6527 66.1744 61.6105 66.1744 61.5999 66.1744H61.5894Z" fill="#303E42"/>
<path d="M56.731 67.7692L57.7871 68.4452L58.9278 67.7692L60.6282 57.1972C60.6282 57.1972 60.7549 55.6235 62.8883 54.3878C65.0217 53.1521 94.9003 35.8946 94.9003 35.8946L94.5095 35.0602L93.4111 34.416L60.0473 54.1343C60.0473 54.1343 59.3819 54.3244 59.2552 55.0215C59.1284 55.7185 56.7415 67.7798 56.7415 67.7798L56.731 67.7692Z" fill="url(#paint47_linear_43_28598)"/>
<path d="M60.6286 57.1867C60.6286 57.1867 60.7553 55.613 62.8887 54.3773C65.0222 53.1416 94.9007 35.8841 94.9007 35.8841L94.5099 35.0497C94.5099 35.0497 62.3607 53.5958 61.3045 54.1978C60.2378 54.7998 60.2906 55.444 60.2906 55.444L57.7981 68.4453L58.9387 67.7693L60.6391 57.1973L60.6286 57.1867Z" fill="#414C4E"/>
<path d="M68.4859 19.3868L67.4931 18.9537L34.4567 37.711C34.4567 37.711 33.0731 38.3764 32.0909 40.0768C31.1087 41.7772 26.6306 49.5188 26.6306 49.5188L27.4122 50.163L33.6223 39.6015L68.7394 19.7247L68.4859 19.3973V19.3868Z" fill="url(#paint48_linear_43_28598)"/>
<path d="M33.6123 39.612L68.7399 19.7246L68.4865 19.3972L34.7213 38.503C34.7213 38.503 33.8658 39.2001 33.6229 39.6225L33.6123 39.612Z" fill="#414C4E"/>
<path d="M76.5132 62.3827C76.5132 62.6678 76.3125 63.0269 76.0591 63.1748L73.4292 64.7062C73.1758 64.854 72.9751 64.7379 72.9751 64.4421V63.0691C72.9751 62.784 73.1758 62.4249 73.4292 62.277L76.0591 60.7456C76.3125 60.5978 76.5132 60.7139 76.5132 61.0097V62.3827Z" fill="#333E40"/>
<path d="M76.2485 62.1189C76.2485 62.2668 76.1429 62.4358 76.0162 62.5097L73.5131 63.9355C73.3864 64.0094 73.2808 63.9461 73.2808 63.7982V63.4919C73.2808 63.344 73.3864 63.1751 73.5131 63.1011L76.0162 61.6753C76.1429 61.6014 76.2485 61.6648 76.2485 61.8126V62.1189Z" fill="url(#paint49_linear_43_28598)"/>
<path d="M73.7141 63.8299V64.3791L75.9532 63.0695V62.5519L73.7141 63.8299Z" fill="#676B6C"/>
<path d="M93.8656 52.244C93.8656 52.5291 93.6649 52.8882 93.4114 53.0361L90.771 54.5675C90.5176 54.7154 90.3169 54.5992 90.3169 54.3035V52.9305C90.3169 52.6453 90.5176 52.2862 90.771 52.1384L93.4114 50.6069C93.6649 50.4591 93.8656 50.5753 93.8656 50.871V52.244Z" fill="#333E40"/>
<path d="M93.6013 51.9797C93.6013 52.1276 93.4957 52.2966 93.369 52.3705L90.8659 53.7963C90.7392 53.8703 90.6335 53.8069 90.6335 53.659V53.3527C90.6335 53.2049 90.7392 53.0359 90.8659 52.962L93.369 51.5362C93.4957 51.4622 93.6013 51.5256 93.6013 51.6735V51.9797Z" fill="url(#paint50_linear_43_28598)"/>
<path d="M91.0559 53.6905V54.2397L93.3055 52.9301V52.402L91.0559 53.6905Z" fill="#676B6C"/>
<path d="M27.497 45.8223C27.6026 45.9913 27.7188 47.0791 27.761 47.5438C28.3419 46.5405 29.0706 45.2731 29.7783 44.0691C29.7994 43.6044 29.7783 42.9284 29.5459 42.601C29.1551 42.0624 27.7293 40.1402 27.7293 40.1402C27.7293 40.1402 26.7365 40.2353 26.3246 40.4465C25.9022 40.6577 25.7754 41.1964 25.786 42.0201C25.8071 42.8439 25.786 43.5938 25.786 43.5938C25.786 43.5938 27.3702 45.6216 27.5075 45.8329L27.497 45.8223Z" fill="#5A6567"/>
<path d="M27.4968 45.8225C27.6024 45.9915 27.7186 47.1744 27.7608 47.6074L27.6869 43.9531C27.6869 43.9531 27.782 43.235 27.3172 42.6646C27.0215 42.3056 26.3561 41.4923 25.902 40.9431C25.8069 41.2177 25.7647 41.5662 25.7753 42.0098C25.7964 42.8336 25.7753 43.5835 25.7753 43.5835C25.7753 43.5835 27.3595 45.6113 27.4968 45.8225Z" fill="#333E40"/>
<path d="M26.6095 44.1856C27.1798 44.7876 27.2326 44.608 27.2643 44.0588C27.296 43.5096 27.1059 43.2456 27.1059 43.2456L25.7751 41.7775C25.7751 41.8515 25.7751 41.9254 25.7751 42.0099C25.7751 42.4535 25.7751 42.8654 25.7751 43.1611C25.9969 43.4674 26.3032 43.8581 26.5989 44.175L26.6095 44.1856Z" fill="#AEB5B9"/>
<path d="M26.7998 44.1009C26.5463 43.8368 26.071 43.2665 25.7859 42.9074C25.7859 43.0025 25.7859 43.087 25.7859 43.1609C26.0077 43.4672 26.314 43.8579 26.6097 44.1748C27.0005 44.5761 27.1483 44.6289 27.2117 44.4494C27.1166 44.4071 26.9899 44.291 26.7998 44.1009Z" fill="#D4DBDF"/>
<path d="M27.6867 43.9531L27.7606 47.544C28.3415 46.5407 29.0702 45.2838 29.7673 44.0693C29.7778 43.7524 29.7778 43.3511 29.7039 43.0131C29.292 43.1504 28.5738 43.3088 27.6233 43.2455C27.7289 43.6257 27.6867 43.9531 27.6867 43.9531Z" fill="#414C4E"/>
<path d="M63.9551 62.9425C63.9551 62.9425 63.3848 62.7946 62.994 63.1854C62.6033 63.5762 62.4448 63.7768 62.466 64.8858C62.4871 65.9842 62.6033 66.8397 62.6033 66.8397C62.6033 66.8397 65.6133 67.8641 66.1942 68.012C66.7751 68.1599 67.8207 67.7902 68.0847 66.9664V64.8858C68.0847 64.8858 68.1269 64.3788 67.5144 64.1148C66.8912 63.8508 63.9551 62.9425 63.9551 62.9425Z" fill="#5A6567"/>
<path d="M66.9654 66.2588C66.9443 65.2977 66.3846 65.2133 66.3846 65.2133C66.3846 65.2133 63.4168 64.4106 62.9204 64.2733C62.6669 64.1993 62.6035 63.9142 62.6141 63.6607C62.4979 63.9036 62.4451 64.2416 62.4557 64.8858C62.4768 65.9842 62.593 66.8397 62.593 66.8397C62.593 66.8397 65.603 67.8642 66.1839 68.0121C66.3634 68.0543 66.5958 68.0543 66.8281 68.0015C67.0288 67.6424 66.976 67.0615 66.9549 66.2694L66.9654 66.2588Z" fill="#333E40"/>
<path d="M67.9583 64.4634C67.6414 64.907 67.1767 65.4034 66.6169 65.3189C66.7754 65.4456 66.9655 65.7096 66.976 66.2483C66.9972 67.0404 67.0394 67.6213 66.8493 67.9804C67.3668 67.8642 67.916 67.5157 68.0956 66.9453V64.8647C68.0956 64.8647 68.1167 64.6641 67.9688 64.4528L67.9583 64.4634Z" fill="#414C4E"/>
<path d="M63.5856 65.0233L66.5005 65.8365C66.5005 65.8365 67.0181 66.016 67.5989 65.5936L67.6517 67.0616C67.6517 67.0616 67.2927 67.632 66.6062 67.4947C65.9197 67.3574 63.7123 66.5864 63.7123 66.5864C63.7123 66.5864 63.1842 66.4702 63.1631 65.7414C63.142 65.0021 63.575 65.0233 63.575 65.0233H63.5856Z" fill="#D4DBDF"/>
<path d="M61.3149 69.3642V71.4237L62.9309 70.621V68.4454L61.3149 69.3642Z" fill="#5A6567"/>
<path d="M62.5718 66.6182L62.5929 69.6071L61.3149 69.3642V71.4237L62.2127 71.0857H63.3744L63.4589 66.8611L62.5718 66.6182Z" fill="#333E40"/>
<path d="M66.5006 65.8472L63.5856 65.034C63.5856 65.034 63.5223 65.034 63.4483 65.0657C63.3744 65.1713 63.3216 65.3403 63.3322 65.6149C63.3533 66.3542 63.8814 66.4598 63.8814 66.4598C63.8814 66.4598 65.888 67.1569 66.5745 67.2942C67.0393 67.3892 67.3561 67.1569 67.504 66.9984L67.4406 65.6994C66.9231 65.9951 66.5006 65.8367 66.5006 65.8367V65.8472Z" fill="#AEB5B9"/>
<path d="M109.148 49.1389C109.148 49.1389 107.648 47.8398 107.374 47.7659C107.099 47.6919 105.958 47.7764 103.91 48.9171C101.85 50.0577 97.1712 52.7826 96.1045 54.483C95.0378 56.1834 92.9044 63.1012 92.9044 63.1012C92.9044 63.1012 88.891 66.7766 87.856 67.7799C86.8104 68.7833 59.2237 84.6995 59.2237 84.6995L59.1709 86.0725L86.8843 70.1352C86.8843 70.1352 88.7009 68.741 89.3346 68.1285L93.7071 63.9144C93.7071 63.9144 96.3475 57.3452 96.6643 56.4263C97.2241 54.8315 98.5337 53.6169 100.551 52.3918C102.558 51.1772 106.677 48.6319 107.479 48.9382C107.574 48.9382 109.042 49.857 109.042 49.857L109.137 49.1283L109.148 49.1389Z" fill="url(#paint51_linear_43_28598)"/>
<path d="M89.3348 68.139C88.7011 68.7516 86.8845 70.1457 86.8845 70.1457L59.1711 86.0831L59.1394 86.6534C59.1394 86.6534 60.449 86.8857 61.0405 86.5689C61.6319 86.2521 89.1341 70.3675 89.1341 70.3675C89.1341 70.3675 90.655 69.3325 89.3348 68.139Z" fill="#5A6567"/>
<path d="M22.9132 90.2652C22.8604 90.2652 22.797 90.2441 22.7442 90.2124L14.5696 85.3541C14.4006 85.2591 14.2844 85.0373 14.2844 84.8472V83.527C14.2844 83.358 14.39 83.2418 14.5379 83.2418C14.5907 83.2418 14.6541 83.2629 14.7069 83.2946L22.8815 88.1529C23.0505 88.248 23.1667 88.4698 23.1667 88.6599V89.9801C23.1667 90.1491 23.061 90.2652 22.9132 90.2652Z" fill="#404B4D"/>
<path d="M23.0396 89.9799C23.0396 90.1277 22.934 90.1806 22.8178 90.1066L14.6432 85.2483C14.5164 85.1744 14.4214 84.9948 14.4214 84.8575V83.5374C14.4214 83.3895 14.527 83.3367 14.6432 83.4106L22.8178 88.2689C22.9445 88.3429 23.0396 88.5224 23.0396 88.6597V89.9799Z" fill="white"/>
<path opacity="0.7" d="M37.7942 42.9919C36.3578 42.0413 35.1115 41.1964 34.2666 40.6261C34.161 40.5627 34.066 40.4993 33.9603 40.4677C33.7914 40.605 33.6118 40.7634 33.5062 40.9429C33.221 41.3865 29.9575 47.5439 29.9575 47.5439L37.8047 43.0024L37.7942 42.9919Z" fill="#C5D0D3"/>
<path d="M33.2001 48.7373C31.9855 48.0825 29.3345 49.2548 28.2784 49.7723C28.2467 49.9941 28.2995 50.2159 28.5319 50.3955C30.4118 51.8107 35.3018 55.4122 41.5648 59.1721C47.3947 62.6785 52.8339 65.3506 55.3898 66.5757C55.939 66.8398 56.4143 66.6285 56.5199 66.1005L57.2381 62.6468C52.0946 59.6579 34.4886 49.4449 33.1895 48.7373H33.2001Z" fill="#39464A"/>
<path d="M57.4387 59.9113C57.0374 58.7179 55.5693 57.2815 54.1541 56.7006C53.7527 56.5422 53.4042 56.4683 53.1191 56.4683C52.3692 56.4683 52.0207 56.9752 52.3164 57.8307C52.7177 59.0242 54.1858 60.4605 55.6116 61.0308C56.0129 61.1893 56.3614 61.2632 56.6466 61.2632C57.3965 61.2632 57.745 60.7562 57.4493 59.9008L57.4387 59.9113ZM56.9106 60.5978C56.9106 60.5978 56.7945 60.6717 56.636 60.6717C56.4776 60.6717 56.2136 60.6401 55.8228 60.4816C54.566 59.9747 53.2247 58.6756 52.8761 57.6406C52.7705 57.3343 52.8022 57.1759 52.8339 57.1336C52.855 57.102 52.9501 57.0597 53.1085 57.0597C53.2669 57.0597 53.531 57.0914 53.9217 57.2498C55.1786 57.7568 56.5199 59.0558 56.8684 60.0909C56.974 60.3971 56.9423 60.5556 56.9106 60.5978Z" fill="#3D4B4F"/>
<path d="M49.2113 57.3765C49.2113 57.3765 45.9794 59.3938 49.2113 61.5906C52.4431 63.7874 57.0479 61.8546 57.0479 61.8546C57.0479 61.8546 57.312 59.8374 54.0273 58.1475C50.7321 56.4577 49.2113 57.366 49.2113 57.366V57.3765Z" fill="#3D4B4F"/>
<path opacity="0.2" d="M46.3597 48.452C46.0217 48.2513 45.6838 48.0506 45.3775 47.8605C41.607 45.5687 36.5058 42.1467 34.2668 40.6259C33.9077 40.383 33.5274 40.2879 33.2528 40.7948L28.4262 49.4131C28.2467 49.7193 28.1833 50.1207 28.553 50.3953C29.7253 51.2719 32.07 53.004 35.175 55.0951L46.3597 48.452Z" fill="white"/>
<g style="mix-blend-mode:multiply" opacity="0.2">
<path d="M27.2959 85.6815C21.8884 82.9355 14.263 78.1512 13.0801 77.4119V77.5808C14.2524 78.3202 21.7405 83.0095 27.148 85.7766L27.3064 85.6921L27.2959 85.6815Z" fill="black"/>
</g>
<path d="M79.2906 25.977C80.3573 26.6319 82.0155 27.6669 83.9271 28.8603L84.4024 28.5012C82.6491 27.4029 81.1072 26.4418 80.1778 25.8714C79.3962 25.3856 78.5407 24.8892 77.6958 24.4139L77.21 24.7413C77.9176 25.1532 78.6252 25.5757 79.2906 25.9876V25.977Z" fill="#B61617"/>
<path d="M75.182 25.502C75.182 25.502 75.087 25.4915 75.0553 25.4703L74.3688 25.069C74.3688 25.069 74.3054 25.0056 74.3054 24.974C74.3054 24.9423 74.3265 24.9 74.3688 24.8683L74.6962 24.6782C74.6962 24.6782 74.7807 24.6465 74.8229 24.6465C74.8652 24.6465 74.918 24.6571 74.9497 24.6782L75.6362 25.0796C75.6362 25.0796 75.6995 25.1429 75.6995 25.1852C75.6995 25.2274 75.6784 25.2591 75.6362 25.2908L75.3088 25.4809C75.3088 25.4809 75.2243 25.5126 75.182 25.5126V25.502Z" fill="#5A6567"/>
<path d="M75.615 25.1113C75.6784 25.143 75.6784 25.2064 75.615 25.2381L75.2876 25.4282C75.2242 25.4598 75.1292 25.4598 75.0658 25.4282L74.3793 25.0268C74.3159 24.9951 74.3159 24.9318 74.3793 24.9001L74.7067 24.71C74.7701 24.6783 74.8651 24.6783 74.9285 24.71L75.615 25.1113Z" fill="#CE6104"/>
<path d="M75.615 25.0056C75.6784 25.0373 75.6784 25.1007 75.615 25.1323L75.2876 25.3225C75.2242 25.3541 75.1292 25.3541 75.0658 25.3225L74.3793 24.9211C74.3159 24.8894 74.3159 24.8261 74.3793 24.7944L74.7067 24.6043C74.7701 24.5726 74.8651 24.5726 74.9285 24.6043L75.615 25.0056Z" fill="#F4872A"/>
<path d="M79.6073 28.0581C79.6073 28.0581 79.5123 28.0475 79.4806 28.0264L78.7941 27.625C78.7941 27.625 78.7307 27.5617 78.7307 27.5194C78.7307 27.4772 78.7518 27.4455 78.7941 27.4138L79.1215 27.2237C79.1215 27.2237 79.206 27.192 79.2482 27.192C79.2905 27.192 79.3433 27.2026 79.375 27.2237L80.0615 27.625C80.0615 27.625 80.1248 27.6884 80.1248 27.7307C80.1248 27.7729 80.1037 27.8046 80.0615 27.8363L79.7341 28.0264C79.7341 28.0264 79.6496 28.0581 79.6073 28.0581Z" fill="#5A6567"/>
<path d="M80.0403 27.6774C80.1037 27.7091 80.1037 27.7725 80.0403 27.8042L79.7129 27.9943C79.6495 28.026 79.5545 28.026 79.4911 27.9943L78.8046 27.5929C78.7412 27.5612 78.7412 27.4979 78.8046 27.4662L79.132 27.2761C79.1954 27.2444 79.2904 27.2444 79.3538 27.2761L80.0403 27.6774Z" fill="#CE6104"/>
<path d="M80.0403 27.5614C80.1037 27.5931 80.1037 27.6564 80.0403 27.6881L79.7129 27.8782C79.6495 27.9099 79.5545 27.9099 79.4911 27.8782L78.8046 27.4769C78.7412 27.4452 78.7412 27.3818 78.8046 27.3502L79.132 27.1601C79.1954 27.1284 79.2904 27.1284 79.3538 27.1601L80.0403 27.5614Z" fill="#F4872A"/>
<path d="M84.0326 30.8565C84.0326 30.8565 83.9376 30.846 83.9059 30.8248L83.2194 30.4235C83.2194 30.4235 83.156 30.3601 83.156 30.3179C83.156 30.2756 83.1771 30.244 83.2194 30.2228L83.5468 30.0327C83.5468 30.0327 83.6313 30.001 83.6735 30.001C83.7158 30.001 83.7686 30.0116 83.8003 30.0327L84.4868 30.4341C84.4868 30.4341 84.5501 30.4974 84.5501 30.5397C84.5501 30.5819 84.529 30.6136 84.4868 30.6453L84.1593 30.8354C84.1593 30.8354 84.0749 30.8671 84.0326 30.8671V30.8565Z" fill="#5A6567"/>
<path d="M84.4763 30.4658C84.5397 30.4975 84.5397 30.5609 84.4763 30.5925L84.1489 30.7827C84.0856 30.8143 83.9905 30.8143 83.9271 30.7827L83.2406 30.3813C83.1773 30.3496 83.1773 30.2863 83.2406 30.2546L83.5681 30.0645C83.6314 30.0328 83.7265 30.0328 83.7898 30.0645L84.4763 30.4658Z" fill="#CE6104"/>
<path d="M84.4763 30.3601C84.5397 30.3918 84.5397 30.4552 84.4763 30.4868L84.1489 30.6769C84.0856 30.7086 83.9905 30.7086 83.9271 30.6769L83.2406 30.2756C83.1773 30.2439 83.1773 30.1806 83.2406 30.1489L83.5681 29.9588C83.6314 29.9271 83.7265 29.9271 83.7898 29.9588L84.4763 30.3601Z" fill="#F4872A"/>
<path d="M42.6105 44.4918C42.6105 44.4918 42.5154 44.4813 42.4838 44.4602L41.7973 44.0588C41.7973 44.0588 41.7339 43.9954 41.7339 43.9532C41.7339 43.911 41.755 43.8793 41.7973 43.8476L42.1247 43.6575C42.1247 43.6575 42.2092 43.6258 42.2514 43.6258C42.2936 43.6258 42.3465 43.6364 42.3781 43.6575L43.0646 44.0588C43.0646 44.0588 43.128 44.1222 43.128 44.1644C43.128 44.2067 43.1069 44.2384 43.0646 44.2595L42.7372 44.4496C42.7372 44.4496 42.6527 44.4813 42.6105 44.4813V44.4918Z" fill="#5A6567"/>
<path d="M43.0435 44.1113C43.1068 44.1429 43.1068 44.2063 43.0435 44.238L42.7161 44.4281C42.6527 44.4598 42.5576 44.4598 42.4943 44.4281L41.8078 44.0268C41.7444 43.9951 41.7444 43.9317 41.8078 43.9L42.1352 43.7099C42.1986 43.6782 42.2936 43.6782 42.357 43.7099L43.0435 44.1113Z" fill="#CE6104"/>
<path d="M43.0435 44.006C43.1068 44.0377 43.1068 44.1011 43.0435 44.1328L42.7161 44.3229C42.6527 44.3546 42.5576 44.3546 42.4943 44.3229L41.8078 43.9215C41.7444 43.8899 41.7444 43.8265 41.8078 43.7948L42.1352 43.6047C42.1986 43.573 42.2936 43.573 42.357 43.6047L43.0435 44.006Z" fill="#F4872A"/>
<path d="M47.025 47.0476C47.025 47.0476 46.93 47.0371 46.8983 47.0159L46.2118 46.6146C46.2118 46.6146 46.1484 46.5512 46.1484 46.509C46.1484 46.4667 46.1696 46.4351 46.2118 46.4034L46.5392 46.2133C46.5392 46.2133 46.6237 46.1816 46.6659 46.1816C46.7082 46.1816 46.761 46.1921 46.7927 46.2133L47.4792 46.6146C47.4792 46.6146 47.5426 46.678 47.5426 46.7202C47.5426 46.7625 47.5214 46.7941 47.4792 46.8258L47.1518 47.0159C47.1518 47.0159 47.0673 47.0476 47.025 47.0476Z" fill="#5A6567"/>
<path d="M47.4583 46.667C47.5216 46.6987 47.5216 46.7621 47.4583 46.7938L47.1309 46.9839C47.0675 47.0156 46.9724 47.0156 46.9091 46.9839L46.2226 46.5826C46.1592 46.5509 46.1592 46.4875 46.2226 46.4558L46.55 46.2657C46.6133 46.234 46.7084 46.234 46.7718 46.2657L47.4583 46.667Z" fill="#CE6104"/>
<path d="M47.4583 46.5618C47.5216 46.5935 47.5216 46.6569 47.4583 46.6886L47.1309 46.8787C47.0675 46.9104 46.9724 46.9104 46.9091 46.8787L46.2226 46.4773C46.1592 46.4456 46.1592 46.3823 46.2226 46.3506L46.55 46.1605C46.6133 46.1288 46.7084 46.1288 46.7718 46.1605L47.4583 46.5618Z" fill="#F4872A"/>
<path d="M51.4611 49.8463C51.4611 49.8463 51.366 49.8358 51.3343 49.8146L50.6478 49.4133C50.6478 49.4133 50.5845 49.3499 50.5845 49.3077C50.5845 49.2654 50.6056 49.2338 50.6478 49.2021L50.9753 49.012C50.9753 49.012 51.0597 48.9803 51.102 48.9803C51.1442 48.9803 51.197 48.9908 51.2287 49.012L51.9152 49.4133C51.9152 49.4133 51.9786 49.4767 51.9786 49.5189C51.9786 49.5612 51.9575 49.5929 51.9152 49.6245L51.5878 49.8146C51.5878 49.8146 51.5033 49.8463 51.4611 49.8463Z" fill="#5A6567"/>
<path d="M51.8938 49.4662C51.9572 49.4979 51.9572 49.5613 51.8938 49.593L51.5664 49.7831C51.503 49.8148 51.408 49.8148 51.3446 49.7831L50.6581 49.3817C50.5948 49.3501 50.5948 49.2867 50.6581 49.255L50.9855 49.0649C51.0489 49.0332 51.1439 49.0332 51.2073 49.0649L51.8938 49.4662Z" fill="#CE6104"/>
<path d="M51.8938 49.3605C51.9572 49.3922 51.9572 49.4556 51.8938 49.4873L51.5664 49.6774C51.503 49.7091 51.408 49.7091 51.3446 49.6774L50.6581 49.276C50.5948 49.2443 50.5948 49.181 50.6581 49.1493L50.9855 48.9592C51.0489 48.9275 51.1439 48.9275 51.2073 48.9592L51.8938 49.3605Z" fill="#F4872A"/>
<g style="mix-blend-mode:screen" opacity="0.5">
<path d="M108.356 43.1186C108.293 43.1186 108.229 43.0763 108.229 42.9707V42.6433C108.229 42.5377 108.303 42.411 108.388 42.3582L111.007 40.7634C111.007 40.7634 111.07 40.7317 111.091 40.7317C111.155 40.7317 111.218 40.7739 111.218 40.8796V41.207C111.218 41.3126 111.144 41.4393 111.06 41.4921L108.44 43.0869C108.44 43.0869 108.377 43.1186 108.356 43.1186Z" fill="white"/>
</g>
<path d="M111.155 41.1222C111.155 41.2067 111.091 41.3123 111.017 41.3652L108.398 42.9599C108.324 43.0022 108.261 42.9705 108.261 42.886V42.5586C108.261 42.4741 108.324 42.3685 108.398 42.3157L111.017 40.7209C111.091 40.6787 111.155 40.7103 111.155 40.7948V41.1222Z" fill="#F4872A"/>
<path d="M108.335 42.9497V42.6223C108.335 42.5378 108.398 42.4322 108.472 42.3794L111.091 40.7846C111.091 40.7846 111.133 40.7635 111.144 40.7635C111.133 40.7001 111.081 40.6685 111.017 40.7107L108.398 42.3055C108.324 42.3477 108.261 42.4534 108.261 42.5484V42.8758C108.261 42.9392 108.292 42.9709 108.345 42.9709C108.345 42.9709 108.345 42.9603 108.345 42.9497H108.335Z" fill="#CE6104"/>
<g style="mix-blend-mode:screen" opacity="0.5">
<path d="M41.1321 84.4988C41.0687 84.4988 41.0054 84.4566 41.0054 84.351V84.0236C41.0054 83.918 41.0793 83.7912 41.1638 83.7384L43.7831 82.1436C43.7831 82.1436 43.8464 82.1119 43.8675 82.1119C43.9309 82.1119 43.9943 82.1542 43.9943 82.2598V82.5872C43.9943 82.6928 43.9204 82.8196 43.8359 82.8724L41.2166 84.4672C41.2166 84.4672 41.1532 84.4988 41.1321 84.4988Z" fill="white"/>
</g>
<path d="M43.9305 82.5025C43.9305 82.587 43.8671 82.6926 43.7932 82.7454L41.1739 84.3402C41.1 84.3824 41.0366 84.3508 41.0366 84.2663V83.9389C41.0366 83.8544 41.1 83.7488 41.1739 83.6959L43.7932 82.1012C43.8671 82.0589 43.9305 82.0906 43.9305 82.1751V82.5025Z" fill="#F4872A"/>
<path d="M41.121 84.3294V84.002C41.121 83.9175 41.1844 83.8119 41.2584 83.7591L43.8776 82.1643C43.8776 82.1643 43.9199 82.1432 43.9304 82.1432C43.9304 82.0798 43.867 82.0482 43.8037 82.0904L41.1844 83.6852C41.1105 83.7274 41.0471 83.8331 41.0471 83.9281V84.2555C41.0471 84.3189 41.0788 84.3506 41.1316 84.3506C41.1316 84.3506 41.1316 84.34 41.1316 84.3294H41.121Z" fill="#CE6104"/>
<path d="M20.4209 82.3122C19.766 81.932 19.1323 81.5518 18.5198 81.1821V81.9426C19.1323 82.3122 19.766 82.6819 20.4209 83.0726V82.3122Z" fill="#C6C9CB"/>
<path d="M15.8897 79.598C15.0765 79.1016 14.4006 78.6792 13.8831 78.3623V79.1227C14.39 79.4396 15.0765 79.862 15.8897 80.3584V79.598Z" fill="#C6C9CB"/>
<path d="M18.0865 80.9287C17.4634 80.5484 16.8614 80.1893 16.3228 79.8619V80.6224C16.872 80.9603 17.4634 81.3194 18.0865 81.6891V80.9287Z" fill="#C6C9CB"/>
<path d="M22.7443 83.6536C22.1106 83.2945 21.4769 82.9248 20.8538 82.5657V83.3262C21.4769 83.6853 22.1106 84.0549 22.7443 84.414V83.6536Z" fill="#C6C9CB"/>
<path d="M25.1631 85.0055V85.7659C25.5327 85.9666 25.8918 86.1567 26.2404 86.3468V86.2518L26.8741 85.9138C26.3249 85.6286 25.744 85.3223 25.1631 85.0055Z" fill="#C6C9CB"/>
<path d="M24.7401 84.7625C24.2226 84.4774 23.6945 84.1922 23.177 83.8859V84.6464C23.7051 84.9421 24.2226 85.2378 24.7401 85.523V84.7625Z" fill="#C6C9CB"/>
<path d="M18.7415 81.8585C19.2801 82.1859 19.8504 82.5133 20.4207 82.8512V82.3126C19.8399 81.9746 19.2801 81.6367 18.7415 81.3198V81.8585Z" fill="#344145"/>
<path d="M14.1152 79.0386C14.5799 79.3237 15.1819 79.704 15.9001 80.137V79.5983C15.2031 79.1759 14.6011 78.7957 14.1152 78.4999V79.0386Z" fill="#344145"/>
<path d="M16.5447 80.5274C17.0305 80.8231 17.548 81.14 18.0972 81.4674V80.9287C17.548 80.6013 17.0305 80.2845 16.5447 79.9888V80.5274Z" fill="#344145"/>
<path d="M21.0647 83.2315C21.6139 83.5484 22.1737 83.8758 22.7334 84.1926V83.6434C22.1737 83.3266 21.6139 82.9992 21.0647 82.6823V83.2315Z" fill="#344145"/>
<path d="M25.3848 85.671C25.7122 85.8505 26.029 86.0195 26.3564 86.1885L26.8845 85.9033C26.3987 85.6498 25.9023 85.3858 25.3953 85.1112V85.671H25.3848Z" fill="#344145"/>
<path d="M23.3884 84.5728C23.8426 84.8263 24.2862 85.0798 24.7297 85.3227V84.7735C24.2862 84.5306 23.832 84.2771 23.3884 84.0236V84.5728Z" fill="#344145"/>
<g style="mix-blend-mode:multiply" opacity="0.2">
<path d="M78.3822 71.339H78.2871C78.2871 71.339 78.4561 68.5719 78.4667 66.5652C78.4878 64.5691 78.2343 59.7319 78.0653 58.6018C77.9069 57.5668 76.1431 48.5261 75.9953 47.9664C75.8474 47.4383 75.3721 47.1954 75.3616 47.1954L75.4038 47.1109C75.4038 47.1109 75.9319 47.3749 76.0798 47.9453C76.2276 48.505 78.002 57.5562 78.1604 58.5913C78.3294 59.7319 78.5828 64.5691 78.5617 66.5652C78.5406 68.5719 78.3822 71.3073 78.3822 71.339Z" fill="black"/>
</g>
<g style="mix-blend-mode:multiply" opacity="0.2">
<path d="M94.932 51.9482L94.8369 51.927C94.8369 51.927 95.6502 48.2411 95.7347 47.8292C95.8086 47.4701 95.4389 46.34 95.0799 45.3895C94.8053 44.6818 92.6613 39.4011 92.6401 39.3483L92.7246 39.3166C92.7458 39.3694 94.8897 44.6502 95.1643 45.3578C95.3439 45.8225 95.9248 47.3645 95.8297 47.8397C95.7452 48.2516 94.9426 51.9059 94.932 51.9376V51.9482Z" fill="black"/>
</g>
<defs>
<linearGradient id="paint0_linear_43_28598" x1="48.166" y1="98.3343" x2="51.0387" y2="87.3926" gradientUnits="userSpaceOnUse">
<stop stop-color="#C0C2C5"/>
<stop offset="1" stop-color="#4B4E4F"/>
</linearGradient>
<linearGradient id="paint1_linear_43_28598" x1="49.7391" y1="90.3078" x2="46.4862" y2="95.3667" gradientUnits="userSpaceOnUse">
<stop stop-color="#E6E8EB"/>
<stop offset="1" stop-color="#717475"/>
</linearGradient>
<linearGradient id="paint2_linear_43_28598" x1="47.2046" y1="98.5878" x2="52.084" y2="87.7411" gradientUnits="userSpaceOnUse">
<stop stop-color="#E6E8EB"/>
<stop offset="1" stop-color="#717475"/>
</linearGradient>
<linearGradient id="paint3_linear_43_28598" x1="49.9187" y1="91.1314" x2="46.972" y2="95.6623" gradientUnits="userSpaceOnUse">
<stop stop-color="#E6E8EB"/>
<stop offset="1" stop-color="#717475"/>
</linearGradient>
<linearGradient id="paint4_linear_43_28598" x1="48.7679" y1="89.4098" x2="48.7679" y2="96.8979" gradientUnits="userSpaceOnUse">
<stop stop-color="#D0D2D4"/>
<stop offset="1" stop-color="#86898B"/>
</linearGradient>
<linearGradient id="paint5_linear_43_28598" x1="50.5738" y1="86.7801" x2="46.9723" y2="107.797" gradientUnits="userSpaceOnUse">
<stop stop-color="#D0D2D4"/>
<stop offset="1" stop-color="#86898B"/>
</linearGradient>
<linearGradient id="paint6_linear_43_28598" x1="101.248" y1="67.727" x2="104.11" y2="56.7853" gradientUnits="userSpaceOnUse">
<stop stop-color="#C0C2C5"/>
<stop offset="1" stop-color="#4B4E4F"/>
</linearGradient>
<linearGradient id="paint7_linear_43_28598" x1="102.811" y1="59.7" x2="99.5579" y2="64.7589" gradientUnits="userSpaceOnUse">
<stop stop-color="#E6E8EB"/>
<stop offset="1" stop-color="#717475"/>
</linearGradient>
<linearGradient id="paint8_linear_43_28598" x1="100.276" y1="67.9697" x2="105.156" y2="57.1336" gradientUnits="userSpaceOnUse">
<stop stop-color="#E6E8EB"/>
<stop offset="1" stop-color="#717475"/>
</linearGradient>
<linearGradient id="paint9_linear_43_28598" x1="103.001" y1="60.5241" x2="100.054" y2="65.055" gradientUnits="userSpaceOnUse">
<stop stop-color="#E6E8EB"/>
<stop offset="1" stop-color="#717475"/>
</linearGradient>
<linearGradient id="paint10_linear_43_28598" x1="101.85" y1="58.8023" x2="101.85" y2="66.2904" gradientUnits="userSpaceOnUse">
<stop stop-color="#D0D2D4"/>
<stop offset="1" stop-color="#86898B"/>
</linearGradient>
<linearGradient id="paint11_linear_43_28598" x1="103.656" y1="56.1623" x2="100.044" y2="77.1902" gradientUnits="userSpaceOnUse">
<stop stop-color="#D0D2D4"/>
<stop offset="1" stop-color="#86898B"/>
</linearGradient>
<linearGradient id="paint12_linear_43_28598" x1="100.572" y1="35.8841" x2="97.71" y2="24.9424" gradientUnits="userSpaceOnUse">
<stop stop-color="#C0C2C5"/>
<stop offset="1" stop-color="#4B4E4F"/>
</linearGradient>
<linearGradient id="paint13_linear_43_28598" x1="98.9981" y1="27.8573" x2="102.262" y2="32.9057" gradientUnits="userSpaceOnUse">
<stop stop-color="#E6E8EB"/>
<stop offset="1" stop-color="#717475"/>
</linearGradient>
<linearGradient id="paint14_linear_43_28598" x1="101.544" y1="36.1268" x2="96.6539" y2="25.2907" gradientUnits="userSpaceOnUse">
<stop stop-color="#E6E8EB"/>
<stop offset="1" stop-color="#717475"/>
</linearGradient>
<linearGradient id="paint15_linear_43_28598" x1="98.8188" y1="28.6812" x2="101.766" y2="33.2016" gradientUnits="userSpaceOnUse">
<stop stop-color="#E6E8EB"/>
<stop offset="1" stop-color="#717475"/>
</linearGradient>
<linearGradient id="paint16_linear_43_28598" x1="99.97" y1="26.9594" x2="99.97" y2="34.4369" gradientUnits="userSpaceOnUse">
<stop stop-color="#D0D2D4"/>
<stop offset="1" stop-color="#86898B"/>
</linearGradient>
<linearGradient id="paint17_linear_43_28598" x1="98.1639" y1="24.319" x2="101.765" y2="45.347" gradientUnits="userSpaceOnUse">
<stop stop-color="#D0D2D4"/>
<stop offset="1" stop-color="#86898B"/>
</linearGradient>
<linearGradient id="paint18_linear_43_28598" x1="37.0654" y1="91.0787" x2="38.0476" y2="91.0787" gradientUnits="userSpaceOnUse">
<stop stop-color="#2B3436"/>
<stop offset="1" stop-color="#404B4D"/>
</linearGradient>
<linearGradient id="paint19_linear_43_28598" x1="44.2792" y1="88.2797" x2="56.7735" y2="82.1751" gradientUnits="userSpaceOnUse">
<stop stop-color="#414E52"/>
<stop offset="0.16" stop-color="#728082"/>
<stop offset="0.84" stop-color="#728082"/>
<stop offset="1" stop-color="#414E52"/>
</linearGradient>
<linearGradient id="paint20_linear_43_28598" x1="34.7633" y1="90.7404" x2="35.0273" y2="91.184" gradientUnits="userSpaceOnUse">
<stop stop-color="#394345"/>
<stop offset="1" stop-color="#5A6567"/>
</linearGradient>
<linearGradient id="paint21_linear_43_28598" x1="5.78229" y1="72.4163" x2="5.90903" y2="73.1345" gradientUnits="userSpaceOnUse">
<stop stop-color="#394345"/>
<stop offset="1" stop-color="#5A6567"/>
</linearGradient>
<linearGradient id="paint22_linear_43_28598" x1="28.8594" y1="88.7446" x2="29.9578" y2="91.0998" gradientUnits="userSpaceOnUse">
<stop stop-color="#394345"/>
<stop offset="1" stop-color="#5A6567"/>
</linearGradient>
<linearGradient id="paint23_linear_43_28598" x1="8.26455" y1="76.4825" x2="9.24677" y2="78.6054" gradientUnits="userSpaceOnUse">
<stop stop-color="#394345"/>
<stop offset="1" stop-color="#5A6567"/>
</linearGradient>
<linearGradient id="paint24_linear_43_28598" x1="94.8687" y1="33.8456" x2="96.2417" y2="35.5777" gradientUnits="userSpaceOnUse">
<stop stop-color="#5A6567"/>
<stop offset="1" stop-color="#404B4D"/>
</linearGradient>
<linearGradient id="paint25_linear_43_28598" x1="102.949" y1="25.333" x2="80.3468" y2="34.2258" gradientUnits="userSpaceOnUse">
<stop stop-color="#5A6567"/>
<stop offset="1" stop-color="#404B4D"/>
</linearGradient>
<linearGradient id="paint26_linear_43_28598" x1="107.722" y1="37.6371" x2="84.8785" y2="46.6244" gradientUnits="userSpaceOnUse">
<stop stop-color="#5A6567"/>
<stop offset="1" stop-color="#404B4D"/>
</linearGradient>
<linearGradient id="paint27_linear_43_28598" x1="107.841" y1="37.7005" x2="85.3648" y2="46.5428" gradientUnits="userSpaceOnUse">
<stop stop-color="#5A6567"/>
<stop offset="1" stop-color="#404B4D"/>
</linearGradient>
<linearGradient id="paint28_linear_43_28598" x1="112.654" y1="35.7467" x2="112.654" y2="35.7467" gradientUnits="userSpaceOnUse">
<stop stop-color="#5A6567"/>
<stop offset="1" stop-color="#404B4D"/>
</linearGradient>
<linearGradient id="paint29_linear_43_28598" x1="7.41926" y1="68.9522" x2="7.1341" y2="68.1495" gradientUnits="userSpaceOnUse">
<stop stop-color="#DFDFDF"/>
<stop offset="1" stop-color="#ADADAD"/>
</linearGradient>
<linearGradient id="paint30_linear_43_28598" x1="36.0621" y1="85.8187" x2="35.6079" y2="85.3646" gradientUnits="userSpaceOnUse">
<stop stop-color="#DFDFDF"/>
<stop offset="1" stop-color="#ADADAD"/>
</linearGradient>
<linearGradient id="paint31_linear_43_28598" x1="10.9045" y1="72.4165" x2="10.5454" y2="71.5822" gradientUnits="userSpaceOnUse">
<stop stop-color="#DFDFDF"/>
<stop offset="1" stop-color="#ADADAD"/>
</linearGradient>
<linearGradient id="paint32_linear_43_28598" x1="30.5598" y1="83.833" x2="30.1584" y2="83.0832" gradientUnits="userSpaceOnUse">
<stop stop-color="#DFDFDF"/>
<stop offset="1" stop-color="#ADADAD"/>
</linearGradient>
<linearGradient id="paint33_linear_43_28598" x1="14.992" y1="75.701" x2="16.7769" y2="75.701" gradientUnits="userSpaceOnUse">
<stop stop-color="#DFDFDF"/>
<stop offset="1" stop-color="#ADADAD"/>
</linearGradient>
<linearGradient id="paint34_linear_43_28598" x1="16.7558" y1="77.2536" x2="16.3017" y2="76.4298" gradientUnits="userSpaceOnUse">
<stop stop-color="#DFDFDF"/>
<stop offset="1" stop-color="#ADADAD"/>
</linearGradient>
<linearGradient id="paint35_linear_43_28598" x1="12.8375" y1="74.2645" x2="14.6435" y2="74.2645" gradientUnits="userSpaceOnUse">
<stop stop-color="#DFDFDF"/>
<stop offset="1" stop-color="#ADADAD"/>
</linearGradient>
<linearGradient id="paint36_linear_43_28598" x1="14.559" y1="75.9333" x2="14.126" y2="75.0355" gradientUnits="userSpaceOnUse">
<stop stop-color="#DFDFDF"/>
<stop offset="1" stop-color="#ADADAD"/>
</linearGradient>
<linearGradient id="paint37_linear_43_28598" x1="25.4268" y1="82.4179" x2="24.9937" y2="81.6575" gradientUnits="userSpaceOnUse">
<stop stop-color="#DFDFDF"/>
<stop offset="1" stop-color="#ADADAD"/>
</linearGradient>
<linearGradient id="paint38_linear_43_28598" x1="25.4268" y1="82.4179" x2="24.9937" y2="81.6575" gradientUnits="userSpaceOnUse">
<stop stop-color="#DFDFDF"/>
<stop offset="1" stop-color="#ADADAD"/>
</linearGradient>
<linearGradient id="paint39_linear_43_28598" x1="23.2302" y1="81.2457" x2="22.7971" y2="80.4536" gradientUnits="userSpaceOnUse">
<stop stop-color="#DFDFDF"/>
<stop offset="1" stop-color="#ADADAD"/>
</linearGradient>
<linearGradient id="paint40_linear_43_28598" x1="23.2302" y1="81.2457" x2="22.7971" y2="80.4536" gradientUnits="userSpaceOnUse">
<stop stop-color="#DFDFDF"/>
<stop offset="1" stop-color="#ADADAD"/>
</linearGradient>
<linearGradient id="paint41_linear_43_28598" x1="19.3222" y1="78.4045" x2="21.1071" y2="78.4045" gradientUnits="userSpaceOnUse">
<stop stop-color="#DFDFDF"/>
<stop offset="1" stop-color="#ADADAD"/>
</linearGradient>
<linearGradient id="paint42_linear_43_28598" x1="21.1282" y1="79.9465" x2="20.6635" y2="79.1121" gradientUnits="userSpaceOnUse">
<stop stop-color="#DFDFDF"/>
<stop offset="1" stop-color="#ADADAD"/>
</linearGradient>
<linearGradient id="paint43_linear_43_28598" x1="17.1569" y1="77.0847" x2="18.9312" y2="77.0847" gradientUnits="userSpaceOnUse">
<stop stop-color="#DFDFDF"/>
<stop offset="1" stop-color="#ADADAD"/>
</linearGradient>
<linearGradient id="paint44_linear_43_28598" x1="18.8467" y1="78.7745" x2="18.4454" y2="77.919" gradientUnits="userSpaceOnUse">
<stop stop-color="#DFDFDF"/>
<stop offset="1" stop-color="#ADADAD"/>
</linearGradient>
<linearGradient id="paint45_linear_43_28598" x1="27.3594" y1="83.4742" x2="27.0426" y2="82.7771" gradientUnits="userSpaceOnUse">
<stop stop-color="#DFDFDF"/>
<stop offset="1" stop-color="#ADADAD"/>
</linearGradient>
<linearGradient id="paint46_linear_43_28598" x1="27.3594" y1="83.4742" x2="27.0426" y2="82.7771" gradientUnits="userSpaceOnUse">
<stop stop-color="#DFDFDF"/>
<stop offset="1" stop-color="#ADADAD"/>
</linearGradient>
<linearGradient id="paint47_linear_43_28598" x1="67.6833" y1="59.1194" x2="66.8489" y2="60.3445" gradientUnits="userSpaceOnUse">
<stop stop-color="#5A6567"/>
<stop offset="1" stop-color="#2E383B"/>
</linearGradient>
<linearGradient id="paint48_linear_43_28598" x1="39.1883" y1="42.1046" x2="37.2133" y2="44.2803" gradientUnits="userSpaceOnUse">
<stop stop-color="#5A6567"/>
<stop offset="1" stop-color="#2E383B"/>
</linearGradient>
<linearGradient id="paint49_linear_43_28598" x1="73.6082" y1="59.6686" x2="75.2135" y2="63.9883" gradientUnits="userSpaceOnUse">
<stop stop-color="#F3F5F7"/>
<stop offset="1" stop-color="#999D9E"/>
</linearGradient>
<linearGradient id="paint50_linear_43_28598" x1="90.961" y1="49.5189" x2="92.5663" y2="53.8491" gradientUnits="userSpaceOnUse">
<stop stop-color="#F3F5F7"/>
<stop offset="1" stop-color="#999D9E"/>
</linearGradient>
<linearGradient id="paint51_linear_43_28598" x1="93.0523" y1="48.5474" x2="83.9905" y2="67.5898" gradientUnits="userSpaceOnUse">
<stop offset="0.11" stop-color="#728082"/>
<stop offset="0.23" stop-color="#414E52"/>
<stop offset="0.87" stop-color="#414E52"/>
</linearGradient>
</defs>
</svg>
