<svg width="120" height="120" viewBox="0 0 120 120" fill="none" xmlns="http://www.w3.org/2000/svg">
<path d="M37.3761 93.4662L41.3944 98.4343L45.2179 99.7128L45.8856 98.1725L46.5248 93.9492L37.3761 93.4662Z" fill="#222B2E"/>
<path d="M104.843 62.5415L104.092 64.2808L100.279 63.4751L96.4146 59.5217H106.054L104.843 62.5415Z" fill="#222B2E"/>
<path d="M42.3115 95.4814L39.3546 94.0933C38.4799 93.7909 37.3718 93.9553 36.1684 94.6656C33.3312 96.3419 31.0319 100.415 31.0319 103.768C31.0319 105.525 31.665 106.735 32.6777 107.244L35.454 108.561C36.3551 108.953 37.5322 108.817 38.8188 108.058C41.656 106.382 43.9574 102.309 43.9574 98.9579C43.9574 97.2004 43.3242 95.9908 42.3115 95.4814Z" fill="#3C4447"/>
<path d="M43.9575 98.9577C43.9575 102.308 41.6582 106.383 38.819 108.058C35.9818 109.734 33.6824 108.374 33.6804 105.024C33.6804 101.673 35.9798 97.598 38.819 95.9237C41.6561 94.2474 43.9575 95.6051 43.9575 98.9577Z" fill="#555F62"/>
<path d="M43.503 99.3191C43.503 102.373 41.4066 106.087 38.821 107.615C36.2355 109.144 34.1371 107.906 34.1371 104.851C34.1371 101.797 36.2335 98.0831 38.821 96.555C41.4086 95.0288 43.503 96.2668 43.503 99.3211V99.3191Z" fill="#3C4447"/>
<path d="M42.058 100.401C42.0195 102.503 40.7328 104.805 38.9692 105.892C37.3984 106.86 35.8439 105.913 35.8784 104.05C35.9169 101.945 37.2036 99.6458 38.9692 98.558C40.538 97.5899 42.0925 98.5397 42.058 100.401Z" fill="url(#paint0_linear_43_31362)"/>
<path d="M41.9301 100.551C41.8935 102.554 40.6678 104.744 38.9894 105.779C37.4937 106.7 36.0163 105.797 36.0487 104.025C36.0853 102.022 37.3111 99.8327 38.9894 98.7976C40.4831 97.8763 41.9625 98.7794 41.9301 100.551Z" fill="#CBCAC8"/>
<path opacity="0.5" d="M40.2436 98.4344C41.0514 98.611 41.6338 99.3761 41.6135 100.488C41.577 102.465 40.3674 104.628 38.7094 105.651C38.0721 106.045 37.4369 106.102 36.9235 105.897C37.4775 106.244 38.2304 106.246 38.9894 105.779C40.6678 104.744 41.8936 102.552 41.9301 100.551C41.9545 99.2908 41.2117 98.4709 40.2436 98.4324V98.4344Z" fill="white"/>
<path d="M40.7205 101.442C40.7002 102.507 40.0487 103.674 39.1538 104.226C38.3582 104.717 37.5708 104.236 37.5891 103.293C37.6094 102.225 38.2608 101.06 39.1538 100.508C39.9493 100.017 40.7367 100.498 40.7205 101.442Z" fill="#E6E7E5"/>
<path fill-rule="evenodd" clip-rule="evenodd" d="M38.0192 101.243L37.3069 100.521C37.177 100.709 37.0552 100.904 36.9436 101.103L37.8426 101.527C37.8974 101.43 37.9583 101.334 38.0192 101.243Z" fill="#343433"/>
<path fill-rule="evenodd" clip-rule="evenodd" d="M39.0909 100.186C39.1355 100.157 39.1802 100.133 39.2268 100.113L39.0422 98.8422C39.0198 98.8543 38.9995 98.8645 38.9772 98.8787C38.8027 98.9883 38.6342 99.1141 38.4698 99.2481L38.9082 100.309C38.9671 100.265 39.0279 100.226 39.0888 100.188L39.0909 100.186Z" fill="#343433"/>
<path fill-rule="evenodd" clip-rule="evenodd" d="M37.6358 101.945L36.7063 101.58C36.6028 101.809 36.5114 102.041 36.4343 102.278L37.4876 102.353C37.5302 102.215 37.5789 102.079 37.6358 101.945Z" fill="#343433"/>
<path fill-rule="evenodd" clip-rule="evenodd" d="M38.5389 100.62L38.1168 99.5585C37.9463 99.7249 37.7839 99.9035 37.6317 100.09L38.2669 100.916C38.3542 100.813 38.4455 100.713 38.5409 100.62H38.5389Z" fill="#343433"/>
<path fill-rule="evenodd" clip-rule="evenodd" d="M40.5986 100.362L41.1364 99.4409C41.1019 99.3739 41.0674 99.311 41.0289 99.2501C40.9802 99.1751 40.9294 99.1101 40.8746 99.0452L40.4525 100.204C40.5053 100.251 40.554 100.303 40.5986 100.362Z" fill="#343433"/>
<path fill-rule="evenodd" clip-rule="evenodd" d="M40.8281 100.888L41.3943 100.22C41.3679 100.082 41.3334 99.9482 41.2928 99.8224L40.7286 100.577C40.7713 100.673 40.8058 100.774 40.8281 100.888Z" fill="#343433"/>
<path fill-rule="evenodd" clip-rule="evenodd" d="M40.2457 100.07L40.6049 98.7956C40.473 98.7043 40.3329 98.6393 40.1828 98.6028L40.0103 99.9869C40.0935 100.003 40.1726 100.032 40.2477 100.068L40.2457 100.07Z" fill="#343433"/>
<path fill-rule="evenodd" clip-rule="evenodd" d="M39.7667 99.9666L39.9189 98.5703C39.9189 98.5703 39.9128 98.5703 39.9087 98.5703C39.7423 98.5703 39.5718 98.6068 39.3953 98.6698L39.5231 100.003C39.6063 99.9828 39.6875 99.9686 39.7667 99.9666Z" fill="#343433"/>
<path fill-rule="evenodd" clip-rule="evenodd" d="M37.3761 102.808H36.2863C36.2335 103.039 36.195 103.27 36.1686 103.5L37.3294 103.207C37.3375 103.075 37.3538 102.939 37.3761 102.806V102.808Z" fill="#343433"/>
<path fill-rule="evenodd" clip-rule="evenodd" d="M39.5293 104.05L39.4948 104.724C39.6165 104.608 39.7363 104.486 39.8499 104.358L39.7565 103.831C39.6835 103.908 39.6084 103.981 39.5313 104.05H39.5293Z" fill="#343433"/>
<path fill-rule="evenodd" clip-rule="evenodd" d="M40.1097 103.398L40.2701 103.837C40.4121 103.638 40.544 103.429 40.6638 103.214L40.2822 103.133C40.2275 103.222 40.1706 103.313 40.1097 103.398Z" fill="#343433"/>
<path fill-rule="evenodd" clip-rule="evenodd" d="M40.5299 102.651L40.8972 102.747C41.0068 102.507 41.1042 102.26 41.1834 102.01L40.7065 102.172C40.6578 102.335 40.5989 102.495 40.5299 102.649V102.651Z" fill="#343433"/>
<path fill-rule="evenodd" clip-rule="evenodd" d="M37.3435 103.622L36.1421 103.936C36.1421 103.967 36.1381 103.997 36.1381 104.026C36.1381 104.196 36.1624 104.354 36.2071 104.5L37.4186 103.91C37.3841 103.821 37.3598 103.725 37.3435 103.622Z" fill="#343433"/>
<path fill-rule="evenodd" clip-rule="evenodd" d="M40.8565 101.261C40.8525 101.422 40.8362 101.584 40.8058 101.746L41.3152 101.541C41.3781 101.273 41.4227 101.004 41.443 100.734L40.8545 101.261H40.8565Z" fill="#343433"/>
<path fill-rule="evenodd" clip-rule="evenodd" d="M39.091 104.381C39.0362 104.415 38.9815 104.444 38.9267 104.47L38.5593 105.399C38.5898 105.391 38.6182 105.379 38.6486 105.369C38.6689 105.357 38.6892 105.349 38.7095 105.336C38.8353 105.257 38.9591 105.17 39.0789 105.077L39.2392 104.283C39.1905 104.318 39.1397 104.352 39.091 104.383V104.381Z" fill="#343433"/>
<path fill-rule="evenodd" clip-rule="evenodd" d="M37.5283 104.129L36.3695 104.841C36.4405 104.947 36.5237 105.042 36.6232 105.128C36.6638 105.162 36.7084 105.192 36.7531 105.223L37.6744 104.312C37.6196 104.257 37.5709 104.198 37.5283 104.129Z" fill="#343433"/>
<path fill-rule="evenodd" clip-rule="evenodd" d="M37.8875 104.474L37.0291 105.367C37.1549 105.418 37.2909 105.456 37.4349 105.48L38.0296 104.539C37.9809 104.521 37.9322 104.5 37.8875 104.474Z" fill="#343433"/>
<path fill-rule="evenodd" clip-rule="evenodd" d="M38.2649 104.596L37.7839 105.511C37.7839 105.511 37.7981 105.511 37.8042 105.511C37.9179 105.511 38.0315 105.501 38.1452 105.487L38.5572 104.586C38.4557 104.602 38.3562 104.606 38.2629 104.596H38.2649Z" fill="#343433"/>
<path d="M101.196 60.7838L98.2391 59.3957C97.3644 59.0933 96.2563 59.2577 95.0529 59.968C92.2157 61.6443 89.9143 65.7194 89.9143 69.07C89.9143 70.8275 90.5475 72.0371 91.5602 72.5465L94.3385 73.8636C95.2396 74.2553 96.4146 74.1193 97.7033 73.3603C100.54 71.684 102.842 67.6109 102.842 64.2582C102.842 62.5007 102.209 61.2912 101.196 60.7818V60.7838Z" fill="#3C4447"/>
<path d="M102.842 64.2605C102.842 67.6111 100.54 71.6862 97.7032 73.3626C94.866 75.0389 92.5667 73.6792 92.5667 70.3285C92.5667 66.9779 94.866 62.9028 97.7032 61.2285C100.54 59.5522 102.842 60.9119 102.842 64.2625V64.2605Z" fill="#555F62"/>
<path d="M102.387 64.6218C102.387 67.6761 100.291 71.39 97.7032 72.9182C95.1177 74.4463 93.0213 73.2084 93.0193 70.1541C93.0193 67.0998 95.1177 63.3859 97.7032 61.8577C100.289 60.3316 102.387 61.5675 102.387 64.6238V64.6218Z" fill="#3C4447"/>
<path d="M100.94 65.7033C100.9 67.8078 99.615 70.1092 97.8494 71.195C96.2806 72.163 94.7261 71.2153 94.7606 69.3522C94.7991 67.2477 96.0858 64.9483 97.8494 63.8585C99.4181 62.8905 100.975 63.8403 100.94 65.7013V65.7033Z" fill="url(#paint1_linear_43_31362)"/>
<path d="M100.814 65.8536C100.778 67.8546 99.5522 70.0464 97.8738 71.0814C96.3781 72.0028 94.9007 71.0997 94.9331 69.328C94.9697 67.3249 96.1955 65.1372 97.8738 64.1001C99.3675 63.1788 100.847 64.0839 100.814 65.8556V65.8536Z" fill="#CBCAC8"/>
<path opacity="0.5" d="M99.128 63.7368C99.9358 63.9134 100.518 64.6785 100.498 65.7906C100.461 67.7673 99.2518 69.9327 97.5938 70.9555C96.9565 71.3472 96.3213 71.4041 95.8079 71.2011C96.3619 71.5481 97.1169 71.5502 97.8738 71.0834C99.5522 70.0484 100.778 67.8566 100.815 65.8556C100.839 64.5953 100.096 63.7754 99.128 63.7368Z" fill="white"/>
<path d="M99.6049 66.7443C99.5846 67.8098 98.9331 68.9767 98.0382 69.5287C97.2426 70.0198 96.4552 69.5389 96.4735 68.5952C96.4938 67.5277 97.1452 66.3628 98.0382 65.8128C98.8337 65.3217 99.6232 65.8027 99.6049 66.7463V66.7443Z" fill="#E6E7E5"/>
<path fill-rule="evenodd" clip-rule="evenodd" d="M96.9036 66.5457L96.1913 65.8232C96.0614 66.012 95.9396 66.2068 95.828 66.4057L96.727 66.8298C96.7818 66.7324 96.8427 66.637 96.9036 66.5457Z" fill="#343433"/>
<path fill-rule="evenodd" clip-rule="evenodd" d="M97.9753 65.4881C98.0199 65.4597 98.0646 65.4374 98.1112 65.4151L97.9266 64.1447C97.9042 64.1568 97.8839 64.167 97.8616 64.1812C97.6871 64.2908 97.5186 64.4166 97.3542 64.5505L97.7946 65.6119C97.8535 65.5693 97.9144 65.5287 97.9753 65.4902V65.4881Z" fill="#343433"/>
<path fill-rule="evenodd" clip-rule="evenodd" d="M96.5201 67.2498L95.5926 66.8824C95.4871 67.1118 95.3958 67.3452 95.3207 67.5806L96.3719 67.6557C96.4145 67.5177 96.4633 67.3817 96.5201 67.2498Z" fill="#343433"/>
<path fill-rule="evenodd" clip-rule="evenodd" d="M97.4232 65.9227L97.0011 64.8613C96.8306 65.0257 96.6683 65.2043 96.514 65.393L97.1493 66.219C97.2365 66.1155 97.3278 66.0161 97.4232 65.9227Z" fill="#343433"/>
<path fill-rule="evenodd" clip-rule="evenodd" d="M99.483 65.6646L100.021 64.7433C99.9884 64.6763 99.9518 64.6114 99.9133 64.5525C99.8646 64.4774 99.8138 64.4104 99.759 64.3475L99.3369 65.5063C99.3917 65.553 99.4384 65.6058 99.4851 65.6646H99.483Z" fill="#343433"/>
<path fill-rule="evenodd" clip-rule="evenodd" d="M99.7105 66.1903L100.279 65.5226C100.252 65.3846 100.218 65.2506 100.177 65.1268L99.613 65.8798C99.6557 65.9751 99.6902 66.0766 99.7125 66.1903H99.7105Z" fill="#343433"/>
<path fill-rule="evenodd" clip-rule="evenodd" d="M99.13 65.3726L99.4872 64.0981C99.3573 64.0067 99.2153 63.9418 99.0651 63.9053L98.8926 65.2894C98.9758 65.3056 99.057 65.334 99.13 65.3705V65.3726Z" fill="#343433"/>
<path fill-rule="evenodd" clip-rule="evenodd" d="M98.649 65.2689L98.8012 63.8727C98.8012 63.8727 98.7951 63.8727 98.7931 63.8727C98.6267 63.8727 98.4542 63.9092 98.2797 63.9721L98.4075 65.3034C98.4907 65.2831 98.5719 65.271 98.6511 65.2689H98.649Z" fill="#343433"/>
<path fill-rule="evenodd" clip-rule="evenodd" d="M96.2603 68.1104H95.1704C95.1177 68.3418 95.0771 68.5731 95.0527 68.8025L96.2115 68.5102C96.2197 68.3763 96.2359 68.2444 96.2582 68.1084L96.2603 68.1104Z" fill="#343433"/>
<path fill-rule="evenodd" clip-rule="evenodd" d="M98.4136 69.3522L98.3792 70.0259C98.5009 69.9103 98.6186 69.7885 98.7323 69.6627L98.6389 69.135C98.5659 69.2121 98.4908 69.2852 98.4116 69.3542L98.4136 69.3522Z" fill="#343433"/>
<path fill-rule="evenodd" clip-rule="evenodd" d="M98.9941 68.7009L99.1545 69.1393C99.2965 68.9404 99.4284 68.7314 99.5482 68.5162L99.1666 68.4351C99.1118 68.5264 99.055 68.6157 98.9941 68.7009Z" fill="#343433"/>
<path fill-rule="evenodd" clip-rule="evenodd" d="M99.4141 67.9561L99.7814 68.0515C99.891 67.812 99.9864 67.5644 100.068 67.3148L99.5886 67.4772C99.5399 67.6395 99.481 67.7978 99.4141 67.9561Z" fill="#343433"/>
<path fill-rule="evenodd" clip-rule="evenodd" d="M96.228 68.9241L95.0265 69.2386C95.0265 69.2691 95.0225 69.2975 95.0225 69.3279C95.0225 69.4984 95.0468 69.6567 95.0915 69.8028L96.303 69.2122C96.2685 69.123 96.2442 69.0276 96.228 68.9241Z" fill="#343433"/>
<path fill-rule="evenodd" clip-rule="evenodd" d="M99.7408 66.5638C99.7368 66.7241 99.7206 66.8844 99.6921 67.0488L100.202 66.8439C100.264 66.5739 100.307 66.304 100.329 66.0361L99.7408 66.5638Z" fill="#343433"/>
<path fill-rule="evenodd" clip-rule="evenodd" d="M97.9752 69.6851C97.9204 69.7196 97.8656 69.748 97.8108 69.7744L97.4435 70.7018C97.4739 70.6937 97.5023 70.6815 97.5328 70.6714C97.551 70.6592 97.5713 70.6511 97.5916 70.6389C97.7175 70.5597 97.8413 70.4725 97.963 70.3812L98.1233 69.5876C98.0746 69.6221 98.0239 69.6566 97.9752 69.6871V69.6851Z" fill="#343433"/>
<path fill-rule="evenodd" clip-rule="evenodd" d="M96.4125 69.4335L95.2537 70.1458C95.3227 70.2513 95.4059 70.3488 95.5073 70.432C95.5479 70.4665 95.5926 70.4969 95.6372 70.5273L96.5586 69.6161C96.5038 69.5613 96.4551 69.5004 96.4125 69.4335Z" fill="#343433"/>
<path fill-rule="evenodd" clip-rule="evenodd" d="M96.7718 69.7764L95.9133 70.6693C96.0392 70.7221 96.1751 70.7586 96.3192 70.783L96.9139 69.8413C96.8631 69.823 96.8164 69.8027 96.7718 69.7764Z" fill="#343433"/>
<path fill-rule="evenodd" clip-rule="evenodd" d="M97.1494 69.8982L96.6704 70.8135C96.6704 70.8135 96.6826 70.8135 96.6907 70.8135C96.8023 70.8135 96.918 70.8054 97.0337 70.7891L97.4457 69.8881C97.3442 69.9043 97.2447 69.9084 97.1514 69.8982H97.1494Z" fill="#343433"/>
<path d="M117.973 45.0173C117.973 45.0173 117.63 36.4266 116.658 31.4849C115.686 26.5432 114.085 21.5731 113.143 20.1099C112.2 18.6487 107.169 14.671 104.91 13.3843C102.651 12.0997 94.5881 8.09356 93.7601 8.00629C92.93 7.91903 91.1583 8.82416 91.1583 8.82416L43.0158 36.9827C43.0158 36.9827 35.1254 41.689 31.9513 44.4389C28.7772 47.1888 23.5474 54.5557 23.5474 54.5557L13.9704 69.9652C13.9704 69.9652 10.1388 74.1459 8.96784 75.5503C7.79685 76.9526 5.0226 80.6076 4.47871 81.9836C3.93482 83.3575 3.77855 87.319 3.77855 87.319C3.77855 87.319 3.01954 88.0943 3.01954 88.6199C3.01954 89.1455 2.44724 92.3033 4.8501 95.6661C7.25093 99.0289 12.4098 101.813 16.1947 104.1C19.9816 106.386 25.66 108.011 27.4398 107.816C28.9051 107.658 31.2674 106.658 32.0568 106.311C32.3917 105.267 33.2725 102.944 35.237 99.863C37.9443 95.6174 41.1873 94.2394 43.5333 95.0573C45.3822 95.7027 45.3233 98.5358 45.2157 99.7108L91.1279 71.8648H91.483C91.7915 70.6268 92.3557 68.8328 93.3724 66.7039C95.343 62.574 99.1076 59.9093 101.872 60.3396C103.986 60.6684 104.139 63.1362 104.094 64.2828C104.954 63.68 111.268 59.2579 112.573 58.3873C113.973 57.4517 117.49 55.0245 117.746 53.9428C118.004 52.8611 117.833 48.8265 117.833 48.8265L117.975 45.0213L117.973 45.0173Z" fill="#DFE5E9"/>
<path d="M43.5354 95.0571C44.266 95.3108 44.6962 95.9074 44.9459 96.6076L46.2001 95.6599L92.7291 68.1426C92.9199 67.6819 93.133 67.201 93.3704 66.7017C93.8271 65.7479 94.3791 64.8711 94.992 64.0939L93.0782 64.4815L44.8383 93.1718L43.1559 94.9455C43.2837 94.9759 43.4116 95.0125 43.5354 95.0551V95.0571Z" fill="#404B4D"/>
<path d="M101.872 60.3397C102.744 60.4757 103.282 60.977 103.611 61.598L114.836 54.4016L114.708 56.8897C116.118 55.8486 117.584 54.6268 117.744 53.9429C117.961 53.0317 117.874 50.022 117.841 49.0986L103.455 58.0992L101.653 60.3154C101.726 60.3215 101.801 60.3316 101.874 60.3418L101.872 60.3397Z" fill="#404B4D"/>
<g style="mix-blend-mode:multiply" opacity="0.2">
<path d="M116.088 43.6211L66.3706 74.6675L46.5997 88.3988L66.606 74.9293L116.177 43.9499L116.088 43.6211Z" fill="black"/>
</g>
<g style="mix-blend-mode:multiply" opacity="0.2">
<path d="M112.267 24.5221C112.267 24.5221 110.343 26.0097 107.189 27.8707C95.686 34.6612 67.8096 51.1383 57.0555 57.7177C55.2635 58.8136 51.8581 60.9729 50.882 63.1181C51.9109 60.5995 55.2635 58.4605 57.0555 57.3646C70.7583 48.981 112.267 24.5221 112.267 24.5221Z" fill="black"/>
</g>
<g style="mix-blend-mode:multiply" opacity="0.2">
<path d="M55.4824 62.261L55.4154 62.1453L113.843 26.9467L113.91 27.0623L55.4824 62.261Z" fill="black"/>
</g>
<g style="mix-blend-mode:multiply" opacity="0.2">
<path d="M18.7174 99.8609C18.8717 99.9238 19.1903 100.05 19.6774 100.216C19.9453 100.035 20.5115 99.6072 20.9011 98.974C21.4288 98.1176 22.5856 96.2992 24.0447 95.0085C24.9681 94.1927 31.9839 88.8654 31.9839 88.8654C31.9839 88.8654 25.6277 93.3788 24.1807 94.4849C22.6424 95.6599 21.6906 96.9263 21.3212 97.4946C21.3212 97.4946 21.3212 97.4946 21.3212 97.4966C20.477 98.8928 19.6023 99.6843 18.7134 99.8609C18.7134 99.8609 18.7154 99.8609 18.7174 99.8609Z" fill="black"/>
</g>
<g style="mix-blend-mode:multiply" opacity="0.2">
<path d="M5.79996 87.4814C5.79996 87.4022 5.81214 87.2378 5.90549 87.0876C5.96435 85.7908 5.99885 84.4615 6.58536 83.047C7.17187 81.6325 10.5123 75.4346 10.5123 75.4346C10.5123 75.4346 6.6503 82.286 6.23426 83.3007C5.8162 84.3154 5.43872 87.8223 5.43872 87.8223L5.79184 88.1024C5.78576 87.7492 5.7959 87.5422 5.79996 87.4793V87.4814Z" fill="black"/>
</g>
<g style="mix-blend-mode:multiply" opacity="0.2">
<path d="M31.1334 106.7C31.0603 106.729 30.9873 106.759 30.9102 106.79C30.9873 106.759 31.0624 106.729 31.1334 106.7Z" fill="black"/>
</g>
<g style="mix-blend-mode:multiply" opacity="0.1">
<path d="M117.973 45.0173C117.973 45.0173 117.63 36.4267 116.658 31.485C115.686 26.5433 114.085 21.5732 113.143 20.11C113.135 20.0978 113.125 20.0856 113.119 20.0734C112.67 19.9314 112.293 20.0836 111.747 20.4306C110.789 21.0395 70.5209 45.405 56.5015 53.5999C54.5471 54.7424 52.3919 57.1412 50.951 60.5223C49.4512 64.0393 39.0422 84.9527 39.0422 84.9527C39.0422 84.9527 38.7073 85.8132 38.1614 86.418C37.6175 87.0228 29.6012 95.0533 29.3353 95.5688C29.0695 96.0863 24.4221 97.0137 23.6286 97.172C23.0907 97.2796 22.0436 97.1436 21.1952 96.961C21.1892 96.9711 21.1871 96.9792 21.181 96.9894C20.7853 97.6875 19.5737 99.723 18.1085 99.4998C16.6412 99.2786 13.1099 97.4318 11.389 96.2486C9.668 95.0655 6.65834 93.1882 6.37827 90.8787C6.09821 88.5712 6.17533 87.4875 6.17533 87.4875C6.17533 87.4875 6.17533 87.4753 6.17533 87.4571C5.34731 86.3368 4.57207 85.0887 4.04847 84.0314C3.84553 85.5961 3.77855 87.315 3.77855 87.315C3.77855 87.315 3.01954 88.0903 3.01954 88.6159C3.01954 89.1415 2.44724 92.2993 4.8501 95.6621C7.25093 99.0249 12.4098 101.809 16.1947 104.096C19.9816 106.382 25.66 108.007 27.4398 107.812C28.4383 107.705 29.8529 107.206 30.9021 106.79L32.8098 99.8286C32.8098 99.8286 34.1979 96.1451 38.3278 93.5434C42.4577 90.9416 44.8362 93.172 44.8362 93.172L93.0761 64.4817C93.0761 64.4817 94.4643 60.8653 98.032 58.8724C101.6 56.8774 103.451 58.0951 103.451 58.0951L117.837 49.0945C117.837 49.1331 117.839 49.1757 117.841 49.2203L103.449 58.229L103.39 58.1905C103.39 58.1905 102.84 57.8414 101.795 57.8414C100.674 57.8414 99.4283 58.2229 98.0848 58.9718C94.5962 60.9201 93.1939 64.4878 93.1796 64.5223L93.1654 64.5589L44.82 93.312L44.7591 93.2552C44.7591 93.2552 43.8175 92.3947 42.1472 92.3947C40.962 92.3947 39.6957 92.8128 38.3846 93.6388C34.3379 96.1877 32.9275 99.8326 32.9153 99.857L31.0685 106.597C31.0969 106.585 31.1172 106.621 31.1334 106.694C31.519 106.538 31.8417 106.398 32.0528 106.307C32.3876 105.263 33.2684 102.94 35.2329 99.859C37.9402 95.6134 41.1832 94.2354 43.5293 95.0533C45.3781 95.6987 45.3193 98.5318 45.2117 99.7068L91.1238 71.8608H91.479C91.7874 70.6228 92.3516 68.8288 93.3684 66.6999C95.339 62.57 99.1036 59.9053 101.868 60.3356C103.982 60.6644 104.135 63.1322 104.09 64.2788C104.95 63.676 111.264 59.2539 112.569 58.3833C113.969 57.4477 117.486 55.0205 117.742 53.9388C118 52.8571 117.829 48.8225 117.829 48.8225L117.971 45.0173H117.973ZM114.406 42.1578C113.316 42.7789 63.0607 73.3849 63.0607 73.3849C63.0607 73.3849 62.2306 73.6589 61.5609 73.1617C62.1352 73.3788 62.7055 73.1901 62.7055 73.1901C62.7055 73.1901 112.963 42.5861 114.05 41.963C115.14 41.342 114.747 40.0168 114.747 40.0168C114.747 40.0168 113.348 33.4251 112.93 31.0121C112.849 30.5433 112.674 30.243 112.451 30.0583C112.837 30.1841 113.166 30.5109 113.285 31.207C113.703 33.62 115.102 40.2116 115.102 40.2116C115.102 40.2116 115.495 41.5368 114.406 42.1578ZM113.917 27.0669L113.983 27.1826L55.5558 62.3813L55.4888 62.2656L113.917 27.0669ZM38.614 89.5231L31.1618 95.2887L39.2248 87.8731L56.0205 65.3564C56.0205 65.3564 56.3919 70.8867 55.9454 74.1094C55.499 77.3322 52.952 78.6148 51.4502 79.8304C49.9464 81.0481 38.614 89.5231 38.614 89.5231ZM116.088 44.0046V45.9265L66.9917 75.9136L46.5998 88.3987L66.6061 74.9293L116.088 44.0046V43.6211L116.177 43.9498L116.088 44.0046ZM46.0641 98.6718L45.9971 98.5541L90.9716 71.3758L91.0386 71.4935L46.0641 98.6718Z" fill="black"/>
</g>
<path d="M32.9436 62.2188C28.6798 59.7551 25.3758 56.9159 23.5615 54.5333C23.5513 54.5475 23.5453 54.5556 23.5453 54.5556L13.9683 69.9652C13.9683 69.9652 13.9196 70.02 13.8323 70.1154C13.8323 70.1154 12.2615 73.2042 22.3053 79.5564C32.349 85.9085 37.6905 85.0602 37.6905 85.0602L45.7961 68.4614C45.7961 68.4614 38.4434 65.3969 32.9436 62.2209V62.2188Z" fill="#131B1D"/>
<path d="M32.759 62.5517C28.9295 60.3396 25.6255 57.679 23.5961 55.1869L14.5488 69.7441L14.6909 70.2088C14.9365 70.7 15.2023 72.3458 24.0872 77.9654C31.9128 82.9152 34.135 83.2785 36.1239 83.6661L37.1142 83.7189C37.3151 83.7189 37.9037 83.6011 38.0112 83.5951L45.2787 68.6563C43.7099 67.9866 37.51 65.2976 32.757 62.5517H32.759Z" fill="#303E42"/>
<path d="M41.2847 76.2668C40.8322 74.8767 39.1559 73.2064 37.5424 72.5387C37.0899 72.352 36.6921 72.2648 36.3613 72.2648C35.513 72.2648 35.1173 72.8493 35.444 73.8498C35.8966 75.2399 37.5729 76.9102 39.1843 77.5758C39.6348 77.7625 40.0346 77.8518 40.3654 77.8518C41.2137 77.8518 41.6094 77.2673 41.2827 76.2648L41.2847 76.2668ZM40.682 77.0725C40.6536 77.1131 40.544 77.1537 40.3674 77.1537C40.1909 77.1537 39.8905 77.1151 39.442 76.9284C38.0173 76.3379 36.4831 74.828 36.0934 73.6286C35.9798 73.2775 36.0143 73.0928 36.0467 73.0441C36.0752 73.0035 36.1847 72.9629 36.3613 72.9629C36.5358 72.9629 36.8382 73.0015 37.2867 73.1882C38.7114 73.7787 40.2457 75.2886 40.6353 76.488C40.751 76.8391 40.7165 77.0238 40.682 77.0725Z" fill="#3D4B50"/>
<path d="M54.3908 64.2829C54.3908 64.2829 56.0813 62.9658 56.0306 64.9871C55.9778 67.0105 55.8094 70.8015 55.6145 72.2261C55.4197 73.6508 54.9773 75.1404 53.1549 76.63C51.3344 78.1196 39.1821 87.9665 39.1821 87.9665L43.5028 78.2942C43.5028 78.2942 46.9366 71.043 47.8986 69.4458C48.8626 67.8486 54.3908 64.2829 54.3908 64.2829Z" fill="#131B1D"/>
<path d="M43.8174 83.7209C45.0371 82.7326 46.3562 81.6631 47.6064 80.6484V70.7629C46.2811 73.3079 43.8681 78.3977 43.8417 78.4525L43.8174 78.5093V83.7209Z" fill="#303E42"/>
<path d="M55.5254 64.2888C55.5112 64.2746 55.4827 64.2441 55.3935 64.2441C55.1519 64.2441 54.7907 64.4552 54.6182 64.5871L54.606 64.5973L54.5918 64.6054C53.0738 65.5836 48.9703 68.3984 48.2194 69.6445C48.1707 69.7236 48.1179 69.817 48.057 69.9225V80.2808C50.3137 78.4503 52.2762 76.8571 52.9216 76.3295C54.6547 74.9109 55.0626 73.4923 55.2433 72.1712C55.434 70.7769 55.6025 67.0529 55.6573 64.9768C55.6695 64.4796 55.5599 64.3233 55.5254 64.2888Z" fill="#303E42"/>
<g opacity="0.7">
<path d="M22.7047 64.4982L28.5759 59.8061C26.6784 58.3916 25.0487 56.906 23.8311 55.4712L22.7047 64.5002V64.4982Z" fill="#C4CFD2"/>
<path d="M23.3379 55.6052L20.1131 60.7945C19.6768 63.4328 19.001 67.4571 19.001 67.4571L22.2258 64.8797L23.3379 55.6031V55.6052Z" fill="#C4CFD2"/>
</g>
<path d="M24.0892 77.9673C31.9148 82.9171 34.137 83.2804 36.1259 83.668L37.1163 83.7208C37.3172 83.7208 37.9057 83.6031 38.0133 83.597L39.8195 79.8446C37.8022 78.1622 33.9178 75.1525 29.7697 72.8653C24.8036 70.1256 18.4677 67.1504 18.4677 67.1504C16.7609 67.3899 14.5488 69.7461 14.5488 69.7461L14.6909 70.2108C14.9365 70.7019 15.2023 72.3478 24.0872 77.9673H24.0892Z" fill="#39474B"/>
<path d="M34.7133 73.7704C34.7133 73.7704 31.4845 77.6202 31.6509 78.4077C31.8193 79.1951 35.6002 81.4194 36.8706 81.4539C38.141 81.4884 40.8605 78.225 40.8727 77.6831C40.8869 77.1413 38.5936 73.6811 34.7133 73.7704Z" fill="#3D4B50"/>
<path opacity="0.2" d="M23.598 55.189L14.5508 69.7462L14.6928 70.2109C14.8349 70.4971 14.9851 71.1729 16.8339 72.7944C20.012 69.4073 25.1688 65.0967 32.552 62.43C28.8117 60.2443 25.591 57.6365 23.6001 55.191L23.598 55.189Z" fill="white"/>
<g style="mix-blend-mode:multiply" opacity="0.2">
<path d="M61.1286 72.3944C60.5543 70.7607 59.223 63.2092 59.223 62.4968C59.223 61.7845 59.6167 61.1351 60.5847 60.579C61.5528 60.0209 110.852 30.5006 110.852 30.5006C110.852 30.5006 112.037 29.835 112.829 30.2693C112.053 29.5894 110.665 30.3707 110.665 30.3707C110.665 30.3707 61.3661 59.8931 60.398 60.4512C59.43 61.0072 59.0363 61.6566 59.0363 62.369C59.0363 63.0813 60.3676 70.6309 60.9419 72.2666C61.1225 72.78 61.3985 73.0804 61.6928 73.2529C61.4716 73.0702 61.2707 72.7983 61.1286 72.3985V72.3944Z" fill="black"/>
</g>
<path d="M32.8118 99.8307L28.9843 101.576C28.9843 101.576 27.5819 102.254 24.1319 101.458C20.9294 100.72 19.1617 100.042 18.7173 99.8611C18.5894 99.8875 18.4616 99.9017 18.3317 99.9017C18.2383 99.9017 18.145 99.8956 18.0537 99.8794C16.4687 99.6399 12.8684 97.7282 11.1799 96.5673C11.0541 96.4821 10.9222 96.3908 10.7842 96.2974C9.13629 95.1792 6.71719 93.5313 6.12053 91.4755C5.47314 90.5967 4.154 88.6951 3.77855 87.3171C3.77855 87.3171 3.01954 88.0924 3.01954 88.618C3.01954 89.1436 2.44724 92.3015 4.8501 95.6642C7.25093 99.027 12.4098 101.811 16.1947 104.099C19.9816 106.384 25.66 108.009 27.4398 107.815C28.9051 107.656 31.2674 106.656 32.0568 106.309C32.3917 105.266 33.2725 102.942 35.237 99.8611C35.2755 99.7982 35.3161 99.7414 35.3547 99.6805L32.8098 99.8287L32.8118 99.8307Z" fill="#404B4D"/>
<path d="M20.8503 95.936C18.9792 94.9883 15.5332 93.0826 13.5058 91.8589C11.4093 90.5925 7.34639 87.7371 6.74771 87.3474C6.64623 87.2825 6.56506 87.2439 6.49605 87.2236C6.49403 87.248 6.49605 87.2642 6.49605 87.2642C6.49605 87.2642 6.41894 88.3459 6.699 90.6554C6.97906 92.9629 9.98873 94.8422 11.7097 96.0253C13.4327 97.2085 16.9639 99.0533 18.4292 99.2765C18.8493 99.3394 19.2471 99.2197 19.6103 98.9964C20.3632 98.3937 20.9315 97.4277 21.1811 96.9893C21.5769 96.2912 21.0918 96.0598 20.8483 95.936H20.8503Z" fill="#1B2628"/>
<path d="M19.6955 98.7427L19.9979 98.6412C20.073 98.5641 20.144 98.4849 20.213 98.4037L20.14 98.4281L20.0568 98.0506L20.3896 97.939L20.4322 98.1359C20.4748 98.0831 20.5134 98.0283 20.554 97.9755L20.5357 97.8903L20.6392 97.8558C20.69 97.7827 20.7387 97.7117 20.7853 97.6427L20.5012 97.7381L20.418 97.3586L20.7508 97.247L20.8239 97.5818C20.8645 97.5189 20.9051 97.458 20.9416 97.3971L20.897 97.1962L21.1019 97.1272C21.1304 97.0765 21.1588 97.0298 21.1831 96.9872C21.1953 96.9649 21.2054 96.9446 21.2156 96.9243L20.8645 97.042L20.7813 96.6625L21.3292 96.4778C21.3252 96.421 21.315 96.3702 21.2947 96.3256L20.7468 96.5103L20.6636 96.1308L21.0045 96.0171C20.9497 95.9847 20.8949 95.9583 20.8503 95.9339C20.8381 95.9278 20.828 95.9217 20.8158 95.9157L20.6331 95.9786L20.5946 95.804C20.5378 95.7736 20.4789 95.7452 20.418 95.7127L20.487 96.0273L20.1542 96.1389L20.071 95.7594L20.3368 95.6701C20.2739 95.6376 20.209 95.6031 20.144 95.5706L20.0365 95.6051L20.0142 95.5016C19.9553 95.4712 19.8965 95.4408 19.8376 95.4083L19.8904 95.6539L19.5575 95.7634L19.4743 95.386L19.6692 95.321C19.6062 95.2886 19.5433 95.2541 19.4804 95.2196L19.4419 95.2317L19.4337 95.1932C19.3749 95.1627 19.316 95.1303 19.2572 95.0978L19.2978 95.2804L18.9649 95.3921L18.8817 95.0125L19.0136 94.9679C18.902 94.909 18.7884 94.8461 18.6747 94.7853L18.7011 94.909L18.3683 95.0207L18.2851 94.6412L18.3602 94.6148C18.2709 94.5661 18.1795 94.5174 18.0902 94.4687L18.1045 94.5356L17.7716 94.6473L17.6884 94.2677L17.7107 94.2596C17.6417 94.2211 17.5748 94.1845 17.5058 94.146L17.5098 94.1622L17.177 94.2738L17.0999 93.9207C17.0288 93.8801 16.9558 93.8416 16.8848 93.801L16.5824 93.9024L16.5154 93.596C16.4261 93.5453 16.3368 93.4945 16.2455 93.4438L15.9877 93.5311L15.9289 93.2672C15.8213 93.2063 15.7158 93.1475 15.6103 93.0866L15.3911 93.1597L15.3424 92.9344C15.2815 92.8999 15.2226 92.8654 15.1638 92.8309L15.247 93.2084L14.9142 93.32L14.831 92.9405L15.1618 92.8289C15.1009 92.7944 15.04 92.7599 14.9811 92.7254L14.7965 92.7862L14.7538 92.5955C14.693 92.561 14.6341 92.5265 14.5752 92.492L14.6503 92.837L14.3175 92.9486L14.2343 92.5691L14.5326 92.4697C14.4738 92.4352 14.4129 92.4007 14.354 92.3641L14.1998 92.4169L14.1653 92.2545C14.1044 92.218 14.0456 92.1835 13.9847 92.147L14.0537 92.4656L13.7229 92.5772L13.6397 92.1997L13.9157 92.1064C13.8568 92.0719 13.798 92.0354 13.7391 92.0009L13.6072 92.0455L13.5768 91.9034C13.5483 91.8872 13.5199 91.8689 13.4915 91.8527C13.4611 91.8344 13.4266 91.8141 13.3961 91.7939L13.4611 92.0942L13.1283 92.2058L13.0471 91.8263L13.3068 91.7391C13.25 91.7046 13.1932 91.668 13.1343 91.6315L13.0146 91.6721L12.9842 91.5381C12.9253 91.4996 12.8644 91.463 12.8015 91.4225L12.8665 91.7208L12.5336 91.8304L12.4504 91.4529L12.7102 91.3656C12.6554 91.3311 12.5986 91.2946 12.5417 91.2581L12.4179 91.3007L12.3875 91.1586C12.3266 91.1201 12.2657 91.0795 12.2049 91.0409L12.2718 91.3494L11.939 91.461L11.8578 91.0815L12.1277 90.9902C12.0729 90.9537 12.0161 90.9171 11.9613 90.8826L11.8233 90.9293L11.7888 90.771C11.7279 90.7304 11.6671 90.6919 11.6062 90.6513L11.6772 90.98L11.3444 91.0917L11.2612 90.7122L11.5493 90.6147C11.4946 90.5782 11.4398 90.5437 11.385 90.5052L11.2287 90.5579L11.1881 90.3732C11.1272 90.3327 11.0663 90.2921 11.0055 90.2515L11.0826 90.6066L10.7497 90.7182L10.6665 90.3387L10.9791 90.2352C10.9243 90.1987 10.8695 90.1622 10.8147 90.1256L10.6341 90.1865L10.5874 89.9734C10.4737 89.8963 10.3621 89.8212 10.2485 89.7461L10.0394 89.8172L9.98464 89.5676C9.88317 89.5006 9.78373 89.4316 9.68429 89.3646L9.44481 89.4458L9.3819 89.1596C9.29463 89.0987 9.20737 89.0419 9.12213 88.9831L8.85018 89.0744L8.77915 88.7477C8.70609 88.6969 8.63303 88.6482 8.56403 88.5995L8.25759 88.703L8.17641 88.3336C8.1135 88.291 8.05261 88.2484 7.99173 88.2078L7.99579 88.2241L7.66296 88.3357L7.58584 87.9846L7.64064 87.9663C7.55134 87.9054 7.4661 87.8466 7.38898 87.7938L7.40725 87.8811L7.07442 87.9927L6.9973 87.6416L7.11095 87.603C6.97295 87.5097 6.86336 87.4346 6.78624 87.3818L6.81871 87.5361L6.48588 87.6477L6.46356 87.5462C6.46153 87.7268 6.46356 87.9968 6.47776 88.356H6.48182L6.55894 88.705L6.49603 88.7253C6.50009 88.7781 6.50212 88.8309 6.50618 88.8857L6.59141 88.8572L6.67259 89.2307L6.53459 89.2773C6.53865 89.3301 6.54271 89.3829 6.54879 89.4377L6.70709 89.3849L6.78827 89.7644L6.58329 89.8334C6.58938 89.8841 6.59547 89.9389 6.59953 89.9917L6.82074 89.9166L6.90395 90.2961L6.64215 90.3834C6.64824 90.4362 6.65432 90.4889 6.66041 90.5417L6.93642 90.4483L7.01962 90.8278L6.7213 90.9273C6.73144 90.978 6.74362 91.0287 6.7558 91.0795L7.0521 90.98L7.1353 91.3595L6.87959 91.4448C6.89786 91.4935 6.91815 91.5422 6.93845 91.5889L7.16777 91.5118L7.25098 91.8913L7.11095 91.9379C7.13733 91.9846 7.16372 92.0293 7.1901 92.0759L7.28345 92.0455L7.34231 92.3134C7.41131 92.4169 7.48843 92.5204 7.56555 92.6198L7.54525 92.5265L7.87808 92.4149L7.96129 92.7944L7.76037 92.8613C7.7969 92.904 7.83343 92.9466 7.87199 92.9892L7.99376 92.9486L8.04449 93.1779C8.12364 93.2591 8.20279 93.3423 8.28397 93.4235L8.58839 93.322L8.67159 93.7015L8.60056 93.7259C8.69595 93.8131 8.79133 93.8964 8.88874 93.9796L8.85018 93.805L9.18098 93.6934L9.26419 94.0709L9.07545 94.1358C9.12213 94.1744 9.16881 94.215 9.21751 94.2515L9.29869 94.2231L9.32304 94.3347C9.38596 94.3834 9.44887 94.4342 9.51178 94.4829L9.44278 94.1744L9.77561 94.0628L9.85882 94.4423L9.57875 94.5356C9.62746 94.5742 9.6782 94.6107 9.72893 94.6493L9.89129 94.5945L9.93797 94.8055C10.0476 94.8867 10.1551 94.9638 10.2627 95.041L10.4859 94.9659L10.5448 95.2398C10.6361 95.3028 10.7254 95.3657 10.8147 95.4266L11.0785 95.3373L11.1475 95.6539C11.2267 95.7066 11.3018 95.7574 11.3748 95.8081L11.6711 95.7086L11.7482 96.0638C11.8091 96.1044 11.872 96.147 11.937 96.1896L12.2637 96.08L12.3449 96.4514C12.4037 96.488 12.4646 96.5265 12.5255 96.563L12.8583 96.4514L12.9375 96.8106C13.0045 96.8492 13.0714 96.8898 13.1404 96.9283L13.455 96.8228L13.526 97.1475C13.6072 97.1942 13.6904 97.2409 13.7756 97.2876L14.0496 97.1962L14.1085 97.4702C14.214 97.527 14.3216 97.5839 14.4271 97.6407L14.6422 97.5676L14.6869 97.7767C14.7457 97.8071 14.8046 97.8375 14.8634 97.868L14.7883 97.5209L15.1212 97.4093L15.2044 97.7888L14.906 97.8883C14.971 97.9207 15.038 97.9532 15.1029 97.9857L15.2389 97.941L15.2673 98.0669C15.3261 98.0953 15.385 98.1237 15.4418 98.1521L15.385 97.8903L15.7158 97.7807L15.799 98.1582L15.5961 98.2272C15.6651 98.2597 15.732 98.2921 15.801 98.3226L15.8335 98.3124L15.8396 98.3408C15.8984 98.3672 15.9553 98.3936 16.0141 98.42L15.9796 98.2617L16.3125 98.1501L16.3957 98.5296L16.3185 98.556C16.4078 98.5945 16.4971 98.6331 16.5844 98.6716L16.5763 98.6351L16.9071 98.5235L16.9741 98.832C17.0897 98.8786 17.2013 98.9192 17.3089 98.9598L17.4997 98.8949L17.5301 99.0369C17.5869 99.0572 17.6438 99.0755 17.6986 99.0917L17.6438 98.8441L17.9766 98.7325L18.0598 99.112L17.9218 99.1587C18.0375 99.1912 18.145 99.2176 18.2445 99.2399L18.2404 99.2176L18.5733 99.1059L18.6118 99.2845C18.6646 99.2845 18.7153 99.2845 18.7681 99.2784L18.7194 99.0572L19.0522 98.9456L19.109 99.2094C19.1577 99.1932 19.2064 99.177 19.2551 99.1587L19.1983 98.8969L19.5311 98.7853L19.5778 98.9984C19.5778 98.9984 19.588 98.9943 19.592 98.9903C19.6326 98.9578 19.6712 98.9253 19.7097 98.8908L19.6773 98.7366L19.6955 98.7427ZM20.0243 97.8964L19.9411 97.5169L20.2739 97.4053L20.3571 97.7848L20.0243 97.8964ZM20.6352 96.7132L20.7163 97.0927L20.3855 97.2023L20.3023 96.8228L20.6352 96.7112V96.7132ZM20.5195 96.1815L20.6007 96.561L20.2678 96.6726L20.1867 96.2931L20.5195 96.1815ZM20.1582 96.8736L20.2415 97.2531L19.9086 97.3647L19.8254 96.9852L20.1582 96.8736ZM20.0405 96.3418L20.1237 96.7193L19.7909 96.8309L19.7077 96.4514L20.0405 96.3398V96.3418ZM19.7625 97.4134L19.4297 97.525L19.3465 97.1475L19.6793 97.0359L19.7625 97.4134ZM19.9249 95.8101L20.0081 96.1896L19.6752 96.3012L19.592 95.9217L19.9228 95.8101H19.9249ZM19.5636 96.5022L19.6468 96.8817L19.314 96.9933L19.2308 96.6158L19.5636 96.5042V96.5022ZM7.91867 90.1317L8.00188 90.5112L7.66905 90.6229L7.58787 90.2454L7.9207 90.1338L7.91867 90.1317ZM7.55337 90.0911L7.47016 89.7116L7.80299 89.6L7.8862 89.9795L7.55337 90.0911ZM8.03435 90.6635L8.11755 91.043L7.78473 91.1546L7.70152 90.7771L8.03435 90.6655V90.6635ZM8.06479 90.083L8.39762 89.9714L8.48083 90.3489L8.148 90.4605L8.06479 90.081V90.083ZM8.51127 90.5031L8.59447 90.8826L8.26367 90.9943L8.18047 90.6147L8.51127 90.5031ZM8.62897 91.0369L8.71218 91.4164L8.37935 91.528L8.29615 91.1485L8.62897 91.0369ZM8.65739 90.4544L8.99022 90.3428L9.07342 90.7223L8.74262 90.8339L8.65942 90.4544H8.65739ZM8.74465 91.5686L8.82786 91.9461L8.49503 92.0577L8.41182 91.6782L8.74262 91.5665L8.74465 91.5686ZM8.77509 90.9861L9.10792 90.8745L9.19113 91.254L8.86033 91.3656L8.77712 90.9861H8.77509ZM9.22157 91.4083L9.30478 91.7857L8.97398 91.8974L8.89077 91.5178L9.2236 91.4062L9.22157 91.4083ZM9.25201 90.8278L9.58484 90.7162L9.66805 91.0957L9.33725 91.2073L9.25404 90.8278H9.25201ZM9.33928 91.94L9.42046 92.3195L9.08966 92.4311L9.00645 92.0516L9.33928 91.94ZM9.36769 91.3595L9.70052 91.2479L9.7817 91.6274L9.4509 91.7391L9.36769 91.3616V91.3595ZM9.8162 91.7796L9.89941 92.1592L9.56658 92.2708L9.48337 91.8913L9.81417 91.7796H9.8162ZM9.84664 91.1992L10.1795 91.0876L10.2606 91.4671L9.92782 91.5787L9.84664 91.1992ZM9.93188 92.3114L10.0151 92.6909L9.68226 92.8025L9.59905 92.423L9.93188 92.3114ZM9.96232 91.7309L10.2951 91.6193L10.3784 91.9988L10.0455 92.1104L9.96232 91.7309ZM10.4108 92.151L10.492 92.5305L10.1592 92.6422L10.076 92.2627L10.4088 92.151H10.4108ZM10.5265 92.6827L10.6097 93.0623L10.2769 93.1739L10.1937 92.7944L10.5265 92.6827ZM10.5549 92.1023L10.8877 91.9907L10.971 92.3702L10.6381 92.4818L10.5549 92.1044V92.1023ZM10.6422 93.2145L10.7254 93.594L10.3926 93.7056L10.3094 93.3281L10.6422 93.2165V93.2145ZM10.6726 92.634L11.0055 92.5224L11.0887 92.9019L10.7558 93.0135L10.6726 92.634ZM11.1191 93.0541L11.2023 93.4336L10.8695 93.5453L10.7863 93.1658L11.1191 93.0541ZM11.1495 92.4737L11.4824 92.3621L11.5636 92.7416L11.2307 92.8532L11.1475 92.4737H11.1495ZM11.2368 93.5879L11.32 93.9674L10.9872 94.079L10.906 93.6995L11.2388 93.5879H11.2368ZM11.2652 93.0075L11.5981 92.8958L11.6792 93.2753L11.3484 93.387L11.2652 93.0095V93.0075ZM11.7137 93.4276L11.7949 93.8071L11.4641 93.9187L11.3809 93.5412L11.7137 93.4296V93.4276ZM11.7442 92.8451L12.075 92.7355L12.1582 93.113L11.8274 93.2246L11.7442 92.8451ZM11.8294 93.9593L11.9106 94.3367L11.5778 94.4484L11.4966 94.0709L11.8274 93.9593H11.8294ZM11.8598 93.3768L12.1927 93.2652L12.2759 93.6427L11.9431 93.7543L11.8598 93.3748V93.3768ZM12.3063 93.7989L12.3895 94.1785L12.0567 94.2901L11.9735 93.9106L12.3043 93.7989H12.3063ZM12.3368 93.2185L12.6696 93.1069L12.7528 93.4864L12.422 93.596L12.3388 93.2185H12.3368ZM12.424 94.3307L12.5072 94.7102L12.1744 94.8218L12.0912 94.4443L12.424 94.3327V94.3307ZM12.4524 93.7502L12.7853 93.6386L12.8685 94.0181L12.5377 94.1297L12.4545 93.7502H12.4524ZM12.901 94.1703L12.9842 94.5498L12.6513 94.6615L12.5681 94.2819L12.901 94.1703ZM12.9314 93.5899L13.2622 93.4783L13.3454 93.8578L13.0126 93.9694L12.9294 93.5899H12.9314ZM13.0166 94.702L13.0998 95.0815L12.767 95.1932L12.6838 94.8137L13.0166 94.702ZM13.0471 94.1216L13.3799 94.01L13.4631 94.3895L13.1303 94.5011L13.0471 94.1216ZM13.4956 94.5417L13.5788 94.9212L13.246 95.0328L13.1628 94.6533L13.4936 94.5417H13.4956ZM13.526 93.9613L13.8589 93.8497L13.9421 94.2272L13.6092 94.3388L13.5281 93.9613H13.526ZM13.6113 95.0734L13.6945 95.4529L13.3616 95.5646L13.2784 95.1851L13.6113 95.0734ZM13.6417 94.493L13.9745 94.3814L14.0577 94.7589L13.7269 94.8705L13.6437 94.493H13.6417ZM14.0882 94.9131L14.1714 95.2926L13.8406 95.4042L13.7574 95.0247L14.0902 94.9131H14.0882ZM14.1186 94.3327L14.4515 94.2211L14.5347 94.6006L14.2018 94.7122L14.1186 94.3327ZM14.2039 95.4469L14.2871 95.8243L13.9542 95.9359L13.871 95.5564L14.2039 95.4448V95.4469ZM14.2363 94.8644L14.5671 94.7528L14.6503 95.1323L14.3175 95.2439L14.2363 94.8644ZM14.6828 95.2845L14.766 95.664L14.4332 95.7756L14.352 95.3961L14.6848 95.2845H14.6828ZM14.7132 94.7041L15.0461 94.5945L15.1273 94.972L14.7965 95.0836L14.7132 94.7041ZM14.7985 95.8182L14.8817 96.1957L14.5489 96.3073L14.4657 95.9278L14.7965 95.8162L14.7985 95.8182ZM14.8289 95.2358L15.1618 95.1242L15.2429 95.5037L14.9121 95.6153L14.8289 95.2358ZM15.1902 94.5437L15.523 94.4321L15.6062 94.8116L15.2734 94.9233L15.1902 94.5458V94.5437ZM15.2754 95.6579L15.3586 96.0354L15.0278 96.147L14.9446 95.7675L15.2774 95.6559L15.2754 95.6579ZM15.3058 95.0755L15.6366 94.9638L15.7199 95.3433L15.387 95.455L15.3038 95.0755H15.3058ZM15.7544 95.4956L15.8376 95.8751L15.5047 95.9867L15.4215 95.6072L15.7544 95.4956ZM15.7848 94.9151L16.1176 94.8035L16.2008 95.183L15.868 95.2946L15.7848 94.9151ZM15.87 96.0293L15.9532 96.4088L15.6204 96.5204L15.5372 96.1409L15.868 96.0293H15.87ZM15.9005 95.4469L16.2333 95.3352L16.3165 95.7147L15.9837 95.8264L15.9005 95.4469ZM16.349 95.869L16.4322 96.2485L16.0994 96.3601L16.0162 95.9826L16.349 95.871V95.869ZM16.3774 95.2865L16.7102 95.1749L16.7934 95.5544L16.4606 95.666L16.3774 95.2865ZM16.4647 96.4007L16.5479 96.7802L16.215 96.8898L16.1318 96.5123L16.4647 96.4007ZM16.4951 95.8203L16.8279 95.7086L16.9111 96.0861L16.5783 96.1977L16.4951 95.8203ZM16.9416 96.2404L17.0248 96.6178L16.692 96.7295L16.6087 96.35L16.9416 96.2383V96.2404ZM16.972 95.6599L17.3048 95.5483L17.386 95.9278L17.0552 96.0394L16.972 95.6599ZM17.0573 96.7721L17.1405 97.1516L16.8076 97.2632L16.7244 96.8837L17.0573 96.7721ZM17.0877 96.1917L17.4205 96.08L17.5037 96.4595L17.1729 96.5712L17.0897 96.1937L17.0877 96.1917ZM17.5362 96.6118L17.6194 96.9913L17.2886 97.1029L17.2054 96.7254L17.5382 96.6138L17.5362 96.6118ZM17.5666 96.0313L17.8974 95.9197L17.9807 96.2972L17.6478 96.4088L17.5646 96.0293L17.5666 96.0313ZM17.6519 97.1435L17.7351 97.5209L17.4043 97.6326L17.3211 97.2531L17.6539 97.1414L17.6519 97.1435ZM17.6823 96.563L18.0131 96.4514L18.0963 96.8289L17.7635 96.9405L17.6803 96.561L17.6823 96.563ZM18.1288 96.9831L18.212 97.3626L17.8792 97.4743L17.796 97.0948L18.1288 96.9831ZM18.1592 96.4027L18.4921 96.2911L18.5753 96.6706L18.2445 96.7822L18.1613 96.4027H18.1592ZM18.6078 96.8228L18.691 97.2023L18.3581 97.3139L18.2749 96.9344L18.6078 96.8228ZM18.7234 97.3545L18.8066 97.734L18.4758 97.8457L18.3926 97.4661L18.7255 97.3566L18.7234 97.3545ZM18.7539 96.7741L19.0867 96.6625L19.1699 97.042L18.8371 97.1536L18.7539 96.7741ZM19.2004 97.1942L19.2836 97.5737L18.9507 97.6853L18.8675 97.3078L19.1983 97.1962L19.2004 97.1942ZM19.4479 95.9704L19.5311 96.35L19.1983 96.4616L19.1151 96.0821L19.4479 95.9704ZM19.3323 95.4387L19.4134 95.8182L19.0806 95.9299L18.9974 95.5504L19.3302 95.4387H19.3323ZM18.969 96.1308L19.0522 96.5103L18.7194 96.6219L18.6362 96.2424L18.967 96.1308H18.969ZM18.9365 95.9786L18.6037 96.0902L18.5205 95.7107L18.8533 95.5991L18.9365 95.9786ZM18.7376 95.0673L18.8208 95.4469L18.49 95.5585L18.4068 95.181L18.7397 95.0694L18.7376 95.0673ZM18.3764 95.7594L18.4576 96.1389L18.1268 96.2505L18.0436 95.871L18.3764 95.7594ZM18.3419 95.6051L18.0091 95.7168L17.9259 95.3373L18.2587 95.2256L18.3419 95.6051ZM18.143 94.696L18.2262 95.0755L17.8954 95.1871L17.8122 94.8076L18.145 94.696H18.143ZM17.7818 95.388L17.865 95.7675L17.5342 95.8791L17.451 95.4996L17.7818 95.388ZM17.7493 95.2338L17.4165 95.3454L17.3333 94.9679L17.6661 94.8563L17.7493 95.2358V95.2338ZM17.5504 94.3225L17.6336 94.702L17.3028 94.8137L17.2196 94.4342L17.5504 94.3225ZM17.1871 95.0166L17.2703 95.3961L16.9375 95.5077L16.8543 95.1282L17.1871 95.0166ZM17.1547 94.8624L16.8239 94.974L16.7427 94.5945L17.0755 94.4829L17.1567 94.8603L17.1547 94.8624ZM16.9558 93.9511L17.039 94.3286L16.7062 94.4402L16.623 94.0607L16.9558 93.9491V93.9511ZM16.5925 94.6432L16.6757 95.0227L16.3429 95.1343L16.2597 94.7548L16.5905 94.6432H16.5925ZM16.56 94.491L16.2272 94.6026L16.144 94.2231L16.4768 94.1115L16.56 94.491ZM16.3612 93.5798L16.4444 93.9593L16.1136 94.0709L16.0304 93.6914L16.3612 93.5798ZM15.9999 94.2718L16.0831 94.6493L15.7523 94.7609L15.6691 94.3814L16.0019 94.2698L15.9999 94.2718ZM15.9674 94.1196L15.6346 94.2312L15.5534 93.8517L15.8842 93.7401L15.9674 94.1196ZM15.7686 93.2084L15.8518 93.5879L15.5189 93.6995L15.4378 93.32L15.7706 93.2084H15.7686ZM15.4073 93.9004L15.4885 94.2799L15.1577 94.3915L15.0745 94.012L15.4073 93.9004ZM15.2896 93.3687L15.3728 93.7482L15.04 93.8598L14.9568 93.4803L15.2896 93.3687ZM14.9284 94.0607L15.0095 94.4382L14.6787 94.5498L14.5955 94.1703L14.9284 94.0587V94.0607ZM14.8127 93.529L14.8959 93.9085L14.5631 94.0201L14.4799 93.6406L14.8127 93.529ZM14.697 92.9973L14.7802 93.3768L14.4474 93.4884L14.3642 93.111L14.697 92.9993V92.9973ZM14.3337 93.6894L14.417 94.0689L14.0841 94.1805L14.0009 93.801L14.3337 93.6894ZM14.2181 93.1576L14.3013 93.5371L13.9705 93.6488L13.8873 93.2693L14.2181 93.1576ZM14.1024 92.6259L14.1856 93.0054L13.8528 93.117L13.7716 92.7375L14.1044 92.628L14.1024 92.6259ZM13.7411 93.318L13.8244 93.6975L13.4915 93.8091L13.4083 93.4296L13.7411 93.318ZM13.6255 92.7842L13.7066 93.1637L13.3738 93.2753L13.2926 92.8958L13.6255 92.7842ZM13.5098 92.2525L13.593 92.632L13.2602 92.7436L13.177 92.3641L13.5098 92.2525ZM13.1465 92.9445L13.2297 93.324L12.8969 93.4357L12.8137 93.0562L13.1465 92.9445ZM13.0308 92.4128L13.114 92.7923L12.7832 92.904L12.7 92.5244L13.0308 92.4128ZM12.9152 91.8811L12.9984 92.2606L12.6655 92.3722L12.5823 91.9927L12.9152 91.8811ZM12.5539 92.5752L12.6371 92.9527L12.3043 93.0643L12.2211 92.6848L12.5539 92.5732V92.5752ZM12.4362 92.0414L12.5194 92.421L12.1886 92.5326L12.1054 92.1531L12.4382 92.0414H12.4362ZM12.3205 91.5097L12.4017 91.8892L12.0689 92.0009L11.9877 91.6213L12.3205 91.5097ZM11.9593 92.2018L12.0425 92.5813L11.7097 92.6929L11.6265 92.3134L11.9593 92.2018ZM11.8436 91.6701L11.9248 92.0496L11.594 92.1612L11.5108 91.7837L11.8436 91.6721V91.6701ZM11.7279 91.1383L11.8091 91.5178L11.4763 91.6295L11.3931 91.252L11.7259 91.1404L11.7279 91.1383ZM11.3647 91.8304L11.4479 92.2079L11.115 92.3195L11.0318 91.94L11.3647 91.8283V91.8304ZM11.249 91.2987L11.3322 91.6782L10.9994 91.7898L10.9162 91.4103L11.249 91.3007V91.2987ZM11.1333 90.7669L11.2165 91.1465L10.8837 91.2581L10.8005 90.8786L11.1333 90.7669ZM10.7721 91.459L10.8553 91.8385L10.5224 91.9501L10.4392 91.5706L10.7721 91.459ZM10.6564 90.9273L10.7396 91.3068L10.4088 91.4184L10.3256 91.0389L10.6564 90.9273ZM10.6219 90.773L10.2891 90.8847L10.2059 90.5052L10.5387 90.3935L10.6219 90.771V90.773ZM10.423 89.8638L10.5062 90.2413L10.1754 90.3529L10.0922 89.9734L10.425 89.8618L10.423 89.8638ZM10.0618 90.5559L10.145 90.9354L9.81214 91.047L9.73096 90.6675L10.0638 90.5559H10.0618ZM10.0273 90.4017L9.69443 90.5133L9.61325 90.1338L9.94608 90.0221L10.0273 90.4017ZM9.83041 89.4904L9.91361 89.8699L9.58078 89.9816L9.49758 89.602L9.83041 89.4904ZM9.46714 90.1825L9.55034 90.562L9.21954 90.6736L9.13634 90.2941L9.46916 90.1825H9.46714ZM9.43466 90.0303L9.10183 90.1419L9.01863 89.7624L9.35146 89.6508L9.43466 90.0282V90.0303ZM9.23578 89.119L9.31899 89.4985L8.98616 89.6102L8.90295 89.2327L9.23578 89.1211V89.119ZM8.87454 89.8111L8.95572 90.1906L8.62289 90.3022L8.54171 89.9227L8.87454 89.8111ZM8.84004 89.6589L8.50721 89.7705L8.424 89.391L8.75683 89.2794L8.83801 89.6589H8.84004ZM8.64318 88.7477L8.72436 89.1272L8.39153 89.2388L8.31035 88.8593L8.64318 88.7477ZM8.27991 89.4397L8.36312 89.8192L8.03029 89.9308L7.94708 89.5513L8.27788 89.4397H8.27991ZM8.24744 89.2875L7.91664 89.3991L7.83343 89.0216L8.16626 88.91L8.24947 89.2895L8.24744 89.2875ZM8.04855 88.3803L8.12973 88.7537L7.7969 88.8654L7.71572 88.4919L8.04652 88.3803H8.04855ZM7.68731 89.0683L7.77052 89.4478L7.43769 89.5594L7.35448 89.1799L7.68731 89.0683ZM7.65281 88.9161L7.31998 89.0277L7.2388 88.6543L7.57163 88.5427L7.65281 88.9161ZM7.46204 88.0373L7.53916 88.3884L7.20633 88.5001L7.12922 88.149L7.46204 88.0373ZM6.54271 87.804L6.87553 87.6923L6.95265 88.0434L6.61982 88.1551L6.54271 87.804ZM6.72941 88.6604L6.6523 88.3093L6.98512 88.1977L7.06224 88.5488L6.72941 88.6604ZM6.84306 89.186L6.76189 88.8126L7.09471 88.701L7.17589 89.0744L6.84509 89.186H6.84306ZM6.96077 89.7198L6.87756 89.3402L7.20836 89.2286L7.29157 89.6081L6.95874 89.7198H6.96077ZM7.07645 90.2515L6.99324 89.872L7.32607 89.7603L7.40928 90.1399L7.07848 90.2515H7.07645ZM7.19213 90.7832L7.10892 90.4037L7.44175 90.2921L7.52496 90.6695L7.19213 90.7812V90.7832ZM7.30781 91.3149L7.2246 90.9354L7.55743 90.8238L7.64064 91.2033L7.30781 91.3149ZM7.34028 91.4691L7.67311 91.3575L7.75631 91.737L7.42348 91.8486L7.34028 91.4691ZM7.53916 92.3783L7.45596 92.0009L7.78878 91.8892L7.87199 92.2687L7.53916 92.3804V92.3783ZM7.9004 91.6863L7.8172 91.3068L8.15003 91.1952L8.23323 91.5726L7.9004 91.6843V91.6863ZM8.01811 92.218L7.9349 91.8385L8.26773 91.7289L8.35094 92.1084L8.02014 92.22L8.01811 92.218ZM8.05058 92.3722L8.38341 92.2606L8.46662 92.6401L8.13379 92.7517L8.05058 92.3722ZM8.24947 93.2835L8.16829 92.904L8.50112 92.7923L8.58433 93.1718L8.2515 93.2835H8.24947ZM8.61071 92.5894L8.5275 92.2119L8.8583 92.1003L8.94151 92.4798L8.60868 92.5914L8.61071 92.5894ZM8.64521 92.7436L8.97804 92.632L9.06125 93.0115L8.72842 93.1231L8.64521 92.7436ZM8.8441 93.6549L8.76089 93.2753L9.09169 93.1637L9.17489 93.5412L8.84207 93.6528L8.8441 93.6549ZM9.20534 92.9628L9.12213 92.5833L9.45496 92.4717L9.53614 92.8512L9.20534 92.9628ZM9.32102 93.4945L9.23781 93.117L9.57064 93.0054L9.65384 93.3849L9.32102 93.4966V93.4945ZM9.43669 94.0262L9.35349 93.6488L9.68632 93.5371L9.76952 93.9166L9.43669 94.0262ZM9.79793 93.3342L9.71473 92.9547L10.0476 92.8431L10.1308 93.2206L9.79793 93.3322V93.3342ZM9.91564 93.8659L9.83244 93.4864L10.1653 93.3748L10.2485 93.7523L9.91564 93.8639V93.8659ZM9.94811 94.0181L10.2809 93.9065L10.3641 94.286L10.0313 94.3976L9.94811 94.0181ZM10.147 94.9293L10.0638 94.5498L10.3966 94.4382L10.4798 94.8177L10.147 94.9293ZM10.5082 94.2373L10.425 93.8598L10.7579 93.7482L10.8411 94.1277L10.5082 94.2393V94.2373ZM10.5427 94.3895L10.8756 94.2779L10.9588 94.6574L10.628 94.769L10.5448 94.3895H10.5427ZM10.7396 95.3007L10.6584 94.9212L10.9892 94.8096L11.0724 95.1871L10.7396 95.2987V95.3007ZM11.1029 94.6087L11.0197 94.2292L11.3525 94.1176L11.4357 94.4971L11.1029 94.6087ZM11.1353 94.7629L11.4682 94.6513L11.5514 95.0308L11.2185 95.1424L11.1353 94.7629ZM11.3342 95.6721L11.251 95.2926L11.5838 95.181L11.6671 95.5605L11.3342 95.6721ZM11.6955 94.9801L11.6123 94.6006L11.9431 94.491L12.0263 94.8705L11.6955 94.9821V94.9801ZM11.73 95.1343L12.0628 95.0227L12.146 95.4022L11.8132 95.5138L11.73 95.1343ZM11.9289 96.0455L11.8456 95.666L12.1785 95.5544L12.2617 95.9339L11.9289 96.0455ZM12.2901 95.3535L12.2069 94.974L12.5397 94.8624L12.6229 95.2419L12.2901 95.3535ZM12.3246 95.5057L12.6574 95.3941L12.7386 95.7736L12.4058 95.8852L12.3246 95.5057ZM12.5214 96.4169L12.4403 96.0374L12.7731 95.9258L12.8543 96.3053L12.5214 96.4169ZM12.8847 95.7249L12.8015 95.3454L13.1343 95.2338L13.2175 95.6133L12.8847 95.7249ZM12.9172 95.8771L13.25 95.7655L13.3332 96.145L13.0004 96.2566L12.9172 95.8771ZM13.1161 96.7883L13.0329 96.4088L13.3657 96.2972L13.4469 96.6767L13.1161 96.7883ZM13.4773 96.0963L13.3941 95.7168L13.7249 95.6051L13.8081 95.9847L13.4753 96.0963H13.4773ZM13.5118 96.2485L13.8446 96.1369L13.9279 96.5164L13.595 96.628L13.5118 96.2485ZM13.7087 97.1597L13.6275 96.7802L13.9603 96.6686L14.0435 97.0481L13.7107 97.1597H13.7087ZM14.0719 96.4677L13.9887 96.0902L14.3216 95.9786L14.4048 96.3581L14.0719 96.4697V96.4677ZM14.1044 96.6219L14.4372 96.5103L14.5184 96.8898L14.1856 97.0014L14.1024 96.6239L14.1044 96.6219ZM14.3033 97.5311L14.2201 97.1516L14.5529 97.04L14.6361 97.4195L14.3053 97.5311H14.3033ZM14.6645 96.839L14.5834 96.4595L14.9142 96.3479L14.9974 96.7254L14.6645 96.837V96.839ZM14.7822 97.3708L14.699 96.9913L15.0319 96.8796L15.1151 97.2591L14.7822 97.3708ZM15.1435 96.6787L15.0603 96.3012L15.3931 96.1896L15.4763 96.5691L15.1435 96.6808V96.6787ZM15.2592 97.2104L15.176 96.833L15.5068 96.7213L15.59 97.1008L15.2571 97.2125L15.2592 97.2104ZM15.3748 97.7422L15.2916 97.3626L15.6245 97.251L15.7077 97.6305L15.3748 97.7422ZM15.7381 97.0501L15.6569 96.6706L15.9898 96.559L16.0709 96.9385L15.7381 97.0501ZM15.8538 97.5839L15.7706 97.2043L16.1034 97.0927L16.1846 97.4722L15.8518 97.5839H15.8538ZM15.9695 98.1156L15.8883 97.7381L16.2211 97.6265L16.3023 98.006L15.9695 98.1176V98.1156ZM16.3307 97.4215L16.2475 97.044L16.5803 96.9324L16.6615 97.3119L16.3307 97.4235V97.4215ZM16.3652 97.5757L16.698 97.4641L16.7813 97.8436L16.4505 97.9552L16.3672 97.5757H16.3652ZM16.5621 98.487L16.4789 98.1075L16.8117 97.9958L16.8949 98.3753L16.5621 98.487ZM16.9253 97.7949L16.8421 97.4174L17.175 97.3058L17.2582 97.6833L16.9253 97.7949ZM16.9578 97.9471L17.2906 97.8355L17.3739 98.215L17.041 98.3266L16.9578 97.9471ZM17.1567 98.8583L17.0755 98.4788L17.4084 98.3672L17.4916 98.7467L17.1587 98.8583H17.1567ZM17.5179 98.1663L17.4347 97.7868L17.7676 97.6752L17.8508 98.0527L17.52 98.1643L17.5179 98.1663ZM17.6336 98.698L17.5504 98.3185L17.8832 98.2069L17.9664 98.5864L17.6336 98.698ZM17.9969 98.006L17.9137 97.6265L18.2445 97.5149L18.3277 97.8944L17.9949 98.006H17.9969ZM18.0294 98.1582L18.3622 98.0466L18.4434 98.4261L18.1105 98.5377L18.0294 98.1582ZM18.2282 99.0694L18.145 98.6899L18.4779 98.5783L18.5611 98.9578L18.2282 99.0694ZM18.5895 98.3774L18.5063 97.9979L18.8391 97.8862L18.9223 98.2637L18.5895 98.3753V98.3774ZM18.7072 98.9091L18.624 98.5296L18.9568 98.418L19.04 98.7975L18.7072 98.9091ZM19.0684 98.217L18.9873 97.8375L19.3201 97.7259L19.4013 98.1054L19.0684 98.217ZM19.1841 98.7488L19.1029 98.3693L19.4358 98.2576L19.5169 98.6371L19.1841 98.7488ZM19.5454 98.0567L19.4621 97.6772L19.795 97.5656L19.8782 97.9451L19.5454 98.0567ZM19.5799 98.2089L19.9127 98.0973L19.9939 98.4768L19.6631 98.5884L19.5799 98.2089Z" fill="#364042"/>
<path d="M43.4746 80.6869C43.4746 80.6869 42.2671 81.182 42.2447 81.8883C42.2224 82.5966 42.1778 84.5611 42.1778 84.5611C42.1778 84.5611 42.1554 85.2166 42.6506 85.0968C43.1458 84.9771 43.6714 84.7417 43.6714 84.7417C43.6714 84.7417 45.1225 85.5616 45.7963 85.6955C46.47 85.8295 47.5152 85.9208 47.7445 85.5169C47.9759 85.1131 47.8054 82.8381 47.6897 82.0019C47.5741 81.1658 47.4706 80.4068 46.6567 79.9806C45.845 79.5544 45.362 79.386 45.362 79.386C45.362 79.386 44.7247 79.1729 44.2316 79.5889C43.7364 80.005 43.8257 80.8472 43.8257 80.8472L43.4746 80.6889V80.6869Z" fill="#5A6567"/>
<g style="mix-blend-mode:multiply" opacity="0.3">
<path d="M42.2628 81.7544C42.2507 81.799 42.2446 81.8437 42.2425 81.8904C42.2202 82.5986 42.1756 84.5631 42.1756 84.5631C42.1756 84.5631 42.1532 85.2187 42.6484 85.0989C43.1436 84.9792 43.6692 84.7438 43.6692 84.7438L43.8235 82.5723C43.8235 82.5723 42.896 82.0872 42.2628 81.7564V81.7544Z" fill="#5A6567"/>
</g>
<g style="mix-blend-mode:multiply" opacity="0.3">
<path d="M47.8317 83.5931C47.7992 82.9721 47.7404 82.3572 47.6897 82.002C47.6308 81.584 47.576 81.1882 47.436 80.8412C47.1052 80.9873 46.5491 81.1517 45.9768 81.1801C46.0357 81.241 46.0884 81.3059 46.131 81.3729C46.6831 82.2293 46.6506 82.7955 46.6973 84.0254C47.574 83.928 47.8317 83.5931 47.8317 83.5931Z" fill="#5A6567"/>
</g>
<g style="mix-blend-mode:multiply" opacity="0.3">
<path d="M47.8316 83.5928C47.8316 83.5928 47.649 84.2726 47.2248 84.3396C47.0645 84.366 46.8757 84.3295 46.7053 84.2767C46.7235 84.9281 46.6687 85.4416 46.5997 85.8028C47.1091 85.8333 47.5962 85.7785 47.7443 85.5167C47.8763 85.2833 47.8763 84.433 47.8316 83.5928Z" fill="#5A6567"/>
</g>
<g style="mix-blend-mode:multiply" opacity="0.5">
<path d="M46.1939 84.0515C46.3806 84.0515 46.547 84.0414 46.6972 84.0251C46.6505 82.7953 46.683 82.2291 46.131 81.3727C45.7129 80.7253 44.5115 80.3174 43.8925 80.1428C43.789 80.5 43.8235 80.845 43.8235 80.845V82.57C43.8235 82.57 42.896 82.085 42.2628 81.7542C42.2507 81.7988 42.2446 81.8435 42.2425 81.8902C42.2202 82.5984 42.1756 84.563 42.1756 84.563C42.1756 84.563 42.1532 85.2185 42.6484 85.0987C43.1436 84.979 43.6692 84.7436 43.6692 84.7436C43.6692 84.7436 45.1203 85.5635 45.7941 85.6974C46.0335 85.7461 46.3177 85.7867 46.5977 85.8029C46.6667 85.4417 46.7215 84.9283 46.7033 84.2768C46.4252 84.1895 46.1918 84.0536 46.1918 84.0536L46.1939 84.0515Z" fill="#5A6567"/>
</g>
<path d="M15.3991 67.6637L17.185 64.788C17.185 63.9823 17.1465 62.6551 16.8989 62.2695C16.5356 61.7033 15.5574 60.9848 15.5574 60.9848C15.5574 60.9848 14.9831 60.8326 14.7071 61.2669C14.429 61.7033 14.218 63.9458 14.1753 64.926C14.1408 65.7459 14.5812 66.852 15.3991 67.6637Z" fill="#5A6567"/>
<g style="mix-blend-mode:multiply" opacity="0.5">
<path d="M15.8233 63.6275C15.8131 62.8725 15.4701 62.6209 15.4701 62.6209L14.5224 61.8477C14.3397 62.7041 14.2078 64.1795 14.1753 64.9263C14.1408 65.7462 14.5812 66.8523 15.3991 67.664L15.8253 66.9781C15.8253 65.6955 15.8293 64.0679 15.8212 63.6275H15.8233Z" fill="#5A6567"/>
</g>
<g style="mix-blend-mode:multiply" opacity="0.3">
<path d="M16.621 65.6992L15.8274 65.3542L16.968 65.1391L17.1851 64.788C17.1851 64.0959 17.1567 63.0223 16.9923 62.4866C16.692 62.7321 16.2354 63.0487 15.7645 63.1543C15.797 63.2841 15.8214 63.4404 15.8234 63.6271C15.8295 64.0675 15.8295 65.6951 15.8274 66.9777L16.621 65.6992Z" fill="#5A6567"/>
</g>
<g style="mix-blend-mode:screen" opacity="0.3">
<path d="M93.4615 10.1434C93.4615 10.1434 93.4473 10.1597 93.4372 10.1678C93.427 10.1759 93.4149 10.184 93.4027 10.1921L39.4499 41.9387C39.3261 42.0118 39.113 42.028 38.9791 41.9773L38.7477 41.886C38.7335 41.8799 38.7193 41.8738 38.7092 41.8677C38.699 41.8616 38.6889 41.8535 38.6807 41.8474C38.6138 41.9144 38.6361 41.9935 38.7477 42.0382L38.9791 42.1295C39.113 42.1823 39.3261 42.166 39.4499 42.093L93.4047 10.3443C93.5021 10.2875 93.5204 10.2084 93.4636 10.1434H93.4615Z" fill="white"/>
<path d="M96.1079 11.7365C96.1079 11.7365 96.0937 11.7527 96.0835 11.7608C96.0734 11.7689 96.0632 11.777 96.049 11.7852L42.0963 43.5318C41.9704 43.6048 41.7573 43.6211 41.6234 43.5683L41.3941 43.479C41.3799 43.4729 41.3677 43.4668 41.3555 43.4587C41.3454 43.4526 41.3352 43.4465 41.3271 43.4384C41.2601 43.5054 41.2825 43.5845 41.3941 43.6292L41.6234 43.7205C41.7573 43.7733 41.9704 43.757 42.0963 43.6819L96.049 11.9374C96.1465 11.8805 96.1647 11.8014 96.1079 11.7385V11.7365Z" fill="white"/>
<path d="M98.9023 13.3926C98.9023 13.3926 98.8881 13.4088 98.878 13.4169C98.8678 13.425 98.8557 13.4332 98.8435 13.4413L44.8907 45.1859C44.7649 45.2609 44.5538 45.2772 44.4199 45.2244L44.1885 45.1331C44.1743 45.127 44.1621 45.1209 44.1499 45.1128C44.1398 45.1067 44.1297 45.0986 44.1215 45.0925C44.0546 45.1595 44.0769 45.2386 44.1885 45.2833L44.4199 45.3746C44.5538 45.4274 44.7669 45.4111 44.8907 45.3381L98.8435 13.5915C98.9409 13.5346 98.9592 13.4555 98.9023 13.3926Z" fill="white"/>
<path d="M101.583 14.951C101.583 14.951 101.569 14.9673 101.559 14.9754C101.549 14.9835 101.539 14.9916 101.525 14.9998L47.5697 46.7443C47.4439 46.8174 47.2328 46.8357 47.0969 46.7809L46.8655 46.6916C46.8513 46.6855 46.8391 46.6794 46.8269 46.6713C46.8168 46.6652 46.8067 46.6571 46.7985 46.651C46.7316 46.7179 46.7539 46.7971 46.8655 46.8417L47.0969 46.9331C47.2308 46.9858 47.4439 46.9696 47.5697 46.8945L101.525 15.1499C101.622 15.0931 101.64 15.014 101.583 14.951Z" fill="white"/>
<path d="M104.102 16.4609C104.102 16.4609 104.088 16.4771 104.078 16.4852C104.067 16.4934 104.057 16.5015 104.043 16.5096L50.0903 48.2562C49.9665 48.3293 49.7534 48.3455 49.6195 48.2927L49.3881 48.2014C49.3739 48.1953 49.3617 48.1892 49.3496 48.1831C49.3374 48.1771 49.3293 48.1689 49.3212 48.1608C49.2522 48.2298 49.2765 48.309 49.3881 48.3516L49.6195 48.4429C49.7534 48.4957 49.9665 48.4794 50.0903 48.4064L104.045 16.6598C104.143 16.603 104.161 16.5218 104.104 16.4589L104.102 16.4609Z" fill="white"/>
<path d="M106.732 18.0134C106.732 18.0134 106.716 18.0297 106.708 18.0378C106.697 18.0459 106.687 18.054 106.673 18.0621L52.7183 49.8087C52.5925 49.8818 52.3814 49.898 52.2455 49.8453L52.0161 49.7539C52.0019 49.7479 51.9898 49.7418 51.9776 49.7336C51.9674 49.7276 51.9573 49.7194 51.9492 49.7134C51.8822 49.7824 51.9045 49.8595 52.0161 49.9041L52.2455 49.9954C52.3794 50.0482 52.5925 50.032 52.7183 49.9589L106.673 18.2143C106.769 18.1575 106.789 18.0763 106.732 18.0134Z" fill="white"/>
<path d="M109.36 19.566C109.36 19.566 109.346 19.5823 109.336 19.5904C109.326 19.5985 109.316 19.6066 109.301 19.6147L55.3485 51.3613C55.2227 51.4344 55.0096 51.4506 54.8757 51.3979L54.6443 51.3086C54.6301 51.3025 54.6179 51.2964 54.6058 51.2883C54.5936 51.2822 54.5855 51.2741 54.5773 51.268C54.5104 51.335 54.5327 51.4141 54.6443 51.4588L54.8757 51.5501C55.0096 51.6029 55.2227 51.5866 55.3485 51.5115L109.303 19.767C109.401 19.7101 109.419 19.629 109.362 19.566H109.36Z" fill="white"/>
</g>
<g style="mix-blend-mode:multiply" opacity="0.2">
<path d="M38.7296 41.8045L92.7493 10.0214C92.8751 9.94834 93.0821 9.94023 93.212 10.0031L93.3947 10.0924C93.4251 10.1066 93.4454 10.1229 93.4617 10.1411C93.5205 10.0721 93.4982 9.99096 93.3947 9.94023L93.212 9.85093C93.0821 9.78802 92.8731 9.79614 92.7493 9.8692L38.7296 41.6544C38.6301 41.7132 38.6159 41.7883 38.6788 41.8451C38.693 41.8309 38.7072 41.8187 38.7296 41.8066V41.8045Z" fill="black"/>
</g>
<g style="mix-blend-mode:multiply" opacity="0.2">
<path d="M41.376 43.3999L95.3958 11.6148C95.5216 11.5417 95.7286 11.5336 95.8585 11.5965L96.0412 11.6858C96.0716 11.7 96.0919 11.7183 96.1102 11.7365C96.169 11.6675 96.1467 11.5863 96.0412 11.5356L95.8585 11.4463C95.7286 11.3814 95.5196 11.3895 95.3958 11.4646L41.376 43.2477C41.2766 43.3045 41.2624 43.3816 41.3253 43.4385C41.3395 43.4243 41.3537 43.4121 41.376 43.3999Z" fill="black"/>
</g>
<g style="mix-blend-mode:multiply" opacity="0.2">
<path d="M44.1706 45.0539L98.1904 13.2708C98.3162 13.1977 98.5232 13.1896 98.6531 13.2546L98.8358 13.3439C98.8662 13.3581 98.8865 13.3743 98.9027 13.3926C98.9616 13.3236 98.9393 13.2424 98.8358 13.1916L98.6531 13.1023C98.5232 13.0394 98.3142 13.0455 98.1904 13.1206L44.1706 44.9037C44.0732 44.9606 44.057 45.0377 44.1199 45.0945C44.1341 45.0803 44.1503 45.0681 44.1706 45.056V45.0539Z" fill="black"/>
</g>
<g style="mix-blend-mode:multiply" opacity="0.2">
<path d="M46.8516 46.6125L100.869 14.8294C100.993 14.7563 101.202 14.7482 101.332 14.8111L101.515 14.9004C101.545 14.9146 101.567 14.9329 101.582 14.9511C101.64 14.8821 101.618 14.8009 101.515 14.7502L101.332 14.6609C101.202 14.596 100.993 14.6041 100.869 14.6792L46.8516 46.4623C46.7521 46.5191 46.7379 46.5963 46.8029 46.6531C46.8171 46.6389 46.8313 46.6267 46.8516 46.6145V46.6125Z" fill="black"/>
</g>
<g style="mix-blend-mode:multiply" opacity="0.2">
<path d="M49.3699 48.1222L103.39 16.3391C103.513 16.2661 103.723 16.2579 103.852 16.3209L104.035 16.4102C104.063 16.4244 104.086 16.4426 104.102 16.4609C104.161 16.3919 104.139 16.3107 104.035 16.26L103.852 16.1707C103.723 16.1057 103.513 16.1139 103.39 16.1889L49.3699 47.9721C49.2705 48.0309 49.2563 48.106 49.3192 48.1608C49.3334 48.1466 49.3476 48.1344 49.3699 48.1222Z" fill="black"/>
</g>
<g style="mix-blend-mode:multiply" opacity="0.2">
<path d="M51.9981 49.677L106.018 17.8918C106.144 17.8188 106.351 17.8106 106.481 17.8735L106.663 17.9628C106.694 17.977 106.714 17.9933 106.732 18.0136C106.789 17.9446 106.769 17.8634 106.663 17.8127L106.481 17.7234C106.351 17.6605 106.142 17.6686 106.018 17.7416L52.0001 49.5248C51.9027 49.5816 51.8865 49.6587 51.9494 49.7155C51.9636 49.7013 51.9798 49.6891 52.0001 49.677H51.9981Z" fill="black"/>
</g>
<g style="mix-blend-mode:multiply" opacity="0.2">
<path d="M54.6282 51.2275L108.648 19.4444C108.774 19.3713 108.981 19.3632 109.111 19.4261L109.293 19.5154C109.322 19.5296 109.344 19.5479 109.36 19.5661C109.419 19.4971 109.395 19.416 109.293 19.3652L109.111 19.2759C108.981 19.213 108.772 19.2191 108.648 19.2942L54.6282 51.0773C54.5288 51.1362 54.5146 51.2113 54.5775 51.2681C54.5917 51.2539 54.6059 51.2417 54.6282 51.2295V51.2275Z" fill="black"/>
</g>
<path style="mix-blend-mode:screen" opacity="0.5" d="M55.9455 79.0815C55.9455 79.7147 55.5112 80.4838 54.9754 80.8004C54.4396 81.117 54.0033 80.8593 54.0033 80.2261C54.0033 79.5929 54.4376 78.8237 54.9754 78.5071C55.5112 78.1905 55.9455 78.4462 55.9455 79.0794V79.0815Z" fill="url(#paint2_linear_43_31362)"/>
<path style="mix-blend-mode:multiply" opacity="0.3" d="M55.9455 79.0815C55.9455 79.7147 55.5112 80.4838 54.9754 80.8004C54.4396 81.117 54.0033 80.8593 54.0033 80.2261C54.0033 79.5929 54.4376 78.8237 54.9754 78.5071C55.5112 78.1905 55.9455 78.4462 55.9455 79.0794V79.0815Z" fill="url(#paint3_linear_43_31362)"/>
<path d="M56.6314 78.4685C56.6314 78.4685 54.8678 79.5218 53.7821 80.1225C53.7821 80.1225 53.4046 80.293 53.4391 80.5305C53.4716 80.7699 53.6827 80.7233 53.9262 80.7009C54.1697 80.6786 55.7669 79.8161 56.2763 79.4995C56.7857 79.1829 57.086 79.0348 57.0515 78.6613C57.0191 78.2879 56.808 78.3448 56.6314 78.4685Z" fill="#3C4548"/>
<path d="M55.6552 79.3982C56.4406 78.9578 56.808 78.5945 56.9602 78.4119C56.8749 78.3347 56.7451 78.3855 56.6294 78.4687C56.6294 78.4687 54.8658 79.522 53.78 80.1227C53.78 80.1227 53.5588 80.2221 53.4716 80.3764C54.1636 80.2769 54.7075 79.9299 55.6552 79.3982Z" fill="#565F62"/>
<path d="M20.8564 97.5332C20.9153 97.4418 20.966 97.3566 21.0147 97.2774C19.1923 96.5489 15.2349 94.3855 12.9639 93.0643C9.70871 91.1729 6.34795 88.358 6.34795 88.358L6.3175 88.6665C6.3175 88.6665 9.68029 91.4793 12.9335 93.3728C15.1537 94.6635 18.9812 96.7579 20.8564 97.5332Z" fill="#404B4D"/>
<path d="M19.6386 98.9742C19.7198 98.9092 19.7969 98.8382 19.872 98.7651C17.8527 97.7951 14.9506 96.1959 13.1302 95.1385C9.87699 93.2451 6.51421 90.4323 6.51421 90.4323L6.48376 90.7407C6.48376 90.7407 9.84655 93.5535 13.0998 95.447C14.8593 96.4699 17.6274 97.998 19.6366 98.9742H19.6386Z" fill="#404B4D"/>
<path d="M13.185 92.3644C9.92975 90.4729 6.56899 87.6581 6.56899 87.6581L6.34778 88.3582C6.34778 88.3582 9.71057 91.171 12.9638 93.0645C15.2347 94.3857 19.1921 96.5491 21.0146 97.2776C21.0815 97.1681 21.1384 97.0686 21.183 96.9895C21.2642 96.8433 21.3068 96.7196 21.3231 96.612C19.5432 95.9179 15.4925 93.7058 13.185 92.3644Z" fill="#5A6567"/>
<path d="M19.872 98.7651C20.0405 98.6027 20.1988 98.4262 20.3449 98.2476C18.3256 97.31 15.1475 95.5626 13.2053 94.4322C9.95006 92.5408 6.5893 89.726 6.5893 89.726L6.51624 90.4322C6.51624 90.4322 9.88105 93.247 13.1322 95.1385C14.9526 96.1958 17.8547 97.795 19.874 98.7651H19.872Z" fill="#5A6567"/>
<path d="M32.8117 99.8311L28.9841 101.576C28.9841 101.576 27.5818 102.254 24.1317 101.459C20.9293 100.72 19.1616 100.042 18.7172 99.8615C18.5893 99.8879 18.4615 99.9021 18.3316 99.9021C18.2382 99.9021 18.1449 99.896 18.0535 99.8798C16.4686 99.6403 12.8683 97.7286 11.1798 96.5677C11.054 96.4825 10.9221 96.3912 10.7841 96.2978C9.13617 95.1796 6.71707 93.5317 6.12042 91.4758C5.47302 90.5971 4.15388 88.6955 3.77844 87.3175C3.77844 87.3175 3.01943 88.0928 3.01943 88.6184C3.01943 88.7746 2.96869 89.1623 2.96057 89.7183C4.81751 92.7097 8.01592 95.5327 11.1027 97.6048C14.8369 100.113 21.6761 102.599 24.5843 103.113C27.4925 103.626 29.8324 102.599 29.8324 102.599L35.3424 99.6809L32.8117 99.829V99.8311Z" fill="url(#paint4_linear_43_31362)"/>
<path d="M23.5778 103.102C24.3511 103.134 26.1999 103.368 26.1451 104.563C26.0842 105.874 23.8985 105.832 20.9741 105.265C18.0496 104.699 15.2916 103.102 15.2916 103.102C15.2916 103.102 19.4195 104.906 22.4982 104.713C22.4982 104.713 22.348 103.051 23.5778 103.102Z" fill="#4D595B"/>
<path d="M23.9514 103.128C23.8763 103.431 23.8174 103.932 24.1523 104.175C24.5643 104.478 25.445 104.733 26.1026 104.813C26.1249 104.735 26.1411 104.652 26.1452 104.563C26.1939 103.532 24.824 103.217 23.9514 103.128Z" fill="#273234"/>
<path d="M18.8998 101.876C18.8004 101.799 18.7131 101.759 18.7131 101.759C17.4813 101.292 13.8283 99.6418 11.4863 98.1624C10.1834 97.3384 8.97789 96.4374 8.02405 95.6783C8.06058 95.9341 8.18437 96.3298 8.57809 96.6545C9.21736 97.1842 11.119 98.6089 12.9657 99.6378C14.9871 100.764 17.6396 102.424 18.8978 101.876H18.8998Z" fill="#273234"/>
<path opacity="0.5" d="M18.8997 101.877C17.6414 102.425 14.9889 100.765 12.9676 99.6382C11.1208 98.6093 9.21923 97.1846 8.57996 96.6549C8.18827 96.3302 8.06448 95.9345 8.02592 95.6788C7.26488 95.072 6.66822 94.5585 6.31713 94.248C5.52767 93.5519 5.54391 94.1344 5.78947 94.9664C6.03706 95.8005 7.34808 97.6697 10.3659 99.7214C13.3837 101.771 15.6485 102.792 17.0894 103.263C18.5283 103.732 19.0397 103.013 19.1595 102.514C19.2325 102.212 19.0539 101.998 18.8997 101.879V101.877Z" fill="url(#paint5_linear_43_31362)"/>
<path d="M5.66196 95.8651C5.66196 95.8651 3.53307 93.5394 3.26924 91.6642C3.00541 89.789 3.45189 90.9052 3.9004 91.4349C4.34891 91.9646 4.5965 92.3826 4.75277 92.9975C4.90903 93.6145 4.71826 94.3025 5.66196 95.8651Z" fill="#4D595B"/>
<path d="M15.5981 102.625L8.84 98.4605C8.78521 98.426 8.73244 98.4098 8.67968 98.4098C8.56603 98.4098 8.45035 98.493 8.44426 98.6817L8.40976 100.027C8.40367 100.22 8.52747 100.449 8.68982 100.549L15.4154 104.65C15.4682 104.683 15.523 104.699 15.5757 104.699C15.7117 104.699 15.8091 104.589 15.8152 104.429L15.872 103.149C15.8801 102.954 15.7604 102.724 15.5981 102.625Z" fill="#404B4D"/>
<path d="M15.4966 102.798L8.73852 98.6311C8.7101 98.6128 8.68981 98.6088 8.67966 98.6088C8.64719 98.6088 8.6411 98.6615 8.6411 98.6839L8.6066 100.029C8.60457 100.149 8.68981 100.309 8.79128 100.372L15.5148 104.474C15.5372 104.488 15.5575 104.494 15.5757 104.494C15.6102 104.494 15.6183 104.445 15.6183 104.417L15.6752 103.136C15.6812 103.019 15.596 102.856 15.4966 102.793V102.798Z" fill="white"/>
<path d="M27.0806 83.4041C27.0806 83.4041 26.5083 83.0733 25.8914 83.5949C25.2744 84.1164 24.6189 84.7861 24.6189 84.7861C24.6189 84.7861 24.0385 85.3483 24.8888 85.7258C25.7392 86.1053 28.8726 87.3615 30.2608 87.6578C31.6509 87.9541 33.3638 86.6898 33.5343 86.5802C33.7047 86.4706 34.2446 85.9328 33.0857 85.6324C31.9269 85.3321 28.1765 83.9581 27.0806 83.4061V83.4041Z" fill="#4F5B5D"/>
<path d="M33.0573 86.0506C31.8985 85.7502 28.1603 84.3865 27.0238 83.8141C27.0238 83.8141 26.8635 83.7249 26.6342 83.7249C26.4048 83.7249 26.1714 83.8141 25.9624 83.9907C25.3556 84.5021 24.7021 85.1698 24.694 85.1779C24.694 85.1779 24.623 85.249 24.5763 85.3484C24.6331 85.4479 24.7529 85.5392 24.9314 85.6204C25.7432 85.9816 28.897 87.25 30.2831 87.5443C30.415 87.5727 30.555 87.5869 30.7032 87.5869C31.2329 87.5869 32.1319 87.4022 33.4186 86.5174C33.4429 86.5011 33.4612 86.4869 33.4734 86.4788C33.516 86.4524 33.583 86.3915 33.6317 86.3205C33.5566 86.2373 33.3963 86.1358 33.0573 86.0486V86.0506Z" fill="#364042"/>
<path d="M24.5763 85.3485C24.6229 85.249 24.694 85.18 24.694 85.178C24.7021 85.1699 25.3556 84.5022 25.9624 83.9908C26.1714 83.8142 26.3987 83.7249 26.6341 83.7249C26.8695 83.7249 27.0217 83.8122 27.0238 83.8142C28.1603 84.3865 31.8985 85.7523 33.0573 86.0507C33.3962 86.1379 33.5566 86.2394 33.6316 86.3226C33.6743 86.2617 33.7027 86.1948 33.6925 86.1298C33.6783 86.0426 33.5789 85.8782 33.0573 85.7422C31.8985 85.4418 28.1603 84.0781 27.0238 83.5037C27.0238 83.5037 26.8635 83.4144 26.6341 83.4144C26.4048 83.4144 26.1714 83.5058 25.9624 83.6823C25.3556 84.1937 24.7021 84.8594 24.694 84.8695C24.694 84.8695 24.5052 85.0562 24.5397 85.2531C24.5458 85.2856 24.558 85.318 24.5763 85.3485Z" fill="#434E4F"/>
<path d="M28.759 87.098C28.8301 87.1224 28.9011 87.1447 28.9701 87.169C29.7088 86.4182 30.271 85.8925 30.9975 85.2289C30.9265 85.2045 30.8554 85.1782 30.7824 85.1538C30.0701 85.8073 29.5079 86.3329 28.759 87.098Z" fill="#4F5B5D"/>
<path d="M29.1913 87.2421C29.2643 87.2644 29.3354 87.2867 29.4064 87.309C30.135 86.5663 30.6363 86.1015 31.4257 85.379C31.3547 85.3547 31.2836 85.3303 31.2106 85.304C30.4414 86.0102 29.9402 86.479 29.1933 87.2421H29.1913Z" fill="#4F5B5D"/>
<path d="M28.3309 86.9498C28.4019 86.9742 28.4709 86.9985 28.5399 87.0229C29.2807 86.2699 29.9037 85.6875 30.5694 85.0766C30.4983 85.0502 30.4273 85.0259 30.3563 84.9995C29.6987 85.6043 29.0757 86.1888 28.3289 86.9498H28.3309Z" fill="#4F5B5D"/>
<path d="M29.6337 87.3757C29.7088 87.398 29.7818 87.4183 29.8528 87.4386C30.5632 86.7141 31.0035 86.3062 31.8579 85.5248C31.7869 85.5005 31.7138 85.4761 31.6408 85.4518C30.829 86.1946 30.3724 86.6228 29.6337 87.3777V87.3757Z" fill="#4F5B5D"/>
<path d="M30.5795 87.5809C30.6201 87.5829 30.6606 87.587 30.7033 87.587C30.752 87.587 30.8047 87.5849 30.8595 87.5809C31.4562 86.9761 31.8215 86.6392 32.7388 85.799C32.6698 85.7787 32.5947 85.7564 32.5156 85.7321C31.5922 86.5763 31.2492 86.897 30.5795 87.5789V87.5809Z" fill="#4F5B5D"/>
<path d="M30.0861 87.4998C30.1551 87.516 30.2221 87.5322 30.283 87.5444C30.2931 87.5464 30.3053 87.5485 30.3155 87.5505C30.9974 86.8564 31.4012 86.483 32.2942 85.6651C32.2231 85.6428 32.1501 85.6205 32.073 85.5941C31.2003 86.3937 30.8025 86.7631 30.0841 87.4998H30.0861Z" fill="#4F5B5D"/>
<path d="M32.964 85.864C32.0568 86.6941 31.726 86.9985 31.1923 87.5403C31.3059 87.52 31.4297 87.4896 31.5616 87.451C31.9837 87.033 32.3409 86.7062 33.1852 85.933C33.1223 85.9087 33.0492 85.8863 32.964 85.864Z" fill="#4F5B5D"/>
<path d="M27.9066 86.7996C27.9756 86.824 28.0446 86.8503 28.1136 86.8747C28.8544 86.1238 29.5139 85.5069 30.1471 84.9244C30.0761 84.898 30.0051 84.8716 29.934 84.8473C29.3049 85.4257 28.6453 86.0447 27.9066 86.7996Z" fill="#4F5B5D"/>
<path d="M24.6472 85.4397C24.6898 85.4823 24.7446 85.5209 24.8116 85.5594C25.4955 84.8735 26.3743 84.0515 26.8654 83.5969C26.8167 83.5766 26.7375 83.5503 26.634 83.5381C26.1247 84.013 25.2966 84.7903 24.6492 85.4397H24.6472Z" fill="#4F5B5D"/>
<path d="M25.0106 85.6548C25.0674 85.6792 25.1344 85.7096 25.2074 85.74C25.8934 85.0521 26.7437 84.2545 27.2531 83.7816C27.1821 83.7512 27.1171 83.7187 27.0563 83.6903C26.5245 84.1835 25.6803 84.977 25.0085 85.6548H25.0106Z" fill="#4F5B5D"/>
<path d="M25.4144 85.8276C25.4773 85.8539 25.5443 85.8823 25.6153 85.9108C26.2891 85.2329 27.1029 84.4678 27.657 83.9564C27.588 83.928 27.519 83.8976 27.454 83.8691C26.8858 84.3968 26.076 85.1578 25.4144 85.8276Z" fill="#4F5B5D"/>
<path d="M27.4845 86.6431C27.5535 86.6695 27.6225 86.6939 27.6915 86.7202C28.4282 85.9734 29.1385 85.3098 29.725 84.7699C29.654 84.7436 29.5829 84.7172 29.5139 84.6908C28.9234 85.2367 28.2151 85.9003 27.4845 86.6451V86.6431Z" fill="#4F5B5D"/>
<path d="M33.3821 86.0222C32.6839 86.6615 32.3389 86.9781 32.0162 87.2926C32.1948 87.2196 32.3856 87.1323 32.5926 87.0227C32.828 86.8036 33.1223 86.5336 33.5404 86.1521C33.5119 86.1135 33.4612 86.0689 33.3841 86.0222H33.3821Z" fill="#4F5B5D"/>
<path d="M25.8244 85.9959C25.8894 86.0223 25.9563 86.0487 26.0253 86.0771C26.4576 85.6428 27.1111 85.0056 28.0629 84.1248C27.9939 84.0964 27.9249 84.068 27.8579 84.0396C26.8939 84.9305 26.2445 85.5677 25.8224 85.9939L25.8244 85.9959Z" fill="#4F5B5D"/>
<path d="M26.2344 86.1603C26.3013 86.1867 26.3683 86.2131 26.4373 86.2415C27.1497 85.5231 27.9513 84.7702 28.4729 84.2912C28.4018 84.2628 28.3348 84.2364 28.2658 84.208C27.726 84.7073 26.9325 85.4541 26.2344 86.1603Z" fill="#4F5B5D"/>
<path d="M27.0664 86.4849C27.1334 86.5113 27.2024 86.5377 27.2714 86.562C28 85.8233 28.7427 85.1293 29.3049 84.6117C29.2359 84.5854 29.1649 84.559 29.0959 84.5326C28.5235 85.0602 27.7869 85.7523 27.0664 86.4849Z" fill="#4F5B5D"/>
<path d="M26.6484 86.3245C26.7154 86.3509 26.7844 86.3772 26.8514 86.4036C27.5739 85.673 28.343 84.9526 28.8869 84.4513C28.8179 84.4249 28.7489 84.3965 28.6799 84.3701C28.1238 84.8836 27.3608 85.6 26.6484 86.3224V86.3245Z" fill="#4F5B5D"/>
<path d="M14.9345 79.5829C15.1476 79.7737 15.6083 80.2303 16.1319 79.6621C16.6575 79.0938 17.2136 78.2557 17.2136 78.2557C17.2136 78.2557 17.5221 77.6712 16.9823 77.2775C16.4424 76.8838 15.3628 75.9827 14.7905 75.3516C14.2182 74.7204 13.4165 73.4885 13.4165 73.4885C13.4165 73.4885 13.1385 72.967 12.6595 73.6631C12.1806 74.3571 11.7646 75.2115 11.7646 75.2115C11.7646 75.2115 11.4398 75.9381 11.7646 76.3805C12.0893 76.8229 14.4191 79.1243 14.9345 79.587V79.5829Z" fill="#4F5B5D"/>
<path d="M15.2429 79.4714L15.2186 79.447C14.6666 78.9519 12.3713 76.6789 12.0628 76.2588C11.7827 75.8752 12.0729 75.2136 12.075 75.2075C12.077 75.2035 12.493 74.3572 12.9598 73.6794C13.0389 73.5657 13.1161 73.4805 13.1891 73.4277C13.1729 73.4216 13.1526 73.4155 13.1323 73.4155C13.0247 73.4155 12.8908 73.5271 12.7508 73.7281C12.282 74.4079 11.868 75.2522 11.8659 75.2562C11.8619 75.2623 11.5717 75.926 11.8538 76.3095C12.1622 76.7296 14.4555 79.0026 15.0075 79.4978L15.0339 79.5201C15.1678 79.6398 15.3688 79.8225 15.6021 79.8225C15.6732 79.8225 15.7401 79.8062 15.8091 79.7717C15.5778 79.7717 15.3769 79.5891 15.2429 79.4694V79.4714Z" fill="#434E4F"/>
<path d="M16.0505 79.5827C16.562 79.0287 17.112 78.2027 17.114 78.2027C17.1241 78.1824 17.3677 77.6994 16.9171 77.3707C16.357 76.9607 15.2794 76.0596 14.7071 75.4285C14.1368 74.7973 13.3554 73.602 13.3169 73.5431C13.3169 73.5431 13.2682 73.4579 13.187 73.4254C13.1139 73.4782 13.0368 73.5634 12.9577 73.6771C12.4909 74.3569 12.0749 75.2012 12.0728 75.2052C12.0688 75.2113 11.7786 75.8729 12.0607 76.2565C12.3691 76.6766 14.6624 78.9516 15.2164 79.4447L15.2408 79.4691C15.3747 79.5888 15.5757 79.7695 15.807 79.7715C15.8882 79.7309 15.9694 79.67 16.0485 79.5827H16.0505Z" fill="#364042"/>
<path d="M14.1794 74.777C14.1367 74.7222 14.0962 74.6653 14.0556 74.6085C13.674 75.1484 13.0611 76.0636 12.5132 76.9079C12.5578 76.9566 12.6065 77.0053 12.6552 77.056C13.191 76.226 13.7958 75.3229 14.1794 74.7749V74.777Z" fill="#4F5B5D"/>
<path d="M14.4048 75.0694C14.3622 75.0146 14.3195 74.9619 14.2769 74.905C13.8893 75.4449 13.3048 76.3114 12.7528 77.1577C12.7995 77.2044 12.8462 77.2551 12.8949 77.3038C13.4306 76.4819 14.0131 75.6153 14.4048 75.0694Z" fill="#4F5B5D"/>
<path d="M14.8818 75.6152C14.8331 75.5645 14.7864 75.5158 14.7418 75.4691C14.3846 75.9481 13.8813 76.6787 13.2339 77.6508C13.2806 77.6995 13.3293 77.7482 13.378 77.7969C14.0233 76.8268 14.5246 76.0962 14.8818 75.6173V75.6152Z" fill="#4F5B5D"/>
<path d="M13.9602 74.4787C13.9176 74.4198 13.877 74.363 13.8364 74.3062C13.467 74.8358 12.8318 75.7897 12.2758 76.6562C12.3184 76.7029 12.3651 76.7537 12.4158 76.8064C12.9536 75.9683 13.5827 75.0205 13.9582 74.4787H13.9602Z" fill="#4F5B5D"/>
<path d="M17.1424 77.6467C16.4849 78.4037 16.0506 78.974 15.4783 79.7573C15.5392 79.7858 15.6 79.8101 15.667 79.8162C15.6731 79.8162 15.6812 79.8121 15.6853 79.8121C16.2008 79.1079 16.6087 78.5722 17.1871 77.9004C17.1891 77.8213 17.1789 77.736 17.1424 77.6467Z" fill="#4F5B5D"/>
<path d="M13.7432 74.1743C13.7006 74.1134 13.66 74.0546 13.6214 73.9998C13.2622 74.5234 12.5905 75.5401 12.0446 76.3986C12.0811 76.4432 12.1278 76.4939 12.1826 76.5548C12.7447 75.67 13.388 74.6999 13.7452 74.1763L13.7432 74.1743Z" fill="#4F5B5D"/>
<path d="M13.3211 73.5471L13.317 73.543C13.317 73.543 13.2683 73.4578 13.1892 73.4274C13.175 73.4314 13.1587 73.4416 13.1445 73.4497C12.903 73.817 12.4687 74.4786 12.0364 75.1544C12.004 75.2173 11.9837 75.2559 11.9837 75.2559C11.9816 75.26 11.866 75.5238 11.8497 75.816C12.3875 74.9616 13.0126 74.0098 13.317 73.5471H13.3211Z" fill="#4F5B5D"/>
<path d="M13.53 73.8636C13.4834 73.7946 13.4428 73.7337 13.4103 73.683C13.0836 74.166 12.4199 75.1767 11.8679 76.0473C11.8821 76.1305 11.9105 76.2076 11.9572 76.2786C12.5173 75.3918 13.1871 74.373 13.5321 73.8616L13.53 73.8636Z" fill="#4F5B5D"/>
<path d="M14.6381 75.3495C14.5955 75.2988 14.5508 75.248 14.5062 75.1932C14.0435 75.8244 13.3941 76.7965 12.9943 77.4033C13.0409 77.452 13.0896 77.5007 13.1384 77.5494C13.666 76.7478 14.2363 75.9035 14.6401 75.3495H14.6381Z" fill="#4F5B5D"/>
<path d="M16.777 77.2672C16.7263 77.2286 16.6735 77.188 16.6187 77.1454C16.0363 77.8293 15.5573 78.4767 14.9485 79.3311C15.0053 79.3839 15.054 79.4305 15.0966 79.4671C15.7116 78.6046 16.1905 77.9531 16.777 77.2672Z" fill="#4F5B5D"/>
<path d="M16.491 77.044C16.4403 77.0034 16.3895 76.9629 16.3348 76.9182C15.8051 77.5494 15.32 78.215 14.701 79.0958C14.7518 79.1445 14.8025 79.1912 14.8472 79.2358C15.4743 78.3469 15.9613 77.6772 16.491 77.0461V77.044Z" fill="#4F5B5D"/>
<path d="M16.211 76.8166C16.1603 76.774 16.1095 76.7313 16.0568 76.6887C15.5595 77.2915 15.0644 77.9815 14.4535 78.8582C14.5042 78.9069 14.5529 78.9536 14.5996 79.0003C15.2166 78.1154 15.7138 77.4214 16.211 76.8186V76.8166Z" fill="#4F5B5D"/>
<path d="M17.0552 77.5005C17.0186 77.4558 16.974 77.4132 16.9172 77.3706C16.9151 77.3686 16.9111 77.3665 16.909 77.3645C16.2738 78.0992 15.8111 78.7181 15.2023 79.5624C15.2489 79.603 15.3017 79.6456 15.3585 79.6862C15.9633 78.844 16.424 78.2311 17.0552 77.5005Z" fill="#4F5B5D"/>
<path d="M15.1374 75.8667C15.0887 75.82 15.04 75.7713 14.9933 75.7267C14.555 76.3051 13.9948 77.125 13.4794 77.8941C13.5281 77.9428 13.5748 77.9895 13.6235 78.0382C14.1389 77.2711 14.7011 76.4471 15.1395 75.8687L15.1374 75.8667Z" fill="#4F5B5D"/>
<path d="M15.937 76.5872C15.8862 76.5445 15.8355 76.4999 15.7848 76.4573C15.3139 77.0397 14.8086 77.75 14.2079 78.6186C14.2586 78.6673 14.3053 78.714 14.354 78.7607C14.9588 77.886 15.4661 77.1696 15.937 76.5872Z" fill="#4F5B5D"/>
<path d="M15.3971 76.1124C15.3464 76.0678 15.2977 76.0211 15.251 75.9764C14.7985 76.5609 14.2485 77.3585 13.7208 78.1358C13.7695 78.1845 13.8182 78.2311 13.8649 78.2799C14.3926 77.4985 14.9466 76.6969 15.3971 76.1124Z" fill="#4F5B5D"/>
<path d="M15.665 76.3518C15.6143 76.3072 15.5656 76.2625 15.5149 76.2179C15.0582 76.7943 14.5367 77.5411 13.9644 78.3772C14.0131 78.4259 14.0618 78.4726 14.1084 78.5193C14.6828 77.6791 15.2084 76.9262 15.663 76.3498L15.665 76.3518Z" fill="#4F5B5D"/>
<g style="mix-blend-mode:multiply" opacity="0.2">
<path d="M56.0955 92.0741L55.9677 92.0376C56.9174 88.6382 57.23 79.0714 57.2645 74.4869C57.2969 69.8679 57.299 62.1581 57.299 62.0809H57.4309C57.4309 62.1581 57.4309 69.8699 57.3964 74.489C57.3639 79.0796 57.0473 88.6626 56.0955 92.0761V92.0741Z" fill="black"/>
</g>
<path d="M20.9741 99.5932C20.9741 99.5932 22.9487 96.7864 24.5053 95.9483C26.0619 95.1101 31.0787 94.5297 31.2755 94.4911C31.4724 94.4546 31.791 94.5703 31.5759 95.033C31.3628 95.4937 30.1695 98.2537 29.0776 99.2908C27.9878 100.328 27.5353 100.935 25.2887 100.665C23.0421 100.395 20.972 99.5932 20.972 99.5932H20.9741Z" fill="#E3E2E3"/>
<path d="M25.4044 98.333C25.2116 98.9683 24.2192 99.914 23.8031 100.054L23.3851 99.0961L22.9 98.0428C22.9 98.0428 23.2389 97.9028 23.7057 97.8034C23.7057 97.8034 25.1527 97.5091 25.3922 97.8541C25.5424 98.0692 25.4044 98.333 25.4044 98.333Z" fill="url(#paint6_linear_43_31362)"/>
<path d="M24.2028 99.4836C24.2028 99.993 23.8537 100.198 23.4235 99.9443C22.9932 99.6906 22.6442 99.0716 22.6442 98.5622C22.6442 98.0528 22.9932 97.8479 23.4235 98.1015C23.8537 98.3552 24.2028 98.9742 24.2028 99.4836Z" fill="white"/>
<path d="M29.721 96.9062C29.3476 98.1279 27.4379 99.9504 26.6383 100.22L25.8306 98.3735L24.895 96.3461C24.895 96.3461 25.5485 96.0741 26.4475 95.8874C26.4475 95.8874 29.2319 95.3232 29.6947 95.9848C29.9849 96.4009 29.719 96.9062 29.719 96.9062H29.721Z" fill="url(#paint7_linear_43_31362)"/>
<path d="M27.4095 99.1222C27.4095 100.102 26.7357 100.5 25.9077 100.009C25.0776 99.52 24.4059 98.3266 24.4059 97.3484C24.4059 96.3703 25.0776 95.9705 25.9077 96.4596C26.7377 96.9507 27.4095 98.142 27.4095 99.1222Z" fill="white"/>
<path d="M30.4515 96.3441C30.2181 97.1051 29.0289 98.2396 28.5317 98.408L28.0284 97.2573L27.4459 95.993C27.4459 95.993 27.8538 95.8245 28.414 95.7068C28.414 95.7068 30.1491 95.3557 30.4373 95.7677C30.6179 96.0255 30.4536 96.342 30.4536 96.342L30.4515 96.3441Z" fill="url(#paint8_linear_43_31362)"/>
<path d="M29.0107 97.7239C29.0107 98.3347 28.5906 98.5823 28.0751 98.2759C27.5576 97.9694 27.1395 97.2287 27.1395 96.6178C27.1395 96.007 27.5596 95.7594 28.0751 96.0658C28.5926 96.3702 29.0107 97.113 29.0107 97.7239Z" fill="white"/>
<path d="M20.9744 99.5932C20.9744 99.5932 22.9491 96.7864 24.5057 95.9483C26.0623 95.1101 31.079 94.5297 31.2759 94.4911C31.4728 94.4546 31.7914 94.5703 31.5763 95.033C31.3632 95.4937 30.1699 98.2537 29.078 99.2908C27.9882 100.328 27.5356 100.935 25.289 100.665C23.0424 100.395 20.9724 99.5932 20.9724 99.5932H20.9744Z" fill="url(#paint9_linear_43_31362)"/>
<path d="M5.81607 84.8047C5.81404 84.4901 5.78563 84.066 5.74504 83.5972C5.18694 83.6438 4.75061 83.8042 4.75061 83.8042L4.79932 85.9107L4.81961 87.8225C5.03473 87.7656 5.4183 87.4856 5.83433 87.098C5.82622 86.1685 5.82013 85.2775 5.81404 84.8027L5.81607 84.8047Z" fill="url(#paint10_linear_43_31362)"/>
<path d="M3.77844 87.3171C3.77844 87.3171 5.32691 89.7321 5.86065 90.2781C5.86065 90.2781 5.82818 86.0649 5.816 84.8026C5.80789 83.7331 5.51362 81.3769 5.35735 80.417C4.9474 81.0481 4.62878 81.6022 4.4786 81.9797C3.93471 83.3536 3.77844 87.3151 3.77844 87.3151V87.3171Z" fill="#E3E2E3"/>
<path d="M5.53207 86.8767C5.29462 87.8264 4.80959 88.1085 4.44631 87.5078C4.08507 86.9071 3.9836 85.6509 4.22105 84.7011C4.45849 83.7513 4.94353 83.4692 5.30477 84.0679C5.66601 84.6686 5.76748 85.9249 5.53004 86.8746L5.53207 86.8767Z" fill="white"/>
<path d="M3.77856 87.3178C3.77856 87.3178 5.32703 89.7329 5.86077 90.2788C5.86077 90.2788 5.8283 86.0657 5.81613 84.8034C5.80801 83.7338 5.51374 81.3777 5.35747 80.4177C4.94752 81.0489 4.6289 81.6029 4.47872 81.9804C3.93483 83.3543 3.77856 87.3158 3.77856 87.3158V87.3178Z" fill="url(#paint11_linear_43_31362)"/>
<path d="M116.088 41.4718V50.237L117.841 49.0964C117.835 48.9239 117.831 48.8224 117.831 48.8224L117.973 45.0172C117.973 45.0172 117.882 42.7118 117.657 39.8036L116.358 40.7595C116.358 40.7595 116.049 40.9482 116.086 41.4718H116.088Z" fill="#AF1F24"/>
<path d="M116.088 45.9266L117.959 44.6704C117.941 44.2726 117.906 43.5563 117.852 42.6349L116.09 43.8586V45.9266H116.088Z" fill="#E3E2E3"/>
<path d="M116.472 47.5015V49.0642L117.858 48.1063L117.917 46.5111L116.472 47.5015Z" fill="#E3E2E3"/>
<path d="M58.8881 86.6676C58.8881 86.7772 58.813 86.9111 58.7196 86.9659L57.5994 87.6295C57.506 87.6843 57.4309 87.6397 57.4309 87.5301V87.2886C57.4309 87.179 57.506 87.0451 57.5994 86.9903L58.7196 86.3266C58.813 86.2719 58.8881 86.3165 58.8881 86.4261V86.6676Z" fill="#D47728"/>
<path d="M59.0891 86.7608C59.0891 86.8684 59.014 87.0043 58.9206 87.0591L57.7983 87.7207C57.707 87.7755 57.6299 87.7309 57.6299 87.6213V87.3798C57.6299 87.2702 57.707 87.1363 57.7983 87.0815L58.9206 86.4178C59.014 86.363 59.0891 86.4077 59.0891 86.5173V86.7608Z" fill="#EF9042"/>
<path d="M91.6555 67.3269C91.6555 67.4345 91.5804 67.5704 91.4871 67.6252L90.3668 68.2868C90.2735 68.3416 90.1984 68.297 90.1984 68.1874V67.9479C90.1984 67.8383 90.2735 67.7044 90.3668 67.6496L91.4871 66.9859C91.5784 66.9312 91.6555 66.9758 91.6555 67.0854V67.3269Z" fill="#D47728"/>
<path d="M91.8544 67.4184C91.8544 67.528 91.7793 67.6619 91.686 67.7167L90.5637 68.3783C90.4724 68.4331 90.3953 68.3884 90.3953 68.2788V68.0373C90.3953 67.9278 90.4724 67.7938 90.5637 67.739L91.686 67.0754C91.7793 67.0226 91.8544 67.0652 91.8544 67.1748V67.4163V67.4184Z" fill="#EF9042"/>
<path d="M115.37 52.7981C115.37 52.9056 115.295 53.0416 115.201 53.0944L114.081 53.758C113.988 53.8128 113.912 53.7682 113.912 53.6586V53.4171C113.912 53.3075 113.988 53.1735 114.081 53.1187L115.201 52.4571C115.295 52.4023 115.37 52.447 115.37 52.5566V52.7981Z" fill="#D47728"/>
<path d="M115.568 52.8896C115.568 52.9972 115.493 53.1332 115.4 53.188L114.278 53.8496C114.186 53.9044 114.109 53.8597 114.109 53.7501V53.5086C114.109 53.399 114.186 53.2651 114.278 53.2103L115.4 52.5487C115.493 52.4939 115.568 52.5385 115.568 52.6481V52.8896Z" fill="#EF9042"/>
<defs>
<linearGradient id="paint0_linear_43_31362" x1="41.6968" y1="99.315" x2="35.7343" y2="105.673" gradientUnits="userSpaceOnUse">
<stop stop-color="#C0BFBF"/>
<stop offset="1" stop-color="#DEDDDB"/>
</linearGradient>
<linearGradient id="paint1_linear_43_31362" x1="100.579" y1="64.6175" x2="94.6185" y2="70.9758" gradientUnits="userSpaceOnUse">
<stop stop-color="#C0BFBF"/>
<stop offset="1" stop-color="#DEDDDB"/>
</linearGradient>
<linearGradient id="paint2_linear_43_31362" x1="55.359" y1="80.5812" x2="54.5695" y2="78.6817" gradientUnits="userSpaceOnUse">
<stop stop-color="white"/>
<stop offset="1"/>
</linearGradient>
<linearGradient id="paint3_linear_43_31362" x1="55.359" y1="80.5812" x2="54.5695" y2="78.6817" gradientUnits="userSpaceOnUse">
<stop stop-color="white"/>
<stop offset="1"/>
</linearGradient>
<linearGradient id="paint4_linear_43_31362" x1="21.7167" y1="95.6768" x2="31.6447" y2="96.241" gradientUnits="userSpaceOnUse">
<stop stop-color="white"/>
<stop offset="0.52" stop-color="white"/>
<stop offset="1" stop-color="white"/>
</linearGradient>
<linearGradient id="paint5_linear_43_31362" x1="9.98839" y1="93.6534" x2="11.7276" y2="97.1339" gradientUnits="userSpaceOnUse">
<stop stop-color="white"/>
<stop offset="0.52" stop-color="white"/>
<stop offset="1" stop-color="white"/>
</linearGradient>
<linearGradient id="paint6_linear_43_31362" x1="24.1563" y1="97.9393" x2="24.5317" y2="99.3741" gradientUnits="userSpaceOnUse">
<stop stop-color="#F9FCFF"/>
<stop offset="1" stop-color="#D3D6D8"/>
</linearGradient>
<linearGradient id="paint7_linear_43_31362" x1="27.3161" y1="96.1492" x2="28.0386" y2="98.9113" gradientUnits="userSpaceOnUse">
<stop stop-color="#F9FCFF"/>
<stop offset="1" stop-color="#D3D6D8"/>
</linearGradient>
<linearGradient id="paint8_linear_43_31362" x1="28.9538" y1="95.8733" x2="29.4043" y2="97.5942" gradientUnits="userSpaceOnUse">
<stop stop-color="#F9FCFF"/>
<stop offset="1" stop-color="#D3D6D8"/>
</linearGradient>
<linearGradient id="paint9_linear_43_31362" x1="20.9744" y1="97.6084" x2="31.6473" y2="97.6084" gradientUnits="userSpaceOnUse">
<stop stop-color="white"/>
<stop offset="1" stop-color="white"/>
</linearGradient>
<linearGradient id="paint10_linear_43_31362" x1="4.8947" y1="84.2202" x2="5.55833" y2="86.7651" gradientUnits="userSpaceOnUse">
<stop stop-color="#F9FCFF"/>
<stop offset="1" stop-color="#D3D6D8"/>
</linearGradient>
<linearGradient id="paint11_linear_43_31362" x1="3.77856" y1="85.3493" x2="5.86077" y2="85.3493" gradientUnits="userSpaceOnUse">
<stop stop-color="white"/>
<stop offset="1" stop-color="white"/>
</linearGradient>
</defs>
</svg>
